<svg xmlns="http://www.w3.org/2000/svg" width="91" height="25" fill="none" viewBox="0 0 91 25">
    <path fill="#fff" d="M26.357 8.973c-1.2-2.94-6.12-3.54-11.46-1.68l-2.4-1.5c-.72-.42-1.56.12-1.62.96v2.4c-4.62 2.76-7.26 6.72-6.12 9.54 1.32 3.24 7.2 3.66 13.2.96 5.94-2.64 9.72-7.44 8.4-10.68zm-13.14-1.32l5.7 3.6c.42.24.48.9 0 1.2l-5.76 3.48c-.42.24-1.08-.06-1.02-.66v-6.96c0-.54.6-.9 1.08-.66zm-3 13.08c-2.58-.18-3.6-1.92-2.94-4.26 0 .36.06.78.18 1.08 1.02 2.52 5.58 2.82 10.14.78.12-.06.18-.06.3-.12-2.58 1.68-5.46 2.64-7.68 2.52zm10.74-6.36c-2.28 2.94-6.42 4.98-9.24 4.74-2.82-.24-3.24-2.76-.96-5.7.06-.06.12-.12.12-.18v3.66c0 .96.9 1.38 1.5 1.02l8.46-5.16c.66-.42.6-1.38-.06-1.74l-3.36-1.98c.9-.3 1.8-.42 2.58-.36 2.88.24 3.3 2.82.96 5.7zm3.18-4.2c0-.06 0-.06-.06-.12-.84-1.98-3.9-2.64-7.5-1.68l-.6-.36c1.74-.78 3.54-1.14 4.98-1.08 2.28.18 3.36 1.44 3.18 3.24zM85.217 15.273c-.3.42-.66.72-.9.9-.3.24-.54.42-.66.42-.06 0-.18-.12-.24-.18s-.12-.12-.12-.18c0-.12 0-.24.06-.36 0-.12.06-.24.06-.36l1.68-5.7c.06-.18.06-.3.12-.48 0-.12.06-.24.06-.36 0-.3-.06-.54-.24-.72-.18-.12-.36-.24-.66-.24-.6 0-1.38.36-2.4 1.02s-2.1 1.62-3.3 2.82l2.34-8.4h-.6c-.48.18-.96.36-1.5.42-.54.12-1.14.18-1.74.18l-.12.54h.78c.48 0 .78.06.9.12s.18.24.18.42v.24c0 .06 0 .18-.06.24l-2.28 8.22c-.9 1.32-1.68 1.98-2.16 2.28-.48.3-.96.54-1.5.54-.66 0-1.14-.3-1.56-.72-.36-.42-.54-1.02-.54-1.74 0-.66.12-1.32.36-1.98.24-.66.54-1.32 1.02-1.92.36-.48.78-.9 1.26-1.2.48-.3.96-.42 1.38-.42.24 0 .42.06.54.12.12.06.18.18.18.3 0 .06-.06.24-.18.48s-.18.48-.18.66c0 .3.06.48.24.66.18.18.36.24.6.24.3 0 .6-.12.84-.36s.36-.54.36-.84c0-.54-.24-1.02-.66-1.38-.42-.36-1.02-.54-1.74-.54s-1.38.18-2.04.48c-.66.3-1.26.78-1.86 1.32-.6.66-1.08 1.32-1.38 2.16-.36.78-.48 1.56-.48 2.34v.42c-.72.66-1.44 1.14-2.04 1.44-.66.36-1.26.6-1.8.6s-.96-.24-1.2-.54c-.3-.3-.42-.72-.42-1.26 0-.18 0-.36.06-.6 0-.24.06-.48.12-.72 1.86-.18 3.36-.6 4.56-1.32 1.14-.72 1.74-1.62 1.74-2.58 0-.54-.18-1.02-.6-1.32-.42-.3-.96-.48-1.62-.48-.72 0-1.44.18-2.16.54-.72.36-1.32.84-1.92 1.5-.6.66-1.08 1.5-1.44 2.34-.36.9-.54 1.74-.54 2.64-.42.48-.72.84-1.02 1.08-.3.24-.54.36-.78.36-.18 0-.3-.06-.36-.18-.12-.12-.12-.3-.12-.48v-.3c0-.12.06-.24.06-.42l1.62-6.42h1.68l.18-.72h-1.62l.78-3.36h-.6c-.48 1.02-1.02 1.8-1.62 2.4-.6.54-1.26.96-2.04 1.08v.06c-.24-.18-.48-.24-.84-.24-.42 0-.78.12-1.02.36s-.36.6-.36 1.02c0 .36.18.72.54.96.36.3.54.54.54.72 0 .24-.12.66-.36 1.2-.24.54-.66 1.44-1.26 2.64-.12-.66-.3-1.56-.48-2.7-.48-2.82-.9-4.2-1.26-4.2-.06 0-.48.06-1.26.18l-1.44.18.06-.18h-2.76l-.3 1.14c-.12-.48-.3-.9-.6-1.14-.3-.24-.66-.36-1.2-.36-.54 0-1.08.18-1.68.48-.6.3-1.14.78-1.68 1.38-.66.78-1.2 1.62-1.62 2.64-.36.9-.54 1.8-.6 2.58-.24.36-.42.6-.54.72-.12.18-.24.24-.36.24s-.18-.06-.24-.12-.06-.18-.06-.3c0-.06 0-.12.06-.3 0-.12.06-.18.06-.24l3-11.76c-.66.18-1.38.3-2.1.36-.78.12-1.5.18-2.34.24v.48h.18c.3 0 .48.06.6.12.12.12.18.24.18.42 0 .12-.06.48-.18.96-.06.12-.06.24-.06.3l-1.38 5.46v-.6c0-.9-.18-1.56-.6-2.04s-1.02-.72-1.74-.72c-.54 0-1.08.18-1.62.54-.54.36-1.08.96-1.62 1.74l.54-2.04c-.66.12-1.38.24-2.1.36-.72.12-1.5.18-2.28.24v.48c.42 0 .66.06.78.12s.24.24.24.48c0 .06 0 .18-.06.3 0 .12-.06.3-.06.42l-2.16 8.76c-.18.72-.36 1.2-.54 1.38-.18.18-.42.24-.78.24h-.12v.54h5.4v-.54c-.48-.06-.78-.12-.96-.18-.06 0-.12-.18-.12-.48v-.42c0-.12.06-.3.06-.42l.6-2.22c.24.18.48.3.72.42.3.12.54.12.84.12.72 0 1.44-.18 2.1-.6.66-.42 1.26-1.02 1.86-1.86.42-.54.72-1.2 1.02-1.8l-.12.36v.12c-.3 1.14-.42 1.86-.42 2.1 0 .54.12.96.42 1.26.3.3.66.42 1.2.42.6 0 1.14-.24 1.68-.66.3-.3.66-.66 1.02-1.14.12.42.24.84.54 1.14.42.42.96.66 1.68.66s1.32-.24 1.86-.66c.54-.42 1.08-1.08 1.56-1.92-.06.3-.12.6-.12.78 0 .18-.06.36-.06.48 0 .42.12.78.42 1.02.24.24.66.36 1.14.36.6 0 1.2-.24 1.68-.66.54-.42 1.02-1.08 1.56-1.98l-.48-.36c-.06.12-.18.24-.3.42-.42.6-.72.9-1.02.9-.12 0-.18-.06-.24-.12s-.06-.18-.06-.36c0-.12.12-.66.36-1.56l1.38-4.98c.12.06.18.06.24.18.12.12.3.48.42.96.18.54.3 1.32.54 2.34.18.96.36 2.1.54 3.24.06.54.18 1.02.18 1.44.06.36.06.72.06.96 0 .36-.12.72-.42 1.08-.3.36-.54.54-.78.54-.12 0-.36-.12-.72-.36s-.72-.36-1.02-.36c-.42 0-.72.12-1.02.36-.24.24-.42.54-.42.96 0 .42.18.78.48 1.02s.72.36 1.26.36c.84 0 1.68-.42 2.52-1.26.9-.84 1.86-2.16 2.94-3.96.96-1.62 1.68-3.06 2.22-4.32.54-1.26.84-2.22.84-2.76 0-.3-.06-.54-.12-.72h1.26l-1.68 6.66c-.06.24-.12.42-.12.6s-.06.36-.06.48c0 .42.12.72.3 1.02.24.24.54.36.9.36.48 0 .96-.24 1.56-.66.42-.36.9-.78 1.32-1.38.12.54.3.96.6 1.32.42.48 1.08.72 1.92.72.84 0 1.68-.18 2.52-.66.72-.36 1.5-.9 2.34-1.56.12.48.36.9.72 1.2.6.66 1.38.96 2.34.96.84 0 1.68-.24 2.4-.66.54-.3 1.02-.78 1.5-1.32l-.54 2.04c.12 0 .3-.06.42-.06h.48c.12 0 .6 0 .72.06l1.14-4.08c.12-.36.3-.78.6-1.14.24-.36.66-.78 1.26-1.32.66-.6 1.2-1.02 1.68-1.32.48-.3.84-.48 1.08-.48.18 0 .3.06.36.12s.12.18.12.36v.18c0 .06-.06.18-.06.3l-1.74 5.94c-.06.12-.06.24-.12.36v.3c0 .24.06.48.24.6s.42.24.72.24c.48 0 .96-.18 1.5-.6.54-.36 1.08-.96 1.68-1.68l-.18-.48zm-19.8-5.34c.66-.72 1.44-1.08 2.22-1.08.3 0 .48.06.66.18.12.12.24.36.24.66 0 .84-.42 1.56-1.32 2.22-.9.66-1.98 1.02-3.3 1.08.24-1.26.78-2.28 1.5-3.06zm-31.68 2.7c-.24.78-.54 1.62-.9 2.46-.3.66-.6 1.14-.96 1.44-.3.36-.66.54-.96.54-.18 0-.36-.06-.48-.18s-.18-.3-.18-.48c0-.12 0-.3.06-.54.06-.24.12-.48.18-.78l.54-1.92c.3-1.2.66-2.1 1.02-2.64.36-.6.78-.84 1.26-.84.18 0 .36.12.48.3s.18.48.18.78c.06.42-.06 1.02-.24 1.86zm13.08-.96c-.18.72-.42 1.5-.78 2.28-.3.72-.6 1.26-.96 1.62-.36.36-.66.6-.96.6-.24 0-.42-.12-.54-.24-.12-.18-.18-.42-.18-.78 0-.54.12-1.14.36-1.92.24-.72.54-1.5.96-2.28.36-.66.66-1.14.9-1.38.24-.3.54-.42.84-.42.18 0 .36.06.48.24s.18.42.18.66c0 .36-.12.9-.3 1.62z"/>
</svg>
