<svg xmlns="http://www.w3.org/2000/svg" width="88" height="25" fill="none" viewBox="0 0 88 25">
    <path fill="#A41E22" d="M12.666 7.829c4.24-1.277 7.522 1.869 7.795 6.7.639-4.284-.957-7.566-2.826-9.162-.866-.091-1.96-.137-2.826-.228-.502.593-1.641 2.143-2.143 2.69z"/>
    <path fill="#ED1C24" d="M19.96 9.014c-1.914-3.875-5.47-2.097-7.293-.912-3.92 2.553-5.972-3.1-1.322-4.558 2.78-.912 7.658 1.55 8.615 5.47z"/>
    <path fill="#659A41" d="M14.444 14.484c-.957 4.285-5.333 5.607-9.71 3.464 3.51 2.599 7.158 2.826 9.482 1.96.502-.729 1.049-1.64 1.55-2.37-.228-.638-1.048-2.37-1.322-3.054z"/>
    <path fill="#A7CF38" d="M9.886 20.227c4.376.183 4.513-3.692 4.376-5.834-.365-4.65 5.607-3.647 4.695 1.048-.593 2.78-5.151 5.835-9.071 4.786z"/>
    <path fill="#136D9A" d="M7.607 12.797C4.416 9.743 5.6 5.367 9.749 2.814c-4.102 1.55-6.245 4.513-6.7 6.884.364.82.82 1.732 1.185 2.552.729.137 2.643.41 3.373.547z"/>
    <path fill="#2AACE3" d="M5.054 5.914c-2.461 3.556.775 5.744 2.69 6.747 4.193 2.142.182 6.655-3.374 3.373-2.097-1.96-2.279-7.34.684-10.12z"/>
    <path fill="#fff" d="M48.997 15.441H51.55c.547 0 .866.092 1.003.32.136.227.182.5.182.911 0 .547-.137.866-.41 1.003-.274.091-.775.182-1.413.182h-1.915v-2.416zm0 5.197v-2.234H51.504c.32 0 .593-.045.866-.09.274-.046.547-.138.775-.32.137-.091.228-.228.32-.41.09-.137.09-.32.136-.456V16.9v-.228-.182-.182c-.046-.228-.091-.41-.137-.639-.045-.228-.228-.364-.456-.547-.136-.09-.273-.182-.455-.228-.183-.045-.365-.045-.547-.09H48.222v5.743l.775.091zm-2.234-1.732c0 .547-.136.866-.364 1.003-.274.136-.73.228-1.368.228h-.775c-.592 0-1.003-.092-1.23-.228-.228-.137-.32-.456-.32-.958v-4.057h-.82v4.057c0 .82.228 1.322.775 1.505.501.182 1.185.228 2.097.228h.82c.82-.046 1.368-.183 1.641-.456.274-.274.41-.684.41-1.322v-4.057h-.82l-.046 4.057zm-10.347-2.143c0-.638.137-1.003.365-1.185.227-.137.638-.228 1.276-.228h.273c.775 0 1.322.046 1.641.183.32.136.456.547.456 1.23v1.915c0 .684-.182 1.14-.547 1.276-.364.137-.911.228-1.732.228-.73 0-1.185-.091-1.413-.273-.228-.183-.32-.547-.32-1.14V16.763zm-.82 1.687v.547c.045.73.273 1.185.683 1.413.41.228 1.048.32 1.869.32H38.832c.911 0 1.504-.138 1.869-.411.364-.274.547-.775.547-1.459v-2.005c0-.912-.228-1.46-.73-1.642-.501-.182-1.23-.273-2.188-.273h-.364c-1.185 0-1.87.228-2.052.775-.182.501-.273 1.14-.273 1.914v.228l-.046.593zm-5.334-3.009h2.644c.593 0 .957.092 1.094.32.137.227.182.547.182.957 0 .456-.137.73-.364.866-.228.137-.639.228-1.186.228h-2.37v-2.37zm0 5.197v-2.325h2.462c.455 0 .82.091 1.048.228.228.137.32.41.32.775v1.322h.82v-1.459c0-.319-.092-.592-.274-.775-.182-.182-.501-.319-.912-.319.639-.09 1.003-.273 1.094-.547.092-.273.183-.592.183-1.003 0-.638-.183-1.048-.502-1.322-.319-.227-.866-.364-1.595-.364h-3.419v5.743l.775.046zm-4.558-2.28h2.279v.502c0 .547-.091.866-.32 1.049-.227.136-.683.228-1.367.228H25.065c-.09 0-.182 0-.273-.046-.547-.091-.82-.228-.912-.547-.09-.274-.136-.638-.136-.957V17.037c0-.684.136-1.094.319-1.322.182-.182.683-.274 1.458-.274h.73c.227 0 .501 0 .729.046.501 0 .775.137.912.32.09.181.182.455.182.82h.775v-.228c0-.456-.137-.82-.365-1.094-.228-.228-.684-.365-1.322-.41h-1.64c-.958 0-1.596.182-1.96.5-.366.32-.548.867-.548 1.596V18.586c0 .867.228 1.46.638 1.733.41.273 1.185.41 2.37.41h.73c.228 0 .502 0 .73-.045.683-.046 1.093-.274 1.276-.639.137-.364.228-.775.228-1.185v-.73c0-.09 0-.227-.046-.318h-3.1l-.136.547zM77.578 4.182h3.51c.639 0 1.186.091 1.641.228.456.182.684.547.82 1.185.046.32.092.638.092.957V8.65l-.137.82c-.09.274-.228.502-.364.684-.183.183-.365.274-.639.365-.273.091-.547.091-.775.137-.136 0-.273.046-.41.046h-3.738V4.181zm3.83 7.202c1.595 0 2.507-.364 2.871-1.14.365-.774.502-1.64.502-2.643v-.775c0-1.14-.228-1.96-.684-2.553-.456-.592-1.459-.866-2.963-.866h-4.65v8.023h4.923v-.046zm-6.93-8.023v7.34l-5.652-7.34h-1.823v8.023h1.094V4.136l5.652 7.248h1.824V3.361h-1.094zm-9.618 8.023H66V3.361h-1.14v8.023zm-1.914-8.023l-2.826 7.34-2.69-7.34h-1.64l-2.69 7.34-2.735-7.34h-1.14l3.1 8.023h1.686l2.599-7.202 2.644 7.202h1.732l3.145-8.023h-1.185zm-15.59 0L44.393 7.1l-3.008-3.738h-1.322l3.692 4.696v3.373h1.14V8.057l3.783-4.696h-1.322zm-15.954 0v8.023h1.14V7.646h1.002l4.604 3.738h1.55l-5.197-4.148 4.605-3.874H37.6L33.5 6.871h-1.003v-3.51h-1.094zm-1.049 2.097c0-1.002-.364-1.64-1.003-1.823-.683-.182-1.55-.32-2.598-.32h-.273c-1.049 0-1.87.138-2.507.366-.639.228-.912.82-.912 1.823 0 1.048.365 1.687 1.14 1.914.774.228 1.686.32 2.735.365h.911c.638.046 1.094.137 1.277.32.182.182.273.546.273 1.048 0 .683-.182 1.094-.501 1.276-.32.182-.912.228-1.732.228h-.958c-.911 0-1.504-.091-1.778-.32-.227-.227-.364-.683-.364-1.458h-1.094v.364c0 1.004.364 1.642 1.003 1.824.683.228 1.55.32 2.598.32h1.96c.912-.092 1.459-.32 1.732-.776.228-.456.32-.957.32-1.595 0-1.049-.365-1.687-1.05-1.869-.683-.182-1.549-.274-2.552-.32h-.638c-.228 0-.41 0-.638-.045-.638-.045-1.049-.182-1.231-.364-.182-.228-.273-.547-.273-1.003V5.23v-.182l.136-.41c.046-.137.183-.228.365-.32.137-.09.273-.09.501-.136.183 0 .41-.046.593-.046H27.345c.775 0 1.276.092 1.504.274.228.182.365.593.41 1.185h1.094v-.137z"/>
</svg>
