<svg xmlns="http://www.w3.org/2000/svg" width="87" height="25" fill="none" viewBox="0 0 87 25">
    <path fill="url(#prefix__paint0_linear)" d="M16.633 3.025c-4.88 0-8.856 3.958-8.856 8.816 0 .9.136 1.754.362 2.564.18-.225.316-.45.497-.675.632-.9 1.22-1.8 1.807-2.744l.452-.675c.135-.224.27-.45.452-.72.27-.449.542-.944.858-1.394.136-.224.271-.494.407-.72.135-.224.27-.494.406-.719.136-.225.271-.495.362-.72l.361-.72-.045-.044c.18-.405.678-.54 1.084-.36.317.135.452.495.452.81 0 .404-.09.854-.09 1.304-.045.45-.045.855-.09 1.304-.046.81-.046 1.665-.046 2.52 0 .854.045 1.708.136 2.563.045.405.09.81.18 1.215.09.404.181.764.362 1.034.09.135.136.225.18.27.046.045 0 0 .046 0h.135s.046-.045.09-.045c.091-.09.227-.18.362-.315.226-.27.497-.63.723-.944.226-.36.452-.72.633-1.08.406-.72.813-1.53 1.174-2.294.181-.405.362-.765.543-1.17.18-.404.36-.809.497-1.169.18-.405.632-.585 1.039-.405.27.09.451.36.497.585 0 .09 0 .225.045.36l.045.36c.045.225.045.495.09.72.09.494.181.989.317 1.439.135.494.27.944.497 1.394.18.45.451.9.768 1.26.09.09.045.224-.045.314-.09.045-.181.045-.272 0-.406-.36-.768-.764-1.084-1.214-.316-.45-.587-.9-.813-1.394-.136-.315-.317-.63-.452-.99-.09.18-.18.405-.271.585-.407.81-.768 1.574-1.22 2.384-.226.404-.452.764-.723 1.17-.27.404-.542.764-.858 1.124-.181.18-.362.36-.588.54-.045.044-.135.09-.226.134-.045.045-.09.045-.135.09l-.045.045h-.136c-.045 0-.09.045-.135.045-.09 0-.181.045-.271.045-.181 0-.452 0-.633-.09-.226-.09-.407-.18-.542-.315-.316-.225-.452-.494-.588-.764-.27-.495-.36-.99-.496-1.44-.09-.45-.181-.944-.226-1.394-.09-.9-.136-1.8-.136-2.699v-1.26c-.18.316-.316.63-.497.9-.135.225-.271.495-.407.72l-.406.72c-.542.99-1.13 1.934-1.717 2.878-.361.63-.768 1.215-1.175 1.845 1.582 2.383 4.292 4.003 7.41 4.003 4.88 0 8.855-3.958 8.855-8.816 0-4.813-3.976-8.771-8.9-8.771z"/>
    <path fill="url(#prefix__paint1_linear)" d="M33.169 15.035V9.187h-.136l-1.898 5.893h-.452l-1.897-5.893h-.136v5.893h-.768V8.558h1.4l1.673 5.172 1.671-5.172h1.356v6.477h-.813z"/>
    <path fill="url(#prefix__paint2_linear)" d="M35.111 9.412v-.854h.859v.854h-.859zm0 5.623v-4.993h.814v4.993h-.814z"/>
    <path fill="url(#prefix__paint3_linear)" d="M40.985 13.415c0 .99-.362 1.71-1.988 1.71-2.033 0-2.169-1.17-2.169-2.564 0-1.44.136-2.609 2.169-2.609 1.626 0 1.988.765 1.988 1.71h-.768c0-.81-.271-1.17-1.22-1.17-1.265 0-1.356.675-1.356 2.069 0 1.35.09 2.024 1.356 2.024.949 0 1.22-.405 1.22-1.17h.768z"/>
    <path fill="url(#prefix__paint4_linear)" d="M42.611 10.582c.407-.225.904-.585 1.356-.585h.722l-.045.585h-.677c-.452 0-.904.315-1.266.54v3.913h-.813v-4.993h.678l.045.54z"/>
    <path fill="url(#prefix__paint5_linear)" d="M49.298 12.56c0 1.44-.136 2.565-2.214 2.565s-2.214-1.17-2.214-2.564c0-1.44.136-2.609 2.214-2.609s2.214 1.17 2.214 2.609zm-3.57 0c0 1.35.09 2.025 1.356 2.025 1.31 0 1.355-.675 1.355-2.024 0-1.35-.09-2.07-1.355-2.07s-1.356.676-1.356 2.07z"/>
    <path fill="url(#prefix__paint6_linear)" d="M50.834 16.204c.316.045.723.045 1.175.045 1.265 0 1.446-.315 1.446-1.664-.362.225-.904.45-1.446.45-1.853.045-1.943-.945-1.943-2.519 0-1.574.09-2.609 1.898-2.609.587 0 1.174.27 1.58.54l.091-.45h.678v4.453c0 1.8-.407 2.339-2.078 2.339-.588 0-1.04-.045-1.446-.09l.045-.495zm2.62-5.262c-.361-.225-.813-.45-1.265-.45-1.22 0-1.31.675-1.31 2.024 0 1.35.09 1.98 1.31 1.98.452 0 .904-.226 1.266-.406v-3.148z"/>
    <path fill="url(#prefix__paint7_linear)" d="M58.74 15.035l-.09-.45c-.406.27-.948.54-1.536.54-1.852.045-1.943-.99-1.943-2.609 0-1.574.09-2.609 1.898-2.609.587 0 1.13.27 1.536.54l.09-.45h.678v4.993h-.632v.045zm-.135-4.093c-.361-.18-.813-.405-1.265-.405-1.22 0-1.31.675-1.31 2.024 0 1.35.09 2.024 1.31 2.024.452 0 .904-.225 1.265-.45v-3.193z"/>
    <path fill="url(#prefix__paint8_linear)" d="M61.135 10.492c.362-.225.859-.495 1.4-.54.86-.045 1.266.18 1.492.54.361-.225.903-.54 1.49-.54 1.718-.045 1.853.81 1.853 2.024v3.059h-.813V12.02c0-1.035-.09-1.53-1.175-1.53-.406 0-.813.226-1.175.45.09.315.09.675.09 1.08v3.014h-.722V12.02c0-1.035-.09-1.53-1.175-1.53-.406 0-.813.226-1.13.45v4.139h-.813v-5.038h.678v.45z"/>
    <path fill="url(#prefix__paint9_linear)" d="M68.41 9.412v-.854h.858v.854h-.859zm0 5.623v-4.993h.812v4.993h-.813z"/>
    <path fill="url(#prefix__paint10_linear)" d="M70.985 10.492c.406-.225.948-.495 1.536-.54 1.852-.045 1.942.81 1.942 2.024v3.058h-.813v-3.013c0-1.035-.09-1.53-1.31-1.53-.452 0-.904.226-1.265.45v4.138h-.813v-5.037h.677l.046.45z"/>
    <path fill="url(#prefix__paint11_linear)" d="M76.09 16.204c.316.045.723.045 1.174.045 1.266 0 1.446-.315 1.446-1.664-.361.225-.903.45-1.445.45-1.853.045-1.943-.945-1.943-2.519 0-1.574.09-2.609 1.897-2.609.588 0 1.175.27 1.582.54l.09-.45h.678v4.453c0 1.8-.407 2.339-2.079 2.339-.587 0-1.039-.045-1.445-.09l.045-.495zm2.62-5.262c-.361-.225-.813-.45-1.265-.45-1.22 0-1.31.675-1.31 2.024 0 1.35.09 1.98 1.31 1.98.452 0 .904-.226 1.265-.406v-3.148z"/>
    <defs>
        <linearGradient id="prefix__paint0_linear" x1="21.085" x2="12.272" y1="4.207" y2="19.54" gradientUnits="userSpaceOnUse">
            <stop stop-color="#0099D8"/>
            <stop offset="1" stop-color="#4AAF65"/>
        </linearGradient>
        <linearGradient id="prefix__paint1_linear" x1="27.654" x2="87.783" y1="14.087" y2="-28.205" gradientUnits="userSpaceOnUse">
            <stop stop-color="#0099D8"/>
            <stop offset="1" stop-color="#4AAF65"/>
        </linearGradient>
        <linearGradient id="prefix__paint2_linear" x1="4.02" x2="221.974" y1="33.777" y2="-119.52" gradientUnits="userSpaceOnUse">
            <stop stop-color="#0099D8"/>
            <stop offset="1" stop-color="#4AAF65"/>
        </linearGradient>
        <linearGradient id="prefix__paint3_linear" x1="28.148" x2="79.617" y1="20.102" y2="-16.098" gradientUnits="userSpaceOnUse">
            <stop stop-color="#0099D8"/>
            <stop offset="1" stop-color="#4AAF65"/>
        </linearGradient>
        <linearGradient id="prefix__paint4_linear" x1="19.87" x2="98.043" y1="28.158" y2="-26.825" gradientUnits="userSpaceOnUse">
            <stop stop-color="#0099D8"/>
            <stop offset="1" stop-color="#4AAF65"/>
        </linearGradient>
        <linearGradient id="prefix__paint5_linear" x1="28.748" x2="78.304" y1="25.345" y2="-9.511" gradientUnits="userSpaceOnUse">
            <stop stop-color="#0099D8"/>
            <stop offset="1" stop-color="#4AAF65"/>
        </linearGradient>
        <linearGradient id="prefix__paint6_linear" x1="20.833" x2="88.1" y1="35.234" y2="-12.078" gradientUnits="userSpaceOnUse">
            <stop stop-color="#0099D8"/>
            <stop offset="1" stop-color="#4AAF65"/>
        </linearGradient>
        <linearGradient id="prefix__paint7_linear" x1="24.95" x2="82.428" y1="35.439" y2="-4.988" gradientUnits="userSpaceOnUse">
            <stop stop-color="#0099D8"/>
            <stop offset="1" stop-color="#4AAF65"/>
        </linearGradient>
        <linearGradient id="prefix__paint8_linear" x1="29.569" x2="78.441" y1="36.479" y2="2.105" gradientUnits="userSpaceOnUse">
            <stop stop-color="#0099D8"/>
            <stop offset="1" stop-color="#4AAF65"/>
        </linearGradient>
        <linearGradient id="prefix__paint9_linear" x1="-104.42" x2="113.531" y1="132.578" y2="-20.718" gradientUnits="userSpaceOnUse">
            <stop stop-color="#0099D8"/>
            <stop offset="1" stop-color="#4AAF65"/>
        </linearGradient>
        <linearGradient id="prefix__paint10_linear" x1="21.851" x2="80.094" y1="47.768" y2="6.802" gradientUnits="userSpaceOnUse">
            <stop stop-color="#0099D8"/>
            <stop offset="1" stop-color="#4AAF65"/>
        </linearGradient>
        <linearGradient id="prefix__paint11_linear" x1="12.901" x2="80.167" y1="58.385" y2="11.073" gradientUnits="userSpaceOnUse">
            <stop stop-color="#0099D8"/>
            <stop offset="1" stop-color="#4AAF65"/>
        </linearGradient>
    </defs>
</svg>
