<svg width="58" height="25" viewBox="0 0 58 25" fill="none" xmlns="http://www.w3.org/2000/svg">
<g clip-path="url(#clip0)">
<path d="M47.8376 9.3727C45.2576 9.5527 46.3976 12.9127 49.2776 12.7327C52.0976 12.5527 50.6576 9.1927 47.8376 9.3727Z" fill="#F19021"/>
<path d="M46.7575 7.2727C42.1375 7.2727 38.4175 10.9927 38.4175 15.6127C38.4175 20.2327 42.1375 24.0127 46.7575 24.0127C51.3775 24.0127 55.0975 20.2927 55.0975 15.6727C55.1575 10.9927 51.3775 7.2727 46.7575 7.2727ZM46.7575 23.1127C42.6175 23.1127 39.2575 19.7527 39.2575 15.6127C39.2575 11.4727 42.6175 8.1127 46.7575 8.1127C50.8975 8.1127 54.2575 11.4727 54.2575 15.6127C54.2575 19.7527 50.8975 23.1127 46.7575 23.1127ZM46.5175 1.4527C44.5375 2.9527 44.8975 5.2327 44.8975 5.2327C44.8975 5.2327 43.6375 1.9927 42.0175 0.0126953C41.7775 2.5927 42.6175 5.9527 42.6175 5.9527C42.6175 5.9527 41.5975 3.8527 39.0775 3.7327C41.1175 4.9327 41.9575 7.0327 42.1375 7.6327C43.3975 6.8527 44.7775 6.4327 46.2175 6.3727C46.0375 5.8327 45.4975 3.6127 46.5175 1.4527Z" fill="#F19021"/>
<path d="M3.5574 16.4526V18.1926H2.8374V13.6926H4.3974C4.9374 13.6926 5.2974 13.8126 5.5974 14.0526C5.8374 14.2926 6.0174 14.6526 6.0174 15.0726C6.0174 15.4926 5.8974 15.8526 5.5974 16.0926C5.3574 16.3326 4.9374 16.4526 4.4574 16.4526H3.5574ZM5.2374 15.0726C5.2374 14.8326 5.1774 14.5926 4.9974 14.4726C4.8774 14.3526 4.6374 14.2926 4.3374 14.2926H3.5574V15.8526H4.2774C4.9374 15.8526 5.2374 15.6126 5.2374 15.0726ZM8.9574 18.1926L7.8174 16.3926H7.2774V18.1926H6.5574V13.6926H8.1774C8.7174 13.6926 9.0774 13.8126 9.3774 14.0526C9.6174 14.2926 9.7974 14.6526 9.7974 15.0726C9.7974 15.4326 9.6774 15.7326 9.4974 15.9126C9.3174 16.1526 9.0174 16.2726 8.6574 16.3326L9.8574 18.1926H8.9574ZM7.3374 15.9126H8.1174C8.7174 15.9126 9.0174 15.6726 9.0174 15.1326C9.0174 14.8926 8.9574 14.7126 8.7774 14.5326C8.6574 14.4126 8.4174 14.3526 8.1174 14.3526H7.3374V15.9126ZM13.0974 17.2326H11.1774L10.8174 18.1926H10.0374L11.7174 13.7526H12.5574L14.2374 18.1926H13.4574L13.0974 17.2326ZM12.9174 16.6926L12.1974 14.5926L11.4774 16.6926H12.9174ZM17.8974 14.0526C18.2574 14.2926 18.4974 14.7126 18.6174 15.1326H17.8374C17.7174 14.8926 17.5974 14.7126 17.3574 14.5326C17.1174 14.4126 16.8174 14.2926 16.5774 14.2926C16.3374 14.2926 16.0374 14.3526 15.7974 14.4726C15.5574 14.5926 15.3774 14.7726 15.2574 15.0126C15.1374 15.2526 15.0774 15.5526 15.0774 15.8526C15.0774 16.1526 15.1374 16.4526 15.2574 16.7526C15.3774 16.9926 15.5574 17.1726 15.7974 17.2926C16.0374 17.4126 16.3374 17.4726 16.5774 17.4726C16.9374 17.4726 17.2974 17.3526 17.5374 17.1126C17.7774 16.8726 17.9574 16.5726 18.0174 16.1526H16.3374V15.6126H18.6174V16.3326C18.5574 16.6326 18.4374 16.9926 18.2574 17.2326C18.1974 17.6526 17.8974 17.8926 17.5974 18.0126C17.2974 18.1926 16.9374 18.2526 16.5774 18.2526C16.1574 18.2526 15.7974 18.1326 15.4374 17.9526C15.0774 17.7726 14.8374 17.4726 14.6574 17.1126C14.2974 16.3326 14.2974 15.4926 14.6574 14.7126C14.8374 14.3526 15.0774 14.1126 15.4374 13.8726C15.7974 13.6926 16.2174 13.5726 16.5774 13.5726C17.1174 13.6926 17.5374 13.8126 17.8974 14.0526ZM23.8374 13.7526V18.1926H23.1174V14.8326L21.8574 18.1926H21.1974L19.8774 14.8326V18.1926H19.1574V13.7526H20.0574L21.5574 17.2926L22.9974 13.7526H23.8374ZM27.4374 17.2326H25.5174L25.1574 18.1926H24.3774L26.0574 13.7526H26.8974L28.5774 18.1926H27.7974L27.4374 17.2326ZM27.1974 16.6926L26.4774 14.5926L25.7574 16.6926H27.1974ZM31.6974 13.6926V14.2926H30.4374V18.1926H29.7174V14.2926H28.3974V13.6926H31.6974ZM32.7774 13.6926V18.1926H32.0574V13.6926H32.7774ZM36.9174 14.0526C37.2774 14.3526 37.5774 14.7726 37.6374 15.1926H36.8574C36.7374 14.9526 36.5574 14.7126 36.3774 14.5326C36.1374 14.3526 35.8374 14.2926 35.5374 14.2926C35.2974 14.2926 35.0574 14.3526 34.8174 14.4726C34.5774 14.5926 34.4574 14.8326 34.3374 15.0126C34.0974 15.5526 34.0974 16.1526 34.3374 16.7526C34.4574 16.9926 34.6374 17.1726 34.8174 17.2926C35.0574 17.4126 35.2974 17.4726 35.5374 17.4726C35.8374 17.4726 36.1374 17.4126 36.3774 17.2326C36.6174 17.0526 36.7974 16.8726 36.8574 16.5726H37.6374C37.5174 17.0526 37.2774 17.4126 36.9174 17.7126C36.5574 18.0126 36.0774 18.1326 35.5374 18.1326C35.1174 18.1326 34.7574 18.0126 34.3974 17.8326C34.0974 17.6526 33.7974 17.3526 33.6174 16.9926C33.2574 16.2126 33.2574 15.3726 33.6174 14.5926C33.7974 14.2326 34.0374 13.9926 34.3974 13.7526C34.7574 13.5726 35.1174 13.4526 35.5374 13.4526C36.0774 13.6326 36.5574 13.8126 36.9174 14.0526ZM41.1174 16.4526V18.1926H40.3974V13.6926H41.9574C42.4974 13.6926 42.8574 13.8126 43.1574 14.0526C43.3974 14.2926 43.5774 14.6526 43.5774 15.0726C43.5774 15.4926 43.4574 15.8526 43.1574 16.0926C42.9174 16.3326 42.4974 16.4526 42.0174 16.4526H41.1174ZM42.7374 15.0726C42.7374 14.8326 42.6774 14.5926 42.4974 14.4726C42.3774 14.3526 42.1374 14.2926 41.8374 14.2926H41.1174V15.8526H41.8374C42.4374 15.8526 42.7374 15.6126 42.7374 15.0726ZM44.7174 17.6526H46.2774V18.1926H43.9974V13.6926H44.7174V17.6526ZM49.6374 17.2326H47.7174L47.3574 18.1926H46.5774L48.2574 13.7526H49.0974L50.7774 18.1926H49.9974L49.6374 17.2326ZM49.3974 16.6926L48.6774 14.5926L47.9574 16.6926H49.3974ZM53.6574 13.6926L52.1574 16.5726V18.1926H51.4374V16.5726L49.9374 13.6926H50.7774L51.7974 15.7926L52.8174 13.6926H53.6574Z" fill="white"/>
</g>
<defs>
<clipPath id="clip0">
<path d="M0.197266 0.0126953H57.7973V24.0127H0.197266V0.0126953Z" fill="white"/>
</clipPath>
</defs>
</svg>
