<svg xmlns="http://www.w3.org/2000/svg" width="32" height="33" fill="none" viewBox="0 0 32 33">
    <g fill="#B5B5B5" clip-path="url(#prefix__clip0)">
        <path d="M10.67 3.097h-.266v.4h.2c.2 0 .333-.133.333-.2 0-.133-.066-.266-.266-.2zM10.937 2.63c0-.133-.066-.2-.333-.2h-.2v.4h.267c.2 0 .266-.133.266-.2zM12.136 3.297c.2 0 .334-.133.334-.4v-.266c0-.267-.067-.4-.267-.333-.2 0-.266.133-.266.4v.266c0 .267.066.333.2.333zM15.202 2.564c.266 0 .333-.067.333-.2s-.133-.2-.267-.2h-.2v.4h.134zM21.532 3.497s.067 0 0 0c.2 0 .267-.133.267-.333v-.267c0-.266-.067-.4-.267-.4s-.266.067-.266.334v.266c0 .267.066.4.266.4zM6.14 3.23c-.067 0-.067 0 0 0-.133.2-.133.467-.2.667.133 0 .2-.067.333-.067-.067-.2-.067-.4-.133-.6z"/>
        <path d="M4.14 2.298v8.462c0 .466 0 1 .067 1.6.134 1.932.6 4.597 1.666 7.396 1.6 3.998 4.398 8.329 9.529 11.727l.6.4.6-.4 1.398-1c3.998-2.998 6.397-6.596 7.797-9.928.133-.266.2-.466.266-.733.067-.266.2-.466.267-.733 1.266-3.665 1.532-6.863 1.532-8.595V2.298c-7.73-2.2-15.992-2.2-23.721 0zm21.19.533h.333s.067 0 .067.066v.6c.2.067.333.067.533.133v-.6s0-.066.067 0c.066 0 .2.067.266.067 0 0 .067 0 .067.067v1.532s0 .067-.067.067-.2-.067-.266-.067c0 0-.067 0-.067-.066v-.667c-.2-.066-.333-.066-.533-.133v.667s0 .066-.067.066c-.066 0-.2-.066-.266-.066 0 0-.067 0-.067-.067v-1.6zm-4.464-.067c0-.466.266-.666.533-.666h.133c.333.066.666.266.666.8v.266c0 .533-.266.666-.666.6-.333-.067-.666-.267-.666-.8v-.2zm-1.8 12.194c-.333.067-.666.133-.999.133-.333 0-.666-.066-1-.133l-1.066-1.666-1.865-.533c-.333-.6-.6-1.266-.667-1.932l1.133-1.533-.133-1.932.2-.2c.4-.4.866-.733 1.399-1l1.8.667 1.732-.667c.533.267 1 .6 1.399 1 .067.067.133.133.2.266l-.067 1.933 1.2 1.532c-.067.733-.267 1.4-.6 1.933l-1.866.533-.8 1.599zm.933.333v2.399l-.133-.133-1.6-1.866h.2c.467-.067 1.067-.267 1.533-.4zm-.866-13.26c0-.067 0-.067.067-.067h.2c.066 0 .066 0 .066.067.134.2.2.467.333.666.134-.2.2-.4.334-.6 0-.066.066-.066.066-.066h.2c.067 0 .067.067.067.067V3.63h-.333s-.067 0-.067-.066v-.867c-.067.134-.133.2-.2.334 0 0-.067.066-.067 0h-.2s-.066 0-.066-.067l-.2-.4v.933s0 .067-.066.067h-.334V2.03h.2zm-1.332.267c0-.4.2-.467.466-.467h.067c.266 0 .333.067.4.067l.066.066v.2s0 .067-.067.067h-.466c-.133 0-.133 0-.133.133v.2h.6s.066 0 .066.067v.2s0 .066-.067.066h-.6v.267c0 .133.067.133.134.133h.466c.067-.067.067 0 .067 0v.2s0 .067-.067.067h-.4c-.266 0-.532-.067-.532-.533v-.733zm-1.6-.4c0-.067.067-.067.067-.067h.2c.067 0 .067 0 .067.067.2.333.333.6.532.933v-.933s0-.067.067-.067h.267s.066 0 .066.067V3.43c0 .067-.066.067-.066.067h-.2c-.067 0-.067 0-.134-.067-.2-.266-.333-.6-.532-.866v.866s0 .067-.067.067H16.2s-.066 0-.066-.067V1.898h.066zm-1.532.066c0-.066 0-.066.133-.133.133 0 .267-.066.466-.066.4 0 .667.133.667.533 0 .266-.133.4-.267.466.134.2.2.4.333.6h-.333l-.066-.067c-.067-.2-.2-.4-.267-.533h-.133v.533s0 .067-.067.067h-.266s-.067 0-.067-.067V1.964h-.133zm-1.533 0c.133-.066.267-.066.333-.066 0 0 .067 0 .067.066v1c0 .2.067.333.267.333s.266-.133.266-.333V1.898s0-.067.067-.067h.266s.067 0 .067.067v1c0 .532-.267.666-.666.666-.334 0-.667-.067-.667-.6v-1zm-1.599.8c0-.533.266-.733.666-.8h.067c.333 0 .6.2.6.667v.266c0 .533-.267.733-.667.733s-.666-.133-.666-.666v-.2zm-1.466-.4c0-.066 0-.133.133-.133.067 0 .267-.067.4-.067h.2c.333 0 .466.134.466.4v.067c0 .133-.066.266-.2.333.134.067.2.133.2.333 0 .4-.333.533-.666.6h-.4c-.066 0-.133 0-.133-.133v-1.4zm-1.866.8c0-.533.333-.733.667-.8h.266s.067 0 .067.067v.2s0 .066-.067.066h-.333c-.133 0-.267.134-.267.4v.267c0 .266.134.333.267.333s.267-.067.333-.067c0 0 .067 0 .067.067v.2s0 .066-.067.066c0 0-.066.067-.266.067-.334.067-.667-.067-.667-.6v-.266zm-1.2 0c0-.4.267-.533.534-.6.266-.066.333-.066.4-.066 0 0 .066 0 .066.066v.2s0 .067-.066.067c-.134.066-.267.066-.467.133-.133 0-.133.067-.133.2v.133c.2 0 .4-.067.6-.067 0 0 .066 0 .066.067v.2s0 .067-.066.067c-.2 0-.4 0-.6.066v.667s0 .066-.067.066c-.066 0-.2.067-.266.067 0 0-.067 0-.067-.067v-1.2h.067zM5.408 4.696c.133-.466.2-.932.333-1.466.066-.2.2-.266.4-.333h.133c.133 0 .2.067.2.2.133.4.2.866.333 1.266 0 0 0 .067-.067.067-.133 0-.2.067-.333.067H6.34c0-.134-.067-.2-.067-.334-.133 0-.267.067-.467.134 0 .133-.066.266-.066.4 0 0 0 .066-.067.066 0-.067-.133-.067-.266-.067zM7.272 19.69c-.066-.133-.066-.267-.133-.333-.6-1.533-1-3.065-1.266-4.398-.266-1.533-.4-2.799-.4-3.798V5.962C10.138 4.763 15.135 4.43 20 4.83v.8c-.6-.267-1.399-.467-1.999-.467-2.865 0-5.064 2.332-4.997 5.264 0 1.2.4 2.332 1.133 3.198-.267.2-.467.4-.6.533l-2.532-.066-.067.933h-.533c-.333 0-.533.266-.6.533-.133 0-.266 0-.466.066-.266.067-.4.333-.466.6-.334 0-.8.133-1.067.4-.333.466-.333 1.2 0 1.666.267.4 1.8 2.598 2.2 3.398.266.6.4 2.532.4 3.465-1.4-1.8-2.4-3.665-3.133-5.464zm8.73 10.395c-2-1.333-3.665-2.932-5.131-4.665 0-.4-.067-3.065-.467-3.93-.466-1-2.199-3.466-2.265-3.533-.2-.266-.134-.8 0-.999.133-.133.6-.267.933-.267h.266v-.266c0-.067 0-.267.067-.333.2-.067.333-.067.466-.067h.333v-.266s0-.267.133-.334h.933l.067-1 2.332.068.067-.134c.066-.133.333-.4.6-.533.732.8 1.732 1.4 2.865 1.6l.666 1.132v.667l.267.732v.534l-.134.266-.2.2-.333.267c-.133.066-.333.066-.466.066h-.333c-.267 0-.4-.067-.4-.067h-.133l-2.133 1.866 1 1.066.333.067h.067c.066 0 .266.067.4.067.133.066.266.133.333.266 0 .067.066.2.066.333 0 .134 0 .267-.066.4-.067.134-.134.2-.2.267-.333.2-.6.2-.867.2h-.599l-.467.4L18 28.817c-.8.4-1.399.866-1.999 1.266zm-.933-9.329l.732.866c-.2-.066-.4-.066-.466-.066h-.067l-.466-.533.267-.267zm3.398 7.73l-3.532-4.065h.333l3.399 3.931c-.067 0-.134.067-.2.134zm.533-.467l-3.198-3.731c.066-.067.2-.067.266-.134l3.132 3.665-.2.2zm.6-.533l-3.132-3.598c.067-.067.133-.133.133-.2l3.132 3.665-.133.133zm.533-.533L16.8 23.154v-.267-.2l3.532 4.065c-.134.067-.2.133-.2.2zm.466-.533l-5.13-5.997.2-.2 5.13 5.93c-.067.134-.133.2-.2.267zm.533-.6l-5.13-5.863.2-.2 5.063 5.863c0 .067-.066.134-.133.2zm.467-.6l-4.731-5.463h.333l4.53 5.264c0 .066-.066.133-.132.2zm.466-.6l-4.331-4.997.2-.066H18l4.198 4.864c0 .067-.066.133-.133.2zm.466-.666l-4.13-4.797s0-.067.066-.067l.067-.2 4.197 4.798c-.133.133-.2.2-.2.266zm.4-.6l-4.33-4.997v-.333l-.067-.2 4.53 5.264c0 .067-.066.134-.133.267zm.4-.666l-4.997-5.73v-.333l-.467-.666 5.597 6.463c0 .067-.066.133-.133.267zm.2-.999l-1.732-1.932v-5.664c.866-.933 1.266-2.2 1.266-3.598 0-1.333-.4-2.533-1.267-3.532V5.03c.467.066 1.2.2 1.733.266v16.392zm.2-18.191c0 .533-.267.6-.666.533-.334-.067-.667-.2-.667-.733v-.933s0-.066.067-.066.2 0 .266.066c0 0 .067 0 .067.067v1c0 .2.067.333.267.333s.266-.067.266-.267v-1s0-.066.067-.066c.066 0 .2 0 .266.067 0 0 .067 0 .067.066v.933zm1.4-.466c-.134 0-.267 0-.4-.067V4.23s0 .067-.067.067-.2-.067-.267-.067c0 0-.066 0-.066-.067V2.897c-.134 0-.267-.066-.334-.066 0 0-.066 0-.066-.067v-.2s0-.066.066-.066c.334.066.733.133 1.067.2 0 0 .066 0 .066.066v.267zm.133 15.459V5.63c.466.133.866.2 1.332.332v5.198c-.067 1.732-.333 4.331-1.332 7.33z"/>
        <path d="M16.135 9.894l.733 2.332h2.399L20 9.894l-2-1.466-1.865 1.466z"/>
    </g>
    <defs>
        <clipPath id="prefix__clip0">
            <path fill="#fff" d="M0 .043h32v32H0v-32z"/>
        </clipPath>
    </defs>
</svg>
