<svg xmlns="http://www.w3.org/2000/svg" width="32" height="32" fill="none" viewBox="0 0 32 32">
    <path fill="#B5B5B5" d="M15.853 26.784c.055 0 .109-.015.154-.046-.02.053-.056.1-.103.133-.046.034-.1.055-.157.06l.016.1c.1-.007.192-.052.26-.125.068-.073.105-.17.105-.27 0-.178-.098-.272-.238-.272-.03-.002-.06.002-.088.013-.028.01-.054.026-.075.047-.022.02-.039.046-.05.073-.011.028-.016.058-.015.088-.003.026 0 .053.008.078s.022.048.04.067c.019.019.041.033.066.043.024.01.05.013.077.011zm.036-.325c.076 0 .128.066.128.183-.037.03-.082.046-.128.045-.016.002-.031 0-.046-.004-.014-.005-.027-.013-.038-.024-.01-.01-.019-.024-.024-.039-.005-.014-.007-.03-.004-.045-.001-.015.001-.03.006-.044.006-.014.014-.027.024-.038s.024-.02.037-.026c.015-.005.03-.008.045-.008zM15.386 26.496v.523h.12v-.642H15.4l-.159.073.014.095.13-.049zM16.517 27.03c.151 0 .255-.119.255-.333 0-.214-.104-.332-.255-.332-.152 0-.256.12-.256.332 0 .212.101.333.256.333zm0-.568c.086 0 .136.084.136.235 0 .152-.046.236-.136.236-.09 0-.137-.083-.137-.236 0-.153.05-.235.137-.235zM17.337 26.81c.002-.027-.003-.054-.014-.08-.01-.025-.026-.047-.046-.066-.02-.018-.044-.032-.07-.04-.026-.008-.053-.011-.08-.008-.032 0-.066.004-.097.013l.013-.15h.272l-.016-.102h-.358l-.023.338.082.017c.031-.013.066-.02.1-.019.075 0 .117.04.117.103s-.056.112-.136.112c-.063 0-.124-.018-.178-.05l-.018.106c.06.03.127.047.194.046.032.006.065.005.096-.004.032-.008.06-.023.086-.044.024-.021.044-.048.057-.077.013-.03.02-.062.02-.095zM21.34 17.622c-.021.007-.166.042-.293.07l-.137-.076-.125-.07-.021-.012-.283-.16-.083-.046-.021.007h-.017l.008.007.03.026.556.483c.241.273.369.546.136.695l-.02.01-.029.016c.113.018.229 0 .33-.05.102-.043.193-.11.264-.193.137-.179-.1-.777-.101-.796-.058.043-.124.073-.195.089z"/>
    <path fill="#B5B5B5" d="M20.548 17.641l.051.152.01.028.035.11.144.12.201.162.04.033s-.09-.175-.107-.203c-.092-.161-.22-.298-.374-.402zM18.94 16.78l.048.049s-.007-.026-.048-.048z"/>
    <path fill="#B5B5B5" d="M15.262 19.053c.036-.434.176-.853.409-1.221.2.06.411.078.62.054.207-.023.409-.088.591-.19-.056.302-.043.613.039.91.082.297.23.57.434.802-.068-.509-.005-1.026.185-1.502.098-.252.263-.472.478-.635.138-.104.289-.189.45-.251l-.285-.115c-.202-.064-.39-.168-.553-.306-.073-.062-.139-.132-.196-.209.304.163.639.262.983.291.182-.004.363.035.528.113-.212-.206-.655-.62-.655-.62.454.1.889.273 1.286.514l-.537-.623.657.33.257.463c.277.253.588.465.924.63-.1-.095-.183-.203-.25-.322.09.053.195.075.3.061-.086-.037-.153-.105-.19-.19-.037-.086-.04-.182-.009-.27 0 0-.086-.183-.123-.254 0 0-.109-.273-.028-.388.095.192.383.738.462.934.022.055.044.11.063.165l.017.072c.019-.009.088-.05.124-.203v-.008c.021-.115.026-.232.011-.348 0 0 .02.042.047.105.03.07.056.14.079.212.025.073.039.15.04.227.003.024 0 .048-.006.072-.007.023-.018.045-.033.064.01-.004.019-.01.027-.017.064-.057.117-.126.156-.203.043-.127.064-.26.063-.395-.01-.036-.024-.073-.037-.111-.243-.547-.557-1.06-.935-1.523l.01.155.02.333c-.409-.446-.881-.83-1.4-1.14-.02.226-.038.57-.059.794-.112-.372-.308-.713-.573-.998l.059.683c-.436-1.12-2.772-3.443-3.378-4.904-.028-.064-.092-.063-.18-.122-4.558-3.126-3.345-6.716-3.276-6.908-1.753 4.48 1.333 6.58 1.333 6.58-.697-.39-1.313-.912-1.813-1.535-.284-.403-.542-.821-.774-1.255-.27-.5-.5-1.023-.683-1.562-.334-.947-.451-1.956-.344-2.955-.4 1.395-.37 2.879.089 4.256.458 1.377 1.321 2.583 2.478 3.46v-.007c.427.357.883.677 1.365.956.311.18.647.314.956.503 1.38.84 2.474 2.078 3.14 3.55l-.045-.035c-1.458-1.478-3.339-2.465-5.382-2.825 1.197.557 2.34 1.226 3.413 1.996-.363.044-.702.202-.97.45.413-.081.838-.073 1.247.024.254.067.5.158.736.273-.754-.11-1.523.058-2.164.47-.405.224-.848.369-1.306.428.61.155 1.253.118 1.842-.105.66-.199 1.37-.16 2.006.11-.064-.007-.127-.013-.191-.016-.828-.006-1.635.258-2.3.753-.029.02-.059.04-.086.062l1.721.145-1.184.84c-.008.118-.008.238 0 .356.014.32.089.634.22.926.024.05.05.1.08.149zM24.569 28.755l-.02.016c-.016.013-.027.029-.035.047-.008.018-.012.037-.012.057-.005.035.005.071.026.1.044.035.192 0 .302-.021.05-.01.101-.022.149-.03.22-.037.444-.024.658.035l.016-.227c-.214-.039-.43-.06-.647-.063-.15-.012-.302.017-.437.086zM7.056 28.622l.007.228c.105-.027.213-.04.321-.038.113 0 .226.011.337.034.048.01.099.023.148.037.108.029.255.07.3.036.022-.029.033-.064.03-.1.003-.022 0-.044-.01-.064-.008-.02-.022-.037-.039-.05-.348-.137-.73-.166-1.094-.083zM24.906 28.445c.395-.005.79.041 1.173.136.2.065.415.062.613-.008.034-.025.055-.062.061-.104-.443-.324-.963-.529-1.51-.594-.073.21-.187.404-.337.57zM5.985 28.37c.01.02.025.036.042.05.193.08.408.094.61.039.384-.078.777-.108 1.168-.09-.126-.137-.238-.286-.335-.446-.518.057-1.021.209-1.485.447z"/>
    <path fill="#B5B5B5" d="M28.016 25.706c-.337-.236-.704-.425-1.092-.563v-3.562l.226-.084v-.51l-.226-.102v-.355l.226-.085v-.608l-.74-.702v-.167c-.012-.046-.041-.087-.08-.113-.04-.027-.088-.039-.135-.033h-.22s-.17.025-.17.146v.156l-.76.715v.61l.226.078v.355l-.23.1v.247c-1.214 1.368-2.683 2.486-4.326 3.29v-.81H18.91c-.049-.413-.198-.808-.436-1.15.002-.019.002-.038 0-.056.214-.147.364-.369.421-.621.034-.121.04-.248.021-.373-.019-.124-.063-.243-.132-.348-.007-.012-.017-.023-.027-.033-.03-.027-.107-.087-.195-.158-.122-.096-.325-.256-.366-.302-.113-.139-.196-.3-.244-.471.024-.001.048-.008.07-.02.02-.011.04-.027.054-.047.014-.02.024-.042.03-.066.004-.024.004-.048-.002-.072l-.022-.097c-.034-.147-.073-.314-.105-.498v-.008H18c.03 0 .059-.008.084-.023.026-.015.047-.036.062-.062.014-.025.023-.054.022-.084 0-.03-.008-.058-.023-.084l-.185-.501.035.04c.046.046.157.13.22.106.063-.023.064-.136.07-.209.028-.176.093-.344.189-.494.096-.15.222-.28.369-.38.01.029.02.057.034.084.029.056.031.178.094.178s.111-.09.204-.184c.087-.113.201-.202.333-.26l.579.234c.042.143.123.272.233.373.131.1.267.19.41.273l.064.041c-.02.01-.039.018-.059.025-.066.024-.257.087-.257.157s.189.136.256.158c.13.049.27.073.41.074.126.006.253-.015.37-.063.118-.047.225-.119.312-.21.062-.074.105-.16.129-.252.024-.093.027-.19.008-.284l-.105-.65.156-.513c.006-.016.009-.032.009-.049-.012-.28-.082-.555-.207-.807l-.006-.019c-.006-.02-.016-.037-.029-.053l-.022-.043c-.04-.085-.084-.168-.136-.247-.292-.46-.639-.886-1.031-1.265-.05-.047-.149-.129-.21-.1-.062.029-.077.164-.073.232v.037c-.068-.11-.145-.213-.23-.31-.066-.093-.117-.197-.15-.307.335-1.44 1.038-2.77 2.04-3.857.027-.028.044-.064.048-.102.33-3.3 4.096-4.753 4.137-4.767.042-.013.084-.028.124-.045.137-.097.152-.172.137-.206-.044-.136-.273-.236-1.195-.236-.36 0-.695.013-.7.013l-.041.009c-.555.037-1.1.168-1.61.387.63-.682 1.416-1.205 2.289-1.525.05-.019.097-.048.136-.084.03-.048.08-.09.038-.167-.07-.136-.35-.165-.538-.165-.283.007-.565.035-.844.082-.168.018-.334.046-.5.082h-.02c-.707.157-1.37.471-1.941.919-.078.061-.154.127-.228.192l.452-.769c.233-.384.496-.749.786-1.092.019-.021.032-.048.037-.076.011-.055.075-.137.04-.187-.021-.024-.047-.043-.076-.056-.029-.013-.06-.019-.092-.018-.08 0-.35.027-1.384.82-.97.677-1.793 1.546-2.417 2.552-.34.576-.615 1.187-.82 1.823-.008-.057-.016-.115-.021-.17-.028-.25-.043-.5-.046-.752 0-.337.011-.64.025-.834 0-.082-.01-.273-.089-.292-.079-.019-.199.137-.232.213-.382.85-.608 1.764-.666 2.695l-.184 1.69c-.022.118-.11.683-.11.683-.133-.221-.248-.452-.346-.69l-.014-.027-.16-.254-.014-.02c-.217-.246-.477-.451-.767-.605-.619-.361-1.167-.83-1.62-1.386-.476-.612-.824-1.314-1.024-2.064-.297-1.392-.273-2.833.072-4.213.04-.102.044-.214.012-.319-.017-.022-.038-.04-.063-.053-.025-.013-.053-.02-.081-.02-.108 0-.207.094-.883 1.168v.009c-.446.716-.752 1.51-.903 2.34-.033.179-.057.357-.075.535-.158-.392-.288-.794-.388-1.204-.215-.847-.284-1.724-.206-2.594 0-.05.016-.186-.02-.221-.019-.018-.04-.032-.063-.04-.024-.01-.049-.014-.074-.014-.149 0-.378.193-.854 1.465-.443 1.122-.6 2.337-.458 3.535-.479-.748-.803-1.583-.956-2.458-.052-.21-.102-.416-.157-.614-.026-.098-.098-.339-.188-.294l-.018.011-.01.009-.012.01c-.018.017-.083.226-.094.249-.035.078-.055.163-.059.248v.271c-.12 1.376.134 2.759.735 4.003l.019.045.034.078c.093.194.197.371.296.546.033.057.066.112.097.168.09.161.2.312.324.449-.477-.097-1.183-.238-1.523-.29-.038-.005-.075.003-.108.023-.033.019-.059.049-.073.084-.014.036-.015.075-.003.112.012.037.036.068.068.089.473.357.922.743 1.346 1.157l.963.897.09.082c.313.298.64.603.955.887l-.661-.065c-.036-.004-.072.004-.103.023-.031.018-.056.046-.07.08-.013.033-.016.07-.007.105.009.035.03.066.057.089l1.54 1.246.673.537.014.013 1.156.932c.03.022.064.035.1.036l.296.007c-.595.258-1.266.274-1.873.045-.519-.176-1.004-.44-1.432-.782-.06-.048-.212-.137-.273-.092-.062.046-.015.215.013.287.15.322.36.612.616.858-.815-.112-1.608-.35-2.35-.705-.07-.03-.193-.112-.242-.054-.05.057-.009.236.03.299.283.46.609.891.974 1.288.28.294.593.556.93.783.038.023.136.086.639.086.187 0 .394-.01.57-.026l.063-.007c-.427.166-.886.232-1.343.191-.085-.012-.273 0-.299.078-.026.078.136.217.222.246.556.203 1.132.346 1.718.427.412.115.832.193 1.258.235.035.003.07.003.106 0l.137.014c.214.019.41.038.632.038.179 0 .357-.015.534-.043.002.023.008.045.019.065l.096.19c-.027.005-.052.016-.073.031-.022.016-.039.037-.05.061-.012.024-.018.05-.017.077 0 .027.007.053.02.076l.21.39.016.027.015.017-.026.015c-.028.02-.05.047-.062.08-.011.031-.012.066-.004.1.028.142.084.277.165.397s.186.223.307.303c.048.024.091.058.126.1.034.04.06.088.076.14.027.089.06.176.096.262.081.2.2.501.126.62-.069.118-.167.216-.286.284-.096.061-.187.13-.272.206-.128.118-.205.28-.215.453-.01.173.047.344.16.475v.013c-.335.386-.547.864-.607 1.372h-1.82v.77c-1.6-.845-3.04-1.966-4.25-3.312v-.186l-.225-.097v-.358l.226-.079v-.609l-.76-.715v-.156c0-.121-.17-.146-.17-.146h-.219c-.047-.006-.095.006-.135.033-.04.026-.067.067-.079.113v.167l-.741.701v.61l.225.084v.355l-.225.1v.512l.225.084v3.651c-.339.107-.67.236-.993.385l-.349.17.273.274c.545.623.854 1.419.872 2.247.002.083.022.164.06.237.037.074.09.138.156.188.268.15.583.192.882.118l.015.637.4-.231c.175-.063.365-.073.546-.029l.126.032c.1.044.208.065.317.06.11-.004.216-.033.312-.085.06-.046.109-.106.142-.175.033-.068.05-.143.048-.22.005-.08-.01-.161-.041-.236-.032-.074-.081-.14-.143-.192-.024-.017-.05-.033-.076-.045-.098-.101-.188-.208-.272-.321.59.003 1.175.102 1.734.293.735.265 1.446.593 2.125.98 1.269.81 2.736 1.257 4.241 1.291.165 0 .335 0 .51-.015 1.607-.135 3.164-.615 4.567-1.406.512-.253.997-.493 1.502-.683l.128-.05c.578-.248 1.194-.395 1.822-.435-.01.009-.022.015-.028.026-.116.17-.25.326-.4.467-.09.099-.138.228-.136.36-.006.078.007.155.036.226.03.071.076.134.135.184.094.057.199.09.307.1.11.01.219-.005.32-.044.043-.01.087-.02.128-.026.183-.037.373-.018.546.055l.39.251.044-.637c.295.088.612.06.887-.077.068-.046.124-.107.165-.178.041-.07.065-.15.072-.232.075-.862.392-1.686.916-2.375l.196-.228-.224-.198zm-16.52-.238v.115c-.081-.038-.168-.072-.25-.11v-.361h.252l-.002.356zm-.4-.057c-.255-.107-.517-.21-.787-.305h.787v.305zm1.311.136h-.367v-.92h.367v.92zm.79.147v.696l-.252-.122v-.574h.252zm-.248-.146v-.92h.247v.92h-.247zm.729 0h-.329v-.92h.329v.92zm0 .146v.919l-.332-.155v-.764h.332zm-.88-.146h-.252v-.92h.251v.92zm0 .146v.502l-.148-.071-.104-.05v-.381h.251zm6.896 0v.831c-.085.043-.17.089-.253.129v-.956l.253-.004zm-.253-.146v-.92h.253v.92h-.253zm.799.434v-.288h.327v.346c-.112.067-.22.127-.329.19l.002-.248zm0-.434v-.92h.327v.92h-.327zm-.15 0h-.252v-.92h.252v.92zm0 .146v.622l-.253.137v-.76h.253zm1.046-.201v-.386h.252v.438c-.09.048-.172.095-.25.136l-.002-.188zm.398-.016v-.37h1.006c-.345.097-.68.223-1.004.376l-.002-.006zm3.618-4.066c.053-.025.11-.047.17-.067v.136l-.17-.07zm.474 1.092v1.084c-.085.015-.167.035-.248.061v-1.092c.082-.02.165-.036.249-.048l-.001-.005zm-.248-.063v-1.114c.081-.025.164-.046.248-.061v1.114c-.084.016-.166.039-.247.067l-.001-.006zm0 2.302v-.956s.16-.046.246-.063v1.121c-.082-.01-.165-.016-.246-.021.002-.062 0-.076 0-.076v-.005zm.64-2.281v1.084c-.083.002-.166.008-.25.019V22.48c.084-.01.168-.014.252-.014l-.001-.005zm-.25-.104v-1.114c.084-.012.167-.018.25-.02v1.115c-.082.003-.166.011-.248.024l-.001-.005zm0 2.239v-.9s.165-.016.25-.019v1.222c-.084-.015-.168-.03-.254-.042.005-.099.006-.256.006-.256l-.001-.005zm.644-2.116v1.084c-.083-.01-.166-.017-.25-.02v-1.083l.257.024-.007-.005zm-.25-.137V21.23h.122l.128.014v1.114c-.082-.01-.165-.014-.248-.014h-.002zm.25 1.359v1.287c-.083-.02-.166-.042-.25-.06v-1.246s.17.008.257.019h-.007zm.137 1.324v-1.302s.169.036.248.062v1.316c-.075-.027-.158-.051-.242-.076h-.006zm.25-2.58c-.082-.026-.165-.046-.249-.062V21.27c.084.016.167.036.249.061v1.115zm0 .124v1.084c-.081-.027-.165-.047-.249-.062v-1.084c.087.015.172.036.255.062H26.8zm.056-1.086v-.136c.059.02.117.044.172.068l-.172.068zm0-1.052v-.137c.058.02.116.043.172.068l-.172.069zm-.963-1.458c0-.047.094-.047.12-.047h.145c.026 0 .121 0 .121.047v.117c-.063 0-.127-.007-.192-.007-.066 0-.136 0-.194.007v-.117zm0 .198c.063 0 .128-.007.194-.007.065 0 .13 0 .192.007l.749.711c-.298-.126-.617-.19-.94-.19-.323 0-.643.064-.94.19l.745-.711zm-.746.819c.298-.126.618-.19.94-.19.324 0 .643.064.94.19v.241c-.297-.124-.616-.189-.94-.189-.322 0-.642.065-.94.19v-.242zm1.653.29v.58c-.081-.025-.165-.046-.249-.06v-.58c.086.014.172.033.255.058l-.006.003zm-.392-.083v.58c-.082-.01-.164-.017-.25-.02v-.579c.093 0 .174.007.262.017l-.012.002zm-.393-.02v.58c-.087 0-.17.01-.25.02v-.58c.084-.012.17-.02.256-.023l-.006.003zm-.394.042v.58c-.084.015-.167.036-.248.062v-.58c.083-.027.169-.05.255-.066l-.007.004zm-.474.148c.055-.026.112-.048.17-.067v.136l-.17-.07zm0 .682c.296-.129.616-.194.94-.19.323-.003.644.062.94.19v.242c-.297-.125-.616-.19-.94-.19-.322 0-.642.065-.94.19v-.242zm-.67 1.532v-.457l.578-.583v.654c-.166.245-.36.471-.578.673v-.287zm-.294-.191v.744c-.583.48-1.22.893-1.896 1.229.686-.182 1.33-.496 1.896-.926v.374h.294v-.575c.182-.127.374-.266.578-.423v1.99c-.627-.019-1.253.033-1.868.155H20.71v-.31c1.26-.585 2.432-1.346 3.48-2.258h-.007zm-3.473 2.722h.273v.672l-.273.17v-.842zm-1.785-1.26h1.638v.635h-1.638v-.635zm0 .781h.366v.92h-.366v-.92zm0 1.067h.366v1.025c-.122.056-.246.109-.368.158v-1.183h.002zM16.838 9.81c.223.46.556.86.968 1.163-.38-.552-.69-1.148-.925-1.775.011-.169.027-.371.057-.641.023-.988.247-1.961.658-2.86-.015.218-.03.518-.026.85 0 .251.016.502.046.767h.1v.612c.03.136.065.287.11.442.144.45.316.89.516 1.318-.127-.429-.227-.865-.3-1.305-.063-.454-.077-.794-.077-.794v-.05c.199-.633.468-1.24.804-1.812.611-.984 1.416-1.834 2.366-2.497 1.305-.991 1.254-.721 1.254-.721-.318.375-.605.776-.857 1.199-2.307 2.384-2.155 4.19-2.155 4.19.322-.946.797-1.832 1.407-2.623.233-.32.51-.608.82-.855.554-.434 1.2-.738 1.888-.89.159-.034.32-.06.482-.079 1.249-.187 1.12.011 1.12.011-1.129.376-2.093 1.132-2.73 2.138.66-.406 1.41-.64 2.184-.683h-.027s1.88-.083 1.562.15c0 0-3.9 1.459-4.246 4.905-1.036 1.117-1.757 2.489-2.091 3.976.034.144.096.28.181.402-.164-.114-.362-.266-.583-.454.176-2.49.91-4.906 2.145-7.074-1.113 1.124-1.902 2.527-2.285 4.062-.15.446-.275.9-.376 1.358-.127-.16-.264-.313-.41-.457v1.199c-.655-.731-1.234-1.527-1.727-2.376.068-.262.12-.528.155-.796h-.008zM14.474 21.52c.273-.243.395-.221.586-.526.162-.258-.126-.745-.202-1.017-.114-.41-.508-.273-.674-.936.146.118.306.216.477.292l-.071-.23c-.133-.098-.254-.212-.36-.338l-.21-.39.319.143-.294-.576c.167-.097.33-.203.486-.316-.7.218-1.442.265-2.164.136.273-.244.521-.436.748-.623l.194-.16c.112-.096.222-.191.33-.294-.188.106-.357.194-.522.273-.119.062-.236.12-.355.177-.234.111-.477.223-.771.359-.156.082-.335.108-.507.073-.66-.067-1.31-.217-1.933-.446.593.045 1.189-.065 1.727-.32.124-.054.246-.112.364-.172.2-.102.39-.214.565-.326.025-.018-.457.118-.857.209-.12.027-.23.052-.32.066-.055.01-.122.017-.195.024-.368.052-.743.04-1.107-.035-.324-.22-.624-.473-.894-.755-.358-.39-.679-.814-.956-1.265.9.433 1.872.693 2.867.766-.369-.32-.677-.705-.908-1.136.444.355.947.63 1.486.81.425.153.883.2 1.33.14.45-.062.876-.232 1.245-.494l-.942-.026-1.057-.849-.098-.08c.186-.045.375-.08.565-.104.409-.031.82.005 1.216.108-.285-.154-.591-.264-.909-.328-.368-.077-.744-.113-1.12-.107l-.301-.01-1.675-1.355 1.164.115h.007c-.41-.363-.873-.793-1.333-1.229l-.285-.273c1.022.085 2.023.345 2.957.769-1.05-.72-2.262-1.169-3.528-1.307-.49-.484-1.009-.936-1.557-1.353.524.078 1.957.38 1.982.382-.223-.248-.428-.513-.613-.791-.128-.224-.273-.45-.386-.701-.02-.038-.036-.079-.054-.119-.589-1.22-.838-2.576-.72-3.926 0-.086.01-.172.01-.258.003-.064.017-.127.042-.186l.012-.02c.153 1.3.68 2.527 1.516 3.533-.26-1.334-.131-2.714.37-3.977.53-1.415.683-1.266.683-1.266-.08.888-.008 1.782.212 2.646.16.655.393 1.29.695 1.894-.013-.414.02-.829.094-1.236.149-.812.45-1.589.889-2.288.872-1.387.711-.92.711-.92-.354 1.41-.38 2.883-.077 4.305.207.775.568 1.501 1.06 2.135 1.261 1.458 1.836 1.334 2.388 1.99l.16.256c.462.992 1.066 1.912 1.794 2.73.804.839 1.724 1.559 2.73 2.138l-.019-.255-.01-.164c.382.369.718.781 1.003 1.229.048.073.092.15.13.23l.048.096v-.02l.009.03c.117.232.184.487.195.747l-.016.05v.013l-.033.111-.115.373s.08.507.111.69c.086.52-.525.738-1.008.557.057-.014.11-.041.155-.08.044-.038.078-.086.1-.14-.34-.218-.481-.3-.618-.41-.099-.102-.168-.23-.199-.368l-.085-.034-.319-.129-.303-.121c-.106.018-.205.06-.292.124-.086.063-.156.145-.206.24-.04-.085-.057-.179-.05-.273-.224.105-.419.263-.568.46-.15.197-.25.428-.29.672 0 0-.308-.325-.203-.546-.022.045-.04.091-.056.136l-.008.03c-.014.037-.025.076-.034.115v.02c-.01.044-.02.087-.026.13v.009c-.008.047-.015.095-.02.143l.233.628c-.08-.035-.156-.076-.228-.123 0 .037.007.073.011.108v.026c0 .036.01.07.013.104v.027l.06-.02.014.008-.074.012.012.063c.04.232.09.442.13.605-.075 0-.165-.03-.238-.033.07.28.194.545.364.78.08.094.499.41.575.475.102.185.131.401.083.607-.049.205-.172.386-.346.505.076-.187.101-.39.074-.59-.028-.2-.107-.39-.23-.55.037.12.106.62-.137.811.033-.472 0-.598-.396-.838-.117-.1-.22-.214-.308-.34-.282-.16-.603-.238-.927-.224.546-.464.819-.075.852-.165.01-.072.005-.146-.014-.216-.018-.07-.051-.136-.096-.194-.122-.104-.266-.18-.422-.22-.21-.153-.378-.356-.49-.59l.494.136c-.01-.029-.297-.273-.31-.303-.054-.146-.096-.294-.128-.445-.09-.094-.193-.176-.304-.245-.1.142-.166.305-.192.477-.026.171-.012.347.042.512l.094.38c-.096-.001-.19-.027-.273-.074.038.155.1.41.145.638-.14-.006-.277-.045-.399-.116.033.156.124.447.35.467.46.023.917.09 1.365.2.115.095.209.213.274.347.066.134.103.28.108.43-.41-.473-.463-.656-1.296-.712.472.137.594.124.83.508-.238-.143-.514-.212-.792-.197-.278.015-.546.112-.768.28-.084.025-.166.056-.247.09-.122.005-.243.02-.362.047-.093.044-.177.106-.245.183-.069.077-.122.167-.155.265-.027.026-.055.052-.08.079-.076-.098-.114-.22-.107-.345.008-.123.06-.24.148-.328h-.006zm-.657 2.519c0-.596.215-1.172.606-1.622.023.009.047.012.072.01.034-.006.065-.023.09-.047.024-.025.04-.056.046-.09.014-.06.043-.117.083-.164.156-.129.327-.238.51-.325.137.01.273-.033.382-.117.026-.024.057-.042.09-.054.197-.05.4-.075.603-.076.658 0 1.29.261 1.755.727.465.465.726 1.096.726 1.754v.45h-.452c.027-.135.04-.272.041-.41 0-.552-.22-1.082-.61-1.473-.392-.391-.922-.611-1.475-.611-.552 0-1.083.22-1.473.61-.392.392-.611.922-.611 1.475 0 .137.013.274.04.41h-.423v-.447zm3.051-1.638c-.576.16-1.077.519-1.414 1.014-.005.007-.013.014-.02.018-.01.005-.018.007-.028.008-.017 0-.033-.007-.046-.018-.193-.166-.335-.384-.41-.628-.002-.01-.002-.022.001-.033.003-.01.01-.02.018-.028.245-.246.553-.418.89-.5.337-.081.69-.068 1.02.038.015.004.027.013.035.024.01.012.014.026.014.04 0 .015-.005.029-.014.04-.008.012-.02.02-.034.025h-.012zm.43.081c.013.001.025.005.035.013.246.163.45.383.597.64.005.01.009.02.01.03 0 .011-.003.022-.008.032-.004.01-.011.018-.02.024-.01.006-.02.01-.03.011-.577.087-1.105.374-1.492.811-.007.007-.015.013-.024.016-.008.004-.017.006-.027.006-.01.002-.02.002-.03 0-.264-.128-.514-.282-.747-.459-.013-.01-.021-.026-.024-.043-.002-.016.002-.033.012-.047.262-.377.62-.676 1.036-.868.225-.108.47-.165.718-.17l-.006.004zm-2.032 1.045c.307.275.654.502 1.03.674.007.005.015.01.02.017.006.007.01.016.013.024.074.258.108.526.1.795 0 .01-.002.019-.007.027-.004.009-.01.016-.018.022-.012.01-.026.014-.042.014h-.012c-.303-.057-.596-.16-.867-.308-.454-.24-.815-.624-1.025-1.092-.005-.014-.005-.028 0-.042.055-.245.156-.477.299-.683.006-.01.015-.018.026-.023.011-.005.023-.007.035-.005.011.001.023.005.032.012.01.007.017.017.021.027.098.204.234.386.402.537l-.007.004zm-.81.554c.013-.005.028-.004.042 0 .014.006.025.015.033.027.242.356.571.643.956.835.27.138.56.236.859.29.017.004.034.014.044.03.01.014.012.031.01.048-.04.222-.137.429-.282.601-.006.007-.014.013-.022.017-.009.004-.018.006-.028.006h-.008c-.327-.04-.638-.165-.902-.364-.264-.199-.471-.463-.6-.768-.088-.207-.138-.428-.147-.654-.001-.016.003-.032.012-.045.01-.013.023-.023.039-.027l-.007.004zm1.878 1.764c.082-.13.143-.272.178-.422.043-.173.062-.351.056-.53-.005-.23-.042-.46-.108-.682-.003-.01-.003-.022 0-.033.002-.01.007-.02.014-.029.226-.26.505-.467.82-.607.008-.004.017-.006.026-.006.01 0 .018.002.027.005.009.004.016.01.023.017.006.006.01.015.014.023.091.288.137.588.136.89 0 .234-.04.468-.119.689-.091.248-.24.47-.433.651-.006.006-.014.01-.022.014-.18.069-.369.11-.56.12-.012 0-.024-.003-.034-.009-.01-.005-.018-.013-.024-.023-.006-.011-.007-.025-.005-.038.002-.013.008-.024.017-.034l-.006.004zm1.132-.476c.058-.122.104-.25.137-.38.05-.211.07-.429.059-.646-.013-.278-.063-.553-.148-.819-.006-.016-.006-.034 0-.05.004-.008.01-.015.016-.02.007-.006.014-.01.022-.013.14-.043.284-.075.428-.093.015-.002.03.002.043.01.013.008.023.02.028.034.169.443.165.934-.013 1.373-.104.258-.264.489-.469.676-.006.006-.012.01-.02.014-.008.003-.015.004-.023.004-.014 0-.029-.004-.04-.012-.011-.01-.018-.024-.02-.04-.003-.014 0-.03.008-.043l-.008.005zm-3.649-.73h.459c.123.437.386.823.748 1.098.363.274.806.423 1.26.423.455 0 .898-.149 1.26-.424.363-.274.626-.66.75-1.098h.486v2.306c-.707.275-1.46.418-2.218.422h-.018c-.946-.033-1.874-.266-2.723-.683v-2.047l-.004.002zm-1.783-.782h1.638v.635h-1.638v-.635zm.36 1.848v.31c-.118-.06-.239-.118-.36-.175v-.137l.36.002zm-.506-.1v.166l-.25-.117v-.537h.25v.488zm-4.275-3.55v-.516l.578.584v.744c-.218-.201-.411-.427-.578-.673v-.139zm0 .756c.204.157.396.297.578.424v.575h.295v-.373c.565.428 1.208.742 1.893.924-.676-.336-1.31-.748-1.893-1.229v-.742c1.027.893 2.171 1.642 3.402 2.225v.341s-1.45.007-2.06 0c-.724-.177-1.474-.224-2.215-.136v-2.01.001zm-1.495-.304v1.084c-.084.015-.167.036-.248.061V22.56c.086-.015.17-.035.255-.052h-.007zm-.248-.063V21.33c.082-.025.164-.046.248-.061v1.114c-.082.016-.162.037-.241.063l-.007-.002zm.641.02v1.085c-.084 0-.167.008-.249.019v-1.084c.085-.01.17-.017.257-.018l-.008-.001zm-.249-.103v-1.114c.083-.012.166-.018.25-.02v1.115c-.082.002-.163.009-.243.02l-.007-.001zm0 2.176V23.7s.162-.016.248-.019v1.334l-.254.064.006-.542zm1.033-1.969v1.084c-.08-.026-.164-.047-.248-.061v-1.084c.087.015.173.036.258.063l-.01-.002zm-.248-.185v-1.114c.084.015.167.036.248.061v1.114c-.079-.024-.16-.044-.24-.06l-.008-.001zm.25 1.402v1.081c-.084.012-.167.025-.249.04v-1.184l.257.064-.008-.001zm.054-2.302v-.137c.06.02.118.044.172.069l-.172.068zm-.448.878c-.082-.011-.165-.018-.248-.02v-1.113h.122l.126.013v1.12zm0 .123v1.084c-.082-.01-.165-.017-.248-.02v-1.083c.091.004.176.01.256.02l-.008-.001zm0 1.216v1.229l-.248.052v-1.303s.176.013.256.024l-.008-.002zm.448-3.276v-.137c.059.02.116.042.172.068l-.172.069zm-.962-1.459c0-.046.095-.046.121-.046h.145c.024 0 .12 0 .12.046v.118c-.063 0-.127-.007-.192-.007-.066 0-.137 0-.194.007v-.117zm0 .198c.062 0 .127-.006.192-.006.066 0 .137 0 .194.006l.747.712c-.297-.126-.617-.19-.94-.19-.322 0-.641.064-.939.19l.746-.712zm-.746.82c.298-.126.617-.19.94-.19.322 0 .642.064.939.19v.241c-.297-.125-.617-.189-.94-.189-.322 0-.641.064-.939.19v-.242zm1.651.29v.58c-.081-.026-.165-.046-.249-.06v-.581c.088.017.175.04.26.067l-.011-.006zm-.392-.083v.579c-.08-.01-.165-.016-.249-.02v-.578c.093.008.178.015.258.025l-.009-.006zm-.393-.02v.58c-.085 0-.168.01-.25.019v-.579l.26-.015-.01-.005zm-.394.042v.58c-.084.015-.166.036-.248.062v-.58c.085-.025.171-.044.258-.058l-.01-.004zm-.472.147c.055-.025.111-.048.168-.067v.137l-.168-.07zm0 .683c.296-.13.616-.194.938-.19.324-.003.644.061.941.19v.242c-.297-.125-.617-.19-.94-.19-.322 0-.641.064-.939.19v-.242zm0 .367c.054-.024.11-.046.168-.067v.137l-.168-.07zm.224 3.251v-.882s.162-.046.248-.063v1.397c-.084.025-.169.048-.246.072l-.002-.524zm22.066 1.337c-.545.715-.876 1.57-.956 2.467-.003.058-.02.116-.05.167-.029.05-.069.095-.117.128-.253.11-.537.125-.8.042l-.137-.034-.04.556-.16-.104c-.208-.096-.44-.123-.664-.078-.044.007-.089.018-.137.027-.079.033-.164.047-.25.043-.084-.004-.168-.026-.243-.066-.038-.034-.068-.076-.087-.124-.019-.047-.027-.098-.023-.149 0-.052.01-.103.03-.15.022-.047.053-.09.093-.123l.014-.012v-.009l.014-.008c.255-.18.455-.426.579-.712-.76-.013-1.513.14-2.209.445l-.127.049c-.507.191-.995.431-1.51.683-1.384.782-2.92 1.256-4.505 1.39-.172.009-.338.014-.498.014-1.48-.035-2.921-.475-4.169-1.272-.686-.392-1.406-.723-2.15-.99-.68-.235-1.4-.331-2.118-.285.17.25.376.475.612.665v.008c.032.034.058.075.075.119.017.044.025.091.023.139.002.052-.01.103-.03.15-.022.048-.053.09-.093.123-.077.036-.161.055-.247.055-.085 0-.17-.019-.247-.055-.046-.012-.092-.025-.137-.034-.22-.055-.453-.039-.664.046l-.167.097-.014-.557-.146.027c-.266.07-.548.042-.795-.08-.046-.036-.085-.082-.111-.134-.027-.053-.04-.11-.041-.17-.021-.868-.347-1.702-.92-2.356l-.117-.113.147-.071c1.572-.741 3.34-.957 5.044-.614l.863.297c.643.255 1.242.546 1.827.834.584.289 1.141.556 1.712.776l.158.072.074.017c.646.243 1.33.372 2.02.382h.02c1.671-.11 3.276-.69 4.632-1.674.163-.097.333-.183.508-.257l.077-.035c.976-.429 2.039-.626 3.104-.578 1.066.05 2.106.343 3.04.86l.1.073-.087.093z"/>
    <path fill="#B5B5B5" d="M21.316 26.042c-1.395.999-3.04 1.59-4.75 1.708h-.021c-1.435-.1-2.827-.535-4.065-1.27-.784-.405-1.594-.757-2.426-1.054-1.663-.402-3.413-.236-4.97.474.508.638.81 1.416.865 2.23.615-.292 1.283-.457 1.963-.485.68-.027 1.36.082 1.996.322.756.272 1.487.609 2.185 1.006 1.35.875 2.938 1.305 4.545 1.229 1.554-.128 3.062-.594 4.418-1.365.498-.259 1.01-.491 1.532-.697l.123-.047c.637-.319 1.342-.473 2.054-.45.711.025 1.406.226 2.02.586.108-.82.417-1.601.9-2.273-.99-.503-2.086-.758-3.196-.743-1.11.015-2.198.3-3.174.829zM7.22 27.238c-.096.023-.195.025-.291.006-.097-.018-.188-.058-.268-.115-.08-.058-.146-.132-.195-.217-.048-.086-.078-.18-.087-.279-.026-.096-.032-.197-.017-.296.016-.098.052-.193.107-.276.055-.083.127-.154.212-.207.084-.053.18-.087.278-.1.126-.028.257-.024.381.01l.014.384c-.091-.05-.197-.07-.3-.053-.197.038-.298.21-.251.456.002.05.015.098.037.142.023.045.055.083.093.114.04.031.084.054.132.066.048.012.098.014.147.006.103-.024.198-.075.273-.15l.12.335c-.112.09-.244.149-.385.174zm1.35-.044l-.241-.483h-.066l-.027.452-.429-.026.088-1.458.558.034c.376.023.58.202.562.515 0 .087-.025.173-.074.246-.048.073-.117.13-.198.163l.293.523-.467.034zm1.315-.273l-.136.504-.42-.115.137-.494-.245-1.004.46.065.118.614.403-.457.434.118-.75.77zm1.183.018c.26.23.34.392.248.611-.026.065-.065.122-.116.17-.05.047-.111.082-.177.104-.066.02-.136.027-.204.018-.069-.008-.135-.032-.194-.069-.175-.074-.333-.185-.464-.325l.198-.3c.11.135.246.246.402.323.077.035.136.029.165-.03.029-.058 0-.097-.153-.24-.232-.214-.318-.358-.217-.593.026-.06.064-.113.113-.156.048-.044.105-.077.168-.096.062-.02.128-.026.192-.018.065.007.128.029.184.063.158.06.298.158.409.285l-.198.298c-.087-.115-.2-.209-.33-.273-.08-.034-.136-.023-.15.023-.013.046-.007.083.124.2v.005zm.831 1.442l-.385-.203.51-.974-.346-.182.168-.318 1.04.546-.115.346-.361-.189-.51.974zm1.592.765l-.422-.136.041-.273-.41-.206-.174.187-.374-.189 1.109-1.082.432.217-.202 1.482zm1.092.418l-.861-.273.45-1.387.409.137-.336 1.039.393.127-.055.357zm1.33-.273h-.066l-.016.437-.431-.014.05-1.46.504.017c.377.013.602.183.591.52-.01.338-.266.502-.64.49l.008.01zm1.717.335l-.118-.247-.456.063-.038.252-.41.057.3-1.522.481-.066.671 1.336-.43.127zm.727-.168l-.431-1.395.41-.129.321 1.043.395-.121.165.334-.86.268zm1.987-.739l-.183-.202-.42.189.036.252-.383.174-.144-1.545.442-.199 1.023 1.092-.371.24zm1.107-.535c-.086.048-.182.076-.28.083-.098.007-.197-.007-.29-.041-.091-.035-.175-.089-.245-.159-.069-.07-.122-.154-.156-.246-.051-.086-.083-.182-.094-.281-.011-.1 0-.2.031-.295.032-.095.083-.182.15-.255.069-.073.151-.131.243-.17.116-.058.243-.089.372-.089l.112.366c-.101-.025-.208-.016-.302.027-.072.06-.122.142-.141.233-.02.09-.007.186.035.27.042.083.11.149.196.188.085.038.18.047.27.023.094-.05.172-.123.226-.214l.203.291c-.088.112-.203.2-.333.258l.003.011zm.52-.273l-.546-1.352.89-.364.13.315-.5.204.08.193.377-.152.176.29-.427.175.089.216.516-.212.128.316-.913.371zm1.876-.658l-.42.088-.301-1.429.904-.188.072.347-.482.1.048.231.348-.072.137.333-.41.085.104.505zm.606-.093c-.04.003-.082-.005-.117-.025-.036-.02-.065-.05-.084-.086-.018-.037-.026-.078-.02-.118.004-.04.02-.079.047-.11.026-.031.061-.054.1-.065.04-.01.082-.01.12.003.04.012.074.036.1.068.025.032.04.071.043.112 0 .052-.02.102-.056.14-.035.038-.084.061-.136.065l.003.016zm1.65-.205c.041-.003.082.006.117.026.036.02.065.05.083.086.019.037.026.078.021.118-.004.04-.021.079-.048.11-.026.03-.061.053-.1.064-.04.011-.08.01-.12-.002-.038-.012-.073-.036-.098-.068-.026-.032-.041-.07-.044-.111-.005-.028-.003-.057.004-.085.008-.027.02-.053.038-.075.017-.023.04-.041.064-.055.025-.013.053-.022.081-.024l.003.016zm-1.365-.572c.003-.1.027-.198.07-.288.044-.09.106-.169.183-.232.077-.064.166-.11.263-.137.096-.026.197-.03.296-.015.128.012.252.054.361.122l-.1.37c-.072-.076-.168-.125-.273-.137-.199-.02-.346.115-.372.364-.013.048-.014.099-.006.148.01.049.028.096.056.137.029.04.066.076.108.101.043.026.091.042.141.048.106.006.21-.015.305-.063l.017.355c-.134.052-.28.07-.422.052-.1-.005-.198-.033-.287-.08-.09-.048-.166-.115-.226-.196s-.101-.175-.12-.273c-.02-.1-.018-.201.006-.3v.024z"/>
    <path fill="#B5B5B5" d="M15.917 28.573h-.053l-.012.392h.047c.145 0 .225-.056.23-.194.003-.138-.069-.192-.212-.198zM19.69 28.357l.245-.11-.31-.368.065.478zM13.176 28.397l.09-.471-.33.35.24.12zM17.102 29.09l.267-.037-.193-.44-.073.477zM8.389 26.02H8.3l-.023.39h.09c.027.006.056.006.083-.001.028-.007.053-.02.075-.038s.04-.041.051-.067c.012-.026.019-.054.018-.082.007-.12-.062-.192-.207-.202z"/>
</svg>
