<svg xmlns="http://www.w3.org/2000/svg" width="32" height="33" fill="none" viewBox="0 0 32 33">
    <path fill="#B5B5B5" d="M15.17 25.806h-.498v2.285h.498v-2.285zM15.644 26.268h.697v1.83h.5v-1.83h.696v-.456h-1.893v.456zM18.884 26.733l-.552-.927h-.576l.875 1.373v.913h.505v-.913l.872-1.373h-.565l-.559.927zM13.272 27.68c-.183-.012-.356-.093-.482-.226-.127-.134-.198-.31-.2-.494-.001-.184.066-.361.19-.497s.294-.22.477-.236c.11.003.218.029.317.075.1.046.188.11.262.192l.323-.37c-.116-.117-.254-.207-.406-.268-.153-.061-.316-.09-.48-.086-.313 0-.613.124-.834.346-.222.22-.345.521-.345.834 0 .313.123.613.345.834.221.222.521.346.834.346.17.003.338-.031.493-.1.154-.07.291-.172.402-.3l-.312-.32c-.154.16-.362.256-.584.27zM21.575 8.202l.388.297 1.085-1.417.54.412.267-.353-1.467-1.124-.266.354.533.414-1.08 1.417zM13.337 6.728c.16-.043.308-.122.434-.229.126-.107.227-.241.296-.392l-.382-.213c-.1.192-.268.34-.472.415-.176.042-.362.016-.52-.074-.157-.09-.274-.236-.327-.41-.054-.173-.039-.36.041-.523.08-.162.22-.288.389-.352.102-.036.21-.046.318-.03.107.015.208.055.296.118l.202-.437c-.142-.078-.297-.126-.458-.14-.16-.016-.322.003-.475.053-.148.04-.286.11-.406.206-.12.094-.221.212-.295.346-.075.134-.122.282-.138.434-.017.152-.004.306.04.453.043.147.115.284.212.403.097.119.216.217.351.29.135.071.284.116.436.13.153.014.306-.002.453-.048h.005zM6.87 11.343L6.3 10.317l1.31.684.222-.423-1.98-1.05-.244.462.58.979-1.134.081-.244.465 1.987 1.042.22-.424-1.306-.683 1.157-.107zM10.442 8.02l-.75-1.242 1.698.667.342-.207-1.16-1.92-.41.248.724 1.2-1.632-.648-.382.23 1.162 1.92.408-.247zM15.117 6.378l-.024-.896.919-.023.022.896.478-.012-.056-2.225-.478.012.023.884-.919.023-.024-.884-.477.012.056 2.225.48-.012zM18.964 6.393l-1.2-.267.105-.485.837.182.222-.385-.97-.21.098-.453 1.18.256.093-.43-1.646-.356-.476 2.192 1.667.36.09-.404zM23.927 10.555l.322-.267-.788-.933.377-.319.552.654.436-.141-.666-.785.355-.298.778.921.336-.283-1.086-1.288-1.714 1.446 1.098 1.293zM26.2 9.991l-1.992.996.213.427.641-.32.182.36-.428.753.255.51.474-.851c.104.106.24.176.387.198.147.022.297-.004.428-.074.094-.041.178-.102.246-.179.069-.076.12-.167.15-.265.031-.098.04-.201.027-.303-.012-.102-.047-.2-.1-.288l-.483-.964zm-.062 1.57c-.04.021-.085.033-.13.035-.045.002-.09-.005-.133-.021-.043-.017-.081-.041-.114-.073-.032-.033-.057-.071-.073-.114l-.243-.485.587-.294.246.49c.024.04.04.083.046.128.006.045.002.091-.011.135-.013.044-.036.084-.066.119-.03.034-.067.062-.109.08zM8.415 9.868l-.23-.501.656-.695.512.2.344-.366-2.31-.852-.304.322.986 2.256.346-.364zm-.76-1.657l.762.296-.421.447-.341-.743zM20.044 7.362c.147.079.31.122.476.125.118.004.235-.025.337-.084.103-.06.187-.145.243-.249.079-.125.108-.275.083-.42-.072-.303-.4-.533-.607-.71-.161-.134-.163-.243-.134-.311.074-.16.26-.124.375-.068.186.094.333.25.42.438l.399-.22c-.14-.261-.363-.47-.632-.594-.085-.054-.18-.088-.28-.102-.1-.013-.201-.006-.298.023-.096.03-.184.079-.26.145-.076.066-.136.147-.178.239-.034.074-.051.154-.051.235 0 .082.017.162.051.236.114.186.264.348.442.476.146.133.346.257.229.445-.08.133-.267.096-.416.013-.202-.114-.361-.29-.456-.501l-.41.183c.144.297.377.542.667.701zM3.999 15.654l.048.237.246-.064v1.056h.274V15.53h-.188l-.38.124zM5.739 16.192c.05-.03.091-.075.12-.127.029-.052.044-.11.044-.17 0-.207-.175-.374-.467-.374-.292 0-.468.167-.468.374 0 .06.015.119.044.17.03.053.071.097.123.127-.063.028-.117.073-.155.13-.039.058-.06.125-.062.193 0 .215.195.387.52.387.326 0 .52-.172.52-.387-.002-.069-.024-.136-.062-.193-.04-.058-.094-.102-.157-.13zm-.3-.42c.024-.006.049-.005.073 0 .023.007.045.018.064.033.019.016.034.035.045.057.01.022.016.047.016.071 0 .025-.006.049-.016.071-.01.022-.026.042-.045.057-.019.016-.04.027-.064.033-.024.006-.05.006-.073.001-.123 0-.198-.073-.198-.161 0-.088.075-.163.198-.163zm0 .893c-.151 0-.24-.076-.24-.168 0-.092.089-.167.24-.167.15 0 .24.075.24.167 0 .092-.091.172-.24.172v-.004zM27.799 16.362v-.83h-.242l-.736.863.039.199h.666v.29h.276v-.29h.189v-.232h-.192zm-.276 0h-.367l.367-.432v.432zM26.033 15.527c-.064-.006-.128 0-.189.02s-.118.052-.166.094c-.048.042-.088.093-.115.15-.028.059-.043.121-.046.185-.003.06.006.12.027.175.02.055.053.106.094.148.042.043.092.076.147.098.055.023.114.033.174.032.106-.001.21-.027.305-.076-.015.217-.134.293-.267.302-.055.003-.11-.006-.16-.027-.05-.02-.096-.052-.133-.093l-.155.215c.064.059.14.103.223.13.083.027.17.036.258.027.086-.01.17-.038.245-.083.075-.045.14-.105.189-.177.103-.213.133-.453.088-.685-.014-.125-.076-.24-.173-.321-.096-.081-.22-.122-.346-.114zm.007.656c-.04-.004-.078-.019-.11-.044-.03-.025-.054-.058-.066-.096-.013-.038-.014-.079-.004-.118.01-.038.03-.073.06-.1.03-.027.067-.045.106-.051.04-.007.08-.002.117.014.037.016.068.043.09.076.022.034.033.072.034.112 0 .03-.007.058-.019.084-.011.027-.028.05-.05.07-.02.02-.046.034-.073.043-.028.01-.056.013-.085.01z"/>
    <path fill="#B5B5B5" d="M15.992 2.57c-2.685 0-5.31.796-7.543 2.289-2.232 1.492-3.972 3.612-5 6.093-1.027 2.481-1.296 5.211-.772 7.845.524 2.633 1.817 5.052 3.716 6.951 1.9 1.899 4.318 3.192 6.952 3.716 2.634.524 5.364.254 7.844-.773 2.481-1.028 4.602-2.768 6.093-5 1.492-2.234 2.289-4.859 2.289-7.544-.006-3.6-1.439-7.05-3.984-9.594-2.545-2.545-5.995-3.978-9.595-3.983zm0 26.558c-2.567 0-5.077-.76-7.212-2.187-2.135-1.427-3.799-3.454-4.781-5.826-.983-2.372-1.24-4.982-.739-7.5s1.738-4.832 3.553-6.647c1.816-1.816 4.128-3.052 6.647-3.553 2.518-.5 5.128-.244 7.5.739 2.372.982 4.4 2.646 5.826 4.781 1.426 2.135 2.187 4.645 2.187 7.212-.006 3.44-1.376 6.739-3.809 9.172-2.433 2.433-5.731 3.803-9.172 3.81z"/>
    <path fill="#B5B5B5" d="M15.992 1.675c-2.862 0-5.66.849-8.04 2.44-2.38 1.59-4.235 3.85-5.33 6.494-1.096 2.645-1.382 5.554-.824 8.362.558 2.807 1.937 5.386 3.961 7.41 2.024 2.023 4.602 3.402 7.41 3.96 2.807.558 5.717.272 8.361-.823 2.645-1.096 4.905-2.95 6.495-5.33 1.59-2.38 2.44-5.178 2.44-8.04-.008-3.837-1.535-7.513-4.248-10.226-2.712-2.712-6.389-4.24-10.225-4.247zm0 28.366c-2.748 0-5.434-.815-7.719-2.342-2.284-1.526-4.065-3.696-5.117-6.235-1.051-2.539-1.326-5.332-.79-8.027.536-2.695 1.859-5.17 3.802-7.114 1.943-1.943 4.419-3.266 7.114-3.802 2.695-.536 5.488-.261 8.026.79 2.54 1.052 4.71 2.833 6.236 5.118 1.527 2.284 2.341 4.97 2.341 7.718-.007 3.683-1.473 7.212-4.077 9.816-2.604 2.604-6.133 4.07-9.816 4.078z"/>
    <path fill="#B5B5B5" d="M22.662 9.46c-.327-.06-.66-.114-.996-.165C20.074 7.972 18.07 7.247 16 7.245c-2.07-.002-4.075.72-5.669 2.04-.348.052-.692.109-1.03.175-.07.343-.134.694-.191 1.047-1.01 1.228-1.672 2.703-1.919 4.273-.246 1.57-.068 3.178.517 4.656.585 1.478 1.556 2.772 2.81 3.748 1.255.976 2.75 1.597 4.326 1.8.378.148.764.274 1.156.376.362-.113.706-.233 1.035-.362 1.588-.185 3.098-.795 4.37-1.765 1.27-.97 2.257-2.265 2.854-3.748s.784-3.1.54-4.68c-.244-1.581-.91-3.066-1.926-4.3-.067-.362-.136-.713-.212-1.045zm-6.68-1.745c1.684-.002 3.328.505 4.72 1.452-1.557-.18-3.123-.269-4.69-.267-1.581-.007-3.162.078-4.735.254 1.39-.94 3.028-1.441 4.705-1.439zM7.557 16.14c0-1.657.49-3.277 1.41-4.656-.479 2.73-.327 5.531.444 8.192.693 1.77 1.922 3.279 3.515 4.315-1.58-.62-2.937-1.7-3.893-3.101-.957-1.401-1.47-3.058-1.472-4.755l-.004.005zm9.377 8.371c-.316.036-.634.055-.952.055-.304 0-.608-.017-.91-.05-1.17-.44-2.237-1.12-3.131-1.995-.894-.876-1.596-1.928-2.06-3.09-.305-.945-.474-1.928-.503-2.92-.096-2.081.083-4.166.533-6.2.152-.16.312-.313.477-.461 3.704-.598 7.48-.598 11.183 0 .185.164.364.337.533.518.619 2.741.704 5.576.25 8.348-.159.618-.401 1.212-.72 1.764-1.079 1.826-2.731 3.244-4.7 4.031zm7.466-8.37c-.002 1.688-.512 3.337-1.461 4.733-.95 1.396-2.295 2.476-3.864 3.1 1.573-1.005 2.788-2.484 3.467-4.223.799-2.664.964-5.479.485-8.219.9 1.367 1.38 2.967 1.379 4.603l-.005.005z"/>
    <path fill="#B5B5B5" d="M13.71 19.158l.094-.03c.045-.086.104-.163.176-.228.115-.093.25-.16.392-.198.083-.023.161-.057.235-.1.08-.065.152-.14.212-.226.07-.1.153-.19.248-.266l-.984-1.184H11.85l1.86 2.232zM21.82 18.81c.051-.175.093-.352.127-.533.08-.448.134-.899.164-1.352h-1.85l1.56 1.885zM14.639 22.886c-.044.012-.089.019-.134.018-.056.001-.11-.009-.163-.03-.052-.02-.098-.05-.138-.089-.04-.039-.073-.085-.095-.136-.022-.051-.033-.106-.034-.162v-.352c-.071-.066-.13-.144-.173-.23-.034-.073-.055-.151-.062-.231L9.905 16.93H9.89c.036.811.18 1.614.43 2.388.226.614.54 1.193.933 1.717 1.205 1.544 2.859 2.678 4.733 3.245h.01l-1.199-1.441-.157.047zM12.25 15.578l-1.156-.486.029-.077c.866.278 1.76.457 2.667.534v-.43c-.207.014-.403.095-.56.23-.176-.14-.296-.337-.34-.556-.043-.22-.007-.449.103-.644l1.812-.623c-.403.004-.804.061-1.192.17-.22.05-.419.17-.568.34-.127-.17-.19-.377-.181-.588.01-.21.092-.412.233-.569l.715-.249v-.561l-.237.021c-.074.007-.023.1-.107.104l-.428.024c-.018 0-.026-.021-.008-.027l.417-.144c.041-.013 0-.056.057-.074l.409-.146v.77l.587-.199c-.045.198-.042.405.01.601.053.197.153.378.292.527-.055.255-.051.519.01.772.083.302.213.589.388.848-.417-.055-.838-.068-1.258-.039v.46c.676.06 1.361.08 2.068.074v-.493c-.204.04-.387.151-.517.313-.121-.083-.225-.189-.304-.311-.08-.123-.135-.26-.162-.404-.027-.144-.024-.292.006-.435.03-.143.089-.279.172-.4l2.214-.768c-.072.332-.072.675 0 1.007.126.376.312.729.55 1.045l.014-3.48-.242.022c-.075 0-.024.1-.108.104l-.427.025c-.02 0-.026-.023-.008-.028l.416-.143c.042-.014 0-.057.058-.075l.409-.145.014 1.451 1.435-.493c-.117.365-.15.752-.096 1.131.054.38.194.742.408 1.06l-1.723.602v.192c.553-.056 1.055-.133 1.525-.219-.033.148-.096.287-.186.408-.133.186-.267.251-.307.4-.016.071-.014.145.006.215s.057.134.108.185h-.855c-.226-.06-.437-.133-.64-.193-.18-.06-.373-.078-.561-.053-.276.103-.571.149-.865.133-.502-.02-.965-.184-1.467-.196-.03.148-.41.238-.791.21-.308-.072-.62-.121-.933-.149-.067.01-.131.039-.183.082-.052.044-.091.1-.114.165h9.273c.044-.873.039-1.747-.015-2.62-.067-1.19-.23-2.374-.487-3.539-3.734-.629-7.548-.629-11.282 0-.44 2.022-.607 4.093-.496 6.16h2.974l-.576-.829zm3.015-4.21l.8-.277v-.423l-.237.02c-.073 0-.023.1-.107.105l-.426.025c-.022 0-.027-.023-.008-.03l.415-.142c.042-.014 0-.057.058-.075l.408-.144v.632l.666-.223c-.077.178-.097.375-.06.566.038.19.133.365.273.5-.335.001-.67.035-.998.103-.309.053-.59.209-.8.442-.135-.148-.209-.342-.206-.542.003-.2.083-.392.222-.536zm-.053 1.163l1.832-.622c-.031.22-.014.445.052.659.065.213.176.409.326.574-.61.021-1.7.08-2.144.643-.163-.163-.26-.381-.273-.612-.012-.23.061-.458.207-.637v-.005zm-2.328.415c-.393.616-.542 1.356-.417 2.076-.425-.105-.864-.144-1.3-.117.361-.811.96-1.494 1.717-1.959z"/>
    <path fill="#B5B5B5" d="M17.295 15.487c.238-.013.468-.032.689-.052v-.168c-.55-.131-1.116-.187-1.682-.165-.04 0-.08.008-.12.013v.525c.238 0 .48-.009.722-.017l.39-.136zM17.049 22.498c.01.013.025.022.042.027l.373.124c.026.007.054.007.08.002.026-.006.05-.017.072-.034.02-.016.038-.037.049-.062.012-.024.017-.05.017-.077l.013-.383c.002-.021-.003-.043-.014-.061l-.009-.018c.107-.054.19-.146.233-.258.078-.212 0-.447.097-.713.082-.236.267-.355.32-.563.029-.122.011-.25-.05-.36h.015c.01-.002.02-.007.028-.013.009-.006.016-.014.021-.023l.234-.323c.017-.02.03-.045.035-.07.006-.027.006-.054 0-.08-.007-.026-.02-.05-.038-.07-.018-.02-.04-.037-.065-.046l-.392-.134c-.022-.005-.044-.005-.065 0h-.02c-.021-.12-.084-.228-.178-.306-.178-.15-.408-.123-.652-.31-.244-.186-.267-.374-.442-.476-.108-.055-.23-.077-.351-.065v-.041c.002-.024-.004-.047-.016-.067l-.235-.324c-.017-.021-.038-.039-.063-.05-.024-.012-.05-.018-.078-.018-.027 0-.054.006-.079.018-.024.011-.046.029-.063.05l-.238.313c-.013.018-.02.04-.019.062v.076c-.117-.025-.24-.002-.34.064-.2.12-.278.356-.509.521-.184.133-.462.148-.604.28-.083.072-.14.169-.163.276h-.03c-.022-.005-.044-.005-.066 0l-.392.133c-.025.01-.048.026-.066.046-.018.02-.03.044-.037.07-.007.026-.008.054-.001.08.006.026.018.05.036.071l.232.323c.011.018.029.03.05.036l.033.01c-.053.11-.069.235-.045.356.056.227.254.362.343.631.071.215.016.525.09.673.048.1.126.182.224.235l-.01.023c-.01.014-.013.03-.013.048v.4c.002.027.01.053.023.076.014.024.032.044.055.059.022.015.048.024.075.028.027.003.054 0 .08-.009l.367-.11c.022-.005.042-.017.056-.034l.02-.02c.36.318.595.024 1.04.024.356 0 .628.3.979-.034l.01.017zm.385-.133l-.351-.115c.04-.122.04-.254 0-.376.107.073.232.114.361.119l-.01.372zm.533-2.81l.348.126-.215.296c-.104-.076-.23-.116-.358-.114.102-.08.178-.188.22-.31l.005.002zm-1.488-1.078c.304.041.288.25.544.465.256.215.572.161.712.424.116.219 0 .518-.45.579.044-.055.069-.122.069-.192s-.025-.138-.069-.192c-.106-.134-.34-.134-.473-.236-.132-.103-.194-.306-.377-.376-.063-.015-.129-.01-.189.014-.06.023-.11.065-.145.119-.094-.43.147-.64.371-.608l.007.003zm-.228 1.952c0 .044-.014.087-.04.124-.024.037-.06.065-.1.082-.042.017-.087.02-.13.012-.044-.01-.083-.03-.115-.062-.031-.032-.052-.072-.061-.115-.009-.044-.005-.089.012-.13.017-.04.046-.076.083-.1.037-.025.08-.04.124-.04.06.002.115.027.156.069.041.042.064.098.064.157l.007.003zm-.165-1.081c-.002-.038.005-.076.02-.111s.038-.066.067-.09c.029-.024.064-.042.1-.05.038-.009.076-.01.113 0 .158.038.197.21.35.334.154.124.346.092.431.223.023.032.037.07.043.109.005.039.002.079-.011.116-.013.037-.035.071-.064.098-.029.027-.064.047-.102.058l-.7.226c-.024-.044-.057-.082-.098-.112-.04-.03-.087-.05-.136-.059l-.013-.742zm-.134.74c-.05.01-.096.031-.137.061-.04.03-.074.069-.099.113l-.706-.223c-.037-.01-.071-.028-.1-.054-.028-.025-.05-.057-.065-.093-.014-.035-.02-.074-.016-.112.003-.038.015-.075.035-.107.087-.134.267-.123.427-.23.16-.106.187-.282.336-.33.039-.014.08-.017.12-.01.04.006.078.022.11.047.032.024.058.057.074.094.017.037.024.078.021.118v.727zm-.967.074l.692.224v.043c0 .087.033.172.093.236l-.431.602c-.022.032-.052.058-.085.077-.034.018-.072.029-.11.03-.04.003-.078-.005-.113-.02-.036-.015-.067-.038-.092-.068-.105-.124-.033-.28-.084-.47-.05-.191-.213-.267-.212-.42 0-.041.01-.081.03-.117.018-.036.046-.067.08-.09.033-.023.07-.038.11-.043.04-.005.082 0 .12.013l.002.003zm.453 1.168l.429-.592c.046.023.098.035.15.035.052 0 .103-.012.15-.035l.44.596c.023.03.04.066.047.103.007.037.006.076-.004.113-.01.037-.028.071-.053.1-.026.029-.057.051-.093.066-.152.062-.278-.055-.476-.066-.197-.01-.316.119-.464.07-.04-.012-.075-.032-.104-.06-.03-.029-.052-.064-.065-.102-.012-.04-.015-.08-.008-.12.007-.04.024-.078.05-.11v.002zm.834-.667c.06-.063.094-.147.094-.234v-.044l.698-.226c.035-.014.074-.02.111-.017.038.003.075.015.108.034.032.02.06.047.08.079.02.032.034.068.038.106.012.162-.134.253-.209.437-.074.184.012.347-.08.472-.023.032-.053.058-.089.076-.035.017-.074.026-.114.024-.04 0-.078-.012-.112-.031-.035-.02-.063-.047-.085-.08l-.44-.596zm-.253-2.666l.216.297c-.104.075-.181.183-.218.307-.044-.123-.121-.23-.223-.311l.225-.293zm-1.734 1.397c.134-.275.346-.193.627-.37.282-.178.324-.486.62-.534.243-.044.496.183.414.607-.134-.146-.244-.175-.366-.127-.153.063-.23.283-.367.379-.158.11-.36.089-.482.241-.035.055-.052.12-.05.185.004.065.027.127.066.18-.43-.06-.562-.362-.462-.568v.007zm-.585.285l.351-.113c.04.123.118.23.224.304-.13.003-.255.043-.363.115l-.212-.306zm1.243 2.584l-.356.106V22c.129 0 .255-.042.357-.12-.035.122-.035.253-.001.376v.006zm-.45-.514c-.22-.212-.075-.379-.157-.702-.081-.322-.374-.454-.333-.75.035-.246.333-.419.716-.206-.18.082-.237.175-.23.304.011.164.197.308.245.468.056.182-.024.369.081.534.043.048.099.083.161.098.063.015.128.01.188-.013-.181.387-.508.419-.669.253l-.002.014zm2.306.533c-.267.143-.4-.044-.73-.065-.331-.021-.534.21-.8.081-.222-.11-.326-.447.009-.736.024.197.108.285.233.316.162.04.35-.102.519-.1.189 0 .34.133.533.09.06-.022.113-.062.15-.115.037-.053.056-.116.055-.18.315.258.232.59.031.696v.013zm.065-.8c.195.037.3 0 .369-.11.088-.142.022-.366.078-.524.061-.18.235-.267.245-.466-.004-.065-.028-.127-.068-.179-.04-.05-.096-.088-.158-.108.377-.212.656-.037.697.186.053.302-.163.341-.287.652-.123.31.034.592-.19.81-.178.158-.503.115-.686-.274v.013zM22.873 19.89c-.23.555-.506 1.09-.824 1.6.971-1.096 1.625-2.435 1.892-3.875.267-1.44.136-2.925-.377-4.296.234 2.215 0 4.454-.69 6.571zM8.361 14.855c0-.5.024-1.018.06-1.545-.513 1.37-.644 2.852-.38 4.29.265 1.438.915 2.777 1.883 3.874-.342-.525-.626-1.086-.848-1.672-.535-1.592-.777-3.268-.715-4.947zM19.028 8.651c-1.944-.792-4.12-.795-6.065-.008.963-.064 1.976-.096 3.042-.097 1.034 0 2.047.036 3.023.105z"/>
    <path fill="#B5B5B5" d="M18.142 21.849c-.04.108-.107.205-.193.282l-.012.355c-.001.113-.047.22-.127.3-.08.079-.187.124-.3.125-.044.001-.09-.006-.133-.02l-.341-.113c-.072.043-.15.073-.23.09l.666.8c.513-.253 1.004-.548 1.467-.883l-.8-.964.003.028zM18.239 16.935h-2.254l.998 1.2c.067.061.125.13.174.207l.01.014.134.158c.015.015.032.029.05.041.086.062.182.107.285.134.136.034.265.097.376.183.09.074.16.168.208.274l.362.119c.062.02.117.055.162.101.046.047.08.103.099.165.021.067.026.138.015.208-.012.07-.04.135-.081.192l-.133.192 1.434 1.717c.41-.421.766-.892 1.06-1.4l-2.9-3.505z"/>
</svg>
