<svg xmlns="http://www.w3.org/2000/svg" width="32" height="33" fill="none" viewBox="0 0 32 33">
    <g fill="#B5B5B5" clip-path="url(#prefix__clip0)">
        <path d="M10.64 25.137l.108-.28s-.31-.174-.602-.367c-.325-.215-.562-.4-.562-.4l-.247.184c.206.014.4.103.544.25l-.693.99c-.11.15-.295.421-.4.447l.217.16c.107.08.224.154.224.154.064-.18.154-.349.267-.502l.713-1.032c.222.134.39.226.43.396zM21.445 27.983l-.067.036-.067.034v.034c.006-.017.03-.029.052-.04l.065.134c.012.018.02.04.021.061l.028-.013.03-.015c-.013 0-.03-.037-.042-.059l-.062-.121c.017-.012.038-.02.059-.021l-.017-.03zM10.29 25.756c-.04.158-.034.324.017.479.05.155.144.292.27.396.126.104.279.17.44.19.163.02.327-.007.474-.076.148-.07.272-.18.36-.318.087-.138.133-.297.133-.46 0-.164-.047-.323-.134-.461-.088-.138-.212-.248-.36-.317-.115-.048-.24-.07-.364-.068-.125.004-.248.033-.36.086-.114.053-.215.13-.296.224-.082.095-.143.205-.18.325zm1.133-.42c.318.152.197.57.009.964-.188.393-.44.753-.755.602-.316-.15-.195-.572 0-.965.194-.393.43-.75.749-.6h-.003zM12.517 27.692c-.044-.076.095-.48.121-.587l.347-1.165c.287.073.328.105.418.234l.029-.3s-.273-.062-.608-.157c-.37-.105-.563-.183-.563-.183l-.172.255c.143-.065.21-.059.506.04l-.347 1.173c-.042.196-.123.381-.24.544.085.032.17.06.257.082.156.044.252.064.252.064zM14.36 26.218c.325.041.372.078.496.187l-.014-.302s-.31-.028-.641-.077c-.33-.05-.592-.112-.592-.112l-.122.285c.133-.078.193-.1.476-.044l-.194 1.212c-.015.197-.068.388-.155.564 0 0 .098.022.255.044.157.023.267.035.267.035-.023-.198-.013-.4.03-.595l.194-1.197zM15.012 27.536c.007.19-.019.382-.078.564 0 0 .294.025.666.03h.576l.064-.366c-.133.184-.418.21-.839.205l.025-.8h.545c.05 0 .052-.028.052-.081 0-.054 0-.082-.051-.083h-.533l.02-.675c.245-.035.494.012.709.134l-.047-.303s-.207.012-.574 0c-.282-.012-.243-.01-.548-.032.07.07.052.41.05.621l-.037.786zM17.775 28.025c.026-.003.052-.011.075-.025.023-.013.043-.031.058-.053-.067-.038-.097-.249-.133-.54l-.092-.786c-.04-.194-.046-.392-.02-.588 0 0-.044.01-.163.025l-.153.02c.075.18.12.37.133.564l.081.667-.98-1.164-.292.01c.065.194.1.396.1.6l.046.789c.025.191.016.386-.028.574l.317-.015c-.068-.056-.08-.47-.092-.58l-.036-.698.956 1.097c.024.036.058.065.097.083.04.018.083.025.126.02zM19.538 27.618l.245-.073c-.1-.068-.167-.418-.202-.554l-.184-.772c-.061-.183-.094-.374-.097-.568 0 0-.072.027-.239.075l-.248.07c.097.16.162.336.192.52l.066.254-.599.145-.047-.249c-.047-.185-.065-.377-.053-.568 0 0-.084.024-.259.057l-.252.05c.082.042.15.413.176.56l.147.784c.043.187.054.38.035.57 0 0 .104-.016.252-.046l.267-.055c-.082-.05-.146-.453-.166-.573l-.068-.371.607-.15.09.366c.06.194.086.397.08.6 0 0 .176-.047.257-.072zM21.183 26.503l-.87-1.078c-.1-.116-.157-.12-.293-.062-.083.038-.163.082-.238.134.027.02.05.047.065.077.017.05.027.1.029.153l.053 1.543c.008.086-.006.173-.041.252l.157-.05c.103-.033.164-.056.164-.056-.023-.012-.042-.032-.052-.057-.021-.087-.035-.177-.039-.266l-.02-.326.594-.232.172.215c.06.075.116.155.164.239.02.041.023.089.01.133 0 0 .11-.043.277-.117l.257-.115c-.16-.095-.293-.228-.39-.387zm-1.089.082l-.037-.918.533.73-.496.188zM22.981 25.366l-.472-.607c-.136-.158-.244-.338-.32-.533 0 0-.099.073-.207.145-.108.072-.168.114-.168.114l.431 1.318-1.095-.933s-.088.05-.188.099l-.232.112c.11.044.237.266.351.477l.38.712c.11.166.188.35.231.543l.134-.066c.085-.04.151-.077.151-.077-.108-.032-.266-.363-.351-.521l-.34-.628.971.8c.031.03.072.046.115.048.043.002.086-.013.119-.04.028-.024.052-.053.072-.084l-.413-1.314.513.667c.127.147.229.314.301.495l.208-.142c.12-.081.226-.165.226-.165-.13-.017-.317-.295-.417-.42zM21.508 27.95l-.03.016c.015 0 .033.03.043.05l.049.08c.008.012.03.049.027.066l.017-.01.02-.01c-.015-.007-.034-.041-.045-.06l-.044-.07.112.089.007.004.008.002c.002 0 .006 0 .008-.002.003 0 .005-.002.007-.004l.009-.01-.047-.15.056.077c.015.017.027.036.035.057l.024-.016.027-.018c-.019-.015-.035-.032-.048-.051l-.054-.07c-.016-.017-.027-.039-.032-.062l-.025.017-.024.014.048.148-.124-.104-.024.017zM12.199 28.447s-.133-.045-.233-.082l-.256-.093c-.017.2-.071.397-.16.578l-.09.227-.596-.246.094-.2c.073-.16.212-.515.31-.554-.07-.028-.134-.056-.259-.114-.073-.03-.144-.065-.213-.104-.029.207-.096.407-.198.59l-.32.705c-.1.213-.177.425-.307.49 0 0 .04.022.226.108.158.073.267.115.267.115-.033-.092.104-.388.162-.52l.177-.376.61.255-.118.33c-.037.103-.155.518-.28.551.103.044.157.062.255.096l.253.09c-.039-.1.077-.377.145-.57l.255-.705c.054-.206.148-.4.276-.57z"/>
        <path d="M13.168 28.706c-.19-.088-.404-.116-.611-.08-.207.037-.397.137-.546.286-.148.15-.247.34-.283.547-.036.208-.007.42.082.611.09.19.235.349.417.453.183.105.393.15.603.132.209-.02.407-.103.568-.238.16-.136.275-.318.329-.521.048-.115.071-.238.069-.361-.003-.124-.032-.246-.084-.358-.053-.112-.129-.212-.222-.293-.094-.081-.203-.142-.322-.178zm.151 1.082c-.108.413-.286.8-.624.716-.339-.084-.3-.518-.192-.934.108-.416.284-.8.624-.712.34.088.3.518.192.93zM14.553 28.973c-.267-.034-.484-.058-.583-.08l-.133.294c.133-.082.22-.105.533-.065l-.148 1.15c-.018.155-.044.31-.078.462-.011.04-.03.078-.058.11.054.01.175.031.267.04.092.01.195.02.259.029-.032-.196-.027-.397.013-.591l.148-1.153c.267.02.385.033.501.168l-.017-.295s-.525-.048-.704-.07zM16.227 29.897c-.278-.155-.484-.256-.484-.444-.003-.038.002-.075.015-.11.014-.035.035-.067.062-.092.028-.026.06-.045.096-.056.036-.011.074-.015.11-.01.096.007.188.036.27.086.08.05.148.12.196.202l.072-.3c-.168-.09-.356-.137-.546-.134-.348 0-.645.173-.645.513 0 .251.122.42.447.587.326.168.42.267.419.412-.001.046-.012.091-.032.133-.02.041-.047.078-.082.108s-.075.053-.119.066c-.043.014-.09.018-.136.013-.104-.013-.202-.053-.285-.118-.083-.064-.148-.15-.187-.247l-.07.328c.163.135.369.206.58.2.434.007.714-.244.71-.59-.003-.19-.075-.369-.391-.547zM18.193 29.386c-.035-.115-.108-.214-.208-.281-.172-.106-.377-.148-.577-.116-.436.041-.667.076-.667.076.077.18.116.372.116.568l.09.933c.017.128.01.259-.023.384 0 0 .11 0 .25-.015.186-.014.283-.025.283-.025-.085-.076-.115-.445-.124-.55l-.116-1.193.001-.01.006-.01c.003-.003.006-.005.01-.006.003-.002.006-.003.01-.003.047-.008.09-.012.09-.012.107-.011.214.018.3.081.05.042.09.094.118.153.028.059.043.122.044.187.02.136-.014.273-.091.386-.063.076-.154.124-.252.133h-.022c-.02 0-.02.027-.02.027v.014c0 .064.027.092.118.086.1 0 .2-.018.293-.056.093-.037.178-.093.249-.164.085-.092.138-.21.15-.335.004-.044.004-.089 0-.133-.006-.04-.015-.08-.028-.119zM19.809 29.131c-.068-.19-.1-.39-.092-.591-.053.018-.133.04-.25.076l-.251.069c.1.163.166.344.196.533l.212.8c.038.113.034.235-.01.346-.02.035-.05.066-.084.089-.034.023-.073.038-.114.044-.039.01-.078.01-.117.003-.039-.007-.076-.021-.109-.043-.09-.078-.148-.186-.164-.304l-.188-.8c-.057-.186-.074-.383-.05-.576 0 0-.082.02-.259.052s-.292.05-.292.05c.11.17.18.364.205.566l.148.625c.04.184.153.345.312.446.159.102.352.136.536.095.184-.04.344-.153.446-.312.101-.159.135-.351.094-.535l-.17-.633zM21.91 29.607c-.274-.12-.53-.28-.76-.472.074-.052.137-.12.182-.198.06-.102.081-.223.06-.339-.006-.036-.016-.072-.03-.107-.015-.037-.034-.072-.057-.105-.059-.09-.148-.154-.252-.181-.205-.046-.42-.02-.608.073-.19.084-.384.157-.581.219.092.05.203.366.267.542l.245.731c.072.172.112.355.119.541 0 0 .093-.026.249-.082.156-.056.257-.096.257-.096-.09-.052-.19-.363-.248-.522l-.378-1.082c-.017-.048 0-.06 0-.06.029-.021.06-.038.093-.05.084-.038.179-.042.266-.014.056.022.107.056.149.1.041.043.074.095.094.152.03.056.046.119.048.183.001.063-.01.127-.037.185-.041.09-.114.162-.203.205l-.017.008c-.002 0-.003.002-.005.003l-.003.004-.001.005v.005c.237.249.515.455.822.608.07.021.146.02.216-.002s.13-.065.176-.123c.033-.033.058-.075.07-.12-.022.007-.046.01-.069.009-.023-.002-.044-.009-.065-.02zM12.835 21.211c-.086-.023-.16-.076-.211-.15-.133.162-.23.352-.28.556-.052.204-.059.417-.019.624.216.729.646 1.376 1.233 1.859.588.483 1.306.779 2.063.85-.772-.294-1.443-.802-1.937-1.464-.493-.662-.787-1.451-.848-2.275zM12.188 21.551c.07-.262.182-.51.333-.736-.03-.157-.026-.32.01-.476-.08-.056-.158-.117-.23-.184-.103.377-.149.766-.134 1.156l.021.24z"/>
        <path d="M16.808 24.877c.585-.131 1.132-.398 1.596-.78.463-.38.83-.866 1.07-1.415-.062.01-.125.017-.188.019-.05.244-.19.461-.39.61-.202.147-.45.215-.699.19-.319-.035-.634-.098-.943-.187-.11-.041-.21-.105-.297-.185-.085-.081-.155-.178-.203-.286-.052-.113-.082-.236-.088-.361-.002-.098.008-.197.031-.292-1.14-.342-2.246-.786-3.306-1.327-.03.055-.066.107-.106.155-.057.072-.13.13-.214.167.084.732.335 1.435.734 2.056.452.765 1.183 1.324 2.04 1.56.312.094.64.12.963.076zM12.605 20.115c.037-.087.087-.169.147-.242.043-.052.094-.097.15-.134.127-.635.428-1.221.871-1.693-.65.463-1.141 1.118-1.401 1.873.069.075.147.141.233.196zM12.893 21.034c.05.002.099-.01.143-.033.043-.024.08-.058.106-.1.093-.121.156-.261.186-.41.03-.149.024-.302-.015-.449-.037-.104-.096-.17-.168-.183-.048-.007-.096 0-.141.017-.045.018-.085.048-.115.086-.082.096-.145.208-.183.329-.04.12-.053.247-.042.373.002.061.014.121.034.178.015.045.04.086.075.12.033.033.075.058.12.072z"/>
        <path d="M19.048 21.969c-.034-.061-.08-.115-.136-.158-.056-.042-.12-.073-.188-.09l-.148-.032c-.133-.027-.335-.068-.637-.143-.191-.05-.395-.027-.57.065-.174.092-.308.247-.374.433.197.057.39.11.58.158.018-.083.03-.167.037-.252.002-.03.016-.06.039-.08.023-.02.054-.03.084-.028.031.002.06.016.08.039.02.023.03.053.029.084-.009.098-.023.196-.044.292l.112.027.112.024c.033-.163.055-.302.056-.304.005-.03.022-.057.046-.075.025-.017.055-.025.085-.02.03.004.058.02.076.045.018.024.026.054.022.084 0 .011-.024.15-.057.316l.221.04c.015-.083.026-.168.032-.253 0-.015.005-.03.011-.044.007-.014.016-.026.027-.037.011-.01.024-.018.039-.023.014-.005.03-.007.045-.007.015.001.03.005.043.011.014.007.027.016.037.027.01.011.018.025.023.039.005.014.007.03.006.045-.006.093-.017.185-.034.277.16.023.295.035.407.04.043-.169.02-.347-.061-.5zM16.748 14.043c.02.959-.286 1.895-.868 2.656-.985.984-1.797.267-1.807 1.255-.476.467-.799 1.068-.925 1.723h.029c.094.019.178.074.232.153.646-.518 1.393-.895 2.194-1.105.801-.211 1.637-.25 2.454-.116.428.08.829.266 1.165.542-.454-.735-1.144-1.295-1.958-1.587-.195-.07-.534-.15-.534-.78 0-1.173 1.284-.266 2.134-1.54.041-.062-.019-.117-.068-.067-.351.266-.777.417-1.218.432-.156.012-.314-.014-.459-.076.207-.403.443-.79.706-1.157-.785-.786.533-5.106 4.036-5.106.008-.794-.07-1.587-.234-2.364-.084.02-.743.176-.772.037-.03-.138.485-.389.666-.476-.079-.306-.195-.601-.344-.88-2.997.946-2.4 3.427-3.125 3.427-.38-.036-.731-.216-.983-.503-1.79-1.79-.956-2.976-.956-5.356 0-1.6-.623-2.202-1.772-2.202-.28-.03-.565-.002-.833.083-.27.086-.517.227-.728.414.216.007.428.057.625.147.196.09.373.217.52.376.146.159.26.345.334.548.074.203.107.419.097.634 0 1.734-1.95 2.211-1.95 4.408-.014 3.662 4.342 3.594 4.342 6.48zM14.67 3.16c.002-.193-.02-.387-.063-.576.05-.005.1-.021.145-.046.045-.025.086-.059.117-.1.032-.04.056-.087.07-.137.013-.05.017-.101.01-.153.007-.113-.017-.226-.068-.328-.05-.102-.127-.188-.222-.25-.05 0-.063.053-.17.053-.266 0-.281-.335-.281-.335h.12c.75 0 1.443.228 1.443 1.875-.007.545-.043 1.09-.109 1.63-.058.445-.086.893-.084 1.34 0 0-1.305-.153-1.305-1.135 0-.64.397-.795.397-1.838zM17.517 22.426c-.196-.05-.4-.104-.6-.164-.041.164-.025.336.044.49.072.16.204.285.367.349.291.083.59.141.89.175.184.016.367-.033.517-.139.15-.106.257-.262.303-.44-.122-.007-.255-.021-.39-.04-.026.083-.06.164-.101.24-.008.013-.018.025-.03.034-.012.01-.026.016-.04.02-.015.004-.03.005-.045.003s-.03-.007-.043-.014c-.013-.008-.024-.018-.034-.03-.009-.012-.016-.026-.02-.04-.004-.015-.005-.03-.003-.045s.007-.03.015-.043c.027-.052.05-.105.069-.161-.072-.012-.144-.027-.216-.04-.021.087-.05.173-.083.256-.006.014-.015.027-.026.037-.01.01-.023.02-.037.025-.014.005-.03.008-.044.008-.016 0-.03-.004-.045-.01-.028-.013-.05-.036-.062-.064-.01-.03-.01-.061.002-.09.028-.067.05-.138.068-.209l-.112-.025-.118-.028c-.022.068-.046.133-.075.208-.012.028-.035.05-.063.062-.029.011-.06.011-.089 0-.014-.007-.027-.015-.038-.026-.01-.01-.02-.023-.025-.037-.006-.014-.009-.03-.009-.044 0-.015.003-.03.009-.044.025-.06.046-.118.064-.174z"/>
        <path d="M16.77 21.977c.084-.244.257-.447.484-.569.227-.122.491-.153.74-.087.298.074.488.113.628.14l.154.033c.1.024.192.069.274.13.081.063.15.14.2.23.102.187.136.405.095.615.08.004.16-.014.231-.053.296-.849.284-1.775-.035-2.617-.163-.268-.387-.494-.654-.661-.266-.167-.568-.27-.88-.3-.794-.13-1.606-.088-2.382.121-.776.21-1.498.582-2.119 1.094.045.199.035.407-.029.601 1.055.54 2.158.983 3.294 1.323z"/>
    </g>
    <defs>
        <clipPath id="prefix__clip0">
            <path fill="#fff" d="M0 .043h32v32H0v-32z"/>
        </clipPath>
    </defs>
</svg>
