<svg width="33" height="33" viewBox="0 0 33 33" fill="none" xmlns="http://www.w3.org/2000/svg">
<rect width="32" height="32" transform="translate(0.659058 0.125)" fill="white" fill-opacity="0.08"/>
<rect x="1.15906" y="0.625" width="31" height="31" rx="1.5" stroke="white"/>
<path d="M10.8091 15.4748V16.6664V17.2081H11.3507H20.4507V23.9248H11.3507H10.8091V24.4664V25.6581L5.98822 20.5664L10.8091 15.4748ZM11.3507 14.1206L5.28406 20.5664L11.3507 26.9581V24.4123H20.9924V16.6664H11.3507V14.1206Z" fill="white"/>
<path d="M16.4966 15.5832H21.9674V18.129L28.0341 11.6832L21.9674 5.2915V7.83734H16.4966V15.5832Z" fill="white"/>
<path d="M15.9549 7.8374H14.384V15.5832H15.9549V7.8374Z" fill="white"/>
<path d="M13.8426 7.8374H12.2717V15.5832H13.8426V7.8374Z" fill="white"/>
</svg>
