<svg xmlns="http://www.w3.org/2000/svg" width="49" height="49" fill="none" viewBox="0 0 49 49">
    <path fill="#fff" d="M15.352 5.484c-4.83 0-8.76 4.292-8.76 9.567s3.93 9.567 8.76 9.567c4.831 0 8.762-4.292 8.762-9.567s-3.93-9.567-8.762-9.567zM35.27 6.853h-.059c-2.027.017-3.921.899-5.332 2.482-1.387 1.556-2.14 3.608-2.123 5.78.017 2.17.804 4.21 2.215 5.742 1.422 1.544 3.306 2.391 5.311 2.391h.06c2.028-.017 3.922-.899 5.333-2.482 1.386-1.556 2.14-3.608 2.123-5.78-.036-4.498-3.407-8.133-7.527-8.133zM35.64 24.815h-.727c-3.388 0-6.48 1.327-8.815 3.5.585.462 1.14.965 1.667 1.508 1.555 1.6 2.775 3.466 3.628 5.544.77 1.871 1.208 3.843 1.31 5.873H48.79v-2.884c0-7.466-5.9-13.541-13.15-13.541zM29.886 41.24c-.266-4.401-2.432-8.273-5.666-10.754-2.352-1.806-5.27-2.875-8.43-2.875h-.875C7.114 27.611.79 34.124.79 42.158v1.726h29.124v-1.726c0-.308-.01-.614-.028-.918z"/>
</svg>
