<svg xmlns="http://www.w3.org/2000/svg" width="33" height="33" fill="none" viewBox="0 0 33 33">
    <path fill="#fff" fill-rule="evenodd" d="M16.993 1.49l8.194 23.28c.126.358.103.752-.065 1.094-.169.342-.467.604-.831.729L10.566 31.29c-.758.259-1.586-.137-1.849-.884L.524 7.128c-.263-.747.138-1.564.896-1.823L15.144.607c.364-.125.763-.101 1.11.064.347.166.613.46.739.82zm-3.82 1.736c-.326-.155-.717-.021-.874.299-.076.154-.087.331-.03.493.057.161.177.294.333.368l2.067.988 1.002-2.038c.102-.208.084-.453-.047-.643-.131-.191-.355-.298-.588-.282-.233.017-.44.155-.541.362l-.432.879-.89-.426zM13.03 27.29l-1.002 2.039-2.068-.989c-.21-.1-.35-.303-.367-.533-.017-.23.092-.451.285-.58.194-.13.442-.148.652-.047l.891.426.432-.879c.102-.207.308-.345.541-.362.233-.016.457.09.588.282.132.19.15.435.048.643zm-5.25-9.706l6.707 3.308 3.167-6.655c.603-1.341.046-2.91-1.278-3.596.07.035-2.235-1.526-3.49 1.183l-.977 1.82-1.917-.839c-.618-.322-1.347-.378-2.01-.153-.662.225-1.198.709-1.48 1.336-.603 1.34-.045 2.909 1.278 3.596z" clip-rule="evenodd"/>
    <path fill="#fff" d="M29.635 6.396l-8.445-3.06-1.312 3.398 4.635 14.105 5.122-14.443z"/>
    <path fill="#fff" d="M20.823.592c-.59-.209-1.236.11-1.442.711l-.538 1.577.017.048.703 2.06.88-2.578c.082-.24.34-.368.577-.284l9.42 3.327c.237.084.362.347.28.587l-5.866 16.092s.884 2.734.982 2.445l6.391-18.736c.099-.29.08-.606-.05-.882-.132-.275-.365-.486-.649-.586L20.823.592z"/>
</svg>
