<svg xmlns="http://www.w3.org/2000/svg" width="251" height="64" fill="none" viewBox="0 0 251 64">
    <g clip-path="url(#clip0)">
        <path fill="#FCFCFC" d="M41.912 32.402c0-5.881-4.771-10.68-10.68-10.68-5.88 0-10.678 4.799-10.678 10.68 0 5.881 4.798 10.68 10.679 10.68 5.908-.027 10.679-4.799 10.679-10.68z"/>
        <path fill="#010202" d="M41.912 32.402c0-5.881-4.771-10.68-10.68-10.68-5.88 0-10.678 4.799-10.678 10.68 0 5.881 4.798 10.68 10.679 10.68 5.908-.027 10.679-4.799 10.679-10.68zm-.86-.333v.305c0 2.275-.777 4.356-2.053 6.02.167-.444.195-.943.278-1.331-.222.194-.444.388-.694.582-.72.527-1.525.888-2.302 1.055l-2.053-2.248-.027.028 1.498 2.663c-.389.694-.971 1.332-1.72 1.887-.25.194-.5.333-.777.471.389.056.888.167 1.332.167-1.027.36-2.136.583-3.301.583s-2.275-.195-3.301-.583c.472.028.943-.083 1.36-.166-.25-.14-.528-.306-.777-.472-.75-.555-1.332-1.193-1.72-1.887l1.498-2.663-.028-.027-2.053 2.247c-.776-.167-1.553-.5-2.302-1.055-.25-.166-.472-.36-.694-.582.056.388.111.915.278 1.331-1.304-1.664-2.08-3.745-2.08-6.02v-.305c.11.472.388.916.582 1.276.056-.277.139-.582.222-.887.277-.888.721-1.637 1.276-2.22l2.94.61.028-.027-2.774-1.248c-.083-.777 0-1.637.277-2.497.084-.305.195-.583.333-.832-.388.166-.887.388-1.248.72 1.276-1.913 3.245-3.356 5.52-3.994-.416.25-.804.666-1.082.971.278-.028.583-.055.916-.055.915 0 1.775.194 2.496.499l.333 2.968h.027l.333-2.996c.722-.305 1.554-.5 2.47-.5.304 0 .61.029.914.056-.305-.305-.665-.721-1.081-.97 2.274.637 4.216 2.08 5.52 3.994-.361-.305-.86-.527-1.249-.721.139.25.25.555.333.832.278.86.36 1.72.278 2.497l-2.747 1.248.028.028 2.94-.61c.527.582.971 1.331 1.249 2.219.083.305.166.583.221.888.195-.333.472-.777.583-1.249zm-7.129 3.995l1.637-5.077-4.327-3.134-4.327 3.134 1.664 5.077h5.353z"/>
        <path fill="#92278F" d="M8.987 13.816c-.056.11-.056.25.028.36.027.056.083.083.138.111l11.151 6.492.028.027c.11.056.25.056.388-.027l.083-.084c.028-.027.028-.027.028-.055 1.026-1.803 2.469-3.44 4.272-4.744 1.83-1.304 3.855-2.108 5.908-2.469h.055c.056 0 .084-.027.139-.055.11-.083.166-.222.139-.36v-.029L28.986.305V.278c-.028-.056-.028-.111-.056-.14-.083-.11-.194-.166-.332-.138h-.028c-3.939.722-7.85 2.275-11.317 4.744-3.523 2.47-6.269 5.576-8.266 9.072z"/>
        <path fill="#005BAA" d="M2.635 38.312c.055.11.166.194.305.222.056 0 .111 0 .167-.028l12.038-4.633h.027c.111-.055.195-.166.222-.305 0-.055 0-.083-.027-.139 0-.028-.028-.055-.028-.055-.777-1.942-1.137-4.078-1.026-6.298.138-2.247.776-4.327 1.775-6.158l.028-.028c.027-.028.027-.083.027-.139 0-.138-.055-.277-.166-.333l-.028-.027-11.372-6.103h-.028c-.056-.028-.111-.028-.167-.028-.138 0-.25.055-.305.166 0 .028 0 .028-.027.028C2.19 17.922.97 21.972.72 26.216c-.277 4.273.416 8.378 1.914 12.096z"/>
        <path fill="#009BDF" d="M17.919 58.452c.138.028.25 0 .36-.11.056-.056.083-.084.083-.167l3.828-12.318v-.027c.028-.139 0-.278-.11-.361-.028-.028-.084-.056-.112-.056-.027 0-.027-.027-.055-.027-1.997-.61-3.911-1.637-5.576-3.135-1.664-1.498-2.912-3.273-3.716-5.215 0-.028 0-.028-.028-.028-.028-.056-.056-.083-.083-.111-.111-.083-.25-.111-.389-.056h-.027L.25 41.974.222 42c-.056.028-.083.056-.139.084-.083.11-.11.25-.055.36 0 .028 0 .028.027.028 1.581 3.69 3.967 7.13 7.157 9.987 3.217 2.83 6.879 4.827 10.707 5.992z"/>
        <path fill="#00A651" d="M43.077 59.035c.11-.084.166-.195.139-.333 0-.056-.028-.111-.056-.167l-7.184-10.708-.028-.028c-.083-.11-.222-.166-.36-.139-.056 0-.084.028-.14.056-.027 0-.027.028-.054.028-1.72 1.193-3.717 2.025-5.936 2.385-2.22.361-4.383.195-6.408-.388h-.055c-.056-.028-.084-.028-.14 0-.138.028-.249.139-.276.25v.027l-3.412 12.429v.027c-.028.056-.028.111 0 .167.027.139.11.222.25.277h.027c3.856 1.082 8.044 1.387 12.26.694 4.216-.721 8.044-2.303 11.373-4.578z"/>
        <path fill="#FFF200" d="M59.442 39.837c0-.138-.055-.25-.166-.333-.056-.027-.111-.055-.167-.055l-12.87-.999h-.028c-.138 0-.277.056-.333.194-.027.056-.027.084-.027.14v.055c-.139 2.08-.721 4.189-1.803 6.13-1.082 1.97-2.552 3.58-4.272 4.8-.028 0-.028.028-.028.028-.027.027-.055.055-.083.11-.055.14-.055.278.028.389l.028.028 7.628 10.403v.028c.027.027.083.083.138.083.111.055.25.055.36-.028.029 0 .029 0 .029-.028 3.245-2.358 6.074-5.465 8.127-9.21 2.025-3.745 3.162-7.74 3.44-11.735z"/>
        <path fill="#F68B1F" d="M54.588 15.008c-.083-.083-.25-.11-.36-.055-.056.027-.111.055-.14.11l-8.875 9.377-.028.028c-.083.083-.111.25-.056.36.028.056.056.084.056.112.028.027.028.027.055.027 1.526 1.415 2.774 3.19 3.634 5.271.832 2.081 1.165 4.245 1.026 6.325v.056c0 .055 0 .083.028.139.056.138.166.222.305.222h.028l12.87.61h.028c.056 0 .111 0 .166-.028.14-.055.195-.166.222-.305v-.028c.222-3.995-.416-8.156-2.024-12.123-1.61-3.94-3.995-7.351-6.935-10.098z"/>
        <path fill="#D80F15" d="M32.037 3.468c-.139.028-.25.111-.277.25-.028.055-.028.138-.028.166l1.886 12.761v.028c.028.139.111.25.25.278.055.027.083.027.138.027.028 0 .056 0 .056-.027 2.08-.333 4.244-.222 6.38.388 2.163.61 4.05 1.692 5.63 3.08l.028.027c.028.028.083.055.111.055.139.056.278 0 .36-.11l.028-.028 8.433-9.765.028-.028c.027-.028.055-.083.083-.139.027-.138 0-.25-.084-.36l-.027-.028c-3.024-2.636-6.685-4.688-10.79-5.881-4.078-1.082-8.238-1.304-12.205-.694z"/>
        <path fill="#fff" d="M166.483 44.608v-17.2h-5.076v1.776c-1.526-1.415-2.802-2.108-4.882-2.108-4.716 0-8.211 4.244-8.211 9.016 0 5.52 3.218 8.933 7.933 8.933 3.218 0 5.076-2.109 5.076-2.109v1.692h5.16zm-4.882-8.46c0 2.496-1.914 4.188-4.189 4.188-2.385 0-3.855-1.97-3.855-4.355 0-2.275 1.553-4.106 4.022-4.106 2.246.028 4.022 1.748 4.022 4.272zm-15.45 6.435V27.436h-4.91v1.915c-1.47-1.554-2.912-2.275-5.076-2.275-4.466 0-7.378 3.939-7.378 8.6 0 4.688 2.968 8.378 7.35 8.378 2.025 0 3.856-1.082 4.854-1.998.056.444.028.833.028 1.276 0 1.887-1.664 2.719-3.439 2.719-1.276 0-1.997-.222-2.691-1.415h-5.769c.554 3.884 4.188 5.992 8.349 5.992 4.743.028 8.682-2.746 8.682-8.045zm-4.882-6.907c0 1.941-1.359 4.022-3.939 4.022-2.274 0-3.55-1.83-3.55-4.022 0-2.137 1.192-4.134 3.578-4.134 2.635 0 3.911 1.831 3.911 4.134zM127.15 22.998c0-1.748-1.414-3.107-3.106-3.107s-3.079 1.442-3.079 3.162c0 1.776 1.359 3.135 3.023 3.135 1.775 0 3.162-1.443 3.162-3.19zm-20.137 21.61h12.176v-4.882h-6.657v-16.59h-5.519v21.472zm-8.183 0h5.159v-17.2h-5.076v1.776c-1.525-1.415-2.801-2.108-4.882-2.108-4.715 0-8.21 4.244-8.21 9.016 0 5.52 3.217 8.933 7.933 8.933 3.217 0 5.076-2.109 5.076-2.109v1.692zm.25-8.46c0 2.496-1.887 4.188-4.189 4.188-2.358 0-3.856-1.97-3.856-4.355 0-2.275 1.582-4.106 4.023-4.106 2.246.028 4.021 1.748 4.021 4.272zm-26.352 8.46h12.177v-4.882h-6.657v-16.59h-5.52v21.472zm53.867-17.2h-5.131v17.2h5.131v-17.2z"/>
        <path fill="url(#paint0_linear)" d="M176.884 44.609h-4.216V23.054h5.132c1.636 0 2.829.055 3.633.166.805.111 1.47.305 2.025.555 1.221.583 2.164 1.36 2.802 2.386.638 1.026.971 2.22.971 3.606 0 1.665-.472 3.08-1.387 4.245-.916 1.165-2.164 1.886-3.745 2.219l5.381 8.35h-5.02l-5.576-10.015V44.61zm0-11.069h.943c1.72 0 2.996-.305 3.884-.915.887-.61 1.331-1.526 1.331-2.691 0-1.138-.36-1.998-1.109-2.525-.749-.555-1.887-.804-3.468-.804h-1.581v6.935zm11.401 2.857c0-1.137.222-2.219.638-3.273.416-1.027 1.026-1.942 1.83-2.747.832-.832 1.748-1.442 2.774-1.886 1.026-.444 2.08-.666 3.19-.666 1.165 0 2.247.195 3.245.583.999.388 1.914.97 2.719 1.748.859.832 1.497 1.775 1.969 2.83.472 1.081.693 2.163.693 3.3 0 1.249-.194 2.386-.61 3.413-.416 1.026-.998 1.942-1.831 2.774-.804.832-1.719 1.47-2.773 1.914-1.027.416-2.164.638-3.384.638-1.221 0-2.33-.222-3.357-.638-.998-.444-1.914-1.082-2.746-1.942-.776-.86-1.387-1.775-1.803-2.802-.36-1.026-.554-2.108-.554-3.246zm3.911-.027c0 1.498.416 2.718 1.248 3.578.832.888 1.942 1.332 3.384 1.332 1.387 0 2.524-.444 3.356-1.36.832-.915 1.248-2.108 1.248-3.634 0-1.359-.443-2.496-1.303-3.384-.86-.888-1.97-1.332-3.301-1.332-1.359 0-2.469.444-3.329 1.332-.887.888-1.303 2.053-1.303 3.468zm14.534.027c0-1.137.222-2.219.638-3.273.416-1.027 1.027-1.942 1.831-2.747.832-.832 1.747-1.442 2.774-1.886 1.026-.444 2.08-.666 3.19-.666 1.165 0 2.246.195 3.245.583.999.388 1.914.97 2.718 1.748.86.832 1.498 1.775 1.97 2.83.471 1.081.693 2.163.693 3.3 0 1.249-.194 2.386-.61 3.413-.416 1.026-.999 1.942-1.831 2.774-.804.832-1.72 1.47-2.774 1.914-1.026.416-2.163.638-3.384.638-1.22 0-2.33-.222-3.356-.638-.998-.444-1.914-1.082-2.746-1.942-.777-.86-1.387-1.775-1.803-2.802-.361-1.026-.555-2.108-.555-3.246zm3.911-.027c0 1.498.416 2.718 1.249 3.578.832.888 1.941 1.332 3.384 1.332 1.386 0 2.524-.444 3.356-1.36.832-.915 1.248-2.108 1.248-3.634 0-1.359-.444-2.496-1.304-3.384-.859-.888-1.969-1.332-3.3-1.332-1.36 0-2.469.444-3.329 1.332-.888.888-1.304 2.053-1.304 3.468zm19.25-8.045v1.858c.555-.749 1.193-1.276 1.914-1.636.722-.361 1.526-.527 2.441-.527 1.304 0 2.441.221 3.357.693.943.472 1.719 1.193 2.413 2.164.638-.971 1.359-1.692 2.163-2.164.805-.472 1.692-.721 2.635-.721 1.998 0 3.523.638 4.577 1.886C250.445 31.126 251 32.93 251 35.26v9.349h-3.717v-7.213c0-2.22-.25-3.717-.721-4.494-.499-.805-1.332-1.193-2.524-1.193-1.248 0-2.136.444-2.691 1.332-.527.887-.804 2.413-.804 4.605v6.963h-3.745v-7.213c0-2.191-.249-3.69-.749-4.494-.499-.805-1.359-1.193-2.607-1.193-1.276 0-2.164.444-2.718 1.332-.555.887-.833 2.413-.833 4.605v6.963h-3.661V28.325h3.661z"/>
    </g>
    <defs>
        <linearGradient id="paint0_linear" x1="172.681" x2="250.998" y1="34.047" y2="34.047" gradientUnits="userSpaceOnUse">
            <stop stop-color="#A87D36"/>
            <stop offset="1" stop-color="#D8B074"/>
        </linearGradient>
        <clipPath id="clip0">
            <path fill="#fff" d="M0 0H251V64H0z"/>
        </clipPath>
    </defs>
</svg>
