<svg xmlns="http://www.w3.org/2000/svg" width="33" height="32" fill="none" viewBox="0 0 33 32">
    <path fill="#fff" d="M9.762 22.215l-2.65-3.111-2.65 3.111 2.65 3.112 2.65-3.112zM19.107 22.215l-2.65-3.111-2.65 3.111 2.65 3.112 2.65-3.112zM28.452 22.215l-2.65-3.111-2.649 3.111 2.65 3.112 2.649-3.112z"/>
    <path fill="#fff" fill-rule="evenodd" d="M19.78 12.375h10.129c1.105 0 2 .895 2 2v15.54c0 1.104-.895 2-2 2H3.042c-1.105 0-2-.896-2-2v-15.54c0-1.105.895-2 2-2H19.779zM3.873 29.083h6.513V15.207H3.874v13.876zm15.858 0h-6.513V15.207h6.513v13.876zm2.832 0h6.513V15.207h-6.513v13.876z" clip-rule="evenodd"/>
    <path fill="#fff" d="M13.78 8.441L16.521 7l2.743 1.442-.524-3.054 2.22-2.163-3.067-.445L16.522 0l-1.371 2.779-3.066.445 2.218 2.163-.524 3.054zM22.443 8.83L22.089 11l1.854-1.025L25.797 11l-.354-2.17 1.5-1.538-2.073-.317L23.943 5l-.927 1.975-2.073.317 1.5 1.537zM7.089 11l1.854-1.025L10.797 11l-.354-2.17 1.5-1.538-2.073-.317L8.943 5l-.927 1.975-2.073.317 1.5 1.537L7.089 11z"/>
</svg>
