<svg xmlns="http://www.w3.org/2000/svg" width="33" height="33" fill="none" viewBox="0 0 33 33">
    <path fill="#fff" fill-rule="evenodd" d="M10.423 1.214c-1.985.805-3.766 1.988-5.294 3.515-1.527 1.527-2.71 3.308-3.514 5.293C.837 11.939.443 13.965.443 16.043s.394 4.104 1.172 6.02c.805 1.986 1.987 3.767 3.514 5.294 1.528 1.527 3.308 2.71 5.294 3.515 1.917.778 3.942 1.171 6.02 1.171 2.079 0 4.104-.394 6.021-1.171 1.985-.805 3.766-1.988 5.293-3.515 1.528-1.527 2.71-3.308 3.515-5.293.777-1.917 1.17-3.943 1.17-6.02 0-2.079-.393-4.105-1.17-6.022-.805-1.985-1.988-3.767-3.515-5.293-1.527-1.527-3.307-2.71-5.293-3.515C20.547.437 18.522.043 16.444.043c-2.079 0-4.104.394-6.021 1.17zM4.442 22.779c-.77-.484-1.481-1.04-2.11-1.697-.96-2.703-1.123-5.628-.487-8.406.3-.59.64-1.157 1.025-1.7.042-.059.082-.118.123-.178.075-.11.151-.221.234-.327l3.61 2.137v.09c-.009 1.942.188 3.87.581 5.77l.003.017.001.005-2.8 4.39c-.06-.03-.121-.064-.18-.101zM17.1 31.006c-.659-.218-1.3-.486-1.922-.804-.05-.025-.097-.054-.144-.083L8.982 29.04c2.497 1.433 5.321 2.088 8.118 1.966zm-1.945-1.897l-7.142-1.273c-.836-1.015-1.588-2.088-2.234-3.236-.048-.086-.099-.172-.15-.258-.12-.204-.239-.407-.337-.622l2.798-4.386.055.014.154.039c1.75.468 3.531.8 5.324 1.062l.054.007c.082.012.152.022.213.028l3.354 5.798c-.582.818-1.17 1.632-1.772 2.437-.1.134-.206.262-.316.39zm10.08-.93c.632-.458 1.236-.97 1.804-1.54 2.633-2.632 4.079-6.008 4.338-9.457-.075.1-.17.191-.286.273-.882.63-1.833 1.14-2.819 1.589l-3.578 6.675c.256.801.436 1.622.541 2.46zm1.645-10.197c.134.254.265.51.397.77L23.82 25.2h-.006c-.018.005-.035.009-.053.011-1.868.349-3.752.535-5.65.543l-3.45-5.963c.537-.997 1.07-1.997 1.597-2.999.358-.679.71-1.362 1.061-2.046l7.138-.733c.874 1.283 1.703 2.592 2.422 3.97zm-2.406-5.235c.326-.802.652-1.603.958-2.412.17-.452.317-.915.463-1.378l.055-.175-4.79-5.398c-.657-.046-1.306-.026-1.952.01-.856.05-1.711.14-2.566.228l-.595.062c-.136.014-.27.044-.404.08l-1.936 5.828.667.666.333.332-.008.01-.014.015.647.726c.61.684 1.219 1.368 1.825 2.055.09.103.177.21.26.32l6.954-.714.103-.255zm2.565-7.3c1.321 1.322 2.345 2.83 3.068 4.442-.895-.616-1.852-1.122-2.858-1.535-.156-.065-.317-.122-.48-.178l-4.714-5.314c.032-.23.05-.46.057-.69 1.793.73 3.474 1.822 4.927 3.275zm-15.377-3.54c-.004-.005-.01-.01-.017-.015.01-.019.022-.037.033-.054-2.133.711-4.136 1.914-5.83 3.609-.182.181-.358.367-.528.554-.26.455-.497.92-.706 1.403-.24.555-.453 1.122-.665 1.689l-.081.217c-.038.1-.057.214-.062.325l3.568 2.112c1.379-.906 2.843-1.662 4.344-2.344.234-.107.474-.202.714-.297.133-.052.265-.104.397-.159l.027-.01 1.809-5.446c-.924-.65-1.905-1.198-2.982-1.57-.007-.002-.013-.008-.02-.014z" clip-rule="evenodd"/>
</svg>
