<svg xmlns="http://www.w3.org/2000/svg" width="49" height="49" fill="none" viewBox="0 0 49 49">
    <g clip-path="url(#clip0)">
        <path fill="#FFCD00" d="M1.281 25.512l22.39-21.675c.624-.604 1.614-.604 2.238 0l22.39 21.675c1.037 1.003.323 2.764-1.119 2.764h-5.617v16.1c0 .888-.72 1.608-1.609 1.608h-8.31v-10.9c0-.888-.72-1.608-1.608-1.608H19.545c-.889 0-1.609.72-1.609 1.608v10.9h-8.31c-.888 0-1.608-.72-1.608-1.608v-16.1H2.4c-1.443 0-2.154-1.762-1.119-2.764z"/>
    </g>
    <defs>
        <clipPath id="clip0">
            <path fill="#fff" d="M0 0H48V48H0z" transform="translate(.79 .684)"/>
        </clipPath>
    </defs>
</svg>
