<svg xmlns="http://www.w3.org/2000/svg" width="33" height="33" fill="none" viewBox="0 0 33 33">
    <path fill="#fff" d="M9.432 29.069c4.66 0 8.437-3.738 8.437-8.35 0-4.61-3.777-8.348-8.437-8.348-4.66 0-8.437 3.738-8.437 8.349 0 4.61 3.778 8.349 8.437 8.349z"/>
    <path fill="#314060" d="M9.29 25.133c2.754 0 4.986-2.209 4.986-4.934 0-2.724-2.232-4.933-4.986-4.933-2.753 0-4.985 2.209-4.985 4.933 0 2.725 2.232 4.934 4.985 4.934z"/>
    <path fill="#fff" fill-rule="evenodd" d="M11.403 19.52c-.146.69-.548 1.022-1.05 1.085.531.336.812.903.635 1.74l-.02.097c-.256 1.209-1.168 1.482-2.216 1.238-1.047-.243-1.772-.897-1.516-2.106l.02-.097c.177-.836.661-1.226 1.277-1.295-.42-.277-.65-.756-.505-1.446.22-1.039 1.017-1.262 1.99-1.036.972.226 1.604.782 1.385 1.82zm-2.54-.488c-.123.585.135.891.658 1.013.524.122.881-.042 1.005-.626.122-.576-.136-.883-.66-1.005-.523-.122-.88.042-1.002.618zm.507 1.727c.616.143.914.545.767 1.242l-.031.146c-.15.707-.58.964-1.203.82-.606-.142-.92-.555-.767-1.277l.03-.146c.148-.698.59-.928 1.204-.785z" clip-rule="evenodd"/>
    <g filter="url(#filter0_d)">
        <path fill="#fff" d="M21.366 24.658c6.117 0 11.077-4.96 11.077-11.077S27.483 2.504 21.366 2.504c-6.118 0-11.077 4.96-11.077 11.077 0 6.118 4.96 11.077 11.077 11.077z"/>
    </g>
    <path fill="#314060" d="M21.366 21.376c4.305 0 7.794-3.49 7.794-7.795 0-4.304-3.49-7.794-7.794-7.794-4.305 0-7.795 3.49-7.795 7.795s3.49 7.794 7.795 7.794z"/>
    <path fill="#fff" fill-rule="evenodd" d="M22.533 9.89c.312 1.086.053 1.879-.522 2.373.895.042 1.647.611 2.024 1.928l.044.154c.547 1.905-.385 3.029-1.852 3.536-1.468.507-2.83.177-3.376-1.728l-.044-.154c-.377-1.317-.058-2.257.654-2.854-.718-.047-1.343-.534-1.655-1.62-.47-1.638.356-2.598 1.718-3.069 1.363-.47 2.54-.203 3.01 1.434zm-3.923 1.29c.346 1.093 1.048 1.356 2.008 1.055.96-.301 1.384-.918 1.039-2.01-.34-1.078-1.043-1.341-2.003-1.04-.96.3-1.384.918-1.044 1.995zm1.82 2.108c.926-.331 1.63.027 1.97 1.25l.071.257c.343 1.238-.03 2.029-.969 2.365-.914.327-1.648-.036-1.999-1.303l-.07-.256c-.34-1.224.07-1.98.997-2.313z" clip-rule="evenodd"/>
    <defs>
        <filter id="filter0_d" width="23.154" height="23.154" x="9.289" y="2.504" color-interpolation-filters="sRGB" filterUnits="userSpaceOnUse">
            <feFlood flood-opacity="0" result="BackgroundImageFix"/>
            <feColorMatrix in="SourceAlpha" values="0 0 0 0 0 0 0 0 0 0 0 0 0 0 0 0 0 0 127 0"/>
            <feOffset dx="-1" dy="1"/>
            <feColorMatrix values="0 0 0 0 0.192157 0 0 0 0 0.25098 0 0 0 0 0.376471 0 0 0 1 0"/>
            <feBlend in2="BackgroundImageFix" result="effect1_dropShadow"/>
            <feBlend in="SourceGraphic" in2="effect1_dropShadow" result="shape"/>
        </filter>
    </defs>
</svg>
