<svg xmlns="http://www.w3.org/2000/svg" width="138" height="88" fill="none" viewBox="0 0 138 88">
    <path fill="#FCFCFC" d="M77.924 27.427c0-4.977-4.059-9.038-9.085-9.038-5.003 0-9.086 4.061-9.086 9.038 0 4.978 4.083 9.04 9.086 9.04 5.026-.024 9.085-4.062 9.085-9.04z"/>
    <path fill="#010202" d="M77.924 27.427c0-4.977-4.059-9.038-9.085-9.038-5.003 0-9.086 4.061-9.086 9.038 0 4.978 4.083 9.04 9.086 9.04 5.026-.024 9.085-4.062 9.085-9.04zm-.732-.281v.258c0 1.925-.66 3.686-1.746 5.095.142-.376.165-.799.236-1.127-.189.164-.377.328-.59.493-.613.446-1.298.751-1.959.892l-1.746-1.902-.023.024 1.274 2.253c-.33.587-.826 1.127-1.463 1.597-.212.164-.425.282-.66.4.33.046.754.14 1.132.14-.873.305-1.817.493-2.808.493-.991 0-1.935-.164-2.808-.493.4.023.802-.07 1.156-.14-.213-.118-.448-.26-.66-.4-.638-.47-1.134-1.01-1.464-1.596l1.274-2.254-.023-.024-1.747 1.902c-.66-.141-1.321-.423-1.958-.892-.213-.141-.401-.305-.59-.493.047.328.094.775.236 1.127-1.11-1.409-1.77-3.17-1.77-5.095v-.258c.094.399.33.774.495 1.08.048-.235.119-.493.19-.752.235-.75.613-1.385 1.085-1.878l2.501.517.024-.024-2.36-1.056c-.07-.658 0-1.385.236-2.113.07-.258.165-.493.283-.705-.33.141-.755.33-1.062.61 1.086-1.619 2.761-2.84 4.696-3.38-.354.212-.684.564-.92.822.236-.024.495-.047.779-.047.778 0 1.51.164 2.123.422l.284 2.513h.023l.284-2.536c.613-.258 1.321-.423 2.1-.423.26 0 .519.024.778.047-.26-.258-.566-.61-.92-.821 1.935.54 3.587 1.76 4.696 3.38-.307-.258-.731-.446-1.062-.61.118.211.213.47.283.704.236.728.307 1.456.236 2.113l-2.336 1.057.024.023 2.501-.516c.448.493.826 1.127 1.062 1.878.07.258.142.493.189.751.165-.282.401-.657.495-1.056zm-6.064 3.38l1.392-4.296-3.681-2.653-3.682 2.653 1.416 4.296h4.555z"/>
    <path fill="#92278F" d="M49.913 11.698c-.047.094-.047.211.024.305.024.047.07.07.118.094l9.486 5.494.024.023c.095.047.213.047.33-.023l.071-.07c.024-.024.024-.024.024-.048.873-1.526 2.1-2.911 3.634-4.014 1.557-1.104 3.28-1.785 5.026-2.09h.048c.047 0 .07-.023.118-.047.094-.07.141-.188.118-.305v-.024L66.928.264V.241c-.024-.047-.024-.094-.047-.118-.071-.094-.166-.14-.284-.117h-.023c-3.351.61-6.678 1.925-9.628 4.015-2.997 2.09-5.333 4.719-7.032 7.677z"/>
    <path fill="#005BAA" d="M44.51 32.428c.047.094.142.165.26.188.047 0 .094 0 .141-.023l10.242-3.921h.024c.094-.047.165-.141.188-.258 0-.047 0-.07-.023-.118 0-.023-.024-.047-.024-.047-.66-1.643-.967-3.451-.873-5.33.118-1.9.66-3.662 1.51-5.211l.024-.024c.024-.023.024-.07.024-.117 0-.117-.048-.235-.142-.282l-.024-.023-9.675-5.165h-.023c-.048-.024-.095-.024-.142-.024-.118 0-.212.047-.26.141 0 .024 0 .024-.023.024-1.581 2.934-2.62 6.362-2.832 9.954-.236 3.616.354 7.09 1.628 10.236z"/>
    <path fill="#009BDF" d="M57.512 49.472c.118.024.213 0 .307-.093.047-.047.071-.07.071-.141l3.257-10.424v-.024c.023-.117 0-.234-.095-.305-.023-.023-.07-.047-.094-.047-.024 0-.024-.023-.047-.023-1.7-.517-3.328-1.386-4.744-2.653-1.416-1.268-2.477-2.77-3.162-4.414 0-.023 0-.023-.023-.023-.024-.047-.048-.071-.071-.094-.095-.07-.213-.094-.33-.047h-.024L42.48 35.527l-.023.023c-.047.024-.071.047-.118.07-.071.095-.095.212-.047.306 0 .023 0 .023.023.023 1.345 3.123 3.375 6.034 6.089 8.452 2.737 2.395 5.852 4.085 9.108 5.071z"/>
    <path fill="#00A651" d="M78.917 49.966c.094-.07.141-.165.118-.282 0-.047-.024-.094-.048-.14l-6.111-9.063-.024-.024c-.07-.094-.189-.14-.307-.117-.047 0-.07.023-.118.047-.024 0-.024.023-.047.023-1.463 1.01-3.162 1.714-5.05 2.02-1.888.305-3.728.164-5.451-.33h-.047c-.048-.023-.071-.023-.118 0-.118.024-.213.118-.236.212v.024l-2.903 10.517v.024c-.024.047-.024.094 0 .14.024.118.094.189.212.236h.024c3.28.915 6.843 1.173 10.43.587 3.587-.61 6.844-1.95 9.676-3.874z"/>
    <path fill="#FFF200" d="M92.839 33.72c0-.118-.047-.212-.142-.282-.047-.023-.094-.047-.141-.047l-10.95-.845h-.023c-.118 0-.236.047-.283.164-.024.047-.024.07-.024.118v.047c-.118 1.76-.614 3.545-1.534 5.188-.92 1.667-2.17 3.029-3.634 4.062-.024 0-.024.023-.024.023-.023.024-.047.047-.07.094-.048.117-.048.235.023.329l.024.023 6.49 8.804v.024c.023.023.07.07.117.07.095.047.213.047.307-.023.024 0 .024 0 .024-.024 2.76-1.995 5.168-4.625 6.914-7.794 1.722-3.17 2.69-6.55 2.926-9.931z"/>
    <path fill="#F68B1F" d="M88.709 12.707c-.071-.07-.213-.094-.307-.047-.047.024-.095.047-.118.094l-7.552 7.935-.023.024c-.071.07-.095.211-.047.305.023.047.047.07.047.094.023.024.023.024.047.024 1.298 1.197 2.36 2.7 3.091 4.46.708 1.761.991 3.592.873 5.353v.047c0 .047 0 .07.024.117.047.118.142.188.26.188h.023l10.95.517H96c.047 0 .095 0 .142-.024.118-.047.165-.14.189-.258v-.023c.188-3.381-.354-6.903-1.723-10.26-1.369-3.334-3.398-6.222-5.9-8.546z"/>
    <path fill="#ED1C24" d="M69.523 2.94c-.118.024-.212.094-.236.211-.023.047-.023.118-.023.141l1.604 10.8v.023c.024.118.095.212.213.235.047.024.07.024.118.024.023 0 .047 0 .047-.024 1.77-.281 3.61-.188 5.428.329 1.84.516 3.445 1.432 4.79 2.606l.023.023c.024.024.071.047.095.047.118.047.236 0 .307-.094l.023-.023 7.174-8.264.024-.024c.023-.023.047-.07.07-.117.024-.117 0-.211-.07-.305l-.024-.024c-2.572-2.23-5.687-3.967-9.18-4.977-3.469-.916-7.008-1.103-10.383-.587z"/>
    <path fill="#fff" d="M72.203 83.36V70.102h-3.91v1.369c-1.174-1.09-2.157-1.625-3.76-1.625-3.63 0-6.322 3.271-6.322 6.95 0 4.254 2.478 6.884 6.11 6.884 2.477 0 3.908-1.625 3.908-1.625v1.305h3.974zm-3.76-6.522c0 1.924-1.474 3.229-3.226 3.229-1.837 0-2.969-1.518-2.969-3.357 0-1.754 1.196-3.165 3.098-3.165 1.73.021 3.097 1.347 3.097 3.293zm-11.898 4.96V70.125h-3.782v1.475c-1.132-1.197-2.242-1.753-3.909-1.753-3.439 0-5.682 3.036-5.682 6.628 0 3.614 2.286 6.458 5.661 6.458 1.56 0 2.97-.834 3.738-1.54.043.343.022.642.022.984 0 1.454-1.282 2.096-2.65 2.096-.982 0-1.537-.171-2.071-1.09h-4.444c.428 2.993 3.226 4.618 6.43 4.618 3.653.021 6.687-2.117 6.687-6.201zm-3.76-5.324c0 1.497-1.047 3.1-3.033 3.1-1.752 0-2.735-1.41-2.735-3.1 0-1.646.919-3.186 2.756-3.186 2.03 0 3.012 1.412 3.012 3.186zm-10.873-9.772c0-1.347-1.09-2.394-2.393-2.394-1.303 0-2.37 1.111-2.37 2.437 0 1.369 1.046 2.416 2.328 2.416 1.367 0 2.435-1.111 2.435-2.459zM26.403 83.36h9.378v-3.764h-5.127V66.81h-4.25v16.55zm-6.302 0h3.974V70.102h-3.91v1.369c-1.174-1.09-2.157-1.625-3.76-1.625-3.63 0-6.322 3.271-6.322 6.95 0 4.254 2.478 6.884 6.11 6.884 2.477 0 3.908-1.625 3.908-1.625v1.305zm.193-6.522c0 1.924-1.453 3.229-3.226 3.229-1.816 0-2.97-1.518-2.97-3.357 0-1.754 1.218-3.165 3.098-3.165 1.73.021 3.098 1.347 3.098 3.293zM0 83.36h9.378v-3.764H4.25V66.81H0v16.55zm41.484-13.258h-3.951V83.36h3.951V70.102z"/>
    <path fill="url(#paint0_linear)" d="M80.522 83.359h-3.247V66.744h3.952c1.26 0 2.179.043 2.798.128.62.086 1.132.236 1.56.428.94.45 1.666 1.048 2.157 1.839.492.791.748 1.71.748 2.78 0 1.283-.363 2.373-1.068 3.271-.705.898-1.666 1.454-2.884 1.711l4.144 6.436h-3.866l-4.294-7.719v7.74zm0-8.532h.726c1.325 0 2.307-.235 2.99-.706.684-.47 1.026-1.176 1.026-2.074 0-.877-.277-1.54-.854-1.946-.577-.427-1.453-.62-2.67-.62h-1.218v5.346zm8.78 2.202c0-.876.17-1.71.49-2.523.321-.791.791-1.497 1.41-2.117.642-.641 1.347-1.112 2.137-1.454.79-.342 1.602-.513 2.457-.513.897 0 1.73.15 2.499.449.769.3 1.474.748 2.093 1.347.663.642 1.154 1.369 1.517 2.181.363.834.534 1.668.534 2.545 0 .962-.149 1.839-.47 2.63-.32.791-.769 1.497-1.41 2.138-.62.642-1.324 1.133-2.136 1.475-.79.321-1.666.492-2.606.492s-1.794-.17-2.585-.492c-.769-.342-1.474-.833-2.115-1.496-.598-.663-1.068-1.369-1.388-2.16-.278-.791-.427-1.625-.427-2.502zm3.012-.021c0 1.155.32 2.095.96 2.758.642.684 1.496 1.027 2.607 1.027 1.068 0 1.944-.343 2.585-1.048.64-.706.961-1.625.961-2.801 0-1.048-.342-1.925-1.004-2.609-.662-.684-1.517-1.026-2.542-1.026-1.047 0-1.901.342-2.563 1.026-.684.684-1.004 1.582-1.004 2.673zm11.193.021c0-.876.171-1.71.491-2.523.321-.791.791-1.497 1.41-2.117.641-.641 1.346-1.112 2.137-1.454.79-.342 1.602-.513 2.456-.513.897 0 1.73.15 2.499.449.769.3 1.474.748 2.094 1.347.662.642 1.153 1.369 1.517 2.181.363.834.534 1.668.534 2.545 0 .962-.15 1.839-.47 2.63-.321.791-.769 1.497-1.41 2.138-.62.642-1.325 1.133-2.136 1.475-.791.321-1.667.492-2.607.492-.939 0-1.794-.17-2.584-.492-.769-.342-1.474-.833-2.115-1.496-.598-.663-1.068-1.369-1.389-2.16-.277-.791-.427-1.625-.427-2.502zm3.012-.021c0 1.155.321 2.095.961 2.758.641.684 1.496 1.027 2.607 1.027 1.068 0 1.943-.343 2.584-1.048.641-.706.962-1.625.962-2.801 0-1.048-.342-1.925-1.004-2.609-.663-.684-1.517-1.026-2.542-1.026-1.047 0-1.902.342-2.564 1.026-.683.684-1.004 1.582-1.004 2.673zm14.825-6.201v1.433c.427-.578.919-.984 1.474-1.262.556-.278 1.175-.406 1.88-.406 1.004 0 1.88.17 2.585.534.726.364 1.324.92 1.858 1.668.492-.748 1.047-1.304 1.666-1.668.62-.363 1.304-.556 2.03-.556 1.538 0 2.713.492 3.525 1.454.811.962 1.239 2.352 1.239 4.149v7.206h-2.863v-5.56c0-1.71-.192-2.865-.555-3.464-.385-.62-1.026-.92-1.944-.92-.962 0-1.645.343-2.072 1.027-.406.684-.62 1.86-.62 3.55v5.367h-2.884v-5.56c0-1.69-.192-2.844-.576-3.464-.385-.62-1.047-.92-2.008-.92-.983 0-1.667.343-2.094 1.027-.427.684-.641 1.86-.641 3.55v5.367h-2.82V70.807h2.82z"/>
    <defs>
        <linearGradient id="paint0_linear" x1="77.285" x2="137.599" y1="75.217" y2="75.217" gradientUnits="userSpaceOnUse">
            <stop stop-color="#A87D36"/>
            <stop offset="1" stop-color="#D8B074"/>
        </linearGradient>
    </defs>
</svg>
