<svg xmlns="http://www.w3.org/2000/svg" width="33" height="33" fill="none" viewBox="0 0 33 33">
    <path fill="#fff" d="M24.645 25.916H6.538V28.2h19.047v-2.285h-.941zM9.37 9.916l-1.308 3.219.845.42.846.42 1.031.512.767-1.105.541-.78.541-.78L9.37 9.915zM23.543 9.916l-3.29 1.941.535.78.536.78.734 1.07 1.093-.549.836-.42.837-.42-1.28-3.182z"/>
    <path fill="#fff" d="M29.8 10.014c-1.353 0-2.47 1.006-2.626 2.301-.012.102-.019.206-.019.31 0 .237.032.466.092.683.083.305.221.588.403.837l-1.88.915-.843.41-.105.05h-.001l-.738.359-2.428 1.181-1.754-2.475-.472-.667-.068-.096-.54-.761-1.813-2.56c.317-.073.614-.203.876-.378.264-.176.495-.399.68-.656.308-.426.489-.948.489-1.51 0-1.441-1.186-2.613-2.644-2.613-1.457 0-2.644 1.172-2.644 2.612 0 .557.178 1.074.48 1.498.184.259.413.483.676.66.261.176.556.308.873.383l-1.792 2.528-.54.762-.115.163-.424.6-1.779 2.51-2.357-1.146-.776-.378-.066-.032-.843-.41-2.047-.995c.21-.23.379-.499.495-.792.116-.293.18-.612.18-.945v-.005c0-1.44-1.185-2.612-2.643-2.612-1.458 0-2.644 1.172-2.644 2.612 0 1.321.998 2.417 2.289 2.589.116.015.234.023.355.023.213 0 .42-.025.62-.072.312-.075.603-.204.86-.377l2.946 8.184.333.926h17.107l.333-.926 2.887-8.02c.248.192.531.34.839.435.248.078.513.119.787.119.056 0 .112-.002.167-.006 1.38-.085 2.477-1.222 2.477-2.606 0-1.44-1.186-2.612-2.644-2.612z"/>
</svg>
