<svg xmlns="http://www.w3.org/2000/svg" width="33" height="33" fill="none" viewBox="0 0 33 33">
    <path fill="#fff" fill-rule="evenodd" d="M30.077 15.63c-.129.262-.129.563 0 .826l1.188 2.432c.662 1.354.138 2.968-1.194 3.674l-2.39 1.27c-.259.136-.436.38-.486.667l-.468 2.667c-.26 1.484-1.633 2.482-3.126 2.27l-2.68-.378c-.29-.041-.575.052-.785.255l-1.946 1.882c-.541.524-1.237.786-1.932.786-.695 0-1.39-.262-1.931-.786l-1.946-1.882c-.21-.203-.496-.296-.785-.255l-2.68.379c-.135.019-.268.028-.399.028-1.332 0-2.49-.948-2.728-2.3L5.322 24.5c-.05-.287-.228-.53-.486-.668l-2.39-1.268c-1.332-.707-1.857-2.32-1.195-3.675l1.189-2.432c.128-.262.128-.563 0-.826l-1.189-2.432c-.662-1.354-.137-2.968 1.194-3.674l2.391-1.27c.258-.136.435-.38.486-.667l.467-2.667c.26-1.484 1.634-2.482 3.126-2.27l2.68.379c.29.04.576-.053.786-.256L14.326.891c1.084-1.048 2.78-1.048 3.864 0l1.946 1.882c.21.203.496.296.785.255l2.68-.379c1.492-.21 2.866.787 3.126 2.271l.468 2.667c.05.287.227.53.485.668l2.391 1.268c1.332.707 1.856 2.32 1.194 3.675l-1.188 2.432zm-14.125-4.49c0-1.858-1.512-3.37-3.37-3.37-1.86 0-3.371 1.512-3.371 3.37 0 1.859 1.512 3.37 3.37 3.37 1.859 0 3.37-1.511 3.37-3.37zm-5.11 11.62c-.18.179-.415.269-.65.269-.236 0-.47-.09-.65-.27-.36-.358-.36-.94 0-1.3L21.675 9.326c.359-.359.94-.359 1.3 0 .359.36.359.941 0 1.3L10.842 22.76zm5.723-1.815c0 1.859 1.512 3.371 3.37 3.371 1.859 0 3.37-1.512 3.37-3.37 0-1.859-1.511-3.371-3.37-3.371-1.858 0-3.37 1.512-3.37 3.37z" clip-rule="evenodd"/>
    <path fill="#fff" d="M19.935 19.414c-.845 0-1.532.687-1.532 1.532 0 .844.687 1.532 1.532 1.532s1.532-.688 1.532-1.532c0-.845-.687-1.532-1.532-1.532zM12.581 9.608c-.844 0-1.532.688-1.532 1.532 0 .845.688 1.532 1.532 1.532.845 0 1.532-.687 1.532-1.532 0-.844-.687-1.532-1.532-1.532z"/>
</svg>
