<svg xmlns="http://www.w3.org/2000/svg" width="20" height="20" fill="none" viewBox="0 0 49 49">
    <path fill="#FFCD00" d="M43.504 15.485h-9.199v-4.87c0-1.984-1.623-3.698-3.607-3.698h-23.9c-1.984 0-3.608 1.623-3.608 3.698v19.12c0 1.984 1.624 3.697 3.608 3.697h3.066v6.223c0 .722.541 1.353 1.353 1.353.36 0 .721-.18.992-.45l7.035-7.216h2.435v.18c0 1.624 1.262 2.886 2.886 2.886h9.109l5.591 5.682c.18.18.451.361.812.361.631 0 1.082-.541 1.082-1.082v-4.96h2.435c1.534 0 2.796-1.263 2.796-2.887V18.371c0-1.533-1.353-2.886-2.886-2.886zM30.517 30.817H18.793c-.361 0-.632.18-.902.36L12.48 36.68v-4.69c0-.721-.542-1.262-1.263-1.262H6.978c-.631 0-1.172-.541-1.172-1.173V10.795c0-.631.54-1.172 1.172-1.172h23.63c.63 0 1.172.54 1.172 1.172v18.85c-.09.63-.541 1.172-1.263 1.172z"/>
    <path fill="#FFCD00" d="M28.353 12.87H8.963v2.705h19.39v-2.706zM28.353 18.822H8.963v2.705h19.39v-2.705zM28.353 24.774H8.963v2.706h19.39v-2.706z"/>
</svg>
