<svg xmlns="http://www.w3.org/2000/svg" width="64" height="64" fill="none" viewBox="0 0 64 64">
    <path fill="#fff" d="M31.718 49.408c0-1.076.59-2.048 1.562-2.586l1.613-.922c-1.74-.025-3.175-1.356-3.175-3.02v-3.328c0-1.076.59-2.048 1.562-2.586l4.813-2.714-.154-.332c-.102-.538.026-.999.384-1.332 2.893-2.61 4.352-6.17 4.327-10.624 0-3.61-.896-6.553-2.663-8.857C38.247 10.752 35.79 9.6 32.64 9.6s-5.606 1.152-7.373 3.481c-1.766 2.304-2.662 5.274-2.662 8.858 0 4.48 1.433 8.013 4.352 10.624.358.358.512.793.384 1.331l-.742 1.562c-.23.512-.59.921-1.076 1.228-.46.308-1.459.717-2.97 1.255l-4.146 1.331c-2.688.87-4.122 1.357-4.301 1.434-1.844.768-3.021 1.561-3.61 2.38C9.907 44.518 9.6 48 9.6 53.58h22.323c-.076-.281-.179-.563-.179-.844v-3.328h-.026zM39.68 53.58h10.112l-5.068-2.868-5.044 2.867zM54.554 45.9l.845.486c-.026-.23-.051-.435-.077-.64-.23.051-.486.154-.768.154z"/>
    <path fill="#D3B271" d="M44.263 32.894c.256 0 .512.076.716.179l9.78 5.53c.358.204.588.537.588.921v3.354c0 .614-.589 1.1-1.305 1.1-.256 0-.512-.077-.717-.179l-9.063-5.12L35.2 43.8c-.205.128-.46.18-.717.18-.716 0-1.305-.487-1.305-1.101V39.55c0-.384.23-.717.589-.922l9.779-5.53c.179-.128.435-.204.717-.204z"/>
    <path fill="#D3B271" d="M44.263 42.751c.256 0 .512.077.716.18l9.78 5.529c.358.205.588.537.588.921v3.328c0 .615-.589 1.101-1.305 1.101-.256 0-.512-.077-.717-.179l-9.063-5.12-9.062 5.12c-.205.128-.46.18-.717.18-.716 0-1.305-.487-1.305-1.102v-3.328c0-.384.23-.716.589-.921l9.779-5.53c.179-.102.435-.179.717-.179z"/>
</svg>
