<svg xmlns="http://www.w3.org/2000/svg" width="64" height="64" fill="none" viewBox="0 0 64 64">
    <path fill="#fff" d="M35.494 54.835c-.204.025-.435.051-.64.051-2.227 0-4.147-1.613-4.53-3.814l-.36-2.074L28.097 48c-2.202-1.178-3.072-3.84-1.971-6.093l.921-1.895-.921-1.894c-1.101-2.227-.23-4.915 1.971-6.093l1.869-.998.358-2.074c.435-2.457 2.688-4.121 5.171-3.763l2.1.307 1.51-1.459c1.792-1.74 4.608-1.74 6.4 0l1.51 1.46 1.408-.206-2.739-2.483h.051L31.014 9.6 8 30.26H21.005v25.216h.051v.025h10.957c-.026 0-.026-.025-.051-.025h6.579l-.973-.922-2.074.282z"/>
    <path fill="#D3B271" fill-rule="evenodd" d="M55.846 39.629c-.128.256-.128.537 0 .793l1.152 2.356c.64 1.305.128 2.867-1.152 3.532l-2.304 1.23c-.256.127-.41.358-.46.64l-.461 2.56c-.256 1.433-1.562 2.38-3.021 2.175l-2.586-.358c-.281-.052-.563.05-.768.256l-1.868 1.817c-.512.512-1.204.768-1.87.768-.665 0-1.33-.256-1.868-.768l-1.869-1.817c-.205-.205-.486-.282-.768-.256l-2.585.358c-.128.026-.256.026-.384.026-1.28 0-2.407-.922-2.637-2.227l-.461-2.56c-.051-.282-.23-.513-.46-.64l-2.305-1.23c-1.28-.69-1.792-2.227-1.152-3.532l1.152-2.355c.128-.256.128-.538 0-.794l-1.152-2.355c-.589-1.28-.077-2.842 1.203-3.507l2.304-1.23c.256-.127.41-.358.461-.64l.461-2.56c.256-1.433 1.562-2.38 3.02-2.175l2.586.358c.282.052.564-.05.768-.256l1.87-1.817c1.049-.999 2.687-.999 3.711 0l1.869 1.817c.205.205.486.282.768.256l2.586-.358c1.433-.205 2.764.768 3.02 2.176l.461 2.56c.051.282.23.512.461.64l2.304 1.229c1.28.69 1.792 2.227 1.152 3.532l-1.178 2.356zm-13.619-4.327c0-1.792-1.459-3.25-3.251-3.25-1.792 0-3.251 1.458-3.251 3.25s1.459 3.252 3.251 3.252c1.818 0 3.251-1.46 3.251-3.252zM37.312 46.49c-.18.179-.41.255-.614.255-.23 0-.461-.076-.615-.255-.358-.359-.358-.897 0-1.255l11.7-11.7c.358-.357.895-.357 1.254 0 .358.36.358.897 0 1.255l-11.725 11.7zm5.53-1.741c0 1.792 1.459 3.25 3.25 3.25 1.793 0 3.252-1.458 3.252-3.25s-1.46-3.252-3.251-3.252c-1.818 0-3.251 1.46-3.251 3.252z" clip-rule="evenodd"/>
    <path fill="#D3B271" d="M46.067 43.265c-.819 0-1.484.665-1.484 1.484 0 .82.665 1.485 1.484 1.485.82 0 1.485-.665 1.485-1.485 0-.819-.666-1.484-1.485-1.484zM39.002 33.817c-.82 0-1.485.666-1.485 1.485 0 .82.665 1.485 1.485 1.485.819 0 1.484-.666 1.484-1.485-.025-.819-.69-1.485-1.484-1.485z"/>
</svg>
