<svg xmlns="http://www.w3.org/2000/svg" width="64" height="64" fill="none" viewBox="0 0 64 64">
    <path fill="#fff" fill-rule="evenodd" d="M18.74 50.381c-.871-.665-1.716-1.382-2.484-2.15C12.134 44.109 9.6 38.426 9.6 32.154c0-6.272 2.534-11.955 6.656-16.077 3.789-3.763 8.909-6.22 14.592-6.605V6.4l5.35 3.098 5.35 3.098-5.35 3.097-5.35 3.072v-3.02c-3.968.358-7.526 2.099-10.189 4.761-2.995 2.995-4.838 7.091-4.838 11.648 0 4.557 1.843 8.678 4.838 11.648 1.178 1.178 2.535 2.176 4.02 2.97l-5.94 3.61zM46.055 14.003c.87.665 1.715 1.382 2.483 2.15 4.122 4.122 6.656 9.805 6.656 16.077 0 6.272-2.534 11.955-6.656 16.077-3.789 3.789-8.909 6.246-14.592 6.605v3.072l-5.35-3.098-5.35-3.098 5.35-3.097 5.35-3.098v3.021c3.968-.358 7.527-2.1 10.163-4.761 2.996-2.996 4.839-7.092 4.839-11.648 0-4.557-1.843-8.679-4.839-11.648-1.177-1.178-2.534-2.176-4.019-2.97l5.965-3.584z" clip-rule="evenodd"/>
    <path fill="#D3B271" d="M25.959 36.02h-5.58v-1.177l1.996-2.023c.589-.614.973-1.023 1.177-1.254.18-.256.308-.46.384-.665.077-.205.128-.41.128-.615 0-.333-.076-.563-.256-.717-.179-.179-.435-.256-.716-.256-.307 0-.615.077-.896.205-.308.154-.615.358-.922.614l-.922-1.075c.384-.332.717-.563.973-.716.256-.154.538-.257.845-.308.307-.077.666-.128 1.05-.128.512 0 .947.103 1.33.282.385.18.692.435.897.768.18.307.282.691.282 1.126 0 .359-.077.717-.205 1.05-.103.307-.308.64-.59.973-.28.333-.742.819-1.433 1.459l-1.024.973v.076h3.482v1.408zM32.538 34.357h-.948v1.664h-1.664v-1.664h-3.404v-1.178l3.507-5.171h1.561v5.017h.973v1.332h-.026zm-2.612-1.306v-1.357c0-.23 0-.563.026-.973.025-.435.025-.69.051-.768h-.051c-.128.308-.282.59-.487.87l-1.459 2.228h1.92zM37.3 28.008l-2.97 7.987h-1.536l2.97-7.987H37.3zM38.605 36.02l2.995-6.579h-3.942v-1.408h5.734v1.05l-3.02 6.937h-1.767z"/>
</svg>
