<svg xmlns="http://www.w3.org/2000/svg" width="64" height="64" fill="none" viewBox="0 0 64 64">
    <path fill="#fff" fill-rule="evenodd" d="M18.74 50.381c-.871-.665-1.716-1.382-2.484-2.15C12.134 44.109 9.6 38.426 9.6 32.154c0-6.272 2.534-11.955 6.656-16.077 3.789-3.763 8.909-6.22 14.592-6.605V6.4l5.35 3.098 5.35 3.098-5.35 3.097-5.35 3.072v-3.02c-3.968.358-7.526 2.099-10.189 4.761-2.995 2.995-4.838 7.091-4.838 11.648 0 4.557 1.843 8.678 4.838 11.648 1.178 1.178 2.535 2.176 4.02 2.97l-5.94 3.61zM46.055 14.003c.87.665 1.715 1.382 2.483 2.15 4.122 4.122 6.656 9.805 6.656 16.077 0 6.272-2.534 11.955-6.656 16.077-3.789 3.789-8.909 6.246-14.592 6.605v3.072l-5.35-3.098-5.35-3.098 5.35-3.097 5.35-3.098v3.021c3.968-.358 7.527-2.1 10.163-4.761 2.996-2.996 4.839-7.092 4.839-11.648 0-4.557-1.843-8.679-4.839-11.648-1.177-1.178-2.534-2.176-4.019-2.97l5.965-3.584z" clip-rule="evenodd"/>
    <path fill="#D3B271" d="M39.603 32.206c-.435-.743-1.152-1.357-2.124-1.895-.973-.486-2.612-1.024-4.89-1.51-.947-.205-1.536-.41-1.766-.64-.23-.205-.384-.435-.384-.742 0-.384.153-.692.486-.922.282-.256.768-.384 1.357-.384.717 0 1.305.205 1.74.538.436.332.666.921.82 1.664l4.89-.282c-.205-1.74-.871-3.02-2.049-3.84-.793-.614-1.97-.998-3.379-1.152v-2.38h-3.968v2.482c-.665.103-1.254.282-1.74.487-1.025.435-1.741 1.075-2.279 1.843-.486.768-.768 1.613-.768 2.483 0 1.306.486 2.432 1.46 3.251.972.87 2.61 1.562 4.889 2.048 1.408.282 2.278.64 2.662.973.384.333.589.743.589 1.178 0 .486-.205.87-.589 1.229-.384.332-.973.537-1.74.537-1.025 0-1.741-.333-2.33-1.024-.333-.435-.538-1.024-.666-1.843l-4.864.333c.154 1.715.768 3.123 1.895 4.224.768.768 1.945 1.254 3.532 1.51V42.6h3.968v-2.15c.973-.102 1.844-.282 2.51-.64 1.074-.486 1.894-1.178 2.508-2.1.614-.895.947-1.868.947-2.994-.051-.922-.281-1.741-.717-2.51z"/>
</svg>
