<svg xmlns="http://www.w3.org/2000/svg" width="355" height="72" fill="none" viewBox="0 0 355 72">
    <path fill="#D3B271" d="M61.158 0H.105v54.35h61.053V0z"/>
    <path fill="url(#paint0_radial)" d="M58 3.019H3.23v48.28H58V3.02z"/>
    <path fill="#fff" d="M22.737 26.948v19.649c0 .421-.105.702-.491.702s-.527-.28-.527-.702v-2.596h-.982c-.912 0-4.526 3.017-5.404 3.614-1.579-.913-3.508-1.825-4.947-2.316-.807.772-1.403 1.298-1.79 1.684-.385.386-.526.597-.701.597-.28 0-.597-.316-.597-.597 0-.28.597-.912 3.334-3.72 1.894-1.93 2.631-4.28 2.631-7.824 0-5.895-2.526-10.912-5.438-10.912-.983 0-1.439.386-1.614 1.368-.07.492-.281.632-.492.632-.42 0-.666-.702-.666-1.895 0-2.702 1.894-4.877 4.21-4.877 2 0 2.807 1.614 4 1.474v-4c0-1.018-.386-1.895-1.123-2.527-.631-.526-4-2.807-5.228-2.807-.42 0-.631.176-.912.176-.175 0-.21-.07-.21-.176 0-.175.105-.28.42-.631l4.246-4.21c.21-.176.316-.282.527-.282 1.438 0 7.263 4.667 7.965 4.667 1.122 0 7.052-4.526 8.631-4.526.421 0 .877.386 4.14 3.017.527.421 1.614 1.404 2.597 2 .877.527.912.632.912 1.685.526-.106 1.123-.527 4.526-3.299.983-.807 3.825-3.122 4.036-3.122.28 0 2.631.982 6.14 2.42 1.017.422 1.193.527 1.193 1.193v27.966c0 .912.105 1.227.491 1.578 1.614 1.404 2.597 1.965 3.123 1.965.175 0 .386-.07.526-.21.281-.386.316-.421.492-.421.175 0 .315.21.315.42 0 .317-2.42 3.37-4.912 5.299-1.509-.526-4.105-2.316-5.544-3.825-.491-.526-.596-.666-.596-1.578V22c0-2.316.736-3.895 3.438-7.51 1.404-1.824 1.509-2.385 1.228-2.385-.21 0-3.508 2.386-4.14 2.772-2.912-1.684-3.79-2.21-5.333-2.21-.843 0-1.439.42-1.439.982v33.263c0 .42-.21.772-.526.772-.281 0-.421-.281-.421-.702v-2.491c-2.316.386-4.21 3.088-4.737 3.088-.597 0-4.105-4.211-4.105-4.527V26.948h-6.246zm-.982-13.79c0-1.087-.106-1.473-.316-1.473-.491 0-2.21 1.088-2.21 1.473v14.983c0 7.403-.878 8.175-2.808 10.21-.877.913-1.088 1.123-1.72 1.895 1.124 1.58 4.913 2.28 7.053 2.176V13.158zm.982 8.667h6.316V15.86c0-1.123-4.035-4.21-5.404-4.21-.596 0-.912.386-.912 1.087v9.088zm15.123-7.684c0-.105-.07-.176-.21-.176-.176 0-.422.106-.597.211l-1.228.772c-.702.421-.913.667-.913.982v5.404c0 .386.492.631.878.631h2.105v-7.824h-.035zm0 12.702h-2.035c-.597 0-.878.42-.878 1.263v11.087c0 2.176.913 3.194 2.913 3.369v-15.72zM11.088 71.65v-.703c1.509-.175 1.649-.315 1.614-2.175l-.035-7.825h-.106L8.071 71.51h-.562l-4.14-10.316h-.07l-.246 5.298c-.07 1.684-.07 2.632 0 3.263.07.913.49 1.088 1.824 1.228v.702H0v-.702c1.123-.105 1.509-.456 1.65-1.192.104-.667.28-1.72.42-3.825l.316-4c.175-2.316.035-2.597-1.72-2.772v-.702h4.211l3.895 8.877 3.965-8.877h4.105v.702c-1.614.175-1.72.316-1.649 2l.175 7.579c.035 1.86.14 2 1.72 2.175v.702h-6zM25.58 71.648v-.701c1.192-.176 1.298-.421.982-1.334-.21-.596-.491-1.473-.807-2.28H21.86c-.21.631-.491 1.368-.737 2.175-.28.983-.245 1.263 1.228 1.439v.701h-4.526l.035-.701c1.333-.176 1.579-.386 2.246-2.106l4.175-10.42 1.018-.281c1.298 3.544 2.561 7.087 3.86 10.561.701 1.79.947 2.035 2.245 2.21v.702h-5.825v.035zm-1.72-9.754h-.07c-.561 1.474-1.088 2.947-1.614 4.386h3.158l-1.474-4.386zM46.28 59.193c-1.087.07-1.508.316-1.614 1.263-.07.632-.175 1.58-.175 3.368v8.036h-.982l-8.421-10.106h-.07v4.562c0 1.79.105 2.666.175 3.298.105.877.456 1.263 1.93 1.333v.702H32.14v-.702c1.123-.07 1.614-.42 1.684-1.263.07-.666.211-1.579.211-3.333v-4.246c0-1.333-.035-1.72-.421-2.175-.351-.491-.842-.632-1.684-.737v-.702h3.754l7.755 8.912h.07v-3.579c0-1.789-.106-2.736-.176-3.333-.105-.877-.526-1.228-2-1.298v-.702h4.948v.702zM54.21 61.789c-.42-1.263-1.193-2.772-2.842-2.772-1.123 0-1.965.842-1.965 2 0 1.123.737 1.754 2.527 2.667 2.14 1.017 3.578 2.175 3.578 4.175 0 2.316-1.964 4.105-4.912 4.105-.737 0-1.438-.105-2.035-.28-.561-.176-.947-.316-1.228-.457-.175-.49-.456-2.21-.596-3.438l.701-.21c.421 1.298 1.614 3.578 3.544 3.578 1.228 0 2.035-.842 2.035-2.14 0-1.193-.877-1.965-2.42-2.772-2.106-1.053-3.545-2.14-3.545-4.105 0-2.246 1.755-3.965 4.632-3.965 1.298 0 2.456.42 2.807.561.07.737.21 1.65.386 2.913l-.667.14zM56.175 71.65v-.703c1.51-.14 1.684-.28 1.684-2v-7.754c0-1.72-.175-1.86-1.684-2v-.702h6.07v.702c-1.508.14-1.684.28-1.684 2v7.754c0 1.72.176 1.86 1.684 2v.702h-6.07zM70.105 58.21c3.685 0 6.702 2.702 6.702 6.737 0 4.386-3.158 7.052-6.947 7.052-4.07 0-6.877-2.982-6.877-6.877-.035-3.508 2.456-6.912 7.122-6.912zm-.42.807c-2.036 0-3.615 2.175-3.615 5.684 0 3.474 1.544 6.421 4.14 6.421 1.93 0 3.474-1.894 3.474-5.614 0-4.035-1.649-6.491-4-6.491zM91.474 59.193c-1.088.07-1.509.316-1.614 1.263-.07.632-.175 1.58-.175 3.368v8.036h-.983l-8.421-10.106h-.07v4.562c0 1.79.105 2.666.175 3.298.106.877.456 1.263 1.965 1.333v.702H77.37v-.702c1.123-.07 1.614-.42 1.684-1.263.07-.666.21-1.579.21-3.333v-4.246c0-1.333-.035-1.72-.42-2.175-.352-.491-.843-.632-1.685-.737v-.702h3.755l7.754 8.912h.07v-3.579c0-1.789-.105-2.736-.175-3.333-.106-.877-.527-1.228-2-1.298v-.702h4.947v.702h-.035zM106.526 58.42c-.105 0-.315.352-.35.457-.106.14-.351.491-.351.491h-1.404c-1.123-.561-1.684-.596-1.824-.596-.106 0-.106.42-.106.42s.035 4.667.035 5.404c0 .702-.14 1.86-.386 2.877-.28 1.123-.736 1.65-1.473 2.386-.772.737-2.281 1.44-2.492 1.544-.21.106-.245.21-.245.21s-.176.141.877-.174c1.333-.386 2.421-.983 3.018-1.369 2.28-1.579 2.245-3.93 2.245-3.93h2.141v3.018c0 .105-.071.21-.211.35-.21.176-.947.246-1.193.246-.245 0-.596-.035-.561.105 0 .14.491.387.807.597.316.21.386.667.491.877.105.21.982.456 1.754-.175.772-.632.667-1.72.667-1.72v-9.333l.175-.175c.106-.106.386-.386.036-.737-.667-.632-1.579-.772-1.65-.772zm-.35 7.475h-2.071c.071-1.79.071-1.79.071-3.088h2v3.088zm0-3.369h-2v-2.42s.035-.527.386-.527h1.578v2.947h.036z"/>
    <path fill="#fff" d="M97.684 67.86h1.79v.841c0 .035 0 .21.105.28.07.106.315.141.771.106.457-.035.527-.21.632-.35.105-.141.105-.457.105-.457v-8s.035-.07.106-.14c.07-.07.421-.176.315-.351-.351-.772-1.122-1.018-1.298-1.053-.245-.105-.491-.14-.561-.035-.07.105-.21.351-.281.492-.07.14-.21.245-.21.245h-1.685s-.982-.526-1.228-.491c-.21 0-.21.28-.21.28v10.14s0 .176.105.246.316.036.526.036c.21 0 .562-.035.807-.176.21-.175.176-.456.176-.456v-1.158h.035zm.35-8.176h1.44v3.824h-1.79V60.14c0 .035-.035-.421.35-.456zm1.44 4.105v3.79h-1.79v-3.79h1.79zM123.965 61.262c-.141 0-.246.14-.386.35-.14.176-.597.773-.597.773h-.386v-3.158c.035-.14.246-.21.211-.386 0-.07-.351-.21-.737-.28-.281-.036-.877-.106-1.088-.071-.175.035-.175.28-.175.28v3.615h-1.719v-2.07s1.298-.421 1.473-.492c.176-.07.211-.175.141-.245-.035-.07-.141-.14-.351-.246-.211-.105-.597-.35-.948-.561-.35-.21-.386-.21-.526-.21-.105 0-.245.105-.456.315-.912.912-2.596 2.105-2.842 2.316l-.035.035c.07.07 1.789-.456 1.789-.456v1.614h-2.526c-.175 0-.035.14.105.21.105.07.141.07.141.07h2.28s0 .843-.07 1.474c-.14 1.018-.702 1.895-.702 1.895-.035.035-.035.07-.035.07v.105c.106.106.386-.14.737-.386.562-.386.983-.736 1.263-1.228.386-.631.527-1.93.527-1.93h1.754s-.035 3.404 0 3.51c.035.14.07.28.702.28.631-.035.877-.175.982-.28.105-.106.07-.316.07-.316V62.63h2.281c.105 0 .211-.07.175-.21-.035-.14-.245-.456-.491-.702-.21-.246-.386-.456-.561-.456z"/>
    <path fill="#fff" d="M123.263 69.368c-.35-.21-.491-.035-.666.175-.141.14-.807 1.018-.807 1.018h-1.579v-2.527h2.28c.281 0 .492-.035.632-.14.14-.105 0-.28-.316-.597-.386-.385-.912-.631-1.017-.631-.106 0-.281.246-.351.386-.07.14-.491.702-.491.702h-.702v-1.58c0-.07.281-.245.281-.42 0-.106-.106-.316-.351-.457-.316-.175-.948-.21-1.299-.21-.386 0-.35.456-.35.456v2.21h-1.895c-.141 0-.281 0-.105.14.175.141.386.141.386.141h1.614v2.527h-3.79c-.175 0-.105.105-.035.175.07.035.281.035.281.035h8.947c.105 0 .737.035.281-.491-.597-.702-.877-.877-.948-.912zM115.544 67.507c.07-.14.105-.28.14-.456.035-.14.07-.316.105-.526 0-.106.036-.21 0-.316v-.105-.176c-.105-.702-.561-1.333-1.052-1.79-.562-.526-1.228-.912-1.228-.912.526-.842.982-1.543 1.333-2.105l.035-.035c.526-.772.877-1.228.877-1.228.035-.035.141-.105 0-.21-.245-.246-.842-.632-1.122-.772-.281-.14-.386-.211-.492-.211-.105 0-.175.105-.21.175-.07.07-.386.457-.386.457h-.667s-1.017-.597-1.403-.597c-.246 0-.246.21-.246.21v12.316c0 .07-.035.316.211.386.35.106.877-.07 1.052-.175.246-.105.211-.456.211-.456v-3.825c.772.246.877.702.947.912.07.246-.035.667.632.457.28-.106.526-.246.737-.386.21-.14.385-.316.526-.632zm-1.333-1.123c-.316.632-1.474.562-1.474.562v-6.877c0-.422.386-.422.386-.422h.737c-.246 2.036-.772 3.825-.772 3.825s.561.667.877 1.123c.316.42.526 1.228.246 1.79zM85.895 26.35c5.93-.876 7.228-3.929 7.228-9.157v-5.509c0-5.79-4.666-8.702-14.035-8.702-9.368 0-14.035 2.913-14.035 8.702v6.491c0 4.562 1.017 6.948 6.421 7.86-5.404 1.193-6.421 4.526-6.421 9.404v7.122c0 5.86 4.667 8.772 14.035 8.772 9.369 0 14.035-2.912 14.035-8.772V35.51c0-5.369-1.298-8.421-7.228-9.158zm-6.877-3.052c-2.07 0-3.088-.982-3.088-2.912v-9.263c0-1.895 1.018-2.807 3.088-2.807 2.105 0 3.158.947 3.158 2.807v9.263c0 1.93-1.053 2.912-3.158 2.912zm0 22.421c-2.07 0-3.088-.982-3.088-2.912V32.316c0-2 1.018-2.983 3.088-2.983 2.105 0 3.158.983 3.158 2.983v10.491c0 1.93-1.053 2.912-3.158 2.912zM117.754 26.35c5.93-.876 7.228-3.929 7.228-9.157v-5.509c0-5.79-4.667-8.702-14.035-8.702s-14.035 2.913-14.035 8.702v6.491c0 4.562 1.017 6.948 6.421 7.86-5.404 1.193-6.421 4.526-6.421 9.404v7.122c0 5.86 4.667 8.772 14.035 8.772s14.035-2.912 14.035-8.772V35.51c0-5.369-1.298-8.421-7.228-9.158zm-6.877-3.052c-2.07 0-3.088-.982-3.088-2.912v-9.263c0-1.895 1.018-2.807 3.088-2.807 2.105 0 3.158.947 3.158 2.807v9.263c.035 1.93-1.018 2.912-3.158 2.912zm0 22.421c-2.07 0-3.088-.982-3.088-2.912V32.316c0-2 1.018-2.983 3.088-2.983 2.105 0 3.158.983 3.158 2.983v10.491c.035 1.93-1.018 2.912-3.158 2.912z"/>
    <path fill="#D3B271" d="M183.824 19.122c3.299 1.965 4.948 4.35 4.948 7.123 0 2.175-1.228 4.526-3.649 7.017-1.404 1.474-3.053 2.737-4.983 3.79-1.93 1.053-3.824 1.824-5.684 2.28-3.228.773-6.175 1.158-8.807 1.158-.561 0-1.123 0-1.684-.035-2.281 3.334-4.632 6.176-7.018 8.527-3.509 3.298-7.403 4.947-11.649 4.947-4.07 0-6.561-1.123-7.474-3.333-.21-.527-.315-1.158-.315-1.86 0-.702.35-1.474 1.087-2.28 1.123-1.264 2.702-1.93 4.737-1.93 1.298 0 2.667.245 4.105.701.527.176.702.386.562.597-.141.14-.527.07-1.228-.176-.702-.245-1.544-.386-2.562-.386-1.017 0-1.894.386-2.666 1.158-.772.772-1.158 1.58-1.158 2.456 0 .351.07.702.175 1.018.491 1.684 1.93 2.526 4.246 2.526 3.509 0 6.912-1.614 10.281-4.877 2.385-2.35 5.087-6.561 8.105-12.632 1.158-2.28 2.596-4.806 4.316-7.614 1.719-2.806 3.473-5.192 5.228-7.192l.842-.843c.666-.736 1.193-1.333 1.649-1.79-2.246-.315-4.632-.455-7.193-.455-2.562 0-4.983.21-7.263.631-2.281.421-4.246.913-5.93 1.51-1.684.56-3.404 1.332-5.123 2.245-1.719.912-3.193 2.07-4.386 3.473-1.544 1.79-2.351 3.65-2.351 5.58 0 1.192.421 2.28 1.263 3.333.913 1.087 2.071 1.649 3.474 1.649 1.404 0 2.807-.562 4.105-1.65 1.334-1.087 2.281-2.42 2.842-4.034.036-.21.106-.351.211-.457.105-.07.211-.07.316.036.105.105.14.245.14.456-.035 2.035-.807 3.614-2.351 4.807-1.544 1.158-3.263 1.754-5.123 1.754-2.105 0-3.859-.632-5.193-1.86-1.333-1.263-2-2.842-2-4.807 0-1.824.492-3.438 1.439-4.877.983-1.438 2.105-2.631 3.474-3.544 1.333-.912 2.877-1.719 4.631-2.42 2.948-1.194 6.071-2.036 9.334-2.492 3.263-.491 6.315-.737 9.122-.737 2.807 0 5.439.246 7.825.737 1.123-.877 2.105-1.474 2.947-1.79.843-.315 1.334-.456 1.439-.456.105 0 .175 0 .211.036.175 0 .21.105.105.315-.105.21-.456.492-1.088.913-.596.42-1.193.877-1.754 1.438 2.035.597 3.824 1.369 5.473 2.316zm-18.526 20.35c2.281 0 4.737-.385 7.404-1.192 2.666-.807 5.017-1.965 7.087-3.474 4-3.017 6-6.14 6-9.368 0-3.65-2.772-6.14-8.28-7.439-1.755 2.421-4 6.14-6.772 11.088-2.772 4.947-4.807 8.421-6.071 10.386h.632zM190.596 33.333c0 1.403-.877 2.736-2.667 3.964.632.036 1.474.036 2.491.036 1.053 0 2.351-.07 3.965-.246.07.105.106.35.106.737 0 .42-.176 1.017-.562 1.79-.386.806-.702 1.473-1.017 2.07-.281.56-.562 1.122-.843 1.649-.28.526-.561 1.157-.877 1.894-.315.737-.596 1.439-.807 2.07-.772 2.386-.666 3.544.386 3.544 1.298 0 3.228-2.596 5.79-7.824.21-.421.386-.562.526-.456.14.105.211.21.211.35 0 .14-.211.632-.597 1.44-.421.841-.842 1.683-1.298 2.56-.456.878-1.193 1.895-2.211 3.053-1.193 1.439-2.315 2.14-3.403 2.14-1.228 0-2.07-.736-2.527-2.21-.105-.28-.14-.702-.14-1.263 0-.562.176-1.298.526-2.246.351-.947.913-2.07 1.72-3.403.772-1.334 1.228-2.14 1.298-2.351.105-.246.14-.456.14-.667 0-.982-1.263-1.474-3.754-1.544l-.561 1.509c-1.965 5.158-3.86 8.596-5.65 10.35-.315.282-.456.176-.456-.28 0-.105.035-.21.106-.316 1.754-2.315 3.263-5.052 4.526-8.175 1.263-3.158 2.175-6.14 2.667-8.983.175-.982.631-1.438 1.298-1.438.702 0 1.193.421 1.509 1.298.035.246.105.597.105.948z"/>
    <path fill="#D3B271" d="M198.491 44.911c-.421 1.053-.667 2.246-.667 3.544 0 .877.211 1.579.597 2.07.386.526.947.772 1.649.772 2.842 0 5.404-2.666 7.719-8 .211-.491.492-.702.807-.666.141.035.176.105.176.245s-.351.948-1.053 2.456c-.702 1.509-1.403 2.737-2.14 3.684-1.579 2.176-3.544 3.264-5.895 3.264-1.263 0-2.316-.421-3.193-1.229-.877-.806-1.298-1.93-1.298-3.333 0-1.403.351-2.877 1.017-4.456.667-1.579 1.579-3.053 2.737-4.386 1.158-1.368 2.491-2.35 3.965-2.982.702-.316 1.404-.456 2.07-.456.667 0 1.264.175 1.825.56.526.422.807.913.807 1.44 0 1.86-1.123 3.649-3.369 5.368-.701.526-1.649 1.018-2.912 1.439-1.228.456-2.175.666-2.842.666zm7.86-7.509c0-.631-.246-.947-.737-.947-.877 0-2.211 1.088-3.965 3.228-1.053 1.298-2 2.772-2.807 4.386.526 0 1.298-.175 2.316-.561 1.017-.386 1.895-.878 2.631-1.51 1.72-1.403 2.562-2.947 2.562-4.596z"/>
    <path fill="#D3B271" d="M211.964 51.228c.421.07.702.105.842.105 1.263 0 2.492-.736 3.685-2.21.666-.807 1.824-2.842 3.508-6.14.07-.14.176-.246.316-.246.281-.035.421.07.421.316 0 .07-.07.245-.21.526-.141.28-.281.596-.386.877-.141.28-.316.737-.597 1.298-.281.562-.526 1.018-.737 1.369-.21.35-.456.772-.772 1.263-.315.491-.631.877-.947 1.158l-.982 1.017c-.527.527-1.158.913-1.86 1.123-1.158.386-2.281.421-3.368.105-.702.316-1.369.457-1.93.457-2.211 0-3.544-.878-4.035-2.632-.106-.421-.141-.912-.141-1.474 0-.561.211-1.122.597-1.649.386-.526.807-.807 1.228-.842 1.579-3.017 2.947-5.754 4.07-8.175 1.263-2.667 2.702-3.965 4.351-3.965.421 0 .877.105 1.298.316.421.21.562.42.456.666-.105.246-.351.28-.666.14-.351-.14-.632-.245-.878-.245-.245 0-.456.035-.666.14-1.053.492-1.579 1.58-1.579 3.228 0 .878.14 1.58.386 2.14.245.562.526 1.159.842 1.825.702 1.614 1.088 2.948 1.088 3.965 0 1.018-.316 2.035-.983 3.053-.667 1.052-1.439 1.86-2.351 2.491zm-5.087-1.614c0 .175 0 .386.035.597.245.842.842 1.263 1.719 1.263.386 0 .702-.07.947-.176-1.158-.702-1.789-1.895-1.859-3.509-.562.562-.842 1.194-.842 1.825zm3.508 1.263c1.369-1.052 2.07-2.772 2.07-5.158 0-.982-.105-2.28-.315-3.965-.211-1.684-.316-2.807-.316-3.403 0-.597 0-.983.035-1.228-2.386 4.737-3.825 7.614-4.386 8.666.667 0 .982.457.982 1.404-.035 1.825.597 3.053 1.93 3.684z"/>
    <path fill="#D3B271" d="M218.737 48.35c0-2.597 1.263-6.913 3.754-13.018h-2.421c-.14 0-.245-.07-.316-.245-.035-.176-.035-.351.035-.527.071-.175.211-.245.351-.245h2.807c1.123-2.456 2.176-4.527 3.123-6.176.983-1.649 1.86-2.772 2.667-3.333.807-.562 1.403-.877 1.754-.877s.632.035.772.105c.702.35 1.088 1.053 1.088 2.14 0 1.088-.351 2.386-1.088 3.895-.702 1.544-1.403 2.947-2.105 4.246h2.245c.141 0 .246.07.316.245.035.176.035.351-.035.527-.07.175-.21.245-.351.245h-2.701c-1.72 2.913-3.79 5.474-6.211 7.72l-1.088 4.771c-.105.422-.14.807-.14 1.193s.105.772.316 1.193c.21.421.561.597 1.017.597.527 0 1.123-.175 1.79-.561 1.509-1.123 3.158-3.474 4.947-7.053.14-.28.281-.456.456-.526.176-.07.281-.035.316.105.035.14 0 .35-.14.666-1.018 2.14-1.825 3.685-2.421 4.597-1.685 2.702-3.474 4.07-5.369 4.07-.982 0-1.754-.35-2.386-1.088-.666-.666-.982-1.578-.982-2.666zm8.807-12.983h-2.211c-.386.878-1.228 2.948-2.526 6.21 1.684-1.754 3.263-3.824 4.737-6.21zm.596-1.052c2.071-3.684 3.088-6.246 3.088-7.684 0-.632-.105-.948-.316-.948-.351 0-.877.491-1.579 1.509-.701.982-1.894 3.368-3.544 7.123h2.351z"/>
    <path fill="#D3B271" d="M231.087 51.087c.597 0 1.229-.28 1.86-.877 1.158-1.158 2.632-3.509 4.386-7.053.211-.456.421-.596.667-.42.07.07.105.174.105.315 0 .14-.14.491-.386 1.017-.246.562-.491 1.053-.667 1.474-.21.421-.596 1.158-1.158 2.14-.561.983-1.087 1.755-1.578 2.281-1.264 1.474-2.492 2.21-3.614 2.21-1.123 0-1.965-.35-2.457-1.017-.491-.702-.736-1.438-.736-2.28 0-.843.21-1.755.596-2.773l2.982-7.614c.071-.175.106-.42.106-.736s-.176-.702-.562-1.228l2.562-.036c.701 0 1.123.14 1.263.386.14.281.035.667-.281 1.229l-3.754 8.736c-.526 1.158-.807 2.14-.807 2.948.035.842.526 1.298 1.473 1.298zm4.597-17.193c-.421.386-.912.561-1.439.561-.526 0-.947-.175-1.263-.561-.316-.386-.421-.842-.386-1.368.106-.527.351-.983.807-1.369.421-.386.913-.561 1.439-.561s.947.175 1.298.561c.316.386.456.842.351 1.369-.105.56-.386 1.017-.807 1.368z"/>
    <path fill="#D3B271" d="M234.175 66.876c-2.947 0-4.386-1.193-4.386-3.614 0-2 1.369-3.79 4.07-5.368 2.316-1.334 5.264-2.597 8.843-3.79 1.649-.526 2.842-.947 3.614-1.263.807-2.386 1.228-4.947 1.228-7.754 0-.562-.035-.983-.106-1.264-.877 1.79-2.07 3.615-3.614 5.474-1.824 2.246-3.614 3.123-5.368 2.632-1.614-.702-2.421-2.035-2.421-4.035 0-2.667 1.333-5.614 4.035-8.842 1.474-1.755 3.193-2.843 5.158-3.334.526-.14 1.053-.245 1.579-.245 1.403 0 2.772.456 4.105 1.403.491.421.737.737.737 1.018 0 .28-.105.561-.281.807-.175.28-.386.28-.596.105-.211-.21-.351-.386-.386-.596-.421-1.158-1.053-1.72-1.965-1.72-1.649 0-3.509 1.158-5.579 3.474-1.158 1.298-2.14 2.702-2.983 4.21-1.017 1.86-1.543 3.299-1.543 4.316 0 1.018.315 1.684.947 2.035.211.106.421.14.667.14.701 0 1.614-.49 2.701-1.473 1.088-.983 2.071-2.246 2.983-3.754.912-1.51 1.509-2.702 1.754-3.544.246-.842.562-1.369.913-1.58.35-.21.771-.35 1.193-.385.421-.035.736-.105.877-.246.245 1.404.386 3.053.386 4.948 0 1.894-.316 4.035-.983 6.42 1.439-1.017 2.456-1.964 3.053-2.771.596-.807 1.088-1.544 1.438-2.21.351-.667.667-1.3.948-1.93.28-.632.456-1.053.561-1.229.105-.175.246-.316.456-.35.211-.036.316.07.316.315 0 .14-.035.351-.14.562-1.369 2.842-2.527 4.877-3.439 6.14-.912 1.263-2.175 2.28-3.754 3.017-.737 2.106-1.825 4.211-3.263 6.316-1.404 2.105-3.193 3.93-5.369 5.509-2.14 1.65-4.245 2.456-6.386 2.456zm-3.403-2.702c0 1.193.772 1.79 2.28 1.79.913 0 1.93-.28 3.053-.807 1.123-.526 2.07-1.088 2.842-1.65 1.263-1.017 2.667-2.56 4.211-4.596 1.158-1.614 2.035-3.193 2.666-4.737l-1.649.562c-4.877 1.684-8.28 3.193-10.28 4.491-1.474.983-2.421 2.21-2.913 3.684-.14.492-.21.913-.21 1.263z"/>
    <path fill="#D3B271" d="M257.789 44.911c-.421 1.053-.666 2.246-.666 3.544 0 .877.21 1.579.596 2.07.386.526.948.772 1.649.772 2.842 0 5.404-2.666 7.72-8 .21-.491.491-.702.807-.666.14.035.175.105.175.245s-.351.948-1.053 2.456c-.701 1.509-1.403 2.737-2.14 3.684-1.579 2.176-3.544 3.264-5.895 3.264-1.263 0-2.315-.421-3.193-1.229-.877-.806-1.298-1.93-1.298-3.333 0-1.403.351-2.877 1.018-4.456.666-1.579 1.579-3.053 2.737-4.386 1.157-1.368 2.491-2.35 3.964-2.982.702-.316 1.404-.456 2.071-.456.666 0 1.263.175 1.824.56.527.422.807.913.807 1.44 0 1.86-1.123 3.649-3.368 5.368-.702.526-1.649 1.018-2.912 1.439-1.229.456-2.176.666-2.843.666zm7.86-7.509c0-.631-.246-.947-.737-.947-.877 0-2.21 1.088-3.965 3.228-1.052 1.298-2 2.772-2.807 4.386.527 0 1.299-.175 2.316-.561 1.018-.386 1.895-.878 2.632-1.51 1.719-1.403 2.561-2.947 2.561-4.596zM294.42 56.842c-2.421 0-4.772-.491-6.982-1.438-2.246-.948-4-2.351-5.333-4.176-1.334-1.825-2.141-3.86-2.422-6.035-.14-.947-.175-1.965-.175-3.088s.14-2.596.421-4.456c.281-1.825.912-3.825 1.86-6 .947-2.14 2.07-4.07 3.403-5.72-.526-2.104-.807-4-.807-5.789 0-1.754.211-3.403.597-4.947.07-.246.175-.421.316-.526.14-.106.245-.176.315-.176.316 0 .421.386.281 1.158-.14.772-.175 1.86-.175 3.263 0 1.404.21 3.228.596 5.404 2.491-3.228 5.439-5.544 8.807-7.018 2.597-1.123 5.298-1.684 8.14-1.684.807 0 1.65.035 2.527.14 4.807.527 8.035 2.386 9.719 5.51.702 1.297 1.018 2.666 1.018 4.07 0 1.403-.316 2.841-.983 4.35-1.368 2.983-3.719 5.193-7.052 6.632-2.141.947-4.492 1.403-7.053 1.403-1.088 0-2.211-.07-3.333-.245-5.579-.807-9.439-3.474-11.614-7.965-.737 1.052-1.509 2.842-2.316 5.333-.807 2.491-1.263 4.421-1.369 5.755-.14 1.333-.175 2.456-.175 3.368 0 .912.07 1.824.175 2.807.211 1.72.877 3.263 1.965 4.667 1.088 1.403 2.562 2.35 4.386 2.912 1.825.561 3.404.807 4.737.807 4.351 0 8.035-.912 11.088-2.702 1.824-1.088 3.298-2.316 4.316-3.72 1.052-1.403 2.175-3.297 3.333-5.718.175-.422.386-.562.596-.422.211.14.211.422-.035.878-1.193 2.386-2.28 4.316-3.298 5.719-1.017 1.404-2.386 2.702-4.14 3.93-3.509 2.491-7.263 3.72-11.334 3.72zm-7.017-28.737c2.21 5.65 6.842 8.456 13.859 8.456 3.965 0 7.123-1.122 9.509-3.333 2.386-2.21 3.579-4.737 3.579-7.544 0-2.807-1.228-4.982-3.649-6.561-1.824-1.158-4.035-1.72-6.702-1.72-2.666 0-5.333.772-8 2.281-3.368 2-6.21 4.807-8.596 8.421z"/>
    <path fill="#D3B271" d="M314.737 44.35c-.246.736-.456 1.438-.632 2.105-.175.666-.245 1.333-.245 2 0 .666.14 1.298.456 1.86.316.56.807.876 1.509.876 1.123 0 2.21-.772 3.263-2.28 1.053-1.51 2.175-3.439 3.368-5.79.246-.42.492-.596.702-.526.14.14.176.28.105.491-.105.21-.28.632-.596 1.298-.281.667-.526 1.123-.667 1.404-.14.28-.386.737-.737 1.403-.351.667-.666 1.158-.947 1.51-.281.315-.632.736-1.088 1.262-.456.527-.877.913-1.298 1.158-1.088.702-2.105 1.018-3.088 1.018-.982 0-1.719-.21-2.245-.632-.527-.42-.842-.877-.948-1.368-.105-.491-.175-.913-.175-1.299 0-.385 0-.842.035-1.438.105-.983.281-1.965.596-2.912.281-.948.457-1.474.492-1.58.701-2.596 1.754-5.403 3.052-8.455 1.334-3.053 2.456-5.369 3.369-6.913.912-1.544 1.649-2.596 2.175-3.158 1.053-1.122 2.105-1.684 3.123-1.684.702 0 1.193.527 1.439 1.544.035.175.035.421.035.702 0 1.052-.386 2.386-1.123 4.035-2.667 5.965-5.895 10.631-9.579 14.035.035.175-.105.596-.351 1.333zm5.509-8.913c1.544-2.456 2.702-4.561 3.438-6.28.737-1.72 1.088-2.913 1.088-3.544 0-.632-.105-.948-.316-.948-.315 0-.912.632-1.789 1.86-.877 1.228-2.035 3.438-3.544 6.631-1.474 3.193-2.702 6-3.614 8.386 1.614-1.579 3.158-3.614 4.737-6.105z"/>
    <path fill="#D3B271" d="M320.842 49.401c0-1.333.561-2.947 1.719-4.877-.491 0-.631-.245-.421-.736l.842-1.65c1.053-2.035 1.93-3.754 2.632-5.157.316-.667.912-.983 1.825-.983h2.842c-1.123.807-2.246 2.386-3.404 4.702-1.123 2.316-2.035 4.14-2.631 5.473-.632 1.334-.948 2.316-.948 3.018s.105 1.158.351 1.439c.246.28.561.42.947.42.597 0 1.404-.63 2.492-1.859 1.649-1.93 3.965-6 6.982-12.21.351-.667.947-.983 1.825-.983h2.526c-.702.526-1.228 1.088-1.614 1.65-.386.56-.912 1.543-1.614 2.982-1.86 3.754-2.912 6.21-3.123 7.438-.105.421-.14.842-.14 1.228 0 .983.351 1.544 1.017 1.58 1.685 0 3.755-2.597 6.211-7.825.175-.421.386-.597.561-.527.176.106.281.21.281.386 0 .14-.14.527-.421 1.088-.281.561-.561 1.123-.807 1.65-.281.525-.667 1.262-1.228 2.175-.562.912-1.053 1.649-1.509 2.175-1.228 1.369-2.421 2.07-3.579 2.07-1.158 0-1.965-.526-2.421-1.544-.175-.456-.281-1.052-.281-1.79 0-.7.141-1.613.456-2.666-2.28 4-4.386 6-6.315 6-1.685 0-2.667-.702-2.948-2.105-.035-.175-.105-.35-.105-.562z"/>
    <path fill="#D3B271" d="M350.982 39.368c0-1.79-.737-2.667-2.21-2.667h-.386c-.562.07-.878-.035-.983-.316-.105-.28.035-.456.421-.561.386-.105.772-.105 1.228-.035 1.614.245 2.737 1.017 3.334 2.28.421.773.596 1.544.596 2.281 0 2.667-.982 5.334-2.947 7.895-1.965 2.632-4.491 3.93-7.614 3.93-1.158 0-2.105-.316-2.807-.983-.702-.666-1.088-1.544-1.088-2.631 0-1.298.737-3.509 2.246-6.632-2.562 4.842-4.211 7.614-4.948 8.316-.315.28-.456.175-.456-.28 0-.106.035-.211.105-.317 1.088-1.438 3.264-5.333 6.527-11.684 3.263-6.35 5.544-10.526 6.842-12.49 1.052-1.545 2.105-2.282 3.088-2.282h.28c.035 0 .316.035.807.14.527.106.913.106 1.158.036-1.017 1.088-2.667 3.263-4.877 6.561-5.474 8.14-8.246 14.21-8.246 18.246 0 1.649.527 2.596 1.579 2.807.106.035.211.035.316.035.983 0 2.176-.877 3.614-2.597 1.439-1.719 2.632-3.719 3.579-5.93.561-1.122.842-2.175.842-3.122zM225.824 60.245l-88.315-.491c-.211 0-.351-.176-.351-.351 0-.176.175-.351.351-.351l88.315.491c.211 0 .351.175.351.35 0 .211-.175.352-.351.352zM354.14 60.352l-102.421-.562c-.21 0-.421-.175-.421-.42 0-.211.176-.422.421-.422l102.421.562c.211 0 .422.175.422.42 0 .246-.176.422-.422.422z"/>
    <defs>
        <radialGradient id="paint0_radial" cx="0" cy="0" r="1" gradientTransform="matrix(97.2116 0 0 48.2364 31.816 5.582)" gradientUnits="userSpaceOnUse">
            <stop stop-color="#C01617"/>
            <stop offset=".505" stop-color="#BE181B"/>
            <stop offset="1" stop-color="#C7120C"/>
        </radialGradient>
    </defs>
</svg>
