<svg xmlns="http://www.w3.org/2000/svg" viewBox="0 0 40 40"><defs><style>.a{fill:#bf0003;}.b{fill:none;}</style></defs><title>M88_Maintenance</title><path class="a" d="M15.69,27.55c-.67-.68-1.28-1.31-1.91-1.93-.21-.2-.46-.35-.69-.53a10.27,10.27,0,0,1,14.49-.2L24.91,27.3C21.68,25,18.83,25,15.69,27.55Z"/><path class="a" d="M20.4,30.45a2,2,0,0,1,2.08,2,2,2,0,0,1-2.05,2.06,2,2,0,0,1-2.05-2A1.92,1.92,0,0,1,20.4,30.45Z"/><path class="a" d="M19.74,13.67A17.63,17.63,0,0,0,7.45,19l2.46,2.57a14.89,14.89,0,0,1,10.46-4.27h.12A9.82,9.82,0,0,1,19.74,13.67Z"/><path class="a" d="M20.59,9.43A10.08,10.08,0,0,1,23.17,6,26.11,26.11,0,0,0,1.73,13.59L4.3,16A22.69,22.69,0,0,1,20.59,9.43Z"/><path class="a" d="M29.74,5.22A8.27,8.27,0,1,0,38,13.49,8.28,8.28,0,0,0,29.74,5.22Zm4.78,10.92-2,2L29.8,15.49l-2.68,2.68-2-2,2.68-2.68-2.68-2.68,2-2,2.68,2.68,2.68-2.68,2,2-2.69,2.68Z"/><rect class="b" x="-0.04" y="0.01" width="40" height="40"/></svg>