<svg id="Layer_1" data-name="Layer 1" xmlns="http://www.w3.org/2000/svg" viewBox="0 0 23 12.73"><defs><style>.cls-1{fill:#b1b3b5;}</style></defs><title>icon-visibility</title><path class="cls-1" d="M12,6.64C5.61,6.64.46,13,.46,13S5.61,19.36,12,19.36,23.46,13,23.46,13,18.31,6.64,12,6.64M12,18.7a5.7,5.7,0,1,1,5.7-5.7A5.7,5.7,0,0,1,12,18.7" transform="translate(-0.46 -6.64)"/><path class="cls-1" d="M12,8.71a4.07,4.07,0,0,0-.5,0A2.27,2.27,0,1,1,7.94,11.5,4.38,4.38,0,0,0,7.67,13,4.29,4.29,0,1,0,12,8.71" transform="translate(-0.46 -6.64)"/></svg>