<svg id="Layer_1" data-name="Layer 1" xmlns="http://www.w3.org/2000/svg" viewBox="0 0 40 40"><defs><style>.cls-1{fill:#1a2332;}.cls-2{fill:none;}</style></defs><title>_</title><polygon class="cls-1" points="14.5 12.4 17.26 12.4 17.26 5.41 22.76 5.41 22.76 12.4 25.52 12.4 20.01 17.91 14.5 12.4"/><path class="cls-1" d="M34.51,13.55H27c-.05.06-.1.13-.16.19L24.52,16h7.92L20,25.27,7.58,16H15.5l-2.3-2.3s-.09-.1-.14-.15H5.51a1.79,1.79,0,0,0-1.79,1.78V32.81A1.79,1.79,0,0,0,5.51,34.6h29a1.79,1.79,0,0,0,1.79-1.79V15.33A1.79,1.79,0,0,0,34.51,13.55ZM6.18,18l8.11,6L6.18,30.12Zm1.4,14.11,8.76-6.53,2.4,1.78a1.79,1.79,0,0,0,2.53,0l2.4-1.79,8.77,6.53Zm26.26-2-8.11-6.05L33.84,18Z"/><rect class="cls-2" width="40" height="40"/><rect class="cls-2" width="40" height="40"/></svg>