<svg id="Layer_1" data-name="Layer 1" xmlns="http://www.w3.org/2000/svg" viewBox="0 0 23 21.47"><defs><style>.cls-1{fill:#fff;}</style></defs><title>icon-empty-wallet</title><path class="cls-1" d="M18.2,1.27H2.76A2.26,2.26,0,0,0,.5,3.52v17a2.26,2.26,0,0,0,2.26,2.25H20.15a2.26,2.26,0,0,0,2.26-2.25V17.3l-8.69.09a1.26,1.26,0,0,1-1.26-1.25V12.61a1.25,1.25,0,0,1,1.24-1.25l8.71,0V8.2a2,2,0,0,0-2-2L4.67,6.36S3.05,6.29,3.05,4.88,4.67,3.45,4.67,3.45l15.79.07A2.26,2.26,0,0,0,18.2,1.27" transform="translate(-0.5 -1.27)"/><path class="cls-1" d="M22.53,11.7H13.87a1,1,0,0,0-1,1V16a1,1,0,0,0,1,1h8.66a1,1,0,0,0,1-1V12.67a1,1,0,0,0-1-1m-7.14,3.93a1.29,1.29,0,1,1,1.29-1.29,1.28,1.28,0,0,1-1.29,1.29" transform="translate(-0.5 -1.27)"/></svg>