<svg xmlns="http://www.w3.org/2000/svg" viewBox="0 0 40 40"><defs><style>.a{fill:none;}.b{fill:#fff;}</style></defs><title>HelpCenter</title><rect class="a" y="-0.01" width="40" height="40"/><rect class="a" y="-0.01" width="40" height="40"/><path class="b" d="M18.4,29.91h3.28V26.63H18.4ZM20,3.65A16.42,16.42,0,1,0,36.46,20.06,16.41,16.41,0,0,0,20,3.65ZM20,33.2A13.14,13.14,0,1,1,33.18,20.06,13.14,13.14,0,0,1,20,33.2Zm0-23a6.54,6.54,0,0,0-6.57,6.57h3.29a3.29,3.29,0,0,1,6.57,0c0,3.28-4.93,2.87-4.93,8.21h3.28c0-3.7,4.93-4.11,4.93-8.21A6.54,6.54,0,0,0,20,10.21Z"/></svg>