<svg xmlns="http://www.w3.org/2000/svg" viewBox="0 0 40 40"><defs><style>.a{fill:none;}.b{fill:#fff;}</style></defs><title>Games</title><rect class="a" width="40" height="40"/><rect class="a" width="40" height="40"/><polygon class="b" points="5.28 20.93 7.55 19.74 9.82 20.93 9.39 18.4 11.22 16.61 8.69 16.25 7.55 13.94 6.42 16.25 3.88 16.61 5.71 18.4 5.28 20.93"/><polygon class="b" points="15.12 20.93 17.38 19.74 19.66 20.93 19.22 18.4 21.06 16.61 18.52 16.25 17.39 13.94 16.25 16.25 13.71 16.61 15.55 18.4 15.12 20.93"/><polygon class="b" points="24.95 20.93 27.22 19.74 29.49 20.93 29.06 18.4 30.89 16.61 28.36 16.25 27.23 13.94 26.09 16.25 23.55 16.61 25.39 18.4 24.95 20.93"/><path class="b" d="M31.79,30.45H3a4.2,4.2,0,0,0-2.12.35v2a4.58,4.58,0,0,0,2.07.25H31.51c1.12,0,1.79-.11,1.79-.25v-2C33.3,30.66,32.91,30.45,31.79,30.45Z"/><path class="b" d="M37,10.9a2.11,2.11,0,0,0-1.15,3.92V22.2H33.3V11.56c0-1.12-.39-1.88-1.51-1.88H28.18V7.35c0-.17-.5-.31-1.25-.31H7.48C6.73,7,6,7.18,6,7.35V9.71H3A2,2,0,0,0,.86,11.57V27.8A1.93,1.93,0,0,0,3,29.6H31.79c1.12,0,1.51-.68,1.51-1.8V25.33h4.55V14.83A2.34,2.34,0,0,0,39,13a2,2,0,0,0-2-2.07h0ZM11.39,24.76H3.14V12h8.25Zm10,0h-8.2V12h8.2Zm10,0H23.06V12h8.25Z"/></svg>