<?xml version="1.0" encoding="utf-8"?>
<!-- Generator: Adobe Illustrator 19.2.0, SVG Export Plug-In . SVG Version: 6.00 Build 0)  -->
<svg version="1.1" id="Layer_1" xmlns="http://www.w3.org/2000/svg" xmlns:xlink="http://www.w3.org/1999/xlink" x="0px" y="0px"
	 viewBox="0 0 104 104" style="enable-background:new 0 0 104 104;" xml:space="preserve">
<style type="text/css">
	.st0{fill:#80A7BD;}
	.st1{display:none;}
</style>
<g id="Layer_1_1_">
	<g>
		<g>
			<path id="XMLID_12_" class="st0" d="M82.2,63H68.1c-2.4,0-5.1,1.3-5.1,3.7V70c0,2.4,2.7,5,5.1,5h14.1c1.6,0,1.8-1.9,1.8-3.5V70
				v-3.3v-1.5C84,63.7,83.8,63,82.2,63z M69.6,70.6c-1.2,0-2.2-1-2.2-2.2s1-2.2,2.2-2.2s2.2,1,2.2,2.2
				C71.8,69.6,70.8,70.6,69.6,70.6z"/>
			<path id="XMLID_11_" class="st0" d="M32.5,15.5c0,0,12.1,8.3,12.1,20.3c0,0.2,0,1.1,0,1.1h-7.2c-0.8,0-1,0.2-0.4,0.7L47.5,47h7.3
				l10.3-9.3c0.6-0.5,0.4-0.7-0.4-0.7h-8.2c0,0,0-0.9,0-1.1c0-21.4-24-20.5-24-20.5C32.2,15.4,32.1,15.3,32.5,15.5z"/>
			<polygon class="st0" points="81,41 74.9,41 67.8,41 63.6,45 81,45 81,44.6 81,42 			"/>
			<path class="st0" d="M81,86.5L81,86.5v-3.7v-2.1V78H68.1c-4,0-8.1-4-8.1-8v-3.3c0-4,4.1-6.7,8.1-6.7H81V50H28.7l0,0h-2.2
				c-0.4,0-1-0.7-1-1.9V47c0-1.2,1.5-1.9,3.1-1.9h9.9l-4.3-4h-2.3h-4.8c-4,0-8.3,2.8-8.3,6.8v32.8c0,4,4.3,8.4,8.3,8.4h4.8h42.8H81
				V86.5z"/>
		</g>
	</g>
</g>
<g id="Layer_2" class="st1">
</g>
</svg>