<?xml version="1.0" encoding="utf-8"?>
<!-- Generator: Adobe Illustrator 23.0.3, SVG Export Plug-In . SVG Version: 6.00 Build 0)  -->
<svg version="1.1" id="Layer_1" xmlns="http://www.w3.org/2000/svg" xmlns:xlink="http://www.w3.org/1999/xlink" x="0px" y="0px"
	 viewBox="0 0 24 24" style="enable-background:new 0 0 24 24;" xml:space="preserve">
<path d="M16.77,3.66V3.35c0-1.85-1.5-3.35-3.35-3.35h-2.86C8.73,0,7.23,1.5,7.23,3.35v0.32H2.56v1.71h0.75v14.82
	c0,2.09,1.71,3.81,3.81,3.81h9.77c2.09,0,3.81-1.71,3.81-3.81V5.38h0.75V3.66H16.77z M8.16,21.14H6.51V6.58h1.65V21.14z
	 M12.82,21.14h-1.65V6.58h1.65V21.14z M15.25,3.66h-6.5V3.35c0-1.01,0.82-1.82,1.82-1.82h2.86c1.01,0,1.82,0.82,1.82,1.82V3.66z
	 M17.63,21.14h-1.65V6.58h1.65V21.14z"/>
</svg>
