<?xml version="1.0" encoding="utf-8"?>
<!-- Generator: Adobe Illustrator 23.0.3, SVG Export Plug-In . SVG Version: 6.00 Build 0)  -->
<svg version="1.1" id="Layer_2" xmlns="http://www.w3.org/2000/svg" xmlns:xlink="http://www.w3.org/1999/xlink" x="0px" y="0px"
	 viewBox="0 0 40 40" style="enable-background:new 0 0 40 40;" xml:space="preserve">
<style type="text/css">
	.st0{fill:#BF0003;}
</style>
<path class="st0" d="M20.2,3.1C10.8,3.1,3.2,10.6,3.2,20c0,9.4,7.6,16.9,16.9,16.9c9.4,0,16.9-7.6,16.9-16.9
	C37.1,10.6,29.5,3.1,20.2,3.1z M29.5,26.7c0.8,0.8,0.8,2,0,2.7c-0.4,0.4-0.9,0.6-1.4,0.6c-0.5,0-1-0.2-1.4-0.6l-6.6-6.6l-6.6,6.6
	c-0.4,0.4-0.9,0.6-1.4,0.6c-0.5,0-1-0.2-1.4-0.6c-0.8-0.8-0.8-2,0-2.7l6.6-6.6l-6.6-6.6c-0.8-0.8-0.8-2,0-2.7c0.8-0.8,2-0.8,2.7,0
	l6.6,6.6l6.6-6.6c0.8-0.8,2-0.8,2.7,0c0.8,0.8,0.8,2,0,2.7l-6.6,6.6L29.5,26.7z"/>
</svg>
