<svg xmlns="http://www.w3.org/2000/svg" viewBox="0 0 40 40"><defs><style>.a{fill:#bf0003;}.b{fill:none;}</style></defs><title>M88_NotVerified</title><path class="a" d="M8.05,6.37V20.6c0,1.82,0,3.7,3,6.69l9,7.31,9-7.35c2.92-2.95,2.92-4.83,2.92-6.65V6.37A53.37,53.37,0,0,0,20,4.63,53.53,53.53,0,0,0,8.05,6.37ZM26.43,9.42a1.39,1.39,0,0,1,2,2L22.17,17.6l6.22,6.22a1.39,1.39,0,1,1-2,2l-6.22-6.22L14,25.78a1.38,1.38,0,0,1-1,.41,1.39,1.39,0,0,1-1-2.37l6.22-6.22L12,11.38a1.39,1.39,0,0,1,2-2l6.22,6.22Z"/><path class="a" d="M20.09,2H20A60.79,60.79,0,0,0,5.57,4.37V20.58c0,2.13.08,4.86,3.77,8.56L20,37.83v.08l0,0,0,0v-.08l10.64-8.69c3.7-3.7,3.78-6.43,3.78-8.56V4.37A60.9,60.9,0,0,0,20.09,2ZM32.88,20.6c0,1.83,0,4.11-3.25,7.39l-9.48,7.75h-.36l-.14-.11L10.34,28c-3.29-3.32-3.29-5.6-3.29-7.43V5.6l.38-.1A55.48,55.48,0,0,1,19.92,3.63,55.37,55.37,0,0,1,32.5,5.5l.38.1Z"/><rect class="b" x="0.06" width="39.92" height="40"/></svg>