<svg xmlns="http://www.w3.org/2000/svg" viewBox="0 0 40 40"><defs><style>.a{fill:none;}.b{fill:#2d8c44;}</style></defs><title>M88_Verified</title><rect class="a" x="0.02" width="39.99" height="40"/><path class="b" d="M8.05,6.37V20.6c0,1.82,0,3.7,3,6.69l9,7.31,9-7.35c2.92-2.95,2.92-4.83,2.92-6.65V6.37A53.37,53.37,0,0,0,20,4.63,53.53,53.53,0,0,0,8.05,6.37ZM30.46,9a1.36,1.36,0,0,1,0,1.94L16,25.39l-5.43-5.95a1.38,1.38,0,0,1,2-1.85l3.48,3.82L28.51,9A1.38,1.38,0,0,1,30.46,9Z"/><path class="b" d="M20,2.13h-.09A61,61,0,0,0,5.55,4.45V20.6c0,2.12.08,4.84,3.76,8.52l10.6,8.67,0,.07,0,0,0,0,0-.07,10.6-8.67c3.68-3.68,3.76-6.4,3.76-8.52V4.45A61,61,0,0,0,20,2.13ZM32.88,20.6c0,1.83,0,4.11-3.25,7.39l-9.48,7.75h-.36l-.14-.11L10.34,28c-3.29-3.32-3.29-5.6-3.29-7.43V5.6l.38-.1A55.48,55.48,0,0,1,19.92,3.63,55.37,55.37,0,0,1,32.5,5.5l.38.1Z"/></svg>