<?xml version="1.0" encoding="utf-8"?>
<!-- Generator: Adobe Illustrator 22.1.0, SVG Export Plug-In . SVG Version: 6.00 Build 0)  -->
<svg version="1.1" id="Layer_1" xmlns="http://www.w3.org/2000/svg" xmlns:xlink="http://www.w3.org/1999/xlink" x="0px" y="0px"
	 viewBox="0 0 40 40" style="enable-background:new 0 0 40 40;" xml:space="preserve">
<style type="text/css">
	.st0{fill:#FFFFFF;}
	.st1{fill:none;}
</style>
<title>ReminderIcon</title>
<path class="st0" d="M17.2,26.2c0,0.1,0,0.1,0,0.2v0.1l5.6-0.5c0-0.1,0-0.1,0-0.2v-0.1L17.2,26.2z"/>
<path class="st0" d="M17.2,28.4c0,0.1,0,0.1,0,0.2v0.1l5.6-0.5c0,0,0-0.1,0-0.1v-0.1L17.2,28.4z"/>
<path d="M19.8,2.8C10.4,2.9,2.9,10.6,3,20c-0.1,9.4,7.4,17.1,16.8,17.3c9.4-0.1,17-7.9,16.9-17.3C36.8,10.6,29.2,2.9,19.8,2.8z
	 M24.6,9l1.1,0.7L24,12.8l-1.1-0.7L24.6,9z M19.2,7.8h1.3v3.6h-1.3V7.8z M15.1,9l1.8,3.1l-1.1,0.7L14,9.6L15.1,9z M12.7,19.4H9.2
	v-1.4h3.5L12.7,19.4z M13.3,15.7l-3-1.8l0.6-1.2l3,1.8L13.3,15.7z M19.9,32.1c-0.8,0-1.5-0.6-1.6-1.5l3.2-0.3v0.1
	C21.6,31.3,20.8,32.1,19.9,32.1C19.9,32.1,19.9,32.1,19.9,32.1z M24.8,21.9c-0.5,0.8-1.1,1.5-1.9,2v0.6h0.2h0.4l0.2,0.4
	c0.1,0.3,0.2,0.7,0.2,1c0,0.3-0.1,0.7-0.2,1V27v0.1c0.1,0.3,0.2,0.7,0.2,1c0,0.3-0.1,0.7-0.2,1l-0.1,0.3h-0.4l-6.4,0.6h-0.5
	l-0.1-0.4c-0.1-0.3-0.2-0.6-0.2-0.9c0-0.4,0.1-0.7,0.2-1v-0.1l0-0.1c-0.1-0.3-0.2-0.6-0.2-0.9c0-0.4,0.1-0.7,0.2-1l0.1-0.3h0.3h0.2
	V24c-0.8-0.5-1.4-1.2-1.9-2c-0.5-0.9-0.8-1.9-0.8-3c0-1.5,0.6-3,1.7-4.1c1-1.1,2.5-1.7,4-1.7c1.5,0.1,2.9,0.7,4,1.7
	C25.7,16.8,26,19.7,24.8,21.9L24.8,21.9z M25.7,14.5l3-1.8l0.7,1.2l-3,1.8L25.7,14.5z M30.5,19.5H27v-1.4h3.5L30.5,19.5z"/>
<rect class="st1" width="40" height="40"/>
<rect class="st1" width="40" height="40"/>
</svg>
