<svg id="Layer_1" data-name="Layer 1" xmlns="http://www.w3.org/2000/svg" xmlns:xlink="http://www.w3.org/1999/xlink" viewBox="0 0 24 21.36"><defs><style>.cls-1{fill:none;}.cls-2{clip-path:url(#clip-path);}.cls-3{fill:url(#linear-gradient);}.cls-4{clip-path:url(#clip-path-2);}.cls-5{fill:url(#linear-gradient-2);}.cls-6{clip-path:url(#clip-path-3);}.cls-7{fill:url(#radial-gradient);}.cls-8{opacity:0.65;}.cls-9{clip-path:url(#clip-path-4);}.cls-10{fill:#620e0f;}.cls-11{opacity:0.81;}.cls-12{clip-path:url(#clip-path-5);}.cls-13{clip-path:url(#clip-path-6);}.cls-14{fill:url(#radial-gradient-2);}</style><clipPath id="clip-path" transform="translate(0 -1.32)"><rect class="cls-1" y="1.32" width="24" height="21.36"/></clipPath><linearGradient id="linear-gradient" x1="5165.04" y1="-110.18" x2="5165.64" y2="-110.18" gradientTransform="matrix(0, 39.49, 39.49, 0, 4363.47, -203986.65)" gradientUnits="userSpaceOnUse"><stop offset="0" stop-color="#ffce82"/><stop offset="0.22" stop-color="#ffce82"/><stop offset="0.26" stop-color="#ffce82"/><stop offset="0.36" stop-color="#fdcc81"/><stop offset="0.39" stop-color="#f7c57c"/><stop offset="0.42" stop-color="#edba73"/><stop offset="0.44" stop-color="#dea966"/><stop offset="0.46" stop-color="#cb9356"/><stop offset="0.48" stop-color="#b37842"/><stop offset="0.48" stop-color="#ae723e"/><stop offset="1" stop-color="#ffce82"/></linearGradient><clipPath id="clip-path-2" transform="translate(0 -1.32)"><rect class="cls-1" x="1.01" y="2.3" width="21.98" height="19.4"/></clipPath><linearGradient id="linear-gradient-2" x1="5167.25" y1="-123.86" x2="5167.85" y2="-123.86" gradientTransform="matrix(0, 35.87, 35.87, 0, 4454.17, -185326.45)" gradientUnits="userSpaceOnUse"><stop offset="0" stop-color="#d5b16d"/><stop offset="0.17" stop-color="#e0c08a"/><stop offset="0.4" stop-color="#edd1ac"/><stop offset="0.62" stop-color="#f6dec4"/><stop offset="0.83" stop-color="#fbe5d3"/><stop offset="0.99" stop-color="#fde8d8"/><stop offset="1" stop-color="#fde8d8"/></linearGradient><clipPath id="clip-path-3" transform="translate(0 -1.32)"><rect class="cls-1" x="1.24" y="2.51" width="21.52" height="18.98"/></clipPath><radialGradient id="radial-gradient" cx="5059.08" cy="-2.47" r="0.73" gradientTransform="matrix(52.64, 0, 0, -26.12, -266313.01, -62.3)" gradientUnits="userSpaceOnUse"><stop offset="0" stop-color="#ef5549"/><stop offset="0.17" stop-color="#d93f3a"/><stop offset="0.37" stop-color="#c4292b"/><stop offset="0.51" stop-color="#bc2126"/><stop offset="1" stop-color="#c52127"/></radialGradient><clipPath id="clip-path-4" transform="translate(0 -1.32)"><rect class="cls-1" x="1.24" y="2.51" width="21.53" height="18.98"/></clipPath><clipPath id="clip-path-5" transform="translate(0 -1.32)"><rect class="cls-1" x="1.97" y="4.42" width="20.06" height="16.07"/></clipPath><clipPath id="clip-path-6" transform="translate(0 -1.32)"><path class="cls-1" d="M13.71,16.72V12.36c0-.32.1-.49.33-.49h.81V18c-.79-.07-1.14-.47-1.14-1.32m0-7V7.58c0-.13.09-.22.36-.39l.49-.29a.59.59,0,0,1,.24-.09c.06,0,.08,0,.08.07V10H14c-.14,0-.34-.11-.34-.26M5.74,17.14c.25-.29.34-.38.68-.74.76-.81,1.1-1.1,1.1-4V6.49c0-.14.68-.57.87-.57s.12.15.12.57V18H8.34a3.74,3.74,0,0,1-2.6-.86M8.9,6.33c0-.28.12-.43.36-.43.53,0,2.11,1.21,2.11,1.66V9.9H8.9ZM4.09,4.07,2.41,5.73c-.12.15-.17.19-.17.25s0,.07.09.07A3.29,3.29,0,0,1,2.69,6,6.11,6.11,0,0,1,4.74,7.09a1.24,1.24,0,0,1,.45,1V9.64c-.47.06-.78-.57-1.57-.57A1.79,1.79,0,0,0,2,11c0,.47.08.74.25.74s.17-.06.19-.25a.56.56,0,0,1,.64-.53c1.14,0,2.14,2,2.14,4.29a4,4,0,0,1-1,3.08c-1.08,1.11-1.31,1.36-1.31,1.47a.26.26,0,0,0,.23.23c.06,0,.13-.08.28-.23s.38-.36.69-.66A10.35,10.35,0,0,1,6,20a10.4,10.4,0,0,1,2.12-1.43h.38v1c0,.17.07.28.22.28s.19-.11.19-.28V11.91h2.47v6.25A7.54,7.54,0,0,0,13,20c.22,0,1-1.06,1.87-1.21v1c0,.17.06.27.17.27s.21-.13.21-.3V6.62c0-.21.24-.38.57-.38.62,0,1,.21,2.1.87C18.15,7,19.45,6,19.53,6s.07.21-.49.93c-1.06,1.43-1.35,2-1.35,3v7.86a.68.68,0,0,0,.23.62,7.47,7.47,0,0,0,2.18,1.51A8.66,8.66,0,0,0,22,17.82c0-.08-.06-.17-.13-.17s-.08,0-.19.17a.27.27,0,0,1-.21.09c-.21,0-.59-.21-1.23-.77-.14-.12-.19-.25-.19-.61v-11c0-.26-.06-.3-.46-.47-1.38-.57-2.31-1-2.42-1a19.47,19.47,0,0,0-1.59,1.24C14.28,6.43,14,6.6,13.83,6.64c0-.4,0-.44-.36-.66a9.53,9.53,0,0,1-1-.78C11.16,4.16,11,4,10.82,4c-.61,0-2.94,1.78-3.39,1.78C7.16,5.79,4.87,4,4.3,4c-.09,0-.13,0-.21.11"/></clipPath><radialGradient id="radial-gradient-2" cx="5168.79" cy="-134.02" r="0.73" gradientTransform="matrix(0, 27.78, 27.78, 0, 3734.66, -143578.69)" gradientUnits="userSpaceOnUse"><stop offset="0" stop-color="#fff"/><stop offset="0.18" stop-color="#fafafb"/><stop offset="0.37" stop-color="#ededee"/><stop offset="0.58" stop-color="#d6d7d8"/><stop offset="0.8" stop-color="#b7b8ba"/><stop offset="1" stop-color="#929497"/></radialGradient></defs><title>man-logo</title><g class="cls-2"><rect class="cls-3" width="24" height="21.36"/></g><g class="cls-4"><rect class="cls-5" x="1.01" y="0.98" width="21.98" height="19.4"/></g><g class="cls-6"><rect class="cls-7" x="1.24" y="1.19" width="21.52" height="18.98"/></g><g class="cls-8"><g class="cls-9"><path class="cls-10" d="M1.24,21.49H22.76v-19H1.24Zm21.34-.11H1.42V2.74H22.58Z" transform="translate(0 -1.32)"/></g></g><g class="cls-11"><g class="cls-12"><path class="cls-10" d="M8.9,12.37v7.71c0,.17-.05.28-.19.28s-.22-.11-.22-.28v-1H8.11A10.08,10.08,0,0,0,6,20.49a12.56,12.56,0,0,0-1.95-.92c-.32.3-.56.51-.7.66s-.22.24-.28.24a.27.27,0,0,1-.23-.24c0-.1.23-.36,1.31-1.47a4,4,0,0,0,1-3.08c0-2.31-1-4.29-2.14-4.29a.56.56,0,0,0-.64.53c0,.19-.1.26-.19.26S2,11.9,2,11.43A1.79,1.79,0,0,1,3.62,9.52c.79,0,1.1.64,1.57.57V8.54a1.27,1.27,0,0,0-.45-1,6.09,6.09,0,0,0-2.05-1.1c-.17,0-.26.06-.36.06s-.09,0-.09-.06,0-.11.17-.26L4.09,4.52c.08-.06.12-.1.21-.1.57,0,2.86,1.83,3.13,1.83.45,0,2.78-1.79,3.39-1.79.17,0,.34.15,1.64,1.19a10.94,10.94,0,0,0,1,.79c.34.21.36.25.36.66.21,0,.45-.22,1.78-1.3A18.88,18.88,0,0,1,17.2,4.57c.11,0,1,.38,2.42.95.4.17.46.21.46.47V17c0,.36.05.49.19.62.64.55,1,.76,1.23.76a.29.29,0,0,0,.21-.08c.11-.15.13-.17.19-.17s.13.08.13.17a8.89,8.89,0,0,1-1.93,2.08,7.1,7.1,0,0,1-2.18-1.51.66.66,0,0,1-.23-.62V10.37c0-.92.3-1.53,1.35-3,.56-.72.6-.93.49-.93s-1.38.93-1.63,1.08c-1.14-.65-1.48-.87-2.1-.87-.34,0-.57.17-.57.38V20.15c0,.17-.08.29-.21.29s-.17-.1-.17-.27v-1c-.91.15-1.65,1.21-1.87,1.21a7.64,7.64,0,0,1-1.6-1.78V12.37ZM8.51,7c0-.43,0-.58-.12-.58s-.87.43-.87.58v5.88c0,2.92-.34,3.21-1.1,4-.34.36-.42.45-.68.75a3.93,3.93,0,0,0,2.77.85Zm.39,3.4h2.48V8c0-.45-1.59-1.66-2.12-1.66-.24,0-.36.15-.36.43Zm5.95-3s0-.07-.08-.07a.59.59,0,0,0-.24.09l-.49.3c-.27.17-.35.25-.35.38v2.13c0,.14.19.25.33.25h.83Zm0,5H14c-.23,0-.33.17-.33.49v4.36c0,.85.35,1.26,1.14,1.32Z" transform="translate(0 -1.32)"/></g></g><g class="cls-13"><rect class="cls-14" x="1.97" y="2.64" width="20.06" height="16.07"/></g></svg>