<svg xmlns="http://www.w3.org/2000/svg" width="109" height="25" fill="none" viewBox="0 0 109 25">
    <path fill="#fff" d="M4.117 5.168h10.08v3.24h-5.52v2.28h4.68v3h-4.68v2.4h5.76v3H4.117V5.168zM28.477 14.648h-8.28c.12.72.24 1.2.48 1.44.36.48.96.72 1.56.72.36 0 .84-.12 1.2-.36.24-.12.48-.36.72-.72l4.08.36c-.6 1.08-1.32 1.92-2.28 2.4-.96.48-2.16.72-3.84.72-1.44 0-2.52-.24-3.36-.6-.84-.36-1.44-1.08-2.04-1.92-.48-.84-.84-1.92-.84-3.12 0-1.68.48-3.12 1.56-4.08 1.32-1.08 2.76-1.56 4.68-1.56 1.56 0 2.76.24 3.6.72.84.48 1.56 1.2 2.04 2.04.48.84.72 2.04.72 3.48v.48zm-4.2-2.04c-.12-.84-.24-1.32-.6-1.68-.36-.36-.84-.48-1.32-.48-.6 0-1.2.24-1.56.84-.36.24-.48.72-.6 1.32h4.08zM61.957 14.648h-8.28c.12.72.24 1.2.48 1.44.36.48.96.72 1.56.72.36 0 .84-.12 1.2-.36.24-.12.48-.36.72-.72l4.08.36c-.6 1.08-1.32 1.92-2.28 2.4-.96.48-2.16.72-3.84.72-1.44 0-2.52-.24-3.36-.6-.84-.36-1.44-1.08-2.04-1.92-.48-.84-.84-1.92-.84-3.12 0-1.68.48-3.12 1.56-4.08 1.32-1.08 2.76-1.56 4.68-1.56 1.56 0 2.76.24 3.6.72.84.48 1.56 1.2 2.04 2.04.48.84.72 2.04.72 3.48v.48zm-4.2-2.04c-.12-.84-.24-1.32-.6-1.68-.36-.36-.84-.48-1.32-.48-.6 0-1.2.24-1.56.84-.36.24-.48.72-.6 1.32h4.08zM30.397 8.289h9.96v2.4l-5.4 5.52h5.64v2.76h-10.68v-2.64l5.16-5.28h-4.68v-2.76zM42.157 5.168h4.68v2.4h-3.48c-.96 0-1.2-2.4-1.2-2.4zm1.44 3h3.24v10.92h-3.12s-1.32-.12-1.32-1.32v-8.04c0-1.08 1.2-1.56 1.2-1.56z"/>
    <path fill="#E90B29" d="M64.477 5.168h7.56c1.68 0 2.88.36 3.72 1.08.84.72 1.2 1.8 1.2 3.12 0 1.44-.48 2.52-1.32 3.24-.84.72-2.28 1.2-4.08 1.2h-2.52v5.16h-4.56v-13.8zm4.68 5.88h1.08c.84 0 1.56-.12 1.92-.48.36-.24.48-.6.48-1.08 0-.48-.12-.84-.48-1.08-.36-.24-.84-.48-1.68-.48h-1.32v3.12zM82.597 11.529l-4.2-.36c.12-.72.36-1.2.72-1.56.24-.36.72-.72 1.32-1.08.36-.24.96-.48 1.68-.6s1.44-.12 2.28-.12c1.32 0 2.4.12 3.12.24.84.12 1.44.48 1.92.84.36.24.6.72.84 1.2.24.6.36 1.08.36 1.56v4.68c0 .48 0 .84.12 1.2.12.24.24.6.48 1.08h-4.08c-.12-.24-.24-.48-.36-.6s-.12-.36-.12-.72c-.6.48-1.08.84-1.68 1.08-.72.24-1.68.48-2.64.48-1.32 0-2.4-.24-3.12-.84-.72-.6-1.08-1.32-1.08-2.16 0-.84.24-1.44.72-2.04.48-.48 1.44-.96 2.76-1.2 1.68-.36 2.64-.48 3.12-.6s.96-.24 1.56-.48c0-.48-.12-.84-.36-1.08-.24-.24-.6-.36-1.2-.36-.72 0-1.2.12-1.56.36-.24.24-.36.6-.6 1.08zm3.72 2.16c-.6.24-1.2.36-1.92.48-.84.24-1.44.48-1.68.6-.24.24-.36.48-.36.72 0 .36.12.6.36.84s.6.36 1.08.36c.48 0 .96-.12 1.32-.36.36-.24.72-.48.84-.84s.24-.72.24-1.2v-.6h.12zM92.197 8.048h4.56l2.28 7.32 2.16-7.32h4.32l-4.44 11.88c-.48 1.32-1.08 2.28-1.56 2.76-.72.72-1.92.96-3.48.96-.6 0-1.56-.12-2.88-.24l-.36-3c.6.24 1.32.24 2.04.24.48 0 .96-.12 1.2-.36s.6-.6.84-1.2l-4.68-11.04z"/>
</svg>
