<svg xmlns="http://www.w3.org/2000/svg" width="109" height="25" fill="none" viewBox="0 0 109 25">
    <path fill="#B5B5B5" d="M20.677 20.889h-3.12l.96-5.16h-1.8l-.96 5.16h-3.12l2.04-10.92c.24-.84.84-1.56 1.8-2.04.84-.36 1.68-.48 2.76-.48.96 0 1.8.24 2.52.48.84.48 1.2 1.08 1.08 2.04l-2.16 10.92zm-1.8-6.84l.84-4.08c0-.6-.24-.84-.84-.84s-.96.24-1.08.84l-.84 4.08h1.92zM31.357 10.569l-.36 1.56h-3l.24-1.44c.24-1.2 0-1.8-.72-1.8-.6 0-.96.36-1.08.96l-.12.72c-.12.96.12 1.68.84 2.4l2.04 1.8c.72.72.96 1.44.84 2.16l-.24 1.8c-.36 1.68-1.8 2.52-4.56 2.52s-3.84-1.08-3.48-3.24l.36-1.8h3.24l-.48 2.52c-.12.48.12.84.72.84.72 0 1.08-.36 1.2-1.08l.24-1.08c.12-.48-.24-1.08-.96-1.8l-2.04-1.8c-.72-.72-.96-1.56-.84-2.28l.36-1.56c.36-1.68 1.8-2.52 4.44-2.52 1.32 0 2.28.24 2.88.6.48.48.72 1.32.48 2.52zM40.357 9.489h-2.64l-2.16 11.4h-3.12l2.16-11.4h-2.76l.36-1.68h8.52l-.36 1.68zM48.277 12.008c0 .24-.24.6-.48.96-.72.96-1.92 1.44-3.36 1.44h-.48l-.72 3.6h-2.52l2.04-10.56s4.8-.12 5.4.12c.72.36.96.96.84 1.68l-.72 2.76zm-1.92-2.16c.12-1.08-1.44-.72-1.44-.72l-.72 4.08c.96 0 1.56-.36 1.68-.96 0 0 .36-2.04.48-2.4zM53.917 18.008h-2.52l.84-4.2h-1.44l-.84 4.2h-2.52l1.68-8.76c.12-.72.6-1.2 1.44-1.68.72-.24 1.44-.48 2.16-.48.84 0 1.44.12 2.04.48.72.36.96.96.84 1.68l-1.68 8.76zm-1.44-5.52l.6-3.36c.12-.48-.12-.72-.6-.72s-.72.24-.84.72l-.6 3.36h1.44zM63.517 7.448l-3.84 6.6-.72 3.96h-2.64l.72-3.96-1.2-6.6h2.52l.48 4.68 2.28-4.68h2.4z"/>
    <path fill="#B5B5B5" d="M20.557 6.129h-9.96l-.84 4.2h3.72l-.6 2.88h-3.6l-1.68 7.68h-3.12l3.6-17.64h13.08l-.6 2.88z"/>
    <path fill="#B5B5B5" fill-rule="evenodd" d="M26.197 21.849h-2.52l.48-2.04h2.52l-.48 2.04zM29.077 9.248h-2.64l.84-3.6h2.64l-.84 3.6z" clip-rule="evenodd"/>
    <path fill="#B5B5B5" d="M102.157 19.209h-62.76l-.36 1.92h62.76l.36-1.92zM102.997 16.449h-40.44l-.36 1.92h40.44l.36-1.92zM103.837 13.568h-40.44l-.36 1.92h40.56l.24-1.92zM104.677 10.688h-40.44l-.24 1.8h40.44l.24-1.8zM105.757 7.568h-40.44l-.36 1.92h40.44l.36-1.92z"/>
</svg>
