<svg xmlns="http://www.w3.org/2000/svg" width="109" height="25" fill="none" viewBox="0 0 109 25">
    <path fill="#B5B5B5" d="M4.705 5.653H7.71l7.429 10.13h.046V5.654h2.711v13.751h-3.005L7.487 9.293h-.069v10.111H4.706V5.653zM20.747 5.653h2.599v2.08h-2.6v-2.08zm0 3.793h2.599v9.958h-2.6V9.446zM25.941 9.446h2.463v1.464l.045.039c.4-.556.932-1.003 1.55-1.3.66-.32 1.385-.482 2.119-.472 1.082-.062 2.155.234 3.053.841.378.302.676.691.871 1.134.194.443.28.926.246 1.409v6.837H33.69V13.14c.029-.623-.184-1.233-.593-1.704-.479-.393-1.092-.583-1.709-.53-.404-.007-.806.062-1.185.203-.49.184-.914.514-1.211.946-.298.432-.456.945-.453 1.47v5.874h-2.598V9.446zM40.822 14.994c0 .38.064.758.193 1.116.125.353.324.675.582.945.277.282.611.502.98.645.451.17.93.252 1.413.24.637.03 1.27-.114 1.833-.414.474-.287.84-.724 1.038-1.242h2.46c-.13.525-.371 1.016-.705 1.442-.335.425-.742.786-1.202 1.069-.492.297-1.026.518-1.584.653-.6.15-1.216.225-1.834.223-.837.015-1.67-.116-2.462-.386-.671-.233-1.288-.601-1.811-1.082-.493-.46-.875-1.027-1.117-1.656-.257-.677-.384-1.396-.376-2.12-.003-.69.133-1.374.399-2.012.262-.63.65-1.2 1.14-1.675.515-.496 1.123-.885 1.788-1.146.755-.293 1.56-.438 2.37-.424.857-.014 1.707.153 2.495.49.697.3 1.322.743 1.834 1.302.485.534.847 1.168 1.06 1.857.22.7.279 1.439.171 2.164l-8.665.01zm6.062-1.443c-.03-.346-.12-.685-.263-1.002-.14-.317-.341-.603-.592-.842-.265-.247-.575-.443-.912-.578-.382-.152-.79-.227-1.201-.221-.423-.006-.843.063-1.242.203-.354.122-.68.311-.962.558-.265.237-.48.522-.637.841-.16.325-.25.68-.263 1.041h6.072zM51.305 5.653h6.927c.508.004 1.015.05 1.516.134.546.087 1.07.272 1.55.549.49.287.903.69 1.201 1.174.345.607.511 1.298.481 1.995.027.539-.08 1.075-.31 1.562-.231.487-.578.91-1.012 1.23-1.123.723-2.448 1.067-3.781.983h-5.561v6.13h-1.003l-.008-13.757zm1.002 6.895h5.72c.63.015 1.259-.08 1.857-.28.452-.152.867-.398 1.22-.72.289-.275.514-.61.66-.982.134-.345.204-.712.205-1.082-.007-.31-.053-.617-.136-.915-.104-.377-.29-.726-.547-1.02-.317-.36-.71-.643-1.15-.829-.627-.249-1.299-.363-1.972-.336h-5.857v6.164zM71.47 17.44h-.045c-.147.313-.348.597-.593.841-.279.28-.597.517-.945.704-.398.215-.823.377-1.264.48-.508.12-1.028.18-1.55.175-1.01.059-2.017-.179-2.894-.684-.34-.232-.614-.548-.794-.918-.18-.37-.26-.781-.232-1.192-.022-.504.123-1.002.41-1.416.274-.366.63-.662 1.038-.865.438-.22.907-.372 1.39-.454.508-.088.998-.155 1.47-.192l1.344-.096c.493-.022.985-.083 1.47-.183.292-.055.568-.173.808-.347.179-.142.3-.343.342-.567.05-.287.073-.578.068-.868.002-.262-.06-.52-.181-.752-.138-.248-.334-.46-.57-.616-.307-.2-.647-.343-1.004-.423-.493-.113-.998-.165-1.504-.155-.893-.042-1.778.187-2.54.656-.322.222-.587.517-.77.863-.185.345-.285.729-.29 1.12h-.865c-.001-.478.11-.95.327-1.377.215-.427.529-.797.914-1.08.98-.602 2.122-.887 3.27-.817 1.077-.084 2.154.161 3.088.703.303.201.55.475.72.796.168.322.254.68.25 1.043v5.76c0 .141-.001.283.01.422.005.132.032.263.08.386.044.115.124.213.228.28.138.079.297.115.455.105.214-.005.427-.024.638-.057v.616c-.232.052-.469.078-.706.077-.282.008-.564-.032-.832-.12-.18-.06-.34-.167-.467-.308-.108-.131-.182-.287-.216-.453-.04-.187-.06-.377-.058-.568v-.52zm0-3.66c-.269.246-.607.4-.968.443-.478.083-.96.14-1.443.173l-1.459.12c-.425.038-.851.093-1.275.163-.4.063-.787.185-1.15.36-.33.156-.616.391-.832.684-.227.331-.34.726-.32 1.127-.02.32.045.64.189.925.144.287.362.53.63.704.687.387 1.47.57 2.257.528.807.037 1.612-.118 2.348-.453.51-.248.96-.602 1.321-1.04.274-.332.472-.72.581-1.136.063-.243.102-.49.12-.741l.001-1.856zM73.454 9.505h1.026l4.352 9.033 4.01-9.033h.98l-5.013 10.96c-.24.487-.465.907-.673 1.26-.167.311-.404.578-.694.78-.324.213-.695.342-1.081.377-.55.05-1.1.072-1.652.067v-.636c.489.014.978-.026 1.458-.12.362-.09.698-.266.98-.511.224-.223.402-.488.524-.78.182-.38.41-.896.683-1.55l-4.9-9.847zM104.818 5.172H87.659c-.725 0-1.329.635-1.329 1.397v7.114c0 .762.604 1.398 1.33 1.398h17.038c.725 0 1.329-.636 1.329-1.398V6.57c.121-.762-.484-1.397-1.209-1.397zm-9.304 7.622c-.121.508-.483.762-1.088.762h-.483c-.604 0-.967-.38-.846-1.016V8.475h-1.692c0 1.143-.12 1.905-.241 2.414-.363 1.143-1.088 2.16-2.175 2.794-.121-.127-.242-.254-.363-.508.967-.635 1.692-1.524 1.933-2.54.121-.382.242-1.144.242-2.16h-2.054V7.84H90.8V6.315h.604V7.84h2.175v4.573c0 .381.121.508.363.508h.362c.242 0 .484-.127.484-.508s.12-.762.12-1.27c.242.254.484.254.726.38 0 .382-.121.89-.121 1.271zm3.02 1.016h-.603V9.364c-.242.508-.484.89-.846 1.27 0-.38-.121-.635-.121-.762.604-.889 1.088-2.16 1.57-3.557l.605.254c-.242.508-.362 1.144-.604 1.525v5.716zm.847-4.065l.483-.38c.242.507.604 1.015.967 1.778l-.484.38c-.241-.634-.604-1.27-.966-1.778zm4.471-1.143h-.967v3.81c0 .763-.363 1.144-.967 1.144h-1.087c0-.254-.121-.38-.121-.635h1.087c.242 0 .363 0 .484-.127s.121-.254.121-.635V8.602h-3.263v-.635h3.263V6.315h.604v1.652h.967v.635h-.121z"/>
</svg>
