<svg xmlns="http://www.w3.org/2000/svg" width="121" height="25" fill="none" viewBox="0 0 121 25">
    <g clip-path="url(#prefix__clip0)">
        <path fill="url(#prefix__paint0_linear)" d="M120.637 1.294H1.237v23.4h119.4v-23.4z"/>
        <path fill="#D3D3D3" d="M120.397 1.535v22.8H1.597v-22.8h118.8zm.6-.6h-120v24h120v-24z"/>
        <path fill="#fff" d="M30.997 13.535h3.6l-1.08 4.92c-.6.24-1.08.36-1.56.36-.48.12-.96.12-1.56.12-1.08 0-2.04-.36-2.64-.96-.6-.6-.96-1.56-.96-2.76 0-1.2.24-2.16.72-3.12s1.08-1.68 1.92-2.16c.84-.48 1.8-.72 2.88-.72.96 0 1.8.24 2.64.6l-.72 1.68c-.36-.12-.6-.36-.96-.36-.36-.12-.72-.12-1.08-.12-.72 0-1.2.12-1.8.48-.48.36-.96.84-1.2 1.56-.24.72-.48 1.44-.48 2.16 0 .72.12 1.32.48 1.68.36.36.84.48 1.44.48.36 0 .72 0 1.08-.12l.48-1.92h-1.68l.48-1.8zM43.597 9.335l-.24 1.2c.36-.12.6-.24.72-.6.24-.24.36-.72.36-1.2h1.92l.24.12c-.24.84-.72 1.56-1.32 2.04-.6.48-1.32.72-2.16.84l-.84 3.72c-.24 1.2-.72 2.04-1.44 2.64-.72.6-1.56.84-2.64.84-.96 0-1.68-.24-2.16-.72-.48-.48-.84-1.2-.84-2.04 0-.36 0-.6.12-.84l1.32-6h2.04l-1.32 6c-.12.36-.12.6-.12.84 0 .72.36 1.2 1.2 1.2.48 0 .96-.12 1.32-.48.36-.36.48-.84.72-1.44l1.32-6h1.8v-.12zm-1.56-2.52c0 .72-.48 1.2-1.32 1.44l-.12.48h-1.2l.12-.96c.36-.12.6-.12.72-.24s.24-.24.24-.48c0-.12 0-.24-.12-.24s-.12-.12-.36-.12-.48 0-.84.12v-1.08c.36-.12.72-.12 1.08-.12.48 0 .96.12 1.2.36.48.12.6.36.6.84z"/>
        <path fill="#fff" d="M43.957 18.814l2.04-9.48h2.04l-2.04 9.48h-2.04zM53.077 18.814h-2.04l1.68-7.8h-2.28l.36-1.68h6.6l-.36 1.68h-2.28l-1.68 7.8zM55.717 18.814l2.04-9.48h2.04l-2.04 9.48h-2.04zM64.357 18.814h-5.28l1.92-9.48h5.28l-.36 1.68h-3.36l-.36 2.04h3.12l-.36 1.68h-3.12l-.48 2.4h3.36l-.36 1.68zm-3.24-11.52l-.72-.72c-.24-.24-.36-.48-.48-.6v-.12h1.56c.12.36.24.84.6 1.32v.12h-.96zm3.84 1.2c-.36-.24-.6-.6-.96-1.08-.36.36-.84.72-1.44 1.08h-1.32v-.12l.48-.36c.6-.6 1.08-1.08 1.32-1.44h2.04c.24.6.6 1.2 1.08 1.8v.12h-1.2zM72.997 18.815h-2.28l-2.28-7.2v.24c-.12.96-.24 1.8-.48 2.52l-.96 4.44h-1.8l2.04-9.48h2.28l2.16 6.96c0-.36.12-.84.24-1.44s.48-2.52 1.2-5.64h1.8l-1.92 9.6zM84.157 18.695h-2.16l-2.16-7.2v.24c-.12.96-.24 1.8-.36 2.52l-.96 4.44h-1.68l1.92-9.48h2.28l2.16 6.96c0-.36.12-.84.24-1.44s.48-2.52 1.08-5.52h1.68l-2.04 9.48zM92.197 18.695h-1.92l.84-4.08h-2.88l-.84 4.08h-1.92l1.92-9.48h1.92l-.84 3.72h2.88l.84-3.72h1.92l-1.92 9.48z"/>
        <path fill="#fff" d="M98.317 16.415h-3l-1.08 2.28h-2.04l4.8-9.48h2.4l.96 9.48h-1.8l-.24-2.28zm-.12-1.68l-.12-2.28c0-.6-.12-1.08-.12-1.68v-.12c-.24.48-.36 1.08-.72 1.68l-1.2 2.52h2.16v-.12zM107.917 18.695h-2.16l-2.16-7.2v.24c-.12.96-.24 1.8-.36 2.52l-.96 4.44h-1.68l1.92-9.48h2.28l2.16 6.96c0-.36.12-.84.24-1.44s.48-2.52 1.08-5.52h1.68l-2.04 9.48zM115.837 18.695h-1.92l.84-4.08h-2.88l-.84 4.08h-1.92l1.92-9.48h1.92l-.72 3.72h2.88l.72-3.72h1.92l-1.92 9.48z"/>
        <path fill="url(#prefix__paint1_linear)" d="M30.997 12.935h3.6l-1.08 4.92c-.6.24-1.08.36-1.56.36-.48.12-1.08.12-1.56.12-1.08 0-2.04-.36-2.64-.96-.6-.6-.96-1.56-.96-2.76 0-1.2.24-2.16.72-3.12s1.2-1.68 2.04-2.16c.84-.48 1.8-.72 2.88-.72.96 0 1.8.24 2.64.6l-.72 1.68c-.36-.24-.6-.36-.96-.48s-.72-.12-1.08-.12c-.72 0-1.2.12-1.8.48-.48.36-.96.84-1.2 1.56-.24.72-.48 1.44-.48 2.16 0 .72.12 1.32.48 1.68.36.36.84.48 1.44.48.36 0 .72 0 1.08-.12l.48-1.92h-1.68l.36-1.68z"/>
        <path fill="url(#prefix__paint2_linear)" d="M43.597 8.735l-.24 1.2c.36-.12.6-.24.72-.6.24-.24.36-.72.36-1.2h1.92l.24.12c-.24.84-.72 1.56-1.32 2.04-.6.48-1.32.72-2.16.84l-.84 3.72c-.24 1.2-.72 2.04-1.44 2.64-.72.6-1.56.84-2.76.84-.96 0-1.68-.24-2.16-.72-.48-.48-.84-1.2-.84-2.04 0-.36 0-.6.12-.84l1.32-6h2.04l-1.32 6c-.12.36-.12.6-.12.84 0 .72.36 1.2 1.2 1.2.48 0 .96-.12 1.32-.48.36-.36.48-.84.72-1.44l1.32-6h1.92v-.12zm-1.56-2.52c0 .72-.48 1.2-1.32 1.44v.48h-1.2l.12-.96c.36-.12.6-.12.72-.24s.24-.24.24-.48c0-.12 0-.24-.12-.24s-.12-.12-.36-.12-.48 0-.84.12v-1.08c.36-.12.72-.12 1.08-.12.48 0 .96.12 1.2.36.36.12.48.36.48.84z"/>
        <path fill="url(#prefix__paint3_linear)" d="M43.957 18.215l2.04-9.48h2.04l-2.04 9.48h-2.04z"/>
        <path fill="url(#prefix__paint4_linear)" d="M53.077 18.215h-2.04l1.68-7.8h-2.28l.36-1.68h6.6l-.36 1.68h-2.28l-1.68 7.8z"/>
        <path fill="url(#prefix__paint5_linear)" d="M55.717 18.215l2.04-9.48h2.04l-2.04 9.48h-2.04z"/>
        <path fill="url(#prefix__paint6_linear)" d="M64.357 18.215h-5.28l1.92-9.48h5.28l-.36 1.68h-3.36l-.36 2.04h3.12l-.36 1.68h-3.12l-.48 2.4h3.36l-.36 1.68zm-3.24-11.52l-.72-.72c-.24-.24-.36-.48-.48-.6v-.12h1.56c.12.36.24.84.6 1.32v.12h-.96zm3.84 1.2c-.36-.24-.6-.6-.96-1.08-.36.36-.84.72-1.44 1.08h-1.32v-.12l.48-.36c.6-.6 1.08-1.08 1.32-1.44h2.04c.24.6.6 1.2 1.08 1.8v.12h-1.2z"/>
        <path fill="url(#prefix__paint7_linear)" d="M72.997 18.215h-2.28l-2.28-7.2v.24c-.12.96-.24 1.8-.48 2.52l-.96 4.44h-1.8l2.04-9.48h2.28l2.16 6.96c0-.36.12-.84.24-1.44s.48-2.52 1.2-5.64h1.8l-1.92 9.6z"/>
        <path fill="url(#prefix__paint8_linear)" d="M84.157 18.095h-2.16l-2.16-7.2v.24c-.12.96-.24 1.8-.36 2.52l-.96 4.44h-1.68l1.92-9.48h2.28l2.16 6.96c0-.36.12-.84.24-1.44s.48-2.52 1.08-5.52h1.68l-2.04 9.48z"/>
        <path fill="url(#prefix__paint9_linear)" d="M92.197 18.095h-1.92l.84-4.08h-2.88l-.84 4.08h-1.92l1.92-9.48h1.92l-.72 3.72h2.88l.72-3.72h1.92l-1.92 9.48z"/>
        <path fill="url(#prefix__paint10_linear)" d="M98.317 15.815h-3l-1.08 2.28h-2.04l4.8-9.48h2.4l.96 9.48h-1.8l-.24-2.28zm-.12-1.68l-.12-2.28c0-.6-.12-1.08-.12-1.68v-.12c-.24.48-.36 1.08-.72 1.68l-1.2 2.52h2.16v-.12z"/>
        <path fill="url(#prefix__paint11_linear)" d="M107.917 18.095h-2.16l-2.16-7.2v.24c-.12.96-.24 1.8-.36 2.52l-.96 4.44h-1.68l1.92-9.48h2.28l2.16 6.96c0-.36.12-.84.24-1.44s.48-2.52 1.08-5.52h1.68l-2.04 9.48z"/>
        <path fill="url(#prefix__paint12_linear)" d="M115.837 18.095h-1.92l.84-4.08h-2.88l-.84 4.08h-1.92l1.92-9.48h1.92l-.72 3.72h2.88l.72-3.72h1.92l-1.92 9.48z"/>
        <path fill="url(#prefix__paint13_linear)" d="M28.117 9.215c-.24-.24-.48-.48-.84-.48s-.72.24-.96.48c-.24-.24-.48-.48-.84-.48s-.72.24-.96.48c-.24-.24-.48-.48-.84-.48s-.72.24-.96.6c-.12-.36-.48-.48-.84-.48-.48 0-.84.24-.96.72-.12-.36-.48-.6-.84-.6-.48 0-.96.36-.96.96 0 .48.36.84.72.84-.48.12-.72.48-.72.84 0 .48.36.84.72.84-.48.12-.72.48-.72.84 0 .48.36.84.72.84-.48.12-.72.48-.72.84 0 .48.36.84.72.84-.48.12-.72.48-.72.84 0 .48.36.96.96.96.36 0 .72-.24.84-.6.12.36.48.72.96.72.36 0 .72-.24.84-.48.12.36.48.6.96.6.36 0 .72-.24.84-.48.24.36.48.48.96.48.36 0 .72-.24.84-.48.12.24.36.36.6.48-.6-.6-1.2-1.68-1.2-3.48 0-2.52 1.2-4.68 2.88-5.76-.12.24-.36.36-.48.6zm-7.08 7.32c-.12-.36-.36-.6-.72-.6.36 0 .6-.24.72-.6.12.24.24.48.48.6-.24.12-.36.36-.48.6zm0-1.68c-.12-.36-.36-.6-.72-.6.36 0 .6-.24.72-.6.12.24.24.48.48.6-.24.12-.36.36-.48.6zm0-1.8c-.12-.36-.36-.6-.72-.6.36 0 .6-.24.72-.6.12.24.24.48.48.6-.24.12-.36.36-.48.6zm0-1.8c-.12-.36-.36-.6-.72-.6.36 0 .6-.24.72-.6.12.24.24.48.48.6-.24.12-.36.36-.48.6zm1.8 5.16c-.12-.24-.24-.36-.48-.48.24-.12.36-.24.48-.48.12.24.24.36.48.48-.24.12-.36.36-.48.48zm0-1.8c-.12-.24-.24-.36-.48-.48.24-.12.36-.24.48-.48.12.24.24.36.48.48l-.48.48zm0-1.68c-.12-.24-.24-.36-.48-.48.24-.12.36-.24.48-.48.12.24.24.36.48.48-.24.12-.36.24-.48.48zm0-1.8c-.12-.24-.24-.36-.48-.48.24-.12.36-.24.48-.48.12.24.24.36.48.48-.24.12-.36.36-.48.48zm1.68 5.16l-.36-.36.36-.36.36.36-.36.36zm0-1.68l-.36-.36.36-.36.36.36c-.12.12-.24.12-.36.36zm0-1.8l-.36-.36.36-.36.36.36-.36.36zm0-1.8l-.36-.36.36-.36.36.36-.36.36zm1.8 0c-.12-.12-.12-.24-.24-.24.12-.12.24-.24.24-.36.12.12.12.24.24.24-.12.12-.12.24-.24.36z"/>
        <path fill="url(#prefix__paint14_linear)" d="M18.397 8.975c-.48 0-.84.36-.84.84s.36.84.84.84.84-.36.84-.84-.36-.84-.84-.84z"/>
        <path fill="url(#prefix__paint15_linear)" d="M18.397 10.774c-.48 0-.84.36-.84.84s.36.84.84.84.84-.36.84-.84-.36-.84-.84-.84z"/>
        <path fill="url(#prefix__paint16_linear)" d="M18.397 12.455c-.48 0-.84.36-.84.84s.36.84.84.84.84-.36.84-.84-.36-.84-.84-.84z"/>
        <path fill="url(#prefix__paint17_linear)" d="M18.397 14.254c-.48 0-.84.36-.84.84s.36.84.84.84.84-.36.84-.84-.36-.84-.84-.84z"/>
        <path fill="url(#prefix__paint18_linear)" d="M18.397 16.055c-.48 0-.84.36-.84.84s.36.84.84.84.84-.36.84-.84-.36-.84-.84-.84z"/>
        <path fill="url(#prefix__paint19_linear)" d="M16.717 9.095c-.48 0-.72.36-.72.72 0 .48.36.72.72.72.48 0 .72-.36.72-.72s-.36-.72-.72-.72z"/>
        <path fill="url(#prefix__paint20_linear)" d="M16.717 10.774c-.48 0-.72.36-.72.72 0 .48.36.72.72.72.48 0 .72-.36.72-.72s-.36-.72-.72-.72z"/>
        <path fill="url(#prefix__paint21_linear)" d="M16.717 12.575c-.48 0-.72.36-.72.72 0 .48.36.72.72.72.48 0 .72-.36.72-.72s-.36-.72-.72-.72z"/>
        <path fill="url(#prefix__paint22_linear)" d="M16.717 14.374c-.48 0-.72.36-.72.72 0 .48.36.72.72.72.48 0 .72-.36.72-.72s-.36-.72-.72-.72z"/>
        <path fill="url(#prefix__paint23_linear)" d="M16.717 16.055c-.48 0-.72.36-.72.72 0 .48.36.72.72.72.48 0 .72-.36.72-.72s-.36-.72-.72-.72z"/>
        <path fill="url(#prefix__paint24_linear)" d="M14.917 9.095c-.36 0-.72.36-.72.72s.36.72.72.72.72-.36.72-.72-.36-.72-.72-.72z"/>
        <path fill="url(#prefix__paint25_linear)" d="M14.917 10.895c-.36 0-.72.36-.72.72s.36.72.72.72.72-.36.72-.72-.36-.72-.72-.72z"/>
        <path fill="url(#prefix__paint26_linear)" d="M14.917 12.694c-.36 0-.72.36-.72.72s.36.72.72.72.72-.36.72-.72c0-.48-.36-.72-.72-.72z"/>
        <path fill="url(#prefix__paint27_linear)" d="M14.917 14.374c-.36 0-.72.36-.72.72s.36.72.72.72.72-.36.72-.72-.36-.72-.72-.72z"/>
        <path fill="url(#prefix__paint28_linear)" d="M14.917 17.614c.397 0 .72-.322.72-.72 0-.397-.323-.72-.72-.72-.398 0-.72.323-.72.72 0 .398.322.72.72.72z"/>
        <path fill="url(#prefix__paint29_linear)" d="M13.117 9.214c-.36 0-.6.24-.6.6s.24.6.6.6.6-.24.6-.6-.24-.6-.6-.6z"/>
        <path fill="url(#prefix__paint30_linear)" d="M13.117 12.215c.331 0 .6-.269.6-.6 0-.332-.269-.6-.6-.6-.331 0-.6.268-.6.6 0 .331.269.6.6.6z"/>
        <path fill="url(#prefix__paint31_linear)" d="M13.117 13.894c.331 0 .6-.268.6-.6 0-.331-.269-.6-.6-.6-.331 0-.6.269-.6.6 0 .332.269.6.6.6z"/>
        <path fill="url(#prefix__paint32_linear)" d="M13.117 15.695c.331 0 .6-.269.6-.6 0-.332-.269-.6-.6-.6-.331 0-.6.268-.6.6 0 .331.269.6.6.6z"/>
        <path fill="url(#prefix__paint33_linear)" d="M13.117 17.494c.331 0 .6-.268.6-.6 0-.33-.269-.6-.6-.6-.331 0-.6.27-.6.6 0 .332.269.6.6.6z"/>
        <path fill="url(#prefix__paint34_linear)" d="M11.437 9.334c-.36 0-.48.24-.48.48s.24.48.48.48.48-.24.48-.48-.24-.48-.48-.48z"/>
        <path fill="url(#prefix__paint35_linear)" d="M11.437 12.094c.265 0 .48-.215.48-.48s-.215-.48-.48-.48-.48.215-.48.48.215.48.48.48z"/>
        <path fill="url(#prefix__paint36_linear)" d="M11.437 13.774c.265 0 .48-.214.48-.48 0-.265-.215-.48-.48-.48s-.48.215-.48.48c0 .266.215.48.48.48z"/>
        <path fill="url(#prefix__paint37_linear)" d="M11.437 15.575c.265 0 .48-.215.48-.48s-.215-.48-.48-.48-.48.215-.48.48.215.48.48.48z"/>
        <path fill="url(#prefix__paint38_linear)" d="M11.437 17.375c.265 0 .48-.215.48-.48s-.215-.48-.48-.48-.48.215-.48.48.215.48.48.48z"/>
        <path fill="url(#prefix__paint39_linear)" d="M9.637 9.455c-.24 0-.36.12-.36.36s.24.36.36.36.36-.24.36-.36c0-.24-.12-.36-.36-.36z"/>
        <path fill="url(#prefix__paint40_linear)" d="M9.637 11.134c-.24 0-.36.24-.36.48s.12.36.36.36.36-.24.36-.36-.12-.48-.36-.48z"/>
        <path fill="url(#prefix__paint41_linear)" d="M9.637 13.655c.199 0 .36-.162.36-.36 0-.2-.161-.36-.36-.36-.199 0-.36.16-.36.36 0 .198.161.36.36.36z"/>
        <path fill="url(#prefix__paint42_linear)" d="M9.637 15.454c.199 0 .36-.16.36-.36 0-.198-.161-.36-.36-.36-.199 0-.36.162-.36.36 0 .2.161.36.36.36z"/>
        <path fill="url(#prefix__paint43_linear)" d="M9.637 17.255c.199 0 .36-.162.36-.36 0-.2-.161-.36-.36-.36-.199 0-.36.16-.36.36 0 .198.161.36.36.36z"/>
        <path fill="url(#prefix__paint44_linear)" d="M7.837 9.455c-.12 0-.36.12-.36.36 0 .12.12.36.36.36s.36-.12.36-.36c0-.12-.12-.36-.36-.36z"/>
        <path fill="url(#prefix__paint45_linear)" d="M7.837 11.254c-.12 0-.36.12-.36.36s.12.36.36.36.36-.24.36-.36-.12-.36-.36-.36z"/>
        <path fill="url(#prefix__paint46_linear)" d="M7.837 13.055c-.12 0-.36.12-.36.36s.12.36.36.36.36-.24.36-.48-.12-.24-.36-.24z"/>
        <path fill="url(#prefix__paint47_linear)" d="M7.837 14.854c-.12 0-.36.12-.36.36s.12.36.36.36.36-.24.36-.48-.12-.24-.36-.24z"/>
        <path fill="url(#prefix__paint48_linear)" d="M7.837 16.535c-.12 0-.36.12-.36.36s.12.36.36.36.36-.24.36-.36-.12-.36-.36-.36z"/>
        <path fill="url(#prefix__paint49_linear)" d="M6.157 9.575c-.12 0-.24.12-.24.24s.12.24.24.24.24-.12.24-.24-.12-.24-.24-.24z"/>
        <path fill="url(#prefix__paint50_linear)" d="M6.157 11.374c-.12 0-.24.12-.24.24s.12.24.24.24.24-.12.24-.24-.12-.24-.24-.24z"/>
        <path fill="url(#prefix__paint51_linear)" d="M6.157 13.174c-.12 0-.24.12-.24.24s.12.24.24.24.24-.12.24-.24-.12-.24-.24-.24z"/>
        <path fill="url(#prefix__paint52_linear)" d="M6.157 14.854c-.12 0-.24.12-.24.24s.12.24.24.24.24-.12.24-.24-.12-.24-.24-.24z"/>
        <path fill="url(#prefix__paint53_linear)" d="M6.157 16.655c-.12 0-.24.12-.24.24s.12.24.24.24.24-.12.24-.24-.12-.24-.24-.24z"/>
        <path fill="url(#prefix__paint54_linear)" d="M4.357 9.694s-.12.12 0 0c-.12.12-.12.24 0 .24s.12 0 0-.24c.12.12.12 0 0 0z"/>
        <path fill="url(#prefix__paint55_linear)" d="M4.357 11.735c.066 0 .12-.054.12-.12 0-.067-.054-.12-.12-.12s-.12.053-.12.12c0 .066.054.12.12.12z"/>
        <path fill="url(#prefix__paint56_linear)" d="M4.357 13.414c.066 0 .12-.053.12-.12 0-.066-.054-.12-.12-.12s-.12.054-.12.12c0 .067.054.12.12.12z"/>
        <path fill="url(#prefix__paint57_linear)" d="M4.357 15.215c.066 0 .12-.054.12-.12 0-.067-.054-.12-.12-.12s-.12.053-.12.12c0 .066.054.12.12.12z"/>
        <path fill="url(#prefix__paint58_linear)" d="M4.357 17.014c.066 0 .12-.053.12-.12 0-.066-.054-.12-.12-.12s-.12.054-.12.12c0 .067.054.12.12.12z"/>
    </g>
    <defs>
        <linearGradient id="prefix__paint0_linear" x1="60.997" x2="60.997" y1="2.026" y2="23.482" gradientUnits="userSpaceOnUse">
            <stop stop-color="#fff"/>
            <stop offset=".506" stop-color="#EFF7F7"/>
            <stop offset="1" stop-color="#C6C6C6"/>
        </linearGradient>
        <linearGradient id="prefix__paint1_linear" x1="30.996" x2="30.996" y1="16.512" y2="7.717" gradientUnits="userSpaceOnUse">
            <stop stop-color="#2F70AC"/>
            <stop offset="1" stop-color="#41B1FC"/>
        </linearGradient>
        <linearGradient id="prefix__paint2_linear" x1="40.864" x2="40.864" y1="16.512" y2="7.717" gradientUnits="userSpaceOnUse">
            <stop stop-color="#2F70AC"/>
            <stop offset="1" stop-color="#41B1FC"/>
        </linearGradient>
        <linearGradient id="prefix__paint3_linear" x1="45.938" x2="45.938" y1="16.512" y2="7.717" gradientUnits="userSpaceOnUse">
            <stop stop-color="#2F70AC"/>
            <stop offset="1" stop-color="#41B1FC"/>
        </linearGradient>
        <linearGradient id="prefix__paint4_linear" x1="53.887" x2="53.887" y1="16.512" y2="7.717" gradientUnits="userSpaceOnUse">
            <stop stop-color="#2F70AC"/>
            <stop offset="1" stop-color="#41B1FC"/>
        </linearGradient>
        <linearGradient id="prefix__paint5_linear" x1="57.752" x2="57.752" y1="16.512" y2="7.717" gradientUnits="userSpaceOnUse">
            <stop stop-color="#2F70AC"/>
            <stop offset="1" stop-color="#41B1FC"/>
        </linearGradient>
        <linearGradient id="prefix__paint6_linear" x1="62.695" x2="62.695" y1="16.512" y2="7.717" gradientUnits="userSpaceOnUse">
            <stop stop-color="#2F70AC"/>
            <stop offset="1" stop-color="#41B1FC"/>
        </linearGradient>
        <linearGradient id="prefix__paint7_linear" x1="70.135" x2="70.135" y1="16.512" y2="7.717" gradientUnits="userSpaceOnUse">
            <stop stop-color="#2F70AC"/>
            <stop offset="1" stop-color="#41B1FC"/>
        </linearGradient>
        <linearGradient id="prefix__paint8_linear" x1="81.435" x2="81.435" y1="15.98" y2="8.621" gradientUnits="userSpaceOnUse">
            <stop stop-color="#812013"/>
            <stop offset="1" stop-color="#D84B49"/>
        </linearGradient>
        <linearGradient id="prefix__paint9_linear" x1="89.765" x2="89.765" y1="15.98" y2="8.621" gradientUnits="userSpaceOnUse">
            <stop stop-color="#812013"/>
            <stop offset="1" stop-color="#D84B49"/>
        </linearGradient>
        <linearGradient id="prefix__paint10_linear" x1="96.321" x2="96.321" y1="15.98" y2="8.621" gradientUnits="userSpaceOnUse">
            <stop stop-color="#812013"/>
            <stop offset="1" stop-color="#D84B49"/>
        </linearGradient>
        <linearGradient id="prefix__paint11_linear" x1="105.152" x2="105.152" y1="15.98" y2="8.621" gradientUnits="userSpaceOnUse">
            <stop stop-color="#812013"/>
            <stop offset="1" stop-color="#D84B49"/>
        </linearGradient>
        <linearGradient id="prefix__paint12_linear" x1="113.481" x2="113.481" y1="15.98" y2="8.621" gradientUnits="userSpaceOnUse">
            <stop stop-color="#812013"/>
            <stop offset="1" stop-color="#D84B49"/>
        </linearGradient>
        <linearGradient id="prefix__paint13_linear" x1="25849.5" x2="3572.62" y1="13.331" y2="13.331" gradientUnits="userSpaceOnUse">
            <stop stop-color="#2F70AC"/>
            <stop offset="1" stop-color="#41B1FC"/>
        </linearGradient>
        <linearGradient id="prefix__paint14_linear" x1="4000.12" x2="565.464" y1="9.827" y2="9.827" gradientUnits="userSpaceOnUse">
            <stop stop-color="#2F70AC"/>
            <stop offset="1" stop-color="#41B1FC"/>
        </linearGradient>
        <linearGradient id="prefix__paint15_linear" x1="4000.12" x2="565.464" y1="11.587" y2="11.587" gradientUnits="userSpaceOnUse">
            <stop stop-color="#2F70AC"/>
            <stop offset="1" stop-color="#41B1FC"/>
        </linearGradient>
        <linearGradient id="prefix__paint16_linear" x1="4000.12" x2="565.464" y1="13.347" y2="13.347" gradientUnits="userSpaceOnUse">
            <stop stop-color="#2F70AC"/>
            <stop offset="1" stop-color="#41B1FC"/>
        </linearGradient>
        <linearGradient id="prefix__paint17_linear" x1="4000.12" x2="565.464" y1="15.108" y2="15.108" gradientUnits="userSpaceOnUse">
            <stop stop-color="#2F70AC"/>
            <stop offset="1" stop-color="#41B1FC"/>
        </linearGradient>
        <linearGradient id="prefix__paint18_linear" x1="4000.12" x2="565.464" y1="16.868" y2="16.868" gradientUnits="userSpaceOnUse">
            <stop stop-color="#2F70AC"/>
            <stop offset="1" stop-color="#41B1FC"/>
        </linearGradient>
        <linearGradient id="prefix__paint19_linear" x1="3648.98" x2="515.704" y1="9.827" y2="9.827" gradientUnits="userSpaceOnUse">
            <stop stop-color="#2F70AC"/>
            <stop offset="1" stop-color="#41B1FC"/>
        </linearGradient>
        <linearGradient id="prefix__paint20_linear" x1="3648.98" x2="515.704" y1="11.587" y2="11.587" gradientUnits="userSpaceOnUse">
            <stop stop-color="#2F70AC"/>
            <stop offset="1" stop-color="#41B1FC"/>
        </linearGradient>
        <linearGradient id="prefix__paint21_linear" x1="3648.98" x2="515.704" y1="13.348" y2="13.348" gradientUnits="userSpaceOnUse">
            <stop stop-color="#2F70AC"/>
            <stop offset="1" stop-color="#41B1FC"/>
        </linearGradient>
        <linearGradient id="prefix__paint22_linear" x1="3648.98" x2="515.704" y1="15.107" y2="15.107" gradientUnits="userSpaceOnUse">
            <stop stop-color="#2F70AC"/>
            <stop offset="1" stop-color="#41B1FC"/>
        </linearGradient>
        <linearGradient id="prefix__paint23_linear" x1="3648.98" x2="515.704" y1="16.868" y2="16.868" gradientUnits="userSpaceOnUse">
            <stop stop-color="#2F70AC"/>
            <stop offset="1" stop-color="#41B1FC"/>
        </linearGradient>
        <linearGradient id="prefix__paint24_linear" x1="3251.55" x2="459.585" y1="9.827" y2="9.827" gradientUnits="userSpaceOnUse">
            <stop stop-color="#2F70AC"/>
            <stop offset="1" stop-color="#41B1FC"/>
        </linearGradient>
        <linearGradient id="prefix__paint25_linear" x1="3251.55" x2="459.585" y1="11.587" y2="11.587" gradientUnits="userSpaceOnUse">
            <stop stop-color="#2F70AC"/>
            <stop offset="1" stop-color="#41B1FC"/>
        </linearGradient>
        <linearGradient id="prefix__paint26_linear" x1="3251.55" x2="459.585" y1="13.347" y2="13.347" gradientUnits="userSpaceOnUse">
            <stop stop-color="#2F70AC"/>
            <stop offset="1" stop-color="#41B1FC"/>
        </linearGradient>
        <linearGradient id="prefix__paint27_linear" x1="3251.55" x2="459.585" y1="15.108" y2="15.108" gradientUnits="userSpaceOnUse">
            <stop stop-color="#2F70AC"/>
            <stop offset="1" stop-color="#41B1FC"/>
        </linearGradient>
        <linearGradient id="prefix__paint28_linear" x1="3251.55" x2="459.585" y1="16.868" y2="16.868" gradientUnits="userSpaceOnUse">
            <stop stop-color="#2F70AC"/>
            <stop offset="1" stop-color="#41B1FC"/>
        </linearGradient>
        <linearGradient id="prefix__paint29_linear" x1="2853.95" x2="403.442" y1="9.826" y2="9.826" gradientUnits="userSpaceOnUse">
            <stop stop-color="#2F70AC"/>
            <stop offset="1" stop-color="#41B1FC"/>
        </linearGradient>
        <linearGradient id="prefix__paint30_linear" x1="2853.95" x2="403.442" y1="11.587" y2="11.587" gradientUnits="userSpaceOnUse">
            <stop stop-color="#2F70AC"/>
            <stop offset="1" stop-color="#41B1FC"/>
        </linearGradient>
        <linearGradient id="prefix__paint31_linear" x1="2853.95" x2="403.442" y1="13.347" y2="13.347" gradientUnits="userSpaceOnUse">
            <stop stop-color="#2F70AC"/>
            <stop offset="1" stop-color="#41B1FC"/>
        </linearGradient>
        <linearGradient id="prefix__paint32_linear" x1="2853.95" x2="403.442" y1="15.108" y2="15.108" gradientUnits="userSpaceOnUse">
            <stop stop-color="#2F70AC"/>
            <stop offset="1" stop-color="#41B1FC"/>
        </linearGradient>
        <linearGradient id="prefix__paint33_linear" x1="2853.95" x2="403.442" y1="16.868" y2="16.868" gradientUnits="userSpaceOnUse">
            <stop stop-color="#2F70AC"/>
            <stop offset="1" stop-color="#41B1FC"/>
        </linearGradient>
        <linearGradient id="prefix__paint34_linear" x1="2409.88" x2="340.915" y1="9.827" y2="9.827" gradientUnits="userSpaceOnUse">
            <stop stop-color="#2F70AC"/>
            <stop offset="1" stop-color="#41B1FC"/>
        </linearGradient>
        <linearGradient id="prefix__paint35_linear" x1="2409.88" x2="340.915" y1="11.587" y2="11.587" gradientUnits="userSpaceOnUse">
            <stop stop-color="#2F70AC"/>
            <stop offset="1" stop-color="#41B1FC"/>
        </linearGradient>
        <linearGradient id="prefix__paint36_linear" x1="2409.88" x2="340.915" y1="13.347" y2="13.347" gradientUnits="userSpaceOnUse">
            <stop stop-color="#2F70AC"/>
            <stop offset="1" stop-color="#41B1FC"/>
        </linearGradient>
        <linearGradient id="prefix__paint37_linear" x1="2409.88" x2="340.915" y1="15.108" y2="15.108" gradientUnits="userSpaceOnUse">
            <stop stop-color="#2F70AC"/>
            <stop offset="1" stop-color="#41B1FC"/>
        </linearGradient>
        <linearGradient id="prefix__paint38_linear" x1="2409.88" x2="340.915" y1="16.868" y2="16.868" gradientUnits="userSpaceOnUse">
            <stop stop-color="#2F70AC"/>
            <stop offset="1" stop-color="#41B1FC"/>
        </linearGradient>
        <linearGradient id="prefix__paint39_linear" x1="1965.46" x2="278.34" y1="9.827" y2="9.827" gradientUnits="userSpaceOnUse">
            <stop stop-color="#2F70AC"/>
            <stop offset="1" stop-color="#41B1FC"/>
        </linearGradient>
        <linearGradient id="prefix__paint40_linear" x1="1965.46" x2="278.34" y1="11.587" y2="11.587" gradientUnits="userSpaceOnUse">
            <stop stop-color="#2F70AC"/>
            <stop offset="1" stop-color="#41B1FC"/>
        </linearGradient>
        <linearGradient id="prefix__paint41_linear" x1="1965.46" x2="278.34" y1="13.347" y2="13.347" gradientUnits="userSpaceOnUse">
            <stop stop-color="#2F70AC"/>
            <stop offset="1" stop-color="#41B1FC"/>
        </linearGradient>
        <linearGradient id="prefix__paint42_linear" x1="1965.46" x2="278.34" y1="15.107" y2="15.107" gradientUnits="userSpaceOnUse">
            <stop stop-color="#2F70AC"/>
            <stop offset="1" stop-color="#41B1FC"/>
        </linearGradient>
        <linearGradient id="prefix__paint43_linear" x1="1965.46" x2="278.34" y1="16.868" y2="16.868" gradientUnits="userSpaceOnUse">
            <stop stop-color="#2F70AC"/>
            <stop offset="1" stop-color="#41B1FC"/>
        </linearGradient>
        <linearGradient id="prefix__paint44_linear" x1="1498.15" x2="212.622" y1="9.827" y2="9.827" gradientUnits="userSpaceOnUse">
            <stop stop-color="#2F70AC"/>
            <stop offset="1" stop-color="#41B1FC"/>
        </linearGradient>
        <linearGradient id="prefix__paint45_linear" x1="1498.15" x2="212.622" y1="11.587" y2="11.587" gradientUnits="userSpaceOnUse">
            <stop stop-color="#2F70AC"/>
            <stop offset="1" stop-color="#41B1FC"/>
        </linearGradient>
        <linearGradient id="prefix__paint46_linear" x1="1498.15" x2="212.622" y1="13.348" y2="13.348" gradientUnits="userSpaceOnUse">
            <stop stop-color="#2F70AC"/>
            <stop offset="1" stop-color="#41B1FC"/>
        </linearGradient>
        <linearGradient id="prefix__paint47_linear" x1="1498.15" x2="212.622" y1="15.108" y2="15.108" gradientUnits="userSpaceOnUse">
            <stop stop-color="#2F70AC"/>
            <stop offset="1" stop-color="#41B1FC"/>
        </linearGradient>
        <linearGradient id="prefix__paint48_linear" x1="1498.15" x2="212.622" y1="16.868" y2="16.868" gradientUnits="userSpaceOnUse">
            <stop stop-color="#2F70AC"/>
            <stop offset="1" stop-color="#41B1FC"/>
        </linearGradient>
        <linearGradient id="prefix__paint49_linear" x1="1030.67" x2="146.879" y1="9.827" y2="9.827" gradientUnits="userSpaceOnUse">
            <stop stop-color="#2F70AC"/>
            <stop offset="1" stop-color="#41B1FC"/>
        </linearGradient>
        <linearGradient id="prefix__paint50_linear" x1="1030.67" x2="146.879" y1="11.587" y2="11.587" gradientUnits="userSpaceOnUse">
            <stop stop-color="#2F70AC"/>
            <stop offset="1" stop-color="#41B1FC"/>
        </linearGradient>
        <linearGradient id="prefix__paint51_linear" x1="1030.67" x2="146.879" y1="13.347" y2="13.347" gradientUnits="userSpaceOnUse">
            <stop stop-color="#2F70AC"/>
            <stop offset="1" stop-color="#41B1FC"/>
        </linearGradient>
        <linearGradient id="prefix__paint52_linear" x1="1030.67" x2="146.879" y1="15.108" y2="15.108" gradientUnits="userSpaceOnUse">
            <stop stop-color="#2F70AC"/>
            <stop offset="1" stop-color="#41B1FC"/>
        </linearGradient>
        <linearGradient id="prefix__paint53_linear" x1="1030.67" x2="146.879" y1="16.868" y2="16.868" gradientUnits="userSpaceOnUse">
            <stop stop-color="#2F70AC"/>
            <stop offset="1" stop-color="#41B1FC"/>
        </linearGradient>
        <linearGradient id="prefix__paint54_linear" x1="539.957" x2="77.944" y1="9.826" y2="9.826" gradientUnits="userSpaceOnUse">
            <stop stop-color="#2F70AC"/>
            <stop offset="1" stop-color="#41B1FC"/>
        </linearGradient>
        <linearGradient id="prefix__paint55_linear" x1="539.957" x2="77.944" y1="11.587" y2="11.587" gradientUnits="userSpaceOnUse">
            <stop stop-color="#2F70AC"/>
            <stop offset="1" stop-color="#41B1FC"/>
        </linearGradient>
        <linearGradient id="prefix__paint56_linear" x1="539.957" x2="77.944" y1="13.347" y2="13.347" gradientUnits="userSpaceOnUse">
            <stop stop-color="#2F70AC"/>
            <stop offset="1" stop-color="#41B1FC"/>
        </linearGradient>
        <linearGradient id="prefix__paint57_linear" x1="539.957" x2="77.944" y1="15.108" y2="15.108" gradientUnits="userSpaceOnUse">
            <stop stop-color="#2F70AC"/>
            <stop offset="1" stop-color="#41B1FC"/>
        </linearGradient>
        <linearGradient id="prefix__paint58_linear" x1="539.957" x2="77.944" y1="16.868" y2="16.868" gradientUnits="userSpaceOnUse">
            <stop stop-color="#2F70AC"/>
            <stop offset="1" stop-color="#41B1FC"/>
        </linearGradient>
        <clipPath id="prefix__clip0">
            <path fill="#fff" d="M.997.935h120v24h-120v-24z"/>
        </clipPath>
    </defs>
</svg>
