<svg xmlns="http://www.w3.org/2000/svg" width="64" height="65" fill="none" viewBox="0 0 64 65">
    <path fill="url(#paint0_linear)" d="M41.556 52.303l-10.581-12.09 10.58 12.09z"/>
    <path fill="url(#paint1_linear)" d="M31.625 43.236l-1.793-2.048 1.793 2.048z"/>
    <path fill="url(#paint2_linear)" d="M30.147 43.88l.453.077h.08c.137.02.512.078.886.234.335.137.63.332.808.585-.178-.253-.473-.448-.808-.585-.374-.156-.749-.214-.887-.234H30.6l-.453-.078-1.517-1.657 1.517 1.657z"/>
    <path fill="url(#paint3_linear)" d="M34.01 39.14c.335-.019.69-.077 1.084-.194l8.985 10.257-8.986-10.257c-.394.117-.748.175-1.083.195z"/>
    <path fill="url(#paint4_linear)" d="M36.355 38.127l8.61 9.828-8.61-9.828z"/>
    <path fill="url(#paint5_linear)" d="M42.541 51.172L37.497 45.4l5.044 5.772z"/>
    <path fill="url(#paint6_linear)" d="M53.162 22.566V12.348c-.906-.234-1.773-.448-2.7-.643v25.33c2.03-5.83 2.602-11.076 2.7-14.469z"/>
    <path fill="url(#paint7_linear)" d="M33.557 45.44l5.379 6.142-5.38-6.143z"/>
    <path fill="url(#paint8_linear)" d="M33.556 45.77c0-.116 0-.214-.02-.33.02.116.02.233.02.33 0 .157-.02.313-.04.488l6.621 7.566-6.62-7.566c.039-.175.039-.331.039-.487z"/>
    <path fill="url(#paint9_linear)" d="M39.606 35.144l.315.331v-4.738c-.867.312-2.128.702-3.093.76h-.394l3.172 3.647z"/>
    <path fill="url(#paint10_linear)" d="M33.182 47.292l6.305 7.215-.394.39.394-.39-6.305-7.215z"/>
    <path fill="url(#paint11_linear)" d="M36.69 36.235l9.123 10.433-9.123-10.452v.02z"/>
    <path fill="url(#paint12_linear)" d="M43.526 14.22c1.734 1.93 2.522 4.368 2.542 6.962.04 2.788-.808 5.304-2.542 7.176v11.27l3.449 3.803V11.04c-.986-.175-2.444-.428-3.449-.565v3.744z"/>
    <path fill="url(#paint13_linear)" d="M32.355 39.024s.354.097.926.117l9.852 11.27-9.852-11.27c-.572 0-.926-.117-.926-.117z"/>
    <path fill="url(#paint14_linear)" d="M21.32 51.016l-.04-.136s-.118-5.87-.926-7.605c-.788-1.736-3.881-6.123-4.433-6.864-.552-.741-.453-2.028.079-2.652.551-.624 2.167-.663 2.167-.663s-.079-.955.552-1.111c.63-.157 1.202-.117 1.202-.117s.04-1.034.788-1.073c.749-.039 1.458 0 1.458 0l.079-1.91 4.847.136s.532-.722 1.3-1.17c-1.556-1.833-2.502-4.193-2.541-6.767-.079-5.694 4.315-10.413 9.99-10.374 1.3 0 2.877.468 4.04.936v-1.52c-9.597-.898-19.646-.176-29.065 2.222v10.218c.06 1.97.276 4.563.848 7.547.512 2.651 1.3 5.615 2.502 8.696l.296.702c1.556 3.783 3.743 7.722 6.857 11.505 2.62 3.198 5.872 6.28 9.95 9.087-4.058-2.808-7.33-5.889-9.95-9.087zM14.325 39.16c-.04-.117-.099-.234-.138-.35-1.222-3.082-1.99-6.046-2.503-8.697.513 2.651 1.3 5.615 2.503 8.696.04.117.079.234.138.351.059.117.098.234.157.351-.059-.117-.118-.234-.157-.35z"/>
    <path fill="url(#paint15_linear)" d="M37.28 56.554c-.118.098-.236.215-.374.312.138-.097.256-.195.375-.312z"/>
    <path fill="url(#paint16_linear)" d="M38.03 55.891c.138-.117.256-.234.374-.35l-6.305-7.235 6.325 7.234c-.138.117-.256.234-.394.351z"/>
    <path fill="url(#paint17_linear)" d="M36.217 33.427L46.64 45.322 36.217 33.427z"/>
    <path fill="url(#paint18_linear)" d="M30.541 48.813c-.256.039-.492.058-.709.058.217-.02.453-.039.71-.058l6.758 7.741-6.759-7.741z"/>
    <path fill="#fff" d="M36.157 57.51l-8.039-9.185.493-.429h.315c.296 0 .571.04.906.04.513 0 1.123-.079 1.912-.488.315-.176.532-.41.67-.702.138-.293.216-.624.197-.956 0-.35-.08-.682-.178-.877-.02-.04-.04-.078-.078-.117-.178-.254-.473-.449-.808-.585-.375-.156-.75-.215-.887-.234h-.079l-.453-.078-1.517-1.658.71-.604 1.28 1.404.098.02c.099.019.454.058.887.194l-1.773-2.028.709-.624 10.64 12.149c.119-.137.257-.273.375-.41l-10.581-12.09.709-.604L42.167 51.64c.119-.136.237-.292.355-.429l-5.044-5.772-5.38-6.2.257-.215s.354.097.926.117l9.852 11.27c.118-.155.236-.292.354-.448L34.01 39.121c.335-.02.69-.078 1.084-.195l8.985 10.257c.118-.156.216-.312.335-.468l-8.769-9.964c.315-.156.552-.37.71-.624l8.61 9.828c.099-.156.217-.312.316-.468l-8.69-9.926c.158-.546.118-1.111.079-1.345l9.143 10.432c.098-.156.197-.331.315-.487l-9.911-11.31v-1.423L46.64 45.322c.118-.195.217-.39.335-.585L35.39 31.438c-2.778-.233-5.241-1.598-6.956-3.626-.768.429-1.3 1.17-1.3 1.17l-4.847-.117-.08 1.91s-.709-.038-1.457 0c-.75.04-.788 1.073-.788 1.073s-.592-.039-1.202.117c-.631.176-.552 1.112-.552 1.112s-1.636.038-2.168.663c-.551.623-.63 1.91-.079 2.651.532.741 3.626 5.129 4.434 6.864.788 1.736.926 7.605.926 7.605l.04.137c2.62 3.198 5.891 6.279 9.95 9.087.237.156.473.331.71.487 1.458-.975 2.857-2.008 4.137-3.061zM31.98 32.453v-.02.02zM14.462 39.511c-.04-.117-.098-.234-.157-.35.059.116.118.233.157.35zM11.665 30.113c.512 2.651 1.3 5.615 2.503 8.696.039.117.098.234.137.351-.039-.117-.098-.234-.137-.35-1.202-3.082-1.99-6.026-2.503-8.698z"/>
    <path fill="#000" d="M52.414 8.35c-.355-.077-.71-.155-1.084-.233v.702h1.084V8.35zM11.94 8.819h.75c-.02-.059-.02-.098-.04-.156-.237.039-.473.097-.71.156zM12.532 8.078c-.098-.39-.177-.76-.276-1.15 0-.04-.02-.06-.059-.06-.04 0-.059.04-.059.079-.079.429-.177.838-.256 1.267.217-.039.433-.078.65-.136zM43.133 7.454c.315 0 .453-.215.453-.683v-.526c0-.527-.178-.78-.552-.819-.374-.039-.552.156-.552.682v.527c0 .526.178.76.552.819.04-.02.079 0 .099 0z"/>
    <path fill="#000" d="M35.92 60.883c7.942-5.947 12.75-13.026 15.627-19.656l.02-.02.019-.058.591-1.404c.197-.487.374-.994.552-1.482 2.522-7.039 2.975-13.279 3.014-16.828v-.37V5.094C47.98 2.871 39.98 1.76 32 1.76c-8 0-15.98 1.111-23.744 3.334v6.494l.02 8.97v1.385c.02.896.059 1.95.157 3.139.315 3.86 1.182 9.047 3.39 14.644 3.053 7.78 8.728 16.36 18.994 23.087l.828.527h.65l.847-.527c.986-.623 1.892-1.267 2.779-1.93zM46.148 8.526c-.709-.117-1.26-.448-1.28-1.443v-1.95c0-.039.04-.078.079-.078h.02c.196.02.393.059.57.078.04 0 .08.059.08.098v1.95c0 .448.118.643.512.721.394.059.512-.097.512-.546v-1.95c0-.039.04-.078.079-.058.197.039.374.058.571.097.04 0 .099.059.099.098v1.95c.04.975-.552 1.15-1.242 1.033zm-5.694-2.652c0-.02-.02-.039-.02-.039-.02 0-.02 0-.04.02-.137.234-.255.448-.393.682-.04.04-.08.059-.138.059-.119-.02-.237-.02-.355-.02-.06 0-.099-.039-.138-.078-.138-.253-.256-.507-.394-.76-.02-.02-.02-.04-.04-.04 0 0-.02 0-.02.04V7.55c0 .059-.038.078-.078.078-.197-.02-.394-.02-.591-.039-.04 0-.079-.02-.079-.058V4.49c0-.078.06-.137.138-.137h.02c.138 0 .276.02.414.04.098 0 .157.058.197.136.236.429.453.858.67 1.306.02.04.039.059.039.059.02 0 .04-.02.04-.059.216-.39.453-.799.67-1.189.039-.078.098-.117.196-.098.138.02.276.02.414.04.099 0 .158.077.158.175v3.042c0 .058-.04.058-.079.058l-.591-.058c-.04 0-.079-.04-.079-.098V5.874h.079zm-24 1.502V6.83c0-1.034.63-1.502 1.3-1.599.178-.02.335-.039.473-.039.08 0 .158 0 .197.02.06 0 .099.019.099.077v.43c0 .058-.02.097-.079.097h-.02c-.177.02-.413.02-.65.058-.296.04-.552.254-.552.82v.545c0 .585.237.702.552.644.236-.04.493-.098.65-.137h.02c.06 0 .079.02.079.078v.43c0 .058-.04.097-.099.116-.098.04-.354.117-.65.176-.69.097-1.32-.137-1.32-1.17zm3.921.74c-.177 0-.236-.058-.236-.253V5.211c0-.195.059-.273.236-.312.158-.039.512-.117.788-.136.138-.02.276-.02.414-.02.61 0 .985.215.985.78v.078c0 .293-.138.546-.374.683.236.078.394.312.394.604v.059c0 .76-.63 1.053-1.399 1.13-.276.02-.63.04-.808.04zm2.64-1.657v-.526c0-1.014.572-1.463 1.32-1.521h.158c.65 0 1.163.37 1.163 1.306v.527c0 1.014-.591 1.443-1.32 1.501-.73.059-1.32-.273-1.32-1.287zm11.212-.35c.02.019.02.038.04.038 0 0 .02 0 .02-.039V4.256c0-.039.039-.078.098-.078.177 0 .355 0 .532.02.04 0 .099.038.099.077v3.003c0 .098-.08.156-.178.156-.138 0-.296 0-.433-.02-.099 0-.158-.019-.237-.136-.335-.585-.67-1.17-1.005-1.735-.02-.02-.02-.04-.04-.04-.019 0-.019 0-.019.04v1.774c0 .04-.04.078-.098.078h-.532c-.06 0-.099-.039-.099-.097V4.314c0-.097.079-.156.158-.156h.453c.098 0 .138.04.177.137.375.585.73 1.209 1.064 1.813zm3.29-.508c.04 0 .08.04.08.098v.41c0 .038-.04.077-.08.077-.373-.02-.768-.039-1.142-.058v.468c0 .234.079.292.276.312.296.02.61.039.906.058.04 0 .08.04.08.098v.41c0 .058-.02.077-.08.077-.157.02-.374.04-.867 0-.571-.039-1.083-.195-1.083-.994V5.114c0-.722.433-.897.926-.897h.157c.473.02.71.078.867.097.06.02.08.04.08.098v.41c0 .038-.04.077-.08.077l-.906-.058c-.217-.02-.276.058-.276.292v.39c.374.04.749.059 1.143.078zM30.503 4.12c.73 0 1.3.254 1.3 1.014v.059c0 .468-.255.74-.57.877.216.41.452.82.67 1.229 0 .02.019.039.019.039 0 .039-.02.058-.06.058h-.689c-.059 0-.059-.039-.079-.078-.197-.37-.394-.74-.59-1.092h-.375v1.112c0 .058-.04.078-.099.097-.197 0-.394 0-.571.02-.04 0-.099-.04-.099-.078V4.45c0-.156.06-.195.197-.215.197-.039.591-.078.907-.078 0-.039.02-.039.04-.039zm-3.566 2.184c0 .449.118.624.512.605.394-.02.532-.215.532-.663v-1.95c0-.039.04-.078.098-.078.198 0 .395-.02.572-.02.04 0 .099.04.099.078v1.95c0 .995-.572 1.287-1.281 1.307-.71.039-1.281-.195-1.281-1.19v-1.95c0-.039.04-.078.098-.078.197-.019.395-.019.591-.039.06 0 .1.04.1.078v1.95h-.04zm14.798.234v-.526c0-.917.473-1.268 1.083-1.268.08 0 .138 0 .217.02.73.097 1.3.565 1.3 1.58v.526c0 1.014-.57 1.326-1.3 1.228-.729-.097-1.3-.546-1.3-1.56zm-31.33 17.745V8.82h.65c.138-.644.296-1.268.433-1.911.099-.449.414-.585.73-.644.078-.02.177-.039.256-.039.197 0 .394.078.453.37.177.742.374 1.483.571 2.224h.473v-1.99c0-.799.512-1.033 1.064-1.15.473-.097.69-.097.848-.097.059 0 .078.02.078.078v.41c0 .038-.04.097-.079.097-.295.058-.59.117-.886.156-.197.039-.276.117-.276.35v.39c.374-.077.749-.136 1.143-.214.04 0 .079.02.079.078v.41c0 .039-.04.097-.08.097-.374.059-.748.137-1.142.215v1.15H48.63V6.264c-.236-.039-.473-.078-.71-.136-.058 0-.078-.059-.098-.098v-.448c0-.039.04-.078.08-.078h.019c.729.136 1.458.273 2.167.41.04 0 .099.058.099.097v.448c0 .059-.04.078-.099.059-.236-.04-.473-.098-.709-.137V8.78h1.222V6.128c0-.04.02-.059.059-.059h.02c.197.04.374.078.57.117.06.02.08.059.08.098v1.17c.354.078.71.156 1.084.234v-1.17c0-.04.039-.078.078-.059.197.04.375.078.572.137.04.02.078.058.078.097V8.8h.395v15.483c-1.4 23.907-21.439 37.44-21.439 37.44S13.734 51.23 10.404 24.282z"/>
    <path fill="#000" d="M21.832 5.699V5.64c0-.234-.157-.331-.61-.273-.08 0-.276.04-.335.04v.76c.157-.02.335-.039.492-.059.355-.058.453-.234.453-.409zM30.108 5.601h.315c.473 0 .61-.136.61-.429v-.058c0-.273-.216-.39-.59-.39-.06 0-.296.02-.355.02V5.6h.02zM24.887 6.303v-.526c0-.527-.178-.741-.552-.702-.375.039-.552.273-.552.8V6.4c0 .487.158.702.473.702h.079c.374-.04.552-.273.552-.8zM21.852 6.986v-.039c0-.215-.118-.37-.473-.332-.157.02-.335.04-.492.059v.819c.078 0 .295-.039.354-.039.473-.059.611-.215.611-.468zM50.462 37.172v-.156c-.02.058-.039.097-.059.156h.06zM33.714 24.633l-1.537-4.563 1.537 4.622 4.788.02 1.399-4.583v-.02l-1.4 4.563-4.787-.039z"/>
    <path fill="#000" d="M53.556 24.282V8.82h-.394v.975c0 .039-.04.078-.079.058-.197-.039-.374-.097-.571-.136-.04-.02-.08-.059-.08-.117v-.8H51.35v.566c0 .039-.04.078-.079.078-.197-.04-.374-.078-.571-.117-.04-.02-.079-.059-.079-.098v-.39h-1.222v.156c0 .059-.04.078-.079.078-.197-.039-.374-.078-.57-.117-.04 0-.08-.058-.08-.097H14.7v.136c0 .04-.04.098-.079.098-.197.039-.374.078-.571.117-.04 0-.08-.02-.08-.078v-.273h-.472c.04.117.059.234.098.35v.02c0 .04-.039.078-.078.078-.197.04-.414.078-.611.137-.04 0-.079-.02-.079-.059l-.118-.526h-.749c-.06.02-.118.02-.197.039-.06.253-.099.507-.158.76 0 .04-.04.098-.079.098-.197.039-.413.097-.61.136-.04.02-.08 0-.08-.058v-.02c.08-.312.139-.643.218-.955h-.65V24.34c3.33 26.948 21.694 37.44 21.694 37.44s20.059-13.573 21.458-37.499zM39.093 54.877l-6.246-7.137c.138-.136.236-.292.335-.448l6.305 7.215c-.118.117-.256.253-.394.37zm1.064-1.053l-6.62-7.566c.019-.156.039-.312.039-.487 0-.117 0-.215-.02-.332v-.02l5.38 6.163 1.615 1.833c-.138.136-.256.273-.394.41zm10.305-16.652h-.059c.02-.059.04-.098.06-.156V11.705c.925.195 1.773.41 2.699.643v10.238c-.118 3.393-.67 8.638-2.7 14.449v.137zm-3.487-26.13V43.43l-3.449-3.803v-11.27c1.754-1.853 2.601-4.388 2.542-7.176-.04-2.594-.808-5.05-2.542-6.962v-3.744c.986.137 2.463.39 3.449.566zm-4.256 4.114l-.099 3.88 2.384 2.984c-.098 1.404-.532 2.71-1.182 3.861l-3.685 1.034-2.03 3.159c-.63.136-1.3.214-1.99.214s-1.379-.097-2.029-.253l-2.187-3.257-3.645-1.033c-.69-1.15-1.143-2.477-1.301-3.88l2.325-3.043-.236-3.802.394-.449c.808-.819 1.773-1.482 2.837-1.95l3.626 1.385 3.507-1.307c1.064.468 2.03 1.131 2.838 1.95.197.176.335.332.473.507zm-5.892 16.341c.965-.058 2.227-.448 3.093-.76v4.738l-.315-.331-3.172-3.647h.394zm-.374-.682c.295.02.61.039.926.039-.335 0-.63-.02-.926-.04zM31.999 60.59c-.236-.156-.473-.332-.729-.488-4.078-2.808-7.33-5.889-9.95-9.087-3.114-3.783-5.3-7.722-6.858-11.485l-.295-.702c-1.222-3.081-1.99-6.045-2.503-8.697-.571-2.983-.788-5.577-.847-7.546V12.348c9.419-2.398 19.488-3.12 29.103-2.262v1.521c-1.182-.468-2.758-.916-4.039-.936-5.675-.058-10.069 4.68-9.99 10.374.04 2.574.985 4.953 2.542 6.767.256-.137.512-.254.808-.293.02.02.04.02.059.04.276.272.591.526.886.78.08.058.158.116.257.175.256.195.532.37.808.546l.295.175c.296.176.591.312.887.468.098.04.177.098.276.137.473.214.965.39 1.477.526.119.04.257.078.375.098l12.433 14.254c-.118.195-.216.39-.335.585L36.236 33.408v1.423l9.911 11.31c-.098.156-.197.332-.315.488l-9.143-10.432c.04.214.079.78-.079 1.325l8.69 9.926c-.099.156-.217.312-.315.468l-8.611-9.828c-.158.254-.394.468-.71.624l8.75 10.003c-.12.156-.218.312-.336.468l-8.985-10.257c-.394.117-.749.176-1.084.195l9.478 10.842c-.118.156-.236.293-.355.449L33.28 39.14c-.571-.02-.926-.117-.926-.117l-.256.214 5.38 6.162 5.044 5.772c-.119.137-.237.293-.355.43L31.664 39.608l-.709.604 10.581 12.09c-.118.137-.236.273-.374.41l-10.64-12.149-.71.624 1.774 2.028c-.434-.136-.789-.175-.887-.195l-.099-.02-1.28-1.403-.71.604 1.517 1.658.454.078h.079c.137.02.512.078.886.234.335.136.63.331.808.585.02.039.06.078.079.117.098.175.177.526.177.877 0 .332-.059.663-.197.956-.138.292-.354.526-.67.702-.788.41-1.399.487-1.911.487-.315 0-.611-.039-.907-.039h-.315l-.492.43 8.039 9.184c-1.28 1.092-2.68 2.125-4.158 3.12zm5.3-4.056l-.019.02c-.118.097-.236.214-.374.311l-.02.02-7.054-8.054c.217 0 .453-.02.71-.058l6.758 7.76zm-5.733-7.995s.02 0 0 0l.532-.234 6.325 7.234c-.118.117-.256.234-.374.351l-.02.02-6.463-7.371z"/>
    <path fill="#000" d="M36.453 30.814c.296.02.611.04.926.04-.335 0-.63-.02-.926-.04zM28.61 47.896h.316c.296 0 .572.04.906.04.513 0 1.124-.079 1.912-.488.315-.176.532-.41.67-.702.138-.293.216-.624.197-.956 0-.35-.08-.682-.178-.877-.02-.04-.039-.078-.078-.117.02.039.059.078.078.117.099.175.178.526.178.877 0 .332-.06.663-.197.956-.138.292-.355.526-.67.702-.788.41-1.4.487-1.912.487-.315 0-.61-.039-.906-.039h-.315l-.493.43 8.04 9.184c-1.281 1.053-2.68 2.086-4.178 3.08-.236-.155-.473-.33-.71-.487.237.156.474.332.73.488 1.498-.995 2.877-2.028 4.177-3.081l-8.04-9.185.474-.429zM30.541 40.584l-.709.624.71-.624 10.64 12.148c.118-.136.256-.273.374-.41-.118.137-.236.274-.374.41l-10.64-12.148zM35.645 38.75l8.748 10.004c-.118.156-.217.312-.335.468.118-.156.217-.312.335-.468l-8.748-10.003c.315-.156.551-.37.709-.624-.158.234-.394.468-.71.624zM36.59 37.562l8.69 9.925c-.098.156-.216.312-.315.468.099-.156.217-.312.316-.468l-8.69-9.925c.157-.546.118-1.112.079-1.326.039.214.078.78-.08 1.326zM30.62 43.021l-1.28-1.404-.71.605.71-.605 1.28 1.404.098.02c.1.02.454.058.887.195-.433-.137-.788-.176-.887-.195l-.098-.02zM36.217 34.85l9.911 11.31c-.098.157-.197.332-.315.488.098-.156.197-.331.315-.487l-9.911-11.31v-1.424 1.424zM32.099 39.238l5.399 6.162-5.4-6.162.257-.195-.256.195z"/>
    <path fill="#000" d="M35.369 31.458l11.586 13.299c-.118.195-.217.39-.335.585.118-.195.217-.39.335-.585L34.522 30.503c-.119-.04-.256-.078-.375-.098-.512-.156-1.005-.331-1.478-.526-.098-.04-.177-.078-.275-.137-.296-.136-.592-.292-.887-.468l-.296-.175c-.276-.176-.551-.351-.808-.546-.078-.059-.157-.117-.256-.176-.315-.234-.61-.507-.886-.78-.02-.02-.04-.02-.06-.039-.275.04-.551.156-.807.293 1.753 2.008 4.197 3.354 6.975 3.607zM43.488 49.983c-.119.156-.237.292-.355.448.118-.156.236-.312.355-.448L34.01 39.14l9.478 10.842zM31.684 39.609l-.71.604.71-.604L42.186 51.6c.119-.136.237-.292.355-.429-.118.137-.236.293-.355.43L31.684 39.608z"/>
    <path fill="#fff" d="M35.94 14.025l-3.625-1.384c-1.084.448-2.03 1.111-2.838 1.95-.138.136-.276.292-.394.448l.236 3.803-2.344 3.022c.137 1.404.59 2.73 1.3 3.88l3.645 1.034 2.188 3.257c.65.155 1.34.253 2.03.253.689 0 1.359-.078 1.99-.215l2.029-3.159 3.685-1.033c.67-1.15 1.083-2.457 1.182-3.86l-2.384-2.984.098-3.88-.433-.488c-.808-.82-1.774-1.482-2.838-1.95l-3.527 1.306zm3.96 6.104l-1.398 4.602-4.788-.04-1.537-4.62.02-.02-.02-.04 3.822-2.827 3.921 2.886v.059h-.02z"/>
    <path fill="#000" d="M32.177 20.07l1.537 4.563 4.788.04 1.399-4.564-3.902-2.866-3.822 2.827z"/>
    <path fill="#000" d="M36 17.204l-3.823 2.808v.058l3.822-2.827 3.902 2.866v-.039l-3.902-2.866z"/>
    <path fill="#fff" d="M29.852 48.852l7.034 8.053.02-.02c.118-.097.236-.214.374-.311l.02-.02-6.759-7.741c-.256.02-.492.039-.69.039z"/>
    <path fill="#fff" d="M37.3 56.535l-.02.019.02-.02zM29.852 48.852l7.034 8.053.02-.02-.02.02-7.034-8.053zM38.03 55.891c.137-.117.256-.234.374-.35l-6.306-7.235c-.177.078-.354.156-.512.234h-.02l6.444 7.37c0-.019.02-.019.02-.019z"/>
    <path fill="#fff" d="M38.01 55.91l-6.444-7.37 6.444 7.37.02-.019s-.02 0-.02.02zM32.098 48.306c-.177.078-.354.156-.512.234.158-.078.335-.137.512-.234zM33.182 47.292c-.099.156-.197.312-.335.448l6.246 7.137.394-.39-6.305-7.195z"/>
    <path fill="#fff" d="M33.182 47.292c-.099.156-.197.312-.335.448l6.246 7.137-6.246-7.137c.138-.136.236-.292.335-.448zM38.935 51.582l-5.38-6.143v.02c.02.097.02.214.02.331 0 .156-.02.312-.039.488l6.62 7.566c.139-.137.257-.273.395-.41l-1.616-1.852z"/>
    <path fill="#fff" d="M40.551 53.415c-.118.136-.256.273-.394.41.138-.137.256-.274.394-.41l-1.616-1.833 1.616 1.833z"/>
    <path fill="#000" d="M12.65 8.663c.02.058.02.097.04.156h.807c-.197-.741-.374-1.482-.571-2.223-.08-.273-.257-.37-.454-.37-.078 0-.177.019-.256.038-.295.059-.63.215-.729.644-.138.624-.295 1.267-.433 1.91h.906c.217-.058.453-.116.69-.155zm-.513-1.697c0-.039.02-.078.06-.078.039 0 .039.02.059.059.098.39.177.76.275 1.15-.216.04-.433.098-.65.137.08-.43.178-.839.256-1.268z"/>
    <path fill="url(#paint19_linear)" d="M12.65 8.663c.02.058.02.097.04.156h.807c-.197-.741-.374-1.482-.571-2.223-.08-.273-.257-.37-.454-.37-.078 0-.177.019-.256.038-.295.059-.63.215-.729.644-.138.624-.295 1.267-.433 1.91h.906c.217-.058.453-.116.69-.155zm-.513-1.697c0-.039.02-.078.06-.078.039 0 .039.02.059.059.098.39.177.76.275 1.15-.216.04-.433.098-.65.137.08-.43.178-.839.256-1.268z"/>
    <path fill="#000" d="M10.837 9.794c0 .039.04.058.079.058.197-.039.413-.097.61-.136.04-.02.08-.059.08-.098.059-.253.098-.507.157-.76.06-.02.118-.02.197-.039h-.906c-.08.312-.138.643-.217.955v.02z"/>
    <path fill="url(#paint20_linear)" d="M10.837 9.794c0 .039.04.058.079.058.197-.039.413-.097.61-.136.04-.02.08-.059.08-.098.059-.253.098-.507.157-.76.06-.02.118-.02.197-.039h-.906c-.08.312-.138.643-.217.955v.02z"/>
    <path fill="#000" d="M12.69 8.819l.118.526c0 .04.04.078.079.059.197-.039.413-.078.61-.137.04 0 .08-.039.08-.078V9.17c-.04-.117-.06-.234-.1-.351h-.787z"/>
    <path fill="url(#paint21_linear)" d="M12.69 8.819l.118.526c0 .04.04.078.079.059.197-.039.413-.078.61-.137.04 0 .08-.039.08-.078V9.17c-.04-.117-.06-.234-.1-.351h-.787z"/>
    <path fill="#000" d="M14.699 8.819v-1.15c.374-.079.749-.137 1.143-.215.04 0 .079-.058.079-.098v-.409c0-.058-.04-.078-.08-.078-.374.059-.748.137-1.142.215v-.39c0-.234.079-.312.276-.351.295-.059.591-.117.886-.156.04 0 .08-.059.08-.098V5.66c0-.058-.02-.078-.08-.078-.157 0-.374 0-.847.098-.571.097-1.064.35-1.064 1.15v1.989h.749z"/>
    <path fill="url(#paint22_linear)" d="M14.699 8.819v-1.15c.374-.079.749-.137 1.143-.215.04 0 .079-.058.079-.098v-.409c0-.058-.04-.078-.08-.078-.374.059-.748.137-1.142.215v-.39c0-.234.079-.312.276-.351.295-.059.591-.117.886-.156.04 0 .08-.059.08-.098V5.66c0-.058-.02-.078-.08-.078-.157 0-.374 0-.847.098-.571.097-1.064.35-1.064 1.15v1.989h.749z"/>
    <path fill="#000" d="M14.049 9.17c.197-.039.374-.078.571-.117.04 0 .079-.059.079-.098V8.82h-.749v.273c0 .058.04.078.099.078z"/>
    <path fill="url(#paint23_linear)" d="M14.049 9.17c.197-.039.374-.078.571-.117.04 0 .079-.059.079-.098V8.82h-.749v.273c0 .058.04.078.099.078z"/>
    <path fill="#000" d="M17.754 8.546c.315-.059.571-.137.65-.176.06-.02.099-.058.099-.117v-.429c0-.058-.02-.078-.08-.078h-.019c-.177.04-.414.098-.65.137-.296.058-.552-.078-.552-.644v-.546c0-.585.236-.78.552-.819.236-.039.492-.058.65-.058h.02c.059 0 .079-.039.079-.098V5.27c0-.059-.04-.078-.099-.078-.04 0-.099-.02-.197-.02-.118 0-.276.02-.473.04-.67.097-1.3.565-1.3 1.598v.546c.02 1.053.65 1.287 1.32 1.19z"/>
    <path fill="url(#paint24_linear)" d="M17.754 8.546c.315-.059.571-.137.65-.176.06-.02.099-.058.099-.117v-.429c0-.058-.02-.078-.08-.078h-.019c-.177.04-.414.098-.65.137-.296.058-.552-.078-.552-.644v-.546c0-.585.236-.78.552-.819.236-.039.492-.058.65-.058h.02c.059 0 .079-.039.079-.098V5.27c0-.059-.04-.078-.099-.078-.04 0-.099-.02-.197-.02-.118 0-.276.02-.473.04-.67.097-1.3.565-1.3 1.598v.546c.02 1.053.65 1.287 1.32 1.19z"/>
    <path fill="#000" d="M22.581 6.927V6.87c0-.293-.158-.527-.394-.605.236-.136.374-.39.374-.682v-.078c0-.566-.394-.78-.985-.78-.118 0-.256 0-.414.02-.275.038-.65.097-.788.136-.177.039-.236.117-.236.312v2.652c0 .195.059.253.236.253.178 0 .513-.02.808-.039.769-.078 1.399-.35 1.399-1.13zm-1.694-1.54c.059-.02.256-.04.334-.04.454-.058.611.04.611.274v.058c0 .195-.098.351-.453.39-.158.02-.335.04-.492.059v-.741zm0 1.287c.157-.02.334-.04.492-.059.355-.039.473.137.473.332v.039c0 .253-.138.41-.61.448-.06 0-.296.04-.355.04v-.8z"/>
    <path fill="url(#paint25_linear)" d="M22.581 6.927V6.87c0-.293-.158-.527-.394-.605.236-.136.374-.39.374-.682v-.078c0-.566-.394-.78-.985-.78-.118 0-.256 0-.414.02-.275.038-.65.097-.788.136-.177.039-.236.117-.236.312v2.652c0 .195.059.253.236.253.178 0 .513-.02.808-.039.769-.078 1.399-.35 1.399-1.13zm-1.694-1.54c.059-.02.256-.04.334-.04.454-.058.611.04.611.274v.058c0 .195-.098.351-.453.39-.158.02-.335.04-.492.059v-.741zm0 1.287c.157-.02.334-.04.492-.059.355-.039.473.137.473.332v.039c0 .253-.138.41-.61.448-.06 0-.296.04-.355.04v-.8z"/>
    <path fill="#000" d="M25.655 6.245v-.527c0-.936-.493-1.306-1.163-1.306h-.157c-.73.058-1.32.507-1.32 1.52v.527c0 1.014.571 1.346 1.32 1.287.729-.058 1.32-.487 1.32-1.501zm-1.32.838h-.079c-.315 0-.473-.214-.473-.702v-.526c0-.527.177-.76.552-.8.374-.039.552.176.552.702v.527c0 .546-.178.78-.552.8z"/>
    <path fill="url(#paint26_linear)" d="M25.655 6.245v-.527c0-.936-.493-1.306-1.163-1.306h-.157c-.73.058-1.32.507-1.32 1.52v.527c0 1.014.571 1.346 1.32 1.287.729-.058 1.32-.487 1.32-1.501zm-1.32.838h-.079c-.315 0-.473-.214-.473-.702v-.526c0-.527.177-.76.552-.8.374-.039.552.176.552.702v.527c0 .546-.178.78-.552.8z"/>
    <path fill="#000" d="M26.857 4.275c-.197.02-.394.02-.591.04-.04 0-.099.038-.099.077v1.95c0 .995.571 1.229 1.28 1.19.71-.04 1.282-.312 1.282-1.307v-1.95c0-.039-.04-.078-.099-.078-.197 0-.394.02-.571.02-.04 0-.099.039-.099.078v1.95c0 .448-.118.643-.532.663-.394.02-.512-.156-.512-.605v-1.95c.02-.039-.02-.078-.06-.078z"/>
    <path fill="url(#paint27_linear)" d="M26.857 4.275c-.197.02-.394.02-.591.04-.04 0-.099.038-.099.077v1.95c0 .995.571 1.229 1.28 1.19.71-.04 1.282-.312 1.282-1.307v-1.95c0-.039-.04-.078-.099-.078-.197 0-.394.02-.571.02-.04 0-.099.039-.099.078v1.95c0 .448-.118.643-.532.663-.394.02-.512-.156-.512-.605v-1.95c.02-.039-.02-.078-.06-.078z"/>
    <path fill="#000" d="M29.36 4.412v2.925c0 .039.039.078.098.078.197 0 .394 0 .571-.02.06 0 .099-.039.099-.097V6.186h.375c.196.371.393.722.59 1.092.02.04.04.078.08.078h.689c.04 0 .059-.02.059-.058 0-.02 0-.04-.02-.04-.216-.409-.453-.818-.67-1.228.316-.136.572-.409.572-.877v-.059c0-.76-.552-1.013-1.3-1.013h-.04c-.315 0-.69.038-.907.077-.137.059-.197.098-.197.254zm1.103.331c.374 0 .591.117.591.39v.059c0 .292-.138.41-.61.429h-.316v-.839c.04-.019.256-.039.335-.039z"/>
    <path fill="url(#paint28_linear)" d="M29.36 4.412v2.925c0 .039.039.078.098.078.197 0 .394 0 .571-.02.06 0 .099-.039.099-.097V6.186h.375c.196.371.393.722.59 1.092.02.04.04.078.08.078h.689c.04 0 .059-.02.059-.058 0-.02 0-.04-.02-.04-.216-.409-.453-.818-.67-1.228.316-.136.572-.409.572-.877v-.059c0-.76-.552-1.013-1.3-1.013h-.04c-.315 0-.69.038-.907.077-.137.059-.197.098-.197.254zm1.103.331c.374 0 .591.117.591.39v.059c0 .292-.138.41-.61.429h-.316v-.839c.04-.019.256-.039.335-.039z"/>
    <path fill="#000" d="M32.985 4.139h-.453c-.099 0-.158.078-.158.156v3.003c0 .058.04.097.098.097h.533c.039 0 .098-.039.098-.078V5.543c0-.02 0-.04.02-.04s.02 0 .04.04c.334.585.67 1.15 1.004 1.735.079.117.138.137.237.137.137 0 .295 0 .433.02.099 0 .177-.06.177-.157V4.275c0-.039-.039-.078-.098-.078-.177 0-.355-.02-.532-.02-.04 0-.099.04-.099.079v1.852c0 .04-.02.04-.02.04-.02 0-.02 0-.039-.04l-1.064-1.813c-.04-.098-.079-.156-.177-.156z"/>
    <path fill="url(#paint29_linear)" d="M32.985 4.139h-.453c-.099 0-.158.078-.158.156v3.003c0 .058.04.097.098.097h.533c.039 0 .098-.039.098-.078V5.543c0-.02 0-.04.02-.04s.02 0 .04.04c.334.585.67 1.15 1.004 1.735.079.117.138.137.237.137.137 0 .295 0 .433.02.099 0 .177-.06.177-.157V4.275c0-.039-.039-.078-.098-.078-.177 0-.355-.02-.532-.02-.04 0-.099.04-.099.079v1.852c0 .04-.02.04-.02.04-.02 0-.02 0-.039-.04l-1.064-1.813c-.04-.098-.079-.156-.177-.156z"/>
    <path fill="#000" d="M36.354 5.543v-.39c0-.234.08-.293.276-.293l.907.059c.04 0 .078-.04.078-.078v-.41c0-.058-.02-.078-.078-.097-.158-.039-.375-.078-.867-.098h-.158c-.512 0-.926.156-.926.897v1.443c0 .8.512.956 1.084.995.473.02.709 0 .867 0 .059 0 .078-.02.078-.078v-.41c0-.039-.039-.097-.078-.097l-.907-.059c-.217 0-.276-.078-.276-.312v-.468l1.143.059c.04 0 .08-.04.08-.078v-.41c0-.039-.04-.097-.08-.097-.374-.04-.748-.059-1.143-.078z"/>
    <path fill="url(#paint30_linear)" d="M36.354 5.543v-.39c0-.234.08-.293.276-.293l.907.059c.04 0 .078-.04.078-.078v-.41c0-.058-.02-.078-.078-.097-.158-.039-.375-.078-.867-.098h-.158c-.512 0-.926.156-.926.897v1.443c0 .8.512.956 1.084.995.473.02.709 0 .867 0 .059 0 .078-.02.078-.078v-.41c0-.039-.039-.097-.078-.097l-.907-.059c-.217 0-.276-.078-.276-.312v-.468l1.143.059c.04 0 .08-.04.08-.078v-.41c0-.039-.04-.097-.08-.097-.374-.04-.748-.059-1.143-.078z"/>
    <path fill="#000" d="M40.532 7.785l.59.059c.04 0 .08 0 .08-.059V4.763c0-.097-.06-.156-.158-.175-.138-.02-.276-.02-.414-.04-.098 0-.157.04-.197.098-.216.39-.453.78-.67 1.19-.02.038-.04.058-.04.058-.019 0-.038-.02-.038-.059-.237-.428-.454-.877-.67-1.306-.04-.078-.099-.117-.197-.136-.138-.02-.276-.02-.414-.04h-.02c-.079 0-.138.059-.138.137v3.042c0 .039.04.058.079.058.197.02.394.02.591.04.04 0 .079-.04.079-.079V5.738c0-.039.02-.039.02-.039.02 0 .02.02.039.039.138.253.276.507.394.76.04.059.079.078.138.078.118 0 .236.02.355.02.059 0 .098-.02.138-.059.138-.234.256-.448.394-.682.02-.02.02-.02.04-.02.019 0 .019 0 .019.04v1.832c-.079.04-.04.078 0 .078z"/>
    <path fill="url(#paint31_linear)" d="M40.532 7.785l.59.059c.04 0 .08 0 .08-.059V4.763c0-.097-.06-.156-.158-.175-.138-.02-.276-.02-.414-.04-.098 0-.157.04-.197.098-.216.39-.453.78-.67 1.19-.02.038-.04.058-.04.058-.019 0-.038-.02-.038-.059-.237-.428-.454-.877-.67-1.306-.04-.078-.099-.117-.197-.136-.138-.02-.276-.02-.414-.04h-.02c-.079 0-.138.059-.138.137v3.042c0 .039.04.058.079.058.197.02.394.02.591.04.04 0 .079-.04.079-.079V5.738c0-.039.02-.039.02-.039.02 0 .02.02.039.039.138.253.276.507.394.76.04.059.079.078.138.078.118 0 .236.02.355.02.059 0 .098-.02.138-.059.138-.234.256-.448.394-.682.02-.02.02-.02.04-.02.019 0 .019 0 .019.04v1.832c-.079.04-.04.078 0 .078z"/>
    <path fill="#000" d="M44.354 6.869v-.526c0-1.014-.572-1.482-1.3-1.58-.08 0-.158-.02-.217-.02-.63 0-1.084.352-1.084 1.268v.526c0 1.014.571 1.463 1.32 1.56.69.098 1.28-.214 1.28-1.228zm-1.852-.234v-.526c0-.527.177-.722.551-.683.375.039.552.293.552.819v.526c0 .468-.138.683-.453.683h-.099c-.394-.059-.551-.293-.551-.819z"/>
    <path fill="url(#paint32_linear)" d="M44.354 6.869v-.526c0-1.014-.572-1.482-1.3-1.58-.08 0-.158-.02-.217-.02-.63 0-1.084.352-1.084 1.268v.526c0 1.014.571 1.463 1.32 1.56.69.098 1.28-.214 1.28-1.228zm-1.852-.234v-.526c0-.527.177-.722.551-.683.375.039.552.293.552.819v.526c0 .468-.138.683-.453.683h-.099c-.394-.059-.551-.293-.551-.819z"/>
    <path fill="#000" d="M47.428 5.523c0-.039-.039-.097-.098-.097-.197-.04-.374-.059-.572-.098-.039 0-.078.02-.078.059v1.95c0 .448-.119.604-.513.546-.394-.059-.512-.273-.512-.722v-1.95c0-.039-.04-.097-.079-.097-.197-.02-.394-.059-.571-.078h-.02c-.04 0-.079.02-.079.078v1.95c0 .994.572 1.345 1.281 1.443.71.117 1.28-.059 1.28-1.053v-1.93h-.039z"/>
    <path fill="url(#paint33_linear)" d="M47.428 5.523c0-.039-.039-.097-.098-.097-.197-.04-.374-.059-.572-.098-.039 0-.078.02-.078.059v1.95c0 .448-.119.604-.513.546-.394-.059-.512-.273-.512-.722v-1.95c0-.039-.04-.097-.079-.097-.197-.02-.394-.059-.571-.078h-.02c-.04 0-.079.02-.079.078v1.95c0 .994.572 1.345 1.281 1.443.71.117 1.28-.059 1.28-1.053v-1.93h-.039z"/>
    <path fill="#000" d="M49.379 8.819V6.42c.236.04.473.098.71.137.039.02.098-.02.098-.059V6.05c0-.04-.04-.098-.099-.098-.729-.156-1.458-.273-2.167-.41h-.02c-.04 0-.079.02-.079.079v.429c0 .039.04.097.099.097.236.04.473.078.71.137v2.535h.748z"/>
    <path fill="url(#paint34_linear)" d="M49.379 8.819V6.42c.236.04.473.098.71.137.039.02.098-.02.098-.059V6.05c0-.04-.04-.098-.099-.098-.729-.156-1.458-.273-2.167-.41h-.02c-.04 0-.079.02-.079.079v.429c0 .039.04.097.099.097.236.04.473.078.71.137v2.535h.748z"/>
    <path fill="#000" d="M48.709 8.936c.197.039.374.078.571.117.04 0 .08-.02.08-.078v-.156h-.75c.02.058.06.097.099.117z"/>
    <path fill="url(#paint35_linear)" d="M48.709 8.936c.197.039.374.078.571.117.04 0 .08-.02.08-.078v-.156h-.75c.02.058.06.097.099.117z"/>
    <path fill="#000" d="M51.349 8.097c.355.078.71.156 1.084.234V8.8h.748V6.694c0-.04-.039-.098-.078-.098-.197-.039-.375-.097-.572-.136-.04-.02-.078.019-.078.058v1.17c-.355-.078-.71-.156-1.084-.234v-1.17c0-.039-.04-.097-.08-.097-.196-.04-.373-.078-.57-.117h-.02c-.04 0-.06.019-.06.058v2.691h.75v-.722h-.04z"/>
    <path fill="url(#paint36_linear)" d="M51.349 8.097c.355.078.71.156 1.084.234V8.8h.748V6.694c0-.04-.039-.098-.078-.098-.197-.039-.375-.097-.572-.136-.04-.02-.078.019-.078.058v1.17c-.355-.078-.71-.156-1.084-.234v-1.17c0-.039-.04-.097-.08-.097-.196-.04-.373-.078-.57-.117h-.02c-.04 0-.06.019-.06.058v2.691h.75v-.722h-.04z"/>
    <path fill="#000" d="M52.413 9.599c0 .058.04.097.08.117.196.039.373.097.57.136.04.02.08-.019.08-.058v-.975h-.75v.78h.02z"/>
    <path fill="url(#paint37_linear)" d="M52.413 9.599c0 .058.04.097.08.117.196.039.373.097.57.136.04.02.08-.019.08-.058v-.975h-.75v.78h.02z"/>
    <path fill="#000" d="M50.68 9.306c.197.04.374.078.571.117.04 0 .079-.02.079-.078V8.8h-.749v.39c.02.059.06.117.099.117z"/>
    <path fill="url(#paint38_linear)" d="M50.68 9.306c.197.04.374.078.571.117.04 0 .079-.02.079-.078V8.8h-.749v.39c.02.059.06.117.099.117z"/>
    <defs>
        <linearGradient id="paint0_linear" x1="30.491" x2="50.811" y1="61.106" y2="7.791" gradientUnits="userSpaceOnUse">
            <stop stop-color="#8B0304"/>
            <stop offset="1" stop-color="#ED1C24"/>
        </linearGradient>
        <linearGradient id="paint1_linear" x1="24.293" x2="44.613" y1="58.744" y2="5.428" gradientUnits="userSpaceOnUse">
            <stop stop-color="#8B0304"/>
            <stop offset="1" stop-color="#ED1C24"/>
        </linearGradient>
        <linearGradient id="paint2_linear" x1="24.535" x2="44.855" y1="58.837" y2="5.521" gradientUnits="userSpaceOnUse">
            <stop stop-color="#8B0304"/>
            <stop offset="1" stop-color="#ED1C24"/>
        </linearGradient>
        <linearGradient id="paint3_linear" x1="32.201" x2="52.521" y1="61.758" y2="8.442" gradientUnits="userSpaceOnUse">
            <stop stop-color="#8B0304"/>
            <stop offset="1" stop-color="#ED1C24"/>
        </linearGradient>
        <linearGradient id="paint4_linear" x1="33.217" x2="53.537" y1="62.145" y2="8.829" gradientUnits="userSpaceOnUse">
            <stop stop-color="#8B0304"/>
            <stop offset="1" stop-color="#ED1C24"/>
        </linearGradient>
        <linearGradient id="paint5_linear" x1="34.442" x2="54.762" y1="62.612" y2="9.296" gradientUnits="userSpaceOnUse">
            <stop stop-color="#8B0304"/>
            <stop offset="1" stop-color="#ED1C24"/>
        </linearGradient>
        <linearGradient id="paint6_linear" x1="35.442" x2="55.762" y1="62.993" y2="9.677" gradientUnits="userSpaceOnUse">
            <stop stop-color="#8B0304"/>
            <stop offset="1" stop-color="#ED1C24"/>
        </linearGradient>
        <linearGradient id="paint7_linear" x1="31.233" x2="51.553" y1="61.389" y2="8.073" gradientUnits="userSpaceOnUse">
            <stop stop-color="#8B0304"/>
            <stop offset="1" stop-color="#ED1C24"/>
        </linearGradient>
        <linearGradient id="paint8_linear" x1="32.146" x2="52.467" y1="61.737" y2="8.422" gradientUnits="userSpaceOnUse">
            <stop stop-color="#8B0304"/>
            <stop offset="1" stop-color="#ED1C24"/>
        </linearGradient>
        <linearGradient id="paint9_linear" x1="27.82" x2="48.14" y1="60.088" y2="6.773" gradientUnits="userSpaceOnUse">
            <stop stop-color="#8B0304"/>
            <stop offset="1" stop-color="#ED1C24"/>
        </linearGradient>
        <linearGradient id="paint10_linear" x1="32.125" x2="52.445" y1="61.729" y2="8.413" gradientUnits="userSpaceOnUse">
            <stop stop-color="#8B0304"/>
            <stop offset="1" stop-color="#ED1C24"/>
        </linearGradient>
        <linearGradient id="paint11_linear" x1="33.195" x2="53.515" y1="62.137" y2="8.821" gradientUnits="userSpaceOnUse">
            <stop stop-color="#8B0304"/>
            <stop offset="1" stop-color="#ED1C24"/>
        </linearGradient>
        <linearGradient id="paint12_linear" x1="31.77" x2="52.09" y1="61.594" y2="8.278" gradientUnits="userSpaceOnUse">
            <stop stop-color="#8B0304"/>
            <stop offset="1" stop-color="#ED1C24"/>
        </linearGradient>
        <linearGradient id="paint13_linear" x1="31.26" x2="51.58" y1="61.399" y2="8.084" gradientUnits="userSpaceOnUse">
            <stop stop-color="#8B0304"/>
            <stop offset="1" stop-color="#ED1C24"/>
        </linearGradient>
        <linearGradient id="paint14_linear" x1="13.833" x2="34.153" y1="54.758" y2="1.442" gradientUnits="userSpaceOnUse">
            <stop stop-color="#8B0304"/>
            <stop offset="1" stop-color="#ED1C24"/>
        </linearGradient>
        <linearGradient id="paint15_linear" x1="34.759" x2="55.079" y1="62.733" y2="9.417" gradientUnits="userSpaceOnUse">
            <stop stop-color="#8B0304"/>
            <stop offset="1" stop-color="#ED1C24"/>
        </linearGradient>
        <linearGradient id="paint16_linear" x1="31.529" x2="51.849" y1="61.502" y2="8.186" gradientUnits="userSpaceOnUse">
            <stop stop-color="#8B0304"/>
            <stop offset="1" stop-color="#ED1C24"/>
        </linearGradient>
        <linearGradient id="paint17_linear" x1="32.647" x2="52.967" y1="61.928" y2="8.612" gradientUnits="userSpaceOnUse">
            <stop stop-color="#8B0304"/>
            <stop offset="1" stop-color="#ED1C24"/>
        </linearGradient>
        <linearGradient id="paint18_linear" x1="30.33" x2="50.65" y1="61.045" y2="7.729" gradientUnits="userSpaceOnUse">
            <stop stop-color="#8B0304"/>
            <stop offset="1" stop-color="#ED1C24"/>
        </linearGradient>
        <linearGradient id="paint19_linear" x1="13.417" x2="36.864" y1="8.683" y2="26.397" gradientUnits="userSpaceOnUse">
            <stop stop-color="#A8996E"/>
            <stop offset=".442" stop-color="#FFE5C7"/>
            <stop offset="1" stop-color="#A8996E"/>
        </linearGradient>
        <linearGradient id="paint20_linear" x1="12.38" x2="35.828" y1="10.055" y2="27.77" gradientUnits="userSpaceOnUse">
            <stop stop-color="#A8996E"/>
            <stop offset=".442" stop-color="#FFE5C7"/>
            <stop offset="1" stop-color="#A8996E"/>
        </linearGradient>
        <linearGradient id="paint21_linear" x1="13.124" x2="36.571" y1="9.071" y2="26.785" gradientUnits="userSpaceOnUse">
            <stop stop-color="#A8996E"/>
            <stop offset=".442" stop-color="#FFE5C7"/>
            <stop offset="1" stop-color="#A8996E"/>
        </linearGradient>
        <linearGradient id="paint22_linear" x1="14.686" x2="38.13" y1="7.015" y2="24.727" gradientUnits="userSpaceOnUse">
            <stop stop-color="#A8996E"/>
            <stop offset=".442" stop-color="#FFE5C7"/>
            <stop offset="1" stop-color="#A8996E"/>
        </linearGradient>
        <linearGradient id="paint23_linear" x1="13.61" x2="37.054" y1="8.438" y2="26.15" gradientUnits="userSpaceOnUse">
            <stop stop-color="#A8996E"/>
            <stop offset=".442" stop-color="#FFE5C7"/>
            <stop offset="1" stop-color="#A8996E"/>
        </linearGradient>
        <linearGradient id="paint24_linear" x1="15.853" x2="39.38" y1="5.456" y2="23.23" gradientUnits="userSpaceOnUse">
            <stop stop-color="#A8996E"/>
            <stop offset=".442" stop-color="#FFE5C7"/>
            <stop offset="1" stop-color="#A8996E"/>
        </linearGradient>
        <linearGradient id="paint25_linear" x1="17.305" x2="40.666" y1="3.562" y2="21.212" gradientUnits="userSpaceOnUse">
            <stop stop-color="#A8996E"/>
            <stop offset=".442" stop-color="#FFE5C7"/>
            <stop offset="1" stop-color="#A8996E"/>
        </linearGradient>
        <linearGradient id="paint26_linear" x1="18.585" x2="42.025" y1="1.835" y2="19.544" gradientUnits="userSpaceOnUse">
            <stop stop-color="#A8996E"/>
            <stop offset=".442" stop-color="#FFE5C7"/>
            <stop offset="1" stop-color="#A8996E"/>
        </linearGradient>
        <linearGradient id="paint27_linear" x1="19.951" x2="43.303" y1=".093" y2="17.735" gradientUnits="userSpaceOnUse">
            <stop stop-color="#A8996E"/>
            <stop offset=".442" stop-color="#FFE5C7"/>
            <stop offset="1" stop-color="#A8996E"/>
        </linearGradient>
        <linearGradient id="paint28_linear" x1="20.865" x2="44.298" y1="-1.186" y2="16.519" gradientUnits="userSpaceOnUse">
            <stop stop-color="#A8996E"/>
            <stop offset=".442" stop-color="#FFE5C7"/>
            <stop offset="1" stop-color="#A8996E"/>
        </linearGradient>
        <linearGradient id="paint29_linear" x1="22.043" x2="45.572" y1="-2.827" y2="14.949" gradientUnits="userSpaceOnUse">
            <stop stop-color="#A8996E"/>
            <stop offset=".442" stop-color="#FFE5C7"/>
            <stop offset="1" stop-color="#A8996E"/>
        </linearGradient>
        <linearGradient id="paint30_linear" x1="23.17" x2="46.608" y1="-4.213" y2="13.495" gradientUnits="userSpaceOnUse">
            <stop stop-color="#A8996E"/>
            <stop offset=".442" stop-color="#FFE5C7"/>
            <stop offset="1" stop-color="#A8996E"/>
        </linearGradient>
        <linearGradient id="paint31_linear" x1="24.018" x2="47.541" y1="-5.473" y2="12.298" gradientUnits="userSpaceOnUse">
            <stop stop-color="#A8996E"/>
            <stop offset=".442" stop-color="#FFE5C7"/>
            <stop offset="1" stop-color="#A8996E"/>
        </linearGradient>
        <linearGradient id="paint32_linear" x1="25.127" x2="48.569" y1="-6.82" y2="10.89" gradientUnits="userSpaceOnUse">
            <stop stop-color="#A8996E"/>
            <stop offset=".442" stop-color="#FFE5C7"/>
            <stop offset="1" stop-color="#A8996E"/>
        </linearGradient>
        <linearGradient id="paint33_linear" x1="26.06" x2="49.579" y1="-8.183" y2="9.586" gradientUnits="userSpaceOnUse">
            <stop stop-color="#A8996E"/>
            <stop offset=".442" stop-color="#FFE5C7"/>
            <stop offset="1" stop-color="#A8996E"/>
        </linearGradient>
        <linearGradient id="paint34_linear" x1="26.997" x2="50.357" y1="-9.172" y2="8.477" gradientUnits="userSpaceOnUse">
            <stop stop-color="#A8996E"/>
            <stop offset=".442" stop-color="#FFE5C7"/>
            <stop offset="1" stop-color="#A8996E"/>
        </linearGradient>
        <linearGradient id="paint35_linear" x1="26.156" x2="49.516" y1="-8.059" y2="9.59" gradientUnits="userSpaceOnUse">
            <stop stop-color="#A8996E"/>
            <stop offset=".442" stop-color="#FFE5C7"/>
            <stop offset="1" stop-color="#A8996E"/>
        </linearGradient>
        <linearGradient id="paint36_linear" x1="27.749" x2="51.11" y1="-10.12" y2="7.529" gradientUnits="userSpaceOnUse">
            <stop stop-color="#A8996E"/>
            <stop offset=".442" stop-color="#FFE5C7"/>
            <stop offset="1" stop-color="#A8996E"/>
        </linearGradient>
        <linearGradient id="paint37_linear" x1="27.349" x2="50.709" y1="-9.59" y2="8.059" gradientUnits="userSpaceOnUse">
            <stop stop-color="#A8996E"/>
            <stop offset=".442" stop-color="#FFE5C7"/>
            <stop offset="1" stop-color="#A8996E"/>
        </linearGradient>
        <linearGradient id="paint38_linear" x1="26.789" x2="50.15" y1="-8.849" y2="8.8" gradientUnits="userSpaceOnUse">
            <stop stop-color="#A8996E"/>
            <stop offset=".442" stop-color="#FFE5C7"/>
            <stop offset="1" stop-color="#A8996E"/>
        </linearGradient>
    </defs>
</svg>
