<svg xmlns="http://www.w3.org/2000/svg" width="64" height="65" fill="none" viewBox="0 0 64 65">
    <path fill="#fff" d="M23.686 49.359s-6.621-3.34-9.889-8.39c0 4.366-.172 9.845-.172 9.845l10.147 1.97-.086-3.425zM41.233 49.449s6.62-3.083 9.888-8.134c0 4.367.172 9.503.172 9.503l-10.146 1.97.086-3.34z"/>
    <path fill="#fff" d="M41.266 55.855H23.64v-8.047h17.627v8.047z"/>
    <path fill="#fff" d="M37.728 48.395c0 2.825-2.322 5.137-5.245 5.137-2.924 0-5.246-2.312-5.246-5.137 0-2.825 2.322-5.137 5.246-5.137 2.923 0 5.245 2.312 5.245 5.137zM11.37 51.084V43.55l-.43-.17v-1.028l.43-.171v-.685l-.43-.172v-1.198l1.461-1.37v-.343s.086-.256.43-.256h.43s.344.085.344.257v.342l1.548 1.455v1.199l-.43.171v.685l.43.171V50.314l-3.784.77zM53.726 51.084V43.55l.43-.17v-1.028l-.43-.171v-.685l.43-.172v-1.198l-1.462-1.37v-.343s-.086-.256-.43-.256h-.43s-.344.085-.344.257v.342l-1.548 1.455v1.199l.43.171v.685l-.43.171V50.314l3.784.77zM32.027 61.655c-3.697 0-6.02-1.284-8.513-2.568-1.29-.685-2.665-1.456-4.213-1.97-4.472-1.54-7.481.343-7.567.429l-.602-.942c.172-.086 3.525-2.226 8.513-.514 1.72.6 3.095 1.284 4.385 2.055 2.58 1.37 4.987 2.654 8.943 2.397 3.698-.257 6.277-1.455 8.77-2.74 1.033-.513 2.065-1.027 3.096-1.37.087 0 .172-.085.258-.085 1.29-.514 5.332-2.055 8.771.514l-.688.856c-3.01-2.226-6.449-.856-7.739-.428-.086 0-.172.085-.258.085-1.031.343-1.977.856-3.01 1.37-2.407 1.284-5.159 2.654-9.114 2.911h-1.032z"/>
    <path fill="#fff" d="M51.698 59.672l-.774-.514c-.172-.086-.602-.171-1.118-.086-.086 0-.172 0-.258.086-.43.085-.86.171-1.29-.086-.172-.085-.344-.342-.344-.77 0-.343.172-.6.43-.856.86-.685 3.01-.172 3.612 0 .43.085.86.085.945 0 .172-2.398 1.204-4.11 1.72-4.88-3.87-2.483-9.802-1.2-12.124.256-3.354 2.14-6.105 3.425-9.717 3.425-3.01 0-5.59-1.284-8.34-2.569-1.549-.77-3.096-1.54-4.816-2.054-3.612-1.199-7.74.171-9.373.77.602.77 1.462 2.398 1.548 4.623.086.086.516.172.946 0 .688-.17 2.751-.513 3.611.172.258.257.344.513.344.856 0 .428-.258.685-.344.77-.43.257-.86.172-1.29.086-.086 0-.172-.086-.258-.086-.258 0-.774 0-.945.172l-.774.428V58.13c-.344.086-1.204.172-1.806-.256-.258-.172-.43-.514-.43-.857-.086-2.91-1.72-4.452-1.72-4.452l-.516-.513.688-.343c.258-.085 5.847-2.74 10.835-1.113 1.805.6 3.44 1.37 4.987 2.14 2.58 1.285 5.073 2.484 7.825 2.484 3.268 0 5.933-1.285 9.115-3.254 2.666-1.626 9.459-3.082 13.844 0l.516.343-.516.342s-1.548 1.884-1.806 4.709c0 .342-.172.6-.43.856-.688.428-1.547.257-1.891.171l-.086 1.285z"/>
    <path fill="#fff" d="M16.435 57.273s-.515-.513-.773-.941c-.43-.77-3.956.77-3.956.77l.946.172M48.241 57.483s.602-.514.774-.942c.516-.77 3.956.856 3.956.856l-.946.172"/>
    <path fill="#fff" d="M11.264 57.305s-.085-2.14-.601-3.082c-.516-.942-.688-1.884-.688-1.884s3.01-1.54 4.901-1.626c1.892 0 6.707.77 8.255 1.626 1.462.856 5.503 2.997 7.653 3.51 2.064.429 5.59-.085 7.739-.941 2.15-.856 3.611-2.398 4.471-2.825.86-.429 3.698-1.37 5.59-1.542 1.891-.17 4.213.6 5.503.857 1.29.256 1.032.684 1.032.684l-1.548 4.88s-2.494-.856-4.127-.856c-1.634-.085-4.472 1.199-5.332 1.541-.86.343-4.73 1.884-5.933 2.398-1.204.513-5.417 1.626-7.825 1.027-2.408-.514-7.051-2.91-8.255-3.51-1.29-.514-5.675-1.97-6.277-1.712-.516.256-4.558 1.455-4.558 1.455zM35.466 39.094h-.086.086zm17.112-28.68c-.086-.257-.516-.514-2.408-.514h-1.462c-1.118.085-2.236.342-3.267.77 1.29-1.54 3.353-2.568 4.557-3.082.086 0 .258-.085.258-.171.086-.086.172-.171.086-.342-.172-.257-.688-.343-1.118-.343-.43 0-.946.086-1.72.171-.344 0-.688.086-1.032.172h-.086c-1.461.342-2.751.941-3.87 1.797-.171.086-.343.257-.429.343l1.118-1.284c.516-.77 1.032-1.541 1.548-2.226 0-.086.086-.086.086-.172 0-.085.172-.256.086-.342-.086-.086-.172-.171-.344-.171s-.688.085-2.752 1.626c-1.978 1.37-3.612 3.083-4.815 5.052-.516.856-1.376 2.482-1.634 3.595 0-.085 0-.256-.086-.342-.086-.428-.086-.942-.086-1.455 0-.685 0-1.285.086-1.627 0-.171 0-.514-.172-.6-.172 0-.43.258-.43.429-1.032 2.311-1.29 4.195-1.376 5.393l-.43 3.425c0 .257-.258 1.37-.258 1.37-.258-.514-.516-.856-.688-1.37v-.086l-.344-.513c-.516-.6-.946-.857-1.547-1.199-.774-.514-1.806-1.113-3.268-2.74-.774-.941-1.72-2.825-2.064-4.11-.602-2.567-.516-5.65.172-8.39.086-.17.086-.513 0-.599-.086-.085-.172-.17-.258-.17-.258 0-.43.17-1.806 2.31-.86 1.37-1.547 2.997-1.805 4.624-.086.342-.086.685-.172 1.027-.344-.77-.602-1.54-.774-2.397-.43-1.798-.602-3.51-.43-5.137v-.428c-.086-.085-.172-.085-.258-.085-.258 0-.774.342-1.72 2.91-.946 2.398-1.204 4.624-.946 7.02-1.032-1.369-1.462-3.252-1.891-4.88-.087-.427-.173-.855-.345-1.198-.085-.171-.171-.685-.344-.6 0 0-.171.429-.171.515-.086.085-.086.256-.086.513v.514c-.086 1.284-.258 4.537 1.461 7.962v.086c0 .085.086.085.086.171.172.428.43.77.602 1.113.086.086.172.257.172.342.258.428.43.685.688.857-.946-.172-2.407-.514-3.01-.6-.171 0-.343.086-.343.172-.086.17 0 .342.172.428.601.342 1.633 1.284 2.665 2.311l1.892 1.798.172.171c.602.6 1.29 1.199 1.892 1.798l-1.29-.171c-.172 0-.258.085-.344.171-.086.171 0 .257.086.428l3.096 2.483 1.375 1.027 2.322 1.884c.086.085.086.085.172.085h.602c-1.29.514-2.408.514-3.784.086-1.031-.342-2.063-.856-2.837-1.54-.086-.087-.43-.258-.516-.172-.086.085 0 .428 0 .6.258.598.774 1.198 1.204 1.711-1.634-.17-3.01-.684-4.73-1.37-.172-.085-.344-.256-.516-.085-.086.086 0 .514.086.6.774 1.198 1.376 1.968 1.978 2.568.602.685 1.462 1.284 1.892 1.54.086.086.258.172 1.29.172.344 0 .774 0 1.118-.086h.086c-1.032.343-1.892.514-2.666.343-.172 0-.516 0-.602.171 0 .171.258.428.43.514 1.204.428 2.322.685 3.44.856.343.085 1.375.342 2.493.428h.43c.43 0 .86.086 1.29.086.344 0 .688 0 1.032-.086v.086l.258.513c-.086 0-.172.086-.172.086-.086.085-.086.257-.086.428l.43.77v.086h-.086c0 .086-.086.171 0 .343.258.856.602 1.198.946 1.37.172.17.344.256.43.513 0 .171.086.343.172.514.086.428.343 1.027.172 1.198-.172.343-.344.428-.516.6-.172.085-.344.256-.516.428-.516.428-.602 1.113-.086 1.883v.086s.172.085.344.085.258-.17.258-.256c.086-.514 1.032-.942 1.204-.942.343 0 .601 0 .773-.257.344-.342 2.064-.342 2.064-.342s.172 0 .516.085c.086 0 .086.086.172.086s.086.085.172.085c0 0 .602.257.688.257.086.086 1.118.685 1.204.685.086 0 .602.77.688.77.172.172.172.172.172-.085.344-.257.688-.685.86-1.199.172-.513.085-1.027-.258-1.455 0 0 0-.086-.086-.086 0 0-.172-.085-.344-.256-.258-.172-.602-.514-.688-.6-.258-.257-.344-.599-.516-.941.086 0 .172-.086.258-.086.086-.086.086-.171.086-.257l-.086-.257c-.086-.342-.172-.6-.172-1.027.172 0 .344-.171.344-.343 0-.085 0-.085-.086-.17l-.344-1.028.086.085c.086.086.344.257.43.257.172-.085.172-.257.172-.428.086-.685.602-1.37 1.117-1.712 0 .085.087.171.087.171.085.086.085.343.172.343.086 0 .258-.172.43-.343.257-.257.43-.428.687-.514l1.118.428c.086.172.172.514.43.771.258.171.43.257.86.514 0 0 .086.085.172.085 0 0-.086 0-.086.086-.258 0-.602.171-.602.257 0 .171.344.257.516.342.258.086.516.172.86.172.602 0 1.032-.172 1.376-.6.172-.257.258-.685.258-1.027-.086-.343-.172-1.113-.258-1.37l.344-1.027v-.086c0-.514-.172-1.027-.43-1.627 0 0 0-.085-.086-.085v-.086l-.258-.514c-.86-1.37-1.978-2.482-2.064-2.482-.086-.086-.258-.257-.43-.172-.086.086-.172.343-.172.428v.086c-.086-.171-.43-.514-.43-.6-.172-.256-.258-.427-.258-.599 1.032-4.623 4.042-7.62 4.042-7.705.086-.085.086-.085.086-.171.688-6.592 8.169-9.503 8.255-9.503l.258-.086c.258-.257.344-.428.258-.513z"/>
    <path fill="#292D6B" d="M32.032 61.298c-3.612 0-5.933-1.199-8.341-2.569-1.29-.684-2.666-1.455-4.3-1.969-4.643-1.54-7.824.428-7.824.428l-.258-.428c.172-.085 3.353-2.14 8.255-.513 1.633.513 3.01 1.284 4.385 1.969 2.58 1.37 5.073 2.654 9.115 2.483 3.783-.257 6.363-1.456 8.857-2.74 1.032-.514 2.063-1.028 3.095-1.37.086 0 .172-.085.258-.085 1.376-.514 5.16-2.055 8.513.513l-.258.343c-3.267-2.226-6.879-.856-8.169-.343-.086 0-.172.086-.258.086-1.032.342-1.977.856-3.01 1.37-2.407 1.198-5.159 2.568-9.028 2.74-.344.085-.688.085-1.032.085z"/>
    <path fill="#1B458F" d="M31.543 57.6h-.086v.77h.086c.258 0 .43-.086.43-.428 0-.172-.172-.343-.43-.343zM33.916 58.634l.516-.086-.344-.856-.172.942zM26.045 57.247l.172-.942-.688.685.516.257zM16.465 52.51h-.172l-.086.77h.172c.258 0 .43-.086.43-.343.086-.256-.086-.428-.344-.428zM39.098 57.169l.516-.257-.602-.77.086 1.027z"/>
    <path fill="#1B458F" d="M52.005 55.16c-.258 0-.43-.172-.43-.343 0-.257.172-.428.344-.428.258 0 .43.17.43.342.086.171-.086.428-.344.428zm-.688-2.312c-.086-.172-.258-.257-.516-.257-.43 0-.688.257-.774.685-.086.513.172.856.602.856.172 0 .43 0 .602-.086v.685c-.258.086-.516.171-.86.086-.86-.086-1.376-.685-1.29-1.627.086-.856.688-1.455 1.634-1.37.258 0 .516.086.688.257l-.086.77zm-2.666 1.883c-.258 0-.43-.171-.43-.342 0-.257.172-.428.344-.428.258 0 .43.17.43.342 0 .257-.172.428-.344.428zm-1.203.171l-.86.172-.602-2.826 1.806-.342.172.685-.946.17.086.429.688-.171.258.685-.774.17.172 1.028zm-3.784 1.37l-1.118-2.74 1.806-.684.258.599-1.032.428.172.428.774-.342.344.599-.86.342.172.428 1.032-.428.258.6-1.806.77zm-1.032.514c-.774.428-1.548.085-1.978-.685-.43-.77-.172-1.627.688-1.97.258-.17.516-.17.774-.17l.258.77c-.172 0-.43-.086-.602.086-.344.17-.43.599-.258 1.027.258.428.602.6.946.428.172-.085.344-.257.43-.428l.43.6c-.172 0-.43.17-.688.342zm-2.235 1.113l-.344-.428-.86.342.086.514-.774.342-.258-3.082.86-.428 2.063 2.14c0 .086-.773.6-.773.6zm-3.956 1.455l-.86-2.74.86-.256.688 2.055.774-.257.344.684-1.806.514zm-1.462.343l-.258-.514-.946.086-.086.513-.86.086.602-2.997.946-.17 1.376 2.653c.086.086-.774.343-.774.343zm-3.44-.685h-.171v.856h-.86l.086-2.911h1.032c.774 0 1.203.343 1.203 1.027-.086.685-.602 1.028-1.29 1.028zm-2.665.514l-1.72-.514.86-2.74.86.257-.688 2.055.774.256-.086.685zm-2.15-.771l-.86-.257.086-.514-.86-.428-.343.343-.774-.343 2.235-2.14.86.428-.344 2.91zm-3.955-1.97l1.032-1.968-.688-.343.344-.6 2.063 1.114-.258.685-.774-.428-1.031 1.969-.688-.428zm-.946-2.482c.516.428.688.77.516 1.199-.258.599-.86.684-1.376.428-.43-.172-.688-.343-.946-.685l.43-.6c.258.257.516.514.774.685.172.086.258.086.344-.085.086-.086 0-.171-.344-.514-.43-.428-.602-.685-.43-1.199.258-.513.774-.599 1.29-.428.43.172.602.343.774.6l-.43.599c-.258-.257-.43-.428-.688-.514-.172-.085-.258-.085-.258.086.086.171.086.257.344.428zm-2.666 1.027l-.86-.256.258-1.028-.516-1.969.946.171.344 1.199.774-.942.86.257-1.462 1.541-.344 1.027zm-2.322-.513l-.515-.942h-.172l-.086.942-.86-.086.172-2.91 1.117.085c.774.085 1.204.428 1.118 1.027 0 .428-.258.685-.602.77l.602 1.028c.172 0-.774.086-.774.086zm-2.665.085c-.86.172-1.548-.257-1.72-1.198-.172-.856.258-1.627 1.204-1.798.258-.086.516 0 .774 0v.77c-.172-.085-.344-.17-.602-.085-.43.085-.602.428-.516.941.086.514.43.771.86.685.172 0 .344-.17.516-.256l.258.684c-.258.086-.516.257-.774.257zm28.032-2.568c-3.353 2.14-6.019 3.339-9.373 3.339-4.557 0-8.169-2.997-12.984-4.623C15.03 49.509 9.44 52.163 9.44 52.163s1.806 1.712 1.892 4.88c0 0 3.268-2.055 8.083-.514 4.816 1.627 7.31 4.88 13.586 4.452 5.418-.343 8.513-2.825 11.953-4.11 1.118-.428 5.073-2.226 8.513.343.344-2.997 1.977-4.88 1.977-4.88-4.127-2.911-10.748-1.541-13.242 0z"/>
    <path fill="#C4122E" d="M14.456 58.074c.258 0 .516 0 .688.086.086 0 .172.086.258.086.258.085.516.17.602.085 0 0 .086-.086.086-.171 0-.086 0-.171-.086-.257-.344-.342-1.376-.342-2.236-.171v.428c.258-.086.43-.086.688-.086zm35.256-.257c-.43 0-.688.086-.86.172-.086.085-.086.085-.086.17 0 .087 0 .172.086.172.086.086.344 0 .602-.086.086 0 .172-.085.258-.085.344-.086.86-.086 1.29.086v-.429h-1.29zm1.72 1.285l-.344-.172c-.258-.17-.86-.256-1.29-.17-.086 0-.172 0-.258.085-.344.085-.688.171-.946-.086-.172-.085-.258-.342-.258-.514 0-.256.086-.428.258-.599.774-.6 3.096-.085 3.354 0 .258.086.945.171 1.203 0 .086-.085.086-.171.172-.257.258-2.654 1.462-4.366 1.892-4.965-3.955-2.654-10.319-1.37-12.812.17-2.838 1.713-5.847 3.425-9.545 3.425-2.924 0-5.503-1.198-8.169-2.568-1.548-.77-3.096-1.541-4.901-2.14-4.042-1.37-8.771.428-9.975.941.516.6 1.634 2.226 1.72 4.795 0 .086.086.171.086.257.43.171 1.118.085 1.376.085.258-.085 2.58-.513 3.353.172.086.085.172.342.172.513 0 .257-.086.428-.258.514-.258.257-.602.171-.946.086-.086 0-.172-.086-.258-.086-.516-.086-1.118-.086-1.376.086l-.344.17v-1.112c-.085 0-.171 0-.257.085-.086 0-1.118.257-1.634-.17-.172-.172-.258-.343-.344-.6-.086-2.997-1.806-4.709-1.806-4.709l-.258-.257.258-.171c.258-.086 5.675-2.74 10.577-1.113 1.805.6 3.353 1.37 4.901 2.14 2.752 1.37 5.16 2.569 7.997 2.569 3.182 0 5.933-1.284 9.287-3.34 2.58-1.626 9.373-2.91 13.5 0l.172.172-.172.171s-1.634 1.884-1.892 4.88c0 .257-.172.428-.344.6-.43.342-1.461.085-1.547.085-.086 0-.172-.085-.258-.085l-.086 1.113z"/>
    <path fill="#C4122E" d="M32.035 61.333c-3.612 0-5.933-1.198-8.341-2.568-1.29-.685-2.666-1.456-4.3-1.97-4.643-1.54-7.824.429-7.824.429l-.258-.343c.171-.086 3.353-2.14 8.255-.514 1.633.514 3.01 1.285 4.385 1.97 2.58 1.37 5.073 2.654 9.115 2.482 3.783-.257 6.363-1.455 8.857-2.74 1.032-.513 2.063-1.027 3.095-1.37.086 0 .172-.085.258-.085 1.376-.513 5.16-2.054 8.513.514l-.258.342c-3.267-2.311-6.879-.941-8.169-.428-.086 0-.172.086-.258.086-1.032.342-1.978.856-3.01 1.37-2.407 1.198-5.159 2.568-9.028 2.74-.344.085-.688.085-1.032.085z"/>
    <path fill="#C4122E" d="M16.074 57.93c-1.118-.856-1.548-1.712-1.548-1.798l.43-.171s.43.856 1.376 1.627l-.258.342zM48.793 58.024l-.258-.342c1.204-.856 1.29-1.798 1.29-1.798l.43.085s-.172 1.114-1.462 2.055z"/>
    <path fill="#27409B" d="M37.613 33.99l.087.087-.087-.087zM35.176 16.33c-.086-.343-.172-.77-.172-1.199 0 .342.086.77.172 1.199z"/>
    <path fill="#fff" d="M35.176 16.33c-.086-.343-.172-.77-.172-1.199 0 .342.086.77.172 1.199z"/>
    <path fill="#1B458F" d="M42.978 37.094c-.085.171-.343.257-.515.342-.258.086-.516.172-.688.086h.086c.43-.257.258-.856-.258-1.37l-1.118-.942-.086-.085.172.085.688.257.258.171.258.172c.344-.086.602-.172.602-.172.172-.085.258-.085.344-.17.086.085.516 1.283.258 1.626zm-1.29-.257l-.43-.342-.257-.257-.086-.257v-.086l-.086-.342c.344.342.602.685.774.942 0 .085.172.428.086.342.086.086 0 0 0 0zm-2.063-2.74l-.516-.941-1.29-.6 1.118 1.285c-.602-.343-1.548-.857-2.58-1.028 0 0 .86.856 1.29 1.199l.086.085-.086-.085c-.086-.086-.43-.172-1.032-.257-.688-.086-1.376-.171-2.063-.6 0 0 .086.172.43.429.258.256.602.513 1.117.599 0 0 .516.257.602.257-.344.171-.688.342-.86.514-.516.342-.773.856-.945 1.284-.344.77-.602 2.226-.344 2.996-.688-.942-1.29-2.055-.946-3.424-1.032.599-1.72.428-2.408.256-.344.429-.774 1.542-.86 2.398-.086-.086-.086-.172-.172-.343-.258-.6-.43-1.198-.43-1.883v-.685l2.408-1.712-3.44-.257c.086 0 .086-.086.172-.086 1.29-.942 2.924-1.541 4.644-1.541h.344c-1.032-.6-2.924-.6-4.042-.257-1.462.428-2.063.514-3.697.171 1.72-.342 1.634-.342 2.58-.856.86-.428 2.407-1.284 4.299-.942-.516-.17-.86-.428-1.462-.513-.602-.171-1.462-.257-2.494-.086 0 0 .688-.685 1.978-.856-1.72-1.541-6.793-3.938-6.793-3.938 7.223 1.712 10.319 5.051 10.749 5.65l.086.086c-.258-.6-1.892-4.366-6.278-7.106-.602-.342-1.29-.685-1.891-1.027-1.032-.6-1.892-1.199-2.752-1.884-8.169-6.507-5.16-15.41-5.16-15.41-.257 2.054.087 4.11.689 5.907.344 1.113.86 2.226 1.375 3.082.516 1.027 1.118 1.884 1.548 2.483 1.032 1.199 2.236 2.311 3.612 3.082 0 0-6.191-4.195-2.666-13.099-.172.342-2.58 7.534 6.535 13.784.172.085.344.085.344.257 1.204 2.91 5.933 7.534 6.793 9.76 0-.428-.086-.942-.086-1.37.516.6.946 1.284 1.118 1.969 0-.428.086-1.113.086-1.627.774.428 1.892 1.285 2.838 2.312l-.086-.086V30.416s1.376 1.712 1.891 2.997v.599c0 .342-.085.6-.085.77-.086.172-.258.343-.344.428h-.086c.086-.085.086-.17.086-.257 0-.17 0-.256-.086-.428-.086-.17-.086-.342-.172-.428-.086-.085-.086-.17-.086-.17v.684c-.086.257-.172.343-.258.343v-.172c0-.085-.086-.257-.086-.342-.172-.428-.774-1.456-.946-1.884-.172.257.086.77.086.77l.258.514c-.258.429 0 .857.344 1.028-.086 0-.43 0-.602-.086.086.086.344.514.516.6-.43-.086-1.376-.857-1.892-1.285zm3.44-1.54c0-.086-.087-.086-.087-.172-.085-.171-.171-.342-.257-.428-.86-1.37-1.978-2.483-1.978-2.483V30.33s-3.87-2.226-5.504-4.28c-1.29-1.627-2.751-3.34-3.611-5.48l-.344-.513c-1.118-1.285-2.236-1.028-4.815-3.939-.86-1.027-1.806-2.996-2.15-4.28-.602-2.74-.516-5.822.172-8.562 0 0 .344-.941-1.462 1.798-.86 1.37-1.462 2.997-1.806 4.538-.172.856-.258 1.626-.172 2.482-.602-1.198-1.031-2.482-1.375-3.766-.43-1.713-.602-3.51-.43-5.309 0 0-.344-.256-1.376 2.483-1.032 2.826-1.204 5.223-.774 7.962-1.978-1.626-2.408-4.623-3.01-7.02 0 .086-.086.171-.086.342V7.3c-.086 1.199-.258 4.452 1.462 7.791 0 .086.086.171.086.257.258.514.516.942.774 1.37.43.77.774.942 1.204 1.54-.086 0-2.924-.598-3.956-.77.602.428 1.806 1.456 3.096 2.74 0 0 3.955.342 7.051 2.568 0 0-2.666-1.284-5.933-1.54.172.17.344.342.602.513.946.856 1.806 1.712 2.665 2.483h-2.15l3.354 2.74h.602s1.118 0 2.236.17c1.204.258 1.806.686 1.806.686-.688-.257-1.806-.257-2.408-.257-.516 0-.774.17-1.118.17l.172.172 2.15 1.712 1.892.086c-1.634 1.027-3.182 1.37-5.16.685-1.032-.343-2.064-.942-3.01-1.627.345.856 1.204 1.627 1.806 2.226-2.15-.171-3.783-.685-5.76-1.54.773 1.112 1.289 1.883 1.89 2.482.603.6 1.377 1.284 1.807 1.541.258.171 1.461.171 2.235.086.172 0 .258 0 .43-.086.172 0 .43-.085.602-.171.774-.171 1.806-.428 1.72-.428-.344.257-.688.428-1.118.685-.258.085-.516.256-.688.342-1.118.514-2.322.77-3.44.6 1.204.427 2.58.77 3.87.856.43.085.602 0 1.032-.172.602-.257 1.118-.513 1.548-.685.258-.085.43-.256.688-.342l1.032-.514c-.258.172-.43.428-.688.6-.086.085-.258.17-.344.342-.43.343-.946.77-1.462 1.284 1.462.086 2.322.343 4.3-.257 0 0-.43.343-.947.6l.602 1.113-.602-.257.43.77s.258.343.688.685l.172.428c-.344-.085-.774-.428-.946-.599.344 1.284 1.118 1.028 1.376 1.884.172.513.688 1.54.43 2.054-.344.6-.602.6-1.204 1.028-.602.599-.172 1.284 0 1.455.086-.685.602-1.113.86-1.199.43-.085.946 0 1.118-.256.688-.685 2.15-.856 3.182-.257-.516-.77-.688-.77-1.634-1.028 1.634.086 1.806.514 2.58 1.456.086-.514-.344-1.199-.774-1.541-.086-.086-1.462-.257-2.752-.428-.43 0-.602-.6-.688-.942.086.086.43.257.774.257-.086-.428-.258-.942-.258-1.284.086.085.258.17.516.17l-.172-.77c-.086-.599-.258-1.027.258-1.969.344.257.43.343.602.514 0 0 .086.6.258.856 0 .086.602.514.602.6l-.946-.258s.344.771.946 1.2c.344.17.774.256.86.427 0 .343.258.77.172 1.028-.086.17-.602-.6-1.72.342.774 0 1.634.257 1.892.428.258.257.43.6.602.685.773.514.86.77.773 1.712.516-.428.344-1.455.258-1.712.688.77.516 1.884.344 2.312.43-.257 1.032-1.37.516-2.226-.172-.172-.946-.77-1.118-.942-.43-.514-.516-1.027-.688-1.541.172 0 .345.085.517.085-.087-.342-.172-.77-.258-1.198v-.086-.085-.172-.085-.257c.086.171.258.257.258.257l-.517-1.284v-.257c0-.086 0-.172.087-.257 0-.086 0-.171.085-.257v-.086c0-.085.087-.17.087-.256-.172.428.43 1.113.43 1.113.085-1.028.945-1.884 1.72-2.226 0 .17.171.428.171.428.172-.428.688-.6.946-.685l.602.257.602.256.172.086s.086.514.43.77c.258.257.516.343 1.204.857-.086.17-.172.342-.516.428.946.342 2.15-.086 1.977-1.113.087-.514-.085-1.456-.085-1.456l.257-.77.087-.257v-.086c0-.513-.172-1.027-.43-1.54z"/>
    <path fill="#1B458F" d="M48.834 10.32c-1.462.086-3.01.514-4.3 1.37 1.032-2.055 3.44-3.425 5.503-4.28 0 0 .258-.429-2.235 0-.344 0-.688.085-.946.17-1.462.257-2.752.857-3.87 1.798-.602.514-1.203 1.028-1.633 1.713-2.15 2.74-2.838 5.137-2.838 5.137s-.344-3.596 4.3-8.39c.515-.857 1.117-1.627 1.72-2.398 0 0 .085-.513-2.494 1.456-1.892 1.284-3.526 3.082-4.73 4.965-.43.77-1.376 2.483-1.634 3.596v.086s0 .685.172 1.54c.172 1.114.602 2.57.602 2.57-.344-.6-.86-1.97-1.032-2.655-.086-.342-.172-.6-.258-.856 0-.171-.086-.342-.086-.514 0-.085 0-.17-.086-.257 0-.17-.086-.256-.086-.428-.086-.513-.086-1.027-.086-1.54 0-.686 0-1.285.086-1.713-1.203 2.74-1.29 4.88-1.29 5.736-.085.514-.085.942-.085 1.284.343.857.86 2.055 1.891 3.51 0 0-.86-.513-1.977-2.311 0 .428-.086.856-.258 1.541 1.203 1.97 2.407 3.596 3.44 4.709v-2.397c.343.342.687.685.859.941.172-.77.43-1.712.774-2.74 2.064-6.25 4.557-8.133 4.557-8.133-2.321 3.596-4.385 10.788-4.3 14.127.43.342.86.685 1.205.941-.172-.256-.344-.599-.344-.77 1.032-4.794 4.213-7.962 4.213-7.962.688-6.85 8.513-9.76 8.513-9.76.516-.257-3.267-.086-3.267-.086z"/>
    <path fill="#D3D2D2" d="M50.005 49.903V46.05c-.43.342-.774.6-1.118.856v1.113h-.602v-.77c-2.58 1.712-3.783 1.883-3.783 1.883 1.72-.856 2.923-1.712 3.783-2.483v-1.455c-3.095 2.654-5.933 4.024-6.965 4.537v.6h5.332c1.032-.172 2.235-.257 3.353-.257"/>
    <path fill="#A7A5A6" d="M45.178 50.603c-.86.257-1.634.514-2.236.77v-.77h2.236zM38.461 53.862c-.172.086-.602.257-.773.343V51.807h.773v2.055zM38.428 51.49h-.774V49.69h.774v1.798zM41.008 52.348v-.6h-.688V52.863c.258-.086.43-.257.688-.343v-.171zM41.008 51.49h-.688V49.69h.688v1.798zM39.258 52.995v-1.199h-.516v1.969l.516-.256v-.514zM39.288 51.49h-.515V49.69h.515v1.798zM40.062 51.49h-.516V49.69h.516v1.798zM40.053 52.866v-1.113h-.516v1.541l.516-.256v-.172zM41.008 48.065H37.74v1.284h3.268v-1.284zM24.655 52.547c-.258-.085-.516-.256-.688-.342V51.777h.688v.771zM24.67 51.49h-.774V49.69h.774v1.798zM26.54 53.456c.257.086.429.171.687.343v-2.056h-.688v1.713zM27.25 51.49h-.689V49.69h.688v1.798zM25.444 51.49h-.516V49.69h.516v1.798zM26.218 51.49h-.516V49.69h.516v1.798zM27.25 48.065h-3.268v1.284h3.268v-1.284zM25.745 53.078l.516.256V51.793h-.516V53.078zM23.135 51.824l.516.257v-1.455h-.516v1.198zM24.945 52.69c.258.085.344.17.516.256v-1.112h-.516V52.688z"/>
    <path fill="#D3D2D2" d="M15.078 48.53v-2.483c.43.343.774.6 1.118.857v1.113h.602v-.77c2.58 1.711 3.783 1.883 3.783 1.883-1.72-.857-2.923-1.713-3.783-2.483V45.19c3.01 2.569 5.675 3.939 6.793 4.452v.685h-4.643c-1.29-.342-2.666-.342-3.87-.257"/>
    <path fill="#A7A5A6" d="M22.044 51.355c-.602-.257-1.462-.6-1.978-.771h1.978v.77zM22.337 51.312v-.685h.516V51.654c-.086 0-.258-.086-.516-.171v-.171zM41.857 51.774v-1.199h-.516v1.713c.172-.086.344-.171.516-.343v-.171zM42.655 51.375v-.77h-.516v1.198l.516-.257v-.171zM37.44 49.359v-.856c0-2.74-2.235-4.966-4.987-4.966-2.752 0-4.987 2.226-4.987 4.966v.856h.86c-.086-.257-.086-.514-.086-.856 0-2.312 1.892-4.196 4.213-4.196 2.322.086 4.128 1.97 4.128 4.196 0 .256 0 .599-.086.856h.946z"/>
    <path fill="#D3D2D2" d="M16.234 45.756v-1.113l-1.118-1.198V44.815c.086.256.43.684 1.118 1.284v-.343zM50.005 44.786c-.172.257-.516.685-1.118 1.37v-1.541l1.118-1.113v1.284z"/>
    <path fill="#A7A5A6" d="M31.637 53.288c-.172 0-.258.086-.258.257s.086.257.258.257c.086 0 .172 0 .258-.086 0-.257-.086-.428-.258-.428zM32.894 53.294c-.172 0-.258.172-.258.428 0 .343.086.428.258.428.172 0 .258-.17.258-.428 0-.256-.086-.428-.258-.428z"/>
    <path fill="#A7A5A6" d="M34.045 54.427c-.172 0-.258 0-.43-.086v-.17c.172 0 .258.085.43.085s.258-.086.258-.257c0-.086-.086-.171-.258-.171H33.7l.086-.685h.688v.17h-.516v.258h.172c.258 0 .43.171.43.428s-.258.428-.516.428zm-1.118 0c-.344 0-.516-.257-.516-.685 0-.428.172-.685.516-.685.344 0 .516.257.516.685 0 .428-.258.685-.516.685zm-1.548 0v-.171c.258-.086.43-.172.516-.343-.086.086-.172.086-.344.086-.258 0-.344-.171-.344-.428s.172-.428.43-.428.516.17.516.513c0 .428-.344.685-.774.77zm-.516 0h-.258V53.4l-.258.085v-.171l.344-.171h.258c-.086 0-.086 1.284-.086 1.284zm5.59-4.794c-.516 1.797-2.064 3.082-4.042 3.082-1.892 0-3.525-1.285-3.955-3.083h-.946v4.281c1.72.77 3.44 1.284 5.331 1.284 1.634 0 3.096-.342 4.557-.856v-4.623l-.945-.086zM13.947 42.941c.172 0 .344.086.516.086v2.226c-.172 0-.344-.086-.516-.086v-2.226zM13.659 45.117h-.516v-2.226h.515v2.226zM12.373 45.117h.516v-2.226h-.516v2.226zM11.588 45.285c.172-.085.344-.085.516-.085v-2.226c-.172 0-.344 0-.516.085v2.226zM11.137 41.137c.086-.086.258-.086.344-.171v.256l-.344-.085zM12.871 41.916h-.516v-1.199h.516v1.199zM13.659 40.798h-.516v1.199h.515v-1.199zM13.947 40.843c.172 0 .344.085.516.085v1.113h-.516v-1.198zM12.084 41.999c-.172 0-.344.085-.516.085v-1.113c.172-.085.344-.085.516-.171v1.199zM14.557 41.002c.086 0 .258.086.344.171l-.344.086v-.257zM11.137 43.235c.086-.085.258-.085.344-.17v.256l-.344-.086zM14.557 43.1c.086 0 .258.086.344.172l-.344.086V43.1z"/>
    <path fill="#A7A5A6" d="M14.9 40.388c-.516-.257-1.204-.343-1.892-.343s-1.376.086-1.892.343v.513c.516-.257 1.204-.428 1.892-.428s1.376.172 1.892.343v-.428zM14.9 42.504c-.516-.257-1.204-.343-1.892-.343s-1.376.086-1.892.343v.514c.516-.257 1.204-.428 1.892-.428s1.376.17 1.892.342v-.428z"/>
    <path fill="#A7A5A6" d="M14.9 40.175c-.516-.256-1.204-.342-1.892-.342s-1.376.086-1.892.343l1.462-1.456h.774l1.548 1.456zM12.629 38.362v.257h.688v-.257c0-.086-.172-.086-.258-.086h-.344c.086 0-.086 0-.086.086zM14.445 47.693c-.172-.085-.344-.085-.516-.085v-2.14c.172 0 .344.085.516.085v2.14zM13.659 47.526h-.516v-2.14h.515v2.14zM12.871 47.488h-.516v-2.14h.516v2.14zM12.084 47.57c-.172 0-.344.086-.516.086v-2.14c.172 0 .344-.086.516-.086v2.14zM53.001 42.941c.172 0 .344.086.516.086v2.226c-.172 0-.344-.086-.516-.086v-2.226zM52.712 45.117h-.516v-2.226h.516v2.226zM51.427 45.117h.516v-2.226h-.516v2.226zM50.642 45.285c.172-.085.344-.085.515-.085v-2.226c-.171 0-.343 0-.515.085v2.226zM50.191 41.137c.086-.086.258-.086.344-.171v.256l-.344-.085zM51.925 41.916h-.516v-1.199h.516v1.199zM52.712 40.798h-.516v1.199h.516v-1.199zM53.001 40.843c.172 0 .344.085.516.085v1.113H53v-1.198zM51.138 41.999c-.172 0-.344.085-.516.085v-1.113c.172-.085.344-.085.516-.171v1.199zM53.611 41.002c.086 0 .258.086.344.171l-.344.086v-.257zM50.191 43.235c.086-.085.258-.085.344-.17v.256l-.344-.086zM53.611 43.1c.086 0 .258.086.344.172l-.344.086V43.1z"/>
    <path fill="#A7A5A6" d="M53.954 40.388c-.516-.257-1.203-.343-1.891-.343s-1.376.086-1.892.343v.513c.516-.257 1.204-.428 1.892-.428s1.375.172 1.891.343v-.428zM53.954 42.504c-.516-.257-1.203-.343-1.891-.343s-1.376.086-1.892.343v.514c.516-.257 1.204-.428 1.892-.428s1.375.17 1.891.342v-.428z"/>
    <path fill="#A7A5A6" d="M53.954 40.175c-.516-.256-1.203-.342-1.891-.342s-1.376.086-1.892.343l1.462-1.456h.86l1.461 1.456zM51.684 38.362v.257h.687v-.257c0-.086-.172-.086-.258-.086H51.77c.086 0-.086 0-.086.086zM53.498 47.693c-.172-.085-.344-.085-.516-.085v-2.14c.172 0 .344.085.516.085v2.14zM52.712 47.526h-.516v-2.14h.516v2.14zM51.925 47.488h-.516v-2.14h.516v2.14zM51.138 47.57c-.172 0-.344.086-.516.086v-2.14c.172 0 .344-.086.516-.086v2.14zM12.08 50.66c-.172.085-.344.085-.515.17v-2.91s.343-.086.515-.086v2.825zm.774-.172c-.172 0-.344.086-.516.086v-2.74h.516v2.654zm.774-2.74h-.516V50.404c.172 0 .344-.086.516-.086v-2.569zm.774 1.627V47.92c-.086 0-.43-.086-.43-.086v2.397s.344-.085.516-.085l-.086-.77zm36.717.343v-1.884c-.172 0-.516.086-.516.086v2.226c.172 0 .344 0 .516.085v-.513zm.774-.172V47.75h-.516v2.397c.172 0 .344.085.516.085v-.685zm.86.942c-.172-.085-.344-.085-.516-.085v-2.569h.516v2.654zm.774.257c-.172-.086-.344-.171-.516-.171V47.92s.344.085.516.085v2.74z"/>
    <path fill="#C4122E" d="M30.838 49.953c.688.343 1.29.514 1.72.6h.086l.086-.086c0-.77-.086-1.37-.172-1.627 0 0 0-.086-.086-.086-.86-.427-1.548-.856-2.064-1.37-.344-.342-.602-.684-.774-1.027 0-.085-.086-.085-.086-.085-.086 0-.086 0-.086.085-.258.428-.516.857-.602 1.37v.086c.344.856 1.032 1.626 1.978 2.14z"/>
    <path fill="#C4122E" d="M30.582 47.225h.086s.086 0 .086-.086c1.031-1.37 2.063-1.798 2.837-2.055.086 0 .086-.085.086-.085 0-.086 0-.086-.086-.172-.344 0-.774-.085-1.118-.085-.515 0-1.031.086-1.461.342-.43.172-.86.428-1.204.77 0 0-.086.087 0 .087 0 .256.172.684.774 1.284z"/>
    <path fill="#C4122E" d="M30.972 47.398v.171c.43.343.946.6 1.462.942h.086s.085 0 .085-.085c.344-.428 1.376-1.37 3.01-1.627.086 0 .086 0 .086-.086v-.085c-.258-.514-.688-.942-1.118-1.284h-.086c-.172 0-.688 0-1.462.342-.773.343-1.461.942-2.063 1.712zM35.982 47.173c0-.086-.086-.086-.172-.086-.258 0-.602.086-.86.172 0 0-.086 0-.086.085v.086c.172.342.258.942.344 1.627 0 .428 0 .856-.086 1.284-.086.257-.172.514-.344.77v.172h.172c.43-.343.688-.857.946-1.37.43-.856.43-1.884.086-2.74zM32.65 50.892l-.086-.086c-.43-.085-1.032-.256-1.72-.599-.774-.342-1.462-.942-1.892-1.627 0-.085-.086-.085-.172-.085s-.086.086-.086.171c0 .428.086.856.258 1.284.258.685.688 1.199 1.29 1.541.516.343 1.118.6 1.806.685 0 0 .086 0 .086-.085.258-.257.43-.6.516-1.113v-.086z"/>
    <path fill="#C4122E" d="M34.653 47.545s0-.086 0 0c-.086-.086-.172-.086-.172-.086-.86.428-1.462.942-1.634 1.199v.085c.086.257.172.77.258 1.37 0 .343 0 .77-.086 1.027-.086.343-.172.6-.344.857v.17l.086.086c.344 0 .774-.085 1.118-.256h.086c.43-.343.688-.771.86-1.285.171-.428.258-.856.258-1.37-.172-.77-.344-1.455-.43-1.797z"/>
</svg>
