<svg xmlns="http://www.w3.org/2000/svg" width="64" height="65" fill="none" viewBox="0 0 64 65">
    <path fill="#fff" d="M31.538 16.056c-4.155 0-7.538 3.383-7.538 7.537s3.383 7.538 7.538 7.538c4.154 0 7.537-3.384 7.537-7.538.043-4.154-3.34-7.537-7.538-7.537z"/>
    <path fill="#92278F" d="M15.606 10.274c-.043.086-.043.171 0 .257.043.043.043.086.086.086l8.009 4.668c.085.043.17.043.256 0 .043 0 .043-.043.086-.086v-.043c.728-1.327 1.756-2.484 3.084-3.383 1.327-.942 2.74-1.499 4.24-1.756h.042c.043 0 .043 0 .086-.043.086-.042.128-.17.086-.257L29.868.638c0-.043-.043-.086-.043-.086-.043-.085-.129-.128-.257-.085h-.043c-2.826.514-5.61 1.627-8.137 3.426-2.398 1.627-4.368 3.854-5.782 6.381z"/>
    <path fill="#005BAA" d="M11.024 27.833c.042.086.128.129.214.171.042 0 .085 0 .128-.042l8.651-3.34c.086-.044.171-.13.171-.215v-.129c-.556-1.413-.813-2.912-.728-4.54.086-1.584.557-3.083 1.285-4.41v-.043c0-.043.043-.043.043-.086 0-.085-.043-.214-.128-.257l-8.138-4.368c-.042 0-.085-.043-.128-.043-.086 0-.171.043-.214.129-1.37 2.526-2.227 5.396-2.441 8.48-.257 3.083.214 6.038 1.284 8.693z"/>
    <path fill="#009BDF" d="M21.987 42.266c.086.043.172 0 .257-.086.043-.043.043-.086.043-.128l2.741-8.823c.043-.085 0-.214-.086-.257-.043-.043-.043-.043-.085-.043h-.043c-1.456-.428-2.827-1.156-3.983-2.227-1.2-1.07-2.099-2.355-2.655-3.725v-.043c0-.043-.043-.043-.043-.086-.086-.085-.171-.085-.257-.043l-8.48 3.683c-.043 0-.085.043-.085.086-.043.086-.086.171-.043.257 1.113 2.655 2.87 5.096 5.139 7.152 2.227 2.013 4.84 3.469 7.58 4.283z"/>
    <path fill="#00A651" d="M40.017 42.694c.086-.043.129-.129.086-.257 0-.043-.043-.086-.043-.128l-5.139-7.666c-.043-.086-.171-.129-.257-.086-.043 0-.043 0-.085.043 0 0-.043 0-.043.043-1.242.856-2.655 1.456-4.24 1.713-1.585.257-3.127.128-4.583-.257h-.128c-.086 0-.171.085-.214.171l-2.441 8.908v.128c0 .086.085.172.171.215h.043c2.784.77 5.781.985 8.78.47 2.997-.513 5.738-1.67 8.093-3.297z"/>
    <path fill="#FFF200" d="M51.794 28.947c0-.086-.042-.172-.128-.214-.043-.043-.086-.043-.128-.043l-9.208-.728c-.086 0-.172.042-.257.128 0 .043-.043.043-.043.086v.043c-.086 1.498-.514 2.997-1.285 4.41-.77 1.414-1.841 2.57-3.04 3.427h-.043c-.043 0-.043.043-.086.086-.043.085-.043.214 0 .256l5.482 7.452.086.086c.085.043.17.043.257 0 2.312-1.67 4.368-3.897 5.824-6.595 1.542-2.656 2.355-5.525 2.57-8.394z"/>
    <path fill="#F68B1F" d="M48.282 11.13c-.085-.042-.17-.085-.256-.042-.043 0-.086.043-.086.086l-6.381 6.723c-.043.086-.086.172-.043.257 0 .043.043.043.043.086l.042.043c1.114 1.028 2.013 2.27 2.613 3.768.6 1.5.814 3.041.728 4.54v.129c.043.085.128.17.214.17l9.25.43c.044 0 .086 0 .13-.044.085-.042.128-.128.17-.214v-.043c.172-2.869-.3-5.867-1.456-8.693-1.113-2.784-2.87-5.225-4.968-7.195z"/>
    <path fill="#ED1C24" d="M32.137 2.865c-.086 0-.171.086-.214.171v.129l1.37 9.165c0 .085.086.171.172.214h.128c1.499-.257 3.04-.171 4.583.3 1.541.428 2.912 1.199 4.025 2.227h.043c.043 0 .043.043.086.043.085.042.214 0 .257-.086l6.038-6.98c.043-.044.043-.044.043-.086.043-.086 0-.172-.086-.257-2.14-1.885-4.796-3.384-7.751-4.24-2.87-.9-5.867-1.071-8.694-.6z"/>
    <path fill="#000" d="M31.538 15.927c-4.24 0-7.666 3.426-7.666 7.666s3.426 7.666 7.666 7.666 7.666-3.426 7.666-7.666-3.426-7.666-7.666-7.666zm5.567 11.992c.129-.3.172-.686.172-.942-.172.128-.3.3-.514.428-.514.385-1.114.642-1.627.728l-1.457-1.627 1.071 1.884c-.3.47-.685.942-1.242 1.37-.171.129-.343.257-.557.343.257.043.643.128.943.128-.728.257-1.542.429-2.356.429-.814 0-1.627-.129-2.355-.429.342 0 .685-.042.985-.128-.172-.086-.386-.214-.557-.343-.514-.385-.942-.856-1.242-1.327l1.07-1.885-1.498 1.628c-.557-.129-1.114-.386-1.628-.728-.171-.129-.342-.257-.514-.429.043.3.086.643.172.943-.943-1.2-1.5-2.698-1.5-4.326v-.214c.086.343.258.642.429.9.043-.215.086-.429.171-.643.214-.642.514-1.156.9-1.585l2.098.429v-.043l-1.97-.9c-.043-.556 0-1.156.214-1.798.086-.215.129-.429.257-.6-.257.129-.642.3-.9.514.943-1.37 2.313-2.398 3.94-2.87-.299.172-.556.472-.77.686.214-.043.428-.043.642-.043.643 0 1.285.128 1.8.386l.256 2.14h.043l.257-2.14c.514-.215 1.113-.386 1.799-.386.214 0 .428 0 .642.043-.214-.214-.471-.514-.77-.685 1.627.47 3.04 1.498 3.94 2.869-.258-.214-.643-.385-.9-.514.085.171.171.386.257.6.214.6.257 1.242.214 1.798l-1.97.9v.043l2.098-.429c.386.429.686.942.9 1.585.085.214.128.428.171.642.128-.257.343-.6.428-.9v.215c-.042 1.585-.6 3.084-1.541 4.283z"/>
    <path fill="#000" d="M28.454 22.565l1.2 3.64h3.81l1.2-3.64-3.126-2.227-3.084 2.227z"/>
    <path fill="#fff" d="M9.354 51.345v10.278h5.867v-2.312h-3.212v-7.966H9.354zM20.145 55.542c-1.199 0-1.927.9-1.927 1.97 0 1.156.728 2.099 1.885 2.099 1.113 0 2.012-.814 2.012-2.013-.042-1.242-.899-2.056-1.97-2.056zm-4.454 2.013c0-2.313 1.713-4.326 3.983-4.326.985 0 1.628.343 2.356.985v-.856h2.44v8.265h-2.483v-.813s-.9.985-2.441.985c-2.313.043-3.855-1.585-3.855-4.24zM31.838 61.623h-5.91V51.345h2.655v7.966h3.255v2.312zM35.435 61.623h-2.484v-8.222h2.484v8.222zm-2.74-10.32c0-.815.685-1.5 1.498-1.5.814 0 1.5.643 1.5 1.5 0 .856-.686 1.54-1.543 1.54-.813-.042-1.456-.684-1.456-1.54zM40.617 55.37c-1.156 0-1.713.943-1.713 1.97 0 1.071.642 1.928 1.713 1.928 1.242 0 1.927-.985 1.927-1.927-.042-1.07-.642-1.97-1.927-1.97zm-4.154 1.97c0-2.226 1.413-4.11 3.554-4.11 1.028 0 1.756.342 2.442 1.07v-.942h2.355v7.238c0 2.526-1.927 3.854-4.197 3.854-2.013 0-3.769-1.028-4.026-2.87h2.784c.343.557.685.686 1.328.686.856 0 1.67-.386 1.67-1.285v-.6c-.471.429-1.37.943-2.355.943-2.099.043-3.555-1.713-3.555-3.983zM50.425 55.542c-1.2 0-1.927.9-1.927 1.97 0 1.156.727 2.099 1.884 2.099 1.113 0 2.013-.814 2.013-2.013-.043-1.242-.9-2.056-1.97-2.056zm-4.454 2.013c0-2.313 1.713-4.326 3.983-4.326.985 0 1.627.343 2.355.985v-.856h2.441v8.265h-2.484v-.813s-.9.985-2.44.985c-2.313.043-3.855-1.585-3.855-4.24z"/>
</svg>
