<svg xmlns="http://www.w3.org/2000/svg" width="64" height="65" fill="none" viewBox="0 0 64 65">
    <path fill="#0053A0" d="M64 32.55c0 17.67-14.33 32-32 32s-32-14.33-32-32 14.33-32 32-32 32 14.33 32 32z"/>
    <path fill="#fff" d="M62.298 32.55c0 16.723-13.562 30.286-30.285 30.286-16.724 0-30.286-13.563-30.286-30.286S15.289 2.264 32.013 2.264c16.723 0 30.285 13.563 30.285 30.286z"/>
    <path fill="#0053A0" d="M4.015 32.908C3.813 17.446 16.192 4.74 31.655 4.553 47.116 4.35 59.822 16.745 60.01 32.207c.202 15.463-12.193 28.169-27.655 28.355-15.447.187-28.153-12.192-28.34-27.654zm27.64-28.713C16.004 4.397 3.47 17.244 3.656 32.908c.203 15.65 13.049 28.184 28.714 27.997 15.649-.202 28.183-13.049 27.997-28.713-.203-15.665-13.065-28.2-28.714-27.997z"/>
    <path fill="#0053A0" d="M30.985 13.942c-3.442-.015-7.428 1.355-10.122 3.582-.015 0-.015.03.016.046 1.541.608 2.585 1.418 4.235 2.336.063.031.078.016.094-.031.794-4.033 5.714-2.912 6.182-5.855-.016-.015-.016-.062-.063-.062-.124-.016-.233-.016-.342-.016zm2.04 0c-.032 0-.047.016-.047.063-.203.513.405 1.058.747 1.401.031.031.094.062.14.093 2.196.888 4.625 1.558 5.154 4.08.016.047.016.063.063.031 1.167-.778 2.335-1.557 3.519-2.304.062-.031.03-.047 0-.078-2.663-1.915-6.01-3.146-9.577-3.286zm-13.703 4.843c-2.149 1.9-3.986 4.391-4.936 7.178-.016.031 0 .047.046.047 2.103.187 2.788-2.538 4.391-3.566.016-.015.047-.03.047-.046-.124-1.246-.171-2.29.452-3.613zm25.863.607c.125.966.032 1.884-.233 2.772-.016.047-.016.078.031.109 1.542.825 2.383 3.254 4.173 3.348.016.015.063.015.047-.016-.592-2.164-2.383-4.718-4.018-6.213zm4.61 7.63c-2.196 2.196 1.37 5.902-3.473 7.957-.42.125-.84.28-1.23.28-1.074 0-2.6-.81-2.6.826 0 .03.03.046.062.062 1.495.638 3.52 2.024 3.55 4.157.078 2.554-2.616 4.267-2.18 6.68 5.746-4.967 8.097-12.285 5.87-19.962zm-35.83.358c-.015 0-.03.032-.046.063-2.165 5.932-.032 15.15 6.617 20.024 0-.124.078-.39.156-.56.031-.063.031-.156 0-.234-.25-1.074-.887-2.149-1.495-3.208-2.102-3.488-.934-5.87 2.46-7.427.047-.016.047-.031.032-.078-.047-.109-.11-.233-.156-.343-.016-.03 0-.093-.078-.077-.763.093-1.62.155-2.398.124-1.168-.264-2.273-.716-3.114-1.962-1.495-2.086.56-4.905-1.915-6.29-.032-.032-.047-.032-.063-.032zm31.392 8.58c.062 0 .109.016.171.031.748.14 1.884.576 2.57 1.417.046.047.03.094-.047.094-1.09-.032-2.305-.156-3.146-.826-.124-.093-.233-.187-.14-.42.062-.14.265-.25.42-.28.063-.016.11-.016.172-.016zm-26.845.436h.187c.047 0 .109 0 .14.047.203.249.171.592-.218.872-.825.53-1.775.56-2.663.592-.03 0-.093-.032-.03-.094.793-.732 1.665-1.401 2.584-1.417zm14.886 9.997c-.015 0-.031 0-.031.015-.67.327-1.728.483-2.336.14-.078-.03-.109-.015-.14.032-1.074 1.806-3.612 1.775-5.419 1.308-1.339-.296-2.662-.685-3.737.389 5.653 4.08 14.357 4.204 20.897-.28-1.23-.577-2.351-.172-3.706.155-1.542.358-3.69.685-5.434-1.712-.032-.016-.063-.047-.094-.047zm-1.137.405h.047c.203.015.312.124.42.264.063.078.078.172.063.265-.031.84-.171 1.682-.452 2.414 0 .03-.03.046-.046 0-.327-1.028-.888-2.071-.187-2.897.078-.03.109-.046.155-.046zM34.083 6.126c.172.218.343.467.28.732-.217 1.214-.45 2.429-.7 3.643-.047.265-.234.39-.436.576 1.34.25 3.815.717 5.154.966-.031-.53.374-.841.53-1.308-.452.311-1.013.42-1.542.311-.545-.109-1.9-.373-2.46-.482.093-.421.14-.857.249-1.277.53.093 1.386.295 1.915.358.452.109.794-.514 1.043-.826-.171.047-.498.063-.67.016-.56-.109-1.556-.327-2.117-.436.047-.405.14-.81.218-1.199.95.25 2.959.343 3.66 1.152.03-.436-.234-.996.03-1.292-1.323-.25-3.846-.685-5.154-.934zm-.638.03c-1.277 0-3.706.141-4.983.157.265.451-.14.84-.14 1.292.436-.39 1.51-.514 2.071-.498 0 1.23.125 2.46.14 3.69 0 .234-.171.374-.327.467.56 0 1.433-.078 1.947-.078-.25-.233-.39-.249-.39-.576-.093-1.137-.14-2.444-.171-3.566.576-.046 1.62.063 2.087.343.015-.514-.468-1.012-.234-1.23zm-5.575.328c-.81.171-2.631.311-3.332.84-.84.577-1.027 1.87.063 2.445.685.28 1.977-.03 2.662.031.467.016.654.67.358.981-.654.592-2.46.592-3.238.343.186.452.404.84.607 1.277.265-.171.732-.203 1.043-.265.639-.093 2.165-.498 2.585-1.027.514-.608.53-1.48.031-2.025-.451-.498-1.837-.405-2.43-.358-.342 0-.606.125-.933-.031-.265-.187-.25-.654.046-.81.592-.311 1.916-.358 2.523-.109-.016-.451.031-.872.015-1.292zm13.096 1.09c.109.264.171.53.047.778-.483 1.044-1.028 2.071-1.542 3.115-.14.311-.327.498-.67.622.452.234 1.23.623 1.682.857-.187-.7.28-1.324.56-1.9.265.14.966.467 1.137.748.234.389.28.794.343 1.199.016.358.047.638-.327.763.53.218 1.355.653 1.853.887-.39-.81-.156-1.9-.67-2.694.343.016.904.078 1.277-.155.654-.39.81-.981.592-1.791-.125-.42-.53-.654-.888-.825-.84-.374-2.553-1.2-3.394-1.604zm-19.075.545c-1.168.654-3.41 1.775-4.562 2.444.296.078.514.187.654.452.576 1.028 1.152 2.071 1.728 3.099.156.249.11.56-.015.856 1.199-.67 3.44-1.837 4.64-2.491-.374-.218-.14-.919-.28-1.386-.125.405-.546.778-.888 1.028-.56.373-1.869 1.043-2.445 1.37-.218-.374-.42-.763-.622-1.137.451-.28 1.494-.747 1.946-1.043.265-.327.109-.794.171-1.184-.109.14-.265.265-.42.343-.483.265-1.557.856-2.056 1.137-.187-.358-.405-.685-.576-1.06.903-.404 2.523-1.51 3.55-1.447-.28-.374-.685-.545-.825-.981zm20.134.934c.451.218 1.105.514 1.51.732 1.075.56.312 1.728-.467 1.292-.452-.155-1.215-.591-1.65-.763.186-.436.42-.825.607-1.26zM16.27 11.342c-.125.171-.28.343-.483.436-.638.296-1.79 1.34-2.07 1.993-.39.747-.374 1.433.077 2.305.514 1.027 1.246 1.51 2.367 1.51 1.105-.062 2.118-1.043 2.57-1.65.248-.296.497-.608.871-.779-.311-.343-.638-.67-.95-1.012-.109.42-.311.763-.576 1.121-.405.451-1.027 1.168-1.728 1.137-.7-.031-.934-.374-1.246-.717-.311-.342-.53-.747-.483-1.37.063-.623 1.277-1.76 2.165-1.79-.203-.359-.312-.795-.514-1.184zm-4.298 4.157c-.327.421-.887 1.137-1.23 1.542.312-.047.607-.015.841.171.934.717 1.853 1.448 2.772 2.18.233.172.342.452.373.748.343-.405.888-1.121 1.215-1.51-.28.03-.56.046-.794-.125l-2.803-2.196c-.234-.202-.374-.467-.374-.81zm-2.195 2.788c-.592 1.199-1.807 3.457-2.383 4.656.327-.125.56-.11.857.046 1.043.53 2.086 1.028 3.145 1.542.25.124.483.39.576.654.576-1.23 1.65-3.395 2.32-4.61-.14 0-.28-.108-.373-.217-.28-.265-.42-.56-.701-.826.078.483 0 1.075-.202 1.542-.25.53-.904 1.806-1.153 2.336-.405-.14-.732-.374-1.12-.545.202-.467.778-1.542.98-2.009 0-.28-.327-.732-.56-1.074-.016.17-.094.358-.172.514-.249.513-.825 1.65-1.074 2.148-.358-.187-.825-.358-1.184-.53.25-.513.888-1.79 1.153-2.304.202-.404.53-.732.934-.934-.405-.14-.685-.093-1.043-.39zm.763 6.711c.171.265.202.732.218 1.059.046.607-.312 1.775-.405 2.367-1.121-.218-2.258-.499-3.38-.748-.31-.062-.435-.311-.622-.576-.124.514-.327 1.464-.42 1.978.233-.172.389-.296.654-.234 1.199.25 2.398.514 3.597.794.28.063.545.265.7.53.25-1.168.732-3.286.981-4.454-.124.016-.249.031-.358-.03-.374-.203-.623-.5-.965-.686zM10.54 34.964c-.171.249-.405.436-.7.498-1.106.311-2.274.545-3.536.856-.249.094-.404-.015-.638-.202.109.514.28 1.339.405 1.853.451-.623 1.277-.608 1.93-.825.156.529.343 1.635.515 2.148.28.28.731.327 1.09.452-.094-.14-.265-.436-.296-.607-.125-.561-.374-1.62-.499-2.18.42-.094.841-.218 1.262-.28.233.887.763 2.522.342 3.363.436-.14.779-.608 1.168-.514-.233-1.168-.81-3.364-1.043-4.563zm.062 5.403c-.14 0-.28.015-.42.03-.95.203-1.838.67-2.243 1.667-.529 1.386.514 3.52 1.931 4.048.903.328 1.807.078 2.492-.42.623-.436 1.059-1.152 1.043-2.118-.047-1.09-.654-2.164-1.526-2.771-.436-.312-.856-.436-1.277-.436zm-.031 1.214c.53 0 1.059.125 1.417.67.452.56.592 1.339.265 1.822-.452.591-1.184.95-1.947.918-.84-.03-1.681-1.105-1.432-2.133.233-.84 1.183-1.246 1.697-1.277zm3.286 4.033c-.203 0-.405.047-.608.125-.95.358-1.65.965-1.93 2.009-.39 1.432 1.183 3.332 2.662 3.596.95.156 1.79-.186 2.367-.794.545-.53.887-1.323.7-2.273-.233-1.059-1.09-1.978-2.07-2.43-.405-.155-.779-.248-1.121-.233zm.482 1.168c.42 0 .794.171 1.075.467.513.483.763 1.075.529 1.697-.327.732-.95 1.215-1.713 1.308-.825.11-1.9-.98-1.79-1.884.14-.825.67-1.167 1.12-1.401.265-.125.53-.187.78-.187zm3.69 2.149c-.015.467-.498.327-.871.934.576-.062 1.541.452 1.993.794-.67 1.012-1.37 2.009-2.04 3.021-.125.218-.343.234-.576.25.42.295 1.199.809 1.62 1.105-.079-.343-.048-.623.124-.888.591-.887 1.199-1.775 1.806-2.662.031-.032.062-.125.124-.094.499.265 1.262.934 1.433 1.464.203-.39.171-1.028.545-1.184-1.059-.731-3.114-2.04-4.158-2.74zm4.407 2.943c.156.28.11.592.031.887-.342 1.137-.778 2.165-1.12 3.301-.079.28-.25.437-.593.514 1.075.343 2.336.794 3.473 1.153 1.183.389 2.242.093 2.382-1.153.078-.716-.685-1.043-.98-1.199.778.094 1.307-.327 1.354-1.059.062-.529-.405-1.09-1.495-1.448-.778-.249-2.273-.778-3.052-.996zm16.381.887c-.498.125-1.339.483-1.837.654.28.125.467.203.56.483.358 1.074.779 2.071 1.137 3.13.093.343.218.716.047 1.043 1.136-.342 3.114-1.059 4.235-1.432-.062-.094-.156-.172-.156-.296-.03-.405.078-.732.047-1.137-.265.545-.825.825-1.417 1.043-.327.11-1.246.514-1.573.545-.358-1.09-.794-2.226-1.152-3.3-.109-.266-.047-.468.11-.733zm-15.306.359c.42.14 1.603.42 2.008.591.56.234.203 1.246-.389 1.106-.405-.063-1.573-.39-1.962-.53.109-.389.218-.778.343-1.167zm5.512.591c.031.078.015.25-.047.343l-2.118 3.581c-.186.312-.373.452-.622.654.482.078 1.323.312 1.806.405-.156-.343-.14-.763.109-1.09.747.062 2.149.171 2.88.265.156.358.343.778 0 1.105.499 0 1.355-.015 1.822.016-.218-.25-.42-.514-.514-.84-.218-.67-1.058-3.13-1.323-3.894-.047-.14.016-.311.016-.327l-2.01-.218zm5.59.016c-.545.093-1.464.202-1.978.265.25.17.42.28.468.576.124 1.12.358 2.195.498 3.3.03.343.03.795-.203 1.09 1.184-.108 3.364-.466 4.547-.606-.047-.11-.124-.203-.093-.312.046-.405.202-.747.249-1.152-.39.451-.95.685-1.573.794-.358.062-1.386.218-1.697.218-.14-1.137-.327-2.336-.467-3.457-.063-.311.047-.483.249-.716zm-4.734.84l.857 2.352c-.545-.031-1.573-.093-2.102-.156l1.245-2.195zm-6.898.468c.498.187 1.324.467 1.76.638.965.343.716 1.635-.452 1.23-.53-.17-1.23-.389-1.728-.576.109-.42.296-.872.42-1.292zM48.83 12.977c-.764-.031-1.262.171-1.807.623-.592.545-.997 1.168-.997 2.117.016.748.826 1.916 1.807 2.539.28.202.716.451.747.794.327-.327.67-.654.997-.966-.794-.233-2.134-1.012-2.336-1.9-.125-.7.047-.934.358-1.323.56-.67 1.137-.919 1.978-.685.763.296 1.448 1.261 1.494 1.946.39-.202.779-.373 1.168-.576-.311-.202-.467-.436-.67-.716-.466-.685-1.354-1.65-2.413-1.822-.093-.015-.218-.031-.327-.031zm4.203 3.628c-.015.498-.28.654-.638.919-.872.591-1.697 1.199-2.554 1.775-.249.156-.56.358-.918.187.28.436.84 1.183 1.12 1.604.032-.452.265-.654.546-.826.934-.622 1.822-1.308 2.756-1.915.264-.187.42-.265.794-.14-.28-.42-.825-1.168-1.106-1.604zm1.666 2.351c-.264.39-.84.156-1.245.312.498.28 1.043 1.183 1.261 1.713-1.121.513-2.04.996-3.145 1.51-.218.109-.545.047-.763-.047.233.467.607 1.293.84 1.76.125-.358.483-.67.826-.81.996-.451 1.822-.887 2.818-1.323.25.498.685 1.448.545 2.008.39-.233.576-.732 1.012-.685-.545-1.152-1.603-3.285-2.148-4.438zm2.414 4.999c-.109.482-.545.763-.825 1.12-.545.64-1.2 1.355-1.838 1.994-.155.14-.53.187-.763.233-.482.063-.7.125-1.058-.186.108.514.295 1.432.404 1.93.203-.311.42-.482.826-.591.358-.063.67-.203.918-.094 1.168.639 3.348 1.542 3.628 1.822l-.404-1.915c-.125.187-.28.28-.436.218-.701-.265-1.526-.654-2.118-.888.436-.498.934-.996 1.401-1.463.203-.25.468-.343.717-.11l-.452-2.07zM54.357 35.228c-.218 0-.467.078-.747.265-.374.343-.514.856-.654 1.323-.171.795-.592 2.414-.748 3.208.265-.218.499-.233.795-.171 1.167.249 2.32.514 3.472.763.28.047.483.28.654.514.171-1.106.856-3.348.84-4.47-.015-.918-.871-1.51-1.696-1.323-.468.125-.732.67-.826 1.043 0-.529-.436-1.167-1.09-1.152zm0 1.34c.343 0 .654.31.56.716-.093.404-.248 1.276-.357 1.681-.39-.078-.81-.171-1.2-.264.11-.42.219-1.028.328-1.464.124-.483.405-.67.67-.67zm2.134.077c.358.016.685.374.607.81-.11.53-.312 1.48-.405 1.993l-1.308-.28c.109-.53.28-1.277.42-1.806.11-.53.405-.732.686-.717zm-4.36 3.628c-.327.592-.623 1.153-.966 1.744.265-.124.514-.14.732-.03.763.404 1.401.778 2.165 1.198.295.171.607.483.638.888-.016.56-.39 1.23-.903 1.448-.374.171-.794 0-1.075-.172-.685-.42-1.23-.716-1.915-1.136-.233-.14-.452-.234-.467-.685-.327.56-.623 1.168-.981 1.744.467-.203.779-.063 1.105.14.608.358 1.122.654 1.729.996.467.265.934.436 1.557.296.545-.124 1.012-.654 1.34-1.199.357-.576.669-1.23.622-1.868-.031-.654-.436-1.106-.872-1.386-.716-.436-1.292-.732-2.024-1.168-.28-.14-.67-.39-.685-.81zM52.535 47c-.015.545-.326 1.199-.716 1.65-.202.265-.825.982-1.09 1.262-.872-.732-1.666-1.401-2.538-2.149-.233-.187-.42-.451-.42-.763-.358.374-.841.919-1.184 1.324.296-.047.576.109.81.296.856.731 1.682 1.479 2.554 2.195.264.233.389.467.404.84.795-.887 2.243-2.568 3.021-3.471-.109-.047-.249-.063-.295-.187-.25-.405-.312-.67-.546-.997zm-6.041 1.433c-.25.327-.732.498-1.09.654-.763.358-1.822 1.23-2.056 2.242-.17.872.016 1.588.499 2.227.482.654 1.09 1.027 1.915 1.043.934-.016 1.93-.607 2.663-1.355.249-.25.545-.576.887-.607-.296-.358-.545-.748-.872-1.09-.202.638-1.214 1.697-1.9 1.884-.607.14-.996-.031-1.448-.405-.482-.498-.794-1.121-.591-1.853.296-.934 1.541-1.62 2.32-1.495-.078-.389-.187-.84-.327-1.245z"/>
    <path fill="#0053A0" d="M32.153 14.098c-.094.28-.172.67-.234.997-.015.077-.047.124-.093.17-2.212 2.228-4.952 1.574-5.964 4.844-.11.28.031.56.53.84.046.032.093.016.093-.03-.125-3.551 4.671-3.302 5.714-5.778.016-.03.047-.015.063 0 .887 1.65 2.335 1.853 3.674 2.632.997.576 1.713 1.09 1.916 2.725 0 .078.03.062.062.031.156-.171.514-.25.498-.498-.327-2.414-2.974-2.928-5.107-3.924-.094-.063-.171-.14-.265-.203-.451-.53-.794-1.12-.887-1.806zm-.047 3.02c-.031 0-.047 0-.062.017-.016.015-.047.03-.063.062-.015.015 0 .093 0 .14.016.031.032.047.047.062.031.047.062.063.109.11.062.03.125-.016.14-.047.016-.078.016-.172 0-.234 0-.031-.031-.047-.047-.062-.015-.032-.046-.032-.077-.032 0-.015-.016-.03-.047-.015zm.732.67s-.016 0-.016.016c-.015.016-.031.031-.031.047 0 .093-.047.233.047.296.046.015.093.03.14-.016.015-.031.047-.031.047-.093 0-.032-.032-.032-.047-.063-.016-.046 0-.109-.016-.14-.015-.015-.03-.047-.046-.047-.032 0-.063-.015-.078 0zm-1.34.016c-.062.016-.14.062-.155.156-.031.046-.031.093 0 .124.031.047.078.11.14.14.047.032.109.032.14-.077.031-.094.031-.218-.015-.25-.047-.062-.047-.108-.11-.093zm.717 1.168c-.28.856-.358 1.277-.56 1.962.373 0 .575 0 .84.015-.218-.778-.233-1.09-.28-1.977zM19.136 23.192c-.016 0-.031 0-.047.015-1.977 1.386-2.507 3.862-5.045 3.457 1.806.84 1.76 2.912 1.946 4.827.156 1.62 1.386 3.8 4.718 3.348.032 0 .063-.031.032-.062-.218-.312-.935-.203-1.106-.234-2.631-.498-3.083-2.927-3.628-5.668-.125-.794-.639-1.292-.966-1.884-.015-.062-.046-.078.032-.093 1.681-.327 2.943-1.776 4.297-3.333.031-.015.031-.062 0-.077-.078-.078-.14-.156-.218-.25 0-.046 0-.046-.015-.046zm-.265 3.192c-.031 0-.047 0-.062.015-.031.016-.047.031-.063.063-.015.015 0 .093 0 .14.016.03.047.046.063.062.03.047.062.062.109.11.062.03.124-.017.14-.048.015-.078.015-.17 0-.233 0-.031-.031-.047-.047-.063-.015-.03-.047-.03-.078-.03-.015-.016-.03-.032-.062-.016zm.763.685c-.016 0-.016 0-.031.015-.016.016-.031.032-.031.047 0 .094-.047.234.03.28.048.016.094.032.125-.015.016-.031.047-.031.047-.078 0-.031-.031-.031-.031-.062-.016-.047 0-.11-.016-.14-.015-.016-.03-.047-.046-.047h-.047zm-1.34.109c-.061.015-.14.078-.155.156-.031.046-.031.078 0 .109.031.046.078.109.14.14.047.03.11.03.14-.078.032-.093.016-.218-.015-.25-.062-.046-.047-.093-.11-.077zm.78 1.152c-.11.857-.421 1.838-.732 2.492.358-.047.638.17.67.451.093-.311.326-.56.622-.467-.187-.794-.42-1.635-.56-2.476zM21.892 36.723c-.016 0-.032.016-.047.016-3.052 1.183-3.66 3.924-1.962 6.337 1.277 2.149 1.853 3.052 1.245 4.78 2.383-2.849 6.618 1.76 9.047-1.79.031-.047-.015-.078-.062-.125-.125-.078-.25-.14-.358-.187-.093-.03-.14-.015-.187.063-.997 1.043-4.22.81-6.649.825-.078 0-.296.047-.373.078-.234.124-.468.218-.717.202-.062 0-.171-.03-.155-.171.124-1.775-.935-2.896-1.604-4.36-.203-.498-1.76-3.301 1.962-4.998.015-.032.046-.047.046-.11-.015-.17-.046-.342-.093-.513-.031-.047-.047-.063-.093-.047zm2.756 3.379c-.032 0-.047.016-.063.016-.015.015-.046.03-.062.062-.016.015-.016.093 0 .14 0 .031.047.047.062.062.031.047.063.063.11.11.062.03.124-.016.14-.063.015-.078.015-.171 0-.234 0-.03-.032-.03-.047-.062-.031-.031-.047-.031-.078-.047-.016 0-.031 0-.062.016zm.778.638c-.015 0-.015 0-.031.016s-.031.031-.031.047c0 .093-.047.233.031.296.047.015.093.03.125-.016.015-.031.062-.031.062-.078 0-.015-.031-.031-.047-.062-.015-.031 0-.11-.015-.14-.016-.016-.032-.047-.047-.047-.016 0-.031-.016-.047-.016zm-1.37.094c-.062.015-.125.078-.156.156-.031.046-.031.077 0 .109.031.046.078.109.14.14.047.03.11.03.14-.078.032-.094.032-.218-.015-.25-.062-.046-.047-.093-.11-.077zm.7 1.105c-.108.857-.42 1.838-.731 2.492.358-.047.638.171.67.451.093-.311.326-.545.622-.467-.202-.794-.436-1.635-.56-2.476zM42.103 36.708c-.016 0-.031.015-.047.03-.062.14-.14.28-.202.421-.063.156-.063.296.186.374 4.376 1.79 2.227 5.17 1.075 7.163-.125.202-.405.81-.42 1.074-.047.28 0 .53 0 .825 0 .063-.094.094-.156.078-2.803-.545-5.232 1.93-7.521-.732-.218-.233-.467-.249-.56-.171-.11.078-.172.156-.25.265-.047.062-.047.109.016.17 2.382 3.349 5.917-.606 8.953 1.06-.716-1.697.685-3.348 1.48-4.843 1.759-2.974-.296-4.811-2.554-5.714.015 0 .015 0 0 0zm-2.32 3.316c-.032 0-.047.016-.063.016-.015.015-.046.03-.062.062-.016.031 0 .094 0 .14.016.031.031.047.047.063.03.046.062.062.109.108.062.047.124 0 .14-.046.015-.078.015-.171 0-.234 0-.031-.031-.047-.031-.062-.016-.031-.047-.031-.078-.047h-.062zm.731.685c-.015 0-.015 0-.03.016-.016.015-.032.031-.032.047 0 .093-.047.233.031.28.047.031.094.031.14-.016.016-.03.047-.03.047-.078 0-.015-.031-.03-.031-.062-.016-.031 0-.109-.016-.14-.015-.016-.015-.047-.046-.047-.016 0-.031-.015-.063 0zm-1.354.094c-.063.015-.125.078-.156.156-.031.046-.031.077 0 .108.031.047.078.11.14.14.047.032.11.032.14-.077.032-.094.016-.218-.015-.25-.047-.046-.047-.093-.11-.077zm.747 1.105c-.109.857-.42 1.838-.732 2.492.358-.047.639.171.67.451.093-.311.327-.56.623-.467-.187-.778-.42-1.62-.56-2.476zM44.766 23.145c-.016 0-.016.015-.032.015-.03.032-.062.25-.062.39 0 .031 0 .046.031.078.623.389 2.507 2.507 4.142 2.88.078.016.078.078.047.11-1.947 2.288.374 5.87-3.457 7.224-.716.203-1.433.11-1.557.577 0 .015.016.03.031.03 2.305.14 3.753-.638 4.173-2.273.56-1.837-.498-4.453 1.48-5.87.046-.031.015-.11-.016-.094-1.993.203-3.27-1.915-4.75-3.067h-.03zm.638 3.067c-.031 0-.047.016-.062.032-.016.015-.047.03-.063.062-.015.015 0 .093 0 .14.016.031.031.047.047.062.031.047.062.063.109.094.062.046.125 0 .14-.047.016-.078.016-.171 0-.233 0-.032-.031-.047-.031-.063-.015-.03-.047-.03-.078-.047h-.062zm.67.748s-.016 0-.016.015c-.016.016-.016.032-.016.047 0 .094-.046.234.032.28.046.016.093.032.124-.015.016-.031.062-.031.062-.078 0-.031-.03-.031-.046-.062-.016-.047 0-.11-.016-.14-.016-.016-.016-.047-.047-.047-.03.015-.062 0-.078 0zm-1.386.015c-.063.016-.125.078-.156.156-.031.047-.031.078 0 .11.031.046.078.108.14.14.047.03.11.03.14-.079.016-.093.016-.218-.015-.249-.063-.03-.047-.093-.11-.078zm.747 1.106c-.109.856-.42 1.837-.732 2.491.358-.046.654.172.67.452.093-.311.327-.56.623-.467-.187-.794-.42-1.635-.561-2.476z"/>
    <path fill="#0053A0" d="M43.442 17.804h-.03c-1.776.498-4.158 2.538-6.12 4.329-.063.062-.14.078-.203.062-1.308-.436-2.834-.483-4.095-.514-1.806-.171-3.986.063-5.933.685-.077.032-.14-.046-.202-.124-1.542-1.713-3.706-3.114-6.057-4.095-.063-.031-.125-.063-.187.015-1.199 1.106-.934 4.391.093 6.166.125.265.156.717.156.872.078.95.265 1.791.514 2.679.062.56.28 1.12.592 1.588.062.078.03.14-.016.187-.405.405-.779.794-1.183 1.199-.032.03-.094.046-.14.062-.343.047-.452.156-.608.545-.03.062-.015.093.016.14.062.11.451.794.778 1.152.312.312.203.608-.062.888.498.374 1.386 1.09 1.448 1.199.063.28.56.39.265.794.078.016.125.047.187.094.046.046.062.093.062.14.047.451.125.856.374 1.277 1.012 1.712 2.149 1.448 3.488 2.911.81.872 1.604.92 2.148 2.46-.046.592-.077.95.156 1.449.28.623.997.638 1.9 1.059.124.046.187.077.28.17.234.235.514.375.826.53.249.11.545.11.778-.015.436-.25.53-.063 1.34-.654.762-.218 1.992-1.153 1.868-2.756 0-.047.015-.078.03-.125.032-.078.094-.14.157-.218.311-.374.654-.685.872-1.137.046-.109.077-.218.17-.295 3.037-2.476 1.963-1.386 3.053-2.227 2.242-1.713.778-3.706 3.41-4.827-.358-.763-.234-.825.919-2.43-.608-.326-1.044-.7-1.464-.996-1.34-1.043-.125-1.93-.016-2.445.078-.296.187-.654.218-1.027.14-.857.063-1.869.499-2.32.327-.312.42-2.025.467-2.15.358-1.12.218-1.26.296-1.961.015-.094.046-.172 0-.265-.25-.685-.545-1.34-.903-1.993-.032-.062-.047-.109-.094-.125-.031.047-.047.047-.047.047zm-1.059 2.616c-.14 1.401-.654 2.32-.498 3.488-.591.732-.39 2.087-.934 2.896-.031.047-.078.078-.14.063-.732-.125-1.23-1.028-1.853-1.542-.063-.047-.094-.093-.078-.14.25-.56.825-1.121.374-1.682.046-1.62 1.977-1.884 3.13-3.083zm-20.85.28c1.137.639 1.87 1.713 2.43 1.729.093.14.218.28.311.389.841.95.171 1.308.903 2.523.078.17.11.342 0 .436-.498.436-.934.856-1.339 1.339-.545.654-.81.42-.965 0-.094-.312-.203-.654-.063-1.012.094-.187.032-.359-.108-.545-.203-.28-.359-.561-.514-.857-.063-.109-.094-.202-.11-.342-.202-1.2-.155-3.006-.544-3.66zm14.14 11.928c.077-.016.155.047.17.124.016.078-.046.156-.14.172-.077.015-.155-.047-.17-.14-.016-.078.046-.156.14-.156zm-7.786.016c.078 0 .155.046.171.14.015.078-.047.155-.14.17-.078.017-.156-.046-.171-.124 0-.109.062-.186.14-.186zm12.535 3.378c.124 0 .155.11.14.234-.125 1.65-.904 1.199-2.663 2.756-.467.374-.311.716-.934 1.246-.514.482-.997.996-1.448 1.62-.078.108-.125 0-.125-.063-.016-.125-.093-.28-.202-.405-.296-.327.17-.28-.343-1.074-.218-.312-.467.093-.623-.42-.093-.328 0-.172-.124-.935l.311-.25c.14.406.343.764.56 1.044.032.047-.03.39.11.685.03-.483.467-.763-.156-1.62-.078-.108-.125-.217-.156-.357 0-.016 0-.031-.015-.047 1.167-.763 2.475-1.37 3.706-1.884-.063.078-.125.14-.187.218-.031.031.03.047.046.047.078-.016.11-.016.172 0 .046.015.03.062.03.093.016.14-.108.156-.077.311.202-.264.39-.513.607-.747.047-.062.11-.14.203-.125l.218.032c.078 0 .155-.016.233-.032.203-.077.343-.17.53-.295.093-.016.14-.032.187-.032zm-16.537.265s.015 0 .031.016c.576.296 1.386.482 1.79.654.219.093.437.249.608.28.062 0 .062-.031.031-.078-.047-.062-.093-.14-.124-.187.996.467 1.93 1.012 2.911 1.65 0 .016 0 .016-.015.032-.031.078-.063.156-.078.233-.016.047-.031.078-.047.125l-.047.093c-.015.047-.046.11-.062.14-.03.047-.062.125-.078.172 0 .015-.015.031-.03.047-.016.03-.032.062-.047.109-.016.03-.016.046-.016.062s0 .016-.016.031c0 .031-.015.062-.015.094v.093c0 .031 0 .078.015.109.016.093.047.14.078.156.016 0 .031 0 .031.015.016 0 .063.016.078-.03.016-.032.031-.063.047-.11l.047-.093c.03-.063.078-.125.124-.187.016-.016.016-.031.031-.047.078-.109.172-.218.25-.327.015-.015.015-.015.015-.031l.094-.14c.015-.016.015-.031.03-.047.032-.047.063-.093.078-.14l.623.467c-.109.25-.233.607-.28.84-.078.546-.42.437-.67.219.016.576.063.81-.264 1.308-.047.078-.078.047-.11 0-.762-1.48-1.51-1.121-2.475-2.71-.093-.233-.25-.451-.576-.56-1.2-.467-2.056-.794-2.024-2.164.015-.078.03-.094.062-.094zm10.557 4.936c.047 0 .094.047.11.094.248.545.544 1.51.45 1.806-.357 1.355-1.307 1.588-2.21 1.464-.67-.094-.67-.25-.686-.686 0-.046.063-.062.125-.077.81-.25 1.292-.701 1.308-1.526 0-.11.016-.234-.047-.343.218-.14.436-.296.639-.483l.015-.015c.063-.094.14-.172.234-.234.031.016.047 0 .062 0zm-4.484.11c.03-.016.046 0 .078.03.015.016.046.094.108.094.11.14.265.249.405.358-.046.047-.078.093-.093.14-.047.125-.031.343 0 .545.015.125.062.218.125.327.295.452.498.654.825.888.14.077.28.155.467.14.047 0 .078.03.062.062-.046.67-.358.716-1.12.623-1.698-.343-1.854-1.448-.935-3.114.015-.063.047-.094.078-.094zm2.195 3.612c.234 0 .483 0 .732.03.031 0 .047.032.031.063-.03.094-.14.203-.187.25-.03.03-.078.03-.124.046-.187.047-.467.078-.514.062l-.14-.046c-.156-.094-.312-.187-.467-.296-.032-.031-.032-.063 0-.078.218 0 .436-.031.67-.031z"/>
    <path fill="#FDBE11" d="M43.255 19.05h-.03c-1.932.7-4.33 2.102-5.575 3.955-.499.405-1.012.794-1.557 1.152 1.105-1.48-1.106-1.573-3.784-1.868-1.838-.156-4.033.42-4.734.81-.062.03-.109.108-.047.17.203.28.265.623.374.935.016.031-.015.031-.047.015-2.32-2.086-5.792-4.889-6.96-5.17-.062-.015-.109.016-.14.063-.078.171-.11.218-.171.39-.047.155-.125.248-.172.28-.67.654.499 1.868.67 4.095.109.934.342 1.355.56 2.009.032.093.063.155.063.249.296 1.043.498 2.102.887 3.052.483 1.541-1.386 1.292-1.463 2.569-.047.872.98 1.339.81 1.977-.016.047-.094.078-.047.14.778.81 1.09.623 1.401 1.293.732 1.292 1.541-.125 2.865 1.76.997.467 1.93 1.012 2.912 1.65.078-.218.14-.498.187-.84.124-.701.093-1.418-.343-2.399-.078-.14-.03-.389.11-.498.077-.062.108-.078.108.031.125 1.308 1.184 2.18.53 3.41-.031.047-.047.078-.047.156.016.171-.016.311-.078.452l.623.467c.047-.11.078-.187.109-.25.28-1.448.498-3.783.716-4.08.016-.03.047-.077 0-.108-.249-.25-.514-.67-.39-.794.141-.11.92.218.904.778-.031.498-.53 5.185-1.137 5.855-.03.031-.015.062 0 .078.265.374.218.467.125.514-.093.03-.265.015-.343.046h-.046c.109.14.264.25.405.359.093-.078.233-.14.451-.187.872-.156 1.697-.125 2.336.171.078.047.14.093.171.156.218-.14.436-.296.638-.483-.062.047-.186 0-.202-.093-.343-1.9-.716-2.196-.934-3.629-.094-.482-.125-.996-.047-1.463.031-.156.047-.28 0-.452-.125-.467-.125-.95-.016-1.417.078-.156.25-.358.39-.545.109-.14.187-.311.249-.483.062-.186.67-1.09 1.183-1.23.047-.015.047-.03.063-.077 0-.047-.078-.047-.078-.11.015-.358 2.273-.17 3.456-.062.452-.046.904-.109 1.324-.187.078-.015.078.016.031.063-.358.389-.856.607-1.323.654-.094.015-.11.062-.125.124-.265 1.324-2.18 1.962-3.005 1.806-.047-.015-.063.032-.047.063.062.67-.233.747-.483 2.725-.015.109-.015.202 0 .327.047.327.14.623.203.965 1.168-.763 2.476-1.37 3.706-1.884.249-.28.498-.53.747-.825.078-.094.203-.156.343-.203.98-.404 1.977-1.058 2.71-1.853.015-.03.061-.078.046-.124-.234-1.059.467-1.37.919-2.165.062-.109 0-.124-.078-.17-.483-.312-.919-.733-1.262-1.122-.077-.124-.109-.265-.14-.405-.358-1.65.374-1.775.499-2.725-.016-.483.124-1.027.264-1.526.172-.576.25-1.043.452-1.37.093-2.88.996-2.227.747-3.753-.062-.311-.218-.856-.42-1.245.031.046.015.03-.016.03zm-.56.56h.046c.11 0 .187.078.187.172.016.186.063.358.094.529-.67 1.588-.28 3.768-1.153 5.107-.046 1.168-.186 1.916-.887 2.383-.031.015-.062.015-.094 0-1.105-.545-2.102-1.666-3.067-2.554 1.51-.98.14-2.009 1.215-3.13 1.245-1.323 2.35-1.448 3.487-2.429.078-.062.125-.078.172-.078zm-21.598.078c.14 0 .296.078.405.187 1.121.483 1.012.934 1.884 1.37.187.094.499.265.748.327.109.39.296.374.7 1.075.094.171.452.451.499.685.031.14.015.28.015.42-.015.39-.17.779.047.95.171.093.062.187.39.343.17.077.248.155.155.327-.265.451-.576.825-.872 1.245-.078.094-.187.172-.296.234-.623.374-1.152.903-1.713 1.401-.03.032-.046 0-.077-.015-.545-.312-.686-.841-.763-1.573-.187-1.946-.577-.265-1.23-6.073-.094-.264-.187-.732-.11-.84.063-.032.14-.063.218-.063zm12.706 3.784c-.498.934-.747.84-1.058 1.199-.016.031-.047.062-.063.093-.015.032-.046.063-.062.11-.031.03-.047.077-.047.108 0 .032-.015.063-.015.094.015.296-.031.42.047.53 0 0 .015.015.015.03v.032c0 .015 0 .046-.015.062-.063-.031-.14-.11-.218-.172-.063-.046-.11-.093-.125-.14 0-.015-.016-.03-.016-.046v-.063c0-.062-.03-.062-.046-.14 0-.03-.016-.093-.016-.202v-.203c0-.046 0-.078.016-.093 0-.016.015-.016.015-.031l.031-.031c.436-.499 1.044-.81 1.557-1.137zm-3.596.109c.467.327.996.747 1.526 1.183.015.016.015.032.03.047.032.047.047.093.047.171-.03.203-.124.39-.202.576 0 .016-.016.016-.016.016l-.015.016h-.047c-.093-.125-.187-.234-.28-.358-.031-.032-.062-.078-.062-.125v-.203c0-.062-.032-.108-.047-.14-.047-.078-.14-.124-.265-.155-.109-.032-.202-.078-.296-.14-.124-.094-.202-.203-.264-.343-.078-.187-.11-.343-.11-.545zm6.26 4.547c.124 0 .264.015.389.046.124.032.264.078.373.14.031.016.047.063 0 .078-.187.047-.373.11-.576.187-.093.031-.187.078-.28.125-.483.218-.981.483-1.464.732-.047.015-.093.015-.109-.016 0-.015-.015-.015-.015-.047-.016-.046-.016-.108 0-.155 0-.047.015-.11.015-.156 0-.078.047-.078.078-.125.093-.03.171-.062.233-.093.187-.093.265-.156.328-.202.046-.047.093-.078.14-.125.062-.047.14-.093.264-.156.078-.03.156-.062.218-.093.078-.031.156-.062.218-.094.078-.015.14-.03.187-.046zm-9.484.109h.032c.03.015.062.03.077.03l.047.048c.062.046.078.109.234.17.03.017.078.032.14.063.046.016.124.031.187.063.187.062.311.093.436.14.124.046.233.109.389.202.047.031.109.078.156.125.062.046.124.093.186.155.032.032.063.047.063.078v.047c0 .015-.016.031-.016.047-.015.03-.047.062-.062.078-.016 0-.016.015-.031.015h-.031c-.047-.015-.078-.015-.125-.031l-.093-.047c-.031-.015-.063-.031-.078-.047-.031-.015-.047-.046-.063-.062-.046-.046-.093-.078-.14-.124-.03-.016-.062-.047-.093-.063-.031-.015-.078-.046-.125-.062-.046-.015-.078-.031-.124-.015-.016 0-.031 0-.031.015-.047.016-.094 0-.14-.015-.032-.016-.078-.016-.125-.032-.296-.124-.685-.42-.685-.763 0 0 0-.015.015-.015-.015 0-.015 0 0 0zm.639 3.379c.078 0 .171 0 .249.015.078.016.171.016.265.031.062.016.14.032.202.047.016 0 .047.016.062.016.047.015.078.015.125.03.047.016.109.032.156.048.078.03.155.046.218.093l.186.093c.063.032.125.078.187.11.047.03.11.062.156.108.031.016.047.032.062.047.032.031.078.062.11.094.015 0 .015.015.03.015l.016.016c.016.015.031.015.031.03l.14.141.187.187.016.015c.047.063.109.125.155.187.032.047.063.078.094.125.031.031.047.062.078.109.062.078.109.171.155.249.016.031.032.078.032.109 0 .016 0 .016-.016.031-.047.11-.078.203-.109.327 0 .016-.015.031-.031.031h-.016c-.077-.047-.155-.109-.233-.156-.078-.046-.14-.108-.203-.17-.062-.063-.124-.11-.186-.172-.577-.53-.966-1.106-1.744-1.261-.343-.063-.763-.047-1.293.093-.171.016-.374.016-.576 0-.203-.015-.405-.047-.607-.078-.094-.015-.187-.03-.28-.062-.094-.016-.172-.047-.25-.062-.155-.047-.28-.094-.373-.14.404 0 .84 0 1.23-.016.389-.016.7-.047.856-.078.047-.031.11-.047.187-.062.062-.016.14-.047.202-.062h.016c.062-.016.14-.032.218-.032h.031c.078-.03.171-.03.265-.046zm8.486.654c-.342.015-.716.155-1.137.514-.638.622-1.167 1.401-1.588 2.148-.047.094-.062.172-.047.265.468 2.149.67 3.223.763 3.784l.312-.25c-.187-.513-.28-1.151-.218-1.899.218-.576.342-1.261.436-1.9.342-.716.373-1.012.7-.996.296.015.592.031.873-.031.108-.016.186-.063.28-.125.467-.28.856-.654 1.183-1.074.047-.047.063-.14.047-.172-.016-.03-.031-.046-.078-.046-.483.03-.965-.25-1.526-.218zm-.156.062c.094 0 .187.016.265.062.171.078.312.203.374.374.03.078.062.171.062.265 0 .093-.015.187-.047.264-.03.094-.093.172-.155.234-.187.187-.483.265-.748.156-.047-.016-.093-.031-.124-.063-.047-.03-.078-.062-.11-.093-.186-.187-.264-.483-.155-.747l.047-.094.015-.015c.016-.016.016-.032.031-.032.016-.03.047-.046.063-.062l.015-.015c.031-.032.063-.063.094-.078l.093-.047h.016c.015 0 .015-.016.03-.016.032-.015.079-.03.125-.03.016-.063.063-.063.11-.063zm-7.77 0c.094 0 .172.016.265.047.047.015.094.03.125.062.046.031.078.062.109.093.03.032.062.063.093.11.047.077.093.155.11.249.03.124.015.264-.032.404-.016.047-.047.078-.062.125-.094.156-.265.25-.436.296-.094.015-.172.015-.265 0-.047 0-.093-.016-.14-.031-.047-.016-.094-.047-.125-.063-.078-.046-.14-.109-.187-.187-.124-.186-.155-.42-.078-.638.016-.047.047-.078.063-.124.015-.032.047-.063.078-.094l.015-.015c.031-.032.063-.063.094-.078l.093-.047c.031-.016.062-.016.093-.031.032-.016.063-.016.094-.031h.016c.015-.031.046-.047.077-.047zm-2.21.343h.061c.032 0 .063.015.094.03.031.016.078.032.125.063.046.031.077.047.14.093l.015.016c.047.031.078.062.125.093.046.032.093.078.14.11.093.077.202.155.327.248.062.047.125.078.187.125.047.031.093.062.155.093.016.016.047.032.063.032l.187.093c.062.031.124.062.202.093.016.016.047.016.062.032.063.03.14.046.218.062.094.031.172.047.265.062.093.016.187.031.28.031.094.016.203.016.312.016.015 0 .03 0 .047.016.015.015.015.015.03.046 0 .171-.155.234-.31.234H28.4c-.295-.016-.576-.031-.872-.078-.03 0-.062-.016-.093-.016-.031-.015-.047-.03-.078-.046-.093-.063-.187-.125-.28-.203l-.28-.233c-.094-.078-.172-.156-.25-.218-.078-.063-.124-.125-.17-.172-.048-.03-.079-.062-.11-.093s-.047-.062-.062-.078c-.031-.047-.047-.078-.078-.109-.016-.015-.016-.031-.031-.047-.031-.046-.11-.077-.25-.155-.015 0-.03-.016-.03-.031v-.016s.015-.016.015-.031c.016-.016.031-.016.047-.031.015-.016.031-.016.046-.016.016 0 .032-.015.047-.015z"/>
</svg>
