<svg xmlns="http://www.w3.org/2000/svg" width="64" height="65" fill="none" viewBox="0 0 64 65">
    <path fill="#00285E" d="M32.027 3.74c-15.997 0-29 13.002-29 29 0 15.997 13.003 29 29 29 15.998 0 29-13.003 29-29 0-15.998-13.002-29-29-29z"/>
    <path fill="#fff" d="M57.996 32.74c0-14.355-11.615-25.97-25.968-25.97-14.354 0-26.006 11.615-26.006 25.97 0 14.353 11.652 25.968 25.969 25.968 14.39 0 26.005-11.615 26.005-25.969z"/>
    <path fill="#6CADDF" d="M48.573 32.74c0-9.132-7.414-16.546-16.545-16.546-9.131 0-16.546 7.414-16.546 16.545 0 9.131 7.415 16.546 16.546 16.546 9.13 0 16.545-7.415 16.545-16.546z"/>
    <path fill="#00285E" d="M32.028 50.563c-9.825 0-17.824-7.999-17.824-17.86 0-9.862 7.999-17.824 17.824-17.824 9.825 0 17.86 7.999 17.86 17.824-.037 9.861-8.035 17.86-17.86 17.86zm0-34.661c-9.277 0-16.838 7.56-16.838 16.837 0 9.277 7.56 16.838 16.838 16.838 9.277 0 16.837-7.56 16.837-16.838 0-9.277-7.56-16.837-16.837-16.837z"/>
    <path fill="#6CADDF" d="M32.027 60.534c-15.34 0-27.795-12.491-27.795-27.795 0-15.303 12.455-27.794 27.795-27.794 15.34 0 27.795 12.49 27.795 27.794 0 15.34-12.455 27.795-27.795 27.795zm0-55.005c-15.011 0-27.21 12.199-27.21 27.21 0 15.012 12.199 27.21 27.21 27.21 15.011 0 27.21-12.198 27.21-27.21 0-15.011-12.199-27.21-27.21-27.21z"/>
    <path fill="#6CADDF" d="M8.834 32.12l-.474.11-.11-.475.767-.22h.402v2.704h-.585V32.12zM10.076 33.47c0-.329.146-.512.438-.658-.219-.11-.328-.292-.328-.584 0-.402.365-.73.95-.73.584 0 .949.328.949.73 0 .292-.11.475-.329.584.256.146.439.329.439.621 0 .511-.439.804-1.023.804-.585 0-1.096-.293-1.096-.767zm1.498-.037c0-.219-.183-.328-.475-.328-.256 0-.475.11-.475.328 0 .183.183.329.475.329s.475-.146.475-.329zm-.073-1.132c0-.183-.146-.329-.366-.329-.219 0-.365.146-.365.329 0 .183.146.329.365.329.22 0 .366-.146.366-.329zM52.846 33.105c-.146.109-.329.182-.548.182-.584 0-.95-.329-.95-.877 0-.547.439-.95 1.023-.95.365 0 .585.074.767.293.183.183.329.475.329 1.023 0 .876-.402 1.46-1.169 1.46-.401 0-.657-.109-.876-.328l.328-.438c.183.146.366.219.585.219.365.036.475-.365.511-.584zm0-.694c0-.256-.182-.439-.475-.439-.292 0-.438.183-.438.402 0 .256.183.402.475.402.255.036.438-.146.438-.366zM55.33 33.616h-1.315l-.11-.438 1.461-1.717h.512v1.644h.365v.474h-.365v.585h-.585l.037-.548zm0-.475v-.84l-.73.84h.73z"/>
    <path fill="#fff" d="M32.027 49.577c-9.277 0-16.837-7.56-16.837-16.838 0-9.277 7.56-16.837 16.837-16.837 9.277 0 16.837 7.56 16.837 16.837 0 9.277-7.56 16.838-16.837 16.838zm0-33.054c-8.948 0-16.217 7.268-16.217 16.216 0 8.949 7.269 16.217 16.217 16.217 8.948 0 16.217-7.268 16.217-16.217 0-8.948-7.269-16.216-16.217-16.216z"/>
    <path fill="#00285E" fill-rule="evenodd" d="M31.698 18.24c-8.327 0-13.112 1.095-13.112 1.095s-1.899 7.305-.803 16.618c.438 3.908 3.652 12.345 14.208 15.23 10.555-2.885 13.733-11.322 14.208-15.23 1.095-9.35-.804-16.618-.804-16.618s-4.785-1.096-13.112-1.096h-.585z" clip-rule="evenodd"/>
    <path fill="#97C1E7" fill-rule="evenodd" d="M44.738 33.762c-.11 2.849-.548 11.286-12.747 15.96-12.126-4.528-12.747-13.294-12.747-15.96h25.494z" clip-rule="evenodd"/>
    <path fill="#fff" fill-rule="evenodd" d="M44.373 33.324c.329-7.013-.877-12.71-.877-12.71s-4.565-.877-11.505-.877c-6.976 0-11.614.95-11.614.95s-1.242 5.697-.913 12.6l24.909.037z" clip-rule="evenodd"/>
    <path fill="#6CADDF" d="M32.356 49.467L19.463 33.871c-.475 3.215 2.118 12.71 12.893 15.596zM23.298 33.798l11.943 14.39c1.206-.584 2.082-1.131 2.959-1.825L27.754 33.798h-4.456zM31.589 33.798l8.839 10.629c.876-.986 1.607-1.863 2.118-2.812l-6.501-7.817h-4.456zM44.519 33.798h-4.42l3.69 4.456c.657-1.387.73-3.688.73-4.456z"/>
    <path fill="#00285E" d="M37.177 39.642c-.036-.11-.11-.182-.219-.219l-.73-.256c-.074-.036-.11 0-.183 0-.073-.255-.183-.474-.402-.62-.036 0-.073-.037-.073-.073-.036-.037-.11-.074-.146-.074-.11-.036-.183-.073-.292-.11-.22-.072-.438-.145-.694-.328-.256-.183-.365-.365-.475-.511-.037-.037-.073-.073-.073-.11-.073-.11-.183-.219-.256-.292-.182-.11-.401-.183-.62-.183h-.147c0-.073 0-.182-.073-.255l-.438-.621c-.073-.073-.183-.146-.292-.146-.11 0-.22.036-.256.11l-.475.62c-.073.073-.073.183-.073.256h-.11c-.218 0-.438.073-.62.183-.037 0-.073.036-.073.073l-.11.11c-.073.072-.11.145-.182.255-.146.182-.256.365-.548.548-.256.182-.439.255-.621.292-.037 0-.073.036-.11.036-.11.037-.255.073-.365.183-.22.146-.365.402-.438.657-.073-.036-.146-.036-.256 0l-.73.256c-.11.037-.183.11-.22.22-.036.109 0 .218.037.291l.438.621c.073.073.11.11.22.146-.11.256-.147.548-.074.804 0 .036.037.073.037.073 0 .073.036.11.073.183.073.073.11.182.183.255.146.183.255.366.365.694.11.292.073.512.073.694v.146c0 .146 0 .256.073.402.073.256.256.475.475.584-.037.073-.073.11-.037.183v.767c0 .11.073.22.146.256.073.073.183.073.292.073l.767-.22c.073 0 .11-.072.146-.109.22.22.548.329.84.292.074 0 .11 0 .183-.036.11-.037.183-.073.292-.073.22-.073.439-.146.767-.146.33 0 .512.073.694.11.037 0 .073.036.11.036.11.073.256.073.402.073.255 0 .547-.11.73-.292.037.073.073.073.146.11l.73.218c.11.037.22 0 .33-.036.073-.073.146-.146.146-.256v-.767c0-.073 0-.11-.037-.183.22-.11.402-.328.475-.584 0-.036 0-.073.036-.11 0-.073.037-.11.037-.182v-.292c0-.22 0-.439.11-.767.109-.292.219-.439.328-.621.037-.037.073-.073.073-.11.073-.11.146-.219.183-.365.073-.256.073-.584-.073-.804.073-.036.11-.073.182-.11l.439-.62c0-.11 0-.22-.037-.329z"/>
    <path fill="#FFC758" d="M31.589 41.286c0-.256.183-.438.438-.438.256 0 .438.182.438.438s-.182.438-.438.438-.438-.219-.438-.438z"/>
    <path fill="#EE3124" d="M31.991 37.633c-.073-.255-.256-.51-.438-.62l.438-.585.438.585c-.219.146-.365.365-.438.62zm-3.47 2.52c-.219-.145-.365-.365-.474-.584l-.695.22.402.584c.256-.146.512-.22.767-.22zm1.352 4.018c-.22.183-.439.256-.73.256v.73l.693-.219c-.073-.219-.073-.511.037-.767zm4.236 0c.11.256.11.512 0 .767l.694.22v-.731c-.182 0-.438-.073-.694-.256zm1.315-3.98c.293 0 .512.072.73.218l.44-.584-.695-.256c-.073.22-.219.438-.475.621zm-4.31 4.017c-.328 0-.584-.256-.584-.585 0-.036-.036-.073-.073-.036-.22.255-.365.475-.365.767 0 .402.329.73.73.73h.183c.292-.073.548-.219 1.023-.219.401 0 .62.11.84.183.073.036.182.073.292.073.402 0 .73-.329.73-.73 0-.293-.182-.512-.365-.768 0-.036-.073 0-.073.037 0 .329-.256.584-.584.584-.256 0-.548-.219-.877-.219-.256-.036-.62.183-.877.183zm-.365-.804c0 .256.22.475.475.475h.146c.183-.073.329-.11.621-.11s.438.074.621.11c.073 0 .11.037.183.037.255 0 .474-.22.474-.475 0-.073 0-.146-.036-.183 0-.036-.037-.073-.037-.073s-.803-1.132-.84-1.132c-.036-.073-.11-.037-.11 0-.036 0-.145.036-.218.036-.073 0-.146 0-.183-.036-.073-.037-.11-.037-.11 0-.036.036-.62.84-.803 1.096-.146.036-.183.11-.183.255zm3.762-.365c-.11.329-.438.475-.73.365-.037 0-.073 0-.037.073.183.256.329.512.621.585.365.11.804-.073.913-.475v-.073c0-.037 0-.073.037-.11.036-.292-.037-.584.11-1.022.109-.366.292-.548.438-.73.073-.074.11-.147.146-.257.11-.365-.073-.803-.475-.913-.256-.073-.548 0-.84.11-.037 0-.037.036 0 .073.329.11.475.438.365.73-.073.22-.365.439-.475.767-.073.22.037.621-.073.877zm-.876.11c.255.073.547-.074.62-.33v-.145c0-.183-.036-.365.074-.621.11-.292.219-.402.328-.548.037-.037.073-.11.073-.146.073-.256-.073-.511-.328-.621-.073 0-.146-.036-.183 0h-.073s-1.315.438-1.388.438c-.073.037-.073.073-.073.11 0 .036 0 .146-.037.219 0 .073-.073.146-.11.183-.036.036-.072.073-.036.11.037.036.621.84.804 1.095.11.146.22.22.329.256zm.803-3.726c.256.183.329.548.11.804-.037.036 0 .073.036.073.329-.073.585-.183.767-.402.256-.329.183-.767-.146-1.023 0 0-.036-.036-.073-.036-.036-.037-.073-.037-.11-.037-.255-.11-.547-.146-.949-.438-.329-.256-.438-.438-.584-.621-.037-.073-.11-.146-.183-.22-.329-.255-.804-.182-1.023.147-.146.22-.146.511-.146.84 0 .037.037.037.073 0 .183-.256.548-.329.804-.11.182.147.328.512.584.658.22.182.621.256.84.365zm-.146.877c.146-.22.11-.512-.11-.694l-.073-.073h-.036c-.183-.073-.329-.073-.584-.256-.256-.183-.33-.329-.402-.438l-.11-.11c-.219-.146-.511-.11-.694.11-.036.073-.073.11-.073.182v1.498c0 .073.073.073.11.073.036 0 .146.073.182.073.073.037.11.11.146.146.037.037.074.073.11.073.073-.036 1.023-.329 1.315-.438.036.036.146-.037.22-.146zm-3.324-1.9c.256-.182.621-.11.804.11.037.037.073.037.073 0 0-.329 0-.62-.146-.84-.22-.329-.694-.402-1.023-.146-.036 0-.036.036-.073.036-.036 0-.073.037-.073.073-.183.22-.329.475-.694.767-.328.256-.584.293-.767.33-.073.036-.182.072-.255.109-.33.255-.402.694-.147 1.022.183.22.439.33.767.402.037 0 .037-.036.037-.073-.183-.255-.11-.62.11-.803.182-.147.584-.147.803-.33.22-.109.402-.51.584-.657zm.804.439c-.146-.22-.475-.256-.694-.11-.037 0-.037.037-.073.073l-.037.037c-.11.146-.182.292-.438.475-.256.182-.402.182-.584.255-.073 0-.11.037-.146.073-.22.146-.256.439-.11.694.037.073.11.11.146.11.037 0 .037.036.073.036 0 0 1.315.439 1.388.439.073 0 .11-.037.11-.073.036-.037.073-.11.146-.146.073-.037.11-.074.182-.074.073 0 .11-.036.11-.073v-1.351c.037-.146 0-.256-.073-.365zm-2.849 2.52c-.11-.329.073-.621.365-.73.037 0 .037-.074 0-.074-.328-.11-.584-.219-.84-.11-.365.11-.584.549-.475.914 0 .036 0 .036.037.073 0 .036.037.073.073.11.146.255.365.438.511.913.11.365.073.62.073.84 0 .073 0 .182.037.292.11.365.548.584.913.475.256-.073.438-.329.62-.585 0-.036 0-.073-.036-.036-.328.11-.62-.073-.73-.366-.073-.219.037-.584-.073-.876-.073-.292-.402-.584-.475-.84zm.658-.584c-.256.073-.402.365-.33.62 0 .037 0 .073.037.073 0 0 0 .037.037.037.11.146.219.256.329.548.11.292.073.438.073.62 0 .074 0 .11.036.183.073.256.365.402.621.33.073 0 .11-.074.183-.11l.073-.074s.803-1.132.84-1.168c.036-.073 0-.11-.037-.11-.036 0-.073-.11-.11-.182 0-.074-.036-.147-.036-.183 0-.037 0-.11-.073-.11s-1.023-.328-1.315-.438c-.073-.073-.219-.073-.328-.036z"/>
    <path fill="#FFC758" d="M36.082 26.311l2.995-1.023s-.256 1.242-.183 2.192c.073 1.242.804 2.191.804 2.191l-3.69 1.279.074-4.639z"/>
    <path fill="#D4A11E" d="M39.697 29.671s-.657-.95-.767-2.008c-.073-.804 0-1.535.146-2.375-.11.585-.62 2.155-1.972 3.653-.548.584-.767 1.132-.877 1.497l-.073-7.049s-.694.256-.767.256c-.073.036-.11.073-.11.11 0 .036-.036.072-.072.072-.073 0-.475.183-.767.256-.073 0-.037.073 0 .073.328 0 .803-.073.876-.073.073 0 .11-.036.11-.073 0-.073.073-.11.11-.11.036 0 .292-.036.438-.073l-.073 7.597h.328v-.547l3.47-1.206z"/>
    <path fill="#FFC758" d="M26.439 31.169s-.548-.402-.694-1.206c-.146-.803.255-1.241.255-1.241l3.616-1.242s-.219.73 0 1.534c.256 1.023.804 1.716.804 1.716s-1.315-.255-2.63-.073c-1.205.146-1.351.512-1.351.512zM22.275 30.256s.439-1.242 1.754-2.594c1.022-1.022 1.643-1.314 1.643-1.314s-.584.84-.803 2.191c-.146.84 0 1.936 0 1.936s-.694-.146-1.461-.22c-.621-.072-1.133 0-1.133 0z"/>
    <path fill="#D4A11E" d="M25.709 26.348s-.585.84-.804 2.191c-.146.84 0 1.936 0 1.936s-.182-.037-.584-.11c-1.57-.365 1.388-4.017 1.388-4.017zM27.828 27.334l-.037-3.25c-.073.036-.694.255-.767.255-.073.036-.11.073-.11.11 0 .036-.036.072-.073.072-.073 0-.474.146-.767.256-.073 0-.036.073 0 .073.33 0 .804-.073.877-.073.073 0 .11-.037.11-.073 0-.073.073-.11.11-.11.036 0 .291-.036.437-.036l-.036 2.776h.256zM32.064 24.412h.255V21.27s-.694.255-.767.255c-.073.037-.11.073-.11.11 0 .037-.036.073-.072.073-.073 0-.475.146-.767.256-.073 0-.037.073 0 .073.328 0 .803-.073.876-.073.073 0 .11-.037.11-.073 0-.073.073-.11.11-.11.036 0 .255-.036.438-.036l-.073 2.666z"/>
    <path fill="#FFC758" d="M31.406 22.001c.073 0 .11-.036.11-.073 0-.036.036-.073.073-.073l-.073-.292c-.073.037-.11.073-.11.11 0 .036-.037.073-.073.073l.073.255zM26.914 24.814c.073 0 .11-.037.11-.073 0-.037.036-.073.072-.073l-.073-.256c-.073.036-.11.073-.11.11 0 .036-.036.073-.072.073l.073.219zM35.278 24.12c.073 0 .11-.037.11-.073 0-.037.036-.073.073-.073l-.073-.256c-.073.036-.11.073-.11.11 0 .036-.036.073-.073.073l.073.219z"/>
    <path fill="#D4A11E" d="M30.42 30.73s-.585-.84-.804-1.753c-.182-.767 0-1.497 0-1.497s-.365 1.315-1.314 2.045c-.621.512-2.192.986-1.827 1.644.073-.073.22-.256.84-.402.073 0 .146-.037.256-.037v1.06h.329v-1.133c1.169-.11 2.52.073 2.52.073z"/>
    <path fill="#FFC758" d="M26.074 28.502s-.439-.255-.366-1.059c.074-.84.475-1.205.475-1.242l2.813-.95s-.22.44-.073 1.06c.182.767.657 1.205.657 1.205s-1.424 0-2.703.439c-.584.182-.803.547-.803.547z"/>
    <path fill="#D4A11E" d="M27.754 26.713c.804-.658 1.242-1.498 1.242-1.498s-.11.548-.036 1.023c.146.803.62 1.242.62 1.242s-1.132 0-2.373.365c-.804.22-1.06.548-1.133.658-.292-.621.84-1.096 1.68-1.79z"/>
    <path fill="#FFC758" d="M30.968 31.351s-.767-.584-.95-1.68c-.182-.84.402-1.46.402-1.46l4.383-1.535s-.255.987 0 1.9c.256 1.059 1.206 2.337 1.206 2.337s-1.827-.511-3.397-.329c-1.534.256-1.644.767-1.644.767zM30.055 24.375c-.037-.657.438-1.205.438-1.241l3.141-1.096s-.22.511-.146.913c.11.84.584 1.242.584 1.242s-1.241-.073-2.702.438c-.804.292-.914.657-.914.657s-.365-.073-.401-.913z"/>
    <path fill="#D4A11E" d="M32.538 23.535c.585-.511 1.133-1.46 1.133-1.46s-.22.51-.146.912c.11.804.547 1.242.547 1.242s-1.35 0-2.63.438c-.547.183-.912.512-.949.658-.182-.621 1.279-1.096 2.046-1.79z"/>
    <path fill="#FFC758" d="M30.53 28.028s-.438-.512-.548-1.352c-.073-.84.402-1.205.439-1.205l3.652-1.278s-.11.255 0 1.022c.073.621.694 1.461.694 1.461s-1.972.073-3.141.512c-.804.328-1.096.84-1.096.84z"/>
    <path fill="#D4A11E" d="M32.94 25.91c.804-.695 1.132-1.717 1.132-1.717s-.11.584 0 1.022c.183.804.767 1.461.767 1.461s-1.716.037-2.921.439c-.804.255-1.315.767-1.388.876-.183-.657 1.607-1.388 2.41-2.082zM36.081 31.023s-.986-1.279-1.278-2.411c-.183-.767-.036-1.607 0-1.9-.11.402-.511 1.68-1.461 2.594-.95.877-2.776 1.278-2.374 2.082.073-.11.292-.439 1.023-.621v1.023h.365v-1.096c1.607-.256 3.725.329 3.725.329z"/>
    <path fill="#FFC758" fill-rule="evenodd" d="M37.798 33.433c.22-.036.439-.11.804-.182 0 0-.037-.037-.073-.037-.365-.402-.329-.84-.073-1.06.803-.766.803-1.314.803-1.314s-2.008.402-4.638.548c-.183 0-.767.292-.95.292-.365 0-.73.037-1.132.037-4.967.036-6.355-.33-7.999-.621-1.643-.329-2.374-.621-2.374-.621l-.073.182s1.315.512 2.228.95c.183.11.986 1.278 1.242 1.644h-5.88c-.33-6.757.986-12.309.986-12.309s4.529-.95 11.322-.95v-.73c-7.195 0-12.016 1.023-12.016 1.023s-2.082 7.378-.986 16.216c.474 3.653 3.506 10.52 12.966 13.733l.401-.584-.401-.584c-8.912-2.995-11.542-9.022-11.98-12.492-.11-.767-.183-1.534-.22-2.264h12.236v-1.023H25.71c.146-.438.584-.584 1.132-.438.585.146 1.132.292 1.68.256 1.352-.073 1.133-.439 1.279-.439 1.388.073 1.899.439 3.104.402 1.096 0 1.498-.329 1.57-.329 1.352 0 1.863.621 3.215.73.036-.036.073-.036.11-.036z" clip-rule="evenodd"/>
    <path fill="#D4A11E" fill-rule="evenodd" d="M43.971 20.248s-4.784-1.023-11.98-1.023v.73c6.794 0 11.286.95 11.286.95s1.315 5.552.986 12.309h-5.916c-.475-.438-.183-1.06-.037-1.205.694-.621.694-1.06.694-1.06s-1.607.402-4.237.512c-.183 0-.913.329-1.096.329-.365 0-.876.036-1.278.036-3.433 0-5.113-.073-8.072-.694.073.073.073.11.146.183 0 .036 1.315.365 1.315.365.183.256.439.438.767.62.475.257 1.206.476 1.753.512 1.352.073 1.096-.438 1.206-.438 1.388-.037 2.264.475 3.47.438 1.095 0 1.132-.365 1.241-.365 1.096-.073 2.192.402 3.141.73h-5.405V34.2h12.199c-.073.767-.11 1.498-.22 2.265-.438 3.47-3.067 9.496-11.98 12.49v1.17c9.46-3.178 12.529-10.044 12.967-13.733 1.132-8.73-.95-16.144-.95-16.144z" clip-rule="evenodd"/>
    <path fill="#00285E" d="M9.857 23.462l.475-.95 2.265-.182-1.133-1.936.475-.913 3.981 2.082-.438.877-2.63-1.352 1.133 2.009-2.265.22 2.557 1.35-.438.877-3.982-2.082zM14.387 16.377l.62-.658 4.603 1.717-.694.767-1.023-.402-1.315 1.388.438.986-.693.73-1.936-4.528zm2.666 1.059l-1.461-.585.657 1.425.804-.84zM17.966 13.09l.767-.475 3.25 1.278-1.424-2.338.84-.51 2.301 3.834-.694.438-3.36-1.315 1.497 2.448-.84.51-2.337-3.87zM24.029 12.322c-.365-1.241.256-2.52 1.607-2.885.803-.256 1.388-.11 1.9.183l-.402.876c-.439-.219-.804-.292-1.242-.182-.73.219-1.06.95-.877 1.716.22.73.913 1.206 1.644.986.511-.146.73-.438.986-.84l.767.439c-.329.62-.73 1.059-1.534 1.278-1.279.365-2.52-.329-2.85-1.57zM29.398 8.707l.986-.037.073 1.79 1.79-.037-.037-1.79.986-.036.11 4.529h-.987l-.036-1.79-1.826.037.073 1.826h-1.023l-.11-4.492zM39.04 13.71l.804-.402c.219.475.51.84.986 1.06.365.182.657.11.767-.11.11-.219 0-.402-.585-.876-.73-.585-1.132-1.06-.767-1.863.329-.73 1.17-.95 2.01-.585.584.256 1.022.694 1.277 1.206l-.766.474c-.256-.438-.548-.73-.877-.876-.329-.146-.585-.073-.694.11-.11.255 0 .438.62.95.731.584 1.06 1.131.731 1.825-.365.804-1.205.987-2.081.585-.621-.293-1.133-.804-1.425-1.498zM45.578 14.002l-1.06-.84.548-.73 2.959 2.264-.548.731-1.096-.84-2.191 2.849-.767-.585 2.155-2.848zM52.7 20.394l.913 1.826c.255.512.328.987.182 1.388-.11.329-.365.621-.767.804-.657.329-1.241.183-1.68-.256l-.95 1.717-.51-1.023.84-1.497-.366-.694-1.278.657-.439-.876 4.055-2.046zm-1.06 2.74c.22.438.585.584.914.401.365-.182.438-.548.219-.986l-.439-.876-1.132.584.439.877zM36.009 11.738l1.68.329.438-.767-1.9-.439.183-.876 2.338.511.219-.876-3.36-.694-.95 4.383 3.36.73.183-.877-2.374-.511.183-.913zM49.376 16.048l-3.47 2.885 2.228 2.593.658-.547-1.57-1.863.73-.621 1.095 1.315.913-.292-1.314-1.608.694-.547 1.533 1.826.695-.584-2.192-2.557zM24.394 54.361c0-1.314.986-2.374 2.41-2.374.877 0 1.388.293 1.826.694l-.62.73c-.366-.328-.695-.51-1.17-.51-.766 0-1.314.62-1.314 1.424 0 .767.548 1.46 1.315 1.46.511 0 .84-.218 1.205-.547l.62.657c-.474.512-.985.804-1.898.804-1.352.037-2.374-1.023-2.374-2.337zM29.616 52.06h1.023v4.566h-1.023V52.06zM32.94 53.01h-1.388v-.95h3.798v.95h-1.388v3.652h-.986l-.036-3.652zM37.542 54.836L35.79 52.06h1.169l1.096 1.827 1.095-1.827h1.133l-1.754 2.74v1.826h-1.022l.036-1.79z"/>
</svg>
