<svg xmlns="http://www.w3.org/2000/svg" width="64" height="65" fill="none" viewBox="0 0 64 65">
    <path fill="#001C58" d="M25.538 42.965c-.16-.038-.32-.154-.44-.309-.559.85-.838 1.623-.599 2.319.88 2.898 3.518 5.023 6.675 5.332-3.038-.889-5.276-3.941-5.636-7.342zm-.639-1.7c-.2-.116-.36-.27-.48-.348-.2.735-.28 1.469-.28 2.28 0 .155 0 .31.04.464.12-.464.36-.966.68-1.43-.04-.348-.04-.657.04-.966zm.16-.463c.08-.194.2-.348.28-.464.08-.116.2-.193.32-.27.28-1.314.879-2.435 1.758-3.324-1.319.89-2.318 2.203-2.838 3.671.08.116.28.27.48.387zm11.35 6.684c-.639-.077-1.518-.232-1.918-.347-.44-.155-.8-.503-.999-.928-.08-.193-.16-.425-.16-.695 0-.155 0-.348.08-.58-2.398-.696-4.956-1.7-6.714-2.589-.08.116-.12.232-.2.31-.12.154-.28.27-.44.308.16 1.43.68 2.821 1.479 4.019 1.079 1.623 2.558 2.705 4.157 3.052.56.116 1.319.27 1.958.116 2.438-.54 4.436-2.163 5.396-4.289-.12.039-.24.039-.4.039-.6 1.546-1.759 1.623-2.238 1.584zm3.238-4.946c-.04-.811-.2-1.623-.48-2.357-.36-.888-1.558-1.545-3.117-1.893-2.918-.618-6.754.425-9.153 2.396.08.347.08.772-.04 1.197 1.759.89 4.277 1.894 6.675 2.59.56-1.237 1.639-1.508 2.478-1.276.6.155 1 .232 1.279.27l.32.078c.4.077.76.348.959.695.16.271.28.657.2 1.198.28 0 .44-.077.48-.116.28-.85.44-1.777.4-2.782zm-1.399 2.898c.08-.463 0-.773-.12-.966-.16-.232-.4-.425-.68-.502l-.279-.077c-.28-.039-.68-.116-1.279-.27-.84-.194-1.519.154-1.918.965.4.116.8.232 1.199.31.08-.271.08-.503.08-.503 0-.116.12-.232.24-.232s.24.116.24.232c0 0 0 .232-.08.58.08 0 .16.038.24.038.08 0 .159.039.239.039.08-.31.12-.58.12-.58 0-.116.12-.193.28-.193.12 0 .2.116.2.27 0 .04-.04.31-.12.619.16.038.32.038.44.077.04-.27.08-.502.08-.502 0-.116.12-.232.239-.232.12 0 .24.116.24.232 0 0 0 .232-.08.54.24.117.52.155.72.155zm-4.356.541c.2.387.52.618.76.696.319.116 1.118.27 1.798.348.76.077 1.319-.31 1.678-1.121-.24 0-.52-.039-.799-.077-.04.154-.12.309-.2.463-.08.116-.2.155-.32.078-.12-.078-.16-.194-.08-.31.04-.077.12-.193.16-.308-.16-.04-.28-.04-.44-.078-.04.193-.12.387-.16.502-.04.116-.199.155-.319.116-.12-.038-.16-.193-.12-.309.04-.116.08-.27.12-.425-.08 0-.16-.038-.24-.038-.08 0-.16-.039-.24-.039-.04.116-.08.27-.16.425-.04.116-.2.155-.32.116-.119-.039-.159-.193-.119-.31l.12-.347c-.4-.116-.8-.193-1.2-.31-.08.387 0 .735.08.928zm-7.754-5.641c-.12 0-.32 0-.52.193-.32.348-.48.812-.44 1.391 0 .155.04.232.08.348.08.193.28.348.4.386.16.039.32-.077.52-.27.32-.425.48-1.198.32-1.7-.08-.232-.2-.348-.36-.348z"/>
    <path fill="#fff" d="M28.535 2.935c-3.037 0-3.756 1.507-3.756 1.507s3.517-.232 3.517 3.09c0 1.508-.84 2.512-1.759 3.594-1.039 1.237-2.238 2.666-2.238 5.062 0 3.941 2.638 5.796 4.916 7.419 1.998 1.43 3.917 2.782 3.917 5.294 0 2.55-1.16 4.52-1.679 5.023-.88.85-1.678 1.004-2.318 1.12-.64.116-1.279.232-1.399 1.16-2.438 1.39-3.917 3.902-3.917 6.645v.31c.08 2.086 1 3.98 2.598 5.37 1.559 1.392 3.637 2.126 5.756 2.048 2.158-.077 4.116-.965 5.555-2.472 1.439-1.507 2.198-3.517 2.118-5.565-.12-3.168-2.198-5.911-5.275-6.993h-.04l-.08-.039c-.4-.116-.84-.27-.84-1.236 0-.928.44-1.005 1.32-1.16.519-.077 1.158-.193 1.798-.58 1.119-.656 1.319-1.429 1.119-1.66-.28-.271-.56.308-1.719.617-.4.116-.799.194-1.079.194-.24 0-.4 0-.52-.039.6-1.082 1.24-1.932 1.24-1.932l.16-.193-.16-.155c-.24-.232-.36-.695-.36-1.275 0-.773.2-1.739.68-2.82.559-1.276 2.717-5.449 7.673-5.449h.28v-.27c0-1.7-.16-3.285-.48-4.714l-.08-.27s-.48.115-.879.231c-.04 0-.44.116-.44.039 0-.078.28-.194.36-.27.36-.194.84-.387.84-.387l-.08-.232c-.36-1.198-.72-1.777-.72-1.777l-.12-.194-.2.078c-4.156 1.275-5.035 3.902-5.555 5.525-.24.773-.4 1.198-.72 1.198-.839 0-1.558-.696-1.798-.927-2.598-2.512-2.398-4.29-2.078-7.033.12-.966.24-2.048.24-3.284.12-3.13-1.12-4.598-3.797-4.598z"/>
    <path fill="#001C58" d="M33.452 28.9c0 2.55-1.119 4.599-1.758 5.217-1.999 1.932-3.637.54-3.677 2.473-.92.811-1.56 2.01-1.879 3.4h.04c.2.039.36.155.48.31 2.557-2.01 6.434-3.053 9.432-2.396.96.193 1.759.54 2.358 1.081-.92-1.43-2.318-2.55-3.997-3.13-.4-.154-1.079-.308-1.079-1.545 0-2.318 2.598-.502 4.317-3.014.08-.116-.04-.232-.12-.116-.52.503-1.799.85-2.478.85-.68 0-.92-.154-.92-.154.64-1.237 1.44-2.28 1.44-2.28-1.6-1.546 1.079-10.008 8.193-10.008 0-1.97-.2-3.516-.48-4.637-.16.04-1.519.348-1.559.078-.04-.232 1-.773 1.36-.928-.36-1.159-.68-1.738-.68-1.738-6.115 1.777-4.876 6.684-6.355 6.684-.96 0-1.719-.734-1.998-1.004-3.637-3.516-1.959-5.835-1.959-10.51 0-3.13-1.279-4.328-3.597-4.328s-3.157.966-3.157.966 3.197.116 3.197 3.362c0 3.4-3.957 4.327-3.957 8.655 0 7.187 8.833 7.032 8.833 12.713zM29.256 7.534c0-.425-.04-.812-.12-1.12 0 0 .68-.04.68-.851 0-.657-.48-1.12-.6-1.12s-.12.115-.36.115c-.52 0-.56-.656-.56-.656h.24c1.519 0 2.918.463 2.918 3.67 0 1.198-.12 2.241-.24 3.207-.12.928-.2 1.778-.16 2.628 0 0-2.638-.31-2.638-2.241.04-1.275.84-1.584.84-3.632zm-3.718 35.432c-.16-.038-.32-.154-.44-.309-.559.85-.838 1.623-.599 2.319.88 2.898 3.518 5.023 6.675 5.332-3.038-.889-5.276-3.941-5.636-7.342zm-.639-1.7c-.2-.116-.36-.27-.48-.348-.2.735-.28 1.469-.28 2.28 0 .155 0 .31.04.464.12-.464.36-.966.68-1.43-.04-.348-.04-.657.04-.966zm.16-.464c.08-.193.2-.347.28-.463.08-.116.2-.193.32-.27.28-1.314.879-2.435 1.758-3.324-1.319.89-2.318 2.203-2.838 3.671.08.116.28.27.48.386zm11.35 6.685c-.639-.077-1.518-.232-1.918-.347-.44-.155-.8-.503-.999-.928-.08-.193-.16-.425-.16-.695 0-.155 0-.348.08-.58-2.398-.696-4.956-1.7-6.714-2.589-.08.116-.12.232-.2.31-.12.154-.28.27-.44.308.16 1.43.68 2.821 1.479 4.019 1.079 1.623 2.558 2.705 4.157 3.052.56.116 1.319.27 1.958.116 2.438-.54 4.436-2.163 5.396-4.289-.12.039-.24.039-.4.039-.6 1.546-1.759 1.623-2.238 1.584zm2.718-7.303c-.36-.888-1.558-1.545-3.117-1.893-2.878-.618-6.714.425-9.113 2.396.08.347.08.772-.04 1.197 1.759.89 4.277 1.894 6.675 2.59.56-1.237 1.639-1.508 2.478-1.276.6.155 1 .232 1.279.27l.32.078c.4.077.76.348.959.695.16.27.28.657.2 1.198.28 0 .44-.077.48-.116.32-.85.48-1.816.44-2.782-.08-.811-.24-1.623-.56-2.357zm-5.235 5.796c.2.387.52.618.76.696.319.116 1.118.27 1.798.348.76.077 1.319-.31 1.678-1.121-.24 0-.52-.039-.799-.077-.04.154-.12.309-.2.463-.08.116-.2.155-.32.078-.12-.078-.16-.194-.08-.31.04-.077.12-.193.16-.309-.16-.038-.28-.038-.44-.077-.04.193-.12.386-.16.502-.04.116-.199.155-.319.116-.12-.038-.16-.193-.12-.309.04-.116.08-.27.12-.425-.08 0-.16-.038-.24-.038-.08 0-.16-.04-.24-.04-.04.117-.08.271-.16.426-.04.116-.2.154-.32.116-.119-.039-.159-.193-.119-.31l.12-.347c-.4-.116-.8-.193-1.2-.31-.08.387 0 .735.08.928zm4.356-.54c.08-.464 0-.773-.12-.967-.16-.232-.4-.425-.68-.502l-.279-.077c-.28-.039-.68-.116-1.279-.27-.84-.194-1.519.154-1.918.965.4.116.8.232 1.199.31.08-.271.08-.503.08-.503 0-.116.12-.232.24-.232s.24.116.24.232c0 0 0 .232-.08.58.08 0 .16.038.24.038.08 0 .159.039.239.039.08-.31.12-.58.12-.58 0-.116.12-.193.28-.193.12 0 .2.116.2.27 0 .04-.04.31-.12.619.16.038.32.038.44.077.04-.27.08-.502.08-.502 0-.116.12-.232.239-.232.12 0 .24.116.24.232 0 0 0 .232-.08.54.24.117.52.155.72.155zm-12.11-5.101c-.12 0-.32 0-.52.193-.32.348-.48.812-.44 1.391 0 .155.04.232.08.348.08.193.28.348.4.386.16.039.32-.077.52-.27.32-.425.48-1.198.32-1.7-.08-.232-.2-.348-.36-.348z"/>
    <path fill="#fff" d="M20.063 49.418c.599.387 1.239.735 1.239.735l-.24.54c-.08-.347-.44-.502-.88-.772l-1.438 2.009c-.16.232-.52.773-.56 1.005 0 0-.24-.155-.44-.31-.24-.154-.44-.309-.44-.309.2-.038.6-.58.8-.888l1.399-1.932c-.52-.387-.72-.464-1.12-.503l.52-.347c0-.039.52.347 1.16.772zM43.004 56.257l.04.04c-.04 0-.08 0-.12.038l.12.232c.04.039.04.116.08.116 0 0-.04 0-.04.039-.04 0-.04.039-.04.039 0-.039 0-.039-.04-.116l-.12-.233c-.04.039-.08.039-.12.078v-.078s.08-.038.12-.077c.08-.039.12-.078.12-.078zM20.982 54.403c-1-.464-1.16-1.546-.64-2.55.48-1.005 1.44-1.585 2.438-1.121 1 .464 1.16 1.546.64 2.55-.48 1.044-1.399 1.623-2.438 1.12zm1.678-3.323c-.639-.31-1.159.386-1.518 1.159-.4.773-.64 1.584 0 1.893.64.31 1.159-.425 1.518-1.198.4-.734.64-1.584 0-1.854zM25.498 51.814c.68.193 1.239.309 1.239.309l-.04.58c-.2-.27-.28-.31-.84-.464l-.719 2.28c-.04.193-.32 1.004-.24 1.159 0 0-.2-.039-.519-.116-.36-.077-.52-.155-.52-.155.2-.115.4-.811.48-1.081l.72-2.319c-.6-.193-.76-.193-1.04-.077l.36-.502c-.04.038.36.193 1.12.386zM28.296 52.432c.68.116 1.32.155 1.32.155l.04.58c-.24-.232-.36-.271-1-.348l-.4 2.357c-.04.232-.16 1.043-.04 1.159 0 0-.24-.039-.56-.077-.319-.039-.519-.078-.519-.078.16-.115.28-.888.32-1.12l.4-2.396c-.56-.116-.68-.077-.96.078l.24-.541c-.04 0 .52.115 1.16.231zM30.774 54.635l-.04 1.584c.839 0 1.438-.039 1.718-.387l-.12.734h-1.159c-.759 0-1.358-.077-1.358-.077.12-.116.16-.889.16-1.12l.08-1.546c0-.425.04-1.082-.12-1.236.639.038.559.038 1.118.077.76.038 1.16 0 1.16 0l.08.58c-.28-.232-.72-.271-1.44-.271l-.04 1.314h1.08c.08 0 .12.038.12.154 0 .116 0 .155-.12.155l-1.12.039zM35.57 55.137c.08.58.12 1.005.28 1.043-.04.078-.16.155-.28.155-.16 0-.32-.078-.44-.194l-1.958-2.163.08 1.352c.04.232.04 1.043.2 1.16l-.64.038c.12-.116.08-.927.04-1.12l-.08-1.546c-.04-.232-.08-1.082-.2-1.16l.6-.038 1.998 2.28-.16-1.314c-.04-.232-.16-1.005-.28-1.12 0 0 .08 0 .32-.04.24-.038.32-.038.32-.038-.12.116 0 .927.04 1.16l.16 1.545zM39.207 54.326c.08.27.2.966.4 1.081 0 0-.32.078-.48.155-.16.039-.52.155-.52.155.08-.155-.12-.966-.16-1.16l-.2-.734-1.239.31.16.734c.04.231.16 1.043.32 1.12 0 0-.16.039-.52.116-.32.077-.52.077-.52.077.08-.154-.04-.888-.079-1.12l-.28-1.546c-.04-.27-.2-1.005-.36-1.082 0 0 .16-.038.52-.077.36-.077.52-.116.52-.116-.08.155.08.889.12 1.12l.08.503 1.198-.27-.12-.503c-.08-.27-.24-.889-.4-1.005 0 0 .16-.038.52-.154.32-.077.48-.155.48-.155-.08.194.12.812.2 1.12l.36 1.43zM41.485 53.398l-1.199.464.04.657c.04.232.04.425.08.54l.12.117s-.12.038-.32.115c-.2.078-.32.078-.32.078.08-.116.08-.27.08-.503l-.12-3.014c0-.115-.04-.231-.08-.309-.04-.077-.08-.115-.12-.154.12-.077.32-.193.48-.232.28-.116.4-.116.6.116l1.758 2.125c.32.386.6.657.8.734 0 0-.2.078-.52.232-.32.155-.56.232-.56.232.04-.077.04-.155-.04-.232-.04-.116-.24-.309-.32-.464l-.359-.502zm-.24-.27l-1.079-1.43.08 1.816 1-.386zM46.521 52.316c-.24.155-.44.27-.44.27 0-.231-.479-.81-.599-.965l-1.039-1.314.84 2.589c-.04.038-.08.116-.16.154-.16.116-.32.116-.48 0l-1.959-1.584.68 1.237c.16.309.48.966.72 1.043 0 0-.12.077-.32.154-.16.078-.28.116-.28.116.04-.193-.28-.734-.48-1.082l-.76-1.39c-.239-.426-.479-.85-.719-.928l.48-.232c.2-.116.4-.193.4-.193l2.238 1.816-.88-2.589s.12-.077.32-.232c.24-.154.44-.27.44-.27 0 .232.48.811.64 1.043l.959 1.198c.2.232.6.773.839.85 0-.039-.2.116-.44.31zM43.484 56.142l.12.155c.04.039.08.077.08.116l-.04.039c-.04 0-.04.038-.04.038 0-.038-.04-.077-.08-.116l-.12-.155.08.31h-.04l-.24-.194.08.155c.04.04.04.116.08.116l-.04.04h-.04c0-.04-.04-.117-.04-.117l-.08-.155c-.04-.038-.04-.077-.08-.116 0 0 .04 0 .08-.039l.04-.038.24.193-.08-.31s.04 0 .04-.038c.04 0 .04-.039.04-.039 0 .078.04.116.04.155zM23.739 56.992c.2.077.48.154.48.154-.24.155-.44.773-.56 1.12l-.52 1.392c-.12.386-.36.927-.28 1.12 0 0-.28-.077-.519-.154-.2-.077-.32-.116-.52-.193.24-.078.48-.89.56-1.082l.24-.657-1.24-.502-.359.734c-.12.27-.4.85-.32 1.004 0 0-.2-.077-.52-.231-.359-.155-.439-.194-.439-.194.28-.116.44-.54.64-.966l.64-1.39c.199-.464.399-.89.399-1.16 0 0 .12.077.44.193.24.116.4.155.52.232-.2.077-.48.773-.64 1.082l-.2.386 1.199.464.2-.425c.08-.232.4-.889.32-1.12-.04.038.24.115.479.193zM25.139 61.513c-1.08-.271-1.44-1.276-1.12-2.319.28-1.043 1.12-1.777 2.159-1.507 1.079.27 1.439 1.275 1.119 2.319-.24 1.043-1.08 1.777-2.158 1.507zm.959-3.517c-.68-.193-1.04.58-1.28 1.391-.239.812-.319 1.662.4 1.816.68.194 1.04-.58 1.28-1.39.24-.812.32-1.662-.4-1.817zM28.056 61.86s.08-.077.12-.231c.08-.194.12-.619.16-.89l.32-2.24c-.64-.078-.8-.039-1.08.116l.28-.58c.2.039.64.077 1.199.155l1.439.154.04.58c-.24-.27-.48-.27-1.04-.348l-.32 2.28c-.04.193-.159.927-.04 1.159-.119 0-.359-.039-.519-.039-.2-.038-.44-.077-.56-.116zM33.212 61.088c0 .695-.56 1.159-1.439 1.159-.68 0-1.039-.27-1.159-.387l.16-.657c.2.426.56.696.96.735.399 0 .719-.232.759-.619 0-.27-.16-.463-.84-.811-.679-.348-.919-.657-.919-1.16 0-.656.6-1.004 1.32-1.004.519 0 .878.155 1.118.27l-.16.58c-.32-.425-.6-.54-.959-.58-.32 0-.56.155-.56.503 0 .386.44.58 1 .889.56.347.72.695.72 1.082zM36.41 59c.04.078.04.194.04.271v.232c0 .232-.12.464-.32.657-.28.27-.64.425-1.12.425-.199 0-.239-.038-.239-.154v-.04s0-.038.04-.038h.04c.12 0 .36-.077.52-.27.16-.193.2-.464.2-.773-.04-.31-.12-.502-.32-.657-.2-.116-.4-.193-.6-.154 0 0-.08 0-.2.038 0 0-.04 0-.04.078l.24 2.356c.04.194.08.928.24 1.082 0 0-.2.04-.56.04-.28.038-.52.038-.52.038.08-.194.08-.464.04-.773l-.2-1.855c-.04-.193-.04-.927-.239-1.12 0 0 .48-.078 1.359-.155.48-.039.84 0 1.16.232.279.154.399.348.479.54zM40.046 59.774c.2.811-.2 1.507-1.079 1.7-.6.154-1.479-.078-1.758-1.12l-.32-1.237c-.08-.348-.2-.966-.4-1.12 0 0 .24-.04.6-.117.36-.077.52-.116.52-.116-.08.155 0 .696.08 1.12l.399 1.546c.08.27.16.464.32.58.12.077.28.116.44.077.16-.038.32-.116.399-.27.08-.155.08-.387.04-.696l-.44-1.545c-.12-.425-.24-.966-.4-1.044 0 0 .16-.038.52-.154.24-.077.4-.116.52-.155-.08.232.12.966.2 1.16l.36 1.39zM43.963 59.465c.08.038.16.038.24.038 0 .039-.04.155-.16.232-.36.348-.68.27-.8.232-.599-.232-1.638-1.082-1.678-1.198v-.039h.04c.16-.077.32-.231.4-.386.12-.232.08-.464-.04-.734-.12-.27-.32-.464-.48-.502-.24-.078-.44 0-.52.038 0 0-.16.039-.2.116 0 0-.04.039 0 .116l.76 2.125c.12.31.32.928.52 1.044 0 0-.2.077-.52.193s-.52.154-.52.154c.08-.232-.16-.889-.24-1.082l-.479-1.43c-.12-.347-.36-.965-.52-1.081 0 0 .36-.116 1.16-.425.44-.194.839-.27 1.239-.155.24.077.4.193.52.348.04.077.08.154.12.193.04.077.04.155.08.193.04.232 0 .464-.12.657 0 0-.12.232-.36.387 0 .038.799.695 1.558.966z"/>
</svg>
