<svg xmlns="http://www.w3.org/2000/svg" width="97" height="57" fill="none" viewBox="0 0 97 57">
    <g clip-path="url(#prefix__clip0)">
        <path fill="#D3B271" d="M47.357.03H.084v42.294h47.273V.03z"/>
        <path fill="url(#prefix__paint0_radial)" d="M44.912 2.378H2.502v37.57h42.41V2.378z"/>
        <path fill="#fff" d="M17.608 21v15.29c0 .327-.082.546-.38.546-.3 0-.408-.219-.408-.546v-2.02h-.76c-.707 0-3.505 2.347-4.185 2.811-1.222-.71-2.717-1.42-3.83-1.802-.625.601-1.087 1.01-1.386 1.31-.299.301-.407.465-.543.465-.218 0-.462-.246-.462-.464 0-.219.462-.71 2.58-2.894 1.468-1.502 2.038-3.331 2.038-6.089 0-4.587-1.956-8.491-4.21-8.491-.761 0-1.115.3-1.25 1.064-.055.383-.218.492-.38.492-.327 0-.517-.546-.517-1.475 0-2.102 1.467-3.795 3.26-3.795 1.549 0 2.174 1.256 3.097 1.147v-3.113c0-.791-.298-1.474-.869-1.966-.489-.41-3.097-2.184-4.048-2.184-.326 0-.49.137-.706.137-.136 0-.163-.055-.163-.137 0-.136.081-.218.326-.491l3.287-3.277c.163-.136.244-.218.407-.218 1.114 0 5.624 3.631 6.168 3.631.869 0 5.46-3.522 6.683-3.522.326 0 .68.3 3.206 2.348.407.328 1.25 1.092 2.01 1.556.68.41.707.492.707 1.311.407-.082.869-.41 3.504-2.567.761-.628 2.962-2.43 3.125-2.43.217 0 2.037.765 4.754 1.884.788.328.924.41.924.929V30.2c0 .71.081.957.38 1.23 1.25 1.092 2.01 1.529 2.418 1.529.136 0 .299-.055.408-.164.217-.3.244-.328.38-.328s.244.164.244.328c0 .245-1.874 2.62-3.803 4.123-1.168-.41-3.179-1.803-4.293-2.977-.38-.41-.462-.518-.462-1.228V17.15c0-1.802.571-3.031 2.663-5.843 1.087-1.42 1.168-1.857.95-1.857-.162 0-2.716 1.857-3.205 2.157-2.255-1.31-2.934-1.72-4.13-1.72-.652 0-1.113.327-1.113.764v25.884c0 .328-.163.601-.408.601-.217 0-.326-.218-.326-.546V34.65c-1.793.3-3.26 2.403-3.668 2.403-.462 0-3.178-3.276-3.178-3.522V21h-4.836zm-.76-10.73c0-.847-.082-1.148-.245-1.148-.38 0-1.712.847-1.712 1.147v11.659c0 5.76-.68 6.362-2.174 7.945-.679.71-.842.874-1.33 1.475.869 1.228 3.803 1.774 5.46 1.692V10.27zm.76 6.743h4.89v-4.642c0-.873-3.124-3.276-4.184-3.276-.462 0-.706.3-.706.846v7.072zm11.71-5.98c0-.081-.055-.136-.164-.136-.136 0-.326.082-.462.164l-.95.6c-.544.328-.707.52-.707.765v4.205c0 .3.38.491.68.491h1.63v-6.088h-.028zm0 9.885H27.74c-.461 0-.679.327-.679.983v8.628c0 1.692.707 2.484 2.255 2.62V20.919zM8.588 55.784v-.546c1.168-.136 1.277-.245 1.25-1.693l-.027-6.088h-.082l-3.477 8.218h-.435L2.61 47.648h-.054l-.19 4.123c-.055 1.31-.055 2.047 0 2.539.054.71.38.846 1.412.956v.546H.003v-.546c.87-.082 1.168-.355 1.277-.929.081-.519.217-1.338.326-2.976l.244-3.112c.136-1.803.028-2.021-1.33-2.157v-.547h3.26l3.015 6.908 3.07-6.908h3.179v.547c-1.25.136-1.332.245-1.277 1.556l.136 5.897c.027 1.447.108 1.557 1.33 1.693v.546H8.589zM19.808 55.784v-.546c.924-.136 1.006-.327.761-1.037-.163-.464-.38-1.147-.625-1.775H16.93c-.163.491-.38 1.065-.571 1.693-.217.764-.19.983.95 1.12v.545h-3.504l.027-.546c1.033-.136 1.223-.3 1.74-1.638l3.232-8.11.788-.218c1.005 2.758 1.983 5.516 2.988 8.219.544 1.392.734 1.584 1.74 1.72v.546h-4.51v.027zm-1.33-7.59h-.055c-.435 1.147-.842 2.293-1.25 3.413h2.445l-1.14-3.413zM35.838 46.092c-.842.054-1.168.245-1.25.982-.054.492-.136 1.23-.136 2.622v6.252h-.76l-6.52-7.863h-.055v3.55c0 1.392.081 2.074.136 2.566.081.682.353.983 1.494 1.037v.546h-3.858v-.546c.87-.054 1.25-.327 1.304-.983.054-.519.163-1.228.163-2.594v-3.303c0-1.038-.027-1.338-.326-1.693-.271-.382-.652-.492-1.304-.573v-.547h2.907l6.004 6.936h.055v-2.785c0-1.393-.082-2.13-.136-2.594-.082-.683-.408-.956-1.549-1.01v-.547h3.83v.547zM41.978 48.112c-.326-.983-.924-2.157-2.2-2.157-.87 0-1.522.655-1.522 1.556 0 .874.57 1.366 1.956 2.075 1.657.792 2.77 1.693 2.77 3.25 0 1.802-1.52 3.194-3.803 3.194-.57 0-1.114-.082-1.575-.218-.435-.137-.734-.246-.951-.355-.136-.383-.353-1.72-.462-2.676l.543-.164c.326 1.01 1.25 2.785 2.744 2.785.951 0 1.576-.655 1.576-1.665 0-.929-.68-1.53-1.875-2.157-1.63-.82-2.744-1.666-2.744-3.195 0-1.747 1.359-3.085 3.587-3.085 1.005 0 1.901.327 2.173.437.054.573.163 1.283.299 2.266l-.516.11zM43.499 55.784v-.546c1.168-.109 1.304-.218 1.304-1.556v-6.034c0-1.338-.136-1.447-1.304-1.556v-.547h4.7v.547c-1.168.109-1.304.218-1.304 1.556v6.034c0 1.338.136 1.447 1.304 1.556v.546h-4.7zM54.285 45.327c2.853 0 5.19 2.102 5.19 5.242 0 3.413-2.446 5.488-5.38 5.488-3.152 0-5.325-2.32-5.325-5.351-.027-2.73 1.902-5.379 5.515-5.379zm-.326.628c-1.576 0-2.798 1.693-2.798 4.423 0 2.703 1.195 4.997 3.206 4.997 1.494 0 2.69-1.474 2.69-4.369 0-3.14-1.278-5.05-3.098-5.05zM70.83 46.092c-.842.054-1.168.245-1.25.982-.054.492-.135 1.23-.135 2.622v6.252h-.761l-6.52-7.863h-.055v3.55c0 1.392.082 2.074.136 2.566.082.682.353.983 1.522 1.037v.546h-3.858v-.546c.869-.054 1.25-.327 1.304-.983.054-.519.163-1.228.163-2.594v-3.303c0-1.038-.027-1.338-.326-1.693-.272-.382-.652-.492-1.304-.573v-.547h2.907l6.004 6.936h.054v-2.785c0-1.393-.081-2.13-.136-2.594-.081-.683-.407-.956-1.548-1.01v-.547h3.83v.547h-.027zM82.486 45.491c-.082 0-.245.273-.272.355-.082.11-.272.382-.272.382h-1.087c-.869-.436-1.304-.464-1.412-.464-.082 0-.082.328-.082.328s.027 3.631.027 4.205c0 .546-.108 1.447-.299 2.239-.217.873-.57 1.283-1.14 1.856-.598.574-1.766 1.12-1.93 1.202-.163.081-.19.163-.19.163s-.135.11.68-.136c1.032-.3 1.874-.765 2.336-1.065 1.766-1.229 1.739-3.058 1.739-3.058h1.657v2.348c0 .082-.054.164-.163.273-.163.137-.734.191-.924.191-.19 0-.462-.027-.434.082 0 .11.38.3.624.464.245.164.3.52.38.683.082.164.761.355 1.36-.136.597-.492.515-1.338.515-1.338v-7.263l.136-.137c.082-.082.3-.3.027-.573-.516-.492-1.222-.6-1.276-.6zm-.272 5.816H80.61c.054-1.393.054-1.393.054-2.403h1.549v2.403zm0-2.621h-1.549v-1.884s.027-.41.3-.41h1.222v2.294h.027z"/>
        <path fill="#fff" d="M75.64 52.836h1.385v.655c0 .028 0 .164.081.219.055.081.245.109.598.081.353-.027.408-.163.489-.272.082-.11.082-.355.082-.355v-6.226s.027-.054.081-.109c.054-.054.326-.136.245-.273-.272-.6-.87-.792-1.006-.82-.19-.081-.38-.108-.434-.026-.055.081-.163.273-.218.382-.054.11-.163.191-.163.191h-1.304s-.76-.41-.95-.382c-.164 0-.164.218-.164.218v7.891s0 .137.082.191c.081.055.244.027.407.027.163 0 .435-.027.625-.136.163-.137.136-.355.136-.355v-.901h.027zm.27-6.362h1.115v2.976h-1.386v-2.62c0 .026-.027-.329.272-.356zm1.115 3.195v2.949h-1.386v-2.95h1.386zM95.988 47.703c-.108 0-.19.11-.299.273-.108.137-.461.6-.461.6h-.3V46.12c.028-.109.19-.163.164-.3 0-.055-.272-.164-.57-.218-.218-.028-.68-.082-.843-.055-.136.027-.136.218-.136.218v2.813h-1.331v-1.611s1.005-.328 1.14-.382c.137-.055.164-.137.11-.192-.028-.054-.11-.109-.272-.19-.163-.083-.462-.274-.734-.438-.271-.163-.299-.163-.407-.163-.082 0-.19.081-.353.245-.707.71-2.01 1.639-2.2 1.802l-.028.028c.054.054 1.385-.355 1.385-.355v1.256h-1.956c-.136 0-.027.109.082.164.081.054.109.054.109.054h1.766s0 .655-.055 1.147c-.109.792-.543 1.474-.543 1.474-.027.028-.027.055-.027.055v.082c.081.082.299-.11.57-.3.435-.3.76-.574.978-.956.299-.492.408-1.502.408-1.502h1.358s-.027 2.649 0 2.73c.027.11.054.219.543.219.49-.027.68-.136.761-.218.082-.082.055-.246.055-.246v-2.512h1.765c.082 0 .163-.055.136-.164-.027-.11-.19-.355-.38-.546-.163-.191-.299-.355-.435-.355z"/>
        <path fill="#fff" d="M95.445 54.01c-.272-.164-.38-.027-.516.137-.109.109-.625.792-.625.792H93.08v-1.966h1.766c.218 0 .38-.028.49-.11.108-.081 0-.218-.245-.464-.3-.3-.707-.491-.788-.491-.082 0-.218.191-.272.3-.054.11-.38.546-.38.546h-.543v-1.228c0-.055.217-.192.217-.328 0-.082-.082-.246-.272-.355-.244-.137-.733-.164-1.005-.164-.299 0-.272.355-.272.355v1.72H90.31c-.109 0-.217 0-.081.11.136.109.299.109.299.109h1.25v1.966h-2.935c-.136 0-.081.081-.027.136.054.027.217.027.217.027h6.928c.082 0 .57.028.218-.382-.462-.546-.68-.682-.734-.71zM89.468 52.563c.054-.11.081-.218.109-.355.027-.109.054-.245.081-.41 0-.081.027-.163 0-.245v-.082-.136c-.081-.547-.434-1.038-.815-1.393-.434-.41-.95-.71-.95-.71.407-.655.76-1.201 1.032-1.638l.027-.027c.407-.601.679-.956.679-.956.027-.027.109-.082 0-.164-.19-.191-.652-.491-.87-.6-.217-.11-.298-.164-.38-.164-.081 0-.135.081-.163.136-.054.055-.299.355-.299.355h-.516s-.788-.464-1.087-.464c-.19 0-.19.164-.19.164v9.583c0 .055-.027.246.163.3.272.083.68-.054.815-.136.19-.082.163-.355.163-.355V52.29c.598.191.68.546.734.71.054.191-.027.519.489.355.217-.082.407-.191.57-.3.163-.11.3-.246.408-.492zm-1.032-.874c-.245.492-1.141.437-1.141.437v-5.351c0-.328.298-.328.298-.328h.57c-.19 1.584-.597 2.976-.597 2.976s.435.519.68.874c.244.328.407.956.19 1.392zM66.51 20.535c4.592-.682 5.597-3.058 5.597-7.126V9.122c0-4.505-3.613-6.77-10.867-6.77-7.254 0-10.867 2.265-10.867 6.77v5.052c0 3.55.787 5.406 4.971 6.116-4.184.928-4.971 3.522-4.971 7.317v5.543c0 4.56 3.613 6.826 10.867 6.826 7.254 0 10.867-2.267 10.867-6.826v-5.488c0-4.178-1.005-6.553-5.597-7.127zm-5.325-2.375c-1.602 0-2.39-.765-2.39-2.266V8.686c0-1.475.788-2.185 2.39-2.185 1.63 0 2.446.737 2.446 2.185v7.208c0 1.501-.815 2.266-2.446 2.266zm0 17.447c-1.602 0-2.39-.764-2.39-2.266v-8.164c0-1.556.788-2.32 2.39-2.32 1.63 0 2.446.764 2.446 2.32v8.164c0 1.502-.815 2.266-2.446 2.266zM91.18 20.535c4.59-.682 5.596-3.058 5.596-7.126V9.122c0-4.505-3.613-6.77-10.867-6.77-7.254 0-10.868 2.265-10.868 6.77v5.052c0 3.55.788 5.406 4.972 6.116-4.184.928-4.972 3.522-4.972 7.317v5.543c0 4.56 3.614 6.826 10.868 6.826 7.254 0 10.867-2.267 10.867-6.826v-5.488c0-4.178-1.005-6.553-5.597-7.127zm-5.326-2.375c-1.603 0-2.39-.765-2.39-2.266V8.686c0-1.475.787-2.185 2.39-2.185 1.63 0 2.445.737 2.445 2.185v7.208c.028 1.501-.787 2.266-2.445 2.266zm0 17.447c-1.603 0-2.39-.764-2.39-2.266v-8.164c0-1.556.787-2.32 2.39-2.32 1.63 0 2.445.764 2.445 2.32v8.164c.028 1.502-.787 2.266-2.445 2.266z"/>
    </g>
    <defs>
        <radialGradient id="prefix__paint0_radial" cx="0" cy="0" r="1" gradientTransform="matrix(75.2701 0 0 37.5355 24.637 4.373)" gradientUnits="userSpaceOnUse">
            <stop stop-color="#C01617"/>
            <stop offset=".505" stop-color="#BE181B"/>
            <stop offset="1" stop-color="#C7120C"/>
        </radialGradient>
        <clipPath id="prefix__clip0">
            <path fill="#fff" d="M0.003 0.03H96.803V56.03H0.003z"/>
        </clipPath>
    </defs>
</svg>
