<svg id="Layer_1" data-name="Layer 1" xmlns="http://www.w3.org/2000/svg" viewBox="0 0 40 40"><defs><style>.cls-1{fill:none;}.cls-2{fill:#fff;fill-rule:evenodd;}</style></defs><title>_</title><rect class="cls-1" width="40" height="40"/><rect class="cls-1" width="40" height="40"/><path class="cls-2" d="M22.6,34.83l2.59-3.89a1.39,1.39,0,0,0-.34-1.76l-4.34-4.24a1.48,1.48,0,0,0-1.79-.33c-.92.56-1.73,1.13-2.65,1.7A23.89,23.89,0,0,1,11.8,15.88l2.82-1.62a1.5,1.5,0,0,0,.56-1.74c-.56-1.94-1.11-3.89-1.66-5.83-.27-.75-.7-1.18-1.38-1.14L7.49,6c-1.37.11-1.62.59-1.62,1.6.64,11.77,5,22.64,14.56,27.93.89.48,1.43.5,2.17-.66Zm-1.47-13H16.64l.14-1.19,2.69-4.06A4.2,4.2,0,0,0,20,14.79q.08-.6-.33-.6a.39.39,0,0,0-.45.37l-.18,1.54H17.31l.18-1.56c.14-1.16,1-1.74,2.44-1.74.91,0,1.5.22,1.74.64a3.5,3.5,0,0,1,.21,2.08,2.17,2.17,0,0,1-.31.94L18.86,20.7h2.41l-.14,1.15ZM27,20.7h-1l-.13,1.15H24l.14-1.15H21.47l.15-1.27,2.7-6.55H27l-.76,6.47h1L27,20.7ZM24.3,19.35h-.9l1.31-3.53-.41,3.53ZM20.43,4.2a13.71,13.71,0,0,1,9.69,23.4,14.27,14.27,0,0,1-2.43,1.94,2,2,0,0,0-.52-1L25.7,27.13a10.62,10.62,0,0,0-9.29-19l-.57-2a2,2,0,0,0-.55-.87A13.53,13.53,0,0,1,20.43,4.2Z"/></svg>