<?xml version="1.0" encoding="utf-8"?>
<!-- Generator: Adobe Illustrator 23.0.3, SVG Export Plug-In . SVG Version: 6.00 Build 0)  -->
<svg version="1.1" id="Layer_2" xmlns="http://www.w3.org/2000/svg" xmlns:xlink="http://www.w3.org/1999/xlink" x="0px" y="0px"
	 viewBox="0 0 40 40" style="enable-background:new 0 0 40 40;" xml:space="preserve">
<style type="text/css">
	.st0{fill:none;}
	.st1{fill:#1A2332;}
</style>
<g>
	<rect x="-0.3" y="-0.2" class="st0" width="40.3" height="40.3"/>
	<rect x="-0.3" y="-0.2" class="st0" width="40.3" height="40.3"/>
	<g>
		<path class="st1" d="M19.9,3C10.6,3,3.1,10.6,3.1,19.8s7.6,16.8,16.8,16.8s16.8-7.6,16.8-16.8S29.1,3,19.9,3z M19.9,34.6l0-2.5h0
			c1.6,0,3.2-0.3,4.6-0.9l1,2.3C23.7,34.2,21.8,34.6,19.9,34.6z M14.2,33.4c-1.8-0.7-3.4-1.8-4.8-3.2l1.8-1.8c1.1,1.1,2.5,2,3.9,2.7
			L14.2,33.4z M30.3,30.3l-1.8-1.8c1.1-1.1,2-2.5,2.7-3.9l2.3,1C32.7,27.3,31.6,28.9,30.3,30.3z M6.3,25.5c-0.7-1.8-1.1-3.7-1.1-5.6
			l2.5,0v0c0,1.6,0.3,3.2,0.9,4.6L6.3,25.5z M32.1,19.9l0-0.1c0-1.5-0.3-3.1-0.9-4.5l2.3-1c0.7,1.8,1.1,3.7,1.1,5.6L32.1,19.9z
			 M8.6,15.2l-2.3-1c0.7-1.8,1.8-3.4,3.2-4.8l1.8,1.8C10.1,12.4,9.2,13.7,8.6,15.2z M28.5,11.2c-1.1-1.1-2.5-2-3.9-2.7l1-2.3
			C27.4,7,29,8.1,30.3,9.5L28.5,11.2z M15.2,8.6l-1-2.3c1.8-0.7,3.7-1.1,5.6-1.1l0.1,2.5h-0.1C18.3,7.6,16.7,7.9,15.2,8.6z
			 M19.9,27.8c-4.4,0-8-3.6-8-8s3.6-8,8-8s8,3.6,8,8S24.3,27.8,19.9,27.8z M19.9,12.7c-3.9,0-7.2,3.2-7.2,7.2c0,3.9,3.2,7.2,7.2,7.2
			c3.9,0,7.2-3.2,7.2-7.2C27,15.9,23.8,12.7,19.9,12.7z"/>
	</g>
</g>
</svg>
