<svg id="Layer_1" data-name="Layer 1" xmlns="http://www.w3.org/2000/svg" viewBox="0 0 40 40"><defs><style>.cls-1{fill:#fff;}.cls-2{fill:#c92126;}.cls-3{fill:none;}</style></defs><title>_</title><path class="cls-1" d="M35.88,23.68H25.23A1.2,1.2,0,0,0,24,24.88V29a1.2,1.2,0,0,0,1.19,1.19H35.88A1.2,1.2,0,0,0,37.07,29v-4.1A1.2,1.2,0,0,0,35.88,23.68ZM27.11,28.5a1.58,1.58,0,1,1,1.58-1.57A1.57,1.57,0,0,1,27.11,28.5Z"/><path class="cls-1" d="M30,13.62h3.35a2.78,2.78,0,0,0-2.78-2.77H30Z"/><path class="cls-1" d="M25,23.26l10.7-.06V19.38a2.46,2.46,0,0,0-2.49-2.46l-24.82.2s-2-.09-2-1.82,2-1.76,2-1.76H10.7V10.86H6.08A2.78,2.78,0,0,0,3.3,13.63V34.46a2.79,2.79,0,0,0,2.78,2.78H33a2.79,2.79,0,0,0,2.78-2.78V30.57l-10.68.1a1.54,1.54,0,0,1-1.54-1.54V24.8A1.54,1.54,0,0,1,25,23.26Z"/><polygon class="cls-2" points="22.26 6.83 18.18 2.75 12.64 8.29 11.23 6.88 11.21 13.81 18.14 13.79 16.72 12.37 22.26 6.83"/><polygon class="cls-2" points="29.64 5.24 22.71 5.26 24.12 6.67 18.58 12.21 22.66 16.3 28.2 10.76 29.62 12.17 29.64 5.24"/><rect class="cls-3" width="40" height="40"/><rect class="cls-3" width="40" height="40"/></svg>