<svg id="Layer_1" data-name="Layer 1" xmlns="http://www.w3.org/2000/svg" viewBox="0 0 40 40"><defs><style>.cls-1{fill:#fff;fill-rule:evenodd;}.cls-2{fill:none;}</style></defs><title>_</title><path class="cls-1" d="M22,11.9c2.55-1.13,3.57-2.41,3.68-3.49a1.86,1.86,0,0,0-.81-1.7,1.4,1.4,0,0,0-1.61,0c-.93.63-1.73,2.21-2,5.22Zm7.85,11.19v14H22.16V14.52H16.94v22.6H9v-14H5.13V14.37h8c-2.7-1.65-3.88-3.69-4.07-5.58a5.57,5.57,0,0,1,2.43-5.18,5.06,5.06,0,0,1,5.8,0A6.45,6.45,0,0,1,19.2,5.72,6.58,6.58,0,0,1,21.13,3.6a5.06,5.06,0,0,1,5.8,0,5.55,5.55,0,0,1,2.43,5.18c-.19,1.89-1.36,3.93-4.07,5.58h9.29v8.72ZM17.14,11.9c-.23-3-1-4.59-2-5.22a1.4,1.4,0,0,0-1.61,0,1.86,1.86,0,0,0-.81,1.7c.11,1.08,1.13,2.36,3.68,3.49Z"/><rect class="cls-2" width="40" height="40"/><rect class="cls-2" width="40" height="40"/></svg>