<svg id="Layer_1" data-name="Layer 1" xmlns="http://www.w3.org/2000/svg" viewBox="0 0 20 23.38"><defs><style>.cls-1{fill:#172335;fill-rule:evenodd;}</style></defs><title>icon-reward</title><path class="cls-1" d="M13.44,6.56c1.73-.76,2.42-1.64,2.49-2.36A1.24,1.24,0,0,0,15.38,3a1,1,0,0,0-1.09,0c-.63.43-1.17,1.5-1.33,3.54Zm5.33,7.6v9.53H13.56V8.34H10V23.69H4.6V14.16H2V8.24H7.43A5.18,5.18,0,0,1,4.66,4.45,3.8,3.8,0,0,1,6.32.93a3.44,3.44,0,0,1,3.93,0,4.51,4.51,0,0,1,1.31,1.44A4.51,4.51,0,0,1,12.87.92a3.44,3.44,0,0,1,3.93,0,3.8,3.8,0,0,1,1.66,3.52,5.15,5.15,0,0,1-2.77,3.79H22v5.92Zm-8.61-7.6C10,4.52,9.46,3.45,8.83,3A1,1,0,0,0,7.74,3,1.24,1.24,0,0,0,7.19,4.2c.07.72.76,1.6,2.49,2.36Z" transform="translate(-2 -0.31)"/></svg>