<svg id="Layer_1" data-name="Layer 1" xmlns="http://www.w3.org/2000/svg" viewBox="0 0 40 40"><defs><style>.cls-1{fill:none;}.cls-2{fill:#1a2332;}</style></defs><title>_</title><rect class="cls-1" x="-0.08" width="40" height="40"/><rect class="cls-1" width="40" height="40"/><rect class="cls-1" width="40" height="40"/><path class="cls-2" d="M4.48,18.72A5.25,5.25,0,1,0,7.2,28.87l28.32-7.59A5.25,5.25,0,1,0,32.8,11.13ZM32,13.49a4.2,4.2,0,0,1,.66-.12c.21,0,.4,0,.57,0a3.5,3.5,0,0,1,.48.06l.39.1a.36.36,0,0,1,.22.17.35.35,0,0,1,0,.3l-.27.7a.33.33,0,0,1-.17.22.4.4,0,0,1-.29,0,2.85,2.85,0,0,0-.56-.09,2.42,2.42,0,0,0-.65.06,1.69,1.69,0,0,0-.35.14,1,1,0,0,0-.22.16.48.48,0,0,0-.11.15.46.46,0,0,0,0,.13.28.28,0,0,0,0,.21.48.48,0,0,0,.2.11l.29,0h.36a6.81,6.81,0,0,1,1.55,0,1.91,1.91,0,0,1,.88.32,1.71,1.71,0,0,1,.47.57,1.92,1.92,0,0,1,.19.72,1.61,1.61,0,0,1-.34,1.2,2.11,2.11,0,0,1-.6.53,3.67,3.67,0,0,1-1,.4l-.14,0h-.08l-.08,0a4.62,4.62,0,0,1-1,.11,4.33,4.33,0,0,1-1.23-.16.34.34,0,0,1-.24-.17.33.33,0,0,1,0-.29l.35-.81a.35.35,0,0,1,.18-.21.36.36,0,0,1,.29,0,4.53,4.53,0,0,0,.65.12,3.48,3.48,0,0,0,.63,0,2.86,2.86,0,0,0,.61-.15.94.94,0,0,0,.37-.23.27.27,0,0,0,.07-.14.23.23,0,0,0,0-.14.34.34,0,0,0,0-.12L34,17.36l-.11-.06-.21,0a1.73,1.73,0,0,0-.36,0c-.15,0-.34,0-.56,0a5.1,5.1,0,0,1-1.26-.07,2,2,0,0,1-.91-.36,1.63,1.63,0,0,1-.27-.33,1.29,1.29,0,0,1-.18-.35,1.59,1.59,0,0,1-.08-.35,1.2,1.2,0,0,1,0-.32,1.46,1.46,0,0,1,.17-.64,2.06,2.06,0,0,1,.41-.57,3.15,3.15,0,0,1,.61-.46,3.54,3.54,0,0,1,.77-.31ZM12.65,18.7A3.1,3.1,0,0,1,15,19a3,3,0,0,1,.92.79,3.19,3.19,0,0,1,.56,1.12,3.33,3.33,0,0,1,.08,1.25,3.16,3.16,0,0,1-.4,1.15,3.3,3.3,0,0,1-.8.91,3.19,3.19,0,0,1-1.12.56A3.17,3.17,0,0,1,11,23.69a3.19,3.19,0,0,1-.56-1.12,3.16,3.16,0,0,1,2.24-3.87ZM4.24,21.11l2.18-.58a2.28,2.28,0,0,1,.72-.08,1.8,1.8,0,0,1,.65.18l.25.14A1.71,1.71,0,0,1,8.3,21a2,2,0,0,1,.23.32,2.34,2.34,0,0,1,.18.45h0a1,1,0,0,1,0,.37,1.66,1.66,0,0,1,0,.33,1.6,1.6,0,0,1-.11.29.53.53,0,0,1-.16.17.85.85,0,0,1,.24,0,1.76,1.76,0,0,1,.35.16,1.72,1.72,0,0,1,.35.32,1.57,1.57,0,0,1,.26.48,1.34,1.34,0,0,1,.08.37,1.55,1.55,0,0,1,0,.43,1.47,1.47,0,0,1-.11.46A1.73,1.73,0,0,1,9,26a1.81,1.81,0,0,1-.58.25l-2.59.7a.32.32,0,0,1-.45-.26L4,21.56a.32.32,0,0,1,.26-.45Zm12.91-3.46.67-.18a.77.77,0,0,1,.26,0,.49.49,0,0,1,.23.13l2.52,2.14-.67-2.51a.32.32,0,0,1,.26-.44l.77-.21a.32.32,0,0,1,.45.26L23,21.93a.33.33,0,0,1-.26.45l-.67.18a.82.82,0,0,1-.27,0,.67.67,0,0,1-.23-.13l-2.52-2.16.68,2.53a.32.32,0,0,1-.26.44l-.78.21a.33.33,0,0,1-.45-.26l-1.36-5.1a.32.32,0,0,1,.26-.45ZM23.23,16l.78-.21a.33.33,0,0,1,.45.26l.73,2.73a1.67,1.67,0,0,0,.24.54,1.37,1.37,0,0,0,.38.38,1.15,1.15,0,0,0,1,.18,1.19,1.19,0,0,0,.43-.23,1.08,1.08,0,0,0,.3-.4,1.3,1.3,0,0,0,.14-.52,1.71,1.71,0,0,0,0-.59l-.74-2.73a.33.33,0,0,1,.26-.45l.79-.21a.32.32,0,0,1,.44.26l.74,2.73a3.21,3.21,0,0,1,.08,1.11,2.93,2.93,0,0,1-.29,1.06,2.75,2.75,0,0,1-.67.88,2.9,2.9,0,0,1-1.05.54,2.77,2.77,0,0,1-1.14.06,2.68,2.68,0,0,1-1-.4,3.16,3.16,0,0,1-.79-.76,3.2,3.2,0,0,1-.51-1.05L23,16.47a.33.33,0,0,1,.26-.45ZM5.65,22.14l.26,1,1-.28a.65.65,0,0,0,.17-.08.47.47,0,0,0,.15-.13.49.49,0,0,0,.08-.18.37.37,0,0,0,0-.21.62.62,0,0,0-.2-.33.46.46,0,0,0-.39-.07Zm7.39-2a1.71,1.71,0,0,0-.57.29,1.68,1.68,0,0,0-.41.47,1.7,1.7,0,0,0-.17,1.23,1.67,1.67,0,0,0,.29.58,2,2,0,0,0,.47.41,1.79,1.79,0,0,0,.59.2,1.74,1.74,0,0,0,.64-.05,1.65,1.65,0,0,0,.58-.28A1.62,1.62,0,0,0,15.07,22a1.79,1.79,0,0,0,0-.65,1.62,1.62,0,0,0-.29-.57,1.5,1.5,0,0,0-.46-.41,1.81,1.81,0,0,0-.59-.21A1.6,1.6,0,0,0,13,20.18Zm-6.8,4.14.26,1L7.78,25a.53.53,0,0,0,.33-.22.45.45,0,0,0,.05-.4A.48.48,0,0,0,7.91,24a.66.66,0,0,0-.44,0l-1.23.33Z"/><path class="cls-2" d="M16.17,2.79a.76.76,0,0,0-.46.4l-1,2.06-2.09-1a.8.8,0,0,0-.69,0,.78.78,0,0,0-.42.55l-.44,2.26L8.8,6.75a.79.79,0,0,0-.91.84L8,9.88l-2.28.22a.79.79,0,0,0-.59.36.82.82,0,0,0-.09.68l.75,2.18-2.15.8a.83.83,0,0,0-.47.5.77.77,0,0,0,.09.68L4.45,17l1.67-.46A14.21,14.21,0,0,1,30.3,10.08l1.88-.51,1-.27.08-.49a.82.82,0,0,0-.2-.67.8.8,0,0,0-.64-.25L30.12,8,29.9,5.76a.79.79,0,0,0-.36-.59.78.78,0,0,0-.68-.08l-2.17.74-.81-2.15a.82.82,0,0,0-.5-.48.84.84,0,0,0-.69.1l-1.9,1.28L21.46,2.71a.82.82,0,0,0-.61-.33.83.83,0,0,0-.64.28L18.7,4.39,16.93,2.93a.81.81,0,0,0-.75-.14ZM35.54,23l-1.86.51A14.21,14.21,0,0,1,9.9,29.86l-3.06.81-.09.53a.79.79,0,0,0,.83.92L9.88,32l.22,2.28a.78.78,0,0,0,1,.68l2.18-.75.8,2.15a.77.77,0,0,0,.5.48.81.81,0,0,0,.68-.09l1.91-1.29,1.33,1.87a.8.8,0,0,0,1.25.06l1.5-1.73,1.78,1.46a.81.81,0,0,0,.67.16.78.78,0,0,0,.54-.43l1-2.06,2.09,1a.79.79,0,0,0,.69,0,.8.8,0,0,0,.42-.56l.44-2.25,2.26.38a.86.86,0,0,0,.67-.2.8.8,0,0,0,.25-.64L32,30.13l2.28-.22a.82.82,0,0,0,.59-.36.85.85,0,0,0,.09-.69l-.75-2.18,2.15-.8a.78.78,0,0,0,.38-1.18Z"/><circle class="cls-2" cx="17.26" cy="9.79" r="2.47" transform="translate(2.6 23.16) rotate(-71.91)"/><path class="cls-2" d="M24.75,9.06a1.57,1.57,0,1,1-3,.82,1.57,1.57,0,1,1,3-.82Z"/><path class="cls-2" d="M13.46,12.09A1.58,1.58,0,1,1,11.53,11,1.59,1.59,0,0,1,13.46,12.09Z"/><circle class="cls-2" cx="22.74" cy="30.21" r="2.47"/><path class="cls-2" d="M29.58,27.1A1.57,1.57,0,1,0,28.47,29,1.57,1.57,0,0,0,29.58,27.1Z"/><circle class="cls-2" cx="16.77" cy="30.53" r="1.57"/></svg>