<svg id="Layer_1" data-name="Layer 1" xmlns="http://www.w3.org/2000/svg" viewBox="0 0 23 23.31"><title>icon-refresh</title><path d="M11.94,23.22A11.44,11.44,0,0,1,4.6,20.56a1.48,1.48,0,0,1,1.9-2.28,8.47,8.47,0,0,0,13.91-6.5,1.49,1.49,0,0,1,3,0A11.45,11.45,0,0,1,11.94,23.22" transform="translate(-0.5 -0.34)"/><polygon points="3.19 23.31 0.15 14.97 8.9 16.51 3.19 23.31"/><path d="M2,13.27A1.49,1.49,0,0,1,.5,11.78,11.46,11.46,0,0,1,11.94.34,11.33,11.33,0,0,1,20,3.7a1.48,1.48,0,0,1-2.1,2.09,8.47,8.47,0,0,0-14.46,6A1.49,1.49,0,0,1,2,13.27" transform="translate(-0.5 -0.34)"/><polygon points="20.7 0.34 23 8.92 14.42 6.62 20.7 0.34"/></svg>