<svg id="Layer_1" data-name="Layer 1" xmlns="http://www.w3.org/2000/svg" viewBox="0 0 40 40"><defs><style>.cls-1{fill:#1a2332;}.cls-2{fill:none;}</style></defs><title>_</title><path class="cls-1" d="M19.29,29.28V27.16a8.86,8.86,0,0,1-3.78-.95l.67-2.61a7.87,7.87,0,0,0,3.69,1c1.27,0,2.14-.49,2.14-1.38s-.71-1.38-2.36-1.93c-2.38-.81-4-1.92-4-4.08,0-2,1.38-3.49,3.77-4V11.12h2.18v2a7.79,7.79,0,0,1,3.22.73l-.64,2.51A7.47,7.47,0,0,0,21,15.57c-1.44,0-1.91.62-1.91,1.24s.78,1.21,2.67,1.92c2.65.93,3.72,2.16,3.72,4.16S24,26.56,21.48,27v2.27Z"/><path class="cls-1" d="M36.72,22.37A17,17,0,0,1,8.18,31.83L7,30.71,3.49,34.23l.15-9.93h9.78L9.63,28.1l1.22,1.15A13.25,13.25,0,0,0,33,22.37Z"/><path class="cls-1" d="M20.56,3.19A16.84,16.84,0,0,1,32.35,8L33.51,9.1,37,5.57l-.15,9.93H27.11l3.8-3.8-1.23-1.15A13.25,13.25,0,0,0,7.57,17.43H3.81A17,17,0,0,1,20.56,3.19Z"/><rect class="cls-2" width="40" height="40"/><rect class="cls-2" width="40" height="40"/></svg>