<svg xmlns="http://www.w3.org/2000/svg" width="25" height="25" fill="none" viewBox="0 0 25 25">
    <g fill="#B5B5B5" clip-path="url(#prefix__clip0)">
        <path d="M.003.198v24h24v-24h-24zm20.212 16.126c-.094.36-.282.69-.546.954-.263.263-.593.452-.954.546-4.46.499-8.963.499-13.424 0-.36-.094-.69-.283-.954-.546-.264-.264-.452-.593-.546-.954-.5-2.727-.5-5.523 0-8.25.094-.361.282-.69.546-.954.264-.264.593-.452.954-.546 4.46-.5 8.964-.5 13.424 0 .361.094.69.282.954.546.264.263.453.593.546.954.501 2.727.501 5.523 0 8.25z"/>
        <path d="M10.429 14.786l4.462-2.588-4.462-2.587v5.175z"/>
    </g>
    <defs>
        <clipPath id="prefix__clip0">
            <path fill="#fff" d="M.003.198h24v24h-24v-24z"/>
        </clipPath>
    </defs>
</svg>
