<svg width="48" height="48" fill="none" xmlns="http://www.w3.org/2000/svg">
    <path d="M22.576 36.029v-2.846c-1.81 0-3.88-.517-4.915-1.293l.776-3.363a8.933 8.933 0 0 0 4.656 1.293c1.553 0 2.846-.517 2.846-1.81 0-1.035-1.035-1.811-3.104-2.588-3.104-1.034-5.174-2.586-5.174-5.173s1.81-4.398 4.915-5.174v-2.328h2.846v2.587c1.81 0 3.104.517 4.139 1.035l-.776 3.363c-.777-.26-2.07-1.035-4.14-1.035-1.81 0-2.586.776-2.586 1.552 0 1.035 1.034 1.552 3.363 2.587 3.363 1.293 4.915 2.845 4.915 5.432s-1.811 4.656-5.174 5.432v2.846h-2.587v-.517z" fill="#FFCD00"/>
    <path d="M45.34 27.233C43.53 37.84 34.477 45.6 23.612 45.6c-5.69 0-11.123-2.07-15.262-6.209L6.797 37.84 2.14 42.496l.258-12.935h12.676l-4.915 4.915 1.552 1.553c3.104 3.104 7.502 4.656 11.9 4.656 8.277 0 15.262-5.691 16.814-13.71h4.915v.258zM24.387 2.4c5.692 0 11.124 2.07 15.263 6.208l1.552 1.552 4.656-4.656-.258 12.934H32.923l4.915-4.915-1.552-1.552c-3.104-3.104-7.502-4.656-11.9-4.656-8.277 0-15.262 5.69-16.814 13.71H2.658C4.47 10.419 13.523 2.4 24.388 2.4z" fill="#FFCD00"/>
</svg>
