<?xml version="1.0" encoding="utf-8"?>
<!-- Generator: Adobe Illustrator 19.2.0, SVG Export Plug-In . SVG Version: 6.00 Build 0)  -->
<svg version="1.1" id="Layer_1" xmlns="http://www.w3.org/2000/svg" xmlns:xlink="http://www.w3.org/1999/xlink" x="0px" y="0px"
	 viewBox="0 0 56 56" style="enable-background:new 0 0 56 56;" xml:space="preserve">
<style type="text/css">
	.st0{fill:#FF0000;}
	.st1{display:none;}
</style>
<g id="Layer_1_1_">
	<path class="st0" d="M28,4C14.7,4,4,14.7,4,28s10.7,24,24,24s24-10.7,24-24S41.3,4,28,4z M17.8,24h4.6V12c0-1.2,0.5-2,1.7-2h8.4
		c1.2,0,1.9,0.8,1.9,2v12h4.4c1.2,0,2.1,0.7,2.1,1.8c0,0.6-0.2,1-0.6,1.4L29.8,37.6c-0.4,0.4-0.9,0.6-1.5,0.6
		c-0.5,0-1.1-0.2-1.5-0.6L16.4,27.1c-0.4-0.4-0.6-0.7-0.6-1.2C15.7,24.7,16.7,24,17.8,24z M44.4,41.8c0,0.9-1.1,2.2-2,2.2H14.2
		c-0.9,0-1.7-1.3-1.7-2.2v-4.2c0-0.9,1.1-1.6,2-1.6s2,0.7,2,1.6V41h25v-3.4c0-0.9,0.6-1.6,1.5-1.6s1.5,0.7,1.5,1.6v4.2H44.4z"/>
</g>
<g id="Layer_2" class="st1">
</g>
</svg>