<?xml version="1.0" encoding="utf-8"?>
<!-- Generator: Adobe Illustrator 19.2.0, SVG Export Plug-In . SVG Version: 6.00 Build 0)  -->
<svg version="1.1" id="Layer_1" xmlns="http://www.w3.org/2000/svg" xmlns:xlink="http://www.w3.org/1999/xlink" x="0px" y="0px"
	 viewBox="0 0 56 56" style="enable-background:new 0 0 56 56;" xml:space="preserve">
<style type="text/css">
	.st0{display:none;}
	.st1{display:inline;fill:none;stroke:#000000;stroke-width:0.9333;stroke-miterlimit:10;stroke-opacity:0;}
</style>
<g id="Layer_1_1_">
	<path d="M28,4C14.7,4,4,14.7,4,28s10.7,24,24,24s24-10.7,24-24S41.3,4,28,4z M30,46h-5v-5h5V46z M38.1,24c-0.7,1.3-2.1,2.8-4.1,4.6
		c-1.4,1.2-2.3,2.1-2.7,2.7c-0.4,0.6-0.7,1.2-0.9,2C30.1,34.1,30,36,29.9,37h-4.1c0,0,0-1,0-1.2c0-1.7,0.2-3.1,0.7-4.3
		c0.3-0.9,0.9-1.8,1.7-2.7c0.6-0.7,1.6-1.7,3-3c1.5-1.3,2.4-2.3,2.9-3.1c0.4-0.8,0.7-1.6,0.7-2.5c0-1.6-0.6-3.1-1.9-4.3
		C31.6,14.7,30,14,28.2,14c-1.8,0-3.3,0.6-4.5,1.7s-2,2.9-2.4,5.3l-4.4-0.5c0.4-3.2,1.6-5.7,3.5-7.4s4.5-2.6,7.7-2.6
		c3.4,0,6.1,0.9,8.1,2.8c2,1.8,3,4.1,3,6.7C39.1,21.4,38.8,22.8,38.1,24z"/>
</g>
<g id="Layer_2" class="st0">
	<rect x="-108" y="40" class="st1" width="112" height="112"/>
</g>
</svg>