<svg id="Layer_1" data-name="Layer 1" xmlns="http://www.w3.org/2000/svg" xmlns:xlink="http://www.w3.org/1999/xlink" viewBox="0 0 40 40"><defs><style>.cls-1,.cls-5{fill:#fff;}.cls-2{fill:none;}.cls-3{clip-path:url(#clip-path);}.cls-4{fill:#008fee;}.cls-4,.cls-5{fill-rule:evenodd;}</style><clipPath id="clip-path"><path class="cls-1" d="M37.72,20.12a18,18,0,1,1-18-18A18,18,0,0,1,37.72,20.12Z"/></clipPath></defs><title>Greece</title><rect class="cls-2" x="0.01" y="-0.01" width="40" height="40"/><path class="cls-1" d="M37.72,20.12a18,18,0,1,1-18-18A18,18,0,0,1,37.72,20.12Z"/><g class="cls-3"><path class="cls-4" d="M-1,42.75H59.87V38.24H-1v4.51Zm60.86-9v-4.5H-1v4.5Zm0-9V20.21H21.55V15.7H59.87V11.19H21.55V6.68H59.87V2.18H12.54v9h9V15.7h-9v9ZM8,2.18H-1v9H8v-9ZM-1,15.7v9H8v-9Z"/><path class="cls-5" d="M8,2.18h4.51v9h9V15.7h-9v9H59.87v4.51H-1V24.72H8v-9H-1V11.19H8v-9Zm13.52,4.5H59.87v4.51H21.55V6.68Zm0,9H59.87v4.51H21.55V15.7ZM-1,24.72v0Zm0,9H59.87v4.51H-1V33.73Z"/></g></svg>