<svg id="Layer_1" data-name="Layer 1" xmlns="http://www.w3.org/2000/svg" xmlns:xlink="http://www.w3.org/1999/xlink" viewBox="0 0 40 40"><defs><style>.cls-1{fill:#002e82;}.cls-2{clip-path:url(#clip-path);}.cls-3{fill:#ffea0f;}</style><clipPath id="clip-path"><path class="cls-1" d="M37.72,20.12a18,18,0,1,1-18-18A18,18,0,0,1,37.72,20.12Z"/></clipPath></defs><title>Oregon</title><path class="cls-1" d="M37.72,20.12a18,18,0,1,1-18-18A18,18,0,0,1,37.72,20.12Z"/><g class="cls-2"><path class="cls-3" d="M14.52,16.78a4.87,4.87,0,0,0-2.59,1c.09.2.24.18.41.13l.05-.06a1.28,1.28,0,0,0,.42-.19s0,0,0,0h0c.11-.07.32,0,.42-.13a.31.31,0,0,0,.05-.1,3.51,3.51,0,0,1,2.27-.24v.17a2.77,2.77,0,0,0-2.21.31,2.42,2.42,0,0,0,1.89.6l.51-.22c.25,1,1.35,1.45,2.19,1.78a1.61,1.61,0,0,0,.19-.62c-.21-.24-.57-.24-.72-.52a1.12,1.12,0,0,1,.84.43.78.78,0,0,1-.16.71.21.21,0,0,0,.26,0h0l1.2-1h0a.18.18,0,0,1,.24.11l0,0c.4.5,1,.63,1.44,1.08l-.05.07h0c-.09,0-.2-.12-.3-.17-.41-.35-.91-.54-1.32-.9-.36.44-.86.59-1.27,1a4.25,4.25,0,0,1-2.24-1.05,2.53,2.53,0,0,1-.42-.73c-.17,0-.33.15-.5.17a2.63,2.63,0,0,1-2-.7c-.48.08-1,.79-1.46.19h-.08c-1.61,1.59-3.82,2.58-5.11,4.43.27.37.68-.14,1-.24.44-.38,1.14-.58,1.57-1.15l0-.15h0c-.07,0-.18,0-.24,0h0s0,0,0,0h0c.09-.13.26-.1.32-.17h0v0h0a6.49,6.49,0,0,0,1.62-1.09l.74-.62h0l.08,0h0a0,0,0,0,1,0,0,9.22,9.22,0,0,1-2.37,1.73v.2c.22.05.41-.18.65-.23a13.4,13.4,0,0,1,1.38-.88.23.23,0,0,1,0,.19,2.09,2.09,0,0,1-.46.26l-.05.05,0,0h-.06a.46.46,0,0,0-.16.07v.06l0,0c-.14.24-.43.32-.67.46s-.31.19-.46.22a.13.13,0,0,0-.06,0,.2.2,0,0,0-.08,0h0s0,0,0,0h0c-.26.85-1.2,1-1.81,1.49h0a.26.26,0,0,0,.16.27H8A25.05,25.05,0,0,0,10.08,21a.51.51,0,0,1,.3-.1l0,0h0c-.05.11-.24.13-.3.21a10,10,0,0,1-1.85,1.42v.05h0a.75.75,0,0,0,.13.06c.75-.1,1.22-.82,1.82-1.16s1.06-.89,1.57-1.38c0,0,.1,0,.12.08h0s0,0,0,0h0l-.08,0h0v0h0v0a14.77,14.77,0,0,0-1.3,1.07c-.36.29-.82.6-1.16.93.29.27.65-.14,1-.12a.9.9,0,0,1,.53-.53l.05.06a4,4,0,0,0-.36.48.45.45,0,0,0,.51-.2c.72-.52.83-1.46,1.58-1.92.14.33-.34.34-.36.65a2.46,2.46,0,0,0-.46.77l0,0-.25.34a.47.47,0,0,0,.37.19c.38-.36.53-.79.93-1.18L13,21h0v.07a1.29,1.29,0,0,0-.4.56c.44.21.56-.42.8-.65a3.69,3.69,0,0,1,.55-1h0l0,0,.06,0h0a4.19,4.19,0,0,0-.5,1h0c.05,0,.1.13.16.17h.07l0,0h0l0,0c.12-.16.23-.36.34-.49h0l0,0h0a.32.32,0,0,1,0,.14h0c0,.09-.12.17-.16.24h0v0h0a.19.19,0,0,0,.08.07.66.66,0,0,0,.49-.44.1.1,0,0,1,.06.05h0c0,.14-.16.39-.16.5v0h0a.41.41,0,0,0,.24,0h0l0,0h0a.36.36,0,0,1,0-.09h0a.05.05,0,0,1,0,0H15s0,0,0,0l0,0v0a.12.12,0,0,1,0,.1l0,.05c.18.23.49.17.68.41l.15-.26h.09v.08h0a0,0,0,0,0,0,0,.91.91,0,0,0-.08.13s0,0,0,0h0c0,.09.07.13.12.14h0c.06,0,.12-.05.17-.06h0l0,0a.39.39,0,0,1,0,.13.57.57,0,0,0,.16.11h.1c.09-.08.15-.25.27-.27h0c0,.17-.05.37.05.51h.11l.1-.05h0a.11.11,0,0,0,0,.05h0l.09.05h0l.21.1a3.13,3.13,0,0,0,.25-.92.57.57,0,0,0,.15-.22.06.06,0,0,1,0,0v0h0v0h0c-.09-.19-.58-.23-.69-.43h0a7.93,7.93,0,0,1-1.84-1.73h0c-.08-.09-.06-.22-.14-.3-.41.65-1.19.43-1.83.43a2.08,2.08,0,0,1-1.47-1.28l0-.22H12c0,.07,0,.17,0,.24h0c.12.08.11.27.22.31h0a2.67,2.67,0,0,1,.31-.35c.25.28-.52.48-.05.69l.32-.43.14.12a1.13,1.13,0,0,0-.26.43,1.61,1.61,0,0,1,.31.19,2.14,2.14,0,0,1,.41-.81c.19.19-.16.41-.19.65l-.11.12h0c.5,0,1.1.31,1.35-.38l0,0v0s0,0,0,0v0a.56.56,0,0,1,0,.15l-.15.12c.45.18.53-.36.82-.57.12.12.11.34.19.5a7,7,0,0,0,2.47,2.1,2.83,2.83,0,0,0,.39-.8,1,1,0,0,1,.72-.1,1.39,1.39,0,0,1,.54.59,3.27,3.27,0,0,1,0,1.17,1.16,1.16,0,0,0,.89-.07c0-.45-.39-1.2.19-1.47a2.47,2.47,0,0,1,.94,0,2.45,2.45,0,0,0-.31-1.43.24.24,0,0,1,0-.2l0,0c.11-.06.31,0,.41-.1l0,0c1-.22,2.14-.59,2.5-1.64h.06c-.05,1.05-1.25,1.4-2,1.7a2.82,2.82,0,0,0-.87.25,1.43,1.43,0,0,0,.18.55A3.81,3.81,0,0,0,23,19.12c.12,0,.24-.12.31-.19.58-.13,1-.88,1.56-.88.18,0,.37.32.6.24a1.15,1.15,0,0,0,1.19-.38l0,0c.06-.06.19,0,.29,0a4.67,4.67,0,0,0,1.2.69c.07,0,.11,0,.15,0h0l0,0a5.65,5.65,0,0,0-3.27-1.57c-1.38-.34-2,1.73-3.39,1.42-.32,0-.85,0-1-.34a1.18,1.18,0,0,1-1.25.37c-.29-.22-.6-.34-.87-.56-.29.2-.6.49-1,.34-1-.29-1.81-1.38-3-1.35Zm2.21,1.42h0a.83.83,0,0,1,.5.39l-.06,0h-.08c-.11,0-.21-.18-.32-.25a.21.21,0,0,1-.05-.12h0Z"/><path class="cls-3" d="M19.89,15.82a1.22,1.22,0,0,0-.45.09c-.52.15-.57.76-.62,1.26,0,.2-.18.39-.2.56l0,0h0a.25.25,0,0,1,.12,0s0,0,0,0h0v0a.72.72,0,0,0,.35.13h.07l0,0a.24.24,0,0,0,.09-.14.14.14,0,0,1,.13,0l0,0c0,.09,0,.22-.07.29h0a0,0,0,0,1,0,0h.06l.08,0h.05c.43.14.65-.18,1-.39.07-.36-.39-.77-.19-1.19.19-.26.43-.11.72-.19l.08.13,0,0a.18.18,0,0,0,.14,0,.53.53,0,0,0-.19-.62.54.54,0,0,0-.54.08c-.05.05-.09.08-.12.08h-.07c-.06-.07-.1-.21-.16-.25h0a.28.28,0,0,1-.17-.05l0,0Zm0,.32c.08,0,.17.08.24.14s-.11.17-.16.23a.26.26,0,0,1-.15-.31s0,0,0,0h.05Z"/><path class="cls-3" d="M27.17,18.25c.44.19.85.58,1.38.46a29.83,29.83,0,0,0,2.62,1.69c.41.48,1.06.67,1.38,1.2-1-.72-2-1-3-1.78-.39-.13-.8,0-1.15-.24a17.88,17.88,0,0,1-1.5-1.06c-.09-.15-.22-.3-.16-.47.25-.14.26.18.47.2"/><path class="cls-3" d="M25,18.35c-.08,1.3-1.59,2.12-2.46,2.93-.21,0-.36.24-.62.2a4.16,4.16,0,0,1-.35-1.5,13.52,13.52,0,0,0,2.63-1.39,1.22,1.22,0,0,1,.46-.39.36.36,0,0,1,.34.15"/><path class="cls-3" d="M27.44,19.24c-.2.24-.44.19-.74.16,0-.11-.08-.11-.08-.19-.19.05-.36.42-.58.15s-.41.36-.75.12l-.36,0c-.12.42.41.05.55.22s.41-.52.68-.07c.2.07.32-.12.46-.15.1.22.31.08.51.11s.16-.08.26-.05a2.38,2.38,0,0,0,1,1.08c.12-.27-.29-.44-.45-.61s-.41-.5-.36-.69l-.06-.07c.05,0,.1-.07.15,0l0,0,0,0c.48.22,1.11.85,1.57.58a.09.09,0,0,1,0,.07c.56-.07.94.54,1.45.7s.81.46,1.23.75a1.44,1.44,0,0,1,.89.77c0,.12,0,.29-.12.33l-.12,0a27.9,27.9,0,0,0-2.3-1.64c-.14.06,0,.18.05.25a25,25,0,0,1,2.07,1.51c-.07.12-.16.36-.35.2a4.22,4.22,0,0,1-1.57-.92c-.48-.62-1.2-.91-1.54-1.59-.05,0-.12,0-.15.08v.11a12.5,12.5,0,0,0,2.77,2.39c0,.07,0,.15-.05.19a1.32,1.32,0,0,0-.77-.31c-.17.24-.48.07-.69,0a12.7,12.7,0,0,1-1.35-1.49c-.05,0-.08,0-.12.07.12.42.7.87,1,1.26-.08.07-.13.24-.24.17l-.56-.55a.06.06,0,0,1-.12,0,4.27,4.27,0,0,1-1.15-1.47.14.14,0,0,0-.15.06,4.7,4.7,0,0,0,1.23,1.65c-.05,0,0,.09,0,.14-.44-.17-.73-.65-1.18-.77-.08-.46-.42-.75-.51-1.18-.07,0-.08,0-.14.07.06.43.43.77.45,1.16,0,0,0,0,.05,0-.33,0-.5-.36-.8-.53a2.36,2.36,0,0,0-.21-.89h-.1c0,.27.19.65.07.89-.16-.11-.24-.45-.5-.4-.2.38-.82.14-1,.55l0,0h-.05c0-.11,0-.19-.11-.24-.15.12-.07.37-.24.51-.12-.1-.32,0-.3-.24-.28,0-.05.36-.26.46s-.09-.38-.31-.24v.43a.45.45,0,0,0-.42,0c-.08.07-.08.17-.11.28s-.19-.17-.31-.07-.09.34-.28.25c0-.15-.17-.18-.15-.3,0-.29-.21-.6-.1-.84.9-.15,1.47-1,2.14-1.54a2.83,2.83,0,0,0,1-1.69,1.72,1.72,0,0,0,1.26-.16c.09.47.64.6.94,1"/><path class="cls-3" d="M19.38,21.24a21.64,21.64,0,0,1-.3,2.5h-.19c0-.15.07-.38,0-.5-.29.06.09.84-.49.55-.15-.1.07-.29-.17-.31,0,.07-.1.16,0,.23a1.21,1.21,0,0,1-.37-.07c0-.28.44-.53.25-.81a1.33,1.33,0,0,0-.41.76h-.15c.31-.64.15-1.34.5-1.95l0,0,.1-.05a1.1,1.1,0,0,1,.16-.46.46.46,0,0,1,.31-.31.1.1,0,0,0,.17-.1.93.93,0,0,1,.71.56"/><path class="cls-3" d="M20.88,20.9h-.33c-.17.07-.19.26-.21.39.21.84.07,1.7.33,2.5l0,0,0,0h0c.1,0,.23-.06.34-.06l0-.12c0-.15-.15-.39-.08-.52l0,0,.1-.05a1.86,1.86,0,0,1,.15.77l1-.26c-.1-.17,0-.42-.15-.61a.09.09,0,0,1,0,0h0v0h0l0,0c-.42-.58-.15-1.34-.65-1.89a4.16,4.16,0,0,0-.59,0Zm.81,2.34c.14.07.12.26.16.4h0s0,0,0,0h-.08c0-.1-.12-.23-.1-.33v0h0l0,0,0,0Z"/></g></svg>