<svg id="Layer_1" data-name="Layer 1" xmlns="http://www.w3.org/2000/svg" xmlns:xlink="http://www.w3.org/1999/xlink" viewBox="0 0 40 40"><defs><style>.cls-1{fill:none;}.cls-2{clip-path:url(#clip-path);}.cls-3{fill:#fff;}.cls-3,.cls-4,.cls-5,.cls-6{fill-rule:evenodd;}.cls-4{fill:#ff1612;}.cls-5{fill:#0437a0;}.cls-6{fill:#f4f4f4;}</style><clipPath id="clip-path"><path class="cls-1" d="M37.72,20.12a18,18,0,1,1-18-18A18,18,0,0,1,37.72,20.12Z"/></clipPath></defs><title>New York</title><g class="cls-2"><path class="cls-3" d="M38,2.07V5.74H19.66V2.07Zm0,7.34v3.67H19.66V9.41Zm0,7.34v3.66H19.66V16.75Zm0,7.33v3.67H.83V24.08Zm0,7.34v3.67H.83V31.42Zm0,7.34v3.67H.83V38.76Z"/><path class="cls-4" d="M-.53-1.6H40V2.07H-.53V-1.6Zm0,44H40V46.1H-.53V42.43Zm0-7.34H40v3.67H-.53V35.09Zm0-7.34H40v3.67H-.53V27.75Zm0-7.34H40v3.67H-.53V20.41Zm0-7.33H40v3.67H-.53V13.08Zm0-7.34H40V9.41H-.53V5.74Z"/><polygon class="cls-5" points="-16.5 -1.6 19.75 -1.6 19.75 24.08 -16.5 24.08 -16.5 -1.6 -16.5 -1.6"/><path class="cls-6" d="M16.73-.33l.33,1h1.07l-.87.62.33,1-.86-.63-.86.63.33-1L15.33.69H16.4l.33-1ZM-13.48,9.91l.33,1h1.07l-.87.62.33,1-.86-.63-.86.63.33-1-.87-.62h1.07l.33-1Zm3,2.56.33,1h1.07l-.87.62.33,1-.86-.63-.86.63.33-1-.87-.62h1.07l.33-1Zm24.17,0,.33,1H15.1l-.86.62.33,1-.86-.63-.87.63.34-1-.87-.62h1.07l.33-1Zm-6,0,.32,1H9.06l-.86.62.33,1-.86-.63-.87.63.33-1-.86-.62H7.34l.33-1Zm-6,0,.33,1H3l-.87.62.34,1-.87-.63-.86.63.33-1-.86-.62H1.29l.33-1Zm-6,0,.33,1H-3l-.87.62.33,1-.86-.63-.86.63.33-1-.87-.62h1.07l.33-1Zm-3-2.56.33,1H-6l-.87.62.33,1-.86-.63-.86.63.33-1-.87-.62h1.07l.33-1Zm18.13,0,.32,1h1.07l-.86.62.33,1-.86-.63-.87.63.33-1-.86-.62h1.07l.33-1Zm6,0,.33,1h1.07l-.87.62.33,1-.86-.63-.86.63.33-1-.87-.62H16.4l.33-1Zm0,5.12.33,1h1.07l-.87.62.33,1-.86-.63-.86.63.33-1-.87-.62H16.4l.33-1Zm-6,0,.32,1h1.07l-.86.62.33,1-.86-.63-.87.63.33-1-.86-.62h1.07l.33-1ZM-7.44,15l.33,1H-6l-.87.62.33,1-.86-.63-.86.63.33-1-.87-.62h1.07l.33-1Zm-3,2.56.33,1h1.07l-.87.63.33,1-.86-.63-.86.63.33-1-.87-.63h1.07l.33-1Zm24.17,0,.33,1H15.1l-.86.63.33,1-.86-.63-.87.63.34-1-.87-.63h1.07l.33-1Zm-6,0,.32,1H9.06l-.86.63.33,1-.86-.63-.87.63.33-1-.86-.63H7.34l.33-1Zm-6,0,.33,1H3l-.87.63.34,1-.87-.63-.86.63.33-1-.86-.63H1.29l.33-1Zm-6,0,.33,1H-3l-.87.63.33,1-.86-.63-.86.63.33-1-.87-.63h1.07l.33-1ZM-13.48,15l.33,1h1.07l-.87.62.33,1-.86-.63-.86.63.33-1-.87-.62h1.07l.33-1Zm0,5.12.33,1h1.07l-.87.63.33,1-.86-.63-.86.63.33-1-.87-.63h1.07l.33-1Zm6,0,.33,1H-6l-.87.63.33,1-.86-.63-.86.63.33-1-.87-.63h1.07l.33-1Zm18.13,0,.32,1h1.07l-.86.63.33,1-.86-.63-.87.63.33-1-.86-.63h1.07l.33-1Zm6,0,.33,1h1.07l-.87.63.33,1-.86-.63-.86.63.33-1-.87-.63H16.4l.33-1ZM-10.46,7.35l.33,1h1.07L-9.93,9l.33,1-.86-.63-.86.63L-11,9l-.87-.62h1.07l.33-1Zm0-5.12.33,1h1.07l-.87.63.33,1-.86-.63-.86.63.33-1-.87-.63h1.07l.33-1Zm24.17,0,.33,1H15.1l-.86.63.33,1-.86-.63-.87.63.34-1-.87-.63h1.07l.33-1Zm-6,0,.32,1H9.06l-.86.63.33,1-.86-.63-.87.63.33-1-.86-.63H7.34l.33-1Zm-6,0,.33,1H3l-.87.63.34,1-.87-.63-.86.63.33-1L.23,3.25H1.29l.33-1Zm-6,0,.33,1H-3l-.87.63.33,1-.86-.63-.86.63.33-1-.87-.63h1.07l.33-1Zm-9.06,2.56.33,1h1.07l-.87.63.33,1-.86-.63-.86.63.33-1-.87-.63h1.07l.33-1ZM13.71,7.35l.33,1H15.1L14.24,9l.33,1-.86-.63-.87.63.34-1-.87-.62h1.07l.33-1Zm-6,0,.32,1H9.06L8.2,9l.33,1-.86-.63L6.8,10l.33-1-.86-.62H7.34l.33-1Zm-6,0,.33,1H3L2.15,9l.34,1-.87-.63L.76,10l.33-1L.23,8.37H1.29l.33-1Zm-6,0,.33,1H-3L-3.89,9l.33,1-.86-.63-.86.63.33-1-.87-.62h1.07l.33-1Zm-3-2.56.33,1H-6l-.87.63.33,1-.86-.63-.86.63.33-1-.87-.63h1.07l.33-1Zm0-5.12.33,1H-6l-.87.62.33,1-.86-.63-.86.63.33-1L-8.84.69h1.07l.33-1Zm-6,0,.33,1h1.07l-.87.62.33,1-.86-.63-.86.63.33-1-.87-.62h1.07l.33-1ZM-1.4,20.15l.33,1H0l-.87.63.34,1-.87-.63-.86.63.33-1-.86-.63h1.06l.33-1Zm0-5.12.33,1H0l-.87.62.34,1-.87-.63-.86.63.33-1-.86-.62h1.06l.33-1Zm0-5.12.33,1H0l-.87.62.34,1-.87-.63-.86.63.33-1-.86-.62h1.06l.33-1Zm0-5.12.33,1H0l-.87.63.34,1-.87-.63-.86.63.33-1-.86-.63h1.06l.33-1Zm0-5.12.33,1H0l-.87.62.34,1L-1.4,1.7l-.86.63.33-1L-2.79.69h1.06l.33-1Zm6,20.48.33,1H6l-.86.63.33,1-.87-.63-.86.63.33-1-.86-.63H4.32l.32-1Zm0-5.12.33,1H6l-.86.62.33,1-.87-.63-.86.63.33-1-.86-.62H4.32l.32-1Zm0-5.12.33,1H6l-.86.62.33,1-.87-.63-.86.63.33-1-.86-.62H4.32l.32-1Zm0-5.12.33,1H6l-.86.63.33,1-.87-.63-.86.63.33-1-.86-.63H4.32l.32-1Zm0-5.12L5,.69H6l-.86.62.33,1L4.64,1.7l-.86.63.33-1L3.25.69H4.32l.32-1Zm6.05,5.12.32,1h1.07l-.86.63.33,1-.86-.63-.87.63.33-1-.86-.63h1.07l.33-1Zm0-5.12.32,1h1.07l-.86.62.33,1-.86-.63-.87.63.33-1L9.29.69h1.07l.33-1Zm6,5.12.33,1h1.07l-.87.63.33,1-.86-.63-.86.63.33-1-.87-.63H16.4l.33-1Z"/></g></svg>