<svg id="Layer_1" data-name="Layer 1" xmlns="http://www.w3.org/2000/svg" xmlns:xlink="http://www.w3.org/1999/xlink" viewBox="0 0 40 40"><defs><style>.cls-1{fill:none;}.cls-2{clip-path:url(#clip-path);}.cls-3{fill:#0437a0;}.cls-3,.cls-4,.cls-5{fill-rule:evenodd;}.cls-4{fill:#f4f4f4;}.cls-5{fill:#ff1612;}</style><clipPath id="clip-path"><path class="cls-1" d="M37.72,20.12a18,18,0,1,1-18-18A18,18,0,0,1,37.72,20.12Z"/></clipPath></defs><title>Australia copy</title><rect class="cls-1" x="0.01" y="-0.01" width="40" height="40"/><g class="cls-2"><polygon class="cls-3" points="0.75 1.63 19.68 1.63 38.62 1.63 38.62 38.75 19.68 38.75 0.75 38.75 0.75 1.63 0.75 1.63"/><polygon class="cls-4" points="4.76 1.63 6.53 1.63 8.3 1.63 8.3 5.77 14.58 1.63 17.22 1.63 17.22 3.37 12.71 6.35 17.22 6.35 17.22 11.01 12.71 11.01 17.22 13.98 17.22 15.73 14.58 15.73 8.3 11.59 8.3 15.73 6.53 15.73 4.76 15.73 4.76 11.59 -1.52 15.73 -4.17 15.73 -4.17 13.98 0.35 11.01 -4.17 11.01 -4.17 6.35 0.35 6.35 -4.17 3.37 -4.17 1.63 -1.52 1.63 4.76 5.77 4.76 1.63 4.76 1.63"/><path class="cls-5" d="M7.63,1.63V7.22h9.59v2.91H7.63v5.6H5.43v-5.6h-9.6V7.22h9.6V1.63h2.2Zm9.59,13.44L11.06,11h-2l7.16,4.72h1v-.66ZM11.06,6.35l6.16-4.07V1.63h-1L9.07,6.35ZM4,6.35-3.17,1.63h-1v.65L2,6.35ZM2,11l-6.17,4.06v.66h1L4,11Z"/><polygon class="cls-4" points="27.09 21.92 27.43 22.95 28.45 22.56 27.84 23.46 28.78 24.01 27.7 24.1 27.84 25.17 27.09 24.39 26.34 25.17 26.49 24.1 25.41 24.01 26.34 23.46 25.74 22.56 26.76 22.95 27.09 21.92 27.09 21.92"/><polygon class="cls-4" points="21.04 12.44 21.37 13.47 22.39 13.08 21.79 13.98 22.73 14.53 21.64 14.62 21.79 15.69 21.04 14.91 20.29 15.69 20.44 14.62 19.35 14.53 20.29 13.98 19.69 13.08 20.7 13.47 21.04 12.44 21.04 12.44"/><polygon class="cls-4" points="27.09 5.95 27.43 6.98 28.45 6.6 27.84 7.5 28.78 8.04 27.7 8.14 27.84 9.21 27.09 8.43 26.34 9.21 26.49 8.14 25.41 8.04 26.34 7.5 25.74 6.6 26.76 6.98 27.09 5.95 27.09 5.95"/><polygon class="cls-4" points="32.48 10.84 32.81 11.87 33.83 11.49 33.23 12.38 34.16 12.94 33.08 13.03 33.23 14.1 32.48 13.31 31.73 14.1 31.88 13.03 30.79 12.94 31.73 12.38 31.12 11.49 32.14 11.87 32.48 10.84 32.48 10.84"/><polygon class="cls-4" points="29.52 15.65 29.78 16.29 30.48 16.34 29.94 16.78 30.11 17.45 29.52 17.09 28.92 17.45 29.09 16.78 28.56 16.34 29.25 16.29 29.52 15.65 29.52 15.65"/><polygon class="cls-4" points="11.87 19.43 12.7 22 15.26 21.05 13.75 23.3 16.1 24.68 13.38 24.91 13.75 27.59 11.87 25.63 9.98 27.59 10.36 24.91 7.63 24.68 9.98 23.3 8.47 21.05 11.03 22 11.87 19.43 11.87 19.43"/></g></svg>