<svg id="Layer_1" data-name="Layer 1" xmlns="http://www.w3.org/2000/svg" xmlns:xlink="http://www.w3.org/1999/xlink" viewBox="0 0 40 40"><defs><style>.cls-1{fill:none;}.cls-2{clip-path:url(#clip-path);}.cls-3{fill:#ff1612;}.cls-3,.cls-4{fill-rule:evenodd;}.cls-4{fill:#fff;}</style><clipPath id="clip-path"><path class="cls-1" d="M37.72,20.12a18,18,0,1,1-18-18A18,18,0,0,1,37.72,20.12Z"/></clipPath></defs><title>Canada</title><g class="cls-2"><polygon class="cls-3" points="1.54 1 12.55 1 12.55 38.63 1.54 38.63 1.54 1 1.54 1"/><polygon class="cls-4" points="12.55 1 27.41 1 27.41 38.63 12.55 38.63 12.55 1 12.55 1"/><polygon class="cls-3" points="27.41 1 38.37 1 38.37 38.63 27.41 38.63 27.41 1 27.41 1"/><path class="cls-3" d="M20,15s.88,1.65,1,1.86.25.24.56.1.74-.38.74-.38l-.57,3c-.07.42.2.56.47.25l1.27-1.43s.15.51.19.67.13.28.42.22l1.52-.33s-.43,1.54-.47,1.74-.09.28.16.4l.55.26s-2.51,2.08-2.73,2.24-.25.26-.15.59.19.67.19.67l-2.76-.38c-.27,0-.25.25-.24.4s.07,2.78.07,2.78h-.44s.06-2.63.07-2.78,0-.44-.24-.4l-2.76.38s.08-.33.19-.67.06-.43-.15-.59-2.74-2.24-2.74-2.24l.56-.26c.25-.12.2-.2.16-.4s-.48-1.74-.48-1.74l1.53.33c.29.06.38-.05.42-.22s.18-.67.18-.67l1.28,1.43c.27.31.54.17.47-.25l-.57-3s.44.24.74.38.43.11.56-.1S20,15,20,15Z"/></g></svg>