<svg id="Layer_1" data-name="Layer 1" xmlns="http://www.w3.org/2000/svg" xmlns:xlink="http://www.w3.org/1999/xlink" viewBox="0 0 40 40"><defs><style>.cls-1{fill:none;}.cls-2{clip-path:url(#clip-path);}.cls-3{fill:#fff;}.cls-3,.cls-4,.cls-5,.cls-6,.cls-7{fill-rule:evenodd;}.cls-4{fill:#0456bd;}.cls-5,.cls-6{fill:#ff1612;}.cls-6{stroke:#f4f4f4;stroke-miterlimit:2.41;stroke-width:0.35px;}.cls-7{fill:#f4f4f4;}</style><clipPath id="clip-path"><path class="cls-1" d="M37.72,20.12a18,18,0,1,1-18-18A18,18,0,0,1,37.72,20.12Z"/></clipPath></defs><title>Slovakia</title><g class="cls-2"><polygon class="cls-3" points="1.52 1.33 20.05 1.33 38.58 1.33 38.58 38.92 20.05 38.92 1.52 38.92 1.52 1.33 1.52 1.33"/><polygon class="cls-4" points="38.42 26.66 38.42 13.34 1.08 13.34 1.08 26.66 38.42 26.66 38.42 26.66"/><polygon class="cls-5" points="1.08 39.99 38.42 39.99 38.42 26.66 1.08 26.66 1.08 39.99 1.08 39.99"/><path class="cls-6" d="M20,10.68s.33,6.84.26,9.61-2.27,7.15-7.8,9.82C7,27.44,4.76,23.05,4.69,20.29S5,10.68,5,10.68H20Z"/><path class="cls-7" d="M12.49,11.72c.25,0,1.08-.08,1.08-.08a15.48,15.48,0,0,0-.44,2.9,10.22,10.22,0,0,0,3.11-.43,12.42,12.42,0,0,0,0,2.21,9.85,9.85,0,0,0-3.12-.45v2.06a12.19,12.19,0,0,0,3.94-.43,13.49,13.49,0,0,0,0,2.24,10.48,10.48,0,0,0-3.91-.43v3a1.7,1.7,0,0,0-.64-.13h0a1.77,1.77,0,0,0-.66.15v-3a10.43,10.43,0,0,0-3.91.43,14.84,14.84,0,0,0,0-2.24,12.11,12.11,0,0,0,3.93.43V15.87a9.75,9.75,0,0,0-3.11.45,12.1,12.1,0,0,0,0-2.21,10.22,10.22,0,0,0,3.11.43,16,16,0,0,0-.43-2.9s.82.08,1.08.08h0Z"/><path class="cls-4" d="M18.43,24.69c-.35-.55-1-1.4-1.8-1.4a2.16,2.16,0,0,0-1.74,1s-.85-2.11-2.4-2.11-2.4,2.11-2.4,2.11a2.16,2.16,0,0,0-1.74-1c-.78,0-1.45.85-1.8,1.4.21.31.44.63.68.94a15.2,15.2,0,0,0,5.26,4.13,15.2,15.2,0,0,0,5.26-4.13c.24-.31.47-.63.68-.94Z"/></g></svg>