<svg id="Layer_1" data-name="Layer 1" xmlns="http://www.w3.org/2000/svg" xmlns:xlink="http://www.w3.org/1999/xlink" viewBox="0 0 40 40"><defs><style>.cls-1{fill:#3d5172;}.cls-2{fill:url(#linear-gradient);}.cls-3{fill:url(#linear-gradient-2);}.cls-4{fill:url(#radial-gradient);}.cls-5,.cls-6{fill:#630b0b;}.cls-5{opacity:0.65;}.cls-6{opacity:0.81;}.cls-7{fill:url(#radial-gradient-2);}</style><linearGradient id="linear-gradient" x1="19.76" y1="8.58" x2="19.76" y2="34.47" gradientUnits="userSpaceOnUse"><stop offset="0" stop-color="#fecf82"/><stop offset="0.22" stop-color="#fecf82"/><stop offset="0.26" stop-color="#fecf82"/><stop offset="0.37" stop-color="#fccd80"/><stop offset="0.41" stop-color="#f5c87b"/><stop offset="0.44" stop-color="#eabe71"/><stop offset="0.46" stop-color="#d9b063"/><stop offset="0.48" stop-color="#c39f52"/><stop offset="0.49" stop-color="#b19043"/><stop offset="1" stop-color="#fecf82"/></linearGradient><linearGradient id="linear-gradient-2" x1="19.76" y1="9.64" x2="19.76" y2="33.15" gradientUnits="userSpaceOnUse"><stop offset="0" stop-color="#d6b26d"/><stop offset="0.17" stop-color="#e1c18b"/><stop offset="0.4" stop-color="#eed3ad"/><stop offset="0.62" stop-color="#f7dfc5"/><stop offset="0.83" stop-color="#fce6d4"/><stop offset="0.99" stop-color="#fee9d9"/></linearGradient><radialGradient id="radial-gradient" cx="20.28" cy="10.87" r="41.7" gradientTransform="translate(0 5.47) scale(1 0.5)" gradientUnits="userSpaceOnUse"><stop offset="0" stop-color="#f95346"/><stop offset="0.19" stop-color="#dc3631"/><stop offset="0.38" stop-color="#c62021"/><stop offset="0.51" stop-color="#be181b"/><stop offset="1" stop-color="#c7120c"/></radialGradient><radialGradient id="radial-gradient-2" cx="19.55" cy="14.24" r="22" gradientUnits="userSpaceOnUse"><stop offset="0" stop-color="#fff"/><stop offset="0.18" stop-color="#fafafb"/><stop offset="0.38" stop-color="#ededee"/><stop offset="0.58" stop-color="#d6d7d8"/><stop offset="0.8" stop-color="#b7b8ba"/><stop offset="1" stop-color="#939598"/></radialGradient></defs><title>RNG-M88</title><path class="cls-1" d="M37.72,20.12a18,18,0,1,1-18-18A18,18,0,0,1,37.72,20.12Z"/><rect class="cls-2" x="6.67" y="8.47" width="26.19" height="23.31"/><rect class="cls-3" x="7.77" y="9.54" width="23.99" height="21.17"/><rect class="cls-4" x="8.02" y="9.77" width="23.49" height="20.7"/><path class="cls-5" d="M8,9.77V30.48H31.51V9.77ZM31.3,30.36H8.22V10H31.3Z"/><path class="cls-6" d="M16.38,20.52v8.42c0,.19-.05.31-.21.31s-.23-.12-.23-.31V27.83h-.42a11.46,11.46,0,0,0-2.31,1.56,11.92,11.92,0,0,0-2.13-1c-.35.32-.6.55-.76.72s-.23.25-.3.25a.3.3,0,0,1-.26-.25c0-.12.26-.4,1.44-1.6a4.42,4.42,0,0,0,1.13-3.37c0-2.52-1.09-4.68-2.33-4.68a.61.61,0,0,0-.7.58c0,.21-.11.28-.21.28s-.27-.31-.27-.81a2,2,0,0,1,1.8-2.09c.86,0,1.2.69,1.71.62V16.35a1.39,1.39,0,0,0-.48-1.09A6.83,6.83,0,0,0,9.6,14.05c-.18,0-.27.07-.39.07s-.09,0-.09-.07,0-.11.18-.27L11.13,12c.09-.07.14-.12.23-.12.62,0,3.12,2,3.42,2,.49,0,3-1.95,3.7-1.95.18,0,.37.16,1.78,1.3a10.76,10.76,0,0,0,1.11.85c.37.24.39.28.39.72.23,0,.49-.23,1.94-1.41A21.22,21.22,0,0,1,25.44,12c.11,0,1.13.42,2.63,1.05.44.18.51.23.51.51v12c0,.39.05.53.21.67.69.6,1.11.84,1.34.84a.34.34,0,0,0,.23-.1c.12-.16.14-.18.21-.18s.14.09.14.18a9.52,9.52,0,0,1-2.11,2.28,8.2,8.2,0,0,1-2.38-1.65.74.74,0,0,1-.25-.67V18.35c0-1,.32-1.67,1.48-3.23.6-.79.65-1,.53-1s-1.5,1-1.78,1.18c-1.25-.71-1.62-.95-2.29-.95-.37,0-.62.19-.62.42V29c0,.19-.09.33-.23.33s-.19-.12-.19-.3V28c-1,.16-1.8,1.32-2,1.32a8.07,8.07,0,0,1-1.76-1.95V20.52ZM16,14.61c0-.46-.05-.63-.14-.63s-1,.47-1,.63V21c0,3.17-.37,3.5-1.2,4.38-.37.39-.46.49-.74.81.49.67,2.1,1,3,.93Zm.42,3.71h2.7V15.77c0-.49-1.73-1.81-2.31-1.81-.26,0-.39.16-.39.47ZM22.87,15s0-.07-.09-.07a.67.67,0,0,0-.26.09l-.53.33c-.3.18-.39.28-.39.41v2.32c0,.16.21.28.37.28h.9Zm0,5.45H22c-.25,0-.37.18-.37.53v4.76c0,.93.4,1.37,1.25,1.43Z"/><path class="cls-7" d="M16.38,20v8.42c0,.19-.05.3-.21.3s-.23-.11-.23-.3V27.34h-.42a11.82,11.82,0,0,0-2.31,1.55,12.66,12.66,0,0,0-2.13-1l-.76.72c-.16.16-.23.26-.3.26a.3.3,0,0,1-.26-.26c0-.11.26-.39,1.44-1.6a4.38,4.38,0,0,0,1.13-3.36C12.33,21.12,11.24,19,10,19a.61.61,0,0,0-.7.59c0,.2-.11.27-.21.27s-.27-.3-.27-.81a2,2,0,0,1,1.8-2.09c.86,0,1.2.7,1.71.63V15.86a1.39,1.39,0,0,0-.48-1.09A6.65,6.65,0,0,0,9.6,13.56c-.18,0-.27.07-.39.07s-.09,0-.09-.07,0-.11.18-.28l1.83-1.81a.35.35,0,0,1,.23-.11c.62,0,3.12,2,3.42,2,.49,0,3-1.95,3.7-1.95.18,0,.37.17,1.78,1.3a9.45,9.45,0,0,0,1.11.86c.37.23.39.28.39.72.23,0,.49-.23,1.94-1.41a21.22,21.22,0,0,1,1.74-1.35c.11,0,1.13.42,2.63,1,.44.19.51.23.51.51v12c0,.39.05.53.21.67.69.6,1.11.83,1.34.83a.32.32,0,0,0,.23-.09c.12-.16.14-.19.21-.19s.14.1.14.19a9.36,9.36,0,0,1-2.11,2.27,8,8,0,0,1-2.38-1.64.76.76,0,0,1-.25-.68V17.85c0-1,.32-1.67,1.48-3.22.6-.79.65-1,.53-1s-1.5,1-1.78,1.18c-1.25-.72-1.62-.95-2.29-.95-.37,0-.62.19-.62.42V28.52c0,.19-.09.33-.23.33s-.19-.12-.19-.31V27.48c-1,.16-1.8,1.32-2,1.32a8.07,8.07,0,0,1-1.76-1.95V20ZM16,14.12c0-.47-.05-.63-.14-.63s-1,.47-1,.63v6.42c0,3.18-.37,3.5-1.2,4.39-.37.39-.46.48-.74.81.49.67,2.1,1,3,.93Zm.42,3.71h2.7V15.28c0-.49-1.73-1.81-2.31-1.81-.26,0-.39.16-.39.46Zm6.49-3.3s0-.06-.09-.06a.54.54,0,0,0-.26.09l-.53.32c-.3.19-.39.28-.39.42v2.32c0,.16.21.28.37.28h.9Zm0,5.45H22c-.25,0-.37.19-.37.54v4.75c0,.93.4,1.37,1.25,1.44Z"/></svg>