<svg id="Layer_1" data-name="Layer 1" xmlns="http://www.w3.org/2000/svg" xmlns:xlink="http://www.w3.org/1999/xlink" viewBox="0 0 40 40"><defs><style>.cls-1{fill:#039;}.cls-2{clip-path:url(#clip-path);}.cls-3{fill:#fff;}.cls-4{fill:#f8c636;stroke:#070707;stroke-miterlimit:10;stroke-width:0.1px;}</style><clipPath id="clip-path"><path class="cls-1" d="M37.72,20.12a18,18,0,1,1-18-18A18,18,0,0,1,37.72,20.12Z"/></clipPath></defs><title>Kentucky</title><path class="cls-1" d="M37.72,20.12a18,18,0,1,1-18-18A18,18,0,0,1,37.72,20.12Z"/><g class="cls-2"><polygon class="cls-3" points="19.55 4.53 20 5.93 21.47 5.93 20.28 6.8 20.74 8.21 19.55 7.34 18.36 8.21 18.81 6.8 17.62 5.93 19.09 5.93 19.55 4.53"/><polygon class="cls-3" points="12.69 6.36 13.15 7.77 14.62 7.77 13.43 8.64 13.88 10.04 12.69 9.18 11.51 10.05 11.96 8.64 10.77 7.77 12.24 7.77 12.69 6.36"/><polygon class="cls-3" points="7.68 11.4 8.13 12.8 9.6 12.8 8.41 13.68 8.87 15.08 7.68 14.21 6.49 15.08 6.95 13.68 5.75 12.81 7.22 12.81 7.68 11.4"/><polygon class="cls-3" points="26.39 6.39 26.85 7.79 28.32 7.79 27.13 8.66 27.58 10.07 26.4 9.2 25.21 10.07 25.66 8.66 24.47 7.8 25.94 7.79 26.39 6.39"/><polygon class="cls-3" points="33.12 12.7 31.94 13.57 32.39 14.97 31.2 14.11 30.01 14.97 30.47 13.57 29.27 12.7 30.75 12.7 31.2 11.3 31.65 12.7 33.12 12.7"/><polygon class="cls-3" points="35.02 19.62 33.82 20.48 34.27 21.89 33.09 21.01 31.89 21.88 32.35 20.48 31.17 19.6 32.64 19.61 33.1 18.2 33.54 19.61 35.02 19.62"/><polygon class="cls-3" points="32.51 28.53 31.32 27.66 30.13 28.53 30.58 27.12 29.39 26.26 30.86 26.25 31.31 24.85 31.77 26.25 33.24 26.25 32.05 27.12 32.51 28.53"/><polygon class="cls-3" points="18.48 35.46 18.93 34.05 17.74 33.19 19.21 33.18 19.66 31.78 20.12 33.18 21.59 33.18 20.4 34.05 20.86 35.45 19.67 34.59 18.48 35.46"/><polygon class="cls-3" points="11.62 33.63 12.07 32.23 10.88 31.36 12.35 31.36 12.8 29.95 13.26 31.36 14.72 31.36 13.54 32.23 13.99 33.63 12.8 32.76 11.62 33.63"/><polygon class="cls-3" points="27.49 33.6 26.3 32.73 25.11 33.59 25.57 32.19 24.39 31.31 25.85 31.32 26.31 29.92 26.76 31.32 28.23 31.33 27.04 32.19 27.49 33.6"/><polygon class="cls-3" points="4.08 19.64 5.55 19.64 6 18.23 6.46 19.64 7.93 19.63 6.74 20.51 7.2 21.91 6.01 21.04 4.82 21.92 5.27 20.51 4.08 19.64"/><polygon class="cls-3" points="6.6 28.52 7.05 27.12 5.86 26.25 7.33 26.25 7.78 24.84 8.24 26.25 9.71 26.25 8.52 27.11 8.98 28.52 7.79 27.65 6.6 28.52"/><path class="cls-4" d="M19.26,25.78a5,5,0,0,0,.78.06,5.68,5.68,0,0,0,.72-.05,9,9,0,0,1,.49-4.33c1.72-5,1.13-6.12-1.24-10-2.37,4.09-3,5-1.24,10A8.71,8.71,0,0,1,19.26,25.78Z"/><path class="cls-4" d="M21.24,25.73a6,6,0,0,1-1.23.13,6,6,0,0,1-1.23-.13,3.19,3.19,0,0,1-.49.77,1,1,0,0,0,.83,1.12H20.9a1,1,0,0,0,.84-1.12A3,3,0,0,1,21.24,25.73Z"/><path class="cls-4" d="M22.36,25.25A.47.47,0,0,0,22,26a1.14,1.14,0,0,1-.61-.43,1,1,0,0,1-.36.18,1.31,1.31,0,0,0,1.38.71C23.13,26.37,23.1,25.25,22.36,25.25Z"/><path class="cls-4" d="M22.92,21c-1.74.2-2.46,2.58-2.24,4.06a1.53,1.53,0,0,0,.45-.19,2.08,2.08,0,0,1-1.13.31,2.7,2.7,0,0,1-1.14-.32h0a1,1,0,0,0,.48.2c.22-1.47-.53-3.86-2.26-4.06-2.5-.29-2.51,3.9-.44,4-.84-1,.4-2.29,1.64-1.18a1.72,1.72,0,0,1,.58,1,.45.45,0,0,0-.3.49c0,.29.71.52,1.44.52s1.43-.23,1.44-.52a.45.45,0,0,0-.3-.49h0a1.78,1.78,0,0,1,.59-1.06C23,22.74,24.2,24,23.36,25,25.43,24.94,25.42,20.75,22.92,21Z"/><path class="cls-4" d="M18.05,26a.47.47,0,0,0-.41-.77c-.74,0-.77,1.12,0,1.23A1.29,1.29,0,0,0,19,25.77a1,1,0,0,1-.35-.18A1.14,1.14,0,0,1,18.05,26Z"/></g></svg>