<svg width="24" height="24" viewBox="0 0 24 24" fill="none" xmlns="http://www.w3.org/2000/svg">
<path d="M21.5164 2.91205C21.4283 2.8724 19.3283 2 16.3414 2C14.0892 2 12.6065 2.50418 11.9626 2.77893C11.2359 2.52117 9.45391 2 7.14293 2C4.10793 2 2.46754 2.91488 2.40075 2.95171L2 3.1783V20.9718H10.763C10.9153 21.5666 11.4309 22 12.0374 22C12.6439 22 13.1568 21.5666 13.3091 20.9718H22V3.11599L21.5164 2.91205ZM11.1985 18.5047C10.3569 18.2583 8.91424 17.9326 7.14293 17.9326C5.50521 17.9326 4.319 18.2102 3.60299 18.4509V4.13851C4.18007 3.92041 5.37697 3.57202 7.14293 3.57202C8.99439 3.57202 10.4745 3.9544 11.1985 4.18383V18.5047ZM20.397 18.5047C19.5554 18.2583 18.1127 17.9326 16.3414 17.9326C14.7037 17.9326 13.5175 18.2102 12.8015 18.4509V4.13851C13.3786 3.92041 14.5755 3.57202 16.3414 3.57202C18.1929 3.57202 19.673 3.9544 20.397 4.18383V18.5047Z" fill="white"/>
<path d="M16.8758 7.67908C16.3975 7.75273 15.9514 7.4015 15.8819 6.89166C15.8098 6.38465 16.1437 5.91163 16.622 5.83798C17.1029 5.76151 17.549 6.11556 17.6185 6.62258C17.688 7.13242 17.3567 7.60544 16.8758 7.67908Z" fill="white"/>
<path d="M17.5731 8.55998V14.409H15.9273V10.3048H15.1686V8.55998H17.5731Z" fill="white"/>
</svg>
