<svg width="24" height="24" viewBox="0 0 24 24" fill="none" xmlns="http://www.w3.org/2000/svg">
<path d="M5.12608 8.92285C4.8126 8.92285 4.54663 9.03073 4.32799 9.24649C4.10935 9.46225 4 9.72116 4 10.0233V14.663C4 14.9727 4.10932 15.235 4.32799 15.4508C4.54663 15.6666 4.8126 15.7745 5.12608 15.7745C5.43933 15.7745 5.7037 15.6666 5.91895 15.4508C6.13377 15.235 6.24147 14.9727 6.24147 14.663V10.0233C6.24147 9.72113 6.13216 9.46225 5.91349 9.24649C5.69482 9.03073 5.43229 8.92285 5.12608 8.92285Z" fill="white"/>
<path fill-rule="evenodd" clip-rule="evenodd" d="M14.2517 4.66767L15.0395 3.23991C15.0913 3.14539 15.0729 3.0729 14.9842 3.02193C14.8879 2.97799 14.814 3.00026 14.7623 3.08717L13.9635 4.52634C13.2605 4.22102 12.5171 4.06809 11.7331 4.06809C10.9489 4.06809 10.2054 4.22106 9.50272 4.52634L8.70384 3.08717C8.65192 3.00026 8.57797 2.97818 8.48195 3.02193C8.39308 3.07313 8.37469 3.14539 8.4266 3.23991L9.21447 4.66767C8.41558 5.0679 7.77932 5.6253 7.30591 6.34108C6.83251 7.05725 6.5957 7.83987 6.5957 8.69032H16.8593C16.8593 7.84007 16.6225 7.05742 16.1491 6.34108C15.6756 5.6253 15.0431 5.0679 14.2517 4.66767ZM9.69682 6.74436C9.61162 6.82826 9.50986 6.87001 9.39158 6.87001C9.27306 6.87001 9.17337 6.82826 9.09204 6.74436C9.01072 6.66086 8.97005 6.56128 8.97005 6.44469C8.97005 6.32848 9.01072 6.22871 9.09204 6.14501C9.17337 6.06151 9.27329 6.01976 9.39158 6.01976C9.50986 6.01976 9.61162 6.06151 9.69682 6.14501C9.78182 6.22891 9.82452 6.32848 9.82452 6.44469C9.82429 6.56109 9.78162 6.66086 9.69682 6.74436ZM14.0742 6.87001C14.1923 6.87001 14.2922 6.82826 14.3737 6.74436C14.455 6.66086 14.4957 6.56109 14.4957 6.44469C14.4957 6.32848 14.4551 6.22891 14.3737 6.14501C14.2921 6.06151 14.1925 6.01976 14.0742 6.01976C13.9556 6.01976 13.8539 6.06151 13.7689 6.14501C13.6837 6.22871 13.6412 6.32848 13.6412 6.44469C13.6412 6.56128 13.6837 6.66086 13.7689 6.74436C13.8539 6.82826 13.9556 6.87001 14.0742 6.87001Z" fill="white"/>
<path d="M6.71289 16.2417C6.71289 16.5737 6.83071 16.8547 7.06639 17.0853C7.30226 17.3159 7.58945 17.4312 7.92848 17.4312H8.7464L8.75761 19.8863C8.75761 20.1964 8.86812 20.4597 9.08913 20.6759C9.31014 20.8922 9.57554 21.0004 9.88487 21.0004C10.2016 21.0004 10.4706 20.8922 10.6916 20.6759C10.9127 20.4597 11.0232 20.1964 11.0232 19.8863V17.4314H12.5484V19.8863C12.5484 20.1964 12.6588 20.4597 12.8799 20.6759C13.1009 20.8922 13.3697 21.0004 13.6866 21.0004C14.0033 21.0004 14.2723 20.8922 14.4934 20.6759C14.7144 20.4597 14.8249 20.1964 14.8249 19.8863V17.4314H15.6539C15.9854 17.4314 16.2689 17.3161 16.505 17.0855C16.7406 16.8549 16.8585 16.5739 16.8585 16.2419V9.03906H6.71289V16.2417Z" fill="white"/>
<path d="M18.4464 8.92285C18.1401 8.92285 17.8777 9.02914 17.659 9.24114C17.4404 9.45352 17.3311 9.71441 17.3311 10.0233V14.663C17.3311 14.9727 17.4404 15.235 17.659 15.4508C17.8777 15.6666 18.1403 15.7745 18.4464 15.7745C18.7597 15.7745 19.0258 15.6666 19.2445 15.4508C19.4632 15.235 19.5725 14.9727 19.5725 14.663V10.0233C19.5725 9.71437 19.4632 9.45352 19.2445 9.24114C19.0258 9.02914 18.7597 8.92285 18.4464 8.92285Z" fill="white"/>
</svg>
