<svg width="24" height="24" viewBox="0 0 24 24" fill="none" xmlns="http://www.w3.org/2000/svg">
<path d="M9.97314 20.5004C7.25138 20.4851 5 15.0713 5 12.3141C5 7.81035 8.46734 6.82435 9.80362 6.82435C10.4058 6.82435 11.0489 7.05479 11.616 7.2587C12.0126 7.40095 12.4228 7.54779 12.651 7.54779C12.7875 7.54779 13.1093 7.42287 13.3934 7.31328C13.9993 7.07824 14.7532 6.78613 15.6312 6.78613C15.6327 6.78613 15.6349 6.78613 15.6364 6.78613C16.292 6.78613 18.2797 6.92632 19.4747 8.67502L19.7546 9.08491L19.3518 9.38113C18.7762 9.80428 17.7261 10.5762 17.7261 12.1051C17.7261 13.916 18.9154 14.6125 19.4867 14.9474C19.7389 15.0953 20 15.2477 20 15.5811C20 15.7988 18.2169 20.4734 15.6275 20.4734C14.9939 20.4734 14.546 20.2878 14.151 20.1242C13.7513 19.9585 13.4064 19.8158 12.8367 19.8158C12.5478 19.8158 12.1826 19.9488 11.796 20.09C11.2676 20.2822 10.6695 20.5004 9.99093 20.5004H9.97314Z" fill="white"/>
<path d="M15.5861 2.5C15.6553 5.09397 13.8699 6.89355 12.0866 6.78069C11.7927 4.71061 13.8697 2.5 15.5861 2.5Z" fill="white"/>
</svg>
