<svg xmlns="http://www.w3.org/2000/svg" width="25" height="25" fill="none" viewBox="0 0 25 25">
    <path fill="#B5B5B5" d="M12.587 1.35c-2.898 0-5.677 1.15-7.726 3.199-2.05 2.048-3.2 4.826-3.2 7.723v.013c-.031 1.504.267 2.997.874 4.374.652 1.416 1.582 2.687 2.735 3.736l-.24.183.284.12-.007.308.272-.146.24.198.056-.305.302-.063-.204-.233.141-.274-.309.013-.128-.281-.181.25-.04-.009c-1.11-1.02-2.008-2.25-2.641-3.617-.547-1.267-.837-2.629-.855-4.008h.775c-.01.526.054 1.052.19 1.56l-.09.017.133.16-.098.182h.207l.082.19.12-.165.2.055-.051-.201.168-.12-.188-.085.008-.208-.185.095-.03-.026c-.123-.473-.18-.96-.171-1.45h1.647c-.01 1.633.54 3.218 1.56 4.492l-.12.08.183.098-.023.206.19-.081.147.146.056-.2.205-.022-.12-.168.11-.175-.207-.01-.069-.195-.12.13c-.97-1.224-1.497-2.74-1.497-4.3h11.015c-.066-.588-.274-1.15-.605-1.64-.332-.49-.777-.891-1.298-1.171l.031.128-.338-.094-.215.277-.136-.324h-.352l.168-.309-.223-.27.347-.061.073-.344.263.232.315-.156-.018.35.32.148-.169.12c.583.305 1.083.747 1.455 1.289.372.542.605 1.167.68 1.82h1.99c-.03-.886-.274-1.752-.709-2.525-.435-.773-1.05-1.43-1.791-1.916l.066.233-.52-.12-.31.435-.224-.48-.534.027.24-.48-.354-.398.523-.112.09-.526.414.337.467-.255v.533l.492.206-.348.27c.826.504 1.514 1.204 2.004 2.039.49.834.765 1.776.802 2.743h1.421c-.095-1.652-.698-3.234-1.726-4.531-.67-.777-1.501-1.396-2.437-1.815-.936-.418-1.953-.626-2.978-.607l.17.463-.6-.097-.316.522-.3-.532-.6.08.23-.567-.44-.424.586-.174.056-.608.502.35.512-.335.039.609.58.192-.252.23c1.044-.002 2.077.224 3.025.661.949.437 1.791 1.075 2.47 1.87 1.076 1.345 1.706 2.993 1.8 4.713h.592c-.026-1.659-.563-3.269-1.537-4.611-1.025-1.387-2.45-2.428-4.082-2.984v.227l-.257-.142-.227.186-.049-.29-.287-.06.194-.22-.13-.263.292.016.12-.266.17.24.286-.07-.08.283.13.1c1.67.576 3.123 1.649 4.165 3.075 1.002 1.395 1.555 3.063 1.587 4.78h2.317v-.26c0-1.437-.281-2.86-.83-4.187-.55-1.327-1.356-2.533-2.372-3.55-1.017-1.015-2.224-1.82-3.552-2.368-1.328-.549-2.751-.83-4.188-.828z"/>
    <path fill="#B5B5B5" d="M8.434 15.642v2.018c0 .14-.034.246-.1.317-.067.072-.151.108-.253.108-.103 0-.186-.037-.251-.11-.063-.074-.095-.178-.095-.315v-1.998c0-.138.032-.242.095-.312.065-.07.148-.105.25-.105.103 0 .187.035.254.105.066.07.1.167.1.292zm-.346-.722c-.097 0-.18-.03-.25-.09-.069-.059-.103-.143-.103-.252 0-.1.035-.18.105-.243.072-.065.155-.098.248-.098.09 0 .17.03.24.087.07.058.106.143.106.254 0 .107-.034.191-.103.253-.068.06-.149.09-.243.09zm3.554-.023h-.83v2.725c0 .157-.034.273-.104.35-.07.075-.16.113-.271.113-.113 0-.205-.039-.277-.115-.07-.077-.104-.193-.104-.348v-2.725h-.83c-.129 0-.225-.028-.288-.084-.063-.058-.095-.134-.095-.228 0-.097.032-.174.097-.23.067-.056.162-.084.287-.084h2.415c.13 0 .228.029.291.086.065.059.097.134.097.228s-.032.17-.097.228c-.065.056-.162.084-.291.084zm2.407 1.94h-1.366c.001.158.033.298.094.419.063.121.146.212.248.274.104.061.219.092.343.092.084 0 .16-.01.228-.029.07-.02.137-.05.202-.091.065-.043.124-.088.18-.136.054-.048.124-.113.211-.194.036-.031.087-.047.154-.047.072 0 .13.02.174.06.044.039.066.094.066.166 0 .063-.024.137-.074.222-.05.084-.124.165-.225.243-.099.077-.224.14-.376.192-.15.051-.323.077-.52.077-.448 0-.797-.128-1.046-.384-.248-.256-.373-.603-.373-1.041 0-.207.03-.398.092-.573.062-.178.151-.33.269-.455.117-.127.262-.223.434-.29.173-.068.364-.102.574-.102.272 0 .506.058.7.174.197.114.343.263.44.445.098.183.146.368.146.558 0 .175-.05.29-.15.343-.101.05-.243.076-.425.076zm-1.366-.397h1.266c-.017-.239-.082-.417-.194-.535-.111-.12-.258-.179-.44-.179-.174 0-.318.06-.43.182-.111.12-.178.296-.202.532zm5.037.78c0 .087-.027.18-.08.279-.05.099-.13.194-.238.284-.105.088-.24.16-.401.215-.162.054-.345.082-.548.082-.431 0-.768-.126-1.01-.377-.242-.252-.363-.59-.363-1.012 0-.287.055-.54.166-.76.11-.22.271-.39.48-.51.21-.12.461-.18.753-.18.18 0 .346.026.496.078.152.053.28.121.384.205.106.084.186.173.24.269.057.093.085.181.085.263 0 .084-.032.154-.095.212-.061.058-.136.087-.225.087-.058 0-.107-.014-.146-.043-.037-.03-.08-.08-.128-.146-.085-.13-.174-.227-.268-.292-.092-.064-.21-.097-.353-.097-.207 0-.373.081-.5.243-.125.16-.188.38-.188.66 0 .132.016.253.048.364.033.109.08.203.14.28.062.078.136.136.223.177.087.04.183.06.287.06.14 0 .26-.033.358-.098.1-.065.19-.164.266-.297.043-.078.089-.14.138-.184.05-.044.11-.066.182-.066.085 0 .156.032.212.097.056.065.085.134.085.207zm1.161-2.589v1.036c.089-.102.175-.183.258-.243.086-.06.18-.104.282-.133.102-.03.212-.046.33-.046.177 0 .334.038.47.113.139.075.247.184.325.327.05.084.083.178.1.282.017.102.026.22.026.355v1.338c0 .14-.033.246-.098.317-.063.072-.147.108-.253.108-.23 0-.345-.142-.345-.425v-1.18c0-.223-.033-.394-.1-.513-.066-.122-.193-.182-.379-.182-.124 0-.237.036-.337.107-.1.07-.173.167-.223.29-.037.104-.056.289-.056.555v.923c0 .138-.032.244-.095.317-.061.072-.147.108-.258.108-.23 0-.345-.142-.345-.425v-3.029c0-.141.03-.247.09-.317.06-.072.146-.107.255-.107.11 0 .197.035.258.107.063.072.095.177.095.317zM8.353 19.957v2.154h1.215c.097 0 .171.023.222.07.053.047.079.107.079.178 0 .072-.026.132-.077.177-.05.045-.126.067-.224.067H8.121c-.13 0-.224-.029-.282-.087-.057-.058-.085-.151-.085-.28v-2.279c0-.12.027-.212.08-.272.056-.06.128-.09.217-.09.09 0 .162.03.218.09.056.06.084.15.084.272zm3.266 2.386c-.134.103-.263.181-.388.234-.124.05-.263.076-.418.076-.14 0-.265-.027-.373-.082-.106-.057-.188-.133-.246-.228-.058-.096-.087-.2-.087-.311 0-.15.048-.28.143-.386.096-.106.227-.177.394-.213.035-.009.122-.027.26-.055.139-.028.257-.054.355-.077.1-.024.208-.053.323-.086-.007-.146-.036-.252-.089-.32-.05-.068-.158-.102-.32-.102-.14 0-.246.02-.317.058-.07.04-.13.098-.182.176-.05.078-.085.13-.107.155-.02.024-.064.037-.133.037-.062 0-.116-.02-.161-.059-.045-.04-.067-.091-.067-.153 0-.097.034-.191.103-.283.069-.091.175-.167.32-.226.146-.059.327-.089.544-.089.242 0 .432.03.57.087.14.057.237.147.293.27.058.124.087.289.087.493 0 .13 0 .239-.002.329 0 .09 0 .19-.002.3 0 .104.017.212.05.325.035.112.053.184.053.216 0 .057-.027.109-.08.156-.053.046-.113.069-.18.069-.057 0-.113-.027-.168-.08-.055-.053-.114-.13-.175-.231zm-.037-.797c-.08.03-.198.06-.353.094-.153.033-.26.057-.319.073-.059.015-.116.045-.17.09-.053.045-.08.108-.08.189 0 .083.032.154.095.213.063.058.146.087.248.087.11 0 .21-.023.3-.07.094-.049.161-.11.205-.186.05-.084.074-.22.074-.412v-.078zm1.554-1.637v.841c.104-.107.21-.19.317-.246.108-.058.24-.087.4-.087.183 0 .343.044.48.132.139.086.245.212.32.377.077.164.116.36.116.585 0 .167-.022.32-.065.46-.042.139-.103.26-.183.362-.081.102-.18.181-.295.238-.114.055-.24.082-.38.082-.084 0-.164-.01-.24-.03-.074-.02-.137-.046-.19-.079-.052-.033-.097-.067-.135-.102-.036-.035-.084-.088-.145-.158v.055c0 .103-.025.182-.074.236-.05.052-.114.079-.19.079-.078 0-.14-.027-.188-.08-.046-.053-.068-.132-.068-.235v-2.406c0-.111.022-.196.066-.252.046-.058.11-.087.19-.087.085 0 .15.028.196.083.045.054.068.131.068.232zm.026 1.637c0 .219.05.388.15.506.1.117.232.176.395.176.139 0 .258-.06.357-.18.101-.121.152-.294.152-.519 0-.145-.021-.27-.063-.375-.041-.105-.1-.186-.177-.242-.077-.058-.167-.087-.269-.087-.105 0-.198.029-.28.087-.082.056-.147.14-.194.248-.047.108-.07.236-.07.386zm3.823.387c0 .152-.037.283-.111.392-.074.107-.184.19-.33.246-.143.055-.319.082-.526.082-.198 0-.367-.03-.509-.09-.14-.06-.245-.136-.312-.226-.068-.092-.101-.183-.101-.275 0-.06.021-.112.064-.155s.098-.065.164-.065c.058 0 .102.014.133.043.03.028.06.067.089.119.056.098.123.171.202.22.079.048.187.072.322.072.11 0 .2-.024.27-.072.072-.05.108-.107.108-.17 0-.097-.037-.167-.111-.212-.073-.044-.193-.087-.361-.127-.19-.047-.345-.096-.465-.147-.118-.053-.213-.121-.284-.206-.071-.085-.107-.19-.107-.313 0-.11.033-.215.099-.313s.163-.176.29-.234c.13-.059.285-.089.467-.089.142 0 .27.015.383.045.114.03.21.07.285.119.076.05.134.105.173.165.04.06.06.12.06.178 0 .063-.02.115-.064.155-.042.04-.101.06-.18.06-.056 0-.104-.015-.145-.048-.039-.032-.084-.08-.135-.145-.042-.054-.09-.097-.147-.129-.057-.032-.133-.048-.23-.048-.1 0-.183.021-.249.064-.066.042-.098.094-.098.158 0 .057.024.105.072.143.049.036.114.066.196.09.082.025.195.055.339.09.17.041.31.09.418.149.109.058.19.126.246.206.056.078.085.167.085.268z"/>
</svg>
