<svg xmlns="http://www.w3.org/2000/svg" width="13" height="12" fill="none" viewBox="0 0 13 12">
    <path fill="#fff" d="M5.639 3.838H9.795V8.119H5.639z"/>
    <path fill="#314060" d="M8.252 6l.707-.707c.09-.094.141-.22.14-.352-.001-.13-.054-.256-.146-.349-.093-.093-.218-.145-.35-.146-.13-.001-.257.049-.351.14l-.707.707-.707-.707c-.046-.048-.101-.086-.162-.112-.061-.026-.127-.04-.193-.04-.067-.001-.133.011-.194.037-.062.025-.117.062-.164.109s-.084.103-.11.164c-.025.061-.037.127-.037.194 0 .066.015.132.04.193.027.06.065.116.113.162L6.838 6l-.707.707c-.048.046-.086.101-.112.162-.026.061-.04.127-.04.193-.001.067.011.133.036.194.026.061.063.117.11.164s.102.084.164.11c.061.025.127.037.194.037.066-.001.132-.015.193-.041.06-.026.116-.064.162-.112l.707-.707.707.707c.046.048.101.086.162.112.061.026.127.04.193.04.067.001.132-.011.194-.037.061-.025.117-.062.164-.109s.084-.103.11-.164c.024-.061.037-.127.036-.194 0-.066-.014-.132-.04-.193-.026-.06-.064-.116-.112-.162L8.252 6zM4.959 2.5h5.086c.265 0 .52.105.707.293.188.187.293.442.293.707v5c0 .265-.105.52-.293.707-.188.188-.442.293-.707.293H4.959c-.265 0-.52-.105-.707-.293L1.398 6.353c-.093-.093-.146-.22-.146-.353 0-.133.053-.26.146-.354l2.854-2.853c.187-.188.442-.293.707-.293z"/>
</svg>
