<svg width="48" height="49" viewBox="0 0 48 49" fill="none" xmlns="http://www.w3.org/2000/svg">
<path d="M24.4427 48.2868C31.7471 48.2868 38.008 45.1563 42.1819 40.9824H6.70361C10.8775 45.1563 17.1384 48.2868 24.4427 48.2868Z" fill="#CB0028"/>
<path d="M6.70361 8.63445H42.1819C38.008 3.41706 31.7471 0.286621 24.4427 0.286621C17.1384 0.286621 10.8775 3.41706 6.70361 8.63445Z" fill="#CB0028"/>
<path d="M6.70372 39.9386H42.182C44.2689 37.8517 46.3559 34.7213 47.3994 31.5908H1.48633C2.52981 35.7647 4.61676 37.8517 6.70372 39.9386Z" fill="white"/>
<path d="M1.48633 15.9386H46.3559C45.3124 12.8082 44.2689 10.7212 42.182 8.63428H6.70372C4.61676 10.7212 2.52981 12.8082 1.48633 15.9386Z" fill="white"/>
<path d="M0.442871 24.2863C0.442871 27.4167 1.48635 29.5037 1.48635 32.6341H46.3559C47.3994 30.5471 47.3994 27.4167 47.3994 24.2863C47.3994 21.1558 46.3559 19.0689 46.3559 16.9819H1.48635C1.48635 19.0689 0.442871 21.1558 0.442871 24.2863Z" fill="#1A237B"/>
</svg>
