<svg width="49" height="49" viewBox="0 0 49 49" fill="none" xmlns="http://www.w3.org/2000/svg">
<path d="M24.4429 48.2866C37.6977 48.2866 48.4429 37.5415 48.4429 24.2866C48.4429 11.0318 37.6977 0.286621 24.4429 0.286621C11.188 0.286621 0.442871 11.0318 0.442871 24.2866C0.442871 37.5415 11.188 48.2866 24.4429 48.2866Z" fill="#FF1612"/>
<path fill-rule="evenodd" clip-rule="evenodd" d="M30.5758 11.0869L29.3758 12.6869L27.3758 12.0202L28.5758 13.7536L27.3758 15.3536L29.2425 14.6869L30.4425 16.4202V14.4202L32.4425 13.8869L30.4425 13.2202L30.5758 11.0869ZM37.3758 17.6202L35.3758 18.2869L34.1758 16.6869V18.6869L32.1758 19.3536L34.1758 20.0202V22.0202L35.3758 20.2869L37.3758 20.9536L36.1758 19.3536L37.3758 17.6202ZM37.9091 26.6869H35.9091L35.2425 24.6869L34.5758 26.6869H32.4425L34.0425 27.8869L33.3758 29.8869L35.1091 28.6869L36.7091 29.8869L36.0425 27.8869L37.9091 26.6869ZM32.5758 32.9536L30.5758 32.2869V30.2869L29.3758 32.0202L27.3758 31.3536L28.5758 32.9536L27.3758 34.6869L29.3758 34.0202L30.5758 35.6202V33.6202L32.5758 32.9536ZM15.9091 13.7536L14.0425 19.6202H8.04248L12.9758 23.2202L11.1091 28.9536L16.0425 25.3536L20.9758 28.9536L19.1091 23.2202L24.0425 19.6202H17.7758L15.9091 13.7536Z" fill="#FEDF00"/>
</svg>
