<svg width="32" height="32" viewBox="0 0 32 32" fill="none" xmlns="http://www.w3.org/2000/svg">
<path d="M32 16.0004C32 16.4285 31.9833 16.8533 31.95 17.2731C31.8809 18.1527 31.741 19.0114 31.5352 19.8452C31.317 20.7297 31.0255 21.5852 30.6673 22.4047C30.27 23.3135 29.7903 24.1789 29.238 24.9901C28.6067 25.918 27.8804 26.7759 27.0733 27.5497C26.0438 28.5367 24.8827 29.388 23.6183 30.0735C21.3536 31.302 18.7582 32 16.0004 32C13.2426 32 10.6472 31.302 8.38252 30.0735C7.11815 29.388 5.95705 28.5367 4.92756 27.5497C4.12046 26.7759 3.39415 25.918 2.7628 24.9901C2.21057 24.178 1.73081 23.3135 1.33351 22.4047C0.996174 21.6326 0.717978 20.8289 0.503917 19.9993C0.490591 19.9476 0.478097 19.8968 0.465603 19.8452C0.259039 19.0114 0.119108 18.1519 0.0499753 17.2723C0.0166584 16.8525 0 16.4277 0 15.9996C0 15.5665 0.0174913 15.1375 0.0508082 14.7127C0.119108 13.8506 0.25654 13.0069 0.456441 12.189C0.672167 11.3044 0.962024 10.449 1.31851 9.6294C1.71332 8.72069 2.19058 7.85528 2.73948 7.04402C3.36667 6.11697 4.08881 5.25907 4.89175 4.48445C5.90458 3.50743 7.04568 2.66285 8.28757 1.97819C10.5748 0.717145 13.2035 0 16.0004 0C16.6518 0 17.2948 0.0391473 17.9261 0.114943C20.0034 0.363987 21.9591 1.01117 23.7133 1.97819C24.9552 2.66285 26.0963 3.50743 27.1091 4.48445C27.912 5.25907 28.6342 6.11697 29.2614 7.04402C29.8111 7.85611 30.2875 8.72069 30.6823 9.6294C31.0388 10.449 31.3278 11.3044 31.5444 12.189C31.7443 13.0077 31.8817 13.8506 31.95 14.7127C31.9825 15.1375 32 15.5665 32 16.0004Z" fill="#F9F9F9"/>
<path d="M23.6174 30.0737C21.3527 31.3023 18.7573 32.0003 15.9995 32.0003C13.2417 32.0003 10.6463 31.3023 8.38159 30.0737H23.6174Z" fill="#CC0001"/>
<path d="M29.2371 24.9902C28.6057 25.9181 27.8794 26.776 27.0723 27.5498H4.92746C4.12036 26.776 3.39405 25.9181 2.7627 24.9902H29.2371Z" fill="#CC0001"/>
<path d="M31.5353 19.8452C31.3171 20.7298 31.0255 21.5852 30.6674 22.4048H1.33275C0.995414 21.6327 0.717219 20.8289 0.503158 19.9993C0.489831 19.9477 0.477338 19.8969 0.464844 19.8452H31.5353Z" fill="#CC0001"/>
<path d="M32 16.0002C32 16.4284 31.9833 16.8532 31.95 17.2729H0.0499753C0.0166584 16.8532 0 16.4284 0 16.0002C0 15.5671 0.0174913 15.1382 0.0508082 14.7134H31.9484C31.9825 15.1373 32 15.5663 32 16.0002Z" fill="#CC0001"/>
<path d="M31.5437 12.189H0.456543C0.67227 11.3044 0.962126 10.449 1.31862 9.62939H30.6816C31.0381 10.449 31.3271 11.3044 31.5437 12.189Z" fill="#CC0001"/>
<path d="M29.2605 7.04394H2.7395C3.36669 6.1169 4.08883 5.25899 4.89177 4.48438H27.1083C27.9112 5.25899 28.6334 6.1169 29.2605 7.04394Z" fill="#CC0001"/>
<path d="M23.7125 1.97819H8.2876C10.5748 0.717145 13.2035 0 16.0004 0C16.6518 0 17.2948 0.0391473 17.9262 0.114943C20.0035 0.363987 21.9583 1.01117 23.7125 1.97819Z" fill="#CC0001"/>
<path d="M17.9261 0.114943V19.9984H0.503917C0.490591 19.9468 0.478097 19.896 0.465603 19.8443C0.259039 19.0114 0.119108 18.1519 0.0499753 17.2723C0.0166584 16.8525 0 16.4277 0 15.9996C0 15.5665 0.0174913 15.1375 0.0508082 14.7127C0.119108 13.8506 0.25654 13.0069 0.456441 12.189C0.672167 11.3044 0.962024 10.449 1.31851 9.6294C1.71332 8.72068 2.19058 7.85528 2.73948 7.04401C3.36667 6.11697 4.08881 5.25906 4.89175 4.48445C5.90458 3.50743 7.04568 2.66285 8.28757 1.97819C10.5748 0.717145 13.2035 0 16.0004 0C16.6518 0 17.2948 0.0391473 17.9261 0.114943Z" fill="#010066"/>
<path d="M15.4548 12.1892L15.1091 11.7869L17.4804 11.8635L15.3082 10.9131L17.4779 9.95361L15.1083 10.0394L15.4581 9.6296L16.6475 8.23363L14.5502 9.33891L15.1524 7.04422L13.7431 8.95077L13.38 7.04422L13.2992 6.62109L13.2167 7.04422L12.8461 8.95077L11.4359 7.04505L12.0381 9.33975L9.94083 8.23446L11.1302 9.63044L11.4801 10.0402L9.11041 9.95444L11.2802 10.914L9.10791 11.8643L11.4792 11.7877L11.1336 12.19L9.93417 13.5868L12.0373 12.4882L11.4434 14.7138L11.4259 14.7787L11.4751 14.7138L12.8452 12.8772L13.2026 14.7138L13.2983 15.206L13.3916 14.7138L13.7415 12.8772L15.1116 14.7138L15.1608 14.7787L15.1433 14.7138L14.5494 12.4882L16.6525 13.5868L15.4548 12.1892Z" fill="#FFCC00"/>
<path d="M9.45601 15.5354C9.92578 15.5354 10.3789 15.4646 10.8053 15.333C10.0307 15.8003 9.12285 16.0685 8.15166 16.0685C5.30723 16.0685 3.00171 13.7629 3.00171 10.9185C3.00171 8.07408 5.30723 5.76855 8.15166 5.76855C9.25278 5.76855 10.2731 6.11422 11.1102 6.70309C10.5971 6.50402 10.0391 6.39408 9.45601 6.39408C6.93143 6.39408 4.88578 8.44057 4.88578 10.9643C4.88578 13.4889 6.93143 15.5354 9.45601 15.5354Z" fill="#FFCC00"/>
</svg>
