<svg width="49" height="49" viewBox="0 0 49 49" fill="none" xmlns="http://www.w3.org/2000/svg">
<path d="M48.4429 24.2866C48.4429 10.7214 38.0081 0.286621 24.4429 0.286621C10.8777 0.286621 0.442871 10.7214 0.442871 24.2866C0.442871 37.8518 10.8777 48.2866 24.4429 48.2866C38.0081 48.2866 48.4429 37.8518 48.4429 24.2866ZM33.8342 38.8953L24.4429 31.591L15.0516 38.8953L19.2255 27.4171L8.7907 21.1562H20.269L24.4429 9.67793L27.5733 21.1562H39.0516L30.7037 27.4171L33.8342 38.8953Z" fill="#C8172B"/>
<path d="M27.5731 21.1565L24.4427 9.67822L20.2688 21.1565H8.79053L18.1818 27.4174L15.0514 38.8956L24.4427 31.5913L33.834 38.8956L30.7036 27.4174L40.0949 21.1565H27.5731Z" fill="#FCFF2C"/>
</svg>
