<svg id="Layer_1" data-name="Layer 1" xmlns="http://www.w3.org/2000/svg" viewBox="0 0 49 49"><defs><style>.cls-1{fill:#fffff8;}.cls-2{fill:#c5c5c5;}.cls-3{fill:#bc0030;}</style></defs><title>flag-id</title><path class="cls-1" d="M24.4,46.79c-13.23,0-23.25-9.86-23.5-23h47C47.65,36.93,37.63,46.79,24.4,46.79Z"/><path class="cls-2" d="M47.38,24.29a22.91,22.91,0,0,1-6.6,15.38A23,23,0,0,1,24.4,46.29,23,23,0,0,1,8,39.67a22.86,22.86,0,0,1-6.6-15.38h46m1-1H.4a23.61,23.61,0,0,0,24,24,23.62,23.62,0,0,0,24-24Z"/><path class="cls-3" d="M24.4.29a23.61,23.61,0,0,0-24,24h48A23.61,23.61,0,0,0,24.4.29Z"/></svg>