<svg xmlns="http://www.w3.org/2000/svg" viewBox="0 0 40 40"><defs><style>.a{fill:#fff;}.b{fill:none;}</style></defs><title>Sports</title><path class="a" d="M13.65,17.33a12.64,12.64,0,0,0,2.77-2.4A102.79,102.79,0,0,0,4.08,12.4,17.48,17.48,0,0,0,2.3,20a17.17,17.17,0,0,0,1.41,6.83C5.33,22.57,9.28,19.7,13.65,17.33Z"/><path class="a" d="M18.45,10.72A13.65,13.65,0,0,0,17,2.8,17.7,17.7,0,0,0,5.23,10.41a104.62,104.62,0,0,1,12.44,2.65A8.27,8.27,0,0,0,18.45,10.72Z"/><path class="a" d="M20.6,11.1a10.77,10.77,0,0,1-.81,2.58c1.15.35,2.31.72,3.49,1.12C24.71,10.75,25.77,7,26.55,3.9a17.3,17.3,0,0,0-6.64-1.28h-.59A15.26,15.26,0,0,1,20.6,11.1Z"/><path class="a" d="M32.26,17.67c-.13.19-.25.38-.35.56,1.87.88,3.74,1.81,5.55,2.87,0-.34,0-.69,0-1.06A18.45,18.45,0,0,0,36.75,15,7.18,7.18,0,0,0,32.26,17.67Z"/><path class="a" d="M29.92,17.33c.19-.31.37-.62.59-.94A9.38,9.38,0,0,1,36,12.93,17.69,17.69,0,0,0,28.52,4.8c-.78,3.08-1.81,6.73-3.21,10.66C26.83,16.05,28.39,16.67,29.92,17.33Z"/><path class="a" d="M31.1,20.23a14,14,0,0,0,1,8.35c.41,1,.78,2,1.06,2.9a17.27,17.27,0,0,0,4-8.07A53.22,53.22,0,0,0,31.1,20.23Z"/><path class="a" d="M18.7,15.58a14.59,14.59,0,0,1-3.9,3.59h-.06c-5.3,2.9-8.88,5.89-9.51,10.44a17.83,17.83,0,0,0,7.39,6.3,86.56,86.56,0,0,0,9.94-19.14C21.25,16.33,19.94,15.93,18.7,15.58Z"/><path class="a" d="M29.14,19.32c-1.53-.65-3.05-1.27-4.55-1.8a89.88,89.88,0,0,1-9.91,19.2,17.93,17.93,0,0,0,5.23.78,17.61,17.61,0,0,0,11.57-4.31,35.68,35.68,0,0,0-1.34-3.83A15.61,15.61,0,0,1,29.14,19.32Z"/><rect class="b" width="40" height="40"/><rect class="b" width="40" height="40"/></svg>