<svg xmlns="http://www.w3.org/2000/svg" width="20" height="20" viewBox="0 0 20 20"><defs><style>.a{fill:none;}.b{fill:#f05f22;}.c{fill:#fff;}.d{fill:#c2151f;}.e{fill:#0092be;}</style></defs><g transform="translate(-1042.73 -454.289)"><rect class="a" width="20" height="20" transform="translate(1042.73 454.289)"/><path class="b" d="M1052.675,469.932h-9.944l1.753-9.944h9.944Z"/><path class="c" d="M1051.033,468.591h1.312l-3.055-7.686-5.764,7.686h1.312l1.736-2.324h3.542Zm-3.607-3.463,1.466-1.961.774,1.961Z"/><path class="d" d="M1051.033,468.591l1.642,1.341.236-1.341Z"/><path class="e" d="M1060.977,468.591h-9.944l1.753-9.944h9.944Z"/><path class="c" d="M1056.757,464.96h2.09a3.087,3.087,0,0,1-2.378,1.228,2.053,2.053,0,0,1-2.073-2.516,3.131,3.131,0,0,1,2.96-2.516,2.036,2.036,0,0,1,1.949,1.238h1.252a2.936,2.936,0,0,0-3-2.372,4.542,4.542,0,0,0-4.293,3.65,2.978,2.978,0,0,0,3.006,3.65,4.537,4.537,0,0,0,3.832-2.362h0l.2-1.14h-3.348Z"/></g></svg>