<svg xmlns="http://www.w3.org/2000/svg" width="48" height="48" fill="none" viewBox="0 0 48 48">
    <path fill="#BC1F00" d="M24 6C14.047 6 6 14.047 6 24s8.047 18 18 18 18-8.047 18-18S34.059 6 24 6zm9.953 25.2c.847.847.847 2.118 0 2.859-.424.423-.953.635-1.482.635-.53 0-1.06-.212-1.483-.635L24 27.07l-6.988 6.988c-.424.423-.953.635-1.483.635-.529 0-1.058-.212-1.482-.635-.847-.847-.847-2.118 0-2.859l6.988-6.988-6.988-6.988c-.847-.848-.847-2.118 0-2.86.847-.846 2.118-.846 2.859 0l6.988 6.989 6.988-6.988c.847-.847 2.118-.847 2.86 0 .846.847.846 2.117 0 2.859l-6.99 6.988 7.2 6.988z"/>
</svg>
