<svg width="48" height="48" viewBox="0 0 48 48" fill="none" xmlns="http://www.w3.org/2000/svg">
<path d="M39.65 12.8098C40.28 13.8598 40.86 15.3898 40.76 17.3698C40.76 17.3698 40.34 13.6798 36.83 11.1198H36.87C35.06 9.75981 32.79 8.94981 30.32 8.94981H25.12C25.62 7.73981 26.69 5.87981 28.66 5.51981C31.62 4.98981 31.07 3.56981 31.07 3.56981C31.07 3.56981 30.7 0.679807 26.85 3.01981C23.97 4.76981 23.3 7.40981 23.18 8.94981H17.67C14.62 8.94981 11.86 10.1898 9.91997 12.1698C9.90997 12.1698 9.89997 12.1798 9.88997 12.1798C7.50997 14.5898 7.18997 17.3698 7.18997 17.3698C7.09997 15.4098 7.66997 13.8998 8.28997 12.8398C4.75997 14.6298 2.33997 18.1898 2.33997 22.2598V30.7998C2.33997 34.8898 4.77997 38.4598 8.33997 40.2398C7.69997 39.1898 7.09997 37.6398 7.19997 35.6298C7.19997 35.6298 7.61997 39.3198 11.13 41.8798H11.06C12.88 43.2698 15.18 44.0998 17.68 44.0998H30.33C32.83 44.0998 35.13 43.2698 36.95 41.8798H36.84C40.35 39.3098 40.77 35.6298 40.77 35.6298C40.87 37.6598 40.25 39.2098 39.61 40.2698C43.2 38.4898 45.67 34.9098 45.67 30.7998V22.2598C45.66 18.1698 43.22 14.5998 39.65 12.8098ZM9.60997 23.3198L12.17 18.2498C12.17 18.2498 12.61 17.0698 13.58 17.0698C14.45 17.0698 14.99 17.6998 14.99 17.6998L20.32 22.8898C20.32 22.8898 21.23 23.7198 20.78 24.6898C20.47 25.3498 19.5 25.3498 19.5 25.3498H11.08C11.08 25.3498 10.05 25.3398 9.60997 24.7298C9.16997 24.1098 9.60997 23.3198 9.60997 23.3198ZM38.34 30.2198L33.92 35.6598C33.65 35.9998 33.23 36.1898 32.78 36.1898H32.77C32.32 36.1898 31.9 35.9798 31.63 35.6398L28.47 31.6298L25.12 35.6698C24.85 35.9998 24.44 36.1898 24.01 36.1898C24 36.1898 24 36.1898 23.99 36.1898C23.56 36.1898 23.15 36.0098 22.88 35.6898L19.52 31.8198L16.26 35.5298C15.98 35.8498 15.57 36.0298 15.14 36.0198C14.71 36.0198 14.3 35.8298 14.03 35.4998L9.61997 30.2298C9.11997 29.6398 9.21997 28.7698 9.84997 28.2998C10.47 27.8298 11.38 27.9198 11.88 28.5198L15.2 32.4798L18.44 28.7898C18.71 28.4798 19.12 28.2898 19.55 28.2998C19.98 28.2998 20.38 28.4798 20.66 28.7998L23.98 32.6298L27.38 28.5298C27.66 28.1998 28.08 27.9998 28.53 28.0098C28.98 28.0198 29.4 28.2198 29.66 28.5598L32.81 32.5598L36.07 28.5498C36.56 27.9498 37.46 27.8398 38.09 28.3098C38.72 28.7498 38.83 29.6198 38.34 30.2198ZM38.56 24.7198C38.12 25.3298 37.09 25.3398 37.09 25.3398H28.67C28.67 25.3398 27.7 25.3398 27.39 24.6798C26.93 23.7098 27.85 22.8798 27.85 22.8798L33.18 17.6898C33.18 17.6898 33.72 17.0598 34.59 17.0598C35.56 17.0598 36 18.2398 36 18.2398L38.56 23.3098C38.56 23.3198 39 24.1098 38.56 24.7198Z" fill="white"/>
</svg>
