<svg xmlns="http://www.w3.org/2000/svg" width="49" height="34" fill="none" viewBox="0 0 49 34">
    <path fill="#1A2332" fill-rule="evenodd" d="M35.091 0c2.336 0 4.31 1.535 4.922 3.627h8.032v2.746h-8.032C39.4 8.464 37.427 10 35.091 10c-2.335 0-4.309-1.536-4.921-3.627H.045V3.627h30.124C30.782 1.535 32.756 0 35.091 0zm-2.307 5c0 1.242 1.035 2.253 2.307 2.253 1.273 0 2.307-1.01 2.307-2.253s-1.034-2.253-2.307-2.253c-1.272 0-2.307 1.01-2.307 2.253zM4.138 15.627C4.75 13.535 6.724 12 9.059 12c2.336 0 4.31 1.536 4.922 3.627h34.064v2.746H13.98C13.368 20.464 11.395 22 9.06 22c-2.336 0-4.31-1.535-4.922-3.627H.045v-2.747h4.093zM6.752 17c0 1.242 1.035 2.253 2.307 2.253s2.307-1.01 2.307-2.253c0-1.242-1.035-2.254-2.307-2.254S6.752 15.758 6.752 17zM19.912 27.626c.612-2.09 2.586-3.626 4.921-3.626 2.335 0 4.31 1.535 4.922 3.626h18.29v2.747h-18.29C29.142 32.464 27.168 34 24.833 34c-2.335 0-4.309-1.536-4.921-3.627H.044v-2.747H19.91zM22.526 29c0 1.242 1.035 2.253 2.308 2.253 1.272 0 2.307-1.01 2.307-2.253s-1.036-2.254-2.307-2.254c-1.273 0-2.308 1.011-2.308 2.254z" clip-rule="evenodd"/>
</svg>
