<svg xmlns="http://www.w3.org/2000/svg" viewBox="0 0 40 40"><defs><style>.a{fill:none;}.b{fill:#fff;fill-rule:evenodd;}</style></defs><title>LiveHelp</title><rect class="a" y="-0.01" width="40" height="40"/><rect class="a" y="-0.01" width="40" height="40"/><path class="b" d="M22.6,34.82l2.59-3.89a1.39,1.39,0,0,0-.34-1.76l-4.34-4.24a1.5,1.5,0,0,0-1.79-.34c-.92.57-1.73,1.14-2.65,1.7A23.81,23.81,0,0,1,11.8,15.87l2.82-1.62a1.5,1.5,0,0,0,.56-1.74q-.84-2.91-1.66-5.84c-.27-.75-.7-1.17-1.38-1.14L7.49,6c-1.37.1-1.62.59-1.62,1.59.64,11.78,5,22.65,14.56,27.94.89.48,1.43.49,2.17-.66Zm-1.47-13H16.64l.14-1.19,2.69-4.06A4.2,4.2,0,0,0,20,14.78q.08-.6-.33-.6a.39.39,0,0,0-.45.37l-.18,1.54H17.31l.18-1.57c.14-1.15,1-1.73,2.44-1.73.91,0,1.5.22,1.74.64a3.49,3.49,0,0,1,.21,2.08,2.27,2.27,0,0,1-.31.94l-2.71,4.24h2.41l-.14,1.15ZM27,20.69h-1l-.13,1.15H24l.14-1.15H21.47l.15-1.28,2.7-6.54H27l-.76,6.47h1L27,20.69ZM24.3,19.34h-.9l1.31-3.53-.41,3.53ZM20.43,4.19a13.7,13.7,0,0,1,7.26,25.33,2,2,0,0,0-.52-1L25.7,27.12a10.37,10.37,0,0,0,2.23-1.72,10.62,10.62,0,0,0-7.5-18.12,10.74,10.74,0,0,0-4,.78l-.57-2a2.11,2.11,0,0,0-.55-.88A13.72,13.72,0,0,1,20.43,4.19Z"/></svg>