<svg width="24" height="24" fill="none" xmlns="http://www.w3.org/2000/svg">
    <g clip-path="url(#a)">
        <path d="M23.796 8.315 17.106 1.6a.7.7 0 0 0-1 0L14 3.73a.71.71 0 0 0-.145.215 2.914 2.914 0 0 0-.89.185c-.35.132-.685.3-1 .5a7.537 7.537 0 0 0-1.33-.78 1.97 1.97 0 0 0-.69-.17L7.85 1.58a.69.69 0 0 0-.5-.21.7.7 0 0 0-.5.21L.24 8.215a.705.705 0 0 0 0 1l2.125 2.13c.02.024.043.044.07.06.024.173.073.34.145.5.253.56.577 1.087.965 1.565l-.05.055a2.395 2.395 0 0 0 0 3.34 2.313 2.313 0 0 0 1.64.695c.002.62.246 1.216.68 1.66a2.32 2.32 0 0 0 1.635.7 2.38 2.38 0 0 0 .68 1.655 2.324 2.324 0 0 0 3.315 0l.16-.165.585.565a2.12 2.12 0 0 0 1.5.65 2.44 2.44 0 0 0 2.37-2.41 2.32 2.32 0 0 0 1.64-.7 2.41 2.41 0 0 0 .685-1.665 2.33 2.33 0 0 0 1.645-.7 2.54 2.54 0 0 0 .305-2.93l.5-.5a3 3 0 0 0 .865-2.28l2.12-2.13a.705.705 0 0 0 0-1l-.025.005zm-10.35-2.87a1.5 1.5 0 0 1 1.61.35l4.775 4.795c.13.128.235.279.31.445a1.529 1.529 0 0 1-.33 1.7l-.41.41-5.31-5.3a.705.705 0 0 0-.5-.205.71.71 0 0 0-.5.21L11.45 9.5a.905.905 0 0 1-1.27 0 .92.92 0 0 1 0-1.285l1.87-1.87c.394-.399.87-.708 1.395-.905v.005zM1.696 8.73l5.62-5.645 1.13 1.135-5.62 5.645-1.13-1.135zm2.77 5.77.605-.635a.921.921 0 0 1 1.315 0 1 1 0 0 1 0 1.365l-.61.635a.93.93 0 0 1-.655.275.905.905 0 0 1-.655-.28.97.97 0 0 1 0-1.36zm2.32 2.36.605-.635a.935.935 0 0 1 .655-.275.925.925 0 0 1 .66.28 1 1 0 0 1 .04 1.32l-.7.725a.91.91 0 0 1-1.265-.045 1 1 0 0 1 0-1.365l.005-.005zm2.965 4a.91.91 0 0 1-.655-.28 1 1 0 0 1-.04-1.32l.695-.72a.905.905 0 0 1 1.27.04 1 1 0 0 1 0 1.37l-.61.63a.92.92 0 0 1-.655.275l-.005.005zM19 16.15a.91.91 0 0 1-.665.285.93.93 0 0 1-.655-.275.708.708 0 0 0-1 1 1 1 0 0 1 0 1.375.91.91 0 0 1-1.31 0 .707.707 0 0 0-1 1 1 1 0 0 1-.69 1.695.71.71 0 0 1-.5-.23l-.68-.665a2.395 2.395 0 0 0-.44-2.705 2.335 2.335 0 0 0-1.635-.7 2.38 2.38 0 0 0-.68-1.655 2.315 2.315 0 0 0-1.64-.695 2.385 2.385 0 0 0-.68-1.66 2.32 2.32 0 0 0-2.845-.375 6 6 0 0 1-.72-1.19.57.57 0 0 1 0-.47l5.575-5.6a.55.55 0 0 1 .61-.105c.279.128.548.276.805.445l-1.635 1.64a2.32 2.32 0 0 0 .747 3.768 2.295 2.295 0 0 0 2.513-.503l1.15-1.155 5.305 5.29a1.185 1.185 0 0 1 .11 1.5L19 16.15zm2.165-6.205L15.5 4.225l1.125-1.135 5.7 5.72-1.16 1.135z" fill="#fff"/>
    </g>
    <defs>
        <clipPath id="a">
            <path fill="#fff" d="M0 0h24v24H0z"/>
        </clipPath>
    </defs>
</svg>
