<svg width="40" height="40" viewBox="0 0 40 40" fill="none" xmlns="http://www.w3.org/2000/svg">
<path d="M20.3125 1.5C9.8625 1.5 1.3125 10.05 1.3125 20.5C1.3125 30.95 9.8625 39.5 20.3125 39.5C30.7625 39.5 39.3125 30.95 39.3125 20.5C39.3125 10.05 30.7625 1.5 20.3125 1.5ZM31.3562 5.89375L33.2563 7.4375L34.8 9.3375L32.1875 11.95L28.7437 8.50625L31.3562 5.89375ZM30.05 23.1125L31.475 23.4688C31.2375 24.0625 31 24.775 30.7625 25.3687L29.4563 24.775C29.6938 24.3 29.9313 23.7063 30.05 23.1125ZM29.4563 16.225L30.7625 15.6312C31 16.225 31.2375 16.9375 31.475 17.5312L30.05 17.8875C29.9313 17.2937 29.8125 16.7 29.4563 16.225ZM30.4062 21.45C30.4062 21.0938 30.4062 20.7375 30.4062 20.5C30.4062 20.2625 30.4062 20.025 30.4062 19.7875L31.8313 19.6687C31.8313 19.9062 31.8313 20.2625 31.8313 20.5C31.8313 20.8563 31.8313 21.2125 31.8313 21.6875L30.4062 21.45ZM28.5063 12.3063C28.9812 12.7812 29.4562 13.2562 29.8125 13.85L28.625 14.6813C28.2687 14.2063 27.9125 13.7312 27.5562 13.2562L28.5063 12.3063ZM29.2188 20.6187C29.2188 25.6063 25.1812 29.6438 20.1938 29.6438C15.2063 29.6438 11.1687 25.6063 11.1687 20.6187C11.1687 15.6313 15.2063 11.5938 20.1938 11.5938C25.1812 11.5938 29.2188 15.6313 29.2188 20.6187ZM25.3 9.93125C25.8938 10.1688 26.4875 10.525 27.0813 11L26.25 12.1875C25.775 11.8313 25.3 11.5938 24.7063 11.2375L25.3 9.93125ZM23.0437 10.6438C22.45 10.525 21.8562 10.4062 21.2625 10.2875L21.3813 8.8625C22.0938 8.98125 22.6875 9.1 23.4 9.21875L23.0437 10.6438ZM17.8188 2.33125L20.3125 1.975L22.6875 2.33125V6.0125H17.8188V2.33125ZM19.3625 8.8625L19.4812 10.2875C18.8875 10.2875 18.2937 10.4062 17.7 10.525L17.3438 9.1C18.0562 8.98125 18.7688 8.8625 19.3625 8.8625ZM15.4437 9.8125L16.0375 11.1188C15.4437 11.3563 14.9688 11.5938 14.4938 11.95L13.6625 10.7625C14.2562 10.4062 14.85 10.1687 15.4437 9.8125ZM13.1875 13.1375C12.7125 13.4938 12.3562 13.9688 12 14.4437L10.8125 13.6125C11.1687 13.0188 11.6438 12.5437 12.1188 12.0687L13.1875 13.1375ZM10.1 21.0938L8.675 21.2125C8.675 20.975 8.675 20.6187 8.675 20.3813C8.675 20.025 8.675 19.6687 8.675 19.1938L10.1 19.3125C10.1 19.6688 10.1 20.025 10.1 20.2625C10.1 20.6187 10.1 20.8563 10.1 21.0938ZM10.4563 22.875C10.575 23.4688 10.8125 24.0625 11.05 24.5375L9.74375 25.1313C9.50625 24.5375 9.26875 23.825 9.03125 23.2312L10.4563 22.875ZM10.4563 17.65L9.03125 17.2937C9.26875 16.7 9.50625 15.9875 9.74375 15.3938L11.05 15.9875C10.8125 16.5813 10.6937 17.0563 10.4563 17.65ZM7.25 7.4375L9.15 5.89375L11.7625 8.50625L8.31875 11.95L5.70625 9.3375L7.25 7.4375ZM1.7875 20.5L2.14375 18.125H5.825V22.9937H2.14375L1.7875 20.5ZM9.15 35.1063L7.25 33.5625L5.70625 31.6625L8.31875 29.05L11.7625 32.4937L9.15 35.1063ZM12 28.4563C11.525 27.9813 11.05 27.5063 10.6937 26.9125L11.8812 26.0813C12.2375 26.5563 12.5938 27.0312 12.95 27.5063L12 28.4563ZM15.2063 30.8313C14.6125 30.5938 14.0188 30.2375 13.425 29.7625L14.2562 28.575C14.7312 28.9312 15.2063 29.1688 15.8 29.525L15.2063 30.8313ZM17.4625 30.1187C18.0562 30.2375 18.65 30.3562 19.2437 30.475L19.125 31.9C18.4125 31.7812 17.8187 31.6625 17.1062 31.5437L17.4625 30.1187ZM22.8062 38.6688L20.3125 38.9062L17.8188 38.6688V34.9875H22.6875V38.6688H22.8062ZM21.1438 31.9L21.025 30.475C21.6187 30.475 22.2125 30.3563 22.8062 30.2375L23.1625 31.6625C22.45 31.7812 21.7375 31.9 21.1438 31.9ZM25.0625 30.95L24.4688 29.6438C25.0625 29.4062 25.5375 29.1688 26.0125 28.8125L26.8438 30C26.25 30.3563 25.6562 30.7125 25.0625 30.95ZM27.3188 27.625C27.7937 27.2687 28.15 26.7937 28.5063 26.3188L29.6938 27.15C29.3375 27.7437 28.8625 28.2188 28.3875 28.6938L27.3188 27.625ZM33.375 33.5625L31.475 35.1063L28.8625 32.4937L32.3062 29.05L34.9188 31.6625L33.375 33.5625ZM34.8 22.875V18.0063H38.4813L38.7188 20.5L38.3625 22.875H34.8Z" fill="white"/>
<path d="M23.518 23.7062C25.5367 23.2312 25.418 20.975 24.468 19.7875C23.518 18.6 20.9055 17.2937 20.4305 14.6812C19.8367 17.4125 17.343 18.7187 16.393 19.7875C15.443 20.975 15.3242 23.2312 17.343 23.7062C19.3617 24.1812 20.0742 22.2812 20.0742 22.2812C20.0742 26.4375 16.7492 25.9625 16.7492 25.9625V26.3187H20.3117H24.1117V25.9625C24.1117 25.9625 20.7867 26.4375 20.7867 22.2812C20.7867 22.2812 21.4992 24.1812 23.518 23.7062Z" fill="white"/>
</svg>
