<svg xmlns="http://www.w3.org/2000/svg" viewBox="0 0 40 40"><defs><style>.a{fill:none;}.b{fill:#fff;}</style></defs><title>LiveCasino</title><rect class="a" width="40" height="40"/><rect class="a" width="40" height="40"/><path class="b" d="M6.19,3.78a.51.51,0,0,0-.5.5V35.84a.5.5,0,0,0,.5.5h6.67l0-.13,0-.09a2.46,2.46,0,0,1,0-.28V4.28a2.64,2.64,0,0,1,0-.28l0-.09,0-.13Zm3.56,8.39c-.37.32-.61.66-.64.66s-.27-.34-.65-.66-.93-.49-.93-1.09a.92.92,0,0,1,.92-.92.93.93,0,0,1,.66.28.91.91,0,0,1,1.57.64C10.68,11.68,10.12,11.85,9.75,12.17ZM10.91,9H10L8.87,7.35l-.41.38v.9l.39.09L8.79,9H7.31l-.06-.32.39-.09V5.77l-.39-.1.06-.32H8.79l.06.32-.39.1V7l0,0L9.87,5.73l-.3-.05.06-.33h1.22l.06.32-.39.1-1.08,1,1.2,1.84.32.08Z"/><path class="b" d="M12.8,4a2.64,2.64,0,0,0,0,.28A2.64,2.64,0,0,1,12.8,4Z"/><polygon class="b" points="16.89 6.3 16.85 6.3 16.41 7.57 17.32 7.57 16.89 6.3"/><polygon class="b" points="30.91 33.44 30.96 33.44 31.39 32.17 30.47 32.17 30.91 33.44"/><path class="b" d="M34.29,35.84V4.28a.5.5,0,0,0-.5-.5H14.28a.51.51,0,0,0-.5.5V35.84a.5.5,0,0,0,.5.5H33.79A.5.5,0,0,0,34.29,35.84ZM31,27.25h.77a1.67,1.67,0,0,0-.43.29A1.42,1.42,0,0,0,31,28a1.49,1.49,0,0,0-.33-.43,1.88,1.88,0,0,0-.43-.29Zm-.55.53A.76.76,0,0,1,31,28a.76.76,0,0,1,1.3.52.76.76,0,0,1-.65.75.76.76,0,0,1,.05.27.71.71,0,0,1-1.42,0,.67.67,0,0,1,.06-.28.75.75,0,0,1,.1-1.5ZM15.29,8.65l.26-.08,1.12-3.12h.68l1.1,3.12.25.08-.05.3H17.37l-.05-.3.34-.08L17.45,8H16.28l-.22.62.34.08,0,.3h-1Zm1.71,4h-.77a1.88,1.88,0,0,0,.43-.29A1.66,1.66,0,0,0,17,12a1.49,1.49,0,0,0,.33.43,1.88,1.88,0,0,0,.43.29Zm.55-.54a.77.77,0,0,1-.55-.23.76.76,0,1,1-.66-1.26.88.88,0,0,1-.06-.28.72.72,0,0,1,1.43,0,.63.63,0,0,1-.06.27.75.75,0,0,1-.1,1.5ZM24,26.58H20.73a7.25,7.25,0,0,0,1.86-1.23A6.62,6.62,0,0,0,24,23.49a6.69,6.69,0,0,0,1.44,1.86,7.44,7.44,0,0,0,1.86,1.23Zm2.37-2.31a3.24,3.24,0,0,1-2.36-1,3.24,3.24,0,0,1-5.63-2.19,3.24,3.24,0,0,1,2.8-3.22A3.13,3.13,0,0,1,21,16.62a3.07,3.07,0,1,1,6.13,0,3,3,0,0,1-.24,1.19,3.25,3.25,0,0,1-.45,6.46Zm6.1,6.89-1.09,3.13h-.68l-1.13-3.13-.26-.07.06-.3h1l.06.3-.35.07.22.63h1.18l.21-.63-.34-.07.05-.3h1.28l.05.3Z"/><path class="b" d="M12.83,3.91l0,.09Z"/></svg>