<svg xmlns="http://www.w3.org/2000/svg" width="49" height="48" fill="none" viewBox="0 0 49 48">
  <g fill="none" transform="scale(0.25)">
    <path fill="#1A2332" d="M24.866 46.344c-5.182 0-10.091-1.91-14.182-5.182-1.09-1.091-1.364-2.727-.273-4.091 1.091-1.364 2.728-1.364 4.091-.273 3 2.455 6.546 3.818 10.364 3.818 9 0 16.364-7.363 16.364-16.363 0-1.637 1.363-2.728 2.727-2.728 1.363 0 2.727 1.364 2.727 2.728.273 12.272-9.545 22.09-21.818 22.09z"/>
    <path fill="#1A2332" d="M9.047 47.161l-6-16.09 16.91 3-10.91 13.09zM5.502 26.978c-1.636 0-2.727-1.363-2.727-2.727 0-12.273 9.818-22.09 22.09-22.09 6 0 11.455 2.181 15.546 6.545 1.091 1.09 1.091 3 0 4.09-1.09 1.091-3 1.091-4.09 0-3-3.272-7.092-4.909-11.455-4.909-9 0-16.364 7.364-16.364 16.364 0 1.636-1.363 2.727-3 2.727z"/>
    <path fill="#1A2332" d="M42.593 2.706l4.637 16.636-16.637-4.363 12-12.273z"/>
  </g>
</svg>
