<svg xmlns="http://www.w3.org/2000/svg" width="49" height="49" fill="none" viewBox="0 0 49 49">
    <path fill="#fff" d="M13.753 43.813c6.99 0 12.656-5.607 12.656-12.523 0-6.917-5.666-12.523-12.656-12.523S1.098 24.373 1.098 31.29c0 6.916 5.666 12.523 12.655 12.523z"/>
    <path fill="#314060" d="M13.54 37.91c4.13 0 7.478-3.314 7.478-7.4 0-4.088-3.348-7.4-7.478-7.4s-7.478 3.313-7.478 7.4c0 4.086 3.348 7.4 7.478 7.4z"/>
    <path fill="#fff" fill-rule="evenodd" d="M16.71 29.49c-.22 1.035-.822 1.534-1.575 1.627.796.504 1.218 1.356.952 2.61l-.03.145c-.384 1.814-1.753 2.224-3.323 1.859-1.571-.365-2.659-1.346-2.275-3.16l.03-.145c.266-1.254.991-1.839 1.916-1.943-.631-.415-.976-1.134-.758-2.169.33-1.558 1.526-1.893 2.984-1.554 1.46.34 2.408 1.173 2.078 2.73zm-3.81-.731c-.185.876.202 1.336.987 1.519.786.182 1.322-.063 1.507-.94.183-.864-.204-1.324-.99-1.507-.784-.182-1.32.064-1.503.928zm.76 2.59c.923.214 1.371.817 1.15 1.863l-.046.22c-.224 1.058-.869 1.445-1.804 1.228-.91-.212-1.38-.832-1.151-1.915l.046-.22c.222-1.046.883-1.39 1.806-1.176z" clip-rule="evenodd"/>
    <g filter="url(#prefix__filter0_d)">
        <path fill="#fff" d="M31.654 37.198c9.176 0 16.615-7.44 16.615-16.616 0-9.176-7.44-16.615-16.615-16.615-9.177 0-16.616 7.439-16.616 16.615 0 9.177 7.439 16.616 16.616 16.616z"/>
    </g>
    <path fill="#314060" d="M31.653 32.275c6.458 0 11.693-5.235 11.693-11.693 0-6.457-5.235-11.692-11.693-11.692-6.457 0-11.692 5.235-11.692 11.692 0 6.458 5.235 11.693 11.692 11.693z"/>
    <path fill="#fff" fill-rule="evenodd" d="M33.405 15.044c.468 1.63.08 2.82-.784 3.56 1.343.063 2.471.917 3.037 2.893l.066.23c.82 2.858-.578 4.543-2.78 5.304-2.2.761-4.243.266-5.062-2.592l-.066-.23c-.566-1.976-.087-3.386.98-4.282-1.076-.07-2.014-.8-2.482-2.43-.704-2.456.534-3.896 2.578-4.603 2.043-.706 3.81-.305 4.513 2.15zM27.52 16.98c.519 1.639 1.573 2.034 3.012 1.582 1.44-.452 2.076-1.377 1.558-3.016-.51-1.616-1.564-2.01-3.004-1.56-1.44.452-2.076 1.378-1.566 2.994zm2.73 3.162c1.39-.497 2.446.04 2.955 1.876l.107.384c.514 1.858-.045 3.044-1.454 3.548-1.371.49-2.472-.054-2.998-1.954l-.106-.385c-.509-1.836.105-2.97 1.495-3.469z" clip-rule="evenodd"/>
    <defs>
        <filter id="prefix__filter0_d" width="34.231" height="34.231" x="14.038" y="3.967" color-interpolation-filters="sRGB" filterUnits="userSpaceOnUse">
            <feFlood flood-opacity="0" result="BackgroundImageFix"/>
            <feColorMatrix in="SourceAlpha" values="0 0 0 0 0 0 0 0 0 0 0 0 0 0 0 0 0 0 127 0"/>
            <feOffset dx="-1" dy="1"/>
            <feColorMatrix values="0 0 0 0 0.192157 0 0 0 0 0.25098 0 0 0 0 0.376471 0 0 0 1 0"/>
            <feBlend in2="BackgroundImageFix" result="effect1_dropShadow"/>
            <feBlend in="SourceGraphic" in2="effect1_dropShadow" result="shape"/>
        </filter>
    </defs>
</svg>
