<svg xmlns="http://www.w3.org/2000/svg" width="49" height="48" fill="none" viewBox="0 0 49 48">
    <path fill="#fff" d="M43.102 16h-11V5c0-1.1-.9-2-2-2h-12c-1.1 0-2 .9-2 2v11h-11c-1.1 0-2 .9-2 2v12c0 1.1.9 2 2 2h11v11c0 1.1.9 2 2 2h12c1.1 0 2-.9 2-2V32h11c1.1 0 2-.9 2-2V18c0-1.1-.9-2-2-2zm0 14h-13v13h-12V30h-13V18h13V5h12v13h13v12z"/>
    <path fill="#fff" d="M36.102 19.8v8.4l4.2-4.2-4.2-4.2zM12.102 28.2v-8.4l-4.2 4.2 4.2 4.2zM24.102 40.2l4.2-4.2h-8.4l4.2 4.2zM19.902 12h8.4l-4.2-4.2-4.2 4.2zM24.102 27c1.657 0 3-1.343 3-3s-1.343-3-3-3c-1.656 0-3 1.343-3 3s1.344 3 3 3z"/>
</svg>
