<?xml version="1.0" encoding="utf-8"?>
<!-- Generator: Adobe Illustrator 19.2.0, SVG Export Plug-In . SVG Version: 6.00 Build 0)  -->
<svg version="1.1" id="Layer_1" xmlns="http://www.w3.org/2000/svg" xmlns:xlink="http://www.w3.org/1999/xlink" x="0px" y="0px"
	 viewBox="0 0 104 104" style="enable-background:new 0 0 104 104;" xml:space="preserve">
<style type="text/css">
	.st0{clip-path:url(#SVGID_2_);fill:#DE2910;}
	.st1{clip-path:url(#SVGID_4_);}
	.st2{fill:#DE2910;}
	.st3{fill:#FFDE00;}
	.st4{display:none;}
</style>
<g id="Layer_1_1_">
	<g>
		<g>
			<defs>
				<circle id="SVGID_1_" cx="52" cy="52" r="48"/>
			</defs>
			<clipPath id="SVGID_2_">
				<use xlink:href="#SVGID_1_"  style="overflow:visible;"/>
			</clipPath>
			<rect class="st0" width="104" height="104"/>
		</g>
		<g>
			<defs>
				<circle id="SVGID_3_" cx="52" cy="52" r="48"/>
			</defs>
			<clipPath id="SVGID_4_">
				<use xlink:href="#SVGID_3_"  style="overflow:visible;"/>
			</clipPath>
			<g class="st1">
				<g>
					<rect x="-10.3" y="7.4" class="st2" width="231.5" height="159.2"/>
					<polygon class="st3" points="32.7,21.5 37.5,36.4 53.2,36.4 40.5,48.5 45.4,64.9 32.7,56.5 20,66.1 24.8,48.4 12.2,36.4 
						27.8,36.4 					"/>
					<polygon class="st3" points="73.6,19.6 73.2,24.7 78,26.6 73,27.9 72.7,33.1 69.9,28.7 64.9,30 68.2,26 65.5,21.7 70.3,23.6 
											"/>
					<polygon class="st3" points="91.2,36.3 88.8,40.9 92.4,44.5 87.4,43.7 85,48.3 84.2,43.2 79.1,42.4 83.7,40.1 82.9,35 
						86.6,38.6 					"/>
					<polygon class="st3" points="85.9,57.2 87.5,62.1 92.6,62.1 88.4,65.2 90,70.1 85.9,67 81.7,70.1 83.3,65.2 79.1,62.1 
						84.3,62.1 					"/>
					<polygon class="st3" points="73.5,73 73.2,78.1 78,80 73,81.3 72.7,86.4 69.9,82.1 64.9,83.4 68.2,79.4 65.4,75 70.2,76.9 
											"/>
				</g>
			</g>
		</g>
	</g>
</g>
<g id="Layer_2" class="st4">
</g>
</svg>