<svg width="24" height="22" viewBox="0 0 24 22" fill="none" xmlns="http://www.w3.org/2000/svg">
<path fill-rule="evenodd" clip-rule="evenodd" d="M24 0H0V21.3333H24V0ZM22.8145 1.18533H1.1849V20.1483H22.8145V1.18533Z" fill="white"/>
<path fill-rule="evenodd" clip-rule="evenodd" d="M9.50984 10.5939V17.0917C9.50984 17.2333 9.47311 17.3223 9.34661 17.3223C9.2201 17.3223 9.16705 17.2333 9.16705 17.0917V16.2339H8.84467C8.61291 16.2339 7.86634 16.807 7.39173 17.1713C7.23957 17.2881 7.11537 17.3834 7.04503 17.4315C6.52269 17.1281 5.87384 16.8246 5.38822 16.6628C5.30131 16.7438 5.22162 16.8171 5.14943 16.8836L5.14925 16.8837L5.14924 16.8837L5.14916 16.8838C4.99777 17.0232 4.87937 17.1322 4.79651 17.2171C4.76558 17.2478 4.73905 17.2753 4.71583 17.2994L4.71579 17.2994C4.64405 17.3738 4.60398 17.4154 4.5639 17.4154C4.47412 17.4154 4.36394 17.3102 4.36394 17.2171C4.36394 17.1281 4.5639 16.9137 5.48208 15.979C6.11053 15.3357 6.36354 14.567 6.36354 13.3856C6.36354 11.4354 5.51881 9.76849 4.54758 9.76849C4.22519 9.76849 4.06196 9.89392 4.00891 10.2176C3.99259 10.3794 3.91913 10.432 3.84568 10.432C3.70285 10.432 3.62939 10.1974 3.62939 9.80491C3.62939 8.91075 4.25784 8.19462 5.03319 8.19462C5.39332 8.19462 5.63742 8.35235 5.84839 8.48867C6.02709 8.60414 6.18201 8.70425 6.36354 8.68013V7.37329C6.36354 7.03343 6.23703 6.74616 5.98402 6.53173C5.76774 6.35371 4.65368 5.60116 4.23743 5.60116C4.15777 5.60116 4.09969 5.61752 4.04831 5.63199C4.00759 5.64347 3.97108 5.65375 3.93137 5.65375C3.87832 5.65375 3.85792 5.63757 3.85792 5.60116C3.85792 5.55451 3.88681 5.52059 3.96737 5.42601L4.00075 5.38672L5.42087 3.99087C5.4339 3.98154 5.44565 3.97271 5.45657 3.96451C5.50719 3.9265 5.54 3.90186 5.60042 3.90186C5.88742 3.90186 6.68323 4.44025 7.33423 4.88067C7.78478 5.18548 8.16597 5.44336 8.26111 5.44336C8.43337 5.44336 8.94409 5.12653 9.49687 4.78359C10.1489 4.37909 10.8595 3.93827 11.1422 3.93827C11.2763 3.93827 11.4141 4.04891 12.3364 4.78979L12.5256 4.94167C12.5701 4.9768 12.6257 5.02315 12.6891 5.07601L12.6892 5.07602C12.8813 5.23619 13.1452 5.45615 13.3907 5.6052C13.6804 5.78323 13.6967 5.81964 13.6967 6.1595C13.8763 6.12309 14.0763 5.98148 15.2066 5.06709C15.529 4.80006 16.4839 4.02728 16.5574 4.02728C16.6472 4.02728 17.4388 4.35096 18.61 4.83243C18.9528 4.97403 19.0059 5.01045 19.0059 5.22488V14.482C19.0059 14.7855 19.0426 14.8947 19.1691 14.9999C19.7078 15.4652 20.0342 15.6432 20.2138 15.6432C20.2668 15.6432 20.3403 15.623 20.3934 15.5704C20.4831 15.445 20.5035 15.4288 20.5566 15.4288C20.6096 15.4288 20.6668 15.5016 20.6668 15.5704C20.6668 15.6796 19.8588 16.679 19.0304 17.3263C18.5284 17.1483 17.6633 16.5576 17.1777 16.0559C17.0144 15.8779 16.9818 15.8415 16.9818 15.538V8.91075C16.9818 8.14202 17.2307 7.62009 18.1326 6.42249C18.6019 5.81559 18.6345 5.63352 18.5447 5.63352C18.501 5.63352 18.0938 5.91344 17.726 6.16631L17.726 6.16633L17.726 6.16634L17.726 6.16635L17.7259 6.16637C17.4763 6.33802 17.2447 6.4972 17.1573 6.54791L17.0433 6.48282C16.1623 5.97958 15.8753 5.81559 15.374 5.81559C15.0883 5.81559 14.8883 5.9572 14.8883 6.13927V17.1483C14.8883 17.2899 14.8149 17.3992 14.7088 17.3992C14.619 17.3992 14.566 17.3102 14.566 17.1685V16.3432C14.0591 16.4252 13.6151 16.8356 13.3181 17.1101C13.1608 17.2555 13.0448 17.3628 12.9826 17.3628C12.7867 17.3628 11.6155 15.9669 11.6155 15.8577V10.5939H9.50984ZM9.18411 6.03008C9.18411 5.66999 9.14738 5.54861 9.07801 5.54861C8.91885 5.54861 8.33938 5.9087 8.33938 6.03008V10.9864C8.33938 13.3912 8.06459 13.6786 7.44184 14.3301L7.40488 14.3688C7.11514 14.6722 7.04576 14.7451 6.82948 14.9959C7.209 15.5138 8.46589 15.7485 9.18819 15.7121V6.03008H9.18411ZM11.6166 8.89445H9.5109V5.8883C9.5109 5.65364 9.61701 5.52821 9.81697 5.52821C10.2659 5.52821 11.6166 6.54779 11.6166 6.92407V8.89445ZM14.5668 6.34969C14.5668 6.31328 14.5505 6.29709 14.4933 6.29709C14.4403 6.29709 14.3505 6.33351 14.2934 6.36992L13.8812 6.62077C13.6486 6.76238 13.5751 6.8352 13.5751 6.94444V8.73276C13.5751 8.85818 13.7384 8.94719 13.8649 8.94719H14.5668V6.34969ZM13.8805 10.5575H14.562V15.7485C13.8968 15.6959 13.5908 15.356 13.5908 14.6399V10.9702C13.5908 10.7032 13.6846 10.5575 13.8805 10.5575Z" fill="white"/>
</svg>
