<svg xmlns="http://www.w3.org/2000/svg" width="16" height="16" fill="#fff" viewBox="0 0 16 16">
    <path fill="#fff" d="M8 1.678c3.469 0 6.322 2.853 6.322 6.322S11.469 14.322 8 14.322C4.532 14.322 1.68 11.469 1.68 8S4.532 1.678 8 1.678zM8 0C3.58 0 0 3.58 0 8s3.58 8 8 8 8-3.58 8-8-3.58-8-8-8z"/>
    <path fill="#fff" d="M8 6.49c-.728 0-1.343.615-1.343 1.342v3.58c0 .728.615 1.343 1.343 1.343.727 0 1.342-.615 1.342-1.342v-3.58c0-.728-.615-1.344-1.342-1.344zM8 3.245c-.783 0-1.399.615-1.399 1.398 0 .784.616 1.399 1.399 1.399s1.399-.615 1.399-1.399c0-.783-.616-1.398-1.399-1.398z"/>
</svg>
