<svg xmlns="http://www.w3.org/2000/svg" width="49" height="49" fill="none" viewBox="0 0 49 49">
    <path fill="#fff" fill-rule="evenodd" d="M15.316 2.09c-2.977 1.207-5.649 2.982-7.94 5.273-2.291 2.29-4.064 4.963-5.272 7.94C.938 18.177.347 21.216.347 24.334c0 3.116.591 6.155 1.757 9.03 1.208 2.977 2.982 5.65 5.272 7.94 2.291 2.291 4.962 4.065 7.94 5.272 2.876 1.167 5.914 1.757 9.032 1.757 3.117 0 6.155-.592 9.03-1.757 2.977-1.207 5.65-2.98 7.94-5.272 2.292-2.29 4.065-4.961 5.273-7.94 1.165-2.875 1.756-5.914 1.756-9.03 0-3.118-.591-6.157-1.757-9.033-1.207-2.976-2.982-5.65-5.272-7.94s-4.96-4.065-7.94-5.272C30.503.925 27.465.334 24.348.334c-3.118 0-6.156.591-9.032 1.756zM6.345 34.438c-1.156-.725-2.222-1.561-3.165-2.545-1.44-4.054-1.684-8.443-.73-12.609.449-.885.96-1.735 1.537-2.55.179-.251.344-.513.535-.757l5.416 3.204v.136c-.014 2.913.282 5.805.871 8.655l.007.033-4.2 6.586c-.092-.047-.183-.097-.271-.153zM25.333 46.78c-.988-.328-1.95-.73-2.884-1.208-.074-.037-.145-.08-.215-.124l-9.079-1.618c3.746 2.149 7.982 3.132 12.178 2.95zm-2.918-2.847l-10.714-1.91c-1.254-1.522-2.38-3.132-3.35-4.853l-.112-.195-.112-.192c-.18-.306-.36-.611-.507-.933l4.196-6.58c.093.024.197.048.314.08 2.625.702 5.297 1.201 7.987 1.593l.081.01c.122.018.227.033.32.043l5.03 8.697c-.873 1.227-1.756 2.447-2.658 3.654-.15.201-.309.395-.475.586zm15.12-1.396c.948-.686 1.853-1.455 2.706-2.309 3.949-3.948 6.118-9.012 6.506-14.186-.111.15-.255.287-.428.41-1.324.946-2.75 1.71-4.228 2.383l-5.367 10.012c.382 1.203.654 2.434.81 3.69zm2.469-15.294c.2.38.396.765.594 1.155l-5.184 9.67c-.03.007-.058.013-.088.017-2.802.524-5.627.802-8.476.816l-5.173-8.946c.805-1.495 1.603-2.996 2.394-4.497.537-1.02 1.065-2.044 1.593-3.07L36.37 21.29c1.312 1.923 2.554 3.888 3.634 5.953zm-3.615-7.841c.49-1.207.98-2.412 1.442-3.63.256-.68.475-1.374.694-2.07l.082-.258-7.184-8.098c-.986-.07-1.96-.039-2.929.016-1.284.074-2.567.208-3.848.341h-.007c-.295.032-.591.062-.887.093-.203.021-.405.066-.605.119l-2.904 8.742 1.03 1.029.47.469-.018.02-.016.017.341.384.642.72.02.021c.903 1.014 1.807 2.028 2.706 3.046.136.155.265.317.39.481l10.43-1.071.151-.372zM40.241 8.44c1.982 1.983 3.517 4.246 4.602 6.664-1.342-.924-2.778-1.684-4.287-2.304-.234-.097-.475-.182-.72-.267l-7.071-7.97c.049-.344.075-.69.085-1.037 2.69 1.095 5.212 2.735 7.392 4.914zM17.178 3.13c-.007-.007-.016-.014-.027-.022l.03-.05.02-.032c-3.199 1.068-6.203 2.872-8.746 5.414-.272.272-.535.55-.79.832-.39.682-.746 1.38-1.06 2.104-.36.832-.679 1.683-.997 2.533l-.122.326c-.057.151-.085.32-.093.488l5.353 3.167c2.068-1.359 4.263-2.492 6.515-3.516.352-.16.711-.302 1.071-.444.2-.08.399-.158.596-.24.013-.006.027-.01.04-.014l2.713-8.17c-1.386-.975-2.856-1.797-4.473-2.356-.01-.002-.018-.01-.03-.02z" clip-rule="evenodd"/>
</svg>
