<svg width="16" height="16" viewBox="0 0 16 16" fill="none" xmlns="http://www.w3.org/2000/svg">
<path d="M12.1553 5.53825C12.1553 5.53825 12.0319 5.18886 12.1758 4.93195C12.2477 4.79836 12.5252 4.58256 12.7821 4.31538C13.0082 4.07903 13.2034 3.7913 13.2034 3.7913C13.9125 3.03086 13.8303 2.39374 13.8303 2.13683C13.8303 1.87993 12.8027 1.69496 12.1347 1.69496C11.4565 1.69496 11.2407 1.66413 11.2407 1.66413C10.8399 -0.144477 9.92533 0.0302177 9.92533 0.0302177C9.45262 -0.0519916 9.18544 0.0302177 8.83605 0.359055C8.49694 0.687893 8.02423 1.64358 8.02423 1.64358C7.72623 2.26015 7.76733 2.7123 7.76733 2.7123L7.17131 3.15417L7.48987 3.19528V3.31859C7.48987 3.31859 7.0891 3.59605 6.96579 3.91461C6.92468 4.0071 6.90413 4.15096 6.89386 4.31538C4.19122 4.9114 2.16682 7.26464 2.16682 10.0803C2.16682 13.3481 4.89 15.9994 8.25031 15.9994C9.63759 15.9994 10.9118 15.5472 11.9292 14.7971C11.7339 14.5299 11.4668 14.1805 11.251 13.8928C10.7577 14.2627 10.1925 14.5402 9.57594 14.7046C9.57594 14.684 9.53483 12.0122 9.36014 11.4573C9.19572 10.9024 9.22655 11.221 9.62732 10.368C10.0281 9.51513 10.3569 9.16574 10.7166 8.72386C11.0763 8.28198 11.1996 7.68597 11.1996 7.68597C11.6003 7.49072 11.8572 7.23381 12.0114 6.97691C12.1347 7.12078 12.2477 7.26464 12.3608 7.42906L13.2343 6.68918C12.926 6.26785 12.5663 5.87736 12.1553 5.53825ZM11.0249 2.9281C11.2098 2.77396 11.2304 2.38346 11.2304 2.38346C11.2304 2.38346 12.1142 2.48622 12.4841 2.65064C12.854 2.80478 12.7102 2.88699 12.7102 2.88699C12.7102 2.88699 12.3094 3.22611 12.2477 3.34942C12.1861 3.47274 12.0114 3.50356 11.8161 3.46246C11.6106 3.42135 11.5592 3.67826 11.5592 3.67826C11.5592 3.67826 11.4462 3.64743 11.2304 3.33915C11.0146 3.03086 11.0249 2.9281 11.0249 2.9281ZM6.93496 7.52155C7.16104 7.23381 7.61319 6.19592 7.61319 6.19592C7.61319 6.19592 7.7365 6.6378 7.66457 6.76111C7.59263 6.88443 7.3049 7.24409 7.3049 7.24409L7.68512 7.02829C7.68512 7.02829 7.63374 7.40851 7.48987 7.57293C7.35628 7.72707 7.01717 7.77845 6.68833 7.86066C6.68833 7.86066 6.70888 7.80928 6.93496 7.52155ZM6.88358 4.53118C6.8733 4.74698 6.86303 4.99361 6.8322 5.22996C6.30811 5.37383 5.80458 5.5999 5.35243 5.89791L4.98249 5.343C5.55795 4.96278 6.20535 4.68532 6.88358 4.53118ZM6.78082 5.49714C6.77054 5.52797 6.76027 5.56908 6.76027 5.5999C6.59585 6.22675 6.51364 6.39117 6.2259 6.92553C6.14369 7.07967 5.84569 7.42906 5.72237 7.56265C5.40381 7.91204 5.59906 7.62431 5.08525 8.21005C4.58172 8.79579 4.13984 9.23767 4.13984 9.23767C3.7699 9.4843 3.41023 9.19656 3.39996 9.19656C3.73907 7.43934 5.05442 6.02123 6.78082 5.49714ZM4.65365 13.3687C3.88294 12.5774 3.39996 11.5293 3.32802 10.368C3.36913 10.3783 3.41023 10.3783 3.46161 10.3578C3.5952 10.2961 3.93432 10.1009 4.15012 10.0289C4.36592 9.957 4.98249 9.33015 4.98249 9.33015C4.36592 10.1009 4.65365 13.3379 4.65365 13.3687ZM3.86238 6.55559L3.88294 6.2473L4.04736 6.51448L4.35564 6.44255L4.15012 6.6789L4.31454 6.94608L4.0268 6.82277L3.82128 7.05912L3.84183 6.75083L3.5541 6.62752L3.86238 6.55559ZM2.39289 10.0803C2.39289 9.3096 2.54703 8.55944 2.85532 7.85039L3.46161 8.11757C3.19443 8.73414 3.05057 9.40209 3.05057 10.0803C3.05057 10.2139 3.06084 10.3475 3.07112 10.4811L2.41344 10.5325C2.39289 10.3886 2.39289 10.2345 2.39289 10.0803ZM3.52327 12.3616L3.23554 12.2383L3.03001 12.4747L3.05057 12.1664L2.76283 12.0431L3.07112 11.9711L3.09167 11.6628L3.25609 11.93L3.56438 11.8581L3.35885 12.0944L3.52327 12.3616ZM5.72237 15.239C4.90028 14.8587 4.17067 14.2833 3.61576 13.5845L4.12957 13.1734C4.62282 13.8003 5.27022 14.3038 5.99983 14.6429L5.72237 15.239ZM7.61319 15.7014L7.32545 15.5781L7.11993 15.8144L7.14048 15.5061L6.85275 15.3828L7.16104 15.3109L7.18159 15.0026L7.34601 15.2698L7.65429 15.1978L7.44877 15.4342L7.61319 15.7014ZM6.1848 14.4374C6.34922 12.5877 6.8322 11.8889 6.8322 11.8889L6.97606 11.9197C7.09938 13.1118 7.63374 14.4374 7.80843 14.8587C7.22269 14.8176 6.67806 14.6635 6.1848 14.4374ZM8.09617 11.6115C7.16104 11.7656 6.98634 11.7142 6.98634 11.7142C6.98634 11.7142 7.25352 10.9949 6.72944 10.0495C6.29784 9.2685 6.05121 8.81635 5.24967 8.92938L5.81486 8.38475L6.05121 8.82662C6.05121 8.82662 6.34922 9.36098 7.35628 10.0906C8.37362 10.8202 9.13406 11.1079 9.13406 11.1079C9.13406 11.1079 9.0313 11.447 8.09617 11.6115ZM11.179 14.2524L11.549 14.8074C10.7988 15.3006 9.9356 15.6294 9.04158 15.7425L8.95937 15.0848C9.74035 14.982 10.5111 14.6943 11.179 14.2524ZM12.2683 6.87415C12.2066 6.79194 12.1347 6.72001 12.0628 6.64807C12.0114 6.77139 11.9703 6.8536 11.9497 6.8947C11.96 6.90498 11.9703 6.91525 11.9806 6.92553C11.9189 6.97691 11.8572 7.00774 11.8264 7.05912C11.6723 7.31602 11.0763 7.55238 11.0763 7.55238C11.0763 7.55238 10.6858 7.26464 10.5522 7.15161C10.4186 7.03857 10.2131 7.03857 10.2131 7.03857C8.77439 7.21326 8.18865 6.86387 8.18865 6.86387C8.18865 6.86387 8.1681 6.36034 8.24003 6.0315C8.26059 5.93902 8.3839 5.75405 8.52777 5.5588C8.5586 5.51769 8.5997 5.46631 8.63053 5.42521C8.63053 5.42521 8.77439 5.19913 8.89771 5.08609C8.92854 4.72643 8.91826 4.34621 8.90798 4.20234H8.89771V4.10986H9.10323C9.10323 4.10986 9.09296 4.15096 9.09296 4.21262C9.08268 4.21262 9.06213 4.21262 9.05185 4.21262L9.0724 5.03471L9.08268 5.04499C9.18544 5.20941 9.33958 5.51769 9.33958 5.51769C9.57594 5.82598 9.8945 6.22675 9.96643 6.37062C10.0486 6.57614 10.0795 6.47338 10.0795 6.47338C10.2953 6.30896 10.1925 5.86708 10.1206 5.63073C10.1617 5.65128 10.2028 5.66156 10.2439 5.68211C10.2953 6.0315 10.2747 6.45283 10.2747 6.45283C10.2747 6.45283 9.94588 6.76111 10.2028 6.90498C10.4597 7.04884 10.5008 6.87415 10.5008 6.87415L10.47 5.93902C10.5419 6.4631 10.6858 6.90498 10.6858 6.90498C10.8913 6.84332 11.0557 6.76111 11.1893 6.65835L11.1585 6.64807H11.1482H11.1585C11.1687 6.64807 11.1893 6.65835 11.2098 6.64807C11.3023 6.57614 11.3845 6.49393 11.4462 6.41172C11.5387 6.26786 11.6414 6.0315 11.7648 5.65128C11.775 5.5999 11.775 5.54852 11.7853 5.50742C11.7956 5.51769 11.7853 5.42521 11.7956 5.43548C11.7956 5.43548 11.8161 5.45604 11.847 5.48687C11.9395 5.5588 12.0628 5.67184 12.1553 5.75405C12.1758 5.78487 12.6177 6.2473 12.7924 6.44255L12.2683 6.87415Z" fill="url(#paint0_linear)"/>
<defs>
<linearGradient id="paint0_linear" x1="10.386" y1="5.91118" x2="5.22571" y2="14.8044" gradientUnits="userSpaceOnUse">
<stop stop-color="#FF0086"/>
<stop offset="1" stop-color="#FFB700"/>
</linearGradient>
</defs>
</svg>
