<svg xmlns="http://www.w3.org/2000/svg" viewBox="0 0 40 40"><defs><style>.a{fill:#fff;}.b{fill:none;}</style></defs><title>Promotions</title><path class="a" d="M34.07,23.17a2.17,2.17,0,0,0,.72-1.64V10.4a2.16,2.16,0,0,0-2.18-2.17h-.87V15.1a2.1,2.1,0,0,1-.67,1.5l-.1.09-3.43,3.44-5.95,5.95-3.44,3.43a2.58,2.58,0,0,1-3.67,0l-7.6-7.59L5.82,23a2.77,2.77,0,0,0,0,4L16,37.2a2.78,2.78,0,0,0,4,0l3.72-3.72L30.24,27,34,23.27A.11.11,0,0,1,34.07,23.17Z"/><path class="a" d="M28.94,15.05a1.84,1.84,0,0,0,.58-1.31V4.94A1.73,1.73,0,0,0,27.78,3.2H19a1.81,1.81,0,0,0-1.3.58l-.1.09-3,3L9.49,12l-2.95,3a2.23,2.23,0,0,0,0,3.15l8.08,8.12a2.22,2.22,0,0,0,3.14,0l3-3,5.17-5.17,2.95-3C28.89,15.1,28.89,15.05,28.94,15.05ZM26,9.73a1.94,1.94,0,0,1-2.76,0L23,9.44a1.92,1.92,0,0,1,0-2.76l.29-.29a1.94,1.94,0,0,1,2.76,0l.29.29a1.94,1.94,0,0,1,0,2.76Z"/><rect class="b" y="-0.03" width="40" height="40"/><rect class="b" y="-0.03" width="40" height="40"/></svg>