<svg xmlns="http://www.w3.org/2000/svg" width="49" height="48" fill="none" viewBox="0 0 49 48">
    <path fill="#fff" d="M38.503 25.2c-.9-1.5-2.4-2.8-4.4-3.9-2-1-5.4-2.1-10.1-3.1-1.9-.4-3.1-.8-3.6-1.3-.5-.4-.8-.9-.8-1.5 0-.8.3-1.4 1-1.9.6-.5 1.6-.8 2.8-.8 1.5 0 2.7.4 3.6 1.1.9.7 1.4 1.9 1.7 3.4l10.1-.6c-.4-3.6-1.8-6.2-4.2-7.9-1.7-1.2-4.1-2-7-2.3V1.5h-8.2v5.1c-1.4.2-2.6.6-3.6 1-2.1.9-3.6 2.2-4.7 3.8-1 1.6-1.6 3.3-1.6 5.1 0 2.7 1 5 3 6.7 2 1.8 5.4 3.2 10.1 4.2 2.9.6 4.7 1.3 5.5 2 .8.7 1.2 1.5 1.2 2.4 0 1-.4 1.8-1.2 2.5-.8.7-2 1.1-3.6 1.1-2.1 0-3.6-.7-4.8-2.1-.7-.9-1.1-2.1-1.4-3.8l-10 .7c.3 3.5 1.6 6.4 3.9 8.7 1.6 1.6 4 2.6 7.3 3.1v4.6h8.2v-4.4c2-.2 3.8-.6 5.2-1.3 2.2-1 3.9-2.4 5.2-4.3 1.2-1.9 1.9-3.9 1.9-6.2-.1-1.9-.6-3.6-1.5-5.2z"/>
</svg>
