<svg width="41" height="49" viewBox="0 0 41 49" fill="none" xmlns="http://www.w3.org/2000/svg">
<path d="M13.5957 48.9191C6.33767 48.8783 0.333984 34.4414 0.333984 27.089C0.333984 15.0789 9.58021 12.4496 13.1436 12.4496C14.7495 12.4496 16.4643 13.0641 17.9767 13.6078C19.0344 13.9872 20.1282 14.3787 20.7366 14.3787C21.1007 14.3787 21.9588 14.0456 22.7164 13.7534C24.3321 13.1266 26.3426 12.3477 28.6838 12.3477C28.688 12.3477 28.6936 12.3477 28.6977 12.3477C30.4459 12.3477 35.7464 12.7215 38.9332 17.3847L39.6796 18.4777L38.6053 19.2676C37.0706 20.396 34.2703 22.4544 34.2703 26.5317C34.2703 31.3607 37.4417 33.2179 38.9653 34.1111C39.6378 34.5054 40.334 34.9119 40.334 35.801C40.334 36.3815 35.579 48.8471 28.674 48.8471C26.9844 48.8471 25.79 48.3522 24.7366 47.9158C23.6707 47.4739 22.7511 47.0933 21.2317 47.0933C20.4616 47.0933 19.4877 47.4481 18.4566 47.8248C17.0476 48.3372 15.4527 48.9191 13.6431 48.9191H13.5957Z" fill="white"/>
<path d="M28.5638 0.919434C28.7484 7.8367 23.9874 12.6356 19.2319 12.3346C18.4483 6.81439 23.9868 0.919434 28.5638 0.919434Z" fill="white"/>
</svg>
