<svg xmlns="http://www.w3.org/2000/svg" width="16" height="13" fill="none" viewBox="0 0 16 13">
    <path fill="#fff" d="M4.854 0c-1.61 0-2.92 1.43-2.92 3.189 0 1.758 1.31 3.189 2.92 3.189 1.61 0 2.92-1.43 2.92-3.189C7.774 1.431 6.464 0 4.854 0zM11.494.456h-.02c-.676.006-1.307.3-1.778.828-.462.518-.713 1.203-.707 1.926.006.724.268 1.404.738 1.914.474.515 1.102.798 1.77.798h.02c.677-.006 1.308-.3 1.778-.828.462-.519.714-1.203.708-1.926-.012-1.5-1.136-2.712-2.51-2.712zM11.617 6.444h-.243c-1.129 0-2.16.442-2.938 1.167.195.154.38.321.556.502.518.534.925 1.155 1.21 1.848.255.624.402 1.281.436 1.958H16v-.962c0-2.488-1.966-4.513-4.383-4.513zM9.698 11.919C9.61 10.45 8.888 9.16 7.81 8.334c-.784-.602-1.757-.958-2.81-.958h-.292C2.108 7.376 0 9.546 0 12.225v.575h9.708v-.575c0-.103-.003-.205-.01-.306z"/>
</svg>
