<svg xmlns="http://www.w3.org/2000/svg" width="16" height="16" fill="none" viewBox="0 0 16 16">
    <path fill="#fff" d="M8 2.64c.73 0 1.32-.59 1.32-1.32C9.32.591 8.73 0 8 0c-.729 0-1.32.591-1.32 1.32 0 .73.591 1.32 1.32 1.32zM8 16c.73 0 1.32-.591 1.32-1.32 0-.73-.59-1.32-1.32-1.32-.729 0-1.32.59-1.32 1.32C6.68 15.409 7.27 16 8 16zM14.68 9.32C15.409 9.32 16 8.73 16 8c0-.73-.591-1.32-1.32-1.32-.73 0-1.32.59-1.32 1.32 0 .73.59 1.32 1.32 1.32zM1.32 9.32c.73 0 1.321-.59 1.321-1.32 0-.73-.591-1.32-1.32-1.32C.59 6.68 0 7.27 0 8c0 .73.59 1.32 1.32 1.32zM13.644 4.194c.518-.518.518-1.346 0-1.838-.518-.518-1.346-.518-1.838 0-.518.518-.518 1.346 0 1.838.492.518 1.32.518 1.838 0zM3.262 14.032c.73 0 1.32-.59 1.32-1.32 0-.73-.59-1.32-1.32-1.32-.729 0-1.32.59-1.32 1.32 0 .73.591 1.32 1.32 1.32zM12.712 14.032c.73 0 1.32-.59 1.32-1.32 0-.73-.59-1.32-1.32-1.32-.729 0-1.32.59-1.32 1.32 0 .73.591 1.32 1.32 1.32zM12.168 10.77l-.802-.802c.181-.285.31-.596.388-.932h1.165v-2.02H11.78c-.077-.336-.233-.647-.388-.958l.828-.828-1.424-1.424-.802.802c-.285-.18-.622-.31-.958-.388h.026V3.055h-2.02v1.14c-.336.077-.647.206-.932.387l-.828-.828-1.424 1.424.802.803c-.18.284-.31.595-.388.932H3.107v2.019h1.14c.077.337.206.647.388.958l-.803.803 1.424 1.423.803-.802c.284.181.595.31.932.388v1.14H9.01v-1.14c.337-.078.647-.207.932-.388l.803.802 1.424-1.346zm-4.245-5.1c.776 0 1.372.621 1.372 1.398 0 .777-.622 1.398-1.372 1.398-.777 0-1.398-.621-1.398-1.398 0-.777.62-1.398 1.398-1.398zm-.026 3.055c1.346 0 2.485.75 2.692 1.709-.647.699-1.579 1.139-2.589 1.139-1.113 0-2.097-.492-2.744-1.295.285-.906 1.346-1.553 2.64-1.553zM4.194 4.194c.518-.518.518-1.346 0-1.838-.517-.518-1.346-.518-1.838 0-.518.518-.518 1.346 0 1.838.492.518 1.32.518 1.838 0z"/>
</svg>
