<svg xmlns="http://www.w3.org/2000/svg" viewBox="0 0 40 40"><defs><style>.a{fill:none;}.b{fill:#fff;}.c{fill:#bf0003;}</style></defs><title>Deposit</title><rect class="a" y="-0.01" width="40" height="40"/><rect class="a" y="-0.01" width="40" height="40"/><path class="b" d="M36.18,23.71H25.36a1.21,1.21,0,0,0-1.21,1.21v4.17a1.22,1.22,0,0,0,1.21,1.21H36.18a1.21,1.21,0,0,0,1.21-1.21V24.92A1.21,1.21,0,0,0,36.18,23.71Zm-8.91,4.9A1.61,1.61,0,1,1,28.88,27,1.61,1.61,0,0,1,27.27,28.61Z"/><polygon class="b" points="16.72 13.43 13.98 10.68 13.98 10.68 16.72 13.43 16.72 13.43"/><path class="b" d="M23.42,13.46l10.17,0a2.82,2.82,0,0,0-2.82-2.81H26.19Z"/><polygon class="b" points="25.12 10.68 22.36 13.45 22.36 13.45 25.12 10.68 25.12 10.68"/><path class="b" d="M25.16,23.28,36,23.22V19.34a2.5,2.5,0,0,0-2.53-2.51L20,16.94l-.41.41-.4-.4L8.28,17s-2-.1-2-1.86,2-1.78,2-1.78l7.37,0-2.74-2.75h-7a2.82,2.82,0,0,0-2.82,2.81V34.67a2.82,2.82,0,0,0,2.82,2.81H33.21A2.82,2.82,0,0,0,36,34.67v-4l-10.85.1a1.57,1.57,0,0,1-1.57-1.56V24.84A1.57,1.57,0,0,1,25.16,23.28Z"/><polygon class="c" points="25.09 6.86 25.09 2.72 14.02 2.72 14.02 6.86 10.19 6.86 19.55 16.28 28.92 6.86 25.09 6.86"/></svg>