<svg width="24" height="23" viewBox="0 0 24 23" fill="none" xmlns="http://www.w3.org/2000/svg">
<path d="M3.18102 21.2176C3.2119 21.3102 3.24278 21.4029 3.27367 21.4955C3.27367 21.5264 3.30455 21.5573 3.30455 21.5882C3.33543 21.6499 3.36632 21.7117 3.3972 21.7735C3.42809 21.8044 3.42809 21.8352 3.45897 21.8661C3.48985 21.9279 3.52074 21.9588 3.5825 21.9897C3.61339 22.0205 3.64427 22.0514 3.67516 22.0823C3.70604 22.1132 3.76781 22.1441 3.79869 22.175C3.82957 22.2058 3.86046 22.2058 3.89134 22.2367C3.95311 22.2676 3.98399 22.2985 4.04576 22.3294C4.07664 22.3603 4.10753 22.3603 4.13841 22.3911C4.20018 22.422 4.26194 22.422 4.29283 22.4529C4.32371 22.4529 4.3546 22.4838 4.38548 22.4838C4.44725 22.4838 4.50901 22.5147 4.57078 22.5147C4.60167 22.5147 4.63255 22.5147 4.66343 22.5147C4.75608 22.5147 4.84873 22.5147 4.97227 22.4838L7.72091 21.9897H6.70175C5.34287 21.9897 4.23106 20.8778 4.23106 19.519V2.22412C4.23106 2.10059 4.23106 2.00793 4.26194 1.91528L1.26623 2.40942C0.648557 2.53296 0.154418 2.99621 0.0308837 3.583C0 3.70654 0 3.79919 0 3.89184C0 3.98449 0 4.10802 0.0308837 4.20067L3.18102 21.2176Z" fill="white"/>
<path d="M6.70177 21.0015H8.77098L10.7475 21.3721L13.28 21.8353L13.7741 21.928L18.5611 22.8236C18.6846 22.8545 18.8082 22.8545 18.9317 22.8545C19.3332 22.8545 19.7038 22.731 20.0126 22.5148C20.445 22.2368 20.723 21.7736 20.8156 21.2794L23.9657 4.29343C24.0584 3.79929 23.9657 3.27427 23.6569 2.84189C23.3789 2.40952 22.9157 2.13157 22.4216 2.03892L20.2288 1.63743L19.1788 1.45213C18.9008 0.988874 18.4067 0.649154 17.8508 0.649154H14.9168L14.5462 0.587387L11.4887 0.0314808C10.8093 -0.0920538 10.1299 0.155015 9.69748 0.649154H6.73265C6.05321 0.649154 5.49731 1.08153 5.28112 1.6992C5.21935 1.85362 5.18847 2.03892 5.18847 2.19334V19.4882C5.15759 20.322 5.86791 21.0015 6.70177 21.0015ZM6.8253 18.6852L10.0063 1.6992C10.1299 1.08153 10.7166 0.649154 11.3652 0.772689L13.8668 1.23594L14.9168 1.42125L19.395 2.2551L20.3215 2.44041L22.298 2.81101C22.6069 2.87278 22.8539 3.0272 23.0392 3.30515C23.2245 3.55222 23.2863 3.86105 23.2245 4.16989L20.0435 21.1559C19.9817 21.4647 19.8273 21.7118 19.5494 21.8971C19.3023 22.0824 18.9935 22.1442 18.6846 22.0824L17.9434 21.9589L15.3801 21.4956L13.002 21.0633L12.8476 21.0324L7.75181 20.0441C7.13414 19.9206 6.73265 19.3338 6.8253 18.6852Z" fill="white"/>
<path d="M10.933 11.6438C10.686 12.91 11.5198 14.1145 12.786 14.3615C13.2802 14.4542 13.7743 14.3924 14.2067 14.1762C14.0523 14.7939 13.6817 15.2881 13.2184 15.6587L14.2067 15.844L15.195 16.0293C14.8861 15.5351 14.7317 14.9174 14.7935 14.2998C15.1332 14.6395 15.5656 14.8866 16.0597 14.9792C16.2141 15.0101 16.3377 15.0101 16.4921 15.0101C16.8009 15.0101 17.1098 14.9483 17.3877 14.8248C18.0671 14.516 18.6231 13.8983 18.7775 13.0953C19.0554 11.6438 18.1907 10.8408 16.4921 8.37011C16.3068 8.09216 16.1524 7.84509 16.0597 7.6289C15.8744 7.22742 15.8435 7.01123 15.8435 7.01123C15.8435 7.01123 15.6891 7.32007 15.1332 7.75244C15.0097 7.84509 14.8861 7.93774 14.7626 8.03039C12.2919 9.72899 11.1801 10.1922 10.933 11.6438Z" fill="white"/>
<path d="M10.9327 6.23913C11.0563 6.27001 11.2107 6.23913 11.3033 6.17736C11.2725 6.33178 11.1798 6.4862 11.0254 6.57885L11.3033 6.64062L11.5813 6.70238C11.4886 6.57885 11.4578 6.39355 11.4886 6.23913C11.5813 6.33178 11.7048 6.39355 11.8284 6.42443C12.1681 6.4862 12.5078 6.27001 12.5696 5.93029C12.6313 5.5288 12.4151 5.31262 11.9519 4.66406C11.7975 4.41699 11.7666 4.29346 11.7666 4.29346C11.7666 4.29346 11.7048 4.41699 11.4578 4.57141C10.7783 5.03466 10.5004 5.1582 10.4077 5.5288C10.3768 5.83764 10.593 6.17736 10.9327 6.23913Z" fill="white"/>
<path d="M11.2727 3.64489C11.3036 3.64489 11.3036 3.64489 11.3345 3.64489C11.3345 3.64489 11.3654 3.61401 11.3654 3.58312L11.5507 3.21252L12.261 3.33605L12.3227 3.73754C12.3227 3.76842 12.3227 3.79931 12.3227 3.79931L12.3536 3.83019L12.5389 3.86108C12.5698 3.86108 12.6007 3.86108 12.6007 3.86108C12.6316 3.86108 12.6316 3.83019 12.6007 3.79931L12.3536 1.88452C12.3536 1.85364 12.3536 1.82275 12.3227 1.82275C12.3227 1.79187 12.2919 1.79187 12.261 1.79187L12.0448 1.76099C12.0139 1.76099 11.983 1.76099 11.983 1.76099C11.983 1.76099 11.9521 1.79187 11.9213 1.82275L10.9948 3.52135C10.9639 3.55224 10.9639 3.58312 10.9639 3.58312C10.9639 3.58312 10.9639 3.61401 10.9948 3.61401L11.2727 3.64489ZM12.1374 2.13159L12.2301 3.08898L11.6742 2.99633L12.1374 2.13159Z" fill="white"/>
<path d="M18.9934 16.2454L18.7154 16.1836L18.4375 16.1218C18.5301 16.2454 18.561 16.4307 18.5301 16.5851C18.4375 16.4924 18.3139 16.4307 18.1904 16.3998C18.0051 16.3689 17.8198 16.4307 17.6654 16.5233C17.5419 16.616 17.4801 16.7395 17.4492 16.8939C17.3874 17.2645 17.5727 17.4498 17.9433 18.0057C17.9742 18.0675 18.036 18.1293 18.0669 18.191C18.2213 18.4381 18.2522 18.5616 18.2522 18.5616C18.2522 18.5616 18.3139 18.4381 18.561 18.2837C18.9316 18.0366 19.1787 17.8822 19.364 17.7278C19.4875 17.6042 19.5802 17.4807 19.6111 17.3263C19.6419 17.0792 19.5493 16.863 19.364 16.7086C19.3022 16.6468 19.2096 16.616 19.086 16.5851C18.9625 16.5542 18.8081 16.5851 18.7154 16.6468C18.7772 16.4924 18.8699 16.338 18.9934 16.2454Z" fill="white"/>
<path d="M18.7467 19.2102C18.7158 19.2102 18.7158 19.2102 18.6849 19.2102C18.6849 19.2102 18.654 19.2411 18.654 19.272L18.4687 19.6426L18.0055 19.5499L17.7584 19.4882L17.6966 19.0867C17.6966 19.0558 17.6966 19.0249 17.6966 19.0249L17.6657 18.994L17.4804 18.9631C17.4496 18.9631 17.4187 18.9631 17.4187 18.9631C17.3878 18.9631 17.3878 18.994 17.4187 19.0249L17.604 20.4456L17.6657 20.9706C17.6657 21.0015 17.6657 21.0015 17.6966 21.0323C17.6966 21.0323 17.6966 21.0323 17.6966 21.0632C17.6966 21.0941 17.7275 21.0941 17.7584 21.0941L17.9746 21.125C18.0055 21.125 18.0363 21.125 18.0363 21.125C18.0363 21.125 18.0672 21.0941 18.0981 21.0632L18.129 21.0323L19.0246 19.3646C19.0555 19.3337 19.0555 19.3029 19.0555 19.3029C19.0555 19.3029 19.0555 19.272 19.0246 19.272L18.7467 19.2102ZM17.9128 20.6926L17.8202 20.0441L17.7893 19.7352L17.9437 19.7661L18.3452 19.8279L17.9128 20.6926Z" fill="white"/>
</svg>
