<svg xmlns="http://www.w3.org/2000/svg" width="49" height="48" fill="none" viewBox="0 0 49 48">
    <path fill="#fff" d="M36.903 19.2s-.8 3.6-3.7 3.6c-3 0-3-2.6-3-3.7 0-2.2 1.1-4.4 1.1-7.8 0-6.2-8.5-10.3-8.5-10.3s.7 1.5.7 3.3c0 8.9-16.4 12.6-16.4 26 0 8.2 5.8 15 13.5 16.6-3.6-1.6-6.2-5.2-6.2-9.5 0-8.2 10-10.5 10-15.8 0-1.1-.4-2-.4-2s5.2 2.5 5.2 6.3c0 2-.7 3.4-.7 4.7 0 .7 0 2.2 1.8 2.2s2.3-2.2 2.3-2.2c1.6 1.8 2.6 4.2 2.6 6.8 0 3.5-1.7 6.5-4.3 8.4 6-2.6 10.2-8.6 10.2-15.6 0-4.1-1.6-8.1-4.2-11z"/>
</svg>
