<svg xmlns="http://www.w3.org/2000/svg" width="103" height="17" fill="none" viewBox="0 0 103 17">
    <path fill="#fff" d="M51.68 13.623v-9.48H48.88v.98c-.84-.78-1.544-1.163-2.69-1.163-2.6 0-4.526 2.34-4.526 4.97 0 3.042 1.773 4.922 4.373 4.922 1.773 0 2.798-1.162 2.798-1.162v.933h2.843zM48.988 8.96c0 1.376-1.055 2.309-2.31 2.309-1.314 0-2.125-1.086-2.125-2.4 0-1.255.857-2.264 2.217-2.264 1.239.015 2.218.963 2.218 2.355zm-8.517 3.547V4.159h-2.706v1.055c-.81-.856-1.606-1.254-2.798-1.254-2.462 0-4.067 2.171-4.067 4.74 0 2.584 1.636 4.617 4.051 4.617 1.117 0 2.126-.596 2.676-1.1.03.244.015.458.015.703 0 1.04-.917 1.498-1.895 1.498-.704 0-1.101-.122-1.484-.78h-3.18c.306 2.141 2.309 3.303 4.602 3.303 2.615.015 4.786-1.514 4.786-4.434zM37.782 8.7c0 1.07-.75 2.217-2.172 2.217-1.254 0-1.957-1.01-1.957-2.217 0-1.177.657-2.278 1.972-2.278 1.453 0 2.156 1.009 2.156 2.278zm-7.783-6.988C29.999.75 29.219 0 28.286 0S26.59.795 26.59 1.743c0 .979.75 1.728 1.667 1.728.978 0 1.743-.795 1.743-1.759zm-11.1 11.911h6.711v-2.69h-3.67V1.788h-3.042v11.834zm-4.511 0h2.844v-9.48h-2.798v.98c-.841-.78-1.545-1.163-2.691-1.163-2.6 0-4.526 2.34-4.526 4.97 0 3.042 1.773 4.922 4.373 4.922 1.773 0 2.798-1.162 2.798-1.162v.933zm.137-4.663c0 1.376-1.04 2.309-2.309 2.309-1.3 0-2.125-1.086-2.125-2.4 0-1.255.872-2.264 2.217-2.264 1.239.015 2.217.963 2.217 2.355zM0 13.623h6.712v-2.69h-3.67V1.788H0v11.834zm29.693-9.48h-2.829v9.48h2.829v-9.48z"/>
    <path fill="url(#paint0_linear)" d="M59.765 13.877h-2.439V1.412h2.968c.947 0 1.636.032 2.102.096.465.065.85.177 1.17.321.707.337 1.252.786 1.621 1.38.37.593.562 1.283.562 2.085 0 .963-.273 1.781-.802 2.455-.53.674-1.252 1.09-2.166 1.283l3.112 4.83h-2.904L59.765 8.07v5.807zm0-6.4h.545c.995 0 1.733-.177 2.246-.53.514-.353.77-.882.77-1.556 0-.658-.208-1.155-.642-1.46-.433-.321-1.09-.465-2.005-.465h-.914v4.01zm6.593 1.652c0-.658.129-1.284.37-1.893.24-.594.593-1.123 1.058-1.589.481-.48 1.01-.834 1.604-1.09.594-.257 1.204-.386 1.845-.386.674 0 1.3.113 1.877.337.578.225 1.107.562 1.573 1.011.497.481.866 1.027 1.138 1.636.273.626.402 1.252.402 1.91 0 .721-.113 1.38-.353 1.973-.241.593-.578 1.123-1.06 1.604-.464.481-.994.85-1.603 1.107-.594.24-1.252.369-1.958.369s-1.347-.128-1.94-.369c-.578-.257-1.108-.626-1.59-1.123-.448-.497-.801-1.027-1.042-1.62-.208-.594-.32-1.22-.32-1.877zm2.262-.016c0 .866.24 1.572.722 2.07.481.512 1.123.77 1.957.77.803 0 1.46-.258 1.942-.787.48-.53.722-1.22.722-2.101 0-.787-.257-1.444-.754-1.958-.498-.513-1.14-.77-1.91-.77-.786 0-1.427.257-1.925.77-.513.514-.754 1.187-.754 2.006zm8.407.016c0-.658.128-1.284.369-1.893.24-.594.593-1.123 1.058-1.589.482-.48 1.011-.834 1.605-1.09.593-.257 1.203-.386 1.845-.386.674 0 1.3.113 1.877.337.577.225 1.107.562 1.572 1.011.497.481.866 1.027 1.139 1.636.273.626.401 1.252.401 1.91 0 .721-.112 1.38-.353 1.973-.24.593-.577 1.123-1.059 1.604-.465.481-.994.85-1.604 1.107-.594.24-1.251.369-1.957.369-.706 0-1.348-.128-1.941-.369-.578-.257-1.107-.626-1.589-1.123-.449-.497-.802-1.027-1.042-1.62-.209-.594-.321-1.22-.321-1.877zm2.262-.016c0 .866.24 1.572.722 2.07.481.512 1.123.77 1.957.77.802 0 1.46-.258 1.941-.787.481-.53.722-1.22.722-2.101 0-.787-.257-1.444-.754-1.958-.497-.513-1.14-.77-1.91-.77-.785 0-1.427.257-1.924.77-.514.514-.754 1.187-.754 2.006zM90.422 4.46v1.075c.321-.433.69-.738 1.107-.946.418-.209.883-.305 1.412-.305.754 0 1.412.128 1.941.4.546.274.995.69 1.396 1.252.369-.561.786-.978 1.251-1.251.466-.273.979-.417 1.525-.417 1.155 0 2.037.369 2.647 1.09.609.723.93 1.765.93 3.113v5.406h-2.15v-4.17c0-1.284-.144-2.15-.417-2.6-.289-.465-.77-.69-1.46-.69-.722 0-1.235.257-1.556.77-.305.514-.465 1.396-.465 2.664v4.026h-2.166v-4.17c0-1.268-.144-2.134-.433-2.6-.289-.465-.786-.69-1.508-.69-.738 0-1.251.257-1.572.77-.321.514-.482 1.396-.482 2.664v4.026h-2.117V4.46h2.117z"/>
    <defs>
        <linearGradient id="paint0_linear" x1="57.334" x2="102.63" y1="7.769" y2="7.769" gradientUnits="userSpaceOnUse">
            <stop stop-color="#A87D36"/>
            <stop offset="1" stop-color="#D8B074"/>
        </linearGradient>
    </defs>
</svg>
