<svg width="24" height="23" viewBox="0 0 24 23" fill="none" xmlns="http://www.w3.org/2000/svg">
<path d="M0 2.085C0 2.913 0.462 3.633 1.203 3.966V15.876C1.203 17.343 2.391 18.531 3.858 18.531H5.28V22.422H22.887V15.198C23.502 15.198 24 14.7 24 14.085V5.559C24 4.944 23.502 4.446 22.887 4.446V2.502H16.389C16.161 1.431 15.207 0.627 14.07 0.627C12.933 0.627 11.982 1.431 11.751 2.502H5.283V4.446C4.719 4.446 4.263 4.902 4.263 5.466V14.178C4.263 14.742 4.719 15.198 5.283 15.198V16.68H3.996C3.477 16.68 3.057 16.26 3.057 15.741V3.936C3.705 3.588 4.173 2.889 4.173 2.085C4.173 0.936 3.228 0 2.076 0C0.927 0 0 0.936 0 2.085ZM12.045 13.344V6.3H16.215V13.344H12.045ZM6.117 6.3H10.194V13.344H6.117V6.3ZM22.146 13.344H18.069V6.3H22.146V13.344V13.344ZM9.33 10.581C9.33 11.088 8.988 11.499 8.463 11.634V12.231H7.818V11.67C7.524 11.64 7.23 11.544 7.041 11.409L6.948 11.343L7.182 10.689L7.341 10.794C7.542 10.929 7.8 11.004 8.046 11.004C8.346 11.004 8.547 10.848 8.547 10.617C8.547 10.461 8.484 10.29 8.022 10.104C7.53 9.912 7.023 9.63 7.023 9.018C7.023 8.526 7.344 8.142 7.851 8.013V7.431H8.49V7.974C8.73 7.998 8.94 8.067 9.129 8.178L9.237 8.241L8.994 8.886L8.841 8.799C8.754 8.748 8.55 8.631 8.226 8.631C7.908 8.631 7.794 8.796 7.794 8.952C7.794 9.12 7.878 9.231 8.382 9.438C8.826 9.618 9.33 9.909 9.33 10.581ZM15.306 10.581C15.306 11.088 14.964 11.499 14.439 11.634V12.231H13.794V11.67C13.5 11.64 13.206 11.544 13.017 11.409L12.924 11.343L13.158 10.689L13.317 10.794C13.518 10.929 13.776 11.004 14.022 11.004C14.322 11.004 14.523 10.848 14.523 10.617C14.523 10.461 14.46 10.29 13.998 10.104C13.506 9.912 12.999 9.63 12.999 9.018C12.999 8.526 13.32 8.142 13.827 8.013V7.431H14.466V7.974C14.706 7.998 14.916 8.067 15.105 8.178L15.213 8.241L14.97 8.886L14.817 8.799C14.73 8.748 14.526 8.631 14.202 8.631C13.884 8.631 13.77 8.796 13.77 8.952C13.77 9.12 13.854 9.231 14.358 9.438C14.802 9.618 15.306 9.909 15.306 10.581ZM21.282 10.581C21.282 11.088 20.94 11.499 20.415 11.634V12.231H19.77V11.67C19.476 11.64 19.182 11.544 18.993 11.409L18.9 11.343L19.134 10.689L19.293 10.794C19.494 10.929 19.752 11.004 19.998 11.004C20.298 11.004 20.499 10.848 20.499 10.617C20.499 10.461 20.436 10.29 19.974 10.104C19.482 9.912 18.975 9.63 18.975 9.018C18.975 8.526 19.296 8.142 19.803 8.013V7.431H20.442V7.974C20.682 7.998 20.892 8.067 21.081 8.178L21.189 8.241L20.946 8.886L20.793 8.799C20.706 8.748 20.502 8.631 20.178 8.631C19.86 8.631 19.746 8.796 19.746 8.952C19.746 9.12 19.83 9.231 20.334 9.438C20.778 9.618 21.282 9.909 21.282 10.581Z" fill="white"/>
</svg>
