<svg xmlns="http://www.w3.org/2000/svg" viewBox="0 0 40 40"><defs><style>.a{fill:#fff;}.b{fill:#c92126;}.c{fill:none;}</style></defs><title>Transfer</title><path class="a" d="M35.9,23.63H25.26a1.2,1.2,0,0,0-1.19,1.19v4.1a1.2,1.2,0,0,0,1.19,1.2H35.9a1.2,1.2,0,0,0,1.2-1.2v-4.1A1.2,1.2,0,0,0,35.9,23.63Zm-8.76,4.82a1.58,1.58,0,1,1,1.57-1.58A1.57,1.57,0,0,1,27.14,28.45Z"/><path class="a" d="M30,13.57h3.34a2.78,2.78,0,0,0-2.77-2.77H30Z"/><path class="a" d="M25.06,23.21l10.69-.06V19.33a2.46,2.46,0,0,0-2.48-2.47l-24.82.21s-2-.09-2-1.83,2-1.75,2-1.75h2.27V10.81H6.1a2.78,2.78,0,0,0-2.77,2.77V34.41A2.78,2.78,0,0,0,6.1,37.18H33a2.77,2.77,0,0,0,2.77-2.77v-3.9l-10.67.11a1.55,1.55,0,0,1-1.55-1.54V24.75A1.55,1.55,0,0,1,25.06,23.21Z"/><polygon class="b" points="22.29 6.78 18.21 2.7 12.67 8.24 11.26 6.83 11.23 13.76 18.16 13.73 16.75 12.32 22.29 6.78"/><polygon class="b" points="29.67 5.19 22.74 5.21 24.15 6.62 18.61 12.16 22.69 16.24 28.23 10.7 29.64 12.12 29.67 5.19"/><rect class="c" x="0.03" y="-0.05" width="40" height="40"/><rect class="c" x="0.03" y="-0.05" width="40" height="40"/></svg>