<svg id="Layer_1" data-name="Layer 1" xmlns="http://www.w3.org/2000/svg" viewBox="0 0 72 72"><defs><style>.cls-1{fill:#fff;}</style></defs><title>New Casino Icon</title><path class="cls-1" d="M14.91,57s-4.61-5.32-5-15.61S12.43,24,13.14,22.93c0,0,0,4.26,2.48,6.74,0,0,1.07,2.13,6.39,4.26,0,0-1.07-16.32,3.54-22.35A23.35,23.35,0,0,1,35.49,2s-1.42,6.74.71,9.22a10.37,10.37,0,0,0,3.19,3.2s4.26,2.84,3.9,11a38.81,38.81,0,0,0,3.2-9.94s6.38,3.19,6,22c0,0,6.38,1.06,4.25-11.36,0,0,5,2.49,6,13.49,0,0,.71,9.22-3.55,17.38H57.48V51s2.84-1.77.71-6.39a4.34,4.34,0,0,0-3.9-2.13H52.16v-3.9s-.35-2.48-3.54-2.48H20.94s-2.13.35-2.13,3.9V57Z"/><rect class="cls-1" x="25.2" y="61.96" width="19.51" height="2.13"/><path class="cls-1" d="M49.68,57v1.77h4.26S55,59.12,55,57.35V49.89H53.23V57Z"/><circle class="cls-1" cx="54.11" cy="47.59" r="3.02"/><path class="cls-1" d="M48.62,38.19h-27s-1.06,0-1.06.71V68s0,1.06,1.42,1.06H49.32s.71.36.71-1.42V39.25S50.39,38.19,48.62,38.19Zm-6.75,3.19c1.38,0,2.49.4,2.49.89s-1.11.88-2.49.88-2.48-.39-2.48-.88S40.5,41.38,41.87,41.38Zm-6.74,0c1.38,0,2.49.4,2.49.89s-1.11.88-2.49.88-2.48-.39-2.48-.88S33.76,41.38,35.13,41.38Zm-6.74,0c1.37,0,2.49.4,2.49.89s-1.12.88-2.49.88-2.48-.39-2.48-.88S27,41.38,28.39,41.38ZM46.13,61.6v2.84c0,1.06-.71,1.06-.71,1.06H24.85a.69.69,0,0,1-.71-.7V60.89a.7.7,0,0,1,.71-.71H44.36C46.49,60.18,46.13,61.6,46.13,61.6Zm0-16V57.7a1,1,0,0,1-1.06,1.06H25.2a1,1,0,0,1-1.06-1.06V45.64c0-.71,1.06-.71,1.06-.71H44.71C46.49,44.93,46.13,45.64,46.13,45.64Z"/><rect class="cls-1" x="25.55" y="46.35" width="5.68" height="10.64"/><rect class="cls-1" x="32.3" y="46.35" width="5.68" height="10.64"/><rect class="cls-1" x="38.68" y="46.35" width="5.68" height="10.64"/></svg>