<svg width="49" height="48" viewBox="0 0 49 48" fill="none" xmlns="http://www.w3.org/2000/svg">
<path d="M20.2294 36.6008C20.5294 36.5008 20.8294 36.3008 21.1294 36.1008C22.1294 35.4008 22.6294 33.2008 22.6294 33.2008C22.6294 33.2008 20.4294 33.1008 19.4294 33.9008C18.7294 34.4008 18.4294 35.1008 18.3294 35.7008C15.7294 34.0008 15.2294 32.4008 14.9294 31.3008C14.9294 31.3008 14.8294 31.2008 15.0294 31.4008C14.6294 30.2008 14.5294 28.9008 14.9294 27.7008C15.1294 27.0008 15.4294 26.5008 15.7294 26.1008C16.2294 27.2008 17.3294 28.1008 18.1294 28.7008C18.2294 28.8008 18.3294 28.8008 18.4294 28.7008C18.5294 28.6008 18.5294 28.5008 18.5294 28.4008C17.9294 26.9008 18.2294 25.3008 18.5294 24.3008C18.8294 24.2008 19.2294 24.0008 19.5294 23.8008C22.0294 22.3008 23.4294 18.7008 21.9294 16.9008C20.5294 15.1008 16.1294 15.8008 14.2294 17.2008H14.1294C13.3294 17.8008 12.6294 18.5008 12.0294 19.2008C11.1294 19.3008 10.0294 19.3008 8.92944 18.8008C8.82944 18.7008 8.62944 18.8008 8.62944 18.9008C8.52944 19.0008 8.52944 19.1008 8.62944 19.2008C9.02944 19.9008 9.62944 20.7008 10.5294 21.4008C9.52944 22.8008 9.02944 24.7008 9.02944 27.0008C9.22944 34.1008 14.5294 36.9008 18.1294 36.9008C17.9294 37.5008 18.1294 38.3008 18.7294 39.0008C19.4294 40.0008 21.6294 40.5008 21.6294 40.5008C21.6294 40.5008 21.7294 38.3008 20.9294 37.3008C20.7294 37.0008 20.5294 36.8008 20.2294 36.6008Z" fill="white"/>
<path d="M39.4294 29.0004C39.0294 28.3004 38.4294 27.5004 37.5294 26.8004C38.4294 25.1004 39.0294 23.2004 38.9294 20.9004C38.7294 13.8004 33.4294 11.0004 29.8294 11.0004C30.0294 10.4004 29.8294 9.60039 29.2294 8.90039C28.5294 7.90039 26.3294 7.40039 26.3294 7.40039C26.3294 7.40039 26.2294 9.60039 27.0294 10.6004C27.2294 10.9004 27.5294 11.1004 27.8294 11.3004C27.5294 11.4004 27.2294 11.6004 26.9294 11.8004C25.9294 12.5004 25.4294 14.7004 25.4294 14.7004C25.4294 14.7004 27.6294 14.8004 28.6294 14.0004C29.3294 13.5004 29.6294 12.8004 29.7294 12.2004C32.3294 13.9004 32.8294 15.5004 33.1294 16.6004C33.1294 16.6004 33.2294 16.7004 33.0294 16.5004C33.4294 17.7004 33.5294 19.0004 33.1294 20.2004C32.9294 20.9004 32.6294 21.4004 32.3294 21.8004C31.8294 20.7004 30.7294 19.8004 29.9294 19.2004C29.8294 19.1004 29.7294 19.1004 29.6294 19.2004C29.5294 19.3004 29.5294 19.4004 29.5294 19.5004C30.1294 21.0004 29.8294 22.6004 29.5294 23.6004C29.2294 23.7004 28.8294 23.9004 28.5294 24.1004C26.0294 25.6004 24.6294 29.2004 26.1294 31.0004C27.5294 32.8004 31.9294 32.1004 33.8294 30.7004H33.9294C34.7294 30.1004 35.4294 29.4004 36.0294 28.7004C36.9294 28.6004 38.0294 28.6004 39.1294 29.1004C39.2294 29.2004 39.4294 29.1004 39.4294 29.0004C39.5294 29.1004 39.5294 29.3004 39.4294 29.0004Z" fill="white"/>
<path d="M23.8296 25.5C24.658 25.5 25.3296 24.8284 25.3296 24C25.3296 23.1716 24.658 22.5 23.8296 22.5C23.0012 22.5 22.3296 23.1716 22.3296 24C22.3296 24.8284 23.0012 25.5 23.8296 25.5Z" fill="white"/>
<path d="M48.0295 22.9H44.7295C44.2295 12.2 35.7295 3.7 25.0295 3V0H22.9295V3C12.1295 3.5 3.42954 12.1 2.82954 22.9H0.029541V25H2.82954C3.42954 35.9 12.1295 44.5 22.9295 45V48H25.0295V44.9C35.6295 44.3 44.1295 35.7 44.7295 25H48.0295V22.9ZM25.1295 42.9V40H23.0295V43C13.3295 42.6 5.42954 34.8 4.92954 25.1H8.02954V23H4.82954C5.42954 13.2 13.2295 5.5 22.9295 5V8H25.0295V5.1C34.5295 5.7 42.1295 13.4 42.7295 23H40.0295V25.1H42.7295C42.2295 34.6 34.6295 42.3 25.1295 42.9Z" fill="white"/>
</svg>
