<svg width="16" height="17" viewBox="0 0 16 17" fill="none" xmlns="http://www.w3.org/2000/svg">
<path d="M7.82098 13.9004C8.30291 13.983 8.79861 14.0243 9.28053 14.0243C10.2444 13.7903 11.1394 13.4047 11.938 12.8953C8.12391 12.8402 4.75041 10.9125 2.71255 7.96582C2.68501 8.31005 2.65747 8.65429 2.65747 9.01229C2.65747 9.94861 2.76763 10.8574 2.98794 11.7249C4.39241 12.8677 6.03096 13.6113 7.82098 13.9004Z" fill="#E03B28"/>
<path d="M2.21692 11.3672C2.451 11.8767 2.71262 12.3724 3.01554 12.8405C3.07062 12.9231 3.11193 12.992 3.16701 13.0746C3.01554 12.689 2.89162 12.2897 2.78146 11.8767C2.58869 11.7114 2.39592 11.5462 2.21692 11.3672Z" fill="#E03B28"/>
<path d="M8.30299 14.2178C8.12399 14.2041 7.95875 14.1765 7.77975 14.149C6.05858 13.8736 4.47511 13.1851 3.11194 12.1387C3.27717 12.6894 3.46994 13.2127 3.70402 13.7221C4.62657 14.0664 5.61796 14.2729 6.66443 14.3005C7.21521 14.328 7.76598 14.2867 8.30299 14.2178Z" fill="#E03B28"/>
<path d="M2.6851 11.4635C2.5061 10.6786 2.42348 9.85248 2.42348 9.01255C2.42348 8.54439 2.45102 8.09 2.5061 7.64938C1.95532 6.79568 1.52847 5.87313 1.21178 4.89551C0.991468 6.93337 1.25309 8.9437 1.95532 10.7613C2.1894 11.0091 2.43725 11.2432 2.6851 11.4635Z" fill="#E03B28"/>
<path d="M7.46303 8.5166H6.65063V9.26015H7.46303C7.55941 9.26015 7.6558 9.21884 7.72464 9.14999C7.79349 9.08115 7.8348 8.98476 7.8348 8.88837C7.8348 8.79199 7.79349 8.6956 7.72464 8.62676C7.6558 8.55791 7.55941 8.5166 7.46303 8.5166Z" fill="#E03B28"/>
<path d="M8.01379 0.310547C3.59383 0.310547 0.0137939 3.89058 0.0137939 8.31055C0.0137939 12.7305 3.59383 16.3105 8.01379 16.3105C12.4338 16.3105 16 12.7305 16 8.31055C16 3.89058 12.42 0.310547 8.01379 0.310547ZM8.71603 8.88886C8.71603 9.23309 8.59211 9.53602 8.34426 9.7701C8.09641 10.0179 7.80725 10.1419 7.46302 10.1419H5.76939L5.75562 6.97492H5.76939H6.63686V7.63585H7.44925C7.54564 7.63585 7.64202 7.59454 7.71087 7.52569C7.77971 7.45685 7.82102 7.36046 7.82102 7.26408C7.82102 7.18146 7.75218 7.04377 7.71087 6.97492C8.04133 6.87853 8.30295 6.69953 8.48195 6.5343C8.60588 6.72707 8.70226 7.01623 8.70226 7.26408C8.70226 7.58077 8.60588 7.84239 8.39934 8.07647C8.61965 8.31055 8.71603 8.57216 8.71603 8.88886ZM6.48539 3.78043C6.55424 3.84927 6.65063 3.89058 6.74701 3.89058H7.2014C7.5594 3.89058 7.86233 4.01451 8.11018 4.26235C8.35803 4.5102 8.48195 4.81313 8.48195 5.17113C8.48195 5.52914 8.35803 5.83206 8.11018 6.07991C7.86233 6.32776 7.5594 6.45168 7.2014 6.45168H5.76939V5.5429H7.2014C7.31156 5.5429 7.39417 5.5016 7.46302 5.43275C7.53187 5.3639 7.57317 5.26752 7.57317 5.17113C7.57317 5.06098 7.53187 4.97836 7.46302 4.90951C7.39417 4.84067 7.29779 4.79936 7.2014 4.79936H6.74701C6.38901 4.79936 6.08608 4.67543 5.83823 4.42759C5.59039 4.17974 5.46646 3.87681 5.46646 3.51881C5.46646 3.1608 5.59039 2.85788 5.83823 2.61003C6.08608 2.36218 6.38901 2.23826 6.74701 2.23826H8.17903V3.14704H6.74701C6.63686 3.14704 6.55424 3.18834 6.48539 3.25719C6.41655 3.32604 6.37524 3.42242 6.37524 3.51881C6.37524 3.62896 6.41655 3.71158 6.48539 3.78043ZM9.51465 5.07475L11.0568 2.27957L13.2462 6.28645H12.2685L11.3047 4.5102L9.51465 5.07475ZM10.3959 5.29506L9.85889 6.27268H8.86749L9.18419 5.6806L10.3959 5.29506ZM9.14288 9.54979L10.3546 9.16425L9.81758 10.1419H8.82619L9.14288 9.54979ZM9.47335 8.94394L10.2582 7.52569L11.3184 5.59798L13.8658 10.1694L12.8744 10.1556L11.7728 8.10401L9.47335 8.94394ZM1.4045 12.4551C1.9415 12.8544 2.53359 13.2124 3.16698 13.5016C3.04305 13.3364 2.91913 13.1574 2.80897 12.9784C2.38212 12.3174 2.03789 11.629 1.74873 10.8992C1.33565 10.4586 0.96388 9.97664 0.619646 9.4534C0.481952 9.24686 0.358028 9.04032 0.234104 8.82001C0.220334 8.65478 0.220334 8.47578 0.220334 8.29678C0.220334 6.83722 0.619646 5.47406 1.32188 4.30366C1.59727 5.3639 2.02412 6.3553 2.5749 7.26408C2.97421 4.73051 4.19968 2.45857 5.97593 0.764936C6.14116 0.723628 6.30639 0.68232 6.47163 0.641012C4.47507 2.40349 3.1119 4.84067 2.7539 7.59454C4.75045 10.6376 8.1928 12.6617 12.1033 12.6617C12.1721 12.6617 12.241 12.6617 12.3098 12.6617C14.1549 11.3673 15.4355 9.39833 15.7246 7.14015C15.7797 7.52569 15.8073 7.925 15.8073 8.32432C15.8073 9.93533 15.3253 11.4224 14.4854 12.6617C13.8107 12.8131 13.1085 12.8957 12.3925 12.9095C11.7315 13.3639 11.0155 13.7357 10.2444 14.0111C11.7315 13.8871 13.1635 13.4327 14.4579 12.7167C14.3477 12.8682 14.2375 13.0334 14.1136 13.1711C12.6678 13.8871 11.0706 14.2865 9.43204 14.2865C9.39073 14.2865 9.34942 14.2865 9.30811 14.2865C8.57834 14.4655 7.80725 14.5618 7.00863 14.5618C6.89848 14.5618 6.77455 14.5618 6.6644 14.5618C5.70054 14.5343 4.77799 14.3553 3.92429 14.0661C4.50261 14.7408 5.136 15.3192 5.83823 15.8011C5.57662 15.7322 5.32877 15.6358 5.08092 15.5395C4.8193 15.3329 4.57145 15.0988 4.33737 14.8648C4.43376 15.03 4.54391 15.1952 4.65407 15.3467C3.30467 14.6995 2.18935 13.6944 1.4045 12.4551Z" fill="#E03B28"/>
</svg>
