<svg xmlns="http://www.w3.org/2000/svg" xmlns:xlink="http://www.w3.org/1999/xlink" width="20" height="20" viewBox="0 0 20 20"><defs><style>.a{fill:url(#a);}.b{fill:none;}</style><linearGradient id="a" x1="0.5" y1="1.003" x2="0.5" y2="-0.022" gradientUnits="objectBoundingBox"><stop offset="0" stop-color="#8a1e2f"/><stop offset="1" stop-color="#ed203e"/></linearGradient></defs><g transform="translate(-1042.73 -544.275)"><path class="a" d="M1060.129,554.118a3.475,3.475,0,0,0-1.448-.715v-3.936a3.448,3.448,0,0,0-3.442-3.442h-10.917v16.5h13.371a3.325,3.325,0,0,0,1.678-.432,3.552,3.552,0,0,0,.758-.578,3.316,3.316,0,0,0,1.01-2.432v-2.532A3.32,3.32,0,0,0,1060.129,554.118Zm-4.89-5.76a1.117,1.117,0,0,1,1.109,1.109v3.641h-9.736l.046-3.641a1.045,1.045,0,0,1,.338-.782,1.116,1.116,0,0,1,.8-.327Zm-7.446,11.834a1.116,1.116,0,0,1-.8-.327,1.048,1.048,0,0,1-.341-.782v-3.609h11.275a1.117,1.117,0,0,1,.847,1.077v2.532a1.117,1.117,0,0,1-1.109,1.109Z"/><rect class="b" width="20" height="20" transform="translate(1042.73 544.275)"/><rect class="b" width="20" height="20" transform="translate(1042.73 544.275)"/></g></svg>