<svg xmlns="http://www.w3.org/2000/svg" width="49" height="49" fill="none" viewBox="0 0 49 49">
    <path fill="#1A2332" d="M46.39 5.323H2.84c-.564 0-1.025.455-1.025 1.011v23.258c0 .556.461 1.011 1.025 1.011h43.55c.564 0 1.025-.455 1.025-1.01V6.333c0-.556-.461-1.011-1.025-1.011zm-.512 23.764H3.352V6.84h42.526v22.247z"/>
    <path fill="#1A2332" d="M10.013 26.305c0 .253-.051.506-.103.759h29.871c-.051-.253-.102-.506-.102-.759 0-2.072 1.742-3.792 3.842-3.792h.256v-9.606h-.256c-2.1 0-3.842-1.72-3.842-3.792v-.253H10.013v.253c0 2.073-1.742 3.792-3.843 3.792h-.256v9.606h.256c2.1 0 3.843 1.72 3.843 3.792zM24.87 11.39c3.69 0 6.661 2.932 6.661 6.573 0 3.64-2.972 6.573-6.66 6.573-3.69 0-6.661-2.933-6.661-6.573 0-3.64 2.971-6.573 6.66-6.573zM46.134 32.12H3.096c-.717 0-1.281.556-1.281 1.264s.564 1.264 1.28 1.264h43.039c.717 0 1.28-.556 1.28-1.264s-.563-1.264-1.28-1.264zM46.134 36.165H3.096c-.717 0-1.281.556-1.281 1.264s.564 1.264 1.28 1.264h43.039c.717 0 1.28-.556 1.28-1.264s-.563-1.264-1.28-1.264zM46.134 40.21H3.096c-.717 0-1.281.556-1.281 1.264s.564 1.264 1.28 1.264h43.039c.717 0 1.28-.556 1.28-1.264s-.563-1.264-1.28-1.264z"/>
    <path fill="#1A2332" d="M24.871 20.137c-.256 0-.512-.05-.717-.202-.205-.152-.359-.303-.41-.607h-2.46c.052 1.163 1.025 2.174 2.563 2.478v1.719h2.049v-1.77c1.486-.253 2.408-1.112 2.408-2.528 0-2.78-4.457-2.073-4.457-3.185 0-.253.256-.455.82-.455.255 0 .46.05.665.151.205.101.308.253.359.506h2.408c-.154-1.062-.82-1.972-2.203-2.275V12.4h-2.05v1.568c-1.434.253-2.356 1.011-2.356 2.376 0 2.882 4.457 2.124 4.457 3.287-.051.303-.461.505-1.076.505z"/>
</svg>
