<svg id="Layer_1" data-name="Layer 1" xmlns="http://www.w3.org/2000/svg" xmlns:xlink="http://www.w3.org/1999/xlink" viewBox="0 0 207.84 207.86"><defs><style>.cls-1{fill:url(#linear-gradient);}</style><linearGradient id="linear-gradient" x1="155.89" y1="13.91" x2="51.96" y2="193.93" gradientUnits="userSpaceOnUse"><stop offset="0" stop-color="#009ad8"/><stop offset="1" stop-color="#4bb166"/></linearGradient></defs><path class="cls-1" d="M103.93,0A104,104,0,0,0,4.49,134.2c1.88-2.69,3.75-5.4,5.6-8.1q10.92-16,21.34-32.28l5.12-8.18q2.6-4.08,5.06-8.21C45,72,48.2,66.4,51.41,60.85c1.61-2.77,3.12-5.59,4.68-8.38s3.09-5.6,4.54-8.44,3-5.63,4.36-8.49L69.12,27l.3-.6A9.5,9.5,0,0,1,82,22.06c3.67,1.78,5.37,5.65,5.37,9.48h0c0,4.93-1,10.06-1.29,15.12s-.66,10.15-.86,15.23c-.4,10.15-.65,20.3-.51,30.39s.55,20.14,1.62,29.93a142.1,142.1,0,0,0,2.24,14.29,51.22,51.22,0,0,0,4,12.27A10.52,10.52,0,0,0,94.92,152c.6.41.19.21.49.24,0,.05.25-.07.39-.05l.32-.11.16-.05h.07c.25-.11.53-.22.58-.26s-.05,0-.05,0c.24-.15.49-.3.8-.53a28.74,28.74,0,0,0,4.15-3.94,97.61,97.61,0,0,0,8.38-11.25c2.66-4.09,5.21-8.36,7.66-12.71,4.91-8.72,9.5-17.74,13.87-26.9q3.28-6.85,6.41-13.81c2.07-4.61,4.14-9.33,6-13.89a9.35,9.35,0,0,1,17.86,2.09v0c.05,1.21.19,2.74.33,4.13l.47,4.3c.35,2.88.77,5.75,1.25,8.63a174.15,174.15,0,0,0,3.71,17,115.51,115.51,0,0,0,5.7,16.39,64.64,64.64,0,0,0,8.77,14.79l0,0a2.49,2.49,0,0,1-3.54,3.47,71.49,71.49,0,0,1-12.57-14.18,126.83,126.83,0,0,1-9.45-16.31c-1.84-3.75-3.48-7.57-5.05-11.43-1,2.26-2.07,4.52-3.14,6.77-4.52,9.42-9.25,18.77-14.44,28-2.6,4.62-5.32,9.19-8.29,13.74a116.1,116.1,0,0,1-10.08,13.49,46.3,46.3,0,0,1-7.1,6.6c-.73.54-1.56,1.07-2.42,1.59-.57.32-1.17.63-1.76.92l-1,.43-.11,0-.55.22-.38.13-.75.24c-.51.15-1,.31-1.53.44a20.7,20.7,0,0,1-3.42.52,19.27,19.27,0,0,1-7.49-.93A20.13,20.13,0,0,1,83,166.42a28.48,28.48,0,0,1-7-9,68.87,68.87,0,0,1-5.73-17,157.12,157.12,0,0,1-2.56-16.22c-1.17-10.69-1.62-21.23-1.76-31.74-.06-5,0-10.05,0-15.05-1.86,3.57-3.75,7.14-5.68,10.67-1.56,2.91-3.14,5.81-4.76,8.67l-4.84,8.62c-6.51,11.45-13.25,22.74-20.12,33.94-4.46,7.25-8.95,14.42-13.55,21.57A103.92,103.92,0,1,0,103.93,0Z"/></svg>