<svg xmlns="http://www.w3.org/2000/svg" width="100" height="24" fill="none" viewBox="0 0 100 24">
    <path fill="#fff" d="M51.68 17.623v-9.48H48.88v.98c-.84-.78-1.544-1.163-2.69-1.163-2.6 0-4.526 2.34-4.526 4.97 0 3.042 1.773 4.922 4.373 4.922 1.773 0 2.798-1.162 2.798-1.162v.933h2.843zm-2.691-4.663c0 1.376-1.055 2.309-2.31 2.309-1.314 0-2.125-1.086-2.125-2.4 0-1.255.857-2.264 2.217-2.264 1.239.015 2.218.963 2.218 2.355zm-8.517 3.547V8.159h-2.706v1.055c-.81-.856-1.606-1.254-2.798-1.254-2.462 0-4.067 2.171-4.067 4.74 0 2.584 1.636 4.617 4.051 4.617 1.117 0 2.126-.596 2.676-1.1.03.244.015.458.015.703 0 1.04-.917 1.498-1.895 1.498-.704 0-1.101-.122-1.484-.78h-3.18c.306 2.141 2.309 3.303 4.602 3.303 2.615.015 4.786-1.514 4.786-4.434zm-2.69-3.807c0 1.07-.75 2.217-2.172 2.217-1.254 0-1.957-1.01-1.957-2.217 0-1.177.657-2.278 1.972-2.278 1.453 0 2.156 1.009 2.156 2.278zm-7.783-6.988c0-.963-.78-1.712-1.713-1.712s-1.697.795-1.697 1.743c0 .979.75 1.728 1.667 1.728.978 0 1.743-.795 1.743-1.759zm-11.1 11.911h6.711v-2.69h-3.67V5.788h-3.042v11.834zm-4.511 0h2.844v-9.48h-2.798v.98c-.841-.78-1.545-1.163-2.691-1.163-2.6 0-4.526 2.34-4.526 4.97 0 3.042 1.773 4.922 4.373 4.922 1.773 0 2.798-1.162 2.798-1.162v.933zm.137-4.663c0 1.376-1.04 2.309-2.309 2.309-1.3 0-2.125-1.086-2.125-2.4 0-1.255.872-2.264 2.217-2.264 1.239.015 2.217.963 2.217 2.355zM0 17.623h6.712v-2.69h-3.67V5.788H0v11.834zm29.693-9.48h-2.829v9.48h2.829v-9.48z"/>
    <path fill="url(#paint0_linear)" d="M57.535 18.102V8.42h3.673V6.815H57V5.042h13.735v1.773H66.33V8.42h3.87v9.667h-1.97v-.914h-8.725v.929h-1.97zm5.53-9.682h1.393V6.815h-1.393V8.42zm1.393 3.87v-2.097h-1.393c0 2.045-.675 3.607-2.026 4.686-.544-.455-1.056-.842-1.534-1.161V15.4h8.725v-1.436h-2.111c-1.107 0-1.66-.558-1.66-1.674zm-4.953 1.294c1.135-.816 1.703-1.947 1.703-3.391h-1.703v3.391zm8.725-3.391h-1.9v1.309c0 .45.23.675.69.675h1.21v-1.984z"/>
    <path fill="url(#paint1_linear)" d="M72.276 14.752v-9.71h12.23v9.71h-1.971v-.957h-3.11v4.39h-2.083v-4.39h-3.096v.957h-1.97zm10.259-7.88h-3.11v1.632h3.11V6.872zm-3.11 5.094h3.11v-1.632h-3.11v1.632zm-5.179 0h3.096v-1.632h-3.096v1.632zm0-3.462h3.096V6.872h-3.096v1.632z"/>
    <path fill="url(#paint2_linear)" d="M89.27 10.587c0 3.208-.662 5.746-1.985 7.613-.385-.6-.858-1.252-1.421-1.956.938-1.464 1.407-3.33 1.407-5.6V5h12.454v1.914H89.269v3.673zm.45-2.28h9.85v1.858h-3.673v5.643c0 .699-.178 1.233-.534 1.604-.352.37-.899.577-1.64.62-.741.046-1.574.074-2.498.084-.094-.62-.234-1.272-.422-1.956.722.051 1.271.077 1.647.077.623 0 1.01-.103 1.16-.31.155-.21.233-.462.233-.753v-5.01h-4.124V8.308z"/>
    <defs>
        <linearGradient id="paint0_linear" x1="55.092" x2="103.604" y1="20.002" y2="20.002" gradientUnits="userSpaceOnUse">
            <stop stop-color="#A87D35"/>
            <stop offset="1" stop-color="#D5AF71"/>
        </linearGradient>
        <linearGradient id="paint1_linear" x1="55.092" x2="103.604" y1="20.002" y2="20.002" gradientUnits="userSpaceOnUse">
            <stop stop-color="#A87D35"/>
            <stop offset="1" stop-color="#D5AF71"/>
        </linearGradient>
        <linearGradient id="paint2_linear" x1="55.092" x2="103.604" y1="20.002" y2="20.002" gradientUnits="userSpaceOnUse">
            <stop stop-color="#A87D35"/>
            <stop offset="1" stop-color="#D5AF71"/>
        </linearGradient>
    </defs>
</svg>
