<svg xmlns="http://www.w3.org/2000/svg" viewBox="0 0 40 40"><defs><style>.a{fill:#fff;}.b{fill:#bf0003;}.c{fill:none;}</style></defs><title>Withdrawal</title><path class="a" d="M35.55,24H25.06a1.18,1.18,0,0,0-1.18,1.18v4a1.18,1.18,0,0,0,1.18,1.18H35.55a1.17,1.17,0,0,0,1.17-1.18v-4A1.17,1.17,0,0,0,35.55,24Zm-8.64,4.76a1.56,1.56,0,1,1,1.55-1.56A1.56,1.56,0,0,1,26.91,28.73Z"/><path class="a" d="M24.86,23.56,35.4,23.5V19.73A2.43,2.43,0,0,0,33,17.3l-24.47.2s-1.95-.09-1.95-1.8,2-1.72,2-1.72l5.13,0V11.33H6.17a2.74,2.74,0,0,0-2.73,2.74V34.6a2.74,2.74,0,0,0,2.73,2.73h26.5A2.74,2.74,0,0,0,35.4,34.6V30.76l-10.52.1a1.52,1.52,0,0,1-1.53-1.52V25.08A1.52,1.52,0,0,1,24.86,23.56Z"/><path class="a" d="M25.23,14l7.81,0a2.74,2.74,0,0,0-2.74-2.74H25.23Z"/><polygon class="b" points="14.12 10.74 14.12 16.82 24.72 16.82 24.72 10.74 28.79 10.74 19.42 1.31 10.05 10.74 14.12 10.74"/><rect class="c" y="-0.01" width="40" height="40"/><rect class="c" y="-0.01" width="40" height="40"/></svg>