<svg width="24" height="24" viewBox="0 0 24 24" fill="none" xmlns="http://www.w3.org/2000/svg">
<path d="M18.4 9.6C18.4 9.6 18 11.4 16.55 11.4C15.05 11.4 15.05 10.1 15.05 9.55C15.05 8.45 15.6 7.35 15.6 5.65C15.6 2.55 11.35 0.5 11.35 0.5C11.35 0.5 11.7 1.25 11.7 2.15C11.7 6.6 3.5 8.45 3.5 15.15C3.5 19.25 6.4 22.65 10.25 23.45C8.45 22.65 7.15 20.85 7.15 18.7C7.15 14.6 12.15 13.45 12.15 10.8C12.15 10.25 11.95 9.8 11.95 9.8C11.95 9.8 14.55 11.05 14.55 12.95C14.55 13.95 14.2 14.65 14.2 15.3C14.2 15.65 14.2 16.4 15.1 16.4C16 16.4 16.25 15.3 16.25 15.3C17.05 16.2 17.55 17.4 17.55 18.7C17.55 20.45 16.7 21.95 15.4 22.9C18.4 21.6 20.5 18.6 20.5 15.1C20.5 13.05 19.7 11.05 18.4 9.6Z" fill="white"/>
</svg>
