<svg xmlns="http://www.w3.org/2000/svg" width="25" height="26" fill="none" viewBox="0 0 25 26">
    <path fill="#fff" d="M12.625 9.763l5.188 5.174c.437.437.437 1.185-.063 1.559-.5.436-1.312.374-1.75-.062l-3.375-3.43-3.562 3.43c-.5.436-1.25.436-1.75 0-.5-.437-.5-1.123-.063-1.559l5.375-5.112z"/>
    <path fill="#fff" d="M12.625 9.763l5.188 5.174c.437.437.437 1.185-.063 1.559-.5.436-1.312.374-1.75-.062l-3.375-3.43-3.562 3.43c-.5.436-1.25.436-1.75 0-.5-.437-.5-1.123-.063-1.559l5.375-5.112z"/>
</svg>
