<svg xmlns="http://www.w3.org/2000/svg" viewBox="0 0 40 40"><defs><style>.a{fill:none;}.b{fill:#fff;}</style></defs><title>ReferFriend_White</title><rect class="a" x="0.04" y="-0.01" width="40" height="40"/><path class="b" d="M12.43,19.79h3.12a7.61,7.61,0,0,1-.76-1.44A3.77,3.77,0,0,1,13.88,17H12.65a1.93,1.93,0,0,1-1-.14,2.9,2.9,0,0,1-.6-1.47,4.28,4.28,0,0,0,.85-1.54,1.12,1.12,0,0,0,.51-.61,3.08,3.08,0,0,0,.17-1.17V12l-.13-.09-.14-.09c.25-1.84-.09-3.07-1-3.76a4.88,4.88,0,0,0-5.37.12C5,8.85,4.76,9.79,5,11.81l-.07,0L4.85,12v.15A3.35,3.35,0,0,0,5,13.29a1.19,1.19,0,0,0,.53.61,4.27,4.27,0,0,0,.94,1.62A3.22,3.22,0,0,1,6,16.73a1.21,1.21,0,0,1-1.12.38H3.28c-1.78,1.55-2.11,4.6-2.14,6.39.92.89,4.47,1.29,7.94,1.23a10,10,0,0,1,2.8-4.47Z"/><path class="b" d="M26.63,21.63a2.89,2.89,0,0,1-1.47-.2,4.21,4.21,0,0,1-.87-2.12,6,6,0,0,0,1.23-2.21,1.7,1.7,0,0,0,.73-.88,4.37,4.37,0,0,0,.25-1.69v-.22l-.18-.12-.2-.13c.36-2.64-.13-4.41-1.49-5.4a7,7,0,0,0-7.72.16c-1.26,1-1.6,2.39-1.2,5.3l-.1.07-.18.12v.22a4.43,4.43,0,0,0,.26,1.71,1.63,1.63,0,0,0,.76.88,6.06,6.06,0,0,0,1.35,2.33,4.52,4.52,0,0,1-.65,1.74,1.73,1.73,0,0,1-1.61.55H13.16c-2.55,2.23-3,6.62-3.08,9.18,2.5,2.44,18.42,2.31,21.72,0,.32-2.92-1-7.41-3-9.31ZM25.4,25l-5.49,5.49L16.43,27a1,1,0,0,1,0-1.36,1,1,0,0,1,1.36,0l2.12,2.12L24,23.67a1,1,0,0,1,1.36,0A1,1,0,0,1,25.4,25Z"/><path class="b" d="M38,18.79c-.18-.44-2.83-.59-3.22-.6a7.94,7.94,0,0,1-.45-1.25,4,4,0,0,0,1.4-1.65c.19-.1,1.15,0,1.31-.15.35-2-.31-5.57-1.29-6.29a6.09,6.09,0,0,0-6,.15c-.91.74-1.41,4-1.06,6.24.29,0,1,0,1.28,0a3.59,3.59,0,0,0,1.31,1.64,12.93,12.93,0,0,1-.33,1.26c-.39,0-3,.16-3.23.6a3.46,3.46,0,0,0-.5.88H29.6l.56.54a11,11,0,0,1,2.39,3.7,15.82,15.82,0,0,0,6.24-1A5.66,5.66,0,0,0,38,18.79Z"/></svg>