<svg xmlns="http://www.w3.org/2000/svg" width="49" height="49" fill="none" viewBox="0 0 49 49">
    <path fill="#000" d="M13.868 35.428l5.622-6.51 2.86-3.255L41.487 3.47h-4.142l-8.483 9.864-4.044 2.367L9.824 7.416s-.986-.69-1.973-.198C6.766 7.613 6.668 8.6 6.668 8.6v5.721c0 1.085 1.282 1.677 1.282 1.677l12.527 7.102-3.748 4.34-7.004-3.847s-.986-.69-1.972-.197c-.987.493-1.085 1.48-1.085 1.48v5.72c0 1.085 1.282 1.677 1.282 1.677l3.156 1.776L3.61 42.53h3.945l6.313-7.102zM41.585 23.296c-1.183-.493-2.367.198-2.367.198l-14.5 8.285-2.465-1.38-5.721 6.51 6.214 3.55s1.085.592 1.874.592c.789 0 1.775-.592 1.775-.592l15.585-8.68c.69-.592.69-1.48.69-1.48v-4.931s.099-1.48-1.085-2.072zM28.564 23.197l13.414-7.496c.69-.592.69-1.48.69-1.48V9.29s.1-.987-.59-1.579L28.563 23.197z"/>
</svg>
