<svg xmlns="http://www.w3.org/2000/svg" viewBox="0 0 40 40"><defs><style>.a{fill:#fdcf01;}.b{fill:none;}</style></defs><title>MyWallet</title><path class="a" d="M28.94,4.5H6.69A3.26,3.26,0,0,0,3.44,7.76V32.19a3.26,3.26,0,0,0,3.25,3.25H31.76A3.26,3.26,0,0,0,35,32.19V27.62l-12.52.12a1.81,1.81,0,0,1-1.82-1.81V20.85a1.81,1.81,0,0,1,1.8-1.8L35,19V14.5a2.89,2.89,0,0,0-2.92-2.89l-22.65.23s-2.33-.1-2.33-2.14,2.33-2,2.33-2l22.76.11A3.27,3.27,0,0,0,28.94,4.5Z"/><path class="a" d="M35.19,19.55H22.7a1.4,1.4,0,0,0-1.4,1.39v4.81a1.4,1.4,0,0,0,1.4,1.4H35.19a1.4,1.4,0,0,0,1.39-1.4V20.94A1.39,1.39,0,0,0,35.19,19.55ZM24.9,25.2a1.85,1.85,0,1,1,1.85-1.85A1.85,1.85,0,0,1,24.9,25.2Z"/><rect class="b" x="0.01" width="40" height="40"/><rect class="b" x="0.01" width="40" height="40"/></svg>