<svg xmlns="http://www.w3.org/2000/svg" width="21" height="21" fill="none" viewBox="0 0 21 21">
    <path fill="#1A2332" fill-rule="evenodd" d="M15.036 13.686l2.9 2.9c-.143.362-.069.79.224 1.082.392.393 1.028.393 1.42 0 .393-.392.393-1.027 0-1.42-.292-.293-.72-.367-1.082-.223l-3.134-3.133H3.072v.79h11.964v.004zm3.571 3.54c.144.145.383.145.532 0 .144-.143.144-.382 0-.53-.144-.145-.383-.145-.532 0-.149.148-.149.386 0 .53zm-3.57-9.558l2.9-2.9c-.144-.362-.07-.789.223-1.082.392-.392 1.028-.392 1.42 0 .393.392.393 1.028 0 1.42-.292.293-.72.368-1.082.224l-3.134 3.133H3.072v-.795h11.964zm3.57-3.54c.144-.144.383-.144.532 0 .144.144.144.382 0 .531-.144.144-.383.144-.532 0-.149-.144-.149-.382 0-.531z" clip-rule="evenodd"/>
    <path fill="#1A2332" fill-rule="evenodd" d="M3.663 7.668v6.018h-.79V7.668h.79zM7.73 8.25c1.336 0 2.43 1.091 2.43 2.427s-1.094 2.428-2.43 2.428-2.428-1.092-2.428-2.428c0-1.336 1.092-2.428 2.428-2.428zm-1.107 3.232c.62.04 1.068.06 1.33.06.06 0 .11-.02.15-.056.035-.034.055-.084.055-.149v-.402h-.76c-.283 0-.487-.064-.616-.193-.13-.13-.194-.333-.194-.616v-.074c0-.284.065-.487.194-.616.129-.13.333-.194.616-.194h.08l-.04-.362h.605l-.04.362h.646v.566H7.562c-.16 0-.244.08-.244.244v.079c0 .159.08.243.244.243h.56c.264 0 .458.06.582.184.124.124.184.318.184.58v.204c0 .264-.06.457-.184.581-.124.124-.313.184-.576.184h-.114l.03.363h-.607l.04-.383c-.313-.015-.596-.034-.85-.06v-.545h-.004zM16.064 11.566v.79h-4.271v-.79h4.271zm0-2.567v.79h-4.271v-.79h4.271zM11.793 11.075v-.79h6.099c.154-.357.512-.61.924-.61.551 0 1.003.451 1.003 1.002 0 .552-.452 1.003-1.003 1.003-.412 0-.77-.253-.924-.61h-6.099v.005zm7.023-.77c.208 0 .377.169.377.377 0 .209-.169.378-.377.378-.209 0-.373-.17-.373-.378-.005-.208.164-.377.373-.377zM13.591 14.972l1.863 1.862c-.144.363-.07.79.223 1.083.393.392 1.028.392 1.42 0 .393-.393.393-1.028 0-1.42-.293-.294-.72-.368-1.082-.224l-2.091-2.09H2.51c.175.278.368.54.582.79h10.5zm2.528 2.498c.144.144.383.144.532 0 .144-.144.144-.383 0-.532-.145-.144-.383-.144-.532 0-.149.144-.149.383 0 .532zM13.591 6.387l1.863-1.862c-.144-.362-.07-.79.223-1.082.393-.393 1.028-.393 1.42 0 .393.392.393 1.027 0 1.42-.293.293-.72.367-1.082.223l-2.091 2.09H2.51c.175-.277.368-.54.582-.789h10.5zM16.12 3.89c.144-.144.383-.144.532 0 .144.144.144.382 0 .53-.145.145-.383.145-.532 0-.149-.148-.149-.386 0-.53z" clip-rule="evenodd"/>
    <path fill="#1A2332" fill-rule="evenodd" d="M7.73 4.078c2.2 0 4.153 1.088 5.354 2.746h-1.013c-1.067-1.197-2.617-1.956-4.34-1.956-3.199 0-5.811 2.611-5.811 5.81 0 3.197 2.612 5.809 5.81 5.809 1.724 0 3.278-.76 4.341-1.957h1.014c-1.202 1.664-3.154 2.746-5.354 2.746-3.636 0-6.606-2.964-6.606-6.599.005-3.634 2.97-6.599 6.606-6.599z" clip-rule="evenodd"/>
</svg>
