<svg xmlns="http://www.w3.org/2000/svg" width="16" height="17" fill="none" viewBox="0 0 16 17">
    <path fill="#fff" d="M7.839 5.489c-1.461 0-2.651 1.19-2.651 2.65 0 1.462 1.19 2.652 2.65 2.652 1.462 0 2.652-1.19 2.652-2.651.015-1.461-1.175-2.651-2.651-2.651z"/>
    <path fill="#92278F" d="M2.236 3.455c-.016.03-.016.06 0 .09.015.016.015.03.03.03l2.816 1.643c.03.015.06.015.09 0 .016 0 .016-.015.03-.03v-.016c.257-.466.619-.873 1.085-1.19.467-.33.964-.527 1.492-.617h.015c.015 0 .015 0 .03-.015.03-.015.045-.06.03-.09L7.251.066c0-.015-.015-.03-.015-.03-.015-.03-.045-.045-.09-.03h-.015c-.994.18-1.973.572-2.862 1.205-.843.572-1.536 1.356-2.033 2.244z"/>
    <path fill="#005BAA" d="M.624 9.631c.015.03.045.045.075.06.015 0 .03 0 .045-.015l3.043-1.175c.03-.015.06-.045.06-.075v-.045c-.195-.497-.286-1.024-.256-1.597.03-.557.196-1.084.452-1.551v-.015c0-.015.015-.015.015-.03 0-.03-.015-.076-.045-.09L1.151 3.56c-.015 0-.03-.015-.045-.015-.03 0-.06.015-.075.045C.549 4.48.247 5.489.172 6.573c-.09 1.085.075 2.124.452 3.058z"/>
    <path fill="#009BDF" d="M4.48 14.707c.03.015.06 0 .09-.03.015-.015.015-.03.015-.045l.964-3.103c.015-.03 0-.075-.03-.09-.015-.016-.015-.016-.03-.016h-.015c-.512-.15-.994-.406-1.4-.783-.423-.376-.739-.828-.935-1.31v-.015c0-.015-.015-.015-.015-.03-.03-.03-.06-.03-.09-.016L.05 10.565c-.015 0-.03.015-.03.03-.015.03-.03.06-.015.09.392.934 1.01 1.793 1.808 2.516.783.708 1.702 1.22 2.666 1.506z"/>
    <path fill="#00A651" d="M10.821 14.858c.03-.015.046-.045.03-.09 0-.016-.015-.03-.015-.046L9.03 12.026c-.015-.03-.06-.045-.09-.03-.016 0-.016 0-.03.015 0 0-.016 0-.016.015-.437.301-.934.512-1.49.603-.558.09-1.1.045-1.613-.09h-.045c-.03 0-.06.03-.075.06l-.859 3.133v.045c0 .03.03.06.06.075h.016c.979.271 2.033.346 3.087.166 1.055-.181 2.019-.588 2.847-1.16z"/>
    <path fill="#FFF200" d="M14.964 10.023c0-.03-.015-.06-.046-.076-.014-.015-.03-.015-.045-.015l-3.238-.256c-.03 0-.06.015-.09.045 0 .016-.016.016-.016.03v.016c-.03.527-.18 1.054-.451 1.551-.272.497-.648.904-1.07 1.205h-.015c-.015 0-.015.015-.03.03-.015.03-.015.076 0 .09l1.928 2.622.03.03c.03.015.06.015.09 0 .814-.588 1.537-1.371 2.049-2.32.542-.934.828-1.943.904-2.952z"/>
    <path fill="#F68B1F" d="M13.729 3.757c-.03-.015-.06-.03-.09-.015-.016 0-.031.015-.031.03l-2.244 2.365c-.016.03-.03.06-.016.09 0 .015.016.015.016.03l.015.015c.391.362.708.798.918 1.326.211.527.287 1.07.257 1.596v.045c.015.03.045.06.075.06l3.254.151c.015 0 .03 0 .045-.015.03-.015.045-.045.06-.075v-.015c.06-1.01-.105-2.064-.512-3.058-.392-.979-1.01-1.837-1.748-2.53z"/>
    <path fill="#ED1C24" d="M8.05.85c-.03 0-.06.03-.076.06v.045l.482 3.223c0 .03.03.06.06.076h.046c.527-.09 1.07-.06 1.612.105.542.15 1.024.422 1.416.783h.015c.015 0 .015.015.03.015.03.016.075 0 .09-.03l2.124-2.455c.015-.015.015-.015.015-.03.015-.03 0-.06-.03-.09-.753-.663-1.687-1.19-2.726-1.492C10.098.744 9.044.684 8.05.85z"/>
    <path fill="#000" d="M7.839 5.444c-1.491 0-2.696 1.205-2.696 2.696s1.205 2.696 2.696 2.696 2.696-1.205 2.696-2.696S9.33 5.444 7.84 5.444zM9.797 9.66c.045-.105.06-.24.06-.331-.06.045-.105.105-.18.15-.181.136-.392.226-.573.257l-.512-.573.377.663c-.106.166-.241.331-.437.482-.06.045-.12.09-.196.12.09.015.226.046.331.046-.256.09-.542.15-.828.15-.286 0-.572-.045-.829-.15.121 0 .242-.015.347-.046-.06-.03-.136-.075-.196-.12-.18-.136-.331-.301-.437-.467l.377-.663-.527.573c-.196-.046-.392-.136-.573-.256-.06-.046-.12-.09-.18-.151.015.105.03.226.06.331-.332-.421-.527-.949-.527-1.521V8.08c.03.12.09.226.15.316.015-.075.03-.15.06-.226.076-.226.181-.407.317-.557l.738.15v-.015l-.693-.316c-.015-.196 0-.407.075-.633.03-.075.045-.15.09-.21-.09.045-.225.105-.316.18.332-.482.814-.843 1.386-1.01-.105.061-.196.167-.271.242.075-.015.15-.015.226-.015.226 0 .452.045.633.135l.09.754h.015l.09-.754c.181-.075.392-.135.633-.135.075 0 .15 0 .226.015-.075-.075-.166-.18-.271-.241.572.166 1.07.527 1.386 1.01-.09-.076-.226-.136-.317-.182.03.06.06.136.09.211.076.211.091.437.076.633l-.693.316v.015l.738-.15c.136.15.241.331.317.557.03.075.045.15.06.226.045-.09.12-.211.15-.316v.075c-.015.557-.21 1.084-.542 1.506z"/>
    <path fill="#000" d="M6.754 7.778l.422 1.28h1.34l.423-1.28-1.1-.783-1.085.783z"/>
</svg>
