<svg xmlns="http://www.w3.org/2000/svg" viewBox="0 0 40 40"><defs><style>.a{fill:#fff;}.b{fill:none;}</style></defs><title>Rebates</title><path class="a" d="M19.29,29.27V27.15a8.82,8.82,0,0,1-3.78-.95l.67-2.61a7.83,7.83,0,0,0,3.69,1c1.27,0,2.14-.49,2.14-1.38s-.71-1.38-2.36-1.93c-2.38-.81-4-1.92-4-4.08,0-2,1.38-3.49,3.76-4V11.11h2.18v2a7.81,7.81,0,0,1,3.23.73l-.64,2.51A7.52,7.52,0,0,0,21,15.56c-1.45,0-1.91.62-1.91,1.24s.78,1.21,2.67,1.92c2.65.93,3.71,2.16,3.71,4.16s-1.4,3.67-4,4.12v2.27Z"/><path class="a" d="M36.72,22.36A17,17,0,0,1,8.17,31.82L7,30.7,3.49,34.22l.15-9.93h9.78l-3.8,3.8,1.22,1.15A13.25,13.25,0,0,0,33,22.36Z"/><path class="a" d="M20.56,3.18A16.89,16.89,0,0,1,32.35,8l1.16,1.13L37,5.56l-.15,9.93H27.11l3.79-3.8-1.22-1.15A13.25,13.25,0,0,0,7.57,17.42H3.81A17,17,0,0,1,20.56,3.18Z"/><rect class="b" y="-0.01" width="40" height="40"/><rect class="b" y="-0.01" width="40" height="40"/></svg>