<svg width="24" height="24" viewBox="0 0 24 24" fill="none" xmlns="http://www.w3.org/2000/svg">
<path d="M24 12C24 10.9642 23.0147 10.08 22.7621 9.12C22.5095 8.13474 22.8884 6.87158 22.3832 6.01263C21.8779 5.12842 20.5895 4.85053 19.8568 4.14316C19.1495 3.43579 18.8463 2.14737 17.9874 1.61684C17.1284 1.11158 15.8653 1.51579 14.88 1.23789C13.92 0.985263 13.0358 0 12 0C10.9642 0 10.08 0.985263 9.12 1.23789C8.13474 1.49053 6.87158 1.11158 6.01263 1.61684C5.12842 2.12211 4.85053 3.41053 4.14316 4.14316C3.43579 4.85053 2.14737 5.15368 1.61684 6.01263C1.11158 6.87158 1.51579 8.13474 1.23789 9.12C0.985263 10.08 0 10.9642 0 12C0 13.0358 0.985263 13.92 1.23789 14.88C1.49053 15.8653 1.11158 17.1284 1.61684 17.9874C2.12211 18.8716 3.41053 19.1495 4.14316 19.8568C4.85053 20.5642 5.15368 21.8526 6.01263 22.3832C6.87158 22.8884 8.13474 22.4842 9.12 22.7621C10.08 23.0147 10.9642 24 12 24C13.0358 24 13.92 23.0147 14.88 22.7621C15.8653 22.5095 17.1284 22.8884 17.9874 22.3832C18.8716 21.8779 19.1495 20.5895 19.8568 19.8568C20.5642 19.1495 21.8526 18.8463 22.3832 17.9874C22.8884 17.1284 22.4842 15.8653 22.7621 14.88C23.0147 13.92 24 13.0358 24 12ZM8.74105 16.5726C8.74105 16.6737 8.66526 16.7495 8.56421 16.7495H6.16421C6.06316 16.7495 5.98737 16.6737 5.98737 16.5726V10.8379C5.98737 10.7368 6.06316 10.6611 6.16421 10.6611H8.56421C8.66526 10.6611 8.74105 10.7368 8.74105 10.8379V16.5726ZM17.8358 12.9347C17.5074 13.2884 17.4316 13.3389 17.5579 13.6926C17.6337 13.8947 17.76 14.1221 17.76 14.2989C17.76 14.6021 17.3811 14.9053 17.1789 15.1326C16.9768 15.36 17.1789 15.7137 17.0274 15.9663C16.1937 17.3558 13.2379 17.2042 11.9242 16.8758C11.1916 16.5726 10.4084 16.3705 9.57474 16.32C9.47368 16.32 9.37263 16.2189 9.37263 16.1179V11.3179C9.37263 11.2168 9.44842 11.1411 9.52421 11.1158C10.7116 10.7116 10.4337 9.67579 11.4189 8.76632C12.4042 8.00842 13.0611 6.87158 13.1874 5.58316C14.0716 5.05263 15.6126 6.36632 14.5263 8.00842C14.2484 8.43789 13.6168 9.72632 14.0211 9.72632H16.5474C17.1032 9.75158 17.3558 9.90316 17.6589 10.3579C18.2905 11.2926 17.5832 11.3179 17.6842 11.8232C17.7095 11.9242 17.8358 12.1516 17.8863 12.2274C18.0379 12.5053 18.0884 12.6316 17.8358 12.9347Z" fill="white"/>
</svg>
