<svg width="44" height="49" viewBox="0 0 44 49" fill="none" xmlns="http://www.w3.org/2000/svg">
<path d="M3.66988 16.7124C2.83393 16.7124 2.12466 17.0001 1.54163 17.5754C0.958596 18.1508 0.666992 18.8412 0.666992 19.647V32.0195C0.666992 32.8455 0.958508 33.5448 1.54163 34.1202C2.12466 34.6956 2.83393 34.9834 3.66988 34.9834C4.50522 34.9834 5.21019 34.6957 5.78419 34.1202C6.35704 33.5449 6.64426 32.8455 6.64426 32.0195V19.647C6.64426 18.8411 6.35274 18.1508 5.76962 17.5754C5.1865 17.0001 4.48644 16.7124 3.66988 16.7124Z" fill="white"/>
<path fill-rule="evenodd" clip-rule="evenodd" d="M28.0049 5.36654L30.1058 1.55919C30.2437 1.30713 30.1946 1.11384 29.9582 0.977926C29.7015 0.860728 29.5043 0.920114 29.3665 1.15189L27.2362 4.98967C25.3617 4.1755 23.3792 3.76767 21.2885 3.76767C19.1974 3.76767 17.2147 4.17559 15.3409 4.98967L13.2106 1.15189C13.0721 0.920114 12.8749 0.861253 12.6189 0.977926C12.3819 1.11445 12.3328 1.30713 12.4713 1.55919L14.5722 5.36654C12.4419 6.43383 10.7452 7.92023 9.48276 9.82897C8.22034 11.7388 7.58887 13.8258 7.58887 16.0936H34.9585C34.9585 13.8263 34.3269 11.7392 33.0646 9.82897C31.802 7.92023 30.1151 6.43383 28.0049 5.36654ZM15.858 10.904C15.6308 11.1277 15.3594 11.2391 15.044 11.2391C14.7279 11.2391 14.4621 11.1277 14.2452 10.904C14.0284 10.6813 13.9199 10.4158 13.9199 10.1049C13.9199 9.79501 14.0284 9.52896 14.2452 9.30576C14.4621 9.08308 14.7286 8.97174 15.044 8.97174C15.3594 8.97174 15.6308 9.08308 15.858 9.30576C16.0846 9.52948 16.1985 9.79501 16.1985 10.1049C16.1979 10.4153 16.0841 10.6813 15.858 10.904ZM27.5321 11.2391C27.847 11.2391 28.1135 11.1277 28.3308 10.904C28.5478 10.6813 28.6561 10.4153 28.6561 10.1049C28.6561 9.79501 28.5479 9.52948 28.3308 9.30576C28.1134 9.08308 27.8476 8.97174 27.5321 8.97174C27.216 8.97174 26.9447 9.08308 26.718 9.30576C26.4909 9.52896 26.3775 9.79501 26.3775 10.1049C26.3775 10.4158 26.4909 10.6813 26.718 10.904C26.9447 11.1277 27.216 11.2391 27.5321 11.2391Z" fill="white"/>
<path d="M7.90137 36.2295C7.90137 37.1147 8.21556 37.8641 8.84402 38.479C9.47302 39.0939 10.2388 39.4014 11.1429 39.4014H13.3241L13.354 45.9486C13.354 46.7753 13.6486 47.4774 14.238 48.0541C14.8274 48.6309 15.5351 48.9192 16.36 48.9192C17.2045 48.9192 17.9219 48.6309 18.5113 48.0541C19.1008 47.4774 19.3955 46.7754 19.3955 45.9486V39.402H23.4626V45.9486C23.4626 46.7753 23.7572 47.4774 24.3467 48.0541C24.9361 48.6309 25.6529 48.9192 26.498 48.9192C27.3425 48.9192 28.0599 48.6309 28.6494 48.0541C29.2388 47.4774 29.5334 46.7754 29.5334 45.9486V39.402H31.744C32.628 39.402 33.384 39.0945 34.0136 38.4795C34.642 37.8646 34.9564 37.1152 34.9564 36.2301V17.0225H7.90137V36.2295Z" fill="white"/>
<path d="M39.19 16.7124C38.3732 16.7124 37.6736 16.9958 37.0905 17.5612C36.5074 18.1275 36.2158 18.8232 36.2158 19.647V32.0195C36.2158 32.8455 36.5073 33.5448 37.0905 34.1202C37.6736 34.6957 38.3738 34.9834 39.19 34.9834C40.0255 34.9834 40.7353 34.6957 41.3184 34.1202C41.9016 33.5448 42.1931 32.8455 42.1931 32.0195V19.647C42.1931 18.8231 41.9016 18.1275 41.3184 17.5612C40.7353 16.9958 40.0255 16.7124 39.19 16.7124Z" fill="white"/>
</svg>
