<svg xmlns="http://www.w3.org/2000/svg" width="84" height="24" fill="none" viewBox="0 0 84 24">
    <path fill="#fff" d="M51.68 17.623v-9.48H48.88v.98c-.84-.78-1.544-1.163-2.69-1.163-2.6 0-4.526 2.34-4.526 4.97 0 3.042 1.773 4.922 4.373 4.922 1.773 0 2.798-1.162 2.798-1.162v.933h2.843zm-2.691-4.663c0 1.376-1.055 2.309-2.31 2.309-1.314 0-2.125-1.086-2.125-2.4 0-1.255.857-2.264 2.217-2.264 1.239.015 2.218.963 2.218 2.355zm-8.517 3.547V8.159h-2.706v1.055c-.81-.856-1.606-1.254-2.798-1.254-2.462 0-4.067 2.171-4.067 4.74 0 2.584 1.636 4.617 4.051 4.617 1.117 0 2.126-.596 2.676-1.1.03.244.015.458.015.703 0 1.04-.917 1.498-1.895 1.498-.704 0-1.101-.122-1.484-.78h-3.18c.306 2.141 2.309 3.303 4.602 3.303 2.615.015 4.786-1.514 4.786-4.434zm-2.69-3.807c0 1.07-.75 2.217-2.172 2.217-1.254 0-1.957-1.01-1.957-2.217 0-1.177.657-2.278 1.972-2.278 1.453 0 2.156 1.009 2.156 2.278zm-7.783-6.988c0-.963-.78-1.712-1.713-1.712s-1.697.795-1.697 1.743c0 .979.75 1.728 1.667 1.728.978 0 1.743-.795 1.743-1.759zm-11.1 11.911h6.711v-2.69h-3.67V5.788h-3.042v11.834zm-4.511 0h2.844v-9.48h-2.798v.98c-.841-.78-1.545-1.163-2.691-1.163-2.6 0-4.526 2.34-4.526 4.97 0 3.042 1.773 4.922 4.373 4.922 1.773 0 2.798-1.162 2.798-1.162v.933zm.137-4.663c0 1.376-1.04 2.309-2.309 2.309-1.3 0-2.125-1.086-2.125-2.4 0-1.255.872-2.264 2.217-2.264 1.239.015 2.217.963 2.217 2.355zM0 17.623h6.712v-2.69h-3.67V5.788H0v11.834zm29.693-9.48h-2.829v9.48h2.829v-9.48z"/>
    <path fill="url(#paint0_linear)" d="M67.492 7.179c-.677.212-1.59.319-2.739.319l-2.827-.088c-.486 0-.906.124-1.26.374-.345.242-.518.477-.518.704.625-.073 1.078-.11 1.358-.11 1.856 0 3.207.315 4.053.946.855.624 1.282 1.841 1.282 3.653v1.75c0 .917-.299 1.683-.895 2.3-.596.616-1.37.924-2.32.924-.655 0-1.218-.231-1.69-.693-.47-.462-.706-1.02-.706-1.673 0-.623.225-1.163.674-1.617.449-.463 1.016-.712 1.7-.748v-.243c0-.931-.165-1.573-.496-1.925-.324-.36-.85-.54-1.58-.54-.5 0-.983.019-1.447.056-.456.029-.88.073-1.27.132-.383.051-.707.11-.972.176l-.75.209H57V9.73c0-1.547.412-2.688 1.237-3.422.825-.74 2.073-1.11 3.744-1.11l2.772.087c.412 0 .795-.015 1.149-.044.353-.03.644-.066.872-.11l.63-.132h.088v2.179zm-3.865 9.352c.257 0 .478-.091.662-.275.192-.19.287-.414.287-.67 0-.258-.095-.478-.287-.661-.184-.19-.405-.286-.662-.286-.258 0-.483.095-.674.286-.184.183-.276.403-.276.66s.092.48.276.671c.191.184.416.276.674.276z"/>
    <path fill="url(#paint1_linear)" d="M67.184 20.955c0 .931-.46 1.397-1.38 1.397H61.96V21.34c-.472-.052-.836-.231-1.094-.54-.265-.3-.397-.656-.397-1.067 0-.432.165-.806.497-1.122.331-.315.718-.473 1.16-.473.434 0 .806.158 1.115.473.309.323.464.704.464 1.144v1.354h1.292c.302 0 .453-.158.453-.473v-2.168h1.734v2.487zm-5.059-.77c.11 0 .21-.044.298-.133.089-.087.133-.186.133-.297 0-.102-.044-.201-.133-.297-.088-.088-.187-.132-.298-.132-.11 0-.21.044-.298.132-.088.096-.132.195-.132.297 0 .11.044.21.132.297.081.088.18.133.298.133z"/>
    <path fill="url(#paint2_linear)" d="M82.293 17.797H79.08c-.28-.396-.81-.84-1.59-1.332-.913-.572-1.786-.982-2.618-1.232-.059.697-.342 1.328-.85 1.893-.508.543-1.296.817-2.364.825-.662 0-1.23-.227-1.7-.682-.464-.462-.696-1.024-.696-1.684 0-.609.235-1.159.707-1.65.47-.492 1.034-.756 1.69-.793V9.973c-.649-.036-1.212-.286-1.69-.748-.472-.462-.707-1.016-.707-1.661 0-.66.232-1.218.696-1.673.47-.462 1.038-.693 1.7-.693.935 0 1.705.304 2.309.913.603.61.905 1.38.905 2.311v4.864c.619.088 1.362.33 2.231.726.92.418 1.58.832 1.977 1.243V5.517h3.214v12.28zM72.607 7.564c0-.257-.096-.477-.287-.66-.184-.191-.405-.287-.663-.287-.257 0-.482.096-.673.287-.184.183-.276.403-.276.66s.092.48.276.671c.191.183.416.275.673.275.258 0 .479-.092.663-.275.191-.19.287-.414.287-.671zm0 8.021c0-.257-.096-.477-.287-.66-.184-.19-.405-.286-.663-.286-.257 0-.482.095-.673.286-.184.183-.276.403-.276.66s.092.48.276.671c.191.184.416.276.673.276.258 0 .479-.092.663-.276.191-.19.287-.414.287-.67z"/>
    <defs>
        <linearGradient id="paint0_linear" x1="55.553" x2="86.264" y1="22.492" y2="22.492" gradientUnits="userSpaceOnUse">
            <stop stop-color="#A87D35"/>
            <stop offset="1" stop-color="#D5AF71"/>
        </linearGradient>
        <linearGradient id="paint1_linear" x1="55.553" x2="86.264" y1="22.492" y2="22.492" gradientUnits="userSpaceOnUse">
            <stop stop-color="#A87D35"/>
            <stop offset="1" stop-color="#D5AF71"/>
        </linearGradient>
        <linearGradient id="paint2_linear" x1="55.553" x2="86.264" y1="22.492" y2="22.492" gradientUnits="userSpaceOnUse">
            <stop stop-color="#A87D35"/>
            <stop offset="1" stop-color="#D5AF71"/>
        </linearGradient>
    </defs>
</svg>
