<svg xmlns="http://www.w3.org/2000/svg" viewBox="0 0 40 40"><defs><style>.a{fill:#ff0;}.b{fill:none;}</style></defs><title>JoinNow</title><path class="a" d="M20.11,29a8.76,8.76,0,0,1,3.38-6.93c-1.55-1.13-1.38-1.59-1.38-1.59v-.82c1.37-1.14,2.11-3.86,2.11-3.86a3.14,3.14,0,0,0,1-1.56,2.88,2.88,0,0,0-.53-1.93V9c0-6-6.44-5.41-6.44-5.41S11.81,3,11.81,9v3.36a2.87,2.87,0,0,0-.54,1.93,3.21,3.21,0,0,0,1,1.56s.74,2.72,2.12,3.86v.82s.53,1.47-9.21,5.64c0,0-1.53.51-1.53,1.33v3.71a1,1,0,0,0,1,.86h16A8.88,8.88,0,0,1,20.11,29Z"/><path class="a" d="M28.94,21.59A7.42,7.42,0,1,0,36.36,29,7.42,7.42,0,0,0,28.94,21.59Zm4.62,8.75H30.31v3.24H27.56V30.34H24.32V27.58h3.24V24.34h2.75v3.24h3.25Z"/><rect class="b" width="40" height="40"/><rect class="b" width="40" height="40"/></svg>