<svg width="25" height="25" viewBox="0 0 25 25" fill="none" xmlns="http://www.w3.org/2000/svg">
<path d="M12.6953 0.9375C6.16406 0.9375 0.820312 6.28125 0.820312 12.8125C0.820312 19.3438 6.16406 24.6875 12.6953 24.6875C19.2266 24.6875 24.5703 19.3438 24.5703 12.8125C24.5703 6.28125 19.2266 0.9375 12.6953 0.9375ZM19.5977 3.68359L20.7852 4.64844L21.75 5.83594L20.1172 7.46875L17.9648 5.31641L19.5977 3.68359ZM18.7813 14.4453L19.6719 14.668C19.5234 15.0391 19.375 15.4844 19.2266 15.8555L18.4102 15.4844C18.5586 15.1875 18.707 14.8164 18.7813 14.4453ZM18.4102 10.1406L19.2266 9.76953C19.375 10.1406 19.5234 10.5859 19.6719 10.957L18.7813 11.1797C18.707 10.8086 18.6328 10.4375 18.4102 10.1406ZM19.0039 13.4062C19.0039 13.1836 19.0039 12.9609 19.0039 12.8125C19.0039 12.6641 19.0039 12.5156 19.0039 12.3672L19.8945 12.293C19.8945 12.4414 19.8945 12.6641 19.8945 12.8125C19.8945 13.0352 19.8945 13.2578 19.8945 13.5547L19.0039 13.4062ZM17.8164 7.69141C18.1133 7.98828 18.4102 8.28516 18.6328 8.65625L17.8906 9.17578C17.668 8.87891 17.4453 8.58203 17.2227 8.28516L17.8164 7.69141ZM18.2617 12.8867C18.2617 16.0039 15.7383 18.5273 12.6211 18.5273C9.50391 18.5273 6.98047 16.0039 6.98047 12.8867C6.98047 9.76953 9.50391 7.24609 12.6211 7.24609C15.7383 7.24609 18.2617 9.76953 18.2617 12.8867ZM15.8125 6.20703C16.1836 6.35547 16.5547 6.57812 16.9258 6.875L16.4062 7.61719C16.1094 7.39453 15.8125 7.24609 15.4414 7.02344L15.8125 6.20703ZM14.4023 6.65234C14.0312 6.57812 13.6602 6.50391 13.2891 6.42969L13.3633 5.53906C13.8086 5.61328 14.1797 5.6875 14.625 5.76172L14.4023 6.65234ZM11.1367 1.45703L12.6953 1.23438L14.1797 1.45703V3.75781H11.1367V1.45703ZM12.1016 5.53906L12.1758 6.42969C11.8047 6.42969 11.4336 6.50391 11.0625 6.57813L10.8398 5.6875C11.2852 5.61328 11.7305 5.53906 12.1016 5.53906ZM9.65234 6.13281L10.0234 6.94922C9.65234 7.09766 9.35547 7.24609 9.05859 7.46875L8.53906 6.72656C8.91016 6.50391 9.28125 6.35547 9.65234 6.13281ZM8.24219 8.21094C7.94531 8.43359 7.72266 8.73047 7.5 9.02734L6.75781 8.50781C6.98047 8.13672 7.27734 7.83984 7.57422 7.54297L8.24219 8.21094ZM6.3125 13.1836L5.42187 13.2578C5.42187 13.1094 5.42187 12.8867 5.42187 12.7383C5.42187 12.5156 5.42187 12.293 5.42187 11.9961L6.3125 12.0703C6.3125 12.293 6.3125 12.5156 6.3125 12.6641C6.3125 12.8867 6.3125 13.0352 6.3125 13.1836ZM6.53516 14.2969C6.60937 14.668 6.75781 15.0391 6.90625 15.3359L6.08984 15.707C5.94141 15.3359 5.79297 14.8906 5.64453 14.5195L6.53516 14.2969ZM6.53516 11.0313L5.64453 10.8086C5.79297 10.4375 5.94141 9.99219 6.08984 9.62109L6.90625 9.99219C6.75781 10.3633 6.68359 10.6602 6.53516 11.0313ZM4.53125 4.64844L5.71875 3.68359L7.35156 5.31641L5.19922 7.46875L3.56641 5.83594L4.53125 4.64844ZM1.11719 12.8125L1.33984 11.3281H3.64063V14.3711H1.33984L1.11719 12.8125ZM5.71875 21.9414L4.53125 20.9766L3.56641 19.7891L5.19922 18.1563L7.35156 20.3086L5.71875 21.9414ZM7.5 17.7852C7.20312 17.4883 6.90625 17.1914 6.68359 16.8203L7.42578 16.3008C7.64844 16.5977 7.87109 16.8945 8.09375 17.1914L7.5 17.7852ZM9.50391 19.2695C9.13281 19.1211 8.76172 18.8984 8.39062 18.6016L8.91016 17.8594C9.20703 18.082 9.50391 18.2305 9.875 18.4531L9.50391 19.2695ZM10.9141 18.8242C11.2852 18.8984 11.6563 18.9727 12.0273 19.0469L11.9531 19.9375C11.5078 19.8633 11.1367 19.7891 10.6914 19.7148L10.9141 18.8242ZM14.2539 24.168L12.6953 24.3164L11.1367 24.168V21.8672H14.1797V24.168H14.2539ZM13.2148 19.9375L13.1406 19.0469C13.5117 19.0469 13.8828 18.9727 14.2539 18.8984L14.4766 19.7891C14.0312 19.8633 13.5859 19.9375 13.2148 19.9375ZM15.6641 19.3437L15.293 18.5273C15.6641 18.3789 15.9609 18.2305 16.2578 18.0078L16.7773 18.75C16.4062 18.9727 16.0352 19.1953 15.6641 19.3437ZM17.0742 17.2656C17.3711 17.043 17.5937 16.7461 17.8164 16.4492L18.5586 16.9688C18.3359 17.3398 18.0391 17.6367 17.7422 17.9336L17.0742 17.2656ZM20.8594 20.9766L19.6719 21.9414L18.0391 20.3086L20.1914 18.1563L21.8242 19.7891L20.8594 20.9766ZM21.75 14.2969V11.2539H24.0508L24.1992 12.8125L23.9766 14.2969H21.75Z" fill="white"/>
<path d="M14.7 14.8164C15.9617 14.5195 15.8875 13.1094 15.2937 12.3672C14.7 11.625 13.0672 10.8086 12.7703 9.17578C12.3992 10.8828 10.8406 11.6992 10.2468 12.3672C9.65309 13.1094 9.57887 14.5195 10.8406 14.8164C12.1023 15.1133 12.5476 13.9258 12.5476 13.9258C12.5476 16.5234 10.4695 16.2266 10.4695 16.2266V16.4492H12.6961H15.0711V16.2266C15.0711 16.2266 12.9929 16.5234 12.9929 13.9258C12.9929 13.9258 13.4382 15.1133 14.7 14.8164Z" fill="white"/>
</svg>
