<svg width="49" height="48" viewBox="0 0 49 48" fill="none" xmlns="http://www.w3.org/2000/svg">
<path d="M40.9056 19.6553C40.8851 19.6757 40.8647 19.7166 40.8442 19.7371C40.8442 19.7575 40.8442 19.778 40.8442 19.7984C40.8442 19.7371 40.8647 19.6962 40.9056 19.6553Z" fill="white"/>
<path d="M40.2716 20.4727C40.2512 20.534 40.2307 20.5954 40.2307 20.6567C40.2307 20.5954 40.2512 20.5136 40.2716 20.4727Z" fill="white"/>
<path d="M40.2919 20.9434C40.4556 20.6161 40.5987 20.2889 40.7419 19.9821C40.7419 19.9412 40.7419 19.9003 40.7214 19.8799C40.5783 20.0639 40.4351 20.2685 40.2715 20.4525C40.2919 20.6161 40.2919 20.7798 40.2919 20.9434Z" fill="white"/>
<path d="M40.2102 20.575C40.2307 20.5546 40.2307 20.5341 40.2511 20.5137C40.2511 20.5341 40.2307 20.5341 40.2307 20.5546C40.2102 20.5546 40.2102 20.5546 40.2102 20.575Z" fill="white"/>
<path d="M42.4805 24.6657C42.5623 24.3999 42.6645 24.1135 42.7463 23.8477C42.6645 23.9908 42.6032 24.134 42.5214 24.2771C42.5009 24.3999 42.5009 24.5226 42.4805 24.6657Z" fill="white"/>
<path d="M1.08596 20.7998C1.0246 20.943 1.00415 21.0861 1.00415 21.2497C1.0246 21.1066 1.04505 20.943 1.08596 20.7998Z" fill="white"/>
<path d="M1.08598 20.8004C1.08598 21.2299 1.08598 21.6798 1.08598 22.1093C1.10643 22.3343 1.12688 22.5592 1.08598 22.7433C1.02462 23.0501 0.983718 23.3773 0.922363 23.6841V27.0995C2.12902 24.5839 3.23341 22.0275 4.21509 19.4506C4.21509 19.9414 4.21509 20.4118 4.21509 20.9026C4.23554 21.0867 4.23554 21.2503 4.21509 21.3935C4.11283 22.2524 3.99012 23.091 3.88786 23.9499C4.84909 21.6798 5.60581 19.3278 6.19891 16.935C6.19891 17.2622 6.19891 17.6099 6.19891 17.9371C6.23981 18.2644 6.26026 18.5711 6.19891 18.8779C5.99439 19.7573 5.83078 20.6572 5.68762 21.5571C6.6284 19.88 7.61008 18.2235 8.65312 16.6078C8.59176 16.6896 8.61221 16.8532 8.61221 17.0373C8.61221 16.9145 8.63266 16.7714 8.63266 16.6487C8.63266 16.8327 8.63266 16.9964 8.63266 17.1804C8.93944 16.526 9.24622 15.8715 9.53254 15.2171C9.28712 15.7488 9.75751 16.5669 9.55299 17.1191C9.96203 16.526 10.3915 15.9329 10.821 15.3602C10.821 15.6465 10.821 15.9124 10.821 16.1987C10.821 16.2601 10.8415 16.301 10.8415 16.3419C10.8415 16.4442 10.8619 16.6078 10.8824 16.7918C10.9437 16.71 10.9846 16.6282 11.046 16.5464C11.046 16.71 11.046 16.8532 11.046 17.0168C11.3527 16.526 11.6595 16.0351 11.9663 15.5647C11.9663 15.6261 11.9663 15.6874 11.9663 15.7488C11.9867 15.7079 12.0277 15.667 12.0481 15.6261C12.0686 15.5852 12.089 15.5443 12.1095 15.5034V15.5238C12.6617 14.6853 13.2343 13.8468 13.807 13.0287C13.807 13.315 13.807 13.5809 13.807 13.8672C13.807 13.9286 13.8274 13.9695 13.8274 14.0104C13.8274 14.2967 13.9092 14.7058 13.807 14.9921C13.6638 15.4829 13.5002 15.9738 13.357 16.4646C13.4797 16.301 13.6024 16.1169 13.7251 15.9533C13.7251 16.2396 13.7251 16.5055 13.7251 16.7918C13.7251 16.8532 13.7456 16.8941 13.7456 16.935C13.7456 16.9964 13.7456 17.0577 13.7456 17.1395C13.7865 17.0577 13.8274 16.9759 13.8683 16.8941C13.8683 17.0168 13.8683 17.1191 13.8683 17.2418C13.8888 17.2213 13.9297 17.1804 13.9501 17.16C14.4205 16.6282 14.9113 16.076 15.5249 15.6874C15.7294 15.5647 16.0566 15.3398 16.343 15.258C16.4248 15.0943 16.5066 14.9512 16.5884 14.7876C16.8134 14.2354 17.0588 13.7036 17.2837 13.1514C17.2837 13.315 17.2837 13.4787 17.2837 13.6218C17.3246 13.5605 17.3451 13.5196 17.386 13.4582C17.386 13.7445 17.386 14.0104 17.386 14.2967C17.386 14.3581 17.4065 14.399 17.4065 14.4399C17.4065 14.7467 17.4678 15.1148 17.386 15.4216C17.3042 15.7692 17.2224 16.1169 17.1406 16.4442C17.1815 16.7509 17.2428 17.0782 17.2837 17.3849C17.4474 17.0782 17.611 16.7918 17.7746 16.4851C17.7132 16.5669 17.7337 16.7509 17.7541 16.935C17.7541 16.7918 17.7746 16.6487 17.7746 16.5055C17.7746 16.7305 17.7746 16.935 17.7746 17.16C17.7746 17.2213 17.795 17.2827 17.795 17.3236C17.795 17.4463 17.795 17.5485 17.795 17.6713C17.8768 17.5485 17.9382 17.4258 18.02 17.3236C17.9587 17.4054 17.9791 17.569 17.9791 17.7531C17.9791 17.6304 17.9996 17.4872 17.9996 17.3645C17.9996 17.5485 17.9996 17.7122 17.9996 17.8962C18.3063 17.2418 18.6131 16.5873 18.8994 15.9329C18.7358 16.2805 18.879 16.7509 18.9403 17.1804C18.9812 17.0986 19.0221 17.0168 19.063 16.935C19.063 17.0986 19.063 17.2418 19.063 17.4054C19.4312 16.7918 19.7993 16.1783 20.147 15.5647C20.1061 15.6465 20.1061 15.8102 20.1061 15.9533C20.1265 15.8306 20.1265 15.7079 20.1265 15.6056C20.1265 15.7488 20.1265 15.892 20.1265 16.0351C20.2083 15.8715 20.2901 15.7079 20.372 15.5647C20.372 15.7897 20.372 15.9942 20.372 16.2192C21.0264 15.1966 21.7013 14.174 22.3967 13.1514C22.3967 13.4378 22.3967 13.7036 22.3967 13.9899C22.3967 14.0513 22.4171 14.0922 22.4171 14.1331C22.4171 14.3376 22.4376 14.5626 22.4376 14.7876C22.4989 14.6444 22.5807 14.5217 22.6421 14.3785C22.6421 14.4399 22.6421 14.4808 22.6421 14.5421C22.8262 14.2763 22.9898 14.0309 23.1738 13.765C23.1738 14.0513 23.1738 14.3172 23.1738 14.6035C23.1738 14.6649 23.1943 14.7058 23.1943 14.7467C23.1943 15.033 23.2761 15.442 23.1738 15.7283C23.092 15.9533 23.0307 16.1987 22.9489 16.4237C22.9489 16.5669 22.9489 16.71 22.9489 16.8532C22.9898 16.7918 23.0307 16.7305 23.0716 16.6896C23.0716 16.935 23.0716 17.16 23.0716 17.4054C23.542 16.8123 23.9919 16.1987 24.4623 15.6056C24.585 15.3602 24.7282 15.1148 24.8713 14.8694C25.0963 14.3172 25.3417 13.7854 25.5667 13.2332C25.5667 13.3968 25.5667 13.5605 25.5667 13.7036C25.6076 13.6423 25.6281 13.6014 25.669 13.54C25.669 13.7036 25.669 13.8468 25.669 14.0104C25.7303 13.949 25.7917 13.9899 25.9144 14.174C26.078 14.4399 26.0575 14.808 26.0575 15.0943C26.0575 15.3602 26.078 15.6261 26.078 15.892C26.303 15.8306 26.3848 15.9533 26.3234 16.2601C26.3439 16.3828 26.3643 16.5055 26.3848 16.6282C26.4052 16.7509 26.4257 16.8532 26.4461 16.9759C27.2028 15.7079 27.98 14.4399 28.7367 13.1719C28.7367 13.4991 28.7367 13.8059 28.7367 14.1331C28.8185 14.5012 28.8799 14.8694 28.7367 15.1148C28.7776 15.3807 28.7981 15.6261 28.7163 15.8102C28.6345 15.9738 28.5731 16.1578 28.4913 16.3214C28.4913 16.4033 28.4913 16.4851 28.4913 16.5669C29.2071 15.442 29.9434 14.3172 30.7001 13.2128C30.7001 13.4991 30.7001 13.765 30.7001 14.0513C30.7001 14.1127 30.7205 14.1536 30.7205 14.1945C30.7205 14.4194 30.741 14.6444 30.741 14.8898C30.9864 14.5421 31.2318 14.174 31.4772 13.8263C31.4772 14.1127 31.4772 14.3785 31.4772 14.6649C31.4772 14.7262 31.4977 14.7671 31.4977 14.808C31.4977 15.0943 31.5795 15.5034 31.4772 15.7897C31.375 16.1374 31.2523 16.5055 31.15 16.8532C31.4363 16.2601 31.7227 15.6874 32.0294 15.0943C32.0294 15.5443 32.0294 15.9738 32.0294 16.4237C32.0294 16.4851 32.0499 16.5464 32.0499 16.6078C32.3976 16.1374 32.7657 15.6874 33.1134 15.2171C33.3179 14.9512 33.5224 14.6853 33.7065 14.4399C33.9519 14.1127 33.9519 13.8263 34.2178 14.2354C34.3814 14.5012 34.3609 14.8694 34.3609 15.1557C34.3609 15.1966 34.3609 15.2375 34.3609 15.2784C34.545 14.8285 34.7495 14.3785 34.9336 13.9286C34.9336 14.0922 34.9336 14.2558 34.9336 14.399C34.9745 14.3376 34.9949 14.2967 35.0358 14.2354C35.0358 14.5217 35.0358 14.7876 35.0358 15.0739C35.0358 15.1352 35.0563 15.1761 35.0563 15.2171C35.0563 15.5238 35.1177 15.892 35.0358 16.1987C34.9949 16.3828 34.954 16.5873 34.8927 16.7714C35.6085 15.5852 36.3243 14.399 37.0606 13.2128C37.0606 13.54 37.0606 13.8468 37.0606 14.174C37.1424 14.5421 37.2037 14.9103 37.0606 15.1557C37.1015 15.4216 37.1219 15.667 37.0401 15.8511C36.447 17.2418 35.813 18.6325 35.1586 19.9823C35.179 20.1459 35.179 20.2891 35.1995 20.4527C35.2813 20.33 35.3631 20.2277 35.4449 20.105C35.6494 19.6346 35.8335 19.1847 36.038 18.7143C36.1402 18.4689 36.2425 18.2439 36.3448 17.9985C36.4675 17.5281 36.5493 17.5281 36.5493 17.9985C36.5493 18.0189 36.5697 18.0394 36.5697 18.0598C36.6311 17.9371 36.6924 17.8349 36.7538 17.7122C36.7538 17.8758 36.7538 18.0189 36.7538 18.1826C37.1219 17.569 37.4901 16.9554 37.8377 16.3419C37.7968 16.4237 37.7968 16.5873 37.7968 16.7305C37.8173 16.6078 37.8173 16.4851 37.8173 16.3828C37.8173 16.6078 37.8173 16.8123 37.8173 17.0373V17.0577C37.8377 16.9759 37.8582 16.8941 37.8786 16.8123C37.8377 16.935 37.8173 17.0782 37.8173 17.2213C37.8173 17.2622 37.8173 17.3031 37.8173 17.344C37.8173 17.3236 37.8377 17.3236 37.8377 17.3031C37.8377 17.16 37.8582 16.9964 37.8582 16.8532C37.8582 16.9964 37.8582 17.1191 37.8582 17.2622C38.574 16.1374 39.3103 15.0125 40.067 13.9081C40.067 14.1945 40.067 14.4603 40.067 14.7467C40.067 14.808 40.0874 14.8489 40.0874 14.8898C40.0874 15.0943 40.1079 15.3193 40.1079 15.5443C40.1692 15.4011 40.251 15.2784 40.3124 15.1352C40.3124 15.5852 40.3124 16.0147 40.3124 16.4646C40.3328 16.6896 40.3533 16.8941 40.3124 17.0782C40.1488 17.8349 39.9852 18.5916 39.842 19.3483C39.8829 19.2869 39.9443 19.2256 39.9852 19.1642C40.2101 18.4893 40.4351 17.794 40.6396 17.0986C40.6396 17.3849 40.6396 17.6713 40.6396 17.9576C40.6601 17.9167 40.6805 17.9576 40.7419 18.1621C41.3145 17.4054 41.8872 16.6487 42.4803 15.9124C42.6848 15.6465 42.8893 15.3807 43.0734 15.1352C43.3188 14.808 43.3188 14.5217 43.5847 14.9307C43.7483 15.1966 43.7278 15.5647 43.7278 15.8511C43.7483 16.5055 43.7892 17.2009 43.7074 17.8349C43.6051 18.5711 43.2165 19.2256 42.7666 19.8391C42.7666 19.88 42.7666 19.921 42.7666 19.9414C43.9937 17.9167 45.2004 15.9124 46.4275 13.8877C46.4275 14.2149 46.4275 14.5217 46.4275 14.8489C46.5093 15.2171 46.5706 15.5852 46.4275 15.8306C46.4684 16.0965 46.4888 16.3419 46.407 16.526C45.773 18.0394 45.0776 19.5119 44.3618 20.9844C44.3618 21.1276 44.3618 21.2912 44.3618 21.4344C44.3823 21.598 44.3823 21.7412 44.3618 21.8843C44.2596 22.7024 44.1573 23.5 44.0551 24.3181C44.9549 22.0479 45.9366 19.8187 47.0001 17.6099V5.33887H0.922363V21.189C0.983718 21.0662 1.02462 20.9231 1.08598 20.8004Z" fill="white"/>
<path d="M42.7258 19.6143C42.7258 19.6347 42.7053 19.6347 42.7053 19.6552C42.7053 19.6961 42.7053 19.737 42.7258 19.7574V19.737C42.7258 19.7165 42.7258 19.6756 42.7258 19.6143Z" fill="white"/>
<path d="M43.1758 16.6688C42.8894 16.8733 42.6645 17.3232 42.4599 17.6095C41.9896 18.2435 41.4987 18.8571 41.0283 19.4911C41.0283 19.6752 41.0283 19.8592 41.0283 20.0228C41.3965 19.4706 41.785 18.9184 42.1736 18.3867C42.6645 17.7322 43.1553 17.0982 43.4621 16.362C43.3803 16.3006 43.278 16.4029 43.1758 16.6688Z" fill="white"/>
<path d="M30.782 28.736C30.8024 28.9814 30.8433 29.2472 30.9047 29.3495C31.2115 28.1838 31.5591 27.018 31.9273 25.8727C31.9273 25.8318 31.9477 25.7909 31.9477 25.75C31.9068 25.8114 31.8659 25.8932 31.825 25.9545C31.5796 26.9157 31.2319 27.8361 30.782 28.736Z" fill="white"/>
<path d="M33.1951 28.184C33.1951 28.1635 33.1951 28.1635 33.1951 28.184C33.1951 28.0817 33.2155 27.9999 33.2155 27.9181C33.2155 27.8158 33.2155 27.734 33.236 27.6522C33.2564 27.4068 33.2973 27.1409 33.3382 26.8955C33.1542 27.4682 32.9701 28.0204 32.7451 28.5725C32.9292 28.4498 33.0723 28.3067 33.1951 28.184Z" fill="white"/>
<path d="M28.4915 16.4436C28.4915 16.3618 28.5119 16.28 28.5119 16.1777C28.5119 16.1982 28.4915 16.1982 28.4915 16.2186C28.4915 16.3004 28.4915 16.3823 28.4915 16.4436Z" fill="white"/>
<path d="M39.208 17.0988C39.3103 16.8738 39.433 16.6489 39.5352 16.4443C39.433 16.6079 39.3103 16.7716 39.208 16.9352C39.208 16.9761 39.208 17.0374 39.208 17.0988Z" fill="white"/>
<path d="M25.8328 17.7324C25.8328 17.7733 25.8328 17.8346 25.8328 17.8755C25.8328 17.8755 25.8328 17.8755 25.8328 17.896C25.8737 17.8346 25.8941 17.7733 25.935 17.7119C25.8941 17.7119 25.8532 17.7119 25.8328 17.7324Z" fill="white"/>
<path d="M38.4308 20.923C38.4921 20.698 38.5535 20.473 38.6148 20.248C38.5126 20.473 38.3899 20.6775 38.2876 20.9025C38.2876 20.9639 38.2876 21.0252 38.2876 21.107C38.3285 21.0457 38.3899 20.9843 38.4308 20.923Z" fill="white"/>
<path d="M39.2081 17.1186C39.2081 17.0573 39.2081 16.9959 39.2081 16.9346C39.1876 16.955 39.1672 16.9959 39.1467 17.0164C39.1467 17.0777 39.1467 17.1391 39.1672 17.18C39.1876 17.18 39.1876 17.1391 39.2081 17.1186Z" fill="white"/>
<path d="M35.6699 28.2441C35.6495 28.2646 35.6495 28.285 35.629 28.3055C35.4654 28.8372 35.3018 29.369 35.1382 29.9007C35.2813 29.6962 35.4245 29.4712 35.5472 29.2667C35.5268 29.0418 35.5063 28.8372 35.5677 28.6532C35.6086 28.51 35.6495 28.3873 35.6699 28.2441Z" fill="white"/>
<path d="M33.9109 15.8512C33.9313 15.8307 33.9722 15.8307 33.9927 15.8103C34.0131 15.7694 34.0336 15.7489 34.0541 15.708C34.0131 15.708 33.9518 15.7489 33.9109 15.8512Z" fill="white"/>
<path d="M23.1942 13.6426C23.1738 13.663 23.1533 13.7244 23.1533 13.7653C23.1738 13.7244 23.1942 13.6835 23.1942 13.6426Z" fill="white"/>
<path d="M30.7203 13.0488C30.6794 13.1102 30.659 13.2124 30.6794 13.3352C30.6794 13.2329 30.6999 13.1306 30.7203 13.0488Z" fill="white"/>
<path d="M31.4772 13.6426C31.4567 13.663 31.4363 13.7244 31.4363 13.7653C31.4567 13.7244 31.4772 13.6835 31.4772 13.6426Z" fill="white"/>
<path d="M25.6896 13.3975C25.6487 13.4384 25.6487 13.5202 25.6487 13.602C25.6487 13.5202 25.6691 13.4588 25.6896 13.3975Z" fill="white"/>
<path d="M32.0091 14.8906C31.9477 15.0133 31.9272 15.1565 31.9272 15.2997C31.9681 15.1769 31.9886 15.0338 32.0091 14.8906Z" fill="white"/>
<path d="M36.7334 17.5283C36.6925 17.6101 36.6516 17.7328 36.6516 17.8351C36.6721 17.7328 36.713 17.6306 36.7334 17.5283Z" fill="white"/>
<path d="M35.0358 14.0303C34.9949 14.0712 34.9949 14.153 34.9949 14.2348C34.9949 14.1734 35.0153 14.1121 35.0358 14.0303Z" fill="white"/>
<path d="M40.292 14.8906C40.2307 15.0133 40.2102 15.1565 40.2102 15.2997C40.2511 15.1769 40.2716 15.0338 40.292 14.8906Z" fill="white"/>
<path d="M40.067 13.6836C40.0261 13.7449 40.0056 13.8472 40.0261 13.9699C40.0465 13.8881 40.067 13.7859 40.067 13.6836Z" fill="white"/>
<path d="M23.1124 16.5469C23.0715 16.6082 23.051 16.7105 23.0715 16.8332C23.0715 16.7309 23.092 16.6491 23.1124 16.5469Z" fill="white"/>
<path d="M22.4376 13.0488C22.3967 13.1102 22.3762 13.2124 22.3967 13.3352C22.3967 13.2329 22.4171 13.1306 22.4376 13.0488Z" fill="white"/>
<path d="M13.7457 15.8916C13.7048 15.953 13.6843 16.0552 13.7048 16.1779C13.7253 16.0757 13.7457 15.9939 13.7457 15.8916Z" fill="white"/>
<path d="M13.8478 12.9873C13.8273 13.0078 13.8069 13.0691 13.8069 13.11C13.8273 13.0896 13.8273 13.0282 13.8478 12.9873Z" fill="white"/>
<path d="M13.8887 16.8125C13.8478 16.8943 13.8273 16.9966 13.8069 17.0988C13.8478 16.9966 13.8682 16.9148 13.8887 16.8125Z" fill="white"/>
<path d="M11.9867 15.5449C11.9663 15.5654 11.9663 15.6063 11.9458 15.6472C11.9663 15.6063 11.9867 15.5654 11.9867 15.5449Z" fill="white"/>
<path d="M17.4064 13.3975C17.3655 13.4384 17.3655 13.5202 17.3655 13.602C17.3655 13.5202 17.3859 13.4588 17.4064 13.3975Z" fill="white"/>
<path d="M25.6282 15.8503C25.6895 15.8299 25.7509 15.8094 25.8122 15.7889C25.8122 15.7685 25.8327 15.748 25.8327 15.7276C25.7713 15.6867 25.6895 15.7071 25.6282 15.8503Z" fill="white"/>
<path d="M4.21511 19.4512C4.15375 19.6148 4.1333 19.8193 4.1333 20.0238C4.1742 19.8398 4.19466 19.6352 4.21511 19.4512Z" fill="white"/>
<path d="M22.6215 14.4808C22.6419 14.399 22.6624 14.3172 22.6624 14.2559C22.6215 14.3377 22.601 14.4195 22.5806 14.5217C22.601 14.5013 22.601 14.5013 22.6215 14.4808Z" fill="white"/>
<path d="M19.0833 16.873C19.0424 16.9549 19.0015 17.0776 19.0015 17.1798C19.0424 17.0776 19.0628 16.9753 19.0833 16.873Z" fill="white"/>
<path d="M39.5763 18.2852C39.5763 18.3056 39.5558 18.3056 39.5558 18.3261C39.4535 18.7964 39.3513 19.2668 39.249 19.7372C39.2695 19.7168 39.2695 19.6963 39.2899 19.6759C39.3922 19.2055 39.4944 18.7555 39.5763 18.2852Z" fill="white"/>
<path d="M22.1921 33.0297C22.233 32.9888 22.233 32.907 22.233 32.8252C22.233 32.8866 22.2126 32.9684 22.1921 33.0297Z" fill="white"/>
<path d="M24.6873 32.7848C24.7077 32.7644 24.7282 32.703 24.7282 32.6621C24.7077 32.703 24.6873 32.7439 24.6873 32.7848Z" fill="white"/>
<path d="M24.769 29.8811C24.8099 29.8197 24.8304 29.7174 24.8099 29.5947C24.8099 29.697 24.7895 29.7788 24.769 29.8811Z" fill="white"/>
<path d="M22.2536 30.5762C22.1922 30.5966 22.1309 30.6171 22.0695 30.6375C22.0695 30.658 22.0491 30.6784 22.0491 30.6989C22.1309 30.7398 22.1922 30.6989 22.2536 30.5762Z" fill="white"/>
<path d="M25.2599 31.9462C25.2394 32.028 25.219 32.1098 25.219 32.1711C25.2599 32.0893 25.2803 32.0075 25.3008 31.9053C25.2803 31.9257 25.2803 31.9257 25.2599 31.9462Z" fill="white"/>
<path d="M15.8726 31.5174C15.9339 31.3947 15.9544 31.2516 15.9544 31.1084C15.9135 31.2516 15.893 31.3947 15.8726 31.5174Z" fill="white"/>
<path d="M17.1611 33.3781C17.202 33.3168 17.2225 33.2145 17.202 33.0918C17.202 33.1941 17.1816 33.2759 17.1611 33.3781Z" fill="white"/>
<path d="M12.8457 32.3959C12.8866 32.355 12.8866 32.2732 12.8866 32.1914C12.8866 32.2528 12.8662 32.3141 12.8457 32.3959Z" fill="white"/>
<path d="M16.4043 32.7848C16.4247 32.7644 16.4452 32.703 16.4452 32.6621C16.4247 32.703 16.4043 32.7439 16.4043 32.7848Z" fill="white"/>
<path d="M11.1482 28.8995C11.1891 28.8177 11.23 28.695 11.23 28.5928C11.2095 28.695 11.1891 28.7973 11.1482 28.8995Z" fill="white"/>
<path d="M43.6665 26.9769C43.7279 26.8133 43.7483 26.6088 43.7483 26.4043C43.7074 26.5884 43.687 26.7929 43.6665 26.9769Z" fill="white"/>
<path d="M46.8162 25.6267C46.8775 25.4835 46.898 25.3404 46.898 25.1768C46.8571 25.3199 46.8366 25.4835 46.8162 25.6267Z" fill="white"/>
<path d="M35.8948 30.8835C35.9152 30.863 35.9152 30.8221 35.9357 30.7607C35.9152 30.8016 35.8948 30.8425 35.8948 30.8835Z" fill="white"/>
<path d="M46.816 25.6273C46.816 25.1978 46.816 24.7478 46.816 24.3183C46.7956 24.0934 46.7751 23.8684 46.816 23.6843C46.8774 23.3776 46.9183 23.0503 46.9797 22.7436V19.3281C45.773 21.8437 44.6686 24.3797 43.6869 26.9771C43.6869 26.4862 43.6869 26.0158 43.6869 25.525C43.6665 25.3409 43.6665 25.1773 43.6869 25.0342C43.7892 24.1752 43.9119 23.3367 44.0142 22.4777C43.0529 24.7478 42.2962 27.0998 41.7031 29.4926C41.7031 29.1654 41.7031 28.8177 41.7031 28.4905C41.6622 28.1633 41.6418 27.8565 41.7031 27.5497C41.9076 26.6703 42.0712 25.7704 42.2144 24.8705C41.2736 26.5476 40.2919 28.2042 39.2489 29.8199C39.3103 29.7381 39.2898 29.5744 39.2898 29.3904C39.2898 29.5131 39.2694 29.6562 39.2694 29.779C39.2694 29.5949 39.2694 29.4313 39.2694 29.2472C38.9626 29.9017 38.6558 30.5561 38.3695 31.2106C38.6149 30.6788 38.1445 29.8608 38.349 29.3086C37.94 29.9017 37.5105 30.4948 37.081 31.0674C37.081 30.7811 37.081 30.5152 37.081 30.2289C37.081 30.1675 37.0606 30.1266 37.0606 30.0857C37.0606 29.9835 37.0401 29.8199 37.0197 29.6358C36.9583 29.7176 36.9174 29.7994 36.8561 29.8812C36.8561 29.7176 36.8561 29.5744 36.8561 29.4108C36.5493 29.9017 36.2425 30.3925 35.9357 30.8629C35.9357 30.8015 35.9357 30.7402 35.9357 30.6788C35.9153 30.7197 35.8744 30.7606 35.8539 30.8015C35.8335 30.8424 35.813 30.8834 35.7926 30.9243V30.9038C35.2404 31.7423 34.6677 32.5808 34.0951 33.3989C34.0951 33.1126 34.0951 32.8467 34.0951 32.5604C34.0951 32.499 34.0746 32.4581 34.0746 32.4172C34.0746 32.1309 33.9928 31.7219 34.0951 31.4355C34.2382 30.9447 34.4018 30.4539 34.545 29.963C34.4223 30.1266 34.2996 30.3107 34.1769 30.4743C34.1769 30.188 34.1769 29.9221 34.1769 29.6358C34.1769 29.5744 34.1564 29.5335 34.1564 29.4926C34.1564 29.4313 34.1564 29.3699 34.1564 29.2881C34.1155 29.3699 34.0746 29.4517 34.0337 29.5335C34.0337 29.4108 34.0337 29.3086 34.0337 29.1859C34.0133 29.2063 33.9724 29.2472 33.9519 29.2677C33.4815 29.7994 32.9907 30.3516 32.3771 30.7402C32.1726 30.8629 31.8454 31.0879 31.5591 31.1697C31.4772 31.3333 31.3954 31.4765 31.3136 31.6401C31.0887 32.1923 30.8432 32.724 30.6183 33.2762C30.6183 33.1126 30.6183 32.949 30.6183 32.8058C30.5774 32.8672 30.5569 32.9081 30.516 32.9694C30.516 32.6831 30.516 32.4172 30.516 32.1309C30.516 32.0696 30.4956 32.0286 30.4956 31.9877C30.4956 31.681 30.4342 31.3128 30.516 31.0061C30.5978 30.6584 30.6796 30.3107 30.7614 29.9835C30.7205 29.6767 30.6592 29.3495 30.6183 29.0427C30.4547 29.3495 30.291 29.6358 30.1274 29.9426C30.1888 29.8608 30.1683 29.6767 30.1479 29.4926C30.1479 29.6358 30.1274 29.779 30.1274 29.9221C30.1274 29.6972 30.1274 29.4926 30.1274 29.2677C30.1274 29.2063 30.107 29.145 30.107 29.1041C30.107 28.9813 30.107 28.8791 30.107 28.7564C30.0252 28.8791 29.9638 29.0018 29.882 29.1041C29.9434 29.0222 29.9229 28.8586 29.9229 28.6746C29.9229 28.7973 29.9025 28.9404 29.9025 29.0631C29.9025 28.8791 29.9025 28.7155 29.9025 28.5314C29.5957 29.1859 29.2889 29.8403 29.0026 30.4948C29.1662 30.1471 29.023 29.6767 28.9617 29.2472C28.9208 29.329 28.8799 29.4108 28.839 29.4926C28.839 29.329 28.839 29.1859 28.839 29.0222C28.4708 29.6358 28.1027 30.2493 27.755 30.8629C27.7959 30.7811 27.7959 30.6175 27.7959 30.4743C27.7755 30.597 27.7755 30.7197 27.7755 30.822C27.7755 30.6788 27.7755 30.5357 27.7755 30.3925C27.6937 30.5561 27.6119 30.7197 27.5301 30.8629C27.5301 30.6379 27.5301 30.4334 27.5301 30.2084C26.8756 31.231 26.2007 32.2536 25.5053 33.2762C25.5053 32.9899 25.5053 32.724 25.5053 32.4377C25.5053 32.3763 25.4849 32.3354 25.4849 32.2945C25.4849 32.09 25.4644 31.865 25.4644 31.6401C25.4031 31.7832 25.3213 31.9059 25.2599 32.0491C25.2599 31.9877 25.2599 31.9468 25.2599 31.8855C25.0759 32.1514 24.9122 32.3968 24.7282 32.6627C24.7282 32.3763 24.7282 32.1105 24.7282 31.8241C24.7282 31.7628 24.7077 31.7219 24.7077 31.681C24.7077 31.3946 24.6259 30.9856 24.7282 30.6993C24.81 30.4743 24.8713 30.2289 24.9531 30.0039C24.9531 29.8608 24.9531 29.7176 24.9531 29.5744C24.9122 29.6358 24.8713 29.6972 24.8304 29.7381C24.8304 29.4926 24.8304 29.2677 24.8304 29.0222C24.36 29.6153 23.9101 30.2289 23.4397 30.822C23.317 31.0674 23.1738 31.3128 23.0307 31.5583C22.8057 32.1105 22.5603 32.6422 22.3353 33.1944C22.3353 33.0308 22.3353 32.8672 22.3353 32.724C22.2944 32.7854 22.274 32.8263 22.2331 32.8876C22.2331 32.724 22.2331 32.5808 22.2331 32.4172C22.1717 32.4786 22.1104 32.4377 21.9876 32.2536C21.824 31.9877 21.8445 31.6196 21.8445 31.3333C21.8445 31.0674 21.824 30.8015 21.824 30.5357C21.5991 30.597 21.5173 30.4743 21.5786 30.1675C21.5582 30.0448 21.5377 29.9221 21.5173 29.7994C21.4968 29.6767 21.4764 29.5744 21.4559 29.4517C20.6992 30.7197 19.922 31.9877 19.1653 33.2558C19.1653 32.9285 19.1653 32.6217 19.1653 32.2945C19.0835 31.9264 19.0221 31.5583 19.1653 31.3128C19.1244 31.047 19.104 30.8015 19.1858 30.6175C19.2676 30.4539 19.3289 30.2698 19.4107 30.1062C19.4107 30.0244 19.4107 29.9426 19.4107 29.8608C18.6949 30.9856 17.9587 32.1105 17.2019 33.2148C17.2019 32.9285 17.2019 32.6627 17.2019 32.3763C17.2019 32.315 17.1815 32.2741 17.1815 32.2332C17.1815 32.0082 17.161 31.7832 17.161 31.5378C16.9156 31.8855 16.6702 32.2536 16.4248 32.6013C16.4248 32.315 16.4248 32.0491 16.4248 31.7628C16.4248 31.7014 16.4043 31.6605 16.4043 31.6196C16.4043 31.3333 16.3225 30.9243 16.4248 30.6379C16.527 30.2903 16.6497 29.9221 16.752 29.5744C16.4657 30.1675 16.1794 30.7402 15.8726 31.3333C15.8726 30.8834 15.8726 30.4539 15.8726 30.0039C15.8726 29.9426 15.8521 29.8812 15.8521 29.8199C15.5044 30.2903 15.1363 30.7402 14.7886 31.2106C14.5841 31.4765 14.3796 31.7423 14.1955 31.9877C13.9501 32.315 13.9501 32.6013 13.6842 32.1923C13.5206 31.9264 13.5411 31.5583 13.5411 31.2719C13.5411 31.231 13.5411 31.1901 13.5411 31.1492C13.357 31.5992 13.1525 32.0491 12.9684 32.499C12.9684 32.3354 12.9684 32.1718 12.9684 32.0286C12.9275 32.09 12.9071 32.1309 12.8662 32.1923C12.8662 31.9059 12.8662 31.6401 12.8662 31.3537C12.8662 31.2924 12.8457 31.2515 12.8457 31.2106C12.8457 30.9038 12.7844 30.5357 12.8662 30.2289C12.9071 30.0448 12.948 29.8403 13.0093 29.6562C12.2935 30.8424 11.5777 32.0286 10.8415 33.2148C10.8415 32.8876 10.8415 32.5808 10.8415 32.2536C10.7596 31.8855 10.6983 31.5174 10.8415 31.2719C10.8005 31.0061 10.7801 30.7606 10.8619 30.5766C11.455 29.1859 12.089 27.7951 12.7435 26.4453C12.723 26.2817 12.723 26.1386 12.7026 25.9749C12.6208 26.0976 12.5389 26.1999 12.4571 26.3226C12.2526 26.793 12.0686 27.2429 11.864 27.7133C11.7618 27.9588 11.6595 28.1837 11.5573 28.4291C11.4346 28.8995 11.3527 28.8995 11.3527 28.4291C11.3527 28.4087 11.3323 28.3882 11.3323 28.3678C11.2709 28.4905 11.2096 28.5928 11.1482 28.7155C11.1482 28.5519 11.1482 28.4087 11.1482 28.2451C10.7801 28.8586 10.412 29.4722 10.0643 30.0857C10.1052 30.0039 10.1052 29.8403 10.1052 29.6972C10.0847 29.8199 10.0847 29.9426 10.0847 30.0448C10.0847 29.8199 10.0847 29.6153 10.0847 29.3904V29.3699C10.0643 29.4517 10.0438 29.5335 10.0234 29.6153C10.0643 29.4926 10.0847 29.3495 10.0847 29.2063C10.0847 29.1654 10.0847 29.1245 10.0847 29.0836C10.0847 29.1041 10.0643 29.1041 10.0643 29.1245C10.0643 29.2677 10.0438 29.4313 10.0438 29.5744C10.0438 29.4313 10.0438 29.3086 10.0438 29.1654C9.32802 30.2903 8.59176 31.4151 7.83505 32.5195C7.83505 32.2332 7.83505 31.9673 7.83505 31.681C7.83505 31.6196 7.8146 31.5787 7.8146 31.5378C7.8146 31.3333 7.79414 31.1083 7.79414 30.8834C7.73279 31.0265 7.65098 31.1492 7.58963 31.2924C7.58963 30.8424 7.58963 30.413 7.58963 29.963C7.56917 29.7381 7.54872 29.5335 7.58963 29.3495C7.75324 28.5928 7.91685 27.836 8.06002 27.0793C8.01911 27.1407 7.95776 27.202 7.91685 27.2634C7.69189 27.9383 7.46692 28.6337 7.2624 29.329C7.2624 29.0427 7.2624 28.7564 7.2624 28.47C7.24195 28.511 7.2215 28.47 7.16014 28.2655C6.58749 29.0222 6.01484 29.779 5.42174 30.5152C5.21723 30.7811 5.01271 31.047 4.82864 31.2924C4.58322 31.6196 4.58322 31.9059 4.31735 31.4969C4.15374 31.231 4.17419 30.8629 4.17419 30.5766C4.15374 29.9221 4.11283 29.2268 4.19464 28.5928C4.2969 27.8565 4.68548 27.202 5.13542 26.5885C5.13542 26.5476 5.13542 26.5067 5.13542 26.4862C3.90832 28.511 2.70166 30.5152 1.47456 32.5399C1.47456 32.2127 1.47456 31.9059 1.47456 31.5787C1.39275 31.2106 1.3314 30.8424 1.47456 30.597C1.43366 30.3312 1.4132 30.0857 1.49501 29.9017C2.12902 28.3882 2.82437 26.9157 3.54018 25.4432C3.54018 25.3 3.54018 25.1364 3.54018 24.9933C3.51973 24.8296 3.51973 24.6865 3.54018 24.5433C3.64244 23.7252 3.7447 22.9276 3.84696 22.1096C2.96754 24.5842 1.98585 26.8339 0.922363 29.0222V41.6614H46.9592V25.2387C46.9183 25.3614 46.8569 25.4841 46.816 25.6273Z" fill="white"/>
<path d="M33.9929 29.6154C34.0338 29.5336 34.0543 29.4314 34.0747 29.3291C34.0338 29.4109 34.0134 29.5132 33.9929 29.6154Z" fill="white"/>
<path d="M28.7981 29.5538C28.839 29.472 28.8799 29.3493 28.8799 29.2471C28.839 29.3493 28.8185 29.4516 28.7981 29.5538Z" fill="white"/>
<path d="M30.4751 33.0297C30.516 32.9888 30.516 32.907 30.516 32.8252C30.516 32.8866 30.4955 32.9684 30.4751 33.0297Z" fill="white"/>
<path d="M34.1357 30.5353C34.1766 30.474 34.1971 30.3717 34.1766 30.249C34.1562 30.3308 34.1357 30.4331 34.1357 30.5353Z" fill="white"/>
<path d="M34.0337 33.4196C34.0541 33.3991 34.0746 33.3378 34.0746 33.2969C34.0541 33.3378 34.0541 33.3787 34.0337 33.4196Z" fill="white"/>
<path d="M25.4441 33.3781C25.485 33.3168 25.5054 33.2145 25.485 33.0918C25.485 33.1941 25.4645 33.2759 25.4441 33.3781Z" fill="white"/>
<path d="M13.8274 30.7193C13.8683 30.7193 13.9297 30.6784 13.9706 30.5762C13.9501 30.5966 13.9092 30.5966 13.8887 30.6171C13.8683 30.6375 13.8478 30.6784 13.8274 30.7193Z" fill="white"/>
<path d="M9.2666 26.1783C9.36886 25.9533 9.49157 25.7488 9.59383 25.5239C9.59383 25.4625 9.59383 25.4011 9.59383 25.3193C9.55293 25.3807 9.51202 25.442 9.47112 25.483C9.38931 25.7284 9.32796 25.9533 9.2666 26.1783Z" fill="white"/>
<path d="M12.2119 18.183C12.2324 18.1625 12.2324 18.1421 12.2528 18.1216C12.4164 17.5899 12.58 17.0581 12.7437 16.5264C12.6005 16.7309 12.4573 16.9559 12.3346 17.1604C12.3551 17.3853 12.3755 17.5899 12.3142 17.7739C12.2733 17.9171 12.2324 18.0398 12.2119 18.183Z" fill="white"/>
<path d="M8.67358 29.472C8.69404 29.4515 8.71449 29.4106 8.73494 29.3902C8.73494 29.3288 8.73494 29.2675 8.71449 29.2266C8.69404 29.247 8.69404 29.2675 8.67358 29.2879C8.67358 29.3493 8.67358 29.4106 8.67358 29.472Z" fill="white"/>
<path d="M19.3901 30.1879C19.3901 30.1061 19.3901 30.0447 19.3901 29.9629C19.3901 30.0447 19.3696 30.1265 19.3696 30.2288C19.3901 30.2083 19.3901 30.2083 19.3901 30.1879Z" fill="white"/>
<path d="M21.967 28.7153C22.0079 28.7153 22.0284 28.6949 22.0693 28.6949C22.0693 28.654 22.0693 28.5926 22.0693 28.5517C22.0693 28.5517 22.0693 28.5517 22.0693 28.5312C22.0284 28.5926 21.9875 28.654 21.967 28.7153Z" fill="white"/>
<path d="M8.67342 29.3291C8.57116 29.5541 8.44845 29.779 8.34619 29.9836C8.44845 29.8199 8.57116 29.6563 8.67342 29.4927C8.67342 29.4314 8.67342 29.3905 8.67342 29.3291Z" fill="white"/>
<path d="M14.6864 18.2645C14.6864 18.3463 14.6659 18.4281 14.6659 18.5099C14.6659 18.6122 14.6659 18.694 14.6455 18.7758C14.625 19.0212 14.5841 19.2871 14.5432 19.5325C14.7273 18.9599 14.9113 18.4077 15.1363 17.8555C14.9727 17.9782 14.8091 18.1213 14.6864 18.2645C14.6864 18.2645 14.6864 18.2441 14.6864 18.2645Z" fill="white"/>
<path d="M7.81445 32.7238C7.85536 32.6625 7.87581 32.5602 7.85536 32.4375C7.83491 32.5398 7.8349 32.642 7.81445 32.7238Z" fill="white"/>
<path d="M15.9133 20.6786C15.9542 20.6173 15.9951 20.5354 16.036 20.4741C16.3019 19.5333 16.6496 18.5925 17.0791 17.6927C17.0586 17.4472 17.0177 17.1814 16.9564 17.0791C16.6496 18.2448 16.3019 19.4106 15.9338 20.5559C15.9338 20.5763 15.9338 20.6377 15.9133 20.6786Z" fill="white"/>
<path d="M4.706 29.7584C4.99233 29.5539 5.2173 29.1039 5.42181 28.8176C5.8922 28.1836 6.38304 27.57 6.85343 26.936C6.85343 26.752 6.85343 26.5679 6.85343 26.4043C6.4853 26.9565 6.09672 27.5087 5.70814 28.0404C5.21729 28.6949 4.72645 29.3289 4.41968 30.0652C4.50148 30.1061 4.60374 30.0243 4.706 29.7584Z" fill="white"/>
<path d="M5.15576 26.7926C5.15576 26.7721 5.17621 26.7721 5.17621 26.7517C5.17621 26.7108 5.17621 26.6699 5.15576 26.6494V26.6699C5.17621 26.7108 5.17621 26.7517 5.15576 26.7926Z" fill="white"/>
<path d="M7.5896 31.5174C7.65095 31.3947 7.67141 31.2516 7.67141 31.1084C7.6305 31.2516 7.61005 31.3947 7.5896 31.5174Z" fill="white"/>
<path d="M8.30542 28.1425C8.30542 28.1221 8.32587 28.1221 8.32587 28.1016C8.42813 27.6312 8.53039 27.1608 8.63265 26.6904C8.6122 26.7109 8.6122 26.7313 8.59174 26.7518C8.48949 27.2222 8.38723 27.6721 8.30542 28.1425Z" fill="white"/>
<path d="M5.40113 21.7617C5.31932 22.0276 5.21706 22.3139 5.13525 22.5798C5.21706 22.4366 5.27842 22.2935 5.36022 22.1503C5.38067 22.0276 5.38067 21.9049 5.40113 21.7617Z" fill="white"/>
<path d="M7.05794 26.6903C7.05794 26.6698 7.05794 26.6494 7.05794 26.6289C7.03749 26.6698 7.01703 26.7107 6.99658 26.7721C7.01703 26.7516 7.03749 26.7107 7.05794 26.6903Z" fill="white"/>
<path d="M7.60986 25.9546C7.63032 25.8932 7.65077 25.8319 7.65077 25.7705C7.65077 25.8319 7.63032 25.8932 7.60986 25.9546Z" fill="white"/>
<path d="M7.67127 25.8516C7.65082 25.872 7.65082 25.8925 7.63037 25.9129C7.63037 25.8925 7.65082 25.8925 7.65082 25.872C7.67128 25.872 7.67127 25.872 7.67127 25.8516Z" fill="white"/>
<path d="M7.58959 25.9752C7.58959 25.8115 7.58959 25.6479 7.58959 25.4639C7.42597 25.7911 7.28281 26.1183 7.13965 26.4251C7.13965 26.466 7.13965 26.5069 7.1601 26.5274C7.30326 26.3637 7.44642 26.1797 7.58959 25.9752Z" fill="white"/>
<path d="M11.6187 29.124L8.08057 17.0166H10.3712L12.4777 25.4836L14.5638 17.0166H16.1999L18.2451 25.4836L20.3721 17.0166H22.6626L19.145 29.124H17.3657L15.4023 21.1069L13.398 29.124H11.6187Z" fill="white"/>
<path d="M23.8489 29.124V17.0166H26.0986V29.124H23.8489V29.124Z" fill="white"/>
<path d="M28.4302 29.124V17.0166H30.9662L36.0178 25.8722V17.0166H38.2675V29.124H35.7723L30.6799 20.3093V29.124H28.4302V29.124Z" fill="white"/>
</svg>
