<svg xmlns="http://www.w3.org/2000/svg" viewBox="0 0 40 40"><defs><style>.a{fill:none;}.b{fill:#fff;}</style></defs><title>Download</title><rect class="a" y="-0.01" width="40" height="40"/><rect class="a" y="-0.01" width="40" height="40"/><path class="b" d="M17.36,7.67h0V19.74l-4.09-4.09a2.53,2.53,0,0,0-3.59,3.58l8.45,8.45h0l.1.08.29.23.12.07c.11.05.21.12.32.16l.16.05.3.08a1.46,1.46,0,0,0,.22,0l.26,0,.27,0a1.52,1.52,0,0,0,.21,0,1.67,1.67,0,0,0,.3-.08l.16-.05a1.82,1.82,0,0,0,.31-.16l.13-.07.29-.23.11-.08h0l8.44-8.45a2.53,2.53,0,0,0-3.59-3.58l-4.09,4.09V7.67h0a2.53,2.53,0,0,0-5.06,0Z"/><path class="b" d="M30.56,27.92c0,1.16.28,2.73-.52,3.67-.56.64-1.54.52-2.3.52H12.05a3.15,3.15,0,0,1-2.31-.52c-.85-.74-.52-2.67-.52-3.67a1.39,1.39,0,0,0-2.77,0A11,11,0,0,0,7,32.48a4.57,4.57,0,0,0,4.19,2.41H28.6a4.78,4.78,0,0,0,4.19-2.41c.8-1.28.55-3.11.55-4.56A1.39,1.39,0,0,0,30.56,27.92Z"/></svg>