<svg xmlns="http://www.w3.org/2000/svg" width="25" height="24" fill="none" viewBox="0 0 25 24">
    <path fill="#2D8C44" d="M10.379 15.785s0 .122 0 0v.122l3.5-.366v-.122-.122l-3.5.488zM10.379 17.128s0 .122 0 0v.122l3.5-.366v-.122-.123l-3.5.489z"/>
    <path fill="#2D8C44" d="M12.004 1.5c-5.875 0-10.5 4.762-10.5 10.5 0 5.86 4.75 10.5 10.5 10.5 5.875 0 10.5-4.762 10.5-10.5s-4.625-10.5-10.5-10.5zm3 3.785l.75.366-1.125 1.954-.75-.367 1.125-1.953zm-3.375-.733h.875V6.75h-.875V4.552zm-2.5.733l1.125 1.953-.75.367L8.379 5.65l.75-.366zm-1.5 6.349h-2.25v-.855h2.25v.855zm.375-2.32l-2-1.099.375-.732 2 1.22-.375.611zm4.125 10.134c-.5 0-1-.367-1-.855l2-.122c0 .488-.5.977-1 .977zm3-6.227c-.25.488-.625.855-1.125 1.22v.367h.375l.125.244c.125.245.125.367.125.61 0 .245 0 .367-.125.611v.244c.125.245.125.367.125.61 0 .245 0 .367-.125.611l-.125.245h-.25l-4 .122h-.25l-.125-.245c-.125-.244-.125-.366-.125-.61s0-.366.125-.61v-.123c-.125-.244-.125-.366-.125-.61s0-.366.125-.61l.125-.245h.375v-.61c-.5-.244-.875-.733-1.25-1.221-.375-.488-.5-1.221-.5-1.832 0-.976.375-1.83 1-2.563.625-.61 1.5-1.1 2.5-1.1.875 0 1.875.49 2.5 1.1.625.61 1 1.587 1 2.563.125.611-.125 1.222-.375 1.832zm.625-4.518l1.875-1.098.375.732-1.875 1.099-.375-.733zm3 2.93h-2.25v-.732h2.25v.733z"/>
</svg>
