<svg xmlns="http://www.w3.org/2000/svg" viewBox="0 0 40 40"><defs><style>.a{fill:none;}.b{fill:#fff;}</style></defs><title>Contact</title><rect class="a" y="-0.01" width="40" height="40"/><rect class="a" y="-0.01" width="40" height="40"/><path class="b" d="M32.3,27.26c-.41-1-5.59-2.51-6-2.51l-.34,0c-.71.15-1.46.83-3.11,2.25a21.6,21.6,0,0,1-5.52-4.42,18.34,18.34,0,0,1-3.45-5.67c1.84-1.65,2.62-2.36,2.66-3.15,0-.41-.86-5.74-1.8-6.27l-.26-.18A3.39,3.39,0,0,0,12,6.58a2.58,2.58,0,0,0-.71.27,8.51,8.51,0,0,0-3,3c-.45.93-.68,9.34,5.67,16.47s14,7.35,15.12,7.13h0l.12,0a8.65,8.65,0,0,0,3.37-2.66c.9-1.13.27-2.48-.07-3.23Z"/></svg>