<svg xmlns="http://www.w3.org/2000/svg" viewBox="0 0 24 22.76"><defs><style>.cls-1{fill:#fff;}</style></defs><g id="Layer_2" data-name="Layer 2"><g id="Layer_1-2" data-name="Layer 1"><path class="cls-1" d="M1.67,8.72A.73.73,0,0,0,2,8.8a.69.69,0,0,0,.28-.05L5.73,7.51a.84.84,0,1,0-.57-1.57L3.62,6.5a9.7,9.7,0,0,1,18,5.9.84.84,0,0,0,.75.92h.09a.84.84,0,0,0,.83-.75A11.38,11.38,0,0,0,2.13,5.72l-.5-1.46A.83.83,0,1,0,.05,4.8L1.24,8.24A.82.82,0,0,0,1.67,8.72Z"/><path class="cls-1" d="M24,18l-1.19-3.44a.85.85,0,0,0-.43-.48.88.88,0,0,0-.64,0l-3.42,1.25a.83.83,0,0,0-.5,1.07.84.84,0,0,0,1.07.5l1.54-.56a9.7,9.7,0,0,1-18-5.88.84.84,0,0,0-1.67-.17A11.35,11.35,0,0,0,8.06,22.05a11.38,11.38,0,0,0,13.81-5l.5,1.46a.83.83,0,0,0,.79.56.9.9,0,0,0,.28,0A.84.84,0,0,0,24,18Z"/><path class="cls-1" d="M17.53,9.89a1,1,0,0,0-.8-.68l-2.57-.37A.16.16,0,0,1,14,8.75L12.89,6.43A1,1,0,0,0,12,5.87h0a1,1,0,0,0-.89.56L10,8.75a.18.18,0,0,1-.12.09l-2.57.37a1,1,0,0,0-.81.68,1,1,0,0,0,.26,1l1.86,1.82a.16.16,0,0,1,0,.14l-.44,2.56a1,1,0,0,0,.4,1,1,1,0,0,0,.58.19,1.12,1.12,0,0,0,.47-.11l2.3-1.21a.12.12,0,0,1,.14,0l2.3,1.21a1,1,0,0,0,1.05-.08,1,1,0,0,0,.4-1l-.44-2.56a.16.16,0,0,1,0-.14l1.86-1.82A1,1,0,0,0,17.53,9.89Z"/></g></g></svg>