<svg xmlns="http://www.w3.org/2000/svg" width="49" height="48" fill="none" viewBox="0 0 49 48">
    <path fill="#1A2332" d="M24.614 41c-.423 0-.846-.108-1.164-.306l-15.882-9c-.572-.324-.953-.864-.953-1.494v-5.4c0-.99.953-1.8 2.117-1.8.424 0 .847.108 1.165.306l14.718 8.334 14.717-8.334c.318-.198.741-.306 1.165-.306 1.165 0 2.118.81 2.118 1.8v5.4c0 .63-.381 1.17-.953 1.494l-15.883 9c-.317.198-.74.306-1.165.306z"/>
    <path fill="#1A2332" d="M24.614 25c-.423 0-.846-.108-1.164-.306l-15.882-9c-.572-.324-.953-.864-.953-1.494V8.8c0-.99.953-1.8 2.117-1.8.424 0 .847.108 1.165.306l14.718 8.334 14.717-8.334c.318-.198.741-.306 1.165-.306 1.165 0 2.118.81 2.118 1.8v5.4c0 .63-.381 1.17-.953 1.494l-15.883 9c-.317.198-.74.306-1.165.306z"/>
</svg>
