<svg xmlns="http://www.w3.org/2000/svg" width="22" height="17" fill="none" viewBox="0 0 22 17">
    <path fill="#fff" d="M16.639 15.318H4.19v1.646h13.096v-1.646h-.647zM6.138 3.802l-.9 2.317.581.302.582.302.709.37.527-.796.372-.562.372-.561-2.243-1.372zM15.882 3.802l-2.263 1.397.369.562.368.562.504.77.752-.396.575-.302.575-.302-.88-2.291z"/>
    <path fill="#fff" d="M20.182 3.873c-.929 0-1.697.724-1.804 1.656-.009.074-.013.148-.013.224 0 .17.022.334.063.49.057.22.152.424.277.603l-1.293.658-.58.296-.072.036-.507.258-1.67.85-1.206-1.781-.324-.48-.047-.07-.37-.547-1.248-1.843c.219-.053.422-.146.603-.272.182-.126.34-.287.467-.472.212-.307.336-.682.336-1.087 0-1.037-.815-1.88-1.817-1.88s-1.818.843-1.818 1.88c0 .4.122.773.33 1.078.126.186.284.347.465.475.18.127.382.222.6.275L9.322 6.04l-.37.548-.08.118-.292.431-1.223 1.807-1.62-.824-.534-.272-.045-.024-.58-.295-1.407-.716c.144-.166.26-.359.34-.57.08-.211.124-.44.124-.68v-.004c0-1.036-.815-1.88-1.817-1.88S0 4.523 0 5.559C0 6.51.686 7.3 1.574 7.423c.08.01.16.016.244.016.147 0 .29-.018.426-.052.215-.053.414-.146.592-.27l2.025 5.89.229.666h11.76l.23-.667 1.984-5.772c.171.138.366.245.577.313.171.056.353.086.541.086.04 0 .077-.002.115-.004.949-.062 1.703-.88 1.703-1.876 0-1.037-.816-1.88-1.818-1.88z"/>
</svg>
