<svg xmlns="http://www.w3.org/2000/svg" viewBox="0 0 40 40"><defs><style>.a{fill:none;}.b{fill:#fff;}</style></defs><title>mSports</title><path class="a" d="M17.22,14.87a8.78,8.78,0,0,0,.81.64l.44-.37-1.26-.28Z"/><path class="b" d="M15.42,13.42l-.15-.91A21.39,21.39,0,0,1,15,9.69a5.06,5.06,0,0,0-2,.2h0a6,6,0,0,0-.66,1.46A15.48,15.48,0,0,0,12,13a3.51,3.51,0,0,1,1.52-.41A2.75,2.75,0,0,1,15.42,13.42Z"/><path class="b" d="M22.82,5.64a7.55,7.55,0,0,1,2.22,1A2.93,2.93,0,0,1,26,6.12a7.75,7.75,0,0,1,1.41-.46,7.36,7.36,0,0,1,2.38-.23c.07-.37.1-.76.19-1.13a14.22,14.22,0,0,0-9.58-.52c0,.28.1,1.22.1,1.42C20.69,5.22,22.22,5.47,22.82,5.64Z"/><path class="b" d="M16.92,14.62l.29.24,1.26.28.37-.29c2.44-2,2.69-2.13,3.38-2.13a3.33,3.33,0,0,1,1.48.41,19.48,19.48,0,0,1,1.77-1.5c0-.82,0-1.64-.09-2.45a10.67,10.67,0,0,0-.2-1.49.57.57,0,0,1,0-.14A5.87,5.87,0,0,0,22.32,6.1c-.6-.15-2-.33-2.05-.34a12.36,12.36,0,0,0-3.12,1.9A13.85,13.85,0,0,0,15.6,9.51a18,18,0,0,0,.16,3A14.23,14.23,0,0,0,16,13.91l.54.43Z"/><path class="b" d="M29.11,27.28s-.3-1.32-.43-1.9-.21-1-.27-1.4a1.25,1.25,0,0,1-.33-.05v4.22A5.62,5.62,0,0,0,29.11,27.28Z"/><path class="b" d="M28.08,16.58v6.73a2.38,2.38,0,0,0,.48.09,10,10,0,0,0,1.24-.75,7.9,7.9,0,0,0,1-.92c.61-.65,1.52-1.63,1.82-2,0-.12-.08-.45-.11-.56-.16-.66-.32-1.32-.46-2-.25-1.12-.57-2.28-.74-3.42l-1.14-.39c-.47-.17-.94-.32-1.42-.45-1-.27-2.12-.6-2.94-.75a12.54,12.54,0,0,0-1.48,1.23l2,.8A2.48,2.48,0,0,1,28.08,16.58Z"/><path class="b" d="M36.71,21.81c0,.41-.08,1.05-.11,1.33a2.17,2.17,0,0,0,0,.25,12.76,12.76,0,0,0,1.39-3A6.89,6.89,0,0,1,36.71,21.81Z"/><path class="b" d="M32.92,27.25l-.73.2a7.65,7.65,0,0,1-2.64.38,7.13,7.13,0,0,1-1.47,1.05v.56A16.7,16.7,0,0,0,32.92,27.25Z"/><path class="b" d="M34.51,9.52a5,5,0,0,1,1.4.28,5.92,5.92,0,0,1,.66.25,13.92,13.92,0,0,0-5.52-5.24l-.34-.17c-.05.28-.13.58-.19.86A15.26,15.26,0,0,1,34.51,9.52Z"/><path class="b" d="M38.39,15.07a13.77,13.77,0,0,0-1.18-3.82,5.11,5.11,0,0,0-1.6-.87,3.37,3.37,0,0,0-1.19-.2c-.15.14-.54.7-.59.76a32.36,32.36,0,0,0-1.9,2.78c.25,1.09.51,2.25.77,3.34.15.66.53,2.25.62,2.52a11.12,11.12,0,0,0,1.38,1,10.09,10.09,0,0,0,1.66.65,4.13,4.13,0,0,0,.39-.34,8.62,8.62,0,0,0,.83-1.06A9.19,9.19,0,0,0,38.46,18,11.14,11.14,0,0,0,38.39,15.07Z"/><path class="a" d="M11.4,17.08c-.32,0-.52.2-.52.58v5.17h3.44V19.35C14.32,18.74,12.12,17.08,11.4,17.08Z"/><path class="a" d="M17.38,25.94v6a1.68,1.68,0,0,0,1.53,1.8V25.5h-1C17.59,25.5,17.38,25.5,17.38,25.94Z"/><path class="a" d="M10.25,17.11c-.26,0-1.28.58-1.28.79V26c0,4-.45,4.39-1.49,5.5-.47.5-.56.61-.91,1,.57.79,2.43,1.17,3.61,1.17h.32V17.9C10.5,17.31,10.36,17.11,10.25,17.11Z"/><path class="a" d="M18.83,18.33a.55.55,0,0,0-.26.12l-.67.41c-.38.23-.52.35-.52.52v2.91a.68.68,0,0,0,.5.54h1V18.42C18.91,18.36,18.92,18.33,18.83,18.33Z"/><path class="b" d="M28.68,33.19c-.08,0-.11,0-.26.23a.39.39,0,0,1-.29.12c-.29,0-.82-.29-1.69-1-.2-.17-.27-.35-.27-.84V16.58c0-.35-.08-.4-.63-.64-1.89-.78-3.16-1.31-3.31-1.31a25.81,25.81,0,0,0-2.17,1.69c-1.83,1.49-2.15,1.72-2.44,1.78,0-.55,0-.61-.49-.9a13.7,13.7,0,0,1-1.4-1.08c-1.77-1.43-2-1.63-2.23-1.63-.84,0-4,2.44-4.65,2.44-.38,0-3.51-2.5-4.29-2.5-.12,0-.18.06-.3.14L2,16.85c-.17.2-.23.26-.23.35s0,.08.11.08.27-.08.5-.08a8.76,8.76,0,0,1,2.88,1.51,1.79,1.79,0,0,1,.68,1.37v2.13H5.76c-.6,0-1.08-.79-2.1-.79A2.47,2.47,0,0,0,1.38,24c0,.64.11,1,.34,1S2,25,2,24.71A.75.75,0,0,1,2.84,24c1.57,0,2.93,2.71,2.93,5.89a5.51,5.51,0,0,1-1.42,4.22c-1.48,1.52-1.8,1.87-1.8,2a.38.38,0,0,0,.32.32c.09,0,.18-.12.38-.32s.52-.5,1-.91a15.87,15.87,0,0,1,2.67,1.34c.46-.32,2.41-1.86,2.9-1.86h.72V35.9c0,.23,0,.38.21.38s.17-.15.17-.38V25.5h3.44v8.39a10,10,0,0,0,2.12,2.45c.29,0,1.32-1.46,2.47-1.66V36a.39.39,0,0,0,.35.38.45.45,0,0,0,.41-.41V18.07c0-.29.26-.52.72-.52.84,0,1.27.29,2.84,1.19.35-.2,2.1-1.49,2.22-1.49s.18.3-.58,1.29c-1.45,1.95-1.76,2.79-1.76,4.05V33.37c0,.49,0,.55.22.84a9.5,9.5,0,0,0,2.94,2.07,11.46,11.46,0,0,0,2.6-2.86A.24.24,0,0,0,28.68,33.19Zm-18.18.47h-.32c-1.19,0-3-.38-3.61-1.17.35-.41.45-.52.91-1C8.53,30.36,9,30,9,26V17.9c0-.21,1-.79,1.28-.79.11,0,.25.2.25.79Zm3.82-10.83H10.88V17.66c0-.38.2-.58.52-.58.72,0,2.92,1.66,2.92,2.27Zm4.59,10.88a1.68,1.68,0,0,1-1.53-1.8v-6c0-.44.21-.44.53-.44h1Zm0-15.29v4.41h-1a.68.68,0,0,1-.5-.54V19.38c0-.17.13-.29.51-.52l.68-.41a.54.54,0,0,1,.27-.12C18.93,18.33,18.91,18.36,18.91,18.42Z"/><rect class="a" width="40" height="40"/><rect class="a" width="40" height="40"/></svg>