<svg id="Layer_1" data-name="Layer 1" xmlns="http://www.w3.org/2000/svg" viewBox="0 0 40 40"><defs><style>.cls-1{fill:none;}.cls-2{fill:#be1e2d;}</style></defs><title>V Sports</title><rect class="cls-1" width="40" height="40"/><rect class="cls-1" width="40" height="40"/><path class="cls-2" d="M30.15,29.69l-.22.24c-2.6,2.6-6.39,3.29-9.93,3.31s-7.33-.71-9.93-3.31l-.22-.24A6.94,6.94,0,0,0,7.46,31.2a6,6,0,0,0-.77.95c.18.2.36.4.56.6C10.59,36.09,15.46,37,20,37s9.41-.91,12.75-4.25c.2-.2.38-.4.56-.6a6,6,0,0,0-.77-.95A6.94,6.94,0,0,0,30.15,29.69Z"/><path class="cls-2" d="M32.75,7.25C29.41,3.91,24.54,3,20,3s-9.41.91-12.75,4.25S3,15.46,3,20a21.75,21.75,0,0,0,1.83,9.31l.36-.38a10.13,10.13,0,0,1,2.87-2,17.23,17.23,0,0,1-1.3-7c0-3.54.71-7.33,3.31-9.93S16.46,6.78,20,6.76s7.33.71,9.93,3.31,3.29,6.39,3.31,9.93a17.23,17.23,0,0,1-1.3,7,10.13,10.13,0,0,1,2.87,2l.36.38A21.75,21.75,0,0,0,37,20C37,15.46,36.09,10.59,32.75,7.25Z"/><path class="cls-2" d="M25.79,13.18l-1.25,3.27-1.06,2.77-2,5.2a1.68,1.68,0,0,1-3,0l-2-5.2-1.06-2.77-1.25-3.27a3.35,3.35,0,0,0-4.32-1.94L13.59,21l1.06,2.78.79,2.06a4.62,4.62,0,0,0,1.34,2h0a3.71,3.71,0,0,0,.65.44,4.77,4.77,0,0,0,7.13-2.4l.79-2.06L26.41,21l3.7-9.71a3.33,3.33,0,0,0-4.32,1.94Z"/></svg>