<svg xmlns="http://www.w3.org/2000/svg" width="49" height="49" fill="none" viewBox="0 0 49 49">
    <path fill="#fff" d="M14.509 33.597l-3.974-4.667-3.974 4.667 3.974 4.668 3.974-4.668zM28.526 33.597l-3.974-4.667-3.974 4.667 3.974 4.668 3.974-4.668zM42.544 33.597L38.57 28.93l-3.974 4.667 3.974 4.668 3.974-4.668z"/>
    <path fill="#fff" fill-rule="evenodd" d="M29.535 18.837H45.73c1.104 0 2 .895 2 2v25.31c0 1.104-.896 2-2 2H3.429c-1.105 0-2-.896-2-2v-25.31c0-1.105.895-2 2-2H29.535zM5.677 43.899h9.77V23.085h-9.77v20.814zm23.787 0h-9.77V23.085h9.77v20.814zm4.248 0h9.77V23.085h-9.77v20.814z" clip-rule="evenodd"/>
    <path fill="#fff" d="M20.535 12.936l4.114-2.162 4.114 2.162-.786-4.58 3.329-3.245-4.6-.669L24.65.274l-2.057 4.168-4.6.669 3.328 3.244-.785 4.581zM33.53 13.518L33 16.774l2.781-1.537 2.781 1.537-.53-3.256 2.25-2.306-3.11-.475-1.39-2.963-1.391 2.963-3.11.475 2.25 2.306zM10.499 16.774l2.781-1.537 2.781 1.537-.53-3.256 2.25-2.306-3.11-.475-1.39-2.963-1.391 2.963-3.11.475 2.25 2.306-.531 3.256z"/>
</svg>
