<svg id="Layer_1" data-name="Layer 1" xmlns="http://www.w3.org/2000/svg" viewBox="0 0 40 40"><defs><style>.cls-1{fill:#fff;}.cls-2{fill:none;}</style></defs><title>Central Wallet</title><path class="cls-1" d="M25.58,11.37H13.43a1.78,1.78,0,0,0-1.77,1.77V26.48a1.78,1.78,0,0,0,1.77,1.77H27.12a1.78,1.78,0,0,0,1.77-1.77V24l-6.83.07a1,1,0,0,1-1-1V20.29a1,1,0,0,1,1-1l6.84,0V16.82a1.58,1.58,0,0,0-1.59-1.58l-12.36.13s-1.27-.06-1.27-1.17,1.27-1.12,1.27-1.12l12.42.06A1.78,1.78,0,0,0,25.58,11.37Z"/><path class="cls-1" d="M29,19.58H22.17a.77.77,0,0,0-.76.76V23a.77.77,0,0,0,.76.77H29a.77.77,0,0,0,.76-.77V20.34A.76.76,0,0,0,29,19.58Zm-5.61,3.08a1,1,0,1,1,1-1A1,1,0,0,1,23.38,22.66Z"/><rect class="cls-2" width="40" height="40"/><rect class="cls-2" width="40" height="40"/><path class="cls-1" d="M20.31,36.93a17.05,17.05,0,0,1-9-2.53l1.89-3.07a13.52,13.52,0,1,0-5.62-6.86L4.22,25.71A17.13,17.13,0,1,1,20.31,36.93Z"/><polygon class="cls-1" points="11.29 36.24 9.19 29.37 16.19 30.98 11.29 36.24"/><polygon class="cls-1" points="2.5 25.21 8.71 28.84 8.74 21.65 2.5 25.21"/></svg>