<svg xmlns="http://www.w3.org/2000/svg" width="48" height="48" fill="none" viewBox="0 0 48 48">
    <path fill="#2D8C44" d="M24 6c-3.56 0-7.04 1.056-10 3.034-2.96 1.977-5.267 4.789-6.63 8.078-1.362 3.289-1.719 6.908-1.024 10.4.694 3.491 2.409 6.699 4.926 9.216 2.517 2.517 5.725 4.232 9.216 4.926 3.492.695 7.111.338 10.4-1.024 3.29-1.363 6.1-3.67 8.079-6.63C40.944 31.04 42 27.56 42 24c0-4.774-1.896-9.352-5.272-12.728C33.352 7.896 28.774 6 24 6zm11.756 11.959L20.974 32.73 12.244 24c-.299-.298-.466-.703-.466-1.125 0-.422.167-.827.466-1.125.298-.298.703-.466 1.125-.466.422 0 .826.168 1.125.466l6.502 6.503L33.53 15.73c.147-.147.323-.265.516-.345.193-.08.4-.12.609-.12.209 0 .416.04.609.12.193.08.368.198.516.345.147.148.265.323.345.516.08.193.12.4.12.61 0 .208-.04.415-.12.608-.08.193-.198.369-.345.516l-.023-.022z"/>
</svg>
