<svg width="24" height="24" viewBox="0 0 24 24" fill="none" xmlns="http://www.w3.org/2000/svg">
<path d="M3.32965 5.2249C3.29637 5.25818 3.29637 5.32474 3.32965 5.35802C3.32965 5.39129 3.36293 5.39129 3.39621 5.39129L7.58944 7.8207C7.62272 7.85398 7.68928 7.85398 7.72256 7.8207L7.75584 7.78743C7.75584 7.78743 7.75584 7.78743 7.75584 7.75415C8.15519 7.05527 8.68766 6.45624 9.35326 5.99033C10.0521 5.49113 10.7843 5.19162 11.583 5.0585C11.583 5.0585 11.6163 5.0585 11.6163 5.02522C11.6496 4.99194 11.6828 4.92538 11.6828 4.8921L10.8508 0.133118C10.8508 0.0998387 10.8508 0.0998387 10.8176 0.0665591C10.7843 0.0332795 10.751 0 10.6844 0C9.22014 0.266237 7.75584 0.865269 6.42465 1.7971C5.12675 2.72893 4.09508 3.92699 3.32965 5.2249Z" fill="white"/>
<path d="M0.930488 14.4094C0.963768 14.4427 0.997048 14.476 1.03033 14.476C1.06361 14.476 1.06361 14.476 1.09689 14.476L5.62291 12.7454C5.65619 12.7121 5.68947 12.6789 5.68947 12.6123C5.68947 12.579 5.68947 12.579 5.68947 12.579C5.68947 12.579 5.68947 12.579 5.68947 12.5457C5.38996 11.8136 5.25683 11.0149 5.32339 10.1829C5.38995 9.3509 5.62291 8.55219 5.98899 7.88659C5.98899 7.88659 5.98899 7.85331 5.98899 7.82004C5.98899 7.75348 5.95571 7.7202 5.92243 7.68692L1.69592 5.39062C1.66264 5.39062 1.66264 5.39062 1.62936 5.39062C1.5628 5.39062 1.52952 5.4239 1.49624 5.45718C0.764089 6.78837 0.331459 8.28595 0.23162 9.88337C0.131781 11.4808 0.398015 13.0117 0.930488 14.4094Z" fill="white"/>
<path d="M6.6892 21.9649C6.72248 21.9649 6.78904 21.9649 6.82232 21.9316C6.82232 21.8983 6.8556 21.8983 6.8556 21.865L8.28662 17.2392C8.28662 17.2059 8.28662 17.1393 8.25334 17.1061L8.22007 17.0728C8.22007 17.0728 8.22006 17.0728 8.18678 17.0728C7.42135 16.8398 6.72248 16.4737 6.09017 15.908C5.45786 15.3422 4.99194 14.6766 4.69243 13.9445L4.65914 13.9112C4.62586 13.8779 4.55931 13.8779 4.52603 13.8779L0.0665633 15.7749C0.0332837 15.7749 0.0332816 15.8081 0.0332816 15.8081C2.03073e-06 15.8414 0 15.908 0 15.9413C0.599033 17.339 1.49758 18.6036 2.69565 19.7019C3.89371 20.8001 5.25818 21.5322 6.6892 21.9649Z" fill="white"/>
<path d="M16.1358 22.1964C16.1691 22.1631 16.2024 22.1298 16.2024 22.0633C16.2024 22.03 16.2024 22.03 16.1691 21.9967L13.4734 17.9699C13.4402 17.9366 13.4069 17.9033 13.3403 17.9033H13.307C13.307 17.9033 13.307 17.9033 13.2738 17.9033C12.6414 18.336 11.876 18.6688 11.044 18.8019C10.212 18.935 9.41332 18.8684 8.64789 18.6687C8.61461 18.6687 8.61462 18.6687 8.58134 18.6687C8.51478 18.6687 8.4815 18.702 8.4815 18.7686L7.18359 23.4277C7.18359 23.461 7.18359 23.461 7.18359 23.4943C7.18359 23.5276 7.21687 23.5941 7.28343 23.5941C8.71446 23.9935 10.3119 24.1266 11.876 23.8604C13.4402 23.6274 14.8712 23.0617 16.1358 22.1964Z" fill="white"/>
<path d="M22.2607 14.9758C22.2607 14.9426 22.2274 14.876 22.1941 14.8427C22.1608 14.8427 22.1608 14.8094 22.1276 14.8094L17.302 14.4434C17.2355 14.4434 17.2022 14.4766 17.1689 14.5099V14.5432C17.1689 14.5432 17.1689 14.5432 17.1689 14.5765C17.1023 15.3752 16.9027 16.1406 16.5033 16.8728C16.104 17.6049 15.5382 18.204 14.9059 18.6699L14.8726 18.7031C14.8393 18.7364 14.8393 18.803 14.8726 18.8363L17.7347 22.73L17.7679 22.7633C17.8012 22.7965 17.8678 22.7965 17.9011 22.7633C19.1324 21.8647 20.1641 20.6999 20.9628 19.3022C21.7615 18.0043 22.1608 16.4734 22.2607 14.9758Z" fill="white"/>
<path d="M20.4711 5.65828C20.4378 5.625 20.3712 5.625 20.338 5.625C20.3047 5.625 20.3047 5.65828 20.2714 5.65828L16.9434 9.18592C16.9102 9.2192 16.9102 9.28576 16.9102 9.31903C16.9102 9.31903 16.9102 9.35232 16.9434 9.35232C17.5092 9.88479 18.0084 10.5504 18.3079 11.3158C18.6074 12.0812 18.7405 12.9132 18.7073 13.6787C18.7073 13.7119 18.7073 13.7119 18.7073 13.7452C18.7405 13.8118 18.7738 13.8118 18.8071 13.8451L23.6326 14.078C23.6659 14.078 23.6659 14.078 23.6992 14.078C23.7325 14.0447 23.7657 14.0115 23.7657 13.9782C23.8323 12.4806 23.5994 10.9165 23.0003 9.41887C22.4678 7.98785 21.5693 6.68995 20.4711 5.65828Z" fill="white"/>
<path d="M11.9826 1.33226C11.9494 1.33226 11.8828 1.36554 11.8828 1.4321C11.8828 1.46538 11.8828 1.46538 11.8828 1.49866L12.5817 6.29092C12.5817 6.3242 12.615 6.39076 12.6815 6.39076H12.7148C12.7148 6.39076 12.7148 6.39076 12.7481 6.39076C13.5135 6.25764 14.3455 6.29092 15.1442 6.52388C15.9429 6.75684 16.6751 7.15619 17.2408 7.68867L17.2741 7.72195C17.3407 7.72195 17.3739 7.72195 17.4072 7.68867L20.5688 4.02791C20.5688 4.02791 20.6021 3.99463 20.6021 3.96135C20.6021 3.92807 20.6021 3.86151 20.5688 3.82823C19.4373 2.82985 18.0728 2.06441 16.5087 1.63178C15.0444 1.19914 13.4802 1.09931 11.9826 1.33226Z" fill="white"/>
<path d="M14.6097 14.4421C14.6762 14.2757 14.6762 14.076 14.7095 13.9429C14.6429 14.0095 14.5431 14.076 14.4433 14.1759C14.177 14.3756 13.8775 14.5087 13.578 14.5752L12.8126 13.7432L13.3783 14.7416C13.2452 15.0079 13.0122 15.2408 12.746 15.4405C12.6462 15.5071 12.5463 15.5736 12.4465 15.6069C12.5796 15.6402 12.7793 15.6735 12.9457 15.6735C12.5463 15.8066 12.147 15.8731 11.7143 15.8731C11.2817 15.8731 10.8491 15.8066 10.483 15.6735C10.6494 15.6735 10.8491 15.6402 10.9822 15.6069C10.8823 15.5403 10.7825 15.5071 10.6827 15.4405C10.4164 15.2408 10.1835 15.0079 10.0504 14.7416L10.6161 13.7432L9.85067 14.5752C9.55116 14.5087 9.25164 14.3756 8.9854 14.1759C8.88556 14.1093 8.81901 14.0428 8.71917 13.9429C8.75245 14.076 8.75245 14.2757 8.819 14.4421C8.31981 13.8098 8.05358 13.0444 8.05358 12.1791C8.05358 12.1458 8.05358 12.1125 8.05358 12.046C8.08686 12.2124 8.1867 12.3788 8.28653 12.5119C8.31981 12.4121 8.31981 12.2789 8.35309 12.1791C8.45293 11.8463 8.61933 11.5801 8.819 11.3471L9.91723 11.5801L8.88557 11.1142C8.85229 10.8146 8.88556 10.5151 8.9854 10.1823C9.01868 10.0825 9.05196 9.98264 9.11852 9.88281C8.98541 9.94937 8.78572 10.0492 8.65261 10.149C9.1518 9.41689 9.85068 8.88442 10.7159 8.65146C10.5495 8.7513 10.4164 8.9177 10.3166 9.01754C10.4164 9.01754 10.5495 8.98426 10.6494 8.98426C10.9822 8.98426 11.315 9.05082 11.5812 9.18393L11.7143 10.3154L11.8475 9.18393C12.1137 9.05082 12.4465 8.98426 12.7793 8.98426C12.8791 8.98426 13.0122 8.98426 13.1121 9.01754C13.0122 8.9177 12.8458 8.7513 12.7127 8.65146C13.578 8.88442 14.3101 9.41689 14.7761 10.149C14.6429 10.0159 14.4433 9.94937 14.3101 9.88281C14.3434 9.98264 14.41 10.0825 14.4433 10.1823C14.5431 10.5151 14.5764 10.8146 14.5431 11.1142L13.5114 11.5801L14.6097 11.3471C14.8093 11.5801 14.9757 11.8463 15.0756 12.1791C15.1089 12.2789 15.1421 12.4121 15.1421 12.5119C15.2087 12.3788 15.3085 12.2124 15.3418 12.046C15.3418 12.0793 15.3418 12.1125 15.3418 12.1791C15.3751 13.0444 15.0756 13.8431 14.6097 14.4421ZM11.6811 8.18555C9.4846 8.18555 7.6875 9.98265 7.6875 12.1791C7.6875 14.3756 9.4846 16.1727 11.6811 16.1727C13.8775 16.1727 15.6746 14.3756 15.6746 12.1791C15.7079 9.98265 13.9108 8.18555 11.6811 8.18555Z" fill="white"/>
<path d="M10.0781 11.6805L10.6772 13.5774H12.6739L13.3062 11.6805L11.6755 10.4824L10.0781 11.6805Z" fill="white"/>
</svg>
