<svg xmlns="http://www.w3.org/2000/svg" width="49" height="48" fill="none" viewBox="0 0 49 48">
    <path fill="#fff" d="M38.503 28.8V23l3.4-4.7-3.4-4.7V7.8l-5.5-1.8-3.4-4.7-5.5 2-5.5-1.8-3.4 4.7-5.5 1.8v5.8l-3.4 4.7 3.4 4.7V29l3.4 1.1-4.4 12.7 7-3 3.6 6.7 4.6-13 .2-.1h.1l4.6 13 3.6-6.7 7 3-4.5-12.8 3.6-1.1zm-14.4.9c-6.2 0-11.3-5-11.3-11.3 0-6.3 5.1-11.3 11.3-11.3 6.2 0 11.3 5 11.3 11.3 0 6.3-5.1 11.3-11.3 11.3z"/>
    <path fill="#fff" d="M26.302 15.3l-2.2-6.9-2.2 6.9h-7.3l5.9 4.3-2.2 6.8 5.8-4.2 5.8 4.2-2.2-6.8 5.9-4.3h-7.3z"/>
</svg>
