<svg id="Layer_1" data-name="Layer 1" xmlns="http://www.w3.org/2000/svg" xmlns:xlink="http://www.w3.org/1999/xlink" viewBox="0 0 20 20"><defs><style>.cls-1{stroke-miterlimit:10;stroke-width:0.19px;fill:url(#linear-gradient);stroke:url(#linear-gradient-2);}.cls-2{fill:url(#linear-gradient-3);}.cls-3{fill:url(#linear-gradient-4);}.cls-4{fill:#e81e25;}</style><linearGradient id="linear-gradient" x1="6.21" y1="19.72" x2="6.21" y2="-4.41" gradientUnits="userSpaceOnUse"><stop offset="0" stop-color="#fcedc9"/><stop offset="0.02" stop-color="#f1deb2"/><stop offset="0.07" stop-color="#d6b679"/><stop offset="0.08" stop-color="#cfac6a"/><stop offset="0.09" stop-color="#c9a665"/><stop offset="0.13" stop-color="#a67f48"/><stop offset="0.18" stop-color="#896032"/><stop offset="0.23" stop-color="#754a21"/><stop offset="0.27" stop-color="#693d17"/><stop offset="0.31" stop-color="#653814"/><stop offset="0.35" stop-color="#6a3e18"/><stop offset="0.4" stop-color="#794e24"/><stop offset="0.46" stop-color="#916838"/><stop offset="0.53" stop-color="#b28d53"/><stop offset="0.57" stop-color="#cfac6a"/><stop offset="0.67" stop-color="#ecd5a7"/><stop offset="0.73" stop-color="#fcedc9"/><stop offset="0.76" stop-color="#f1deb2"/><stop offset="0.82" stop-color="#d6b679"/><stop offset="0.84" stop-color="#cfac6a"/><stop offset="0.95" stop-color="#855b2e"/><stop offset="1" stop-color="#653814"/></linearGradient><linearGradient id="linear-gradient-2" x1="2.4" y1="10.08" x2="10.37" y2="10.08" gradientUnits="userSpaceOnUse"><stop offset="0.03" stop-color="#653814"/><stop offset="0.51" stop-color="#cfac6a"/><stop offset="0.51" stop-color="#ceab69"/><stop offset="0.62" stop-color="#a9824b"/><stop offset="0.72" stop-color="#8b6233"/><stop offset="0.82" stop-color="#764b22"/><stop offset="0.92" stop-color="#693d18"/><stop offset="1" stop-color="#653814"/></linearGradient><linearGradient id="linear-gradient-3" x1="6.21" y1="19.72" x2="6.21" y2="-4.41" gradientUnits="userSpaceOnUse"><stop offset="0" stop-color="#cfac6a"/><stop offset="0.1" stop-color="#956c3b"/><stop offset="0.18" stop-color="#653814"/><stop offset="0.31" stop-color="#b88d4a"/><stop offset="0.35" stop-color="#ba904d"/><stop offset="0.38" stop-color="#c19956"/><stop offset="0.4" stop-color="#cca866"/><stop offset="0.41" stop-color="#cfac6a"/><stop offset="0.47" stop-color="#cead6e"/><stop offset="0.53" stop-color="#cbb17b"/><stop offset="0.57" stop-color="#c9b587"/><stop offset="0.59" stop-color="#c8b282"/><stop offset="0.6" stop-color="#c4a974"/><stop offset="0.62" stop-color="#bd995c"/><stop offset="0.64" stop-color="#b88e4b"/><stop offset="0.67" stop-color="#b38948"/><stop offset="0.7" stop-color="#a67b3f"/><stop offset="0.74" stop-color="#906430"/><stop offset="0.78" stop-color="#71441c"/><stop offset="0.79" stop-color="#663915"/><stop offset="0.8" stop-color="#724723"/><stop offset="0.82" stop-color="#9b7955"/><stop offset="0.85" stop-color="#bea37f"/><stop offset="0.87" stop-color="#d9c39f"/><stop offset="0.9" stop-color="#ecdab6"/><stop offset="0.92" stop-color="#f8e8c4"/><stop offset="0.94" stop-color="#fcedc9"/></linearGradient><linearGradient id="linear-gradient-4" x1="2.53" y1="10.03" x2="9.9" y2="10.03" xlink:href="#linear-gradient"/></defs><title>TF_icon</title><polygon class="cls-1" points="9.9 18.71 9.9 6.92 5.42 6.92 9.82 1.35 2.53 6.97 4.14 9.71 7.18 9.71 9.9 18.71"/><polygon class="cls-2" points="9.9 18.71 9.9 6.92 5.42 6.92 9.82 1.35 2.53 6.97 4.14 9.71 7.18 9.71 9.9 18.71"/><path class="cls-3" d="M9.38,1.78l-4,5.09L5.26,7H9.82V18.2L7.25,9.69V9.63H4.18L2.63,7,9.38,1.78m.44-.43L2.53,7,4.14,9.71h3l2.72,9V6.91H5.42l4.4-5.56Z"/><path class="cls-4" d="M12.57,9.51,10,19.15,9.9,6.91H5.42L10.3.85,8.91,4.9h.91a2.09,2.09,0,0,1,.89-1.37s-1.07,2.61.45,3.36a3.32,3.32,0,0,1,0-3.27c1-1.46,2.78-.61,2.63-1.88a.77.77,0,0,1,.41,1,1.09,1.09,0,0,1-.94.62c-.77.13-1,.65-.93,1.05a1.15,1.15,0,0,1,1.43-.63s-1.59.31-1.15,1.51a1,1,0,0,0,1.54.11s.36-.29.53-1.58S15.74,1,17.47,1.45c0,0-1.46.13-1.54,2.23s-.72,3.2-2.2,3.32a1.88,1.88,0,0,1-2-1s.13,2.15,2.74,1.76A2.66,2.66,0,0,0,16.6,5.15S18.19,9.77,12.57,9.51Z"/></svg>