<svg xmlns="http://www.w3.org/2000/svg" width="49" height="49" fill="none" viewBox="0 0 49 49">
    <path fill="#fff" fill-rule="evenodd" d="M25.383 2.467l12.35 35.112c.19.541.155 1.135-.099 1.65-.253.517-.704.912-1.252 1.1l-20.686 7.086c-1.142.39-2.39-.206-2.786-1.333L.56 10.97C.164 9.842.768 8.61 1.91 8.22l20.686-7.086c.549-.188 1.15-.153 1.673.097.523.25.923.695 1.114 1.236zm-5.76 2.618c-.49-.234-1.079-.033-1.316.45-.114.233-.13.5-.045.744.086.243.266.444.502.556l3.116 1.49 1.51-3.075c.154-.312.127-.682-.071-.97-.198-.287-.536-.449-.887-.424-.35.025-.662.233-.815.546l-.651 1.325-1.343-.642zm-.212 36.295l-1.51 3.075-3.116-1.49c-.317-.152-.527-.458-.553-.805-.025-.346.139-.68.43-.875.291-.195.666-.222.983-.07l1.342.642.65-1.325c.154-.313.465-.52.816-.546.352-.025.69.137.887.424.198.288.225.657.072.97zM11.5 26.74l10.11 4.99 4.771-10.038c.91-2.022.07-4.387-1.925-5.424.105.053-3.37-2.302-5.26 1.785l-1.473 2.744-2.889-1.265c-.932-.485-2.03-.57-3.028-.23-.999.338-1.807 1.069-2.231 2.015-.91 2.022-.07 4.387 1.925 5.423z" clip-rule="evenodd"/>
    <path fill="#fff" d="M44.437 9.865L31.71 5.25l-1.979 5.127 6.986 21.274 7.72-21.785z"/>
    <path fill="#fff" d="M31.157 1.111c-.891-.315-1.864.166-2.174 1.073l-.81 2.378.026.073 1.059 3.108 1.326-3.889c.123-.363.513-.555.87-.429l14.197 5.02c.357.125.545.521.422.884l-8.84 24.272s1.33 4.123 1.48 3.688l9.632-28.261c.148-.436.12-.914-.077-1.329-.197-.415-.549-.733-.977-.885L31.157 1.111z"/>
</svg>
