<svg xmlns="http://www.w3.org/2000/svg" width="24" height="24" fill="none" viewBox="0 0 24 24">
    <path fill="#000" d="M11.688 0C5.148.07-.07 5.426 0 11.965-.07 18.505 5.149 23.861 11.688 24c6.539-.07 11.826-5.496 11.756-12.035C23.514 5.426 18.227.07 11.688 0zm3.339 4.313l.765.487-1.183 2.157-.765-.487 1.183-2.157zm-3.757-.835h.905v2.505h-.905V3.478zm-2.852.835L9.67 6.47l-.765.487L7.653 4.73l.765-.417zm-1.67 7.235H4.315v-.974h2.435v.974zm.418-2.574L5.079 7.722l.417-.835 2.087 1.252-.417.835zm4.591 11.409c-.556 0-1.043-.418-1.113-1.044l2.226-.209v.07c.07.626-.487 1.183-1.113 1.183zm3.409-7.096c-.348.556-.765 1.043-1.322 1.391v.418H14.262l.139.278c.07.209.139.487.139.696 0 .208-.07.486-.14.695v.14c.07.208.14.486.14.695 0 .209-.07.487-.14.696l-.069.208h-.278l-4.452.418h-.348l-.07-.279c-.07-.208-.139-.417-.139-.626 0-.278.07-.487.14-.695v-.14c-.07-.208-.14-.417-.14-.625 0-.279.07-.487.14-.696l.069-.209H9.6v-.904c-.557-.348-.974-.835-1.322-1.391-.348-.627-.557-1.322-.557-2.087 0-1.044.418-2.087 1.183-2.853.696-.765 1.74-1.182 2.783-1.182 1.043.07 2.017.487 2.782 1.182 1.322 1.322 1.53 3.34.696 4.87zm.626-5.148l2.087-1.252.487.835-2.087 1.252-.487-.835zm3.34 3.478h-2.436v-.974h2.435v.974z"/>
</svg>
