<svg id="Layer_1" data-name="Layer 1" xmlns="http://www.w3.org/2000/svg" viewBox="0 0 48 48"><defs><style>.cls-1{fill:#1a2332;}.cls-2{fill:#bf0003;}.cls-3{fill:none;}</style></defs><path class="cls-1" d="M42.56,29.58H30A1.42,1.42,0,0,0,28.56,31v4.85A1.41,1.41,0,0,0,30,37.25H42.56A1.41,1.41,0,0,0,44,35.84V31A1.41,1.41,0,0,0,42.56,29.58Zm-10.37,5.7a1.87,1.87,0,1,1,1.87-1.86A1.87,1.87,0,0,1,32.19,35.28Z"/><path class="cls-1" d="M29.74,29.09,42.38,29V24.49a2.91,2.91,0,0,0-2.94-2.91l-29.36.24s-2.35-.11-2.35-2.16,2.35-2.07,2.35-2.07l6.16,0v-3.2H7.31A3.29,3.29,0,0,0,4,17.69V42.33a3.28,3.28,0,0,0,3.28,3.28H39.1a3.28,3.28,0,0,0,3.28-3.28V37.72l-12.62.12A1.81,1.81,0,0,1,27.93,36V30.9A1.81,1.81,0,0,1,29.74,29.09Z"/><path class="cls-1" d="M30.17,17.66l9.38,0a3.29,3.29,0,0,0-3.28-3.28h-6.1Z"/><polygon class="cls-2" points="16.84 13.7 16.84 21 29.57 21 29.57 13.7 34.45 13.7 23.21 2.39 11.97 13.7 16.84 13.7"/><rect class="cls-3" width="48" height="48"/></svg>