<svg xmlns="http://www.w3.org/2000/svg" width="24" height="24" fill="none" viewBox="0 0 24 24">
    <path fill="#fff" d="M14.643 12l8.974-8.974c.246-.247.383-.577.383-.928 0-.352-.136-.682-.383-.929L22.83.383C22.583.136 22.254 0 21.902 0c-.352 0-.681.136-.928.383L12 9.357 3.027.383C2.78.136 2.45 0 2.099 0c-.352 0-.681.136-.928.383l-.787.786c-.512.512-.512 1.345 0 1.857L9.357 12 .384 20.974c-.247.247-.383.577-.383.928 0 .352.136.681.383.929l.787.786c.246.247.576.383.927.383.352 0 .682-.136.929-.383L12 14.643l8.974 8.974c.247.247.576.383.927.383.352 0 .682-.136.929-.383l.786-.786c.247-.247.383-.577.383-.929 0-.351-.136-.68-.383-.928L14.643 12z"/>
</svg>
