<svg xmlns="http://www.w3.org/2000/svg" width="24" height="24" fill="none" viewBox="0 0 24 24">
    <path fill="#FCFCFC" d="M15.819 12.155c0-2.206-1.801-4.006-4.03-4.006-2.22 0-4.031 1.8-4.031 4.006 0 2.206 1.81 4.006 4.03 4.006 2.23-.01 4.03-1.8 4.03-4.006z"/>
    <path fill="#010202" d="M15.819 12.155c0-2.206-1.801-4.006-4.03-4.006-2.22 0-4.031 1.8-4.031 4.006 0 2.206 1.81 4.006 4.03 4.006 2.23-.01 4.03-1.8 4.03-4.006zm-.325-.125v.115c0 .853-.293 1.633-.775 2.258.063-.167.074-.354.105-.5-.084.073-.168.146-.262.219-.272.197-.575.333-.869.395l-.774-.843-.01.01.565 1c-.147.26-.367.499-.65.707-.094.073-.188.125-.293.177.147.02.335.063.503.063-.387.135-.806.218-1.246.218-.44 0-.858-.073-1.246-.219.178.01.356-.03.513-.062-.094-.052-.198-.114-.293-.177-.282-.208-.502-.447-.649-.707l.566-1-.01-.01-.776.843c-.293-.062-.586-.187-.869-.395-.094-.063-.177-.136-.261-.219.02.146.042.344.104.5-.492-.625-.785-1.405-.785-2.258v-.115c.042.177.147.344.22.479.021-.104.053-.219.084-.333.105-.333.272-.614.481-.832l1.11.229.01-.01-1.046-.469c-.032-.291 0-.614.104-.936.032-.115.074-.219.126-.313-.146.063-.335.146-.471.27.482-.717 1.225-1.258 2.083-1.497-.157.093-.303.25-.408.364.105-.01.22-.021.345-.021.346 0 .67.073.943.187l.125 1.114h.01l.126-1.124c.272-.115.587-.187.932-.187.115 0 .23.01.345.02-.115-.114-.25-.27-.408-.364.859.24 1.591.78 2.083 1.498-.136-.114-.324-.197-.47-.27.052.094.093.208.125.312.105.323.136.645.105.937l-1.037.468.01.01 1.11-.229c.2.219.367.5.471.833.032.114.063.218.084.333.074-.125.178-.292.22-.469zm-2.69 1.499l.617-1.904-1.633-1.176-1.633 1.176.628 1.904h2.02z"/>
    <path fill="#92278F" d="M3.392 5.184c-.021.042-.021.094.01.135.01.021.031.032.052.042l4.209 2.435.01.01c.042.021.094.021.147-.01l.031-.031c.01-.01.01-.01.01-.021.388-.676.932-1.29 1.613-1.78.69-.488 1.455-.79 2.23-.925h.02c.021 0 .032-.01.053-.021.042-.031.063-.083.052-.136v-.01L10.94.117v-.01c-.01-.021-.01-.042-.02-.052-.032-.042-.074-.063-.126-.052h-.01C9.295.273 7.82.856 6.51 1.782c-1.33.926-2.366 2.091-3.12 3.402z"/>
    <path fill="#005BAA" d="M.995 14.371c.02.042.063.073.115.084.021 0 .042 0 .063-.01l4.543-1.738h.01c.043-.021.074-.063.084-.115 0-.02 0-.03-.01-.052 0-.01-.01-.02-.01-.02-.294-.729-.43-1.53-.388-2.362.053-.843.293-1.624.67-2.31l.01-.01c.011-.011.011-.032.011-.053 0-.052-.02-.104-.063-.125l-.01-.01-4.292-2.289h-.01c-.022-.01-.043-.01-.064-.01-.052 0-.094.02-.115.062 0 .01 0 .01-.01.01C.827 6.724.367 8.243.273 9.835c-.105 1.602.157 3.142.722 4.536z"/>
    <path fill="#009BDF" d="M6.763 21.926c.052.01.094 0 .136-.042.021-.02.032-.031.032-.062l1.444-4.62v-.01c.01-.052 0-.105-.042-.136-.01-.01-.031-.02-.042-.02-.01 0-.01-.01-.02-.01-.754-.23-1.477-.615-2.105-1.177-.628-.562-1.099-1.227-1.402-1.956 0-.01 0-.01-.01-.01-.011-.021-.022-.031-.032-.042-.042-.031-.095-.041-.147-.02h-.01l-4.47 1.924-.01.01c-.022.011-.032.021-.053.032-.032.041-.042.093-.021.135 0 .01 0 .01.01.01.597 1.384 1.497 2.675 2.701 3.746 1.215 1.062 2.596 1.81 4.041 2.248z"/>
    <path fill="#00A651" d="M16.257 22.144c.042-.032.063-.073.053-.125 0-.021-.01-.042-.021-.063l-2.712-4.016-.01-.01c-.031-.042-.084-.063-.136-.052-.021 0-.032.01-.053.02-.01 0-.01.01-.02.01-.65.448-1.403.76-2.24.896-.838.135-1.655.073-2.419-.146h-.02c-.022-.01-.032-.01-.053 0-.053.01-.094.052-.105.094v.01l-1.288 4.661v.01c-.01.022-.01.042 0 .063.01.052.042.084.095.104h.01c1.455.406 3.036.52 4.627.26 1.591-.27 3.036-.863 4.292-1.716z"/>
    <path fill="#FFF200" d="M22.434 14.944c0-.052-.021-.094-.063-.125-.021-.01-.042-.02-.063-.02l-4.857-.375h-.01c-.053 0-.105.02-.126.073-.01.02-.01.03-.01.052v.02c-.053.78-.273 1.572-.681 2.3-.409.739-.963 1.342-1.612 1.8-.01 0-.01.01-.01.01-.011.01-.022.021-.032.042-.021.052-.021.104.01.146l.01.01 2.88 3.902v.01c.01.01.03.031.052.031.042.021.094.021.136-.01.01 0 .01 0 .01-.01 1.225-.885 2.293-2.05 3.068-3.455.764-1.404 1.193-2.903 1.298-4.4z"/>
    <path fill="#F68B1F" d="M20.602 5.631c-.031-.031-.094-.041-.136-.02-.02.01-.042.02-.052.041l-3.35 3.517-.01.01c-.032.031-.043.094-.022.136.01.02.021.03.021.041.01.01.01.01.021.01.576.531 1.047 1.197 1.372 1.978.314.78.44 1.591.387 2.372v.02c0 .021 0 .032.01.053.021.052.063.083.116.083h.01l4.857.229h.01c.022 0 .043 0 .064-.01.052-.021.073-.063.083-.115v-.01c.084-1.499-.157-3.06-.764-4.547-.607-1.478-1.507-2.758-2.617-3.788z"/>
    <path fill="#D80F15" d="M12.092 1.303c-.053.01-.095.042-.105.094-.01.02-.01.052-.01.062l.711 4.786v.01c.01.053.042.094.095.105.02.01.031.01.052.01.01 0 .02 0 .02-.01.786-.125 1.603-.083 2.409.146.816.228 1.528.634 2.125 1.154l.01.01c.01.011.032.022.042.022.052.02.105 0 .136-.042l.01-.01 3.183-3.663.01-.01c.011-.01.021-.031.032-.052.01-.052 0-.094-.031-.136l-.01-.01c-1.142-.988-2.524-1.758-4.073-2.206-1.539-.406-3.11-.489-4.606-.26z"/>
</svg>
