<svg xmlns="http://www.w3.org/2000/svg" width="25" height="24" fill="none" viewBox="0 0 25 24">
    <path fill="#fff" d="M15.173 12l9.298-8.974c.255-.247.396-.577.397-.928 0-.352-.141-.682-.397-.929l-.815-.786C23.4.136 23.058 0 22.694 0s-.706.136-.962.383l-9.298 8.974L3.136.383C2.88.136 2.54 0 2.174 0c-.363 0-.705.136-.96.383l-.816.786c-.53.512-.53 1.345 0 1.857L9.696 12 .398 20.974c-.256.247-.397.577-.397.928 0 .352.14.681.397.929l.815.786c.256.247.597.383.961.383.365 0 .706-.136.962-.383l9.298-8.974 9.298 8.974c.256.247.598.383.961.383.365 0 .706-.136.962-.383l.815-.786c.256-.247.397-.577.397-.929 0-.351-.14-.68-.397-.928L15.173 12z"/>
</svg>
