<svg width="65" height="21" viewBox="0 0 65 21" fill="none" xmlns="http://www.w3.org/2000/svg">
<g filter="url(#filter0_d)">
<path d="M63.5 7.48848L56.919 1.39324C56.4049 0.9361 55.6851 0.669434 54.9139 0.669434H6.57069C5.13111 0.669434 4 1.50753 4 2.5742V14.7647C4 15.8313 5.13111 16.6694 6.57069 16.6694H54.9139C55.6851 16.6694 56.4563 16.4028 56.919 15.9456L63.5 9.85039C64.2712 9.16467 64.2712 8.1742 63.5 7.48848Z" fill="url(#paint0_linear)"/>
<g clip-path="url(#clip0)">
<path d="M13.6443 11.1766V10.4652C13.1916 10.4652 12.6742 10.3358 12.4155 10.1418L12.6095 9.30111C12.9329 9.49512 13.3209 9.62446 13.7736 9.62446C14.1616 9.62446 14.485 9.49512 14.485 9.17177C14.485 8.91309 14.2263 8.71908 13.7089 8.52506C12.9329 8.26638 12.4155 7.87836 12.4155 7.23165C12.4155 6.58494 12.8682 6.13225 13.6443 5.93824V5.3562H14.3556V6.00291C14.8083 6.00291 15.1317 6.13225 15.3904 6.26159L15.1964 7.10231C15.0024 7.03764 14.679 6.84363 14.1616 6.84363C13.7089 6.84363 13.5149 7.03764 13.5149 7.23165C13.5149 7.49033 13.7736 7.61967 14.3556 7.87836C15.1964 8.20171 15.5844 8.58973 15.5844 9.23644C15.5844 9.88315 15.1317 10.4005 14.291 10.5945V11.3059H13.6443V11.1766Z" fill="white"/>
<path d="M19.3352 8.97776C18.8825 11.6293 16.619 13.5694 13.9028 13.5694C12.4801 13.5694 11.122 13.052 10.0873 12.0173L9.69923 11.6293L8.53516 12.7933L8.59983 9.55979H11.7687L10.5399 10.7885L10.928 11.1766C11.704 11.9526 12.8034 12.3406 13.9028 12.3406C15.9723 12.3406 17.7184 10.9179 18.1064 8.91309H19.3352V8.97776Z" fill="white"/>
<path d="M14.0969 2.76935C15.5196 2.76935 16.8777 3.28671 17.9125 4.32144L18.3005 4.70947L19.4646 3.5454L19.3999 6.77893H16.231L17.4598 5.55019L17.0717 5.16216C16.2957 4.38611 15.1963 3.99809 14.0969 3.99809C12.0274 3.99809 10.2813 5.42085 9.89329 7.42564H8.66455C9.11725 4.77414 11.3807 2.76935 14.0969 2.76935Z" fill="white"/>
</g>
<path d="M30.4219 8.38623C30.4219 9.88232 30.1758 10.9897 29.6836 11.7085C29.1953 12.4272 28.4414 12.7866 27.4219 12.7866C26.4336 12.7866 25.6875 12.4155 25.1836 11.6733C24.6836 10.9312 24.4336 9.83545 24.4336 8.38623C24.4336 6.87451 24.6777 5.76123 25.166 5.04639C25.6543 4.32764 26.4062 3.96826 27.4219 3.96826C28.4102 3.96826 29.1562 4.34326 29.6602 5.09326C30.168 5.84326 30.4219 6.94092 30.4219 8.38623ZM26.2324 8.38623C26.2324 9.43701 26.3223 10.1909 26.502 10.6479C26.6855 11.1011 26.9922 11.3276 27.4219 11.3276C27.8438 11.3276 28.1484 11.0972 28.3359 10.6362C28.5234 10.1753 28.6172 9.42529 28.6172 8.38623C28.6172 7.33545 28.5215 6.58154 28.3301 6.12451C28.1426 5.66357 27.8398 5.43311 27.4219 5.43311C26.9961 5.43311 26.6914 5.66357 26.5078 6.12451C26.3242 6.58154 26.2324 7.33545 26.2324 8.38623ZM31.541 11.8315C31.541 11.5034 31.6289 11.2554 31.8047 11.0874C31.9805 10.9194 32.2363 10.8354 32.5723 10.8354C32.8965 10.8354 33.1465 10.9214 33.3223 11.0933C33.502 11.2651 33.5918 11.5112 33.5918 11.8315C33.5918 12.1401 33.502 12.3843 33.3223 12.564C33.1426 12.7397 32.8926 12.8276 32.5723 12.8276C32.2441 12.8276 31.9902 12.7417 31.8105 12.5698C31.6309 12.394 31.541 12.1479 31.541 11.8315ZM37.7109 3.9917C38.5312 3.9917 39.1914 4.1792 39.6914 4.5542C40.1953 4.92529 40.4473 5.42725 40.4473 6.06006C40.4473 6.49756 40.3262 6.88818 40.084 7.23193C39.8418 7.57178 39.4512 7.87646 38.9121 8.146C39.5527 8.48975 40.0117 8.84912 40.2891 9.22412C40.5703 9.59521 40.7109 10.0034 40.7109 10.4487C40.7109 11.1519 40.4355 11.7183 39.8848 12.1479C39.334 12.5737 38.6094 12.7866 37.7109 12.7866C36.7734 12.7866 36.0371 12.5874 35.502 12.189C34.9668 11.7905 34.6992 11.2261 34.6992 10.4956C34.6992 10.0073 34.8281 9.57373 35.0859 9.19482C35.3477 8.81592 35.7656 8.48193 36.3398 8.19287C35.8516 7.88428 35.5 7.5542 35.2852 7.20264C35.0703 6.85107 34.9629 6.46631 34.9629 6.04834C34.9629 5.43506 35.2168 4.93896 35.7246 4.56006C36.2324 4.18115 36.8945 3.9917 37.7109 3.9917ZM36.375 10.3901C36.375 10.7261 36.4922 10.9878 36.7266 11.1753C36.9609 11.3628 37.2812 11.4565 37.6875 11.4565C38.1367 11.4565 38.4727 11.3608 38.6953 11.1694C38.918 10.9741 39.0293 10.7183 39.0293 10.4019C39.0293 10.1401 38.918 9.896 38.6953 9.66943C38.4766 9.43896 38.1191 9.19482 37.623 8.93701C36.791 9.31982 36.375 9.8042 36.375 10.3901ZM37.6992 5.31592C37.3906 5.31592 37.1406 5.396 36.9492 5.55615C36.7617 5.7124 36.668 5.92334 36.668 6.18896C36.668 6.42334 36.7422 6.63428 36.8906 6.82178C37.043 7.00537 37.3164 7.19482 37.7109 7.39014C38.0938 7.21045 38.3613 7.02686 38.5137 6.83936C38.666 6.65186 38.7422 6.43506 38.7422 6.18896C38.7422 5.91943 38.6445 5.70654 38.4492 5.55029C38.2539 5.39404 38.0039 5.31592 37.6992 5.31592ZM42.9785 6.66943C42.9785 7.16553 43.0215 7.53662 43.1074 7.78271C43.1973 8.0249 43.3398 8.146 43.5352 8.146C43.9102 8.146 44.0977 7.65381 44.0977 6.66943C44.0977 5.69287 43.9102 5.20459 43.5352 5.20459C43.3398 5.20459 43.1973 5.32568 43.1074 5.56787C43.0215 5.80615 42.9785 6.17334 42.9785 6.66943ZM45.5742 6.65771C45.5742 7.55615 45.4004 8.23193 45.0527 8.68506C44.7051 9.13428 44.1953 9.35889 43.5234 9.35889C42.8789 9.35889 42.3809 9.12842 42.0293 8.66748C41.6777 8.20264 41.502 7.53271 41.502 6.65771C41.502 4.87256 42.1758 3.97998 43.5234 3.97998C44.1836 3.97998 44.6895 4.2124 45.041 4.67725C45.3965 5.13818 45.5742 5.79834 45.5742 6.65771ZM49.6055 4.10303L44.8535 12.6694H43.4473L48.1992 4.10303H49.6055ZM48.9785 10.0913C48.9785 10.5874 49.0215 10.9585 49.1074 11.2046C49.1973 11.4468 49.3398 11.5679 49.5352 11.5679C49.9102 11.5679 50.0977 11.0757 50.0977 10.0913C50.0977 9.11475 49.9102 8.62646 49.5352 8.62646C49.3398 8.62646 49.1973 8.74756 49.1074 8.98975C49.0215 9.22803 48.9785 9.59521 48.9785 10.0913ZM51.5742 10.0796C51.5742 10.9741 51.4004 11.6479 51.0527 12.1011C50.7051 12.5503 50.1953 12.7749 49.5234 12.7749C48.8789 12.7749 48.3809 12.5444 48.0293 12.0835C47.6777 11.6187 47.502 10.9507 47.502 10.0796C47.502 8.29443 48.1758 7.40186 49.5234 7.40186C50.1836 7.40186 50.6895 7.63428 51.041 8.09912C51.3965 8.56006 51.5742 9.22021 51.5742 10.0796Z" fill="white"/>
</g>
<defs>
<filter id="filter0_d" x="0" y="0.669434" width="68.0784" height="24" filterUnits="userSpaceOnUse" color-interpolation-filters="sRGB">
<feFlood flood-opacity="0" result="BackgroundImageFix"/>
<feColorMatrix in="SourceAlpha" type="matrix" values="0 0 0 0 0 0 0 0 0 0 0 0 0 0 0 0 0 0 127 0" result="hardAlpha"/>
<feOffset dy="4"/>
<feGaussianBlur stdDeviation="2"/>
<feComposite in2="hardAlpha" operator="out"/>
<feColorMatrix type="matrix" values="0 0 0 0 0 0 0 0 0 0 0 0 0 0 0 0 0 0 0.25 0"/>
<feBlend mode="normal" in2="BackgroundImageFix" result="effect1_dropShadow"/>
<feBlend mode="normal" in="SourceGraphic" in2="effect1_dropShadow" result="shape"/>
</filter>
<linearGradient id="paint0_linear" x1="34.0392" y1="0.669434" x2="34.0392" y2="16.6694" gradientUnits="userSpaceOnUse">
<stop stop-color="#0072BC"/>
<stop offset="1" stop-color="#005287"/>
</linearGradient>
<clipPath id="clip0">
<rect width="12" height="12" fill="white" transform="translate(8 2.16943)"/>
</clipPath>
</defs>
</svg>
