<svg width="140" height="32" viewBox="0 0 140 32" fill="none" xmlns="http://www.w3.org/2000/svg">
<g filter="url(#filter0_d)">
<path d="M135.187 10.2286L127.872 1.08571C127.301 0.4 126.501 0 125.644 0H7.70578C6.10578 0 4.84863 1.25714 4.84863 2.85714V21.1429C4.84863 22.7429 6.10578 24 7.70578 24H125.644C126.501 24 127.358 23.6 127.872 22.9143L135.187 13.7714C136.044 12.7429 136.044 11.2571 135.187 10.2286Z" fill="url(#paint0_linear)"/>
<path d="M15.458 18H13.0439V11.3906L13.0674 10.3047L13.1064 9.11719C12.7054 9.51823 12.4268 9.78125 12.2705 9.90625L10.958 10.9609L9.79395 9.50781L13.4736 6.57812H15.458V18ZM20.4502 10C20.4502 10.6615 20.5075 11.1562 20.6221 11.4844C20.7419 11.8073 20.932 11.9688 21.1924 11.9688C21.6924 11.9688 21.9424 11.3125 21.9424 10C21.9424 8.69792 21.6924 8.04688 21.1924 8.04688C20.932 8.04688 20.7419 8.20833 20.6221 8.53125C20.5075 8.84896 20.4502 9.33854 20.4502 10ZM23.9111 9.98438C23.9111 11.1823 23.6794 12.0833 23.2158 12.6875C22.7523 13.2865 22.0726 13.5859 21.1768 13.5859C20.3174 13.5859 19.6533 13.2786 19.1846 12.6641C18.7158 12.0443 18.4814 11.151 18.4814 9.98438C18.4814 7.60417 19.3799 6.41406 21.1768 6.41406C22.057 6.41406 22.7314 6.72396 23.2002 7.34375C23.6742 7.95833 23.9111 8.83854 23.9111 9.98438ZM29.2861 6.57812L22.9502 18H21.0752L27.4111 6.57812H29.2861ZM28.4502 14.5625C28.4502 15.224 28.5075 15.7188 28.6221 16.0469C28.7419 16.3698 28.932 16.5312 29.1924 16.5312C29.6924 16.5312 29.9424 15.875 29.9424 14.5625C29.9424 13.2604 29.6924 12.6094 29.1924 12.6094C28.932 12.6094 28.7419 12.7708 28.6221 13.0938C28.5075 13.4115 28.4502 13.901 28.4502 14.5625ZM31.9111 14.5469C31.9111 15.7396 31.6794 16.638 31.2158 17.2422C30.7523 17.8411 30.0726 18.1406 29.1768 18.1406C28.3174 18.1406 27.6533 17.8333 27.1846 17.2188C26.7158 16.599 26.4814 15.7083 26.4814 14.5469C26.4814 12.1667 27.3799 10.9766 29.1768 10.9766C30.057 10.9766 30.7314 11.2865 31.2002 11.9062C31.6742 12.5208 31.9111 13.401 31.9111 14.5469ZM47.5908 18H44.6689V12.8438H40.6924V18H37.7705V6.36719H40.6924V10.625H44.6689V6.36719H47.5908V18ZM60.5986 12.1875C60.5986 14.0677 60.096 15.5469 59.0908 16.625C58.0856 17.7031 56.708 18.2422 54.958 18.2422C53.2028 18.2422 51.8252 17.6979 50.8252 16.6094C49.8252 15.5156 49.3252 14.0417 49.3252 12.1875C49.3252 10.3177 49.8252 8.84115 50.8252 7.75781C51.8252 6.66927 53.2028 6.125 54.958 6.125C56.708 6.125 58.0856 6.66667 59.0908 7.75C60.096 8.82812 60.5986 10.3073 60.5986 12.1875ZM57.583 12.1797C57.583 11.487 57.5101 10.8984 57.3643 10.4141C57.2236 9.92448 57.0335 9.52344 56.7939 9.21094C56.5439 8.89323 56.2601 8.66667 55.9424 8.53125C55.6299 8.39062 55.3044 8.32031 54.9658 8.32031C54.6064 8.32031 54.2809 8.38542 53.9893 8.51562C53.6976 8.64062 53.4163 8.86719 53.1455 9.19531C52.9059 9.4974 52.7106 9.89844 52.5596 10.3984C52.4137 10.8984 52.3408 11.4948 52.3408 12.1875C52.3408 12.901 52.4111 13.4948 52.5518 13.9688C52.6924 14.4375 52.8851 14.8307 53.1299 15.1484C53.3799 15.4714 53.6637 15.7031 53.9814 15.8438C54.2992 15.9792 54.6273 16.0469 54.9658 16.0469C55.3096 16.0469 55.6429 15.974 55.9658 15.8281C56.2887 15.6771 56.5674 15.4453 56.8018 15.1328C57.0518 14.7943 57.2445 14.401 57.3799 13.9531C57.5153 13.5 57.583 12.9089 57.583 12.1797ZM61.083 18L65.0127 6.36719H68.2002L72.1299 18H69.1221L68.3955 15.625H64.7393L64.0127 18H61.083ZM67.7549 13.5156L66.5674 9.67969L65.3799 13.5156H67.7549ZM68.2939 5.0625H66.4346L64.0908 1.99219H66.6768L68.2939 5.0625ZM83.2549 18H80.4424L75.958 9.89062V18H73.2861V6.36719H76.8721L80.583 13.0312V6.36719H83.2549V18ZM92.5361 18V8.58594H89.0986V6.36719H98.8955V8.58594H95.458V18H92.5361ZM110.856 18H107.294L104.052 13.7344H103.005V18H100.099V6.36719H104.778C105.424 6.36719 105.987 6.40885 106.466 6.49219C106.945 6.57031 107.388 6.73698 107.794 6.99219C108.211 7.25781 108.541 7.59635 108.786 8.00781C109.031 8.41406 109.153 8.93229 109.153 9.5625C109.153 10.4531 108.953 11.1771 108.552 11.7344C108.151 12.2865 107.614 12.7266 106.942 13.0547L110.856 18ZM106.153 9.92969C106.153 9.63802 106.096 9.38802 105.981 9.17969C105.872 8.96615 105.687 8.80208 105.427 8.6875C105.244 8.60938 105.041 8.5599 104.817 8.53906C104.593 8.51823 104.315 8.50781 103.981 8.50781H103.005V11.6406H103.841C104.247 11.6406 104.591 11.6172 104.872 11.5703C105.159 11.5182 105.401 11.4115 105.599 11.25C105.786 11.1042 105.924 10.9297 106.013 10.7266C106.106 10.5234 106.153 10.2578 106.153 9.92969ZM110.474 18L114.403 6.36719H117.591L121.521 18H118.513L117.786 15.625H114.13L113.403 18H110.474ZM117.146 13.5156L115.958 9.67969L114.771 13.5156H117.146ZM117.646 3.19531C117.646 3.57552 117.547 3.86198 117.349 4.05469C117.156 4.24219 116.911 4.38802 116.614 4.49219V4.95312H115.224V4.07812C115.468 4.01562 115.653 3.92188 115.778 3.79688C115.903 3.67188 115.966 3.50781 115.966 3.30469C115.966 3.17969 115.916 3.08073 115.817 3.00781C115.718 2.92969 115.583 2.89062 115.411 2.89062C115.25 2.89062 115.119 2.90365 115.021 2.92969C114.927 2.95052 114.817 2.98438 114.692 3.03125H114.669V2.13281C114.768 2.10156 114.919 2.07031 115.122 2.03906C115.325 2.00781 115.539 1.99219 115.763 1.99219C116.388 1.99219 116.856 2.11198 117.169 2.35156C117.487 2.59115 117.646 2.8724 117.646 3.19531Z" fill="white"/>
</g>
<defs>
<filter id="filter0_d" x="0.848633" y="0" width="138.981" height="32" filterUnits="userSpaceOnUse" color-interpolation-filters="sRGB">
<feFlood flood-opacity="0" result="BackgroundImageFix"/>
<feColorMatrix in="SourceAlpha" type="matrix" values="0 0 0 0 0 0 0 0 0 0 0 0 0 0 0 0 0 0 127 0" result="hardAlpha"/>
<feOffset dy="4"/>
<feGaussianBlur stdDeviation="2"/>
<feComposite in2="hardAlpha" operator="out"/>
<feColorMatrix type="matrix" values="0 0 0 0 0 0 0 0 0 0 0 0 0 0 0 0 0 0 0.25 0"/>
<feBlend mode="normal" in2="BackgroundImageFix" result="effect1_dropShadow"/>
<feBlend mode="normal" in="SourceGraphic" in2="effect1_dropShadow" result="shape"/>
</filter>
<linearGradient id="paint0_linear" x1="69.1916" y1="0" x2="69.1916" y2="24" gradientUnits="userSpaceOnUse">
<stop stop-color="#0072BC"/>
<stop offset="1" stop-color="#005287"/>
</linearGradient>
</defs>
</svg>
