<svg width="55" height="20" viewBox="0 0 55 20" fill="none" xmlns="http://www.w3.org/2000/svg">
<g filter="url(#filter0_d)">
<path d="M53.5 6.81905L46.919 0.72381C46.4049 0.266667 45.6851 0 44.9139 0H6.57069C5.13111 0 4 0.838095 4 1.90476V14.0952C4 15.1619 5.13111 16 6.57069 16H44.9139C45.6851 16 46.4563 15.7333 46.919 15.2762L53.5 9.18095C54.2712 8.49524 54.2712 7.50476 53.5 6.81905Z" fill="url(#paint0_linear)"/>
<path d="M13.6443 10.5071V9.79575C13.1916 9.79575 12.6742 9.66641 12.4155 9.4724L12.6095 8.63168C12.9329 8.82569 13.3209 8.95503 13.7736 8.95503C14.1616 8.95503 14.485 8.82569 14.485 8.50234C14.485 8.24365 14.2263 8.04964 13.7089 7.85563C12.9329 7.59695 12.4155 7.20892 12.4155 6.56222C12.4155 5.91551 12.8682 5.46282 13.6443 5.2688V4.68677H14.3556V5.33347C14.8083 5.33347 15.1317 5.46282 15.3904 5.59216L15.1964 6.43288C15.0024 6.3682 14.679 6.17419 14.1616 6.17419C13.7089 6.17419 13.5149 6.3682 13.5149 6.56222C13.5149 6.8209 13.7736 6.95024 14.3556 7.20892C15.1964 7.53228 15.5844 7.9203 15.5844 8.56701C15.5844 9.21371 15.1317 9.73108 14.291 9.92509V10.6365H13.6443V10.5071Z" fill="white"/>
<path d="M19.3352 8.30832C18.8825 10.9598 16.619 12.8999 13.9028 12.8999C12.4801 12.8999 11.122 12.3826 10.0873 11.3478L9.69923 10.9598L8.53516 12.1239L8.59983 8.89036H11.7687L10.5399 10.1191L10.928 10.5071C11.704 11.2832 12.8034 11.6712 13.9028 11.6712C15.9723 11.6712 17.7184 10.2484 18.1064 8.24365H19.3352V8.30832Z" fill="white"/>
<path d="M14.0969 2.09991C15.5196 2.09991 16.8777 2.61728 17.9125 3.65201L18.3005 4.04003L19.4646 2.87596L19.3999 6.1095H16.231L17.4598 4.88075L17.0717 4.49273C16.2957 3.71668 15.1963 3.32866 14.0969 3.32866C12.0274 3.32866 10.2813 4.75141 9.89329 6.7562H8.66455C9.11725 4.10471 11.3807 2.09991 14.0969 2.09991Z" fill="white"/>
<path d="M28.957 12.5H27.1465V7.54297L27.1641 6.72852L27.1934 5.83789C26.8926 6.13867 26.6836 6.33594 26.5664 6.42969L25.582 7.2207L24.709 6.13086L27.4688 3.93359H28.957V12.5ZM32.7012 6.5C32.7012 6.99609 32.7441 7.36719 32.8301 7.61328C32.9199 7.85547 33.0625 7.97656 33.2578 7.97656C33.6328 7.97656 33.8203 7.48438 33.8203 6.5C33.8203 5.52344 33.6328 5.03516 33.2578 5.03516C33.0625 5.03516 32.9199 5.15625 32.8301 5.39844C32.7441 5.63672 32.7012 6.00391 32.7012 6.5ZM35.2969 6.48828C35.2969 7.38672 35.123 8.0625 34.7754 8.51562C34.4277 8.96484 33.918 9.18945 33.2461 9.18945C32.6016 9.18945 32.1035 8.95898 31.752 8.49805C31.4004 8.0332 31.2246 7.36328 31.2246 6.48828C31.2246 4.70312 31.8984 3.81055 33.2461 3.81055C33.9062 3.81055 34.4121 4.04297 34.7637 4.50781C35.1191 4.96875 35.2969 5.62891 35.2969 6.48828ZM39.3281 3.93359L34.5762 12.5H33.1699L37.9219 3.93359H39.3281ZM38.7012 9.92188C38.7012 10.418 38.7441 10.7891 38.8301 11.0352C38.9199 11.2773 39.0625 11.3984 39.2578 11.3984C39.6328 11.3984 39.8203 10.9062 39.8203 9.92188C39.8203 8.94531 39.6328 8.45703 39.2578 8.45703C39.0625 8.45703 38.9199 8.57812 38.8301 8.82031C38.7441 9.05859 38.7012 9.42578 38.7012 9.92188ZM41.2969 9.91016C41.2969 10.8047 41.123 11.4785 40.7754 11.9316C40.4277 12.3809 39.918 12.6055 39.2461 12.6055C38.6016 12.6055 38.1035 12.375 37.752 11.9141C37.4004 11.4492 37.2246 10.7812 37.2246 9.91016C37.2246 8.125 37.8984 7.23242 39.2461 7.23242C39.9062 7.23242 40.4121 7.46484 40.7637 7.92969C41.1191 8.39062 41.2969 9.05078 41.2969 9.91016Z" fill="white"/>
</g>
<defs>
<filter id="filter0_d" x="0" y="0" width="58.0784" height="24" filterUnits="userSpaceOnUse" color-interpolation-filters="sRGB">
<feFlood flood-opacity="0" result="BackgroundImageFix"/>
<feColorMatrix in="SourceAlpha" type="matrix" values="0 0 0 0 0 0 0 0 0 0 0 0 0 0 0 0 0 0 127 0" result="hardAlpha"/>
<feOffset dy="4"/>
<feGaussianBlur stdDeviation="2"/>
<feComposite in2="hardAlpha" operator="out"/>
<feColorMatrix type="matrix" values="0 0 0 0 0 0 0 0 0 0 0 0 0 0 0 0 0 0 0.25 0"/>
<feBlend mode="normal" in2="BackgroundImageFix" result="effect1_dropShadow"/>
<feBlend mode="normal" in="SourceGraphic" in2="effect1_dropShadow" result="shape"/>
</filter>
<linearGradient id="paint0_linear" x1="34.0392" y1="0" x2="34.0392" y2="16" gradientUnits="userSpaceOnUse">
<stop stop-color="#0072BC"/>
<stop offset="1" stop-color="#005287"/>
</linearGradient>
</defs>
</svg>
