<svg width="154" height="32" viewBox="0 0 154 32" fill="none" xmlns="http://www.w3.org/2000/svg">
<g filter="url(#filter0_d)">
<path d="M149.054 10.2286L141.74 1.08571C141.168 0.4 140.368 0 139.511 0H7.70578C6.10578 0 4.84863 1.25714 4.84863 2.85714V21.1429C4.84863 22.7429 6.10578 24 7.70578 24H139.511C140.368 24 141.226 23.6 141.74 22.9143L149.054 13.7714C149.911 12.7429 149.911 11.2571 149.054 10.2286Z" fill="url(#paint0_linear)"/>
<path d="M17.4111 12.2891C17.4111 14.2839 17.083 15.7604 16.4268 16.7188C15.7757 17.6771 14.7705 18.1562 13.4111 18.1562C12.0934 18.1562 11.0986 17.6615 10.4268 16.6719C9.76009 15.6823 9.42676 14.2214 9.42676 12.2891C9.42676 10.2734 9.75228 8.78906 10.4033 7.83594C11.0544 6.8776 12.057 6.39844 13.4111 6.39844C14.7288 6.39844 15.7236 6.89844 16.3955 7.89844C17.0726 8.89844 17.4111 10.362 17.4111 12.2891ZM11.8252 12.2891C11.8252 13.6901 11.945 14.6953 12.1846 15.3047C12.4294 15.9089 12.8382 16.2109 13.4111 16.2109C13.9736 16.2109 14.3799 15.9036 14.6299 15.2891C14.8799 14.6745 15.0049 13.6745 15.0049 12.2891C15.0049 10.888 14.8773 9.88281 14.6221 9.27344C14.3721 8.65885 13.9684 8.35156 13.4111 8.35156C12.8434 8.35156 12.4372 8.65885 12.1924 9.27344C11.9476 9.88281 11.8252 10.888 11.8252 12.2891ZM18.9033 16.8828C18.9033 16.4453 19.0205 16.1146 19.2549 15.8906C19.4893 15.6667 19.8304 15.5547 20.2783 15.5547C20.7106 15.5547 21.0439 15.6693 21.2783 15.8984C21.5179 16.1276 21.6377 16.4557 21.6377 16.8828C21.6377 17.2943 21.5179 17.6198 21.2783 17.8594C21.0387 18.0938 20.7054 18.2109 20.2783 18.2109C19.8408 18.2109 19.5023 18.0964 19.2627 17.8672C19.0231 17.6328 18.9033 17.3047 18.9033 16.8828ZM27.1299 6.42969C28.2236 6.42969 29.1038 6.67969 29.7705 7.17969C30.4424 7.67448 30.7783 8.34375 30.7783 9.1875C30.7783 9.77083 30.6169 10.2917 30.2939 10.75C29.971 11.2031 29.4502 11.6094 28.7314 11.9688C29.5856 12.4271 30.1976 12.9062 30.5674 13.4062C30.9424 13.901 31.1299 14.4453 31.1299 15.0391C31.1299 15.9766 30.7627 16.7318 30.0283 17.3047C29.2939 17.8724 28.3278 18.1562 27.1299 18.1562C25.8799 18.1562 24.8981 17.8906 24.1846 17.3594C23.471 16.8281 23.1143 16.0755 23.1143 15.1016C23.1143 14.4505 23.2861 13.8724 23.6299 13.3672C23.9788 12.862 24.5361 12.4167 25.3018 12.0312C24.6507 11.6198 24.182 11.1797 23.8955 10.7109C23.609 10.2422 23.4658 9.72917 23.4658 9.17188C23.4658 8.35417 23.8044 7.69271 24.4814 7.1875C25.1585 6.68229 26.0413 6.42969 27.1299 6.42969ZM25.3486 14.9609C25.3486 15.4089 25.5049 15.7578 25.8174 16.0078C26.1299 16.2578 26.557 16.3828 27.0986 16.3828C27.6976 16.3828 28.1455 16.2552 28.4424 16C28.7393 15.7396 28.8877 15.3984 28.8877 14.9766C28.8877 14.6276 28.7393 14.3021 28.4424 14C28.1507 13.6927 27.6742 13.3672 27.0127 13.0234C25.9033 13.5339 25.3486 14.1797 25.3486 14.9609ZM27.1143 8.19531C26.7028 8.19531 26.3695 8.30208 26.1143 8.51562C25.8643 8.72396 25.7393 9.00521 25.7393 9.35938C25.7393 9.67188 25.8382 9.95312 26.0361 10.2031C26.2393 10.4479 26.6038 10.7005 27.1299 10.9609C27.6403 10.7214 27.9971 10.4766 28.2002 10.2266C28.4033 9.97656 28.5049 9.6875 28.5049 9.35938C28.5049 9 28.3747 8.71615 28.1143 8.50781C27.8538 8.29948 27.5205 8.19531 27.1143 8.19531ZM34.1533 10C34.1533 10.6615 34.2106 11.1562 34.3252 11.4844C34.445 11.8073 34.6351 11.9688 34.8955 11.9688C35.3955 11.9688 35.6455 11.3125 35.6455 10C35.6455 8.69792 35.3955 8.04688 34.8955 8.04688C34.6351 8.04688 34.445 8.20833 34.3252 8.53125C34.2106 8.84896 34.1533 9.33854 34.1533 10ZM37.6143 9.98438C37.6143 11.1823 37.3825 12.0833 36.9189 12.6875C36.4554 13.2865 35.7757 13.5859 34.8799 13.5859C34.0205 13.5859 33.3564 13.2786 32.8877 12.6641C32.4189 12.0443 32.1846 11.151 32.1846 9.98438C32.1846 7.60417 33.083 6.41406 34.8799 6.41406C35.7601 6.41406 36.4346 6.72396 36.9033 7.34375C37.3773 7.95833 37.6143 8.83854 37.6143 9.98438ZM42.9893 6.57812L36.6533 18H34.7783L41.1143 6.57812H42.9893ZM42.1533 14.5625C42.1533 15.224 42.2106 15.7188 42.3252 16.0469C42.445 16.3698 42.6351 16.5312 42.8955 16.5312C43.3955 16.5312 43.6455 15.875 43.6455 14.5625C43.6455 13.2604 43.3955 12.6094 42.8955 12.6094C42.6351 12.6094 42.445 12.7708 42.3252 13.0938C42.2106 13.4115 42.1533 13.901 42.1533 14.5625ZM45.6143 14.5469C45.6143 15.7396 45.3825 16.638 44.9189 17.2422C44.4554 17.8411 43.7757 18.1406 42.8799 18.1406C42.0205 18.1406 41.3564 17.8333 40.8877 17.2188C40.4189 16.599 40.1846 15.7083 40.1846 14.5469C40.1846 12.1667 41.083 10.9766 42.8799 10.9766C43.7601 10.9766 44.4346 11.2865 44.9033 11.9062C45.3773 12.5208 45.6143 13.401 45.6143 14.5469ZM61.2939 18H58.3721V12.8438H54.3955V18H51.4736V6.36719H54.3955V10.625H58.3721V6.36719H61.2939V18ZM74.3018 12.1875C74.3018 14.0677 73.7992 15.5469 72.7939 16.625C71.7887 17.7031 70.4111 18.2422 68.6611 18.2422C66.9059 18.2422 65.5283 17.6979 64.5283 16.6094C63.5283 15.5156 63.0283 14.0417 63.0283 12.1875C63.0283 10.3177 63.5283 8.84115 64.5283 7.75781C65.5283 6.66927 66.9059 6.125 68.6611 6.125C70.4111 6.125 71.7887 6.66667 72.7939 7.75C73.7992 8.82812 74.3018 10.3073 74.3018 12.1875ZM71.2861 12.1797C71.2861 11.487 71.2132 10.8984 71.0674 10.4141C70.9268 9.92448 70.7367 9.52344 70.4971 9.21094C70.2471 8.89323 69.9632 8.66667 69.6455 8.53125C69.333 8.39062 69.0075 8.32031 68.6689 8.32031C68.3096 8.32031 67.984 8.38542 67.6924 8.51562C67.4007 8.64062 67.1195 8.86719 66.8486 9.19531C66.609 9.4974 66.4137 9.89844 66.2627 10.3984C66.1169 10.8984 66.0439 11.4948 66.0439 12.1875C66.0439 12.901 66.1143 13.4948 66.2549 13.9688C66.3955 14.4375 66.5882 14.8307 66.833 15.1484C67.083 15.4714 67.3669 15.7031 67.6846 15.8438C68.0023 15.9792 68.3304 16.0469 68.6689 16.0469C69.0127 16.0469 69.346 15.974 69.6689 15.8281C69.9919 15.6771 70.2705 15.4453 70.5049 15.1328C70.7549 14.7943 70.9476 14.401 71.083 13.9531C71.2184 13.5 71.2861 12.9089 71.2861 12.1797ZM74.7861 18L78.7158 6.36719H81.9033L85.833 18H82.8252L82.0986 15.625H78.4424L77.7158 18H74.7861ZM81.458 13.5156L80.2705 9.67969L79.083 13.5156H81.458ZM81.9971 5.0625H80.1377L77.7939 1.99219H80.3799L81.9971 5.0625ZM96.958 18H94.1455L89.6611 9.89062V18H86.9893V6.36719H90.5752L94.2861 13.0312V6.36719H96.958V18ZM106.239 18V8.58594H102.802V6.36719H112.599V8.58594H109.161V18H106.239ZM124.56 18H120.997L117.755 13.7344H116.708V18H113.802V6.36719H118.481C119.127 6.36719 119.69 6.40885 120.169 6.49219C120.648 6.57031 121.091 6.73698 121.497 6.99219C121.914 7.25781 122.244 7.59635 122.489 8.00781C122.734 8.41406 122.856 8.93229 122.856 9.5625C122.856 10.4531 122.656 11.1771 122.255 11.7344C121.854 12.2865 121.317 12.7266 120.646 13.0547L124.56 18ZM119.856 9.92969C119.856 9.63802 119.799 9.38802 119.685 9.17969C119.575 8.96615 119.39 8.80208 119.13 8.6875C118.948 8.60938 118.744 8.5599 118.521 8.53906C118.297 8.51823 118.018 8.50781 117.685 8.50781H116.708V11.6406H117.544C117.95 11.6406 118.294 11.6172 118.575 11.5703C118.862 11.5182 119.104 11.4115 119.302 11.25C119.489 11.1042 119.627 10.9297 119.716 10.7266C119.81 10.5234 119.856 10.2578 119.856 9.92969ZM124.177 18L128.106 6.36719H131.294L135.224 18H132.216L131.489 15.625H127.833L127.106 18H124.177ZM130.849 13.5156L129.661 9.67969L128.474 13.5156H130.849ZM131.349 3.19531C131.349 3.57552 131.25 3.86198 131.052 4.05469C130.859 4.24219 130.614 4.38802 130.317 4.49219V4.95312H128.927V4.07812C129.172 4.01562 129.356 3.92188 129.481 3.79688C129.606 3.67188 129.669 3.50781 129.669 3.30469C129.669 3.17969 129.619 3.08073 129.521 3.00781C129.422 2.92969 129.286 2.89062 129.114 2.89062C128.953 2.89062 128.823 2.90365 128.724 2.92969C128.63 2.95052 128.521 2.98438 128.396 3.03125H128.372V2.13281C128.471 2.10156 128.622 2.07031 128.825 2.03906C129.028 2.00781 129.242 1.99219 129.466 1.99219C130.091 1.99219 130.56 2.11198 130.872 2.35156C131.19 2.59115 131.349 2.8724 131.349 3.19531Z" fill="white"/>
</g>
<defs>
<filter id="filter0_d" x="0.848633" y="0" width="152.848" height="32" filterUnits="userSpaceOnUse" color-interpolation-filters="sRGB">
<feFlood flood-opacity="0" result="BackgroundImageFix"/>
<feColorMatrix in="SourceAlpha" type="matrix" values="0 0 0 0 0 0 0 0 0 0 0 0 0 0 0 0 0 0 127 0" result="hardAlpha"/>
<feOffset dy="4"/>
<feGaussianBlur stdDeviation="2"/>
<feComposite in2="hardAlpha" operator="out"/>
<feColorMatrix type="matrix" values="0 0 0 0 0 0 0 0 0 0 0 0 0 0 0 0 0 0 0.25 0"/>
<feBlend mode="normal" in2="BackgroundImageFix" result="effect1_dropShadow"/>
<feBlend mode="normal" in="SourceGraphic" in2="effect1_dropShadow" result="shape"/>
</filter>
<linearGradient id="paint0_linear" x1="69.1914" y1="0" x2="69.1914" y2="24" gradientUnits="userSpaceOnUse">
<stop stop-color="#0072BC"/>
<stop offset="1" stop-color="#005287"/>
</linearGradient>
</defs>
</svg>
