<svg xmlns="http://www.w3.org/2000/svg" width="44" height="48" fill="none" viewBox="0 0 44 48">
    <path fill="#fff" fill-rule="evenodd" d="M26.46 3.32c7.387 5.76 9.136 17.027 3.905 25.163l11.891 13c.044.046.084.09.125.139 1.304 1.512 1.249 3.903-.125 5.339-1.373 1.437-3.544 1.376-4.848-.136l-12.082-13.23c-5.561 3.618-12.531 3.301-17.803-.81-7.388-5.76-9.136-17.026-3.906-25.162C8.847-.515 19.074-2.44 26.46 3.32zM6.41 18.08c.004 6.43 4.736 11.638 10.573 11.637h.007c5.84-.012 10.566-5.232 10.555-11.663-.01-6.421-4.74-11.622-10.57-11.619C11.136 6.438 6.408 11.65 6.41 18.08z" clip-rule="evenodd"/>
</svg>
