<svg xmlns="http://www.w3.org/2000/svg" width="44" height="48" fill="none" viewBox="0 0 44 48">
    <path fill="#1A2332" fill-rule="evenodd" d="M26.181 3.32c7.386 5.76 9.136 17.027 3.905 25.163l11.891 13c.044.046.084.09.125.139 1.303 1.512 1.248 3.903-.125 5.339-1.373 1.437-3.544 1.376-4.848-.136l-12.083-13.23c-5.56 3.618-12.53 3.301-17.803-.81-7.387-5.76-9.135-17.026-3.906-25.162C8.567-.515 18.795-2.44 26.181 3.32zM6.13 18.08c.003 6.43 4.736 11.638 10.572 11.637h.008c5.84-.012 10.565-5.232 10.555-11.663-.011-6.421-4.74-11.622-10.57-11.619C10.857 6.438 6.128 11.65 6.13 18.08z" clip-rule="evenodd"/>
</svg>
