<svg xmlns="http://www.w3.org/2000/svg" width="32" height="32" fill="none" viewBox="0 0 32 32">
    <path fill="#CB0028" d="M16 32c4.87 0 9.044-2.087 11.826-4.87H4.174C6.957 29.914 11.13 32 16 32zM4.174 5.565h23.652C25.044 2.087 20.87 0 16 0S6.957 2.087 4.174 5.565z"/>
    <path fill="#fff" d="M4.174 26.435h23.652c1.392-1.392 2.783-3.479 3.479-5.566H.695c.696 2.783 2.088 4.174 3.48 5.566zM.696 10.435h29.913c-.696-2.087-1.392-3.479-2.783-4.87H4.174C2.783 6.956 1.391 8.348.696 10.435z"/>
    <path fill="#1A237B" d="M0 16c0 2.087.696 3.478.696 5.565h29.913c.695-1.391.695-3.478.695-5.565s-.695-3.478-.695-4.87H.696C.696 12.522 0 13.913 0 16z"/>
</svg>
