<svg xmlns="http://www.w3.org/2000/svg" width="33" height="32" fill="none" viewBox="0 0 33 32">
    <path fill="#FF1612" d="M16.304 32c8.837 0 16-7.163 16-16s-7.163-16-16-16c-8.836 0-16 7.163-16 16s7.164 16 16 16z"/>
    <path fill="#FEDF00" fill-rule="evenodd" d="M20.393 7.2l-.8 1.067-1.333-.445.8 1.156-.8 1.066 1.244-.444.8 1.156V9.422l1.334-.355-1.334-.445.09-1.422zm4.533 4.356L23.593 12l-.8-1.067v1.334l-1.333.444 1.333.445v1.333l.8-1.156 1.333.445-.8-1.067.8-1.155zm.356 6.044h-1.333l-.445-1.333-.444 1.333h-1.422l1.066.8-.444 1.333 1.155-.8 1.067.8-.444-1.333 1.244-.8zm-3.556 4.178l-1.333-.445V20l-.8 1.156-1.333-.445.8 1.067-.8 1.155 1.333-.444.8 1.067v-1.334l1.333-.444zm-11.11-12.8L9.37 12.889h-4l3.289 2.4-1.245 3.822 3.29-2.4 3.288 2.4-1.244-3.822 3.289-2.4H11.86l-1.245-3.911z" clip-rule="evenodd"/>
</svg>
