<svg xmlns="http://www.w3.org/2000/svg" width="24" height="24" fill="none" viewBox="0 0 24 24">
    <path fill="#fff" d="M12 1.5C6.25 1.5 1.5 6.125 1.5 12c0 5.75 4.625 10.5 10.5 10.5 5.75 0 10.5-4.625 10.5-10.5S17.75 1.5 12 1.5zm-1.125 3c.25-.25.625-.5 1.125-.5s.75.125 1.125.5c.25.25.5.625.5 1.125 0 .375-.125.75-.5 1.125-.25.25-.625.375-1.125.375-.375 0-.75-.125-1.125-.375-.25-.375-.375-.75-.375-1.125 0-.5.125-.875.375-1.125zm3.75 13.625H9.5v-.375c.375 0 .75-.125.875-.375.125-.125.25-.625.25-1.25v-5.5c0-.625-.125-1.125-.25-1.25C10.25 9.125 9.875 9 9.5 9v-.375h4v7.5c0 .625.125 1.125.25 1.25s.5.25.875.375v.375z"/>
</svg>
