<svg xmlns="http://www.w3.org/2000/svg" width="25" height="26" fill="none" viewBox="0 0 25 26">
    <path fill="#fff" fill-rule="evenodd" d="M12.5 2.5C6.697 2.5 2 7.197 2 13s4.697 10.5 10.5 10.5S23 18.803 23 13 18.303 2.5 12.5 2.5zm4.697 15.529c-.442.663-.829 1.271-1.27 1.934-.387.553-.609.553-1.05.332-4.698-2.598-6.853-7.958-7.185-13.76 0-.498.11-.72.774-.774.773-.056 1.547-.111 2.266-.222.331 0 .552.166.663.553.276.94.552 1.934.829 2.874.11.442 0 .718-.277.829-.442.276-.94.552-1.381.773.331 1.658.608 2.819 2.1 5.14.442-.276.829-.553 1.326-.83.276-.165.553-.11.884.167.719.718 1.437 1.381 2.156 2.1.276.331.331.608.165.884z" clip-rule="evenodd"/>
</svg>
