<svg xmlns="http://www.w3.org/2000/svg" width="16" height="16" fill="none" viewBox="0 0 16 16">
    <path fill="#000" d="M13.902 2.478H2.02c-.195 0-.378.049-.543.13l6.456 6.546 1.447-1.41 5.066-5.137c-.166-.08-.348-.129-.543-.129zM15.014 3.181l-4.737 4.802 4.737 4.802c.079-.166.126-.35.126-.547v-8.51c0-.197-.047-.38-.126-.547zM.793 3.181c-.079.167-.126.35-.126.547v8.51c0 .197.047.38.126.547L5.53 7.983.793 3.181z"/>
    <path fill="#000" d="M9.563 8.569L8.116 9.967c-.082.083-.19.124-.298.124-.109 0-.217-.041-.3-.124l-1.39-1.398-4.767 4.79c.166.08.348.129.543.129h11.883c.195 0 .377-.048.543-.128L9.563 8.569z"/>
</svg>
