<svg xmlns="http://www.w3.org/2000/svg" width="16" height="16" fill="none" viewBox="0 0 16 16">
    <path fill="#000" d="M9.833 11s-.6.233-2.8-1.833C4.833 7.1 5.2 6.4 5.2 6.4s1.733-.367 1.6-1.467c-.133-1.066-1.967-3.2-2.433-3.6-.467-.4-1.267 0-1.567.234C2.5 1.8.567 3.9 1.267 5.7c.7 1.8 2.466 5.733 8.566 8.967 0 0 1.634 1.066 3.634-.334 0 0 1.266-.8 1.466-1.566 0 0 .4-.734-.733-1.6 0 0-1.567-1.3-2.633-1.667 0 0-1.234-.6-1.734 1.5z"/>
    <path fill="#000" d="M11.4 7.7c-.233 0-.467-.2-.467-.433 0-.034-.066-.867-.866-1.467-.834-.667-1.934-.5-1.934-.5-.266.033-.5-.133-.533-.4-.033-.267.133-.5.4-.533.067 0 1.5-.234 2.667.7 1.1.9 1.2 2.1 1.2 2.133.033.267-.167.467-.434.5H11.4z"/>
    <path fill="#000" d="M13.033 7.567c-.266 0-.466-.2-.466-.467 0-.067-.034-1.4-1.434-2.567C9.533 3.4 8.033 3.7 8 3.7c-.267.067-.5-.1-.567-.367-.066-.266.1-.5.367-.566.067-.034 1.933-.4 3.9 1l.033.033c1.767 1.467 1.8 3.2 1.8 3.3-.033.233-.266.467-.5.467z"/>
    <path fill="#000" d="M14.633 7.3c-.3 0-.5-.233-.466-.5 0-.067.066-2.1-2.067-3.7-2-1.533-4.3-1.033-4.3-1.033-.267.066-.5-.1-.567-.367-.066-.267.1-.5.367-.567.1 0 2.733-.566 5.067 1.234 2.566 1.933 2.466 4.4 2.433 4.5 0 .233-.2.433-.467.433z"/>
</svg>
