<?xml version="1.0" encoding="utf-8"?>
<!-- Generator: Adobe Illustrator 16.0.2, SVG Export Plug-In . SVG Version: 6.00 Build 0)  -->
<!DOCTYPE svg PUBLIC "-//W3C//DTD SVG 1.1//EN" "http://www.w3.org/Graphics/SVG/1.1/DTD/svg11.dtd">
<svg version="1.1" id="Layer_1" xmlns="http://www.w3.org/2000/svg" xmlns:xlink="http://www.w3.org/1999/xlink" x="0px" y="0px"
	 width="80.904px" height="25px" viewBox="4.493 0 80.904 25" enable-background="new 4.493 0 80.904 25" xml:space="preserve">
<path fill="#FFFFFF" d="M26.357,8.973c-1.2-2.94-6.12-3.54-11.46-1.68l-2.4-1.5c-0.72-0.42-1.56,0.12-1.62,0.96v2.4
	c-4.62,2.76-7.26,6.72-6.12,9.541c1.32,3.24,7.2,3.66,13.2,0.959C23.897,17.014,27.677,12.213,26.357,8.973z M13.217,7.653l5.7,3.6
	c0.42,0.24,0.48,0.9,0,1.2l-5.76,3.48c-0.42,0.239-1.08-0.061-1.02-0.66v-6.96C12.137,7.773,12.737,7.413,13.217,7.653z
	 M10.217,20.732c-2.58-0.18-3.6-1.92-2.94-4.26c0,0.36,0.06,0.78,0.18,1.08c1.02,2.521,5.58,2.82,10.14,0.78
	c0.12-0.06,0.18-0.06,0.3-0.12C15.317,19.893,12.437,20.854,10.217,20.732z M20.957,14.373c-2.28,2.939-6.42,4.98-9.24,4.74
	c-2.82-0.24-3.24-2.76-0.96-5.7c0.06-0.06,0.12-0.12,0.12-0.181v3.66c0,0.961,0.9,1.381,1.5,1.021l8.46-5.16
	c0.66-0.42,0.6-1.38-0.06-1.74l-3.36-1.98c0.9-0.3,1.8-0.42,2.58-0.36C22.877,8.913,23.297,11.493,20.957,14.373z M24.137,10.173
	c0-0.06,0-0.06-0.06-0.12c-0.84-1.98-3.9-2.64-7.5-1.68l-0.6-0.36c1.74-0.78,3.54-1.14,4.98-1.08
	C23.237,7.113,24.317,8.373,24.137,10.173z M85.217,15.273c-0.3,0.42-0.66,0.72-0.9,0.899c-0.299,0.24-0.539,0.42-0.659,0.42
	c-0.06,0-0.181-0.12-0.24-0.18s-0.12-0.12-0.12-0.181c0-0.119,0-0.239,0.061-0.359c0-0.12,0.06-0.24,0.06-0.359l1.681-5.701
	c0.059-0.18,0.059-0.3,0.119-0.48c0-0.12,0.061-0.24,0.061-0.36c0-0.3-0.061-0.54-0.24-0.72c-0.18-0.12-0.359-0.24-0.66-0.24
	c-0.6,0-1.38,0.36-2.4,1.02c-1.02,0.66-2.1,1.62-3.3,2.82l2.341-8.4h-0.601c-0.479,0.18-0.96,0.36-1.5,0.42
	c-0.54,0.12-1.14,0.18-1.74,0.18l-0.12,0.54h0.78c0.479,0,0.78,0.06,0.899,0.12c0.121,0.06,0.181,0.24,0.181,0.42v0.24
	c0,0.06,0,0.18-0.06,0.24l-2.28,8.22c-0.9,1.319-1.681,1.979-2.16,2.28c-0.479,0.3-0.96,0.539-1.5,0.539
	c-0.66,0-1.14-0.299-1.56-0.719c-0.36-0.42-0.541-1.021-0.541-1.74c0-0.66,0.121-1.32,0.36-1.98c0.24-0.66,0.54-1.32,1.021-1.92
	c0.359-0.48,0.779-0.9,1.26-1.2c0.48-0.3,0.96-0.42,1.38-0.42c0.24,0,0.42,0.06,0.54,0.12s0.18,0.18,0.18,0.3
	c0,0.06-0.06,0.24-0.18,0.48c-0.12,0.24-0.18,0.48-0.18,0.66c0,0.3,0.06,0.48,0.24,0.66c0.18,0.18,0.359,0.24,0.6,0.24
	c0.3,0,0.6-0.12,0.84-0.36c0.24-0.24,0.359-0.54,0.359-0.84c0-0.54-0.239-1.02-0.659-1.38c-0.421-0.36-1.021-0.54-1.74-0.54
	s-1.38,0.18-2.04,0.48c-0.66,0.3-1.26,0.78-1.859,1.32c-0.601,0.66-1.08,1.32-1.381,2.16c-0.359,0.78-0.479,1.56-0.479,2.339v0.42
	c-0.72,0.66-1.44,1.141-2.04,1.44c-0.66,0.36-1.26,0.601-1.801,0.601c-0.539,0-0.959-0.24-1.199-0.541
	c-0.301-0.299-0.42-0.719-0.42-1.26c0-0.18,0-0.359,0.06-0.6c0-0.24,0.06-0.48,0.12-0.721c1.859-0.18,3.359-0.6,4.561-1.319
	c1.14-0.72,1.74-1.62,1.74-2.58c0-0.54-0.181-1.02-0.601-1.32c-0.42-0.3-0.96-0.48-1.62-0.48c-0.721,0-1.439,0.18-2.16,0.54
	c-0.72,0.36-1.32,0.84-1.92,1.5c-0.6,0.66-1.08,1.5-1.439,2.34c-0.36,0.899-0.541,1.74-0.541,2.64c-0.42,0.48-0.719,0.84-1.02,1.08
	c-0.3,0.24-0.54,0.36-0.779,0.36c-0.181,0-0.301-0.06-0.361-0.181c-0.119-0.119-0.119-0.299-0.119-0.479v-0.3
	c0-0.12,0.061-0.24,0.061-0.42l1.619-6.42h1.68l0.181-0.72h-1.62l0.779-3.36h-0.6c-0.48,1.02-1.02,1.8-1.619,2.4
	c-0.601,0.54-1.261,0.96-2.041,1.08v0.06c-0.24-0.18-0.479-0.24-0.84-0.24c-0.42,0-0.779,0.12-1.02,0.36
	c-0.24,0.24-0.36,0.6-0.36,1.02c0,0.36,0.181,0.72,0.54,0.96c0.359,0.3,0.54,0.54,0.54,0.72c0,0.24-0.12,0.66-0.36,1.2
	c-0.24,0.54-0.66,1.44-1.26,2.64c-0.119-0.659-0.3-1.56-0.48-2.699c-0.479-2.82-0.899-4.2-1.26-4.2c-0.06,0-0.479,0.06-1.26,0.18
	l-1.439,0.18l0.06-0.18h-2.76l-0.3,1.14c-0.121-0.48-0.301-0.9-0.601-1.14c-0.3-0.24-0.659-0.36-1.2-0.36
	c-0.54,0-1.08,0.18-1.68,0.48c-0.6,0.3-1.14,0.78-1.68,1.38c-0.66,0.78-1.2,1.62-1.62,2.64c-0.36,0.9-0.54,1.8-0.6,2.58
	c-0.24,0.36-0.42,0.601-0.54,0.721c-0.12,0.18-0.24,0.24-0.36,0.24s-0.18-0.061-0.24-0.12s-0.06-0.181-0.06-0.3
	c0-0.061,0-0.121,0.06-0.301c0-0.119,0.06-0.18,0.06-0.24l3-11.759c-0.66,0.18-1.38,0.3-2.1,0.36c-0.78,0.12-1.5,0.18-2.34,0.24
	v0.48h0.18c0.3,0,0.48,0.06,0.6,0.12c0.12,0.12,0.18,0.24,0.18,0.42c0,0.12-0.06,0.48-0.18,0.96c-0.06,0.12-0.06,0.24-0.06,0.3
	l-1.38,5.46v-0.6c0-0.9-0.18-1.56-0.6-2.04c-0.42-0.48-1.02-0.72-1.74-0.72c-0.54,0-1.08,0.18-1.62,0.54
	c-0.54,0.36-1.08,0.96-1.62,1.74l0.54-2.04c-0.66,0.12-1.38,0.24-2.1,0.36c-0.72,0.12-1.5,0.18-2.28,0.24v0.48
	c0.42,0,0.66,0.06,0.78,0.12c0.12,0.06,0.24,0.24,0.24,0.48c0,0.06,0,0.18-0.06,0.3c0,0.12-0.06,0.3-0.06,0.42l-2.16,8.761
	c-0.18,0.72-0.36,1.199-0.54,1.379c-0.18,0.181-0.42,0.24-0.78,0.24h-0.12v0.541h5.4v-0.541c-0.48-0.06-0.78-0.119-0.96-0.18
	c-0.06,0-0.12-0.18-0.12-0.48v-0.42c0-0.119,0.06-0.3,0.06-0.42l0.6-2.22c0.24,0.181,0.48,0.3,0.72,0.42
	c0.3,0.12,0.54,0.12,0.84,0.12c0.72,0,1.44-0.18,2.1-0.6c0.66-0.42,1.26-1.021,1.86-1.86c0.42-0.54,0.72-1.2,1.02-1.8l-0.12,0.359
	v0.121c-0.3,1.139-0.42,1.859-0.42,2.1c0,0.539,0.12,0.96,0.42,1.26c0.3,0.3,0.66,0.42,1.2,0.42c0.6,0,1.14-0.24,1.68-0.66
	c0.3-0.3,0.66-0.66,1.02-1.14c0.12,0.42,0.24,0.84,0.54,1.14c0.42,0.42,0.96,0.66,1.68,0.66c0.72,0,1.32-0.24,1.86-0.66
	s1.08-1.08,1.56-1.92c-0.06,0.301-0.12,0.6-0.12,0.78c0,0.18-0.06,0.36-0.06,0.479c0,0.42,0.12,0.78,0.42,1.021
	c0.24,0.239,0.66,0.36,1.14,0.36c0.601,0,1.2-0.24,1.681-0.66c0.539-0.42,1.02-1.08,1.559-1.98l-0.479-0.359
	c-0.06,0.119-0.18,0.239-0.3,0.42c-0.42,0.6-0.721,0.899-1.02,0.899c-0.121,0-0.181-0.06-0.24-0.12
	c-0.061-0.06-0.061-0.18-0.061-0.359c0-0.12,0.12-0.66,0.36-1.561l1.38-4.98c0.12,0.06,0.18,0.06,0.24,0.18
	c0.119,0.12,0.3,0.48,0.42,0.96c0.18,0.54,0.3,1.32,0.54,2.34c0.18,0.96,0.36,2.1,0.54,3.24c0.061,0.54,0.18,1.02,0.18,1.439
	c0.061,0.36,0.061,0.721,0.061,0.961c0,0.359-0.121,0.72-0.42,1.08c-0.301,0.359-0.541,0.539-0.78,0.539
	c-0.12,0-0.36-0.119-0.72-0.359c-0.36-0.24-0.721-0.36-1.021-0.36c-0.42,0-0.72,0.12-1.021,0.36c-0.239,0.24-0.42,0.54-0.42,0.96
	s0.181,0.78,0.48,1.021c0.3,0.239,0.721,0.359,1.26,0.359c0.84,0,1.68-0.42,2.52-1.26c0.9-0.84,1.861-2.16,2.941-3.961
	c0.959-1.619,1.68-3.06,2.219-4.319c0.541-1.26,0.84-2.22,0.84-2.76c0-0.3-0.059-0.54-0.119-0.72h1.26l-1.68,6.661
	c-0.061,0.239-0.12,0.42-0.12,0.6s-0.06,0.359-0.06,0.479c0,0.421,0.119,0.72,0.299,1.021c0.24,0.24,0.541,0.359,0.9,0.359
	c0.48,0,0.961-0.24,1.561-0.66c0.42-0.359,0.9-0.779,1.32-1.379c0.119,0.539,0.299,0.959,0.6,1.319c0.42,0.479,1.08,0.72,1.92,0.72
	s1.68-0.18,2.52-0.66c0.721-0.359,1.5-0.899,2.34-1.56c0.121,0.479,0.36,0.899,0.721,1.2c0.6,0.66,1.38,0.96,2.34,0.96
	c0.84,0,1.68-0.24,2.4-0.66c0.539-0.3,1.02-0.78,1.5-1.319l-0.541,2.039c0.121,0,0.301-0.06,0.42-0.06h0.48c0.12,0,0.6,0,0.721,0.06
	l1.14-4.08c0.12-0.359,0.3-0.779,0.6-1.14c0.24-0.36,0.66-0.78,1.261-1.32c0.66-0.6,1.199-1.02,1.68-1.32
	c0.48-0.3,0.84-0.48,1.08-0.48c0.18,0,0.3,0.06,0.359,0.12c0.061,0.06,0.12,0.18,0.12,0.36v0.18c0,0.06-0.06,0.18-0.06,0.3
	l-1.74,5.94c-0.061,0.119-0.061,0.24-0.12,0.359v0.301c0,0.24,0.06,0.479,0.24,0.6c0.18,0.12,0.42,0.24,0.72,0.24
	c0.48,0,0.96-0.18,1.5-0.6c0.54-0.36,1.08-0.961,1.68-1.681L85.217,15.273L85.217,15.273z M65.417,9.933
	c0.66-0.72,1.44-1.08,2.22-1.08c0.301,0,0.48,0.06,0.66,0.18c0.12,0.12,0.24,0.36,0.24,0.66c0,0.84-0.42,1.56-1.32,2.22
	s-1.98,1.02-3.3,1.08C64.157,11.733,64.697,10.713,65.417,9.933z M33.737,12.633c-0.24,0.78-0.54,1.62-0.9,2.46
	c-0.3,0.66-0.6,1.14-0.96,1.44c-0.3,0.359-0.66,0.54-0.96,0.54c-0.18,0-0.36-0.06-0.48-0.181c-0.12-0.119-0.18-0.3-0.18-0.479
	c0-0.12,0-0.3,0.06-0.54s0.12-0.48,0.18-0.78l0.54-1.92c0.3-1.2,0.66-2.1,1.02-2.64c0.36-0.6,0.78-0.84,1.26-0.84
	c0.18,0,0.36,0.12,0.48,0.3c0.12,0.18,0.18,0.48,0.18,0.78C34.037,11.193,33.917,11.793,33.737,12.633z M46.816,11.673
	c-0.18,0.72-0.42,1.5-0.779,2.28c-0.3,0.72-0.6,1.26-0.96,1.62c-0.36,0.36-0.66,0.6-0.96,0.6c-0.24,0-0.42-0.12-0.54-0.239
	c-0.12-0.181-0.18-0.42-0.18-0.781c0-0.539,0.12-1.139,0.36-1.92c0.24-0.719,0.54-1.5,0.96-2.279c0.36-0.66,0.66-1.14,0.9-1.38
	c0.24-0.3,0.54-0.42,0.84-0.42c0.18,0,0.359,0.06,0.48,0.24c0.119,0.18,0.18,0.42,0.18,0.66
	C47.117,10.413,46.997,10.953,46.816,11.673z"/>
</svg>
