<?xml version="1.0" encoding="utf-8"?>
<!-- Generator: Adobe Illustrator 16.0.2, SVG Export Plug-In . SVG Version: 6.00 Build 0)  -->
<!DOCTYPE svg PUBLIC "-//W3C//DTD SVG 1.1//EN" "http://www.w3.org/Graphics/SVG/1.1/DTD/svg11.dtd">
<svg version="1.1" id="Layer_1" xmlns="http://www.w3.org/2000/svg" xmlns:xlink="http://www.w3.org/1999/xlink" x="0px" y="0px"
	 width="52.262px" height="25px" viewBox="2.837 0 52.262 25" enable-background="new 2.837 0 52.262 25" xml:space="preserve">
<g>
	<defs>
		<rect id="SVGID_1_" x="0.197" y="0.013" width="57.6" height="24"/>
	</defs>
	<clipPath id="SVGID_2_">
		<use xlink:href="#SVGID_1_"  overflow="visible"/>
	</clipPath>
	<g clip-path="url(#SVGID_2_)">
		<path fill="#F19021" d="M47.838,9.373c-2.58,0.18-1.439,3.54,1.439,3.36C52.098,12.553,50.658,9.193,47.838,9.373z"/>
		<path fill="#F19021" d="M46.758,7.273c-4.619,0-8.34,3.72-8.34,8.34c0,4.619,3.721,8.4,8.34,8.4c4.62,0,8.34-3.721,8.34-8.341
			C55.158,10.993,51.378,7.273,46.758,7.273z M46.758,23.113c-4.14,0-7.5-3.36-7.5-7.5c0-4.14,3.36-7.5,7.5-7.5
			c4.141,0,7.5,3.36,7.5,7.5C54.258,19.753,50.898,23.113,46.758,23.113z M46.518,1.453c-1.979,1.5-1.619,3.78-1.619,3.78
			s-1.26-3.24-2.881-5.22c-0.24,2.58,0.601,5.94,0.601,5.94s-1.021-2.1-3.54-2.22c2.04,1.2,2.88,3.3,3.061,3.9
			c1.26-0.78,2.639-1.2,4.079-1.26C46.038,5.833,45.498,3.613,46.518,1.453L46.518,1.453z"/>
		<path fill="#FFFFFF" d="M3.557,16.453v1.74h-0.72v-4.5h1.56c0.54,0,0.9,0.119,1.2,0.359c0.24,0.24,0.42,0.6,0.42,1.021
			c0,0.42-0.12,0.78-0.42,1.02c-0.24,0.24-0.66,0.36-1.14,0.36H3.557z M5.237,15.073c0-0.24-0.06-0.48-0.24-0.601
			c-0.12-0.119-0.36-0.18-0.66-0.18h-0.78v1.561h0.72C4.937,15.854,5.237,15.613,5.237,15.073z M8.957,18.193l-1.14-1.801h-0.54
			v1.801h-0.72v-4.5h1.62c0.54,0,0.9,0.119,1.2,0.359c0.24,0.24,0.42,0.6,0.42,1.021c0,0.36-0.12,0.659-0.3,0.84
			c-0.18,0.239-0.48,0.36-0.84,0.42l1.2,1.86H8.957z M7.337,15.913h0.78c0.6,0,0.9-0.24,0.9-0.78c0-0.24-0.06-0.42-0.24-0.6
			c-0.12-0.12-0.36-0.18-0.66-0.18h-0.78V15.913z M13.097,17.232h-1.92l-0.36,0.961h-0.78l1.68-4.44h0.84l1.68,4.44h-0.78
			L13.097,17.232z M12.917,16.693l-0.72-2.101l-0.72,2.101H12.917z M17.897,14.053c0.36,0.24,0.6,0.66,0.72,1.08h-0.78
			c-0.12-0.24-0.24-0.42-0.48-0.6c-0.24-0.12-0.54-0.24-0.78-0.24c-0.24,0-0.54,0.061-0.78,0.18c-0.24,0.12-0.42,0.301-0.54,0.541
			c-0.12,0.239-0.18,0.539-0.18,0.84c0,0.299,0.06,0.6,0.18,0.899c0.12,0.24,0.3,0.42,0.54,0.54c0.24,0.12,0.54,0.18,0.78,0.18
			c0.36,0,0.72-0.119,0.96-0.359c0.24-0.24,0.42-0.54,0.48-0.961h-1.68v-0.539h2.28v0.72c-0.06,0.3-0.18,0.66-0.36,0.899
			c-0.06,0.42-0.36,0.66-0.66,0.781c-0.3,0.18-0.66,0.239-1.02,0.239c-0.42,0-0.78-0.12-1.14-0.3s-0.6-0.48-0.78-0.84
			c-0.36-0.78-0.36-1.62,0-2.4c0.18-0.359,0.42-0.6,0.78-0.84c0.36-0.18,0.78-0.3,1.14-0.3
			C17.117,13.693,17.537,13.813,17.897,14.053z M23.837,13.753v4.44h-0.72v-3.36l-1.26,3.36h-0.66l-1.32-3.36v3.36h-0.72v-4.44h0.9
			l1.5,3.54l1.44-3.54H23.837z M27.437,17.232h-1.92l-0.36,0.961h-0.78l1.68-4.44h0.84l1.68,4.44h-0.78L27.437,17.232z
			 M27.197,16.693l-0.72-2.101l-0.72,2.101H27.197z M31.697,13.693v0.6h-1.26v3.9h-0.721v-3.9h-1.32v-0.6H31.697z M32.777,13.693
			v4.5h-0.721v-4.5H32.777z M36.917,14.053c0.36,0.301,0.66,0.721,0.72,1.141h-0.779c-0.121-0.24-0.301-0.48-0.48-0.66
			c-0.24-0.18-0.54-0.24-0.84-0.24c-0.24,0-0.48,0.061-0.721,0.18c-0.239,0.12-0.359,0.36-0.479,0.541
			c-0.239,0.539-0.239,1.139,0,1.739c0.12,0.24,0.3,0.42,0.479,0.54c0.24,0.12,0.48,0.18,0.721,0.18c0.3,0,0.6-0.06,0.84-0.24
			c0.24-0.18,0.42-0.359,0.48-0.659h0.779c-0.119,0.479-0.359,0.84-0.72,1.14c-0.36,0.301-0.84,0.42-1.38,0.42
			c-0.42,0-0.78-0.119-1.141-0.3c-0.299-0.181-0.6-0.479-0.779-0.84c-0.36-0.78-0.36-1.62,0-2.4c0.18-0.36,0.42-0.6,0.779-0.84
			c0.36-0.18,0.721-0.3,1.141-0.3C36.077,13.633,36.557,13.813,36.917,14.053z M41.117,16.453v1.74h-0.721v-4.5h1.561
			c0.54,0,0.9,0.119,1.2,0.359c0.239,0.24,0.42,0.6,0.42,1.021c0,0.42-0.12,0.78-0.42,1.02c-0.24,0.24-0.66,0.36-1.14,0.36H41.117z
			 M42.736,15.073c0-0.24-0.059-0.48-0.239-0.601c-0.12-0.119-0.36-0.18-0.66-0.18h-0.72v1.561h0.72
			C42.438,15.854,42.736,15.613,42.736,15.073z M44.717,17.652h1.561v0.541h-2.28v-4.5h0.72V17.652L44.717,17.652z M49.637,17.232
			h-1.92l-0.359,0.961h-0.78l1.68-4.44h0.841l1.68,4.44h-0.78L49.637,17.232L49.637,17.232z M49.396,16.693l-0.719-2.101
			l-0.721,2.101H49.396z M53.657,13.693l-1.5,2.88v1.62h-0.72v-1.62l-1.5-2.88h0.84l1.02,2.1l1.02-2.1H53.657z"/>
	</g>
</g>
</svg>
