<svg xmlns="http://www.w3.org/2000/svg" width="13" height="8" fill="none" viewBox="0 0 13 8">
    <g clip-path="url(#clip0)">
        <path fill="#fff" d="M12.598 1.136l-.393-.383c-.123-.12-.288-.185-.464-.185-.176 0-.34.066-.464.185L6.793 5.091 2.303.748C2.18.628 2.017.563 1.84.563c-.176 0-.34.066-.465.185l-.393.38c-.256.248-.256.652 0 .899l5.345 5.19c.124.119.288.203.466.203h.002c.176 0 .34-.084.464-.204l5.34-5.175c.123-.12.191-.283.191-.454 0-.17-.068-.331-.191-.45z"/>
    </g>
    <defs>
        <clipPath id="clip0">
            <path fill="#fff" d="M0 0H12V6.857H0z" transform="translate(.79 .563)"/>
        </clipPath>
    </defs>
</svg>
