<svg width="60" height="54" viewBox="0 0 60 54" fill="none" xmlns="http://www.w3.org/2000/svg">
<rect y="0.466797" width="60" height="53.3333" rx="3" fill="#D3B271"/>
<rect x="2.96289" y="3.43066" width="54.0741" height="47.4074" rx="3" fill="url(#paint0_radial)"/>
<path fill-rule="evenodd" clip-rule="evenodd" d="M25.5709 26.9185C23.914 26.9185 22.5709 28.2616 22.5709 29.9185V46.129C22.5709 46.5477 22.4623 46.8108 22.0883 46.8108C21.7143 46.8108 21.5574 46.5477 21.5574 46.129V44.5462C21.5574 44.0198 21.1307 43.5931 20.6043 43.5931C19.9191 43.5931 17.7119 45.2873 16.3087 46.3644L16.3087 46.3644C15.6876 46.8411 14.8549 46.8786 14.1612 46.5156C13.2063 46.016 12.1942 45.548 11.2845 45.1897C10.7353 44.9734 10.1166 45.1113 9.68234 45.5111L9.68055 45.5128L9.67955 45.5137L9.67898 45.5142L9.67884 45.5144L9.67856 45.5146C9.23104 45.9266 8.88105 46.2488 8.63607 46.4998C8.5446 46.5905 8.46612 46.6719 8.39745 46.7431C8.18534 46.9631 8.06686 47.0859 7.94838 47.0859C7.68295 47.0859 7.3572 46.7749 7.3572 46.4998C7.3572 46.2367 7.94838 45.6027 10.6629 42.8395C12.5209 40.9376 13.2689 38.6649 13.2689 35.1721C13.2689 29.4065 10.7715 24.4783 7.90012 24.4783C6.947 24.4783 6.46441 24.8491 6.30757 25.806C6.25931 26.2845 6.04214 26.44 5.82498 26.44C5.40271 26.44 5.18555 25.7462 5.18555 24.5859C5.18555 21.9424 7.04352 19.8252 9.33582 19.8252C10.4005 19.8252 11.1222 20.2915 11.7459 20.6945C12.5449 21.2109 13.2689 20.5499 13.2689 19.5986V17.3969C13.2689 16.3922 12.8949 15.5429 12.1469 14.9089C11.5075 14.3826 8.2138 12.1577 6.9832 12.1577C6.74766 12.1577 6.57594 12.2061 6.42407 12.2489C6.30365 12.2828 6.19572 12.3132 6.07834 12.3132C5.9215 12.3132 5.86117 12.2654 5.86117 12.1577C5.86117 12.0198 5.94659 11.9195 6.18475 11.6399C6.21511 11.6042 6.24797 11.5657 6.28344 11.5237L10.3884 7.4889C10.4507 7.42769 10.5177 7.37147 10.5875 7.31904C10.7372 7.20664 10.8342 7.13379 11.0128 7.13379C11.8613 7.13379 14.2141 8.72551 16.1387 10.0276L16.1387 10.0276L16.1387 10.0276L16.1388 10.0276C17.4708 10.9288 18.5978 11.6912 18.879 11.6912C19.3883 11.6912 20.8982 10.7545 22.5325 9.74061C24.4603 8.5447 26.561 7.24144 27.3968 7.24144C27.7934 7.24144 28.2006 7.56855 30.9276 9.75891L31.4867 10.208C31.6184 10.3118 31.7828 10.4489 31.9703 10.6051L31.9704 10.6052L31.9704 10.6052C32.5385 11.0787 33.3188 11.729 34.0444 12.1697C34.9392 12.7195 35.8389 13.3976 36.6731 12.7596C37.2945 12.2843 38.1607 11.592 39.4133 10.5788C40.3664 9.78929 43.1895 7.5046 43.4067 7.5046C43.6721 7.5046 46.0127 8.46154 49.4753 9.88499C50.4887 10.3036 50.6456 10.4113 50.6456 11.0453V38.4137C50.6456 39.3108 50.7541 39.6338 51.1281 39.9448C52.7207 41.3204 53.6859 41.8467 54.2167 41.8467C54.3112 41.8467 54.4277 41.825 54.5396 41.7737C54.6928 41.7035 54.7942 41.5603 54.8984 41.4278C55.0448 41.2416 55.1084 41.2127 55.2302 41.2127C55.387 41.2127 55.5559 41.428 55.5559 41.6314C55.5559 41.8985 53.9221 43.9654 51.9715 45.7551C51.2157 46.4486 50.1258 46.6197 49.2364 46.1087C47.8657 45.3212 46.2666 44.1268 45.2405 43.0668C44.758 42.5405 44.6614 42.4328 44.6614 41.5357V21.9424C44.6614 19.6697 45.3974 18.1266 48.0637 14.5859C49.4511 12.7917 49.5477 12.2534 49.2822 12.2534C49.1529 12.2534 47.9491 13.081 46.8616 13.8286L46.8615 13.8287L46.8614 13.8288C46.3396 14.1875 45.8446 14.5278 45.5079 14.7495C45.3072 14.8816 45.0519 14.8835 44.8433 14.7643C42.2388 13.2765 41.3901 12.7917 39.9079 12.7917C39.0634 12.7917 38.4722 13.2103 38.4722 13.7486V46.2965C38.4722 46.7151 38.2551 47.0381 37.9414 47.0381C37.6759 47.0381 37.5191 46.7749 37.5191 46.3563C37.5191 45.0767 36.3577 44.174 35.3201 44.9227C34.7453 45.3373 34.2402 45.8043 33.83 46.1834C33.3648 46.6134 33.0218 46.9304 32.838 46.9304C32.2589 46.9304 28.7963 42.8036 28.7963 42.4807V29.9185C28.7963 28.2616 27.4531 26.9185 25.7963 26.9185H25.5709ZM21.6112 13.4257C21.6079 13.4257 21.6052 13.4228 21.6052 13.4195C21.6048 12.3597 21.4962 12.0022 21.2915 12.0022C20.821 12.0022 19.1078 13.0668 19.1078 13.4257V28.0788C19.1078 35.1884 18.2954 36.0383 16.4543 37.9644L16.345 38.0788C16.3141 38.1111 16.2841 38.1426 16.2548 38.1732C15.2902 39.1836 15.3044 40.7306 16.6059 41.2381C17.2739 41.4985 18.0271 41.6966 18.7788 41.8331C20.3512 42.1186 21.6173 40.7956 21.6173 39.1975V13.4317C21.6173 13.4284 21.6146 13.4257 21.6112 13.4257ZM28.7959 18.8954C28.7959 20.5522 27.4527 21.8954 25.7959 21.8954H25.5705C23.9136 21.8954 22.5705 20.5522 22.5705 18.8954V13.0078C22.5705 12.314 22.8841 11.9432 23.4753 11.9432C24.8024 11.9432 28.7959 14.9576 28.7959 16.07V18.8954ZM37.5197 14.3713C37.5197 14.2636 37.4714 14.2158 37.3025 14.2158C37.1457 14.2158 36.8802 14.3234 36.7113 14.4311L35.4928 15.1727C34.8051 15.5914 34.5879 15.8067 34.5879 16.1296V21.4167C34.5879 21.7875 35.0705 22.0507 35.4445 22.0507C36.5906 22.0507 37.5197 21.1216 37.5197 19.9755V14.3713ZM35.492 26.8107C36.6048 26.8107 37.5068 27.7128 37.5068 28.8255V38.911C37.5068 40.6611 35.5553 42.1701 34.9046 40.5455C34.7236 40.0934 34.6354 39.5409 34.6354 38.8801V28.0308C34.6354 27.2414 34.9129 26.8107 35.492 26.8107Z" fill="white"/>
<defs>
<radialGradient id="paint0_radial" cx="0" cy="0" r="1" gradientUnits="userSpaceOnUse" gradientTransform="translate(31.1901 5.93455) scale(96.0015 84.1657)">
<stop stop-color="#C01617"/>
<stop offset="0.5051" stop-color="#BE181B"/>
<stop offset="1" stop-color="#C7120C"/>
</radialGradient>
</defs>
</svg>
