<svg width="40" height="40" viewBox="0 0 40 40" fill="none" xmlns="http://www.w3.org/2000/svg">
<path d="M16.1 6.39999C16.1 5.99999 16.5 5.79999 16.8 5.79999L24.8 6.69999L24.7 4.49999C24.7 4.09999 24.4 3.89999 24 3.89999L6.00002 4.89999C5.60002 4.89999 5.40002 5.19999 5.40002 5.59999L6.70002 31.7C6.70002 32.1 7.00002 32.3 7.40002 32.3L13.2 32L16.1 6.39999ZM9.40002 11.1L8.60002 12L8.70002 13.5L9.70002 13.4L9.80002 14.7L6.70002 14.9L6.60002 13.6H7.40002L7.10002 7.89999L6.30002 7.99999V6.69999L9.40002 6.49999L9.50002 7.79999L8.50002 7.89999L8.60002 10.3L11.1 7.79999H10.6L10.5 6.49999L13.6 6.29999L13.7 7.59999H13L10.4 10.2L13.2 13.2H14L14.1 14.5L11 14.7L10.9 13.4H11.5L9.40002 11.1Z" fill="white"/>
<path d="M20 13C20.2 13 20.4 12.9 20.5 12.7C20.8 12.5 21 12.2 21 11.8C21 11.4 20.9001 11.1 20.7001 10.8C20.5001 10.5 20.2 10.3 19.8 10.3C19.6 10.3 19.5 10.3 19.3 10.3C19.1 10.3 18.9 10.4 18.8 10.6C18.5 10.8 18.3 11.1 18.3 11.5C18.3 11.9 18.4 12.2 18.6 12.5C18.8 12.8 19.1 13 19.5 13C19.7 13 19.9 13 20 13Z" fill="white"/>
<path d="M34.1 8.69998L17.1 6.69998C16.7 6.69998 16.4 6.89998 16.4 7.29998L13.4 33.3C13.4 33.7 13.6 34 14 34L31 36C31.4 36 31.7 35.8 31.7 35.4L34.7 9.39998C34.7 9.09998 34.4 8.79998 34.1 8.69998ZM19 14.5C18.3 14.3 17.7 14 17.2 13.5C16.7 12.9 16.5 12.3 16.6 11.4C16.7 10.4 17.1 9.59998 17.8 9.09998C18.1 8.79998 18.5 8.69998 18.9 8.59998C19.3 8.49998 19.7 8.49998 20.1 8.49998C21 8.59998 21.7 8.99998 22.2 9.59998C22.7 10.3 22.9 11.1 22.8 12.1C22.7 12.7 22.6 13.2 22.2 13.7C21.9 14.1 21.5 14.7 20.8 15.3L18.7 17.3L16.7 17.1L19.3 14.6L19 14.5ZM29.5 27.6C28.3 28.7 26.6 28.5 25.7 27.2L24.6 25.6C24.7 27 25.2 28.9 27.1 29.8L20.8 29.1C22.9 28.7 23.8 26.9 24.2 25.6L22.8 26.9C21.6 28 19.9 27.8 19 26.5C18.1 25.2 18.3 23.2 19.5 22.1L25.4 16.6H25.5L30 23.3C30.9 24.6 30.7 26.6 29.5 27.6Z" fill="white"/>
</svg>
