<svg id="Layer_1" data-name="Layer 1" xmlns="http://www.w3.org/2000/svg" viewBox="0 0 40 40"><defs><style>.cls-1{fill:none;}.cls-2{fill:#fff;}</style></defs><rect class="cls-1" width="40" height="40"/><rect class="cls-1" width="40" height="40"/><path class="cls-2" d="M20,4C16.41,7.59,5.78,16.71,5.78,23.63a6.84,6.84,0,0,0,6.81,7,7,7,0,0,0,5.82-3.1c.38-.64.91-.92.91-.09C19.32,31.23,17,33,14,36H26c-3-3-5.31-4.77-5.31-8.58,0-.83.53-.55.91.09a7,7,0,0,0,5.82,3.1,6.84,6.84,0,0,0,6.81-7C34.22,16.71,23.59,7.59,20,4Zm.43,20.84H12.14V23.25L16.07,19a9.31,9.31,0,0,0,1.21-1.65,2.66,2.66,0,0,0,.36-1.25,1.88,1.88,0,0,0-.41-1.25,1.46,1.46,0,0,0-1.18-.49,1.51,1.51,0,0,0-1.28.57,2.45,2.45,0,0,0-.44,1.52H12l0-.05A3.71,3.71,0,0,1,13,13.65a4,4,0,0,1,3-1.14,4.22,4.22,0,0,1,3,1,3.33,3.33,0,0,1,1.07,2.6,3.71,3.71,0,0,1-.6,2,19.3,19.3,0,0,1-2,2.44l-2.16,2.36,0,0h3.15l.1-1.2h1.85Zm7.63,0H21.52V23.38l2.05-.25V14.9H21.5V13.5l4.5-.81V23.13l2.06.25Z"/></svg>