<svg width="40" height="40" viewBox="0 0 40 40" fill="none" xmlns="http://www.w3.org/2000/svg">
<path d="M30.2502 18.9167C30.1668 18.75 29.9168 18.4167 29.9168 18.4167C29.9168 18.4167 29.5835 18.75 29.9168 19.4167C30.2502 20 30.6668 20 30.6668 20C30.7502 19.6667 30.5835 19.3334 30.5835 19.3334C30.5835 19.3334 30.3335 19.5833 30.1668 19.3334C29.9168 19 30.2502 18.9167 30.2502 18.9167Z" fill="white"/>
<path d="M12.1666 18.3334C12.5 18.3334 12.8333 18.4167 12.8333 18.4167C12.75 18.25 12.4166 18.0834 12.0833 18.1667C11.75 18.3334 12 18.3334 12.1666 18.3334Z" fill="white"/>
<path d="M11.6669 18.75C11.6669 18.75 11.6669 18.75 11.7502 18.75C11.8335 18.75 11.8335 19 12.0835 19C12.3335 19 12.6669 18.75 12.6669 18.75C12.6669 18.75 12.5835 18.5 12.4169 18.4167C12.4169 18.5834 12.3335 18.75 12.1669 18.8334C12.0002 18.9167 11.8335 18.8334 11.8335 18.6667C11.8335 18.5834 11.8335 18.4167 11.9169 18.3334C11.8335 18.5 11.6669 18.75 11.6669 18.75Z" fill="white"/>
<path d="M13.3336 19.9167C12.9169 19.75 12.4169 19.8334 12.4169 19.8334C12.1669 20.0834 13.0836 20.25 13.4169 20.3334C13.6669 20.4167 13.7502 20.0834 13.3336 19.9167Z" fill="white"/>
<path d="M28.25 20.1667C28 20.1667 27.9167 20.9167 28 21.3334C28.0833 21.6667 28.25 22.3334 28.25 22.5834C28.25 22.8334 28.25 23.5834 28.25 23.5834C28.6667 23.5001 28.75 23.6667 28.75 23.6667C28.75 23.6667 28.4167 23.7501 28.25 23.9167C28.0833 24.0834 28.25 24.3334 28.25 24.3334C28.5833 24.7501 29.0833 24.3334 29.0833 24.3334C28.75 23.6667 29.0833 22.25 29.25 21.5C29.3333 20.6667 28.4167 20.1667 28.25 20.1667Z" fill="white"/>
<path d="M31.5837 23.0834C31.5003 23.0834 31.5003 23.0834 31.417 23.0834C31.417 23 31.417 22.9167 31.3337 22.8334C31.0837 22.5834 30.917 22.6667 30.7503 22.8334C30.667 22.75 30.5003 22.75 30.3337 22.8334C30.0837 23 30.2503 23.25 30.2503 23.25C30.2503 23.25 30.167 23 30.5003 23C30.8337 23.0834 30.8337 23.3334 30.8337 23.3334C30.917 23.1667 30.917 23 30.8337 22.9167C30.917 22.9167 31.0003 22.9167 31.0837 23C31.2503 23.1667 31.167 23.5 31.167 23.5C31.167 23.5 31.3337 23.4167 31.417 23.25C31.5003 23.25 31.5003 23.25 31.5837 23.3334C31.8337 23.5834 31.5837 23.75 31.5837 23.75C32.0837 23.5834 31.917 23.1667 31.5837 23.0834Z" fill="white"/>
<path d="M20.0002 4.16669C11.2502 4.16669 4.16687 11.25 4.16687 20C4.16687 28.75 11.2502 35.8334 20.0002 35.8334C21.5002 35.8334 22.9169 35.5834 24.3335 35.25C24.4169 35.0834 24.5835 34.9167 24.7502 34.75C25.0002 34.5834 25.3335 34.6667 25.5835 34.75C26.0002 34.5834 26.3335 34.4167 26.7502 34.25C26.7502 34.1667 26.7502 34 26.6669 33.9167C26.5002 33.5834 25.6669 33.1667 24.9169 33.0834C24.1669 33 23.5002 33 22.5002 31.6667C21.5002 30.3334 21.5002 28.5 20.3335 28.5834C20.3335 28.5834 20.2502 30.25 19.7502 30.8334C19.2502 31.4167 18.7502 31.6667 18.3335 31.5C17.9169 31.3334 17.0835 31.3334 16.7502 31.75C16.7502 31.75 16.6669 31.5 16.9169 31.0834C16.9169 31.0834 16.5835 31 16.4169 31.25C16.4169 31.25 16.2502 30.9167 16.5002 30.5C16.5002 30.5 15.9169 30.1667 15.5002 30.6667C15.5002 30.6667 16.0002 28.75 17.2502 29.75C17.2502 29.75 17.5835 29.5834 18.0835 30.0834C18.5835 30.5834 19.1669 29.0834 19.0002 28.4167C19.0002 28.4167 17.9169 28.5834 17.2502 28.3334C16.5835 28.1667 16.1669 27.75 15.9169 27.75C15.9169 27.75 15.2502 29.3334 14.5002 29.4167C13.7502 29.5 12.8335 28.8334 12.3335 29.0834C12.3335 29.0834 12.2502 28.9167 12.5002 28.6667C12.5002 28.6667 12.2502 28.3334 11.8335 28.75C11.8335 28.75 11.7502 28.4167 12.0002 28.1667C12.0002 28.1667 11.5002 28.0834 11.3335 28.3334C11.3335 28.3334 11.7502 26.75 12.9169 27.5834C12.9169 27.5834 13.2502 27.75 13.4169 27.9167C13.5835 28 14.0002 27.9167 14.3335 27.3334C14.3335 27.3334 12.8335 26.75 12.4169 25.5834C12.4169 25.5834 11.5835 25.25 11.3335 25.3334C11.0835 25.3334 10.6669 25.3334 10.3335 25.0834C10.0002 24.8334 9.5002 24.75 9.08354 24.75C8.66687 24.75 7.83354 24.75 7.5002 24.1667C7.33354 23.9167 7.08354 23.8334 7.0002 23.8334C6.91687 23.8334 6.7502 23.6667 6.83354 23.3334C6.91687 23 6.7502 21.75 6.33354 21.75C6.33354 21.75 6.83354 21.5834 7.08354 21.8334C7.08354 21.8334 7.0002 21.25 6.66687 21.25C6.66687 21.25 6.83354 20.9167 7.08354 21C7.08354 21 7.2502 20.5834 7.0002 20.5C7.0002 20.5 7.83354 20.5 8.08354 21.5834C8.2502 22.0834 7.7502 22.4167 8.41687 22.8334C8.91687 23.1667 9.16687 23.0834 9.5002 23.0834C9.91687 23.0834 10.2502 23.0834 10.7502 23.3334C11.0835 23.5834 11.7502 23.5 11.8335 23.4167C11.8335 23.4167 11.5835 21.75 11.0002 21.4167C10.4169 21.1667 9.33354 21.0834 9.16687 21.0834C8.91687 21.0834 8.91687 20.5834 9.0002 20.4167C9.08354 20.25 9.33354 20.25 9.33354 20.25C9.33354 20.25 9.58354 19.8334 9.7502 19.8334C9.7502 19.8334 9.5002 20.3334 9.66687 20.4167C9.66687 20.4167 9.83354 20 10.0002 20C10.0002 20 9.7502 20.5 10.0002 20.6667C10.2502 20.75 10.6669 21.0834 11.2502 20.3334C11.2502 20.3334 11.0835 20.0834 10.7502 20.0834C10.4169 20.0834 9.5002 19.9167 9.41687 18.8334C9.41687 18.8334 9.83354 19.8334 10.6669 19.8334C11.2502 19.8334 11.4169 20 11.4169 20C11.4169 20 11.4169 19.25 10.7502 19C10.7502 19 10.5002 19.25 10.5002 19.4167C10.5002 19.4167 10.3335 19.1667 10.5835 18.8334C10.5835 18.8334 10.2502 19.0834 10.2502 19.25C10.2502 19.25 10.0835 19 10.3335 18.6667C10.3335 18.6667 10.2502 18.6667 10.2502 18.5834C10.2502 18.5834 10.1669 18.1667 10.4169 17.9167C10.4169 17.9167 10.3335 17.5 10.7502 17.5C11.0835 17.5 11.3335 17.5834 12.3335 17.3334C13.3335 17.0834 13.8335 17.8334 13.8335 17.8334C13.8335 17.8334 14.2502 17.6667 14.5835 17.8334C14.8335 17.9167 15.0835 17.6667 15.0835 17.6667C15.0835 17.6667 15.0835 18.25 14.6669 18.4167C14.6669 18.4167 15.0835 18.8334 15.1669 19.6667C15.3335 20.5 15.9169 22.25 17.4169 22.9167C18.8335 23.5834 20.0835 23.75 20.0835 23.75C20.0835 23.75 20.2502 23 20.8335 23.0834C21.4169 23.0834 22.4169 24.3334 22.4169 24.3334C22.4169 24.3334 23.1669 24.4167 23.6669 25.0834C23.6669 25.0834 24.3335 24.8334 25.0002 25.6667C25.3335 26.0834 25.9169 27.1667 26.5835 28.1667C26.5835 28.1667 26.5835 28.1667 26.5835 28.0834C27.0002 26.9167 27.0835 26.5834 28.0002 26.5C28.9169 26.4167 28.9169 27.0834 29.6669 26.9167C30.4169 26.75 30.7502 26.5834 30.8335 25.8334C30.9169 25.0834 29.5835 25.1667 29.1669 24.1667C29.1669 24.1667 28.9169 24.5 28.5835 24.4167C28.5835 24.4167 28.5002 24.75 28.2502 24.8334C28.0002 24.9167 27.5835 24.5834 27.5002 24.25C27.4169 23.9167 26.9169 23.75 26.5835 23.75C26.5835 23.75 27.0002 23.5834 27.4169 23.75C27.4169 23.75 27.0835 23.4167 26.6669 23.5C26.6669 23.5 27.0002 23.1667 27.5002 23.5C27.5002 23.5 27.2502 23.0834 26.7502 23.25C26.7502 23.25 27.0002 22.8334 27.5835 23.1667C27.5835 23.1667 27.8335 22.25 27.6669 21.6667C27.6669 21.6667 27.2502 20.5 26.9169 20C26.9169 20 26.5835 19.4167 26.0835 19.3334C25.5835 19.25 25.0002 19.3334 24.5835 18.4167C24.5835 18.4167 25.5835 19.25 26.2502 18.75C26.2502 18.75 25.2502 18.75 24.5002 18C24.5002 18 25.5835 18.5 25.9169 18.1667C25.9169 18.1667 24.9169 18.0834 24.5002 17.3334C24.5002 17.3334 25.3335 17.8334 25.6669 17.6667C25.6669 17.6667 24.6669 17.25 24.5002 16.6667C24.5002 16.6667 25.1669 17.0834 25.5835 17C25.5835 17 24.9169 16.0834 24.7502 14.75C24.6669 13.4167 24.5002 12.5 23.8335 12.3334C23.1669 12.1667 22.1669 13 22.7502 15.1667C23.1669 16.8334 23.7502 18.3334 23.2502 19.9167C23.3335 20.5834 23.5002 21.3334 23.7502 21.25C24.0835 21.0834 24.6669 20.1667 25.1669 19.9167C25.6669 19.6667 26.3335 19.5 26.6669 20C26.6669 20 26.1669 19.8334 25.7502 20.25C25.3335 20.6667 25.3335 20.8334 25.3335 20.8334C25.3335 20.8334 26.0002 20.3334 26.5002 20.9167C26.5002 20.9167 25.6669 20.9167 25.1669 21.25C24.7502 21.5834 24.7502 21.6667 24.7502 21.6667C24.7502 21.6667 25.6669 21.25 25.9169 21.9167C25.9169 21.9167 24.9169 21.75 24.5002 22.1667C24.0835 22.5 23.8335 22.5834 24.0835 23.0834C24.3335 23.5 24.7502 23.75 24.9169 23.5834C24.9169 23.5834 24.1669 24.4167 23.5002 23.0834C23.5002 23.0834 23.2502 23.5834 23.0835 23.6667C23.0002 23.75 22.1669 23.8334 22.3335 23C22.5002 22.3334 22.6669 21.9167 22.4169 21.4167C20.8335 23.5834 17.9169 22.75 16.7502 20.9167C16.5835 20.75 16.5002 20.5 16.4169 20.3334C16.4169 20.3334 15.5002 18.6667 15.5835 17.5C15.5835 17.1667 15.6669 16.8334 15.7502 16.4167C16.1669 15.1667 16.3335 12.9167 14.8335 12.25C14.8335 12.25 14.2502 12.5 14.2502 12.9167C14.3335 14.1667 13.3335 16.5834 10.1669 15C10.1669 15 10.9169 15 11.4169 15C11.9169 15 13.4169 14.75 13.6669 13.25C13.6669 13.25 12.6669 14.4167 11.4169 13.9167C10.1669 13.4167 9.7502 13.75 9.7502 13.75C9.7502 13.75 10.0835 13.25 11.0002 13.25C11.9169 13.3334 12.5002 13.75 13.3335 12.75C13.3335 12.75 12.0002 13.1667 11.2502 12.5834C10.5002 12 9.41687 12.25 9.41687 12.25C9.41687 12.25 10.0835 11.8334 10.8335 11.8334C11.5835 11.9167 12.9169 13.0834 13.5835 11.5834C13.5835 11.5834 12.3335 12.0834 11.4169 11.25C10.5002 10.4167 10.0835 10.1667 10.0835 10.1667C10.0835 10.1667 10.7502 10.3334 11.3335 10.0834C12.0002 9.83335 13.5002 10 13.9169 10.9167C13.9169 10.9167 14.2502 10.4167 13.5002 9.33335C12.7502 8.25002 11.6669 9.16669 10.9169 9.00002C10.9169 9.00002 11.8335 8.75002 12.1669 8.58335C12.4169 8.33335 13.5002 8.08335 14.2502 9.33335C14.9169 10.5834 14.8335 11 14.8335 11C14.8335 11 15.9169 9.75002 15.2502 8.58335C14.5002 7.41669 12.7502 7.91669 12.0002 8.25002C12.0002 8.25002 12.3335 7.91669 13.4169 7.58335C14.5835 7.25002 17.1669 7.91669 15.5002 11.25C15.5002 11.25 17.0002 11.75 17.5835 13.6667C18.1669 15.6667 17.6669 16.9167 17.8335 17.5834C18.0002 18.5 18.5835 19.9167 19.9169 19.25C21.2502 18.5834 20.4169 17.3334 20.2502 16.4167C20.0835 15.75 19.1669 13.9167 20.2502 11.5834C20.1669 11.5 20.0835 11.4167 20.0002 11.3334C19.7502 11 19.7502 11.5 19.6669 11.9167C19.5835 12.25 19.2502 11.9167 19.1669 11.75C19.0835 11.5834 18.9169 10.9167 18.9169 10.5C18.9169 10.1667 18.8335 9.83335 18.8335 9.83335C18.5002 10.4167 17.9169 9.91669 17.9169 9.91669C18.2502 10 18.9169 9.41669 18.9169 9.00002C18.9169 8.58335 19.5002 8.00002 19.0835 7.50002C18.7502 7.00002 18.7502 6.58335 18.7502 6.58335C19.0002 6.91669 19.3335 7.08335 19.3335 7.08335C19.4169 6.83335 18.9169 6.33335 18.9169 6.33335C19.1669 6.41669 19.5002 6.75002 19.5002 6.75002C19.5002 6.58335 19.0002 6.08335 19.0002 6.08335C20.6669 6.75002 20.0002 8.16669 19.7502 8.75002C19.5002 9.33335 20.0002 9.91669 20.0002 9.91669C20.5002 9.50002 21.5002 9.33335 22.0002 9.33335C22.3335 9.00002 22.6669 8.83335 23.0002 8.66669L23.5835 8.25002C23.5835 8.25002 22.4169 8.41669 22.2502 8.16669C22.0835 7.91669 22.1669 7.75002 22.5002 7.50002C22.5002 7.41669 23.6669 7.50002 23.6669 7.50002C23.5835 7.25002 23.5002 6.75002 24.1669 6.41669C24.8335 6.08335 25.2502 6.25002 25.2502 6.25002C25.2502 6.25002 24.9169 6.33335 24.5002 6.58335C24.0835 6.83335 24.2502 7.41669 24.2502 7.41669C24.2502 7.41669 25.0002 7.58335 25.6669 7.50002C26.2502 7.41669 26.9169 6.58335 26.9169 6.58335C27.1669 7.16669 26.1669 7.91669 26.1669 7.91669C26.9169 8.08335 27.4169 7.50002 27.4169 7.50002C27.5002 8.08335 26.7502 8.33335 26.7502 8.33335C27.0835 8.58335 27.7502 8.33335 27.7502 8.33335C26.7502 9.41669 25.9169 8.50002 25.4169 8.41669C24.9169 8.25002 24.2502 8.41669 24.5835 8.66669C24.7502 8.75002 25.0002 9.16669 25.3335 9.58335C26.3335 10.5 26.9169 11.9167 26.8335 12.5834C26.6669 14 27.3335 15.5 27.9169 15.6667C27.9169 15.6667 28.7502 13.4167 28.3335 11.0834C28.3335 11.0834 28.1669 10.8334 28.4169 10.6667C28.6669 10.5 28.8335 10.9167 28.9169 11.3334C29.0002 11.75 28.9169 12.75 28.9169 12.75C28.9169 12.75 29.5835 12.1667 29.8335 11.5C30.1669 10.75 30.5002 11.3334 30.1669 11.8334C29.7502 12.4167 29.0835 13.1667 29.0002 13.3334C29.0002 13.5 28.7502 15.75 29.5002 16.1667C29.5002 16.1667 30.3335 13.5 30.3335 11.9167C30.3335 11.9167 30.2502 11.5834 30.5835 11.5C30.9169 11.4167 30.9169 13.0834 30.5835 14.1667C30.5835 14.1667 31.3335 13.5 31.5002 13C31.6669 12.4167 32.2502 12.6667 31.8335 13.3334C31.4169 14 30.5002 14.8334 30.5002 14.8334C30.5002 14.8334 30.3335 15.9167 30.8335 16.6667C31.3335 17.4167 31.1669 18.3334 31.1669 18.3334C31.1669 18.3334 31.8335 17.75 31.8335 17.4167C31.8335 17.4167 32.0835 17.5834 31.9169 18C31.7502 18.4167 31.4169 18.6667 31.5002 19C31.5002 19 31.6669 18.6667 31.9169 18.5834C32.0835 18.4167 32.3335 18.1667 32.3335 17.9167C32.3335 17.9167 32.5835 18.0834 32.2502 18.75C31.9169 19.3334 31.5835 19.5 31.5002 19.6667C31.3335 19.8334 31.6669 20.1667 31.0835 20.4167C30.5002 20.6667 30.7502 20.9167 30.7502 20.9167C30.7502 20.9167 31.1669 20.8334 31.0835 21.3334C31.0835 21.3334 31.3335 21.1667 31.4169 21.5C31.5002 21.6667 31.4169 21.75 31.4169 21.8334C31.5002 21.8334 31.6669 21.75 31.7502 21.9167C31.8335 22.0834 31.6669 22.1667 31.6669 22.1667C31.6669 22.1667 32.2502 22.5834 32.2502 23.0834C32.2502 23.0834 32.5002 22.9167 32.4169 22.75C32.3335 22.5834 32.0002 21.9167 32.3335 21.5834C32.6669 21.25 33.7502 20.6667 33.4169 19.3334C33.0835 18 33.5002 17.25 33.6669 17.0834C33.6669 17.0834 33.4169 18.1667 33.5835 18.6667C33.8335 19.1667 34.2502 20 33.5002 20.8334C32.7502 21.6667 32.4169 21.8334 32.5835 22.4167C32.8335 23 32.5002 23.5 32.2502 23.75C32.2502 23.75 32.0002 24.25 31.6669 24.4167C31.6669 24.4167 31.5835 24.5834 31.3335 24.6667C31.0835 24.75 31.2502 24.9167 31.2502 24.9167C31.2502 24.9167 30.9169 24.5834 31.2502 24.3334C31.2502 24.3334 31.0835 24.1667 31.0002 24.3334C30.9169 24.5 30.9169 24.6667 30.9169 24.6667C30.9169 24.6667 30.6669 24.25 30.8335 24.1667C30.8335 24.1667 30.7502 24 30.6669 24.0834C30.5835 24.1667 30.4169 24.3334 30.4169 24.3334C30.4169 24.3334 30.5002 24.0834 30.4169 23.9167C30.4169 23.8334 30.1669 23.8334 30.0835 23.6667C30.0835 23.6667 29.6669 24.4167 30.1669 24.5834C30.6669 24.8334 32.0002 25.4167 31.3335 26.6667C30.6669 27.9167 29.5835 27.8334 28.7502 27.4167C27.9169 27 27.0002 27.9167 27.1669 28.4167C27.1669 28.5834 27.1669 28.75 27.0002 28.9167C27.6669 29.75 28.4169 30.5 29.2502 30.5834C31.0835 30.75 30.7502 28.5 30.0835 28.75C29.5835 28.9167 29.8335 29.3334 29.8335 29.3334C30.0002 29.9167 29.2502 29.6667 29.3335 28.9167C29.4169 28.25 29.9169 28 30.2502 28C30.5002 28 31.5835 28.1667 31.2502 29.75C30.9169 31.3334 29.5835 31.5834 29.5835 31.5834V31.6667L29.3335 31.5834V31.75L28.8335 31.6667V31.8334L28.5835 31.6667L28.5002 31.75L28.4169 31.6667L28.3335 31.75L28.1669 31.5L28.0835 31.6667L28.0002 31.4167V31.6667L27.9169 31.4167L27.8335 31.5834L27.6669 31.3334L27.5835 31.5L27.5002 31.25L27.4169 31.4167L27.3335 31.1667L27.2502 31.25L27.0835 31L27.0002 31.1667L26.9169 30.8334L26.8335 31L26.7502 30.6667L26.6669 30.75L26.5835 30.4167L26.5002 30.6667L26.4169 30.3334L26.3335 30.4167L26.2502 30L26.1669 30.1667L26.0835 29.9167V30V29.75L26.0002 29.9167V29.5834L25.9169 29.6667V29.5834C25.5835 29.5834 25.1669 29.5 24.7502 29.1667C24.7502 29.25 24.7502 29.3334 24.8335 29.4167C24.9169 29.9167 25.1669 30.9167 26.5002 31.75C27.3335 32.25 28.0002 32.8334 28.1669 33.6667C32.6669 30.9167 35.8335 25.8334 35.8335 20C35.8335 11.25 28.7502 4.16669 20.0002 4.16669Z" fill="white"/>
<path d="M25.5001 29.1667V29V29.1667L25.3335 28.75L25.2501 28.8333L25.1668 28.5L25.0835 28.5833V28.3333L25.0001 28.5833V28.3333L24.9168 28.4167L24.8335 28.1667L24.7501 28.3333C24.7501 28.1667 24.5001 27.8333 24.5001 27.8333C24.5001 27.8333 24.5001 28.5 24.5835 29C24.7501 29.1667 25.1668 29.25 25.5001 29.1667Z" fill="white"/>
<path d="M13.2501 20.5834C12.7501 20.0834 12.3335 20.25 12.3335 20.25C12.0835 20.3334 13.7501 21.0834 13.2501 20.5834Z" fill="white"/>
<path d="M13.0003 21.3334C13.0003 20.75 12.3336 20.5 12.3336 20.5C12.0836 20.3334 12.9169 21.9167 13.0003 21.3334Z" fill="white"/>
<path d="M12.1668 22.3334C12.2501 21.75 11.9168 21.25 11.9168 21.25C11.8335 21.0834 12.0835 23 12.1668 22.3334Z" fill="white"/>
<path d="M12.5003 21.75C12.417 21.0834 12.167 20.9167 12.167 20.9167C12.0003 20.75 12.5836 22.5 12.5003 21.75Z" fill="white"/>
</svg>
