<svg width="40" height="40" viewBox="0 0 40 40" fill="none" xmlns="http://www.w3.org/2000/svg">
<path d="M19.4603 10.0952C19.5873 10.2222 19.7143 10.3492 19.9682 10.3492C20.2222 10.3492 20.3492 10.2222 20.4762 10.0952L23.6508 5.01587C23.7778 4.76191 23.7778 4.63492 23.6508 4.38095C23.5238 4.12698 23.3968 4 23.1428 4H16.7936C16.5397 4 16.4127 4.12698 16.2857 4.38095C16.1587 4.50794 16.1587 4.76191 16.2857 5.01587L19.4603 10.0952Z" fill="white"/>
<path d="M28.2222 34.4762H23.7778V33.5873C22.508 33.8413 21.2381 33.9683 19.9683 33.9683C18.6984 33.9683 17.4286 33.8413 16.1587 33.5873V34.4762H11.7143C11.3333 34.4762 11.0794 34.6032 11.0794 34.9841V35.4921C11.0794 35.746 11.3333 36 11.7143 36H28.2222C28.6032 36 28.8572 35.746 28.8572 35.4921V34.9841C28.8572 34.6032 28.6032 34.4762 28.2222 34.4762Z" fill="white"/>
<path d="M24.1587 6.28571L21.873 9.71428C22.7619 9.84126 23.6508 10.2222 24.5397 10.6032L21.6191 15.5556C21.2381 15.4286 20.9841 15.3016 20.6032 15.3016V10.8571C20.3492 10.9841 20.2222 10.9841 19.9683 10.9841C19.7143 10.9841 19.5873 10.9841 19.3333 10.8571V15.3016C18.9524 15.3016 18.6984 15.4286 18.3175 15.5556L15.3968 10.4762C16.1587 10.0952 17.0476 9.84126 18.0635 9.58729L15.7778 6.28571C10.0635 8.06348 6 13.3968 6 19.619C6 27.3651 12.2222 33.5873 19.9683 33.5873C27.7143 33.5873 33.9365 27.3651 33.9365 19.619C33.9365 13.5238 29.873 8.06348 24.1587 6.28571ZM30.127 18.9841H24.4127C24.4127 18.6032 24.2857 18.3492 24.1587 17.9682L29.1111 15.0476C29.6191 16.3175 30 17.5873 30.127 18.9841ZM25.5556 11.1111C26.6984 11.873 27.7143 12.7619 28.3492 13.9048L23.3968 16.8254C23.1429 16.5714 22.8889 16.3175 22.6349 16.0635L25.5556 11.1111ZM14.381 11.1111L17.3016 16.0635C17.0476 16.3175 16.7937 16.5714 16.5397 16.8254L11.4603 14.0317C12.2222 12.8889 13.2381 11.873 14.381 11.1111ZM10.8254 15.0476L15.9048 17.9682C15.7778 18.3492 15.6508 18.6032 15.6508 18.9841H9.80953C9.93651 17.5873 10.3175 16.3175 10.8254 15.0476ZM9.80953 20.254H15.5238C15.5238 20.6349 15.6508 20.8889 15.7778 21.2698L10.8254 24.1905C10.3175 22.9206 9.93651 21.6508 9.80953 20.254ZM11.4603 25.2063L16.4127 22.2857C16.6667 22.5397 16.9206 22.7936 17.1746 23.0476L14.381 28.127C13.2381 27.3651 12.2222 26.3492 11.4603 25.2063ZM19.3333 29.7778C17.9365 29.6508 16.6667 29.2698 15.3968 28.7619L18.3175 23.8095C18.6984 23.9365 18.9524 24.0635 19.3333 24.0635V29.7778ZM16.4127 19.746C16.4127 17.8413 17.9365 16.1905 19.9683 16.1905C21.873 16.1905 23.5238 17.7143 23.5238 19.746C23.5238 21.6508 22 23.3016 19.9683 23.3016C18.0635 23.1746 16.4127 21.6508 16.4127 19.746ZM20.6032 29.7778V24.0635C20.9841 24.0635 21.2381 23.9365 21.6191 23.8095L24.5397 28.7619C23.2698 29.2698 22 29.6508 20.6032 29.7778ZM25.5556 28.127L22.7619 23.0476C23.0159 22.7936 23.2698 22.5397 23.5238 22.2857L28.4762 25.2063C27.7143 26.3492 26.6984 27.3651 25.5556 28.127ZM29.1111 24.1905L24.1587 21.2698C24.2857 20.8889 24.4127 20.6349 24.4127 20.254H30.127C30 21.6508 29.6191 22.9206 29.1111 24.1905Z" fill="white"/>
<path d="M19.9682 22.4127C21.441 22.4127 22.6349 21.2188 22.6349 19.746C22.6349 18.2733 21.441 17.0793 19.9682 17.0793C18.4955 17.0793 17.3016 18.2733 17.3016 19.746C17.3016 21.2188 18.4955 22.4127 19.9682 22.4127Z" fill="white"/>
</svg>
