<svg width="40" height="40" viewBox="0 0 40 40" fill="none" xmlns="http://www.w3.org/2000/svg">
<path fill-rule="evenodd" clip-rule="evenodd" d="M19.7 15.2C19.3 16.1 19.1 17.4 19 19C17.5 19.1 16.2 19.3 15.2 19.6C15.1 19.1 14.5 18.6 13.9 18.6C13.2 18.6 12.6 19.2 12.6 19.9C12.6 20.6 13.2 21.2 13.9 21.2C14.5 21.2 15 20.8 15.2 20.2C16.2 20.6 17.5 20.8 19 20.9C19.1 22.4 19.3 23.7 19.7 24.7C19.1 24.8 18.7 25.4 18.7 26C18.7 26.7 19.3 27.3 20 27.3C20.7 27.3 21.3 26.7 21.3 26C21.3 25.4 20.9 24.9 20.3 24.7C20.6 23.7 20.9 22.4 21 20.9C22.5 20.8 23.8 20.6 24.7 20.2C24.9 20.8 25.4 21.2 26 21.2C26.7 21.2 27.3 20.6 27.3 19.9C27.3 19.2 26.7 18.6 26 18.6C25.4 18.6 24.9 19 24.7 19.6C23.8 19.3 22.5 19.1 21 19C20.9 17.4 20.6 16.1 20.3 15.2C20.9 15.1 21.3 14.5 21.3 13.9C21.3 13.2 20.7 12.6 20 12.6C19.3 12.6 18.7 13.2 18.7 13.9C18.7 14.5 19.1 15 19.7 15.2ZM20 11.5C17.7 11.5 15.6 12.5 14 14C12.5 15.6 11.5 17.7 11.5 20C11.5 22.3 12.5 24.5 14 26C15.6 27.5 17.7 28.5 20 28.5C22.3 28.5 24.4 27.5 26 26C27.5 24.5 28.5 22.3 28.5 20C28.5 17.7 27.5 15.6 26 14C24.5 12.5 22.4 11.5 20 11.5ZM18.9 6.3C17.2 6.4 15.6 6.9 14.2 7.6L15.7 10.1C16.7 9.7 17.8 9.4 18.9 9.3V6.3ZM12.2 8.7C11.5 9.1 10.9 9.7 10.3 10.3C9.7 10.9 9.2 11.5 8.7 12.2L11.2 13.7C11.5 13.3 11.9 12.8 12.3 12.4C12.7 12 13 11.7 13.5 11.3L12.2 8.7ZM7.6 14.1C6.9 15.6 6.5 17.2 6.4 18.8H9.3C9.4 17.7 9.7 16.6 10.2 15.6L7.6 14.1ZM6.4 21.1C6.5 22.8 6.9 24.4 7.6 25.8L10.2 24.3C9.8 23.3 9.5 22.3 9.3 21.1H6.4ZM8.8 27.8C9.2 28.5 9.8 29.1 10.3 29.7C10.9 30.2 11.6 30.7 12.2 31.3L13.6 28.7C13.2 28.4 12.8 28 12.4 27.7C12 27.3 11.6 26.9 11.3 26.4L8.8 27.8ZM14.2 32.4C15.6 33.1 17.2 33.5 18.9 33.7V30.7C17.8 30.6 16.7 30.3 15.7 29.8L14.2 32.4ZM21.2 33.7C22.8 33.6 24.5 33.1 25.9 32.4L24.4 29.8C23.4 30.2 22.3 30.5 21.2 30.7V33.7ZM27.8 31.3C28.5 30.8 29.1 30.3 29.7 29.7C30.3 29.1 30.8 28.5 31.3 27.8L28.8 26.3C28.4 26.7 28.1 27.1 27.7 27.6C27.3 28 26.9 28.3 26.4 28.6L27.8 31.3ZM32.4 25.8C33.1 24.4 33.5 22.8 33.7 21.1H30.7C30.6 22.3 30.3 23.3 29.9 24.3L32.4 25.8ZM33.7 18.8C33.6 17.2 33.2 15.6 32.4 14.1L29.9 15.6C30.3 16.6 30.6 17.7 30.7 18.8H33.7ZM31.3 12.2C30.9 11.5 30.3 10.9 29.7 10.3C29.2 9.7 28.5 9.2 27.8 8.7L26.3 11.2C26.7 11.6 27.2 11.9 27.6 12.3C28 12.7 28.3 13.1 28.7 13.6L31.3 12.2ZM25.9 7.6C24.5 6.9 22.8 6.5 21.2 6.3V9.3C22.3 9.4 23.4 9.7 24.4 10.1L25.9 7.6ZM8.7 8.6C11.6 5.8 15.6 4 20 4C24.4 4 28.4 5.8 31.3 8.6C34.2 11.6 36 15.5 36 20C36 24.5 34.2 28.4 31.4 31.3C28.4 34.2 24.5 36 20 36C15.6 36 11.6 34.2 8.7 31.3C5.8 28.4 4 24.4 4 20C4 15.6 5.8 11.6 8.7 8.6Z" fill="white"/>
</svg>
