<svg width="40" height="40" viewBox="0 0 40 40" fill="none" xmlns="http://www.w3.org/2000/svg">
<path d="M26 4H14C13 4 12.2 4.8 12.2 5.8V17.9C12.2 18.9 13 19.7 14 19.7H26C27 19.7 27.8 18.9 27.8 17.9V5.8C27.8 4.8 27 4 26 4ZM15.2 18C14.4 18 13.8 17.4 13.8 16.6C13.8 15.8 14.4 15.2 15.2 15.2C16 15.2 16.6 15.8 16.6 16.6C16.6 17.4 16 18 15.2 18ZM15.2 8.4C14.4 8.4 13.8 7.8 13.8 7C13.8 6.2 14.4 5.6 15.2 5.6C16 5.6 16.6 6.2 16.6 7C16.6 7.8 16 8.4 15.2 8.4ZM24.8 18C24 18 23.4 17.4 23.4 16.6C23.4 15.8 24 15.2 24.8 15.2C25.6 15.2 26.2 15.8 26.2 16.6C26.2 17.4 25.6 18 24.8 18ZM24.8 8.4C24 8.4 23.4 7.8 23.4 7C23.4 6.2 24 5.6 24.8 5.6C25.6 5.6 26.2 6.2 26.2 7C26.2 7.8 25.6 8.4 24.8 8.4Z" fill="white"/>
<path d="M17.9 20.4H5.8C4.8 20.4 4 21.2 4 22.2V34.3C4 35.3 4.8 36.1 5.8 36.1H17.9C18.9 36.1 19.7 35.3 19.7 34.3V22.2C19.6 21.2 18.8 20.4 17.9 20.4ZM7 34.4C6.2 34.4 5.6 33.8 5.6 33C5.6 32.2 6.2 31.6 7 31.6C7.8 31.6 8.4 32.2 8.4 33C8.4 33.8 7.8 34.4 7 34.4ZM7 24.8C6.2 24.8 5.6 24.2 5.6 23.4C5.6 22.6 6.3 22 7 22C7.8 22 8.4 22.6 8.4 23.4C8.4 24.2 7.8 24.8 7 24.8ZM11.8 29.6C11 29.6 10.4 29 10.4 28.2C10.4 27.4 11 26.8 11.8 26.8C12.6 26.8 13.2 27.4 13.2 28.2C13.3 29 12.6 29.6 11.8 29.6ZM16.6 34.4C15.8 34.4 15.2 33.8 15.2 33C15.2 32.2 15.8 31.6 16.6 31.6C17.4 31.6 18 32.2 18 33C18.1 33.8 17.4 34.4 16.6 34.4ZM16.6 24.8C15.8 24.8 15.2 24.2 15.2 23.4C15.2 22.6 15.8 22 16.6 22C17.4 22 18 22.6 18 23.4C18.1 24.2 17.4 24.8 16.6 24.8Z" fill="white"/>
<path d="M34.2 20.4H22.1C21.1 20.4 20.3 21.2 20.3 22.2V34.3C20.3 35.3 21.1 36.1 22.1 36.1H34.2C35.2 36.1 36 35.3 36 34.3V22.2C36 21.2 35.2 20.4 34.2 20.4ZM23.4 34.4C22.6 34.4 22 33.8 22 33C22 32.2 22.6 31.6 23.4 31.6C24.2 31.6 24.8 32.2 24.8 33C24.8 33.8 24.1 34.4 23.4 34.4ZM23.4 29.6C22.6 29.6 22 29 22 28.2C22 27.4 22.6 26.8 23.4 26.8C24.2 26.8 24.8 27.4 24.8 28.2C24.8 29 24.1 29.6 23.4 29.6ZM23.4 24.8C22.6 24.8 22 24.2 22 23.4C22 22.6 22.6 22 23.4 22C24.2 22 24.8 22.6 24.8 23.4C24.8 24.2 24.1 24.8 23.4 24.8ZM33 34.4C32.2 34.4 31.6 33.8 31.6 33C31.6 32.2 32.2 31.6 33 31.6C33.8 31.6 34.4 32.2 34.4 33C34.4 33.8 33.7 34.4 33 34.4ZM33 29.6C32.2 29.6 31.6 29 31.6 28.2C31.6 27.4 32.2 26.8 33 26.8C33.8 26.8 34.4 27.4 34.4 28.2C34.4 29 33.7 29.6 33 29.6ZM33 24.8C32.2 24.8 31.6 24.2 31.6 23.4C31.6 22.6 32.2 22 33 22C33.8 22 34.4 22.6 34.4 23.4C34.4 24.2 33.7 24.8 33 24.8Z" fill="white"/>
</svg>
