<svg width="151" height="37" viewBox="0 0 151 37" fill="none" xmlns="http://www.w3.org/2000/svg">
<path d="M109.6 0.985901H69.9865V36.1972H109.6V0.985901Z" fill="url(#paint0_linear)"/>
<path d="M107.91 2.61969H71.6207V34.6197H107.91V2.61969Z" fill="url(#paint1_linear)"/>
<path d="M107.516 2.9577H72.0151V34.2253H107.516V2.9577Z" fill="url(#paint2_radial)"/>
<path opacity="0.65" d="M72.0151 2.9577V34.2253H107.516V2.9577H72.0151ZM107.234 34.0563H72.3532V3.35207H107.234V34.0563Z" fill="#630B0B"/>
<path opacity="0.81" d="M84.6375 19.1831V31.9155C84.6375 32.1972 84.5811 32.3662 84.2994 32.3662C84.074 32.3662 83.9613 32.1972 83.9613 31.9155V30.2253H83.3414C82.7216 30.2253 80.4113 32.1972 79.8478 32.5915C78.8335 31.9718 77.5938 31.4084 76.6358 31.0704C76.1287 31.5775 75.7342 31.9155 75.5088 32.1408C75.2834 32.3662 75.1707 32.5352 75.058 32.5352C74.889 32.5352 74.6636 32.3099 74.6636 32.1408C74.6636 31.9718 75.058 31.5211 76.8049 29.7183C78.0446 28.4789 78.4954 26.9577 78.4954 24.6479C78.4954 20.8169 76.8612 17.5493 74.9453 17.5493C74.3255 17.5493 73.9874 17.7746 73.8747 18.4507C73.8183 18.7887 73.7056 18.8451 73.5366 18.8451C73.2548 18.8451 73.1421 18.3944 73.1421 17.6056C73.1421 15.8591 74.3818 14.4507 75.8469 14.4507C77.143 14.4507 77.6501 15.5211 78.439 15.4084V12.8732C78.439 12.1972 78.2136 11.6338 77.7065 11.2394C77.312 10.9014 75.1144 9.43661 74.3255 9.43661C74.0437 9.43661 73.931 9.54929 73.7056 9.54929C73.5929 9.54929 73.5929 9.49295 73.5929 9.43661C73.5929 9.32394 73.6493 9.2676 73.8747 9.04225L76.6358 6.28169C76.7485 6.16901 76.8612 6.11267 76.9739 6.11267C77.9319 6.11267 81.7073 9.15492 82.1581 9.15492C82.8906 9.15492 86.7224 6.22535 87.7367 6.22535C88.0185 6.22535 88.3002 6.4507 90.4415 8.19718C90.7796 8.47887 91.5122 9.09859 92.132 9.49295C92.6955 9.83098 92.7519 9.88732 92.7519 10.5634C93.09 10.507 93.4844 10.2253 95.6821 8.42253C96.3019 7.91549 98.1615 6.39436 98.3305 6.39436C98.4996 6.39436 100.021 7.01408 102.331 7.97183C103.008 8.25352 103.12 8.30985 103.12 8.76056V26.9014C103.12 27.5211 103.177 27.6901 103.458 27.9155C104.529 28.8169 105.149 29.1549 105.487 29.1549C105.6 29.1549 105.712 29.0986 105.825 28.9859C105.994 28.7606 106.05 28.7042 106.163 28.7042C106.276 28.7042 106.389 28.8169 106.389 28.9859C106.389 29.2113 104.811 31.1831 103.233 32.4225C102.275 32.0845 100.585 30.9014 99.6266 29.9437C99.2885 29.6056 99.2321 29.5493 99.2321 28.9296V15.9718C99.2321 14.4507 99.7393 13.4366 101.486 11.0704C102.388 9.88732 102.444 9.54929 102.275 9.54929C102.106 9.54929 100.021 11.0704 99.5702 11.3521C97.7107 10.2817 97.1472 9.94366 96.1329 9.94366C95.5694 9.94366 95.1749 10.2253 95.1749 10.5634V32.1408C95.1749 32.4225 95.0622 32.6479 94.8368 32.6479C94.6678 32.6479 94.5551 32.4789 94.5551 32.1972V30.5634C93.0336 30.7887 91.8503 32.5352 91.4558 32.5352C91.0614 32.5352 88.8074 29.7746 88.8074 29.6056V19.1831H84.6375ZM84.0176 10.2817C84.0176 9.60563 83.9613 9.32394 83.7922 9.32394C83.4541 9.32394 82.3835 9.99999 82.3835 10.2817V19.9718C82.3835 24.7606 81.82 25.2676 80.5803 26.6197C80.0168 27.2394 79.9041 27.3521 79.4533 27.8591C80.1859 28.8732 82.6089 29.3239 84.0176 29.2676V10.2817ZM84.6375 15.8591H88.751V12.0282C88.751 11.2958 86.1026 9.2676 85.2573 9.2676C84.8629 9.2676 84.6375 9.49295 84.6375 9.94366V15.8591ZM94.4987 10.9014C94.4987 10.8451 94.4424 10.7887 94.386 10.7887C94.2733 10.7887 94.1043 10.8451 93.9916 10.9014L93.2027 11.4084C92.7519 11.6901 92.5828 11.8591 92.5828 12.0282V15.5211C92.5828 15.7465 92.9209 15.9155 93.1463 15.9155H94.4987V10.9014ZM94.4987 19.1268H93.1463C92.7519 19.1268 92.5828 19.4084 92.5828 19.9155V27.1268C92.5828 28.5352 93.2027 29.2113 94.4424 29.3239V19.1268H94.4987Z" fill="#630B0B"/>
<path d="M84.6375 18.4507V31.1831C84.6375 31.4648 84.5811 31.6338 84.2994 31.6338C84.074 31.6338 83.9613 31.4648 83.9613 31.1831V29.4929H83.3414C82.7216 29.4929 80.4113 31.4648 79.8478 31.8591C78.8335 31.2394 77.5938 30.676 76.6358 30.338C76.1287 30.845 75.7342 31.1831 75.5088 31.4084C75.2834 31.6338 75.1707 31.8028 75.058 31.8028C74.889 31.8028 74.6636 31.5774 74.6636 31.4084C74.6636 31.2394 75.058 30.7887 76.8049 28.9859C78.0446 27.7464 78.4954 26.2253 78.4954 23.9155C78.4954 20.0845 76.8612 16.8169 74.9453 16.8169C74.3255 16.8169 73.9874 17.0422 73.8747 17.7183C73.8183 18.0563 73.7056 18.1126 73.5366 18.1126C73.2548 18.1126 73.1421 17.6619 73.1421 16.8732C73.1421 15.1267 74.3818 13.7183 75.8469 13.7183C77.143 13.7183 77.6501 14.7887 78.439 14.676V12.1408C78.439 11.4648 78.2136 10.9014 77.7065 10.507C77.312 10.169 75.1144 8.70419 74.3255 8.70419C74.0437 8.70419 73.931 8.81687 73.7056 8.81687C73.5929 8.81687 73.5929 8.76053 73.5929 8.70419C73.5929 8.59152 73.6493 8.53518 73.8747 8.30983L76.6358 5.54926C76.7485 5.43659 76.8612 5.38025 76.9739 5.38025C77.9319 5.38025 81.7073 8.4225 82.1581 8.4225C82.8906 8.4225 86.7224 5.49292 87.7367 5.49292C88.0185 5.49292 88.3002 5.71828 90.4415 7.46476C90.7796 7.74645 91.5122 8.36616 92.132 8.76053C92.6955 9.09856 92.7519 9.1549 92.7519 9.83095C93.09 9.77462 93.4844 9.49292 95.6821 7.69011C96.3019 7.18307 98.1615 5.66194 98.3305 5.66194C98.4996 5.66194 100.021 6.28166 102.331 7.2394C103.008 7.52109 103.12 7.57743 103.12 8.02814V26.169C103.12 26.7887 103.177 26.9577 103.458 27.1831C104.529 28.0845 105.149 28.4225 105.487 28.4225C105.6 28.4225 105.712 28.3662 105.825 28.2535C105.994 28.0281 106.05 27.9718 106.163 27.9718C106.276 27.9718 106.389 28.0845 106.389 28.2535C106.389 28.4788 104.811 30.4507 103.233 31.6901C102.275 31.3521 100.585 30.169 99.6266 29.2112C99.2885 28.8732 99.2321 28.8169 99.2321 28.1971V15.2394C99.2321 13.7183 99.7393 12.7042 101.486 10.338C102.388 9.1549 102.444 8.81687 102.275 8.81687C102.106 8.81687 100.021 10.338 99.5702 10.6197C97.7107 9.54926 97.1472 9.21123 96.1329 9.21123C95.5694 9.21123 95.1749 9.49293 95.1749 9.83095V31.4084C95.1749 31.6901 95.0622 31.9155 94.8368 31.9155C94.6678 31.9155 94.5551 31.7464 94.5551 31.4648V29.8309C93.0336 30.0563 91.8503 31.8028 91.4558 31.8028C91.0614 31.8028 88.8074 29.0422 88.8074 28.8732V18.4507H84.6375ZM84.0176 9.54926C84.0176 8.87321 83.9613 8.59152 83.7922 8.59152C83.4541 8.59152 82.3835 9.26757 82.3835 9.54926V19.2394C82.3835 24.0281 81.82 24.5352 80.5803 25.8873C80.0168 26.507 79.9041 26.6197 79.4533 27.1267C80.1859 28.1408 82.6089 28.5915 84.0176 28.5352V9.54926ZM84.6375 15.1267H88.751V11.2957C88.751 10.5633 86.1026 8.53518 85.2573 8.53518C84.8629 8.53518 84.6375 8.76053 84.6375 9.21123V15.1267ZM94.4987 10.169C94.4987 10.1126 94.4424 10.0563 94.386 10.0563C94.2733 10.0563 94.1043 10.1126 93.9916 10.169L93.2027 10.676C92.7519 10.9577 92.5828 11.1267 92.5828 11.2957V14.845C92.5828 15.0704 92.9209 15.2394 93.1463 15.2394H94.4987V10.169ZM94.4987 18.3943H93.1463C92.7519 18.3943 92.5828 18.676 92.5828 19.1831V26.3943C92.5828 27.8028 93.2027 28.4788 94.4424 28.5915V18.3943H94.4987Z" fill="url(#paint3_radial)"/>
<path d="M125.604 18.0564C129.436 17.493 130.281 15.5211 130.281 12.0845V8.53523C130.281 4.76058 127.238 2.90143 121.152 2.90143C115.066 2.90143 112.024 4.76058 112.024 8.53523V12.7606C112.024 15.6902 112.7 17.2676 116.193 17.831C112.7 18.6197 112.024 20.7606 112.024 23.9155V28.5352C112.024 32.3099 115.066 34.2254 121.152 34.2254C127.238 34.2254 130.281 32.3099 130.281 28.5352V23.9719C130.281 20.5352 129.436 18.5634 125.604 18.0564ZM121.152 16.0845C119.8 16.0845 119.18 15.4648 119.18 14.2254V8.1972C119.18 6.95777 119.856 6.39439 121.152 6.39439C122.505 6.39439 123.181 7.01411 123.181 8.1972V14.169C123.237 15.4648 122.505 16.0845 121.152 16.0845ZM121.152 30.6197C119.8 30.6197 119.18 30 119.18 28.7606V21.9437C119.18 20.6479 119.856 20.0282 121.152 20.0282C122.505 20.0282 123.181 20.6479 123.181 21.9437V28.7606C123.237 30 122.505 30.6197 121.152 30.6197Z" fill="url(#paint4_linear)"/>
<path d="M121.209 3.07044C124.195 3.07044 126.449 3.52115 127.971 4.47889C129.436 5.3803 130.168 6.73241 130.168 8.59157V12.1409C130.168 15.3521 129.436 17.3803 125.604 17.9437L124.421 18.1127L125.604 18.2817C127.407 18.5071 128.59 19.0704 129.267 20.0282C129.886 20.8733 130.112 22.1127 130.112 24.0282V28.5916C130.112 30.3944 129.379 31.8028 127.914 32.7043C126.449 33.6057 124.139 34.1127 121.152 34.1127C118.166 34.1127 115.912 33.662 114.39 32.7043C112.925 31.8028 112.193 30.3944 112.193 28.5916V23.9719C112.193 20.7606 112.869 18.7888 116.25 18.0564L117.095 17.8873L116.25 17.7747C112.812 17.2113 112.249 15.7465 112.249 12.8733V8.64791C112.249 6.84509 112.982 5.43664 114.447 4.53523C115.912 3.57748 118.222 3.07044 121.209 3.07044ZM121.152 16.2535C122.617 16.2535 123.35 15.5211 123.35 14.2254V8.1972C123.35 6.90143 122.561 6.22537 121.152 6.22537C119.744 6.22537 119.011 6.90143 119.011 8.1972V14.169C119.011 15.5211 119.744 16.2535 121.152 16.2535ZM121.152 30.7888C122.617 30.7888 123.35 30.0564 123.35 28.7606V21.9437C123.35 20.5916 122.561 19.8592 121.152 19.8592C119.744 19.8592 119.011 20.5916 119.011 21.9437V28.7606C119.011 30.0564 119.744 30.7888 121.152 30.7888ZM121.209 2.90143C115.123 2.90143 112.08 4.76058 112.08 8.53523V12.7606C112.08 15.6902 112.756 17.2676 116.25 17.831C112.756 18.6197 112.08 20.7606 112.08 23.9155V28.5352C112.08 32.3099 115.123 34.2254 121.209 34.2254C127.294 34.2254 130.337 32.3099 130.337 28.5352V23.9719C130.337 20.4789 129.492 18.5071 125.66 18C129.492 17.4366 130.337 15.4648 130.337 12.0282V8.47889C130.281 4.81692 127.238 2.90143 121.209 2.90143ZM121.152 16.0845C119.8 16.0845 119.18 15.4648 119.18 14.2254V8.1972C119.18 6.95777 119.856 6.39439 121.152 6.39439C122.505 6.39439 123.181 7.01411 123.181 8.1972V14.169C123.237 15.4648 122.505 16.0845 121.152 16.0845ZM121.152 30.6197C119.8 30.6197 119.18 30 119.18 28.7606V21.9437C119.18 20.6479 119.856 20.0282 121.152 20.0282C122.505 20.0282 123.181 20.6479 123.181 21.9437V28.7606C123.237 30 122.505 30.6197 121.152 30.6197Z" fill="url(#paint5_linear)"/>
<path d="M146.284 18.0564C150.116 17.493 150.961 15.5211 150.961 12.0845V8.53523C150.961 4.76058 147.918 2.90143 141.833 2.90143C135.747 2.90143 132.704 4.76058 132.704 8.53523V12.7606C132.704 15.6902 133.38 17.2676 136.874 17.831C133.38 18.6197 132.704 20.7606 132.704 23.9155V28.5352C132.704 32.3099 135.747 34.2254 141.833 34.2254C147.918 34.2254 150.961 32.3099 150.961 28.5352V23.9719C150.961 20.5352 150.116 18.5634 146.284 18.0564ZM141.833 16.0845C140.48 16.0845 139.86 15.4648 139.86 14.2254V8.1972C139.86 6.95777 140.537 6.39439 141.833 6.39439C143.185 6.39439 143.861 7.01411 143.861 8.1972V14.169C143.861 15.4648 143.185 16.0845 141.833 16.0845ZM141.833 30.6197C140.48 30.6197 139.86 30 139.86 28.7606V21.9437C139.86 20.6479 140.537 20.0282 141.833 20.0282C143.185 20.0282 143.861 20.6479 143.861 21.9437V28.7606C143.861 30 143.185 30.6197 141.833 30.6197Z" fill="url(#paint6_linear)"/>
<path d="M141.833 3.07044C144.819 3.07044 147.073 3.52115 148.595 4.47889C150.06 5.3803 150.792 6.73241 150.792 8.59157V12.1409C150.792 15.3521 150.06 17.3803 146.228 17.9437L145.045 18.1127L146.228 18.2817C148.031 18.5071 149.214 19.0704 149.891 20.0282C150.511 20.8733 150.736 22.1127 150.736 24.0282V28.5916C150.736 30.3944 150.003 31.8028 148.538 32.7043C147.073 33.6057 144.763 34.1127 141.776 34.1127C138.79 34.1127 136.536 33.662 135.014 32.7043C133.549 31.8028 132.817 30.3944 132.817 28.5916V23.9719C132.817 20.7606 133.493 18.7888 136.874 18.0564L137.719 17.8873L136.874 17.7747C133.436 17.2113 132.873 15.7465 132.873 12.8733V8.64791C132.873 6.84509 133.606 5.43664 135.071 4.53523C136.592 3.57748 138.846 3.07044 141.833 3.07044ZM141.833 16.2535C143.298 16.2535 144.03 15.5211 144.03 14.2254V8.1972C144.03 6.90143 143.241 6.22537 141.833 6.22537C140.424 6.22537 139.691 6.90143 139.691 8.1972V14.169C139.691 15.5211 140.424 16.2535 141.833 16.2535ZM141.833 30.7888C143.298 30.7888 144.03 30.0564 144.03 28.7606V21.9437C144.03 20.5916 143.241 19.8592 141.833 19.8592C140.424 19.8592 139.691 20.5916 139.691 21.9437V28.7606C139.691 30.0564 140.424 30.7888 141.833 30.7888ZM141.833 2.90143C135.747 2.90143 132.704 4.76058 132.704 8.53523V12.7606C132.704 15.6902 133.38 17.2676 136.874 17.831C133.38 18.6197 132.704 20.7606 132.704 23.9155V28.5352C132.704 32.3099 135.747 34.2254 141.833 34.2254C147.918 34.2254 150.961 32.3099 150.961 28.5352V23.9719C150.961 20.4789 150.116 18.5071 146.284 18C150.116 17.4366 150.961 15.4648 150.961 12.0282V8.47889C150.961 4.81692 147.918 2.90143 141.833 2.90143ZM141.833 16.0845C140.48 16.0845 139.86 15.4648 139.86 14.2254V8.1972C139.86 6.95777 140.537 6.39439 141.833 6.39439C143.185 6.39439 143.861 7.01411 143.861 8.1972V14.169C143.861 15.4648 143.185 16.0845 141.833 16.0845ZM141.833 30.6197C140.48 30.6197 139.86 30 139.86 28.7606V21.9437C139.86 20.6479 140.537 20.0282 141.833 20.0282C143.185 20.0282 143.861 20.6479 143.861 21.9437V28.7606C143.861 30 143.185 30.6197 141.833 30.6197Z" fill="url(#paint7_linear)"/>
<path d="M9.35408 13.0986V10.1127C9.35408 9.54931 9.35408 9.09861 9.29773 8.70424C9.24138 8.36621 9.12868 8.08452 9.01598 7.91551C8.84693 7.74649 8.62153 7.57748 8.33978 7.52114C8.05803 7.4648 7.71993 7.40846 7.26913 7.40846C6.81833 7.40846 6.42389 7.4648 6.14214 7.52114C5.86039 7.57748 5.63499 7.74649 5.46594 7.91551C5.29689 8.14086 5.18419 8.36621 5.18419 8.76058C5.07149 9.09861 5.07149 9.54931 5.07149 10.1127V27.2958C5.07149 27.9155 5.07149 28.3662 5.12784 28.7042C5.18419 29.0423 5.29689 29.324 5.40959 29.5493C5.57864 29.7747 5.80404 29.8873 6.08579 29.9437C6.36754 30 6.76198 30.0564 7.21278 30.0564C7.66358 30.0564 8.00168 30 8.28343 29.9437C8.56518 29.8873 8.79058 29.7183 8.95963 29.5493C9.12868 29.324 9.24138 29.0986 9.24138 28.7042C9.29773 28.3662 9.29773 27.8592 9.29773 27.2958V24.1409H14.2002V27.2958C14.2002 28.8733 14.0875 30.1127 13.9184 31.0704C13.7494 32.0282 13.3549 32.7606 12.8478 33.2113C12.3406 33.7183 11.6081 34.0564 10.7065 34.169C9.80488 34.338 8.62153 34.3944 7.21278 34.3944C5.69134 34.3944 4.50799 34.338 3.55004 34.169C2.59209 34 1.85955 33.662 1.3524 33.2113C0.845248 32.7042 0.450799 31.9718 0.281749 31.0704C0.1127 30.1127 0 28.8733 0 27.2958V10.1127C0 8.59156 0.1127 7.35213 0.281749 6.39438C0.507149 5.43663 0.845248 4.70424 1.40875 4.25354C1.97225 3.74649 2.70479 3.40847 3.66274 3.29579C4.62069 3.07044 5.80404 3.0141 7.21278 3.0141C8.62153 3.0141 9.80488 3.07044 10.7065 3.23945C11.6081 3.40847 12.3406 3.74649 12.8478 4.1972C13.3549 4.70424 13.7494 5.43663 13.9184 6.33804C14.0875 7.23945 14.2002 8.53523 14.2002 10.1127V13.0986H9.35408Z" fill="url(#paint8_linear)"/>
<path d="M28.1186 31.9718H17.8629V5.54926H22.9344V28.2535H28.1186V31.9718Z" fill="url(#paint9_linear)"/>
<path d="M37.6417 32.3098C36.1766 32.3098 34.9933 32.2535 34.0353 32.0845C33.1337 31.9718 32.4012 31.6901 31.8377 31.2394C31.3305 30.7887 30.9361 30.169 30.7107 29.3802C30.4853 28.5352 30.4289 27.4647 30.4289 26.1126V5.54926H35.5004V26.1126C35.5004 26.6197 35.5568 27.0704 35.6131 27.3521C35.6695 27.6901 35.7822 27.9154 35.9512 28.0845C36.1203 28.2535 36.3457 28.3662 36.6274 28.4225C36.9092 28.4788 37.3036 28.5352 37.7544 28.5352C38.2052 28.5352 38.5433 28.4788 38.8251 28.4225C39.1068 28.3662 39.3322 28.2535 39.4449 28.0845C39.614 27.9154 39.6703 27.6901 39.7267 27.3521C39.783 27.0704 39.8394 26.6197 39.8394 26.1126V5.54926H44.7981V26.1126C44.7981 27.4647 44.6854 28.5915 44.5164 29.3802C44.291 30.2253 43.9529 30.845 43.3894 31.2394C42.8822 31.6901 42.1497 31.9718 41.1918 32.0845C40.2902 32.2535 39.1068 32.3098 37.6417 32.3098Z" fill="url(#paint10_linear)"/>
<path d="M59.3927 16.9859C59.8435 17.0986 60.2943 17.2112 60.6888 17.3802C61.0832 17.5493 61.4213 17.7746 61.7031 18.1126C61.9848 18.4507 62.2102 18.845 62.3229 19.3521C62.492 19.8591 62.5483 20.5352 62.5483 21.3239V26.5633C62.5483 27.7464 62.4356 28.7042 62.2666 29.4366C62.0975 30.169 61.7031 30.676 61.1396 31.0704C60.5761 31.4648 59.8435 31.6901 58.8856 31.8028C57.9277 31.9155 56.7443 31.9718 55.2229 31.9718H48.0101V5.49292H55.2229C56.7443 5.49292 57.9277 5.54926 58.8856 5.66193C59.8435 5.77461 60.5761 6.0563 61.1396 6.39433C61.7031 6.78869 62.0412 7.29574 62.2666 8.02813C62.4356 8.70419 62.5483 9.66193 62.5483 10.845V13.2112C62.5483 13.8873 62.4356 14.4507 62.2102 14.9014C61.9848 15.3521 61.7031 15.6901 61.4213 15.9718C61.1396 16.2535 60.8015 16.4225 60.407 16.5915C60.0126 16.7042 59.7308 16.8169 59.3927 16.8169V16.9859ZM53.0816 15.4648H55.3919C56.2372 15.4648 56.7443 15.3521 57.0261 15.0704C57.3078 14.845 57.4205 14.3943 57.4205 13.7183V10.9014C57.4205 10.507 57.4205 10.169 57.3642 9.88729C57.3078 9.6056 57.2515 9.38024 57.0824 9.26757C56.9134 9.09855 56.688 8.98588 56.4062 8.92954C56.1245 8.8732 55.73 8.8732 55.2792 8.8732H53.1379V15.4648H53.0816ZM53.0816 28.6479H55.2229C55.6737 28.6479 56.0681 28.6479 56.3499 28.5915C56.6316 28.5352 56.857 28.4225 56.9697 28.3098C57.1388 28.1408 57.1951 27.9718 57.2515 27.6901C57.3078 27.4084 57.3642 27.0704 57.3642 26.6197V20.4225C57.3642 19.6901 57.2515 19.1831 57.0261 18.9014C56.8007 18.6197 56.2372 18.507 55.3356 18.507H53.0252V28.6479H53.0816Z" fill="url(#paint11_linear)"/>
<path d="M7.21278 3.18311C8.62153 3.18311 9.74853 3.23945 10.6501 3.40847C11.4954 3.57748 12.2279 3.85917 12.7351 4.36621C13.2422 4.81692 13.5803 5.49297 13.7494 6.39438C13.9184 7.29579 14.0311 8.53523 14.0311 10.1127V12.8733H9.52313V10.1127C9.52313 9.54931 9.52313 9.04227 9.46678 8.70424C9.41043 8.30987 9.29773 8.02818 9.12868 7.80283C8.95963 7.57748 8.67788 7.4648 8.33978 7.35213C8.05803 7.29579 7.66358 7.23945 7.21278 7.23945C6.70564 7.23945 6.31119 7.29579 6.02944 7.35213C5.69134 7.40847 5.46594 7.57748 5.24054 7.80283C5.07149 8.02818 4.95879 8.36621 4.90244 8.76058C4.84609 9.09861 4.84609 9.60565 4.84609 10.1127V27.2958C4.84609 27.9155 4.84609 28.3662 4.90244 28.7606C4.95879 29.1549 5.07149 29.493 5.24054 29.7183C5.40959 29.9437 5.69134 30.1127 6.02944 30.169C6.31119 30.2254 6.70564 30.2817 7.21278 30.2817C7.66358 30.2817 8.05803 30.2254 8.33978 30.169C8.67788 30.1127 8.90328 29.9437 9.12868 29.7183C9.29773 29.493 9.41043 29.1549 9.46678 28.7606C9.52313 28.4226 9.52313 27.9155 9.52313 27.2958V24.3099H14.0311V27.2958C14.0311 28.8733 13.9184 30.1127 13.7494 31.0141C13.5803 31.9155 13.2422 32.5916 12.7351 33.0986C12.2279 33.5493 11.5517 33.8873 10.6501 34.0564C9.74853 34.2254 8.56518 34.2817 7.21278 34.2817C5.74769 34.2817 4.50799 34.2254 3.60639 34.0564C2.70479 33.8873 2.0286 33.6056 1.52145 33.0986C1.0143 32.6479 0.676198 31.9155 0.507149 31.0141C0.338099 30.1127 0.225399 28.8169 0.225399 27.2958V10.1127C0.225399 8.59156 0.338099 7.35213 0.507149 6.45072C0.676198 5.54931 1.07065 4.87325 1.5778 4.36621C2.08495 3.91551 2.81749 3.57748 3.71909 3.40847C4.62069 3.29579 5.80404 3.18311 7.21278 3.18311ZM7.21278 3.0141C5.74769 3.0141 4.56434 3.07044 3.66274 3.23945C2.70479 3.40847 1.97225 3.74649 1.40875 4.1972C0.845248 4.70424 0.507149 5.43663 0.281749 6.33804C0.1127 7.35213 0 8.59156 0 10.1127V27.2958C0 28.8733 0.1127 30.1127 0.281749 31.0704C0.450799 32.0282 0.845248 32.7606 1.3524 33.2113C1.85955 33.7183 2.59209 34.0564 3.55004 34.169C4.50799 34.338 5.69134 34.3944 7.21278 34.3944C8.62153 34.3944 9.80488 34.338 10.7065 34.169C11.6081 34 12.3406 33.662 12.8478 33.2113C13.3549 32.7042 13.7494 31.9718 13.9184 31.0704C14.0875 30.1127 14.2002 28.8733 14.2002 27.2958V24.1409H9.29773V27.2958C9.29773 27.9155 9.29773 28.3662 9.24138 28.7042C9.18503 29.0423 9.07233 29.324 8.95963 29.5493C8.79058 29.7747 8.56518 29.8873 8.28343 29.9437C8.00168 30.0564 7.66358 30.0564 7.21278 30.0564C6.76198 30.0564 6.36754 30 6.08579 29.9437C5.80404 29.8873 5.57864 29.7183 5.40959 29.5493C5.24054 29.324 5.12784 29.0986 5.12784 28.7042C5.07149 28.3662 5.07149 27.8592 5.07149 27.2958V10.1127C5.07149 9.54931 5.07149 9.09861 5.12784 8.76058C5.18419 8.42255 5.29689 8.14086 5.40959 7.91551C5.57864 7.69016 5.80404 7.57748 6.08579 7.52114C6.36754 7.4648 6.76198 7.40846 7.21278 7.40846C7.66358 7.40846 8.00168 7.4648 8.28343 7.52114C8.56518 7.57748 8.79058 7.74649 8.95963 7.91551C9.12868 8.08452 9.24138 8.36621 9.24138 8.70424C9.29773 9.04227 9.29773 9.54931 9.29773 10.1127V13.0986H14.2002V10.1127C14.2002 8.53523 14.0875 7.29579 13.9184 6.33804C13.7494 5.43663 13.3549 4.70424 12.8478 4.1972C12.3406 3.69016 11.6081 3.35213 10.7065 3.23945C9.80488 3.07044 8.62153 3.0141 7.21278 3.0141Z" fill="white"/>
<path d="M22.7654 5.71833V28.1972V28.3662H22.9908H28.0059V31.6902H18.0883V5.71833H22.7654ZM22.9344 5.54932H17.8629V31.9719H28.1186V28.2535H22.9344V5.54932Z" fill="white"/>
<path d="M44.5727 5.71833V26.1127C44.5727 27.4648 44.46 28.5352 44.291 29.324C44.1219 30.1127 43.7275 30.6761 43.2767 31.1268C42.7696 31.5211 42.0934 31.8028 41.1918 31.9155C40.2902 32.0282 39.1068 32.1409 37.6981 32.1409C36.233 32.1409 35.0496 32.0845 34.148 31.9155C33.2464 31.8028 32.5702 31.5211 32.0631 31.1268C31.5559 30.7324 31.2178 30.1127 31.0488 29.324C30.8234 28.5352 30.767 27.4648 30.767 26.1127V5.71833H35.4441V26.1127C35.4441 26.6761 35.5004 27.0704 35.5568 27.4085C35.6131 27.7465 35.7258 28.0282 35.9512 28.1972C36.1203 28.3662 36.402 28.5352 36.6838 28.5916C36.9655 28.6479 37.36 28.7042 37.8671 28.7042C38.3179 28.7042 38.7124 28.6479 38.9941 28.5916C39.3322 28.5352 39.5576 28.3662 39.7267 28.1972C39.8957 28.0282 40.0084 27.7465 40.0648 27.4085C40.1211 27.0704 40.1775 26.6761 40.1775 26.1127V5.71833H44.5727ZM44.7981 5.54932H39.8394V26.1127C39.8394 26.6197 39.783 27.0704 39.7267 27.3521C39.6703 27.6902 39.5576 27.9155 39.4449 28.0845C39.2759 28.2535 39.1068 28.3662 38.8251 28.4226C38.5433 28.4789 38.2052 28.5352 37.7544 28.5352C37.3036 28.5352 36.9092 28.4789 36.6274 28.4226C36.3457 28.3662 36.1203 28.2535 35.9512 28.0845C35.7822 27.9155 35.6695 27.6902 35.6131 27.3521C35.5568 27.0704 35.5004 26.6197 35.5004 26.1127V5.54932H30.4289V26.1127C30.4289 27.4648 30.5416 28.5916 30.7107 29.3803C30.9361 30.2254 31.2742 30.8451 31.8377 31.2395C32.3448 31.6902 33.0774 31.9718 34.0353 32.0845C34.9369 32.1972 36.1766 32.3099 37.6417 32.3099C39.1068 32.3099 40.2902 32.2535 41.1918 32.0845C42.0934 31.9718 42.8259 31.6902 43.3894 31.2395C43.8965 30.7887 44.291 30.169 44.5164 29.3803C44.7418 28.5352 44.7981 27.4648 44.7981 26.1127V5.54932Z" fill="white"/>
<path d="M55.2792 5.662C56.7443 5.662 57.984 5.71833 58.8856 5.83101C59.7872 5.94369 60.5197 6.16904 61.0269 6.5634C61.534 6.90143 61.8721 7.40847 62.0412 8.08453C62.2102 8.76059 62.3229 9.71833 62.3229 10.8451V13.2113C62.3229 13.8873 62.2102 14.4507 61.9848 14.8451C61.7594 15.2958 61.534 15.6338 61.2523 15.8592C60.9705 16.0845 60.6324 16.3099 60.2943 16.4226C59.9562 16.5352 59.6181 16.6479 59.3364 16.6479H59.1673V16.8169V16.9296V17.0986L59.3364 17.155C59.7872 17.2676 60.1816 17.3803 60.5761 17.493C60.9142 17.662 61.2523 17.8874 61.4777 18.169C61.7594 18.4507 61.9285 18.8451 62.0975 19.3521C62.2666 19.8592 62.3229 20.4789 62.3229 21.2676V26.5071C62.3229 27.6902 62.2102 28.5916 62.0412 29.324C61.8721 30 61.534 30.5071 61.0269 30.8451C60.5197 31.1831 59.7872 31.4648 58.8856 31.5775C57.984 31.6902 56.7443 31.7465 55.2792 31.7465H48.2355V5.662H55.2792ZM52.9125 15.6338H53.1379H55.4483C56.3499 15.6338 56.9134 15.5212 57.1951 15.1831C57.4769 14.9014 57.6459 14.3944 57.6459 13.7183V10.9014C57.6459 10.5071 57.6459 10.169 57.5895 9.88735C57.5332 9.60566 57.4205 9.32397 57.2515 9.15495C57.0824 8.98594 56.8007 8.81693 56.4626 8.76059C56.1245 8.64791 55.73 8.64791 55.2792 8.64791H53.1379H52.9125V8.81692V15.4648V15.6338ZM52.9125 28.8169H53.1379H55.2792C55.7864 28.8169 56.1245 28.7606 56.4626 28.7043C56.8007 28.6479 57.0261 28.5352 57.1951 28.3662C57.3642 28.1972 57.4769 27.9719 57.5332 27.6338C57.5896 27.3521 57.6459 26.9578 57.6459 26.5071V20.4226C57.6459 19.6338 57.5332 19.1268 57.2515 18.7888C56.9697 18.4507 56.3499 18.2817 55.4483 18.2817H53.1379H52.9125V18.4507V28.5916V28.8169ZM55.2792 5.49298H48.0101V31.9719H55.2229C56.7443 31.9719 57.9277 31.9155 58.8856 31.8028C59.8435 31.6902 60.5761 31.4085 61.1396 31.0704C61.7031 30.6761 62.0412 30.169 62.2666 29.4366C62.4356 28.7043 62.5483 27.7465 62.5483 26.5634V21.324C62.5483 20.5352 62.492 19.8592 62.3229 19.3521C62.1539 18.8451 61.9848 18.3944 61.7031 18.1127C61.4213 17.7747 61.0832 17.5493 60.6888 17.3803C60.2943 17.2113 59.8999 17.0986 59.3927 16.9859V16.8733C59.6745 16.8733 60.0126 16.7606 60.407 16.6479C60.8015 16.5352 61.1396 16.3099 61.4213 16.0282C61.7031 15.7465 61.9848 15.4085 62.2102 14.9578C62.4356 14.5071 62.5483 13.9437 62.5483 13.2676V10.9014C62.5483 9.71833 62.4356 8.76059 62.2666 8.08453C62.0975 7.40847 61.7031 6.84509 61.1396 6.45073C60.5761 6.05636 59.8435 5.83101 58.8856 5.71833C57.984 5.54932 56.7443 5.49298 55.2792 5.49298ZM53.0816 15.4648V8.81692H55.2229C55.6737 8.81692 56.0681 8.81693 56.3499 8.87326C56.6316 8.9296 56.857 9.04228 57.0261 9.21129C57.1951 9.38031 57.2514 9.60566 57.3078 9.83101C57.3642 10.1127 57.3642 10.4507 57.3642 10.8451V13.7183C57.3642 14.3944 57.2515 14.7888 56.9697 15.0704C56.688 15.2958 56.1808 15.4648 55.3356 15.4648H53.0816ZM53.0816 28.6479V18.5071H55.3919C56.2935 18.5071 56.857 18.6197 57.0824 18.9014C57.3078 19.1831 57.4205 19.6902 57.4205 20.4226V26.5071C57.4205 26.9578 57.3642 27.2958 57.3078 27.5775C57.2514 27.8592 57.1388 28.0845 57.0261 28.1972C56.857 28.3662 56.688 28.4226 56.4062 28.4789C56.1245 28.5352 55.73 28.5352 55.2792 28.5352H53.0816V28.6479Z" fill="white"/>
<defs>
<linearGradient id="paint0_linear" x1="89.7708" y1="1.16308" x2="89.7708" y2="40.2835" gradientUnits="userSpaceOnUse">
<stop stop-color="#FECF82"/>
<stop offset="0.219" stop-color="#FECF82"/>
<stop offset="0.2551" stop-color="#FECF82"/>
<stop offset="0.3665" stop-color="#FCCD80"/>
<stop offset="0.4066" stop-color="#F5C87B"/>
<stop offset="0.4352" stop-color="#EABE71"/>
<stop offset="0.4583" stop-color="#D9B063"/>
<stop offset="0.4779" stop-color="#C39F52"/>
<stop offset="0.4901" stop-color="#B19043"/>
<stop offset="1" stop-color="#FECF82"/>
</linearGradient>
<linearGradient id="paint1_linear" x1="89.7708" y1="2.76544" x2="89.7708" y2="38.2922" gradientUnits="userSpaceOnUse">
<stop stop-color="#D6B26D"/>
<stop offset="0.1732" stop-color="#E1C18B"/>
<stop offset="0.4041" stop-color="#EED3AD"/>
<stop offset="0.6241" stop-color="#F7DFC5"/>
<stop offset="0.8266" stop-color="#FCE6D4"/>
<stop offset="0.9949" stop-color="#FEE9D9"/>
</linearGradient>
<radialGradient id="paint2_radial" cx="0" cy="0" r="1" gradientUnits="userSpaceOnUse" gradientTransform="translate(90.5485 4.61104) scale(63.0363 31.272)">
<stop stop-color="#F95346"/>
<stop offset="0.195" stop-color="#DC3631"/>
<stop offset="0.3833" stop-color="#C62021"/>
<stop offset="0.5051" stop-color="#BE181B"/>
<stop offset="1" stop-color="#C7120C"/>
</radialGradient>
<radialGradient id="paint3_radial" cx="0" cy="0" r="1" gradientUnits="userSpaceOnUse" gradientTransform="translate(89.4454 9.71326) scale(33.2634 33.2564)">
<stop stop-color="white"/>
<stop offset="0.1767" stop-color="#FAFAFB"/>
<stop offset="0.3752" stop-color="#EDEDEE"/>
<stop offset="0.5843" stop-color="#D6D7D8"/>
<stop offset="0.7992" stop-color="#B7B8BA"/>
<stop offset="1" stop-color="#939598"/>
</radialGradient>
<linearGradient id="paint4_linear" x1="121.187" y1="0.449202" x2="121.187" y2="39.9814" gradientUnits="userSpaceOnUse">
<stop stop-color="white"/>
<stop offset="0.1415" stop-color="#FAFAFB"/>
<stop offset="0.315" stop-color="#EBEDF0"/>
<stop offset="0.5052" stop-color="#D2D6DE"/>
<stop offset="0.7061" stop-color="#AFB7C5"/>
<stop offset="0.7345" stop-color="#AAB2C1"/>
<stop offset="0.7905" stop-color="#C3C8D3"/>
<stop offset="0.8779" stop-color="#E4E6EB"/>
<stop offset="0.9509" stop-color="#F8F8FA"/>
<stop offset="1" stop-color="white"/>
</linearGradient>
<linearGradient id="paint5_linear" x1="121.187" y1="35.3716" x2="121.187" y2="1.0985" gradientUnits="userSpaceOnUse">
<stop stop-color="white"/>
<stop offset="0.1415" stop-color="#FAFAFB"/>
<stop offset="0.315" stop-color="#EBEDF0"/>
<stop offset="0.5052" stop-color="#D2D6DE"/>
<stop offset="0.7061" stop-color="#AFB7C5"/>
<stop offset="0.7345" stop-color="#AAB2C1"/>
<stop offset="0.7905" stop-color="#C3C8D3"/>
<stop offset="0.8779" stop-color="#E4E6EB"/>
<stop offset="0.9509" stop-color="#F8F8FA"/>
<stop offset="1" stop-color="white"/>
</linearGradient>
<linearGradient id="paint6_linear" x1="141.852" y1="0.449202" x2="141.852" y2="39.9814" gradientUnits="userSpaceOnUse">
<stop stop-color="white"/>
<stop offset="0.1415" stop-color="#FAFAFB"/>
<stop offset="0.315" stop-color="#EBEDF0"/>
<stop offset="0.5052" stop-color="#D2D6DE"/>
<stop offset="0.7061" stop-color="#AFB7C5"/>
<stop offset="0.7345" stop-color="#AAB2C1"/>
<stop offset="0.7905" stop-color="#C3C8D3"/>
<stop offset="0.8779" stop-color="#E4E6EB"/>
<stop offset="0.9509" stop-color="#F8F8FA"/>
<stop offset="1" stop-color="white"/>
</linearGradient>
<linearGradient id="paint7_linear" x1="141.852" y1="35.3716" x2="141.852" y2="1.0985" gradientUnits="userSpaceOnUse">
<stop stop-color="white"/>
<stop offset="0.1415" stop-color="#FAFAFB"/>
<stop offset="0.315" stop-color="#EBEDF0"/>
<stop offset="0.5052" stop-color="#D2D6DE"/>
<stop offset="0.7061" stop-color="#AFB7C5"/>
<stop offset="0.7345" stop-color="#AAB2C1"/>
<stop offset="0.7905" stop-color="#C3C8D3"/>
<stop offset="0.8779" stop-color="#E4E6EB"/>
<stop offset="0.9509" stop-color="#F8F8FA"/>
<stop offset="1" stop-color="white"/>
</linearGradient>
<linearGradient id="paint8_linear" x1="7.1193" y1="2.99821" x2="7.1193" y2="34.4379" gradientUnits="userSpaceOnUse">
<stop stop-color="white"/>
<stop offset="0.1415" stop-color="#FAFAFB"/>
<stop offset="0.315" stop-color="#EBEDF0"/>
<stop offset="0.5052" stop-color="#D2D6DE"/>
<stop offset="0.7061" stop-color="#AFB7C5"/>
<stop offset="0.7345" stop-color="#AAB2C1"/>
<stop offset="0.7905" stop-color="#C3C8D3"/>
<stop offset="0.8779" stop-color="#E4E6EB"/>
<stop offset="0.9509" stop-color="#F8F8FA"/>
<stop offset="1" stop-color="white"/>
</linearGradient>
<linearGradient id="paint9_linear" x1="23.0027" y1="5.55923" x2="23.0027" y2="31.9619" gradientUnits="userSpaceOnUse">
<stop stop-color="white"/>
<stop offset="0.1415" stop-color="#FAFAFB"/>
<stop offset="0.315" stop-color="#EBEDF0"/>
<stop offset="0.5052" stop-color="#D2D6DE"/>
<stop offset="0.7061" stop-color="#AFB7C5"/>
<stop offset="0.7345" stop-color="#AAB2C1"/>
<stop offset="0.7905" stop-color="#C3C8D3"/>
<stop offset="0.8779" stop-color="#E4E6EB"/>
<stop offset="0.9509" stop-color="#F8F8FA"/>
<stop offset="1" stop-color="white"/>
</linearGradient>
<linearGradient id="paint10_linear" x1="37.6264" y1="5.55923" x2="37.6264" y2="32.3342" gradientUnits="userSpaceOnUse">
<stop stop-color="white"/>
<stop offset="0.1415" stop-color="#FAFAFB"/>
<stop offset="0.315" stop-color="#EBEDF0"/>
<stop offset="0.5052" stop-color="#D2D6DE"/>
<stop offset="0.7061" stop-color="#AFB7C5"/>
<stop offset="0.7345" stop-color="#AAB2C1"/>
<stop offset="0.7905" stop-color="#C3C8D3"/>
<stop offset="0.8779" stop-color="#E4E6EB"/>
<stop offset="0.9509" stop-color="#F8F8FA"/>
<stop offset="1" stop-color="white"/>
</linearGradient>
<linearGradient id="paint11_linear" x1="55.2762" y1="5.47613" x2="55.2762" y2="31.9619" gradientUnits="userSpaceOnUse">
<stop stop-color="white"/>
<stop offset="0.1415" stop-color="#FAFAFB"/>
<stop offset="0.315" stop-color="#EBEDF0"/>
<stop offset="0.5052" stop-color="#D2D6DE"/>
<stop offset="0.7061" stop-color="#AFB7C5"/>
<stop offset="0.7345" stop-color="#AAB2C1"/>
<stop offset="0.7905" stop-color="#C3C8D3"/>
<stop offset="0.8779" stop-color="#E4E6EB"/>
<stop offset="0.9509" stop-color="#F8F8FA"/>
<stop offset="1" stop-color="white"/>
</linearGradient>
</defs>
</svg>
