<?xml version="1.0" encoding="utf-8"?>
<!-- Generator: Adobe Illustrator 24.3.0, SVG Export Plug-In . SVG Version: 6.00 Build 0)  -->
<!DOCTYPE svg PUBLIC "-//W3C//DTD SVG 1.1//EN" "http://www.w3.org/Graphics/SVG/1.1/DTD/svg11.dtd" [
	<!ENTITY ns_extend "http://ns.adobe.com/Extensibility/1.0/">
	<!ENTITY ns_ai "http://ns.adobe.com/AdobeIllustrator/10.0/">
	<!ENTITY ns_graphs "http://ns.adobe.com/Graphs/1.0/">
	<!ENTITY ns_vars "http://ns.adobe.com/Variables/1.0/">
	<!ENTITY ns_imrep "http://ns.adobe.com/ImageReplacement/1.0/">
	<!ENTITY ns_sfw "http://ns.adobe.com/SaveForWeb/1.0/">
	<!ENTITY ns_custom "http://ns.adobe.com/GenericCustomNamespace/1.0/">
	<!ENTITY ns_adobe_xpath "http://ns.adobe.com/XPath/1.0/">
]>
<svg version="1.1" id="Layer_1" xmlns:x="&ns_extend;" xmlns:i="&ns_ai;" xmlns:graph="&ns_graphs;"
	 xmlns="http://www.w3.org/2000/svg" xmlns:xlink="http://www.w3.org/1999/xlink" x="0px" y="0px" viewBox="0 0 295.9 31.5"
	 style="enable-background:new 0 0 295.9 31.5;" xml:space="preserve">
<style type="text/css">
	.st0{fill:#FFFFFF;}
	.st1{fill:#D4B372;}
	.st2{fill:url(#SVGID_1_);}
	.st3{fill-rule:evenodd;clip-rule:evenodd;fill:#FFFFFF;}
	.st4{fill:url(#SVGID_2_);stroke:#FFFFFF;stroke-width:0.2463;stroke-miterlimit:10;}
	.st5{fill:url(#SVGID_3_);stroke:#FFFFFF;stroke-width:0.2463;stroke-miterlimit:10;}
	.st6{fill:url(#SVGID_4_);stroke:#FFFFFF;stroke-width:0.2463;stroke-miterlimit:10;}
	.st7{fill:url(#SVGID_5_);stroke:#FFFFFF;stroke-width:0.2463;stroke-miterlimit:10;}
	.st8{fill:url(#SVGID_6_);stroke:#FFFFFF;stroke-width:0.2463;stroke-miterlimit:10;}
	.st9{fill:url(#SVGID_7_);stroke:#FFFFFF;stroke-width:0.2463;stroke-miterlimit:10;}
</style>
<metadata>
	<sfw  xmlns="&ns_sfw;">
		<slices></slices>
		<sliceSourceBounds  bottomLeftOrigin="true" height="31.1" width="293.2" x="1" y="87.9"></sliceSourceBounds>
	</sfw>
</metadata>
<path class="st0" d="M1,20h3.8c0,0.8,0.3,1.3,0.8,1.8c0.5,0.4,1.2,0.7,1.9,0.7c0.4,0,0.9-0.1,1.2-0.3c0.4-0.2,0.7-0.5,1-0.9
	c0.2-0.4,0.3-0.8,0.3-1.2c0-1-0.3-1.7-0.9-2.1c-0.6-0.5-1.4-0.9-2.5-1.2c-0.9-0.3-1.5-0.6-2-0.8c-0.5-0.2-1-0.6-1.3-1
	c-0.5-0.5-0.9-1.1-1.2-1.7c-0.3-0.7-0.4-1.3-0.4-2c0-1,0.2-2,0.8-2.8c0.5-0.9,1.2-1.5,2.1-2c0.9-0.5,1.9-0.7,2.9-0.7
	C8.2,5.6,9,5.7,9.6,6c0.7,0.3,1.3,0.7,1.8,1.2c0.5,0.5,1,1.1,1.3,1.8c0.3,0.7,0.5,1.4,0.5,2.2H9.5c0-0.6-0.2-1.1-0.7-1.5
	c-0.4-0.4-1-0.6-1.5-0.6S6.2,9.3,5.9,9.7c-0.3,0.4-0.5,0.9-0.5,1.5c0,0.7,0.2,1.2,0.7,1.5c0.4,0.3,1.1,0.6,1.8,0.9
	c1,0.3,1.7,0.6,2.3,0.8c0.6,0.2,1.1,0.6,1.6,1c1.4,1.1,2.1,2.6,2.1,4.5c0,0.9-0.1,1.7-0.5,2.4c-0.3,0.8-0.8,1.4-1.4,2
	c-0.6,0.6-1.3,1-2.1,1.3C9,26,8.2,26.1,7.3,26.1c-1.1,0-2.2-0.3-3.1-0.8c-1-0.5-1.8-1.2-2.3-2.2C1.3,22.1,1,21.1,1,20z"/>
<path class="st0" d="M18.3,25.5V9.4h-3.6V5.9h10.9v3.5h-3.7v16.1L18.3,25.5L18.3,25.5z"/>
<path class="st0" d="M27.4,5.9h3.6v12.2c0,0.6,0,1.1,0,1.5c0,0.4,0.1,0.8,0.3,1.2c0.2,0.5,0.6,0.9,1.1,1.2c0.5,0.3,1,0.4,1.5,0.4
	c0.5,0,1-0.1,1.4-0.4c0.5-0.2,0.8-0.6,1.1-1c0.2-0.4,0.4-0.8,0.4-1.2c0-0.4,0.1-1,0.1-1.7V5.9h3.6v12.2c0,1.2-0.1,2.2-0.3,3
	c-0.2,0.8-0.6,1.6-1.2,2.3c-0.4,0.5-1,1-1.5,1.3c-0.6,0.4-1.2,0.7-1.8,0.9c-0.6,0.2-1.3,0.3-1.9,0.3c-0.9,0-1.8-0.2-2.7-0.7
	c-0.9-0.4-1.7-1-2.3-1.7c-0.4-0.5-0.8-1.1-1-1.6c-0.2-0.6-0.4-1.2-0.5-1.8c-0.1-0.6-0.1-1.3-0.1-2.1L27.4,5.9L27.4,5.9z"/>
<path class="st0" d="M44.4,25.5V5.9h4.1c0.8,0,1.6,0,2.3,0.1c0.8,0,1.5,0.2,2.1,0.3c0.7,0.1,1.3,0.4,2,0.7c0.7,0.3,1.2,0.7,1.8,1.2
	c1.1,0.9,1.9,2,2.5,3.4c0.6,1.4,0.9,2.8,0.9,4.2c0,0.7-0.1,1.4-0.2,2.1c-0.1,0.7-0.4,1.4-0.7,2c-0.3,0.7-0.6,1.2-1.1,1.8
	c-0.4,0.6-0.9,1.1-1.4,1.5c-1.1,0.9-2.3,1.5-3.5,1.8c-1.3,0.3-2.8,0.4-4.6,0.4L44.4,25.5L44.4,25.5z M48,22h0.4c0.8,0,1.5,0,2.1-0.1
	c0.6,0,1.2-0.2,1.8-0.4c0.6-0.2,1.2-0.5,1.7-0.9c0.8-0.6,1.3-1.3,1.7-2.1c0.4-0.9,0.6-1.8,0.6-2.7c0-0.7-0.1-1.3-0.3-2
	c-0.2-0.7-0.5-1.2-0.9-1.8c-0.4-0.5-0.9-1-1.4-1.4c-0.8-0.5-1.5-0.8-2.4-1c-0.9-0.1-1.9-0.2-3.2-0.2H48L48,22L48,22z"/>
<path class="st0" d="M63,25.5V5.9h3.6v19.6H63z"/>
<path class="st0" d="M79.7,5.5c1.8,0,3.5,0.5,5.1,1.4c1.6,0.9,2.8,2.2,3.7,3.7c0.9,1.6,1.4,3.3,1.4,5.2c0,1.9-0.5,3.5-1.4,5.1
	c-0.9,1.6-2.2,2.8-3.7,3.7c-1.6,0.9-3.3,1.3-5.1,1.3c-1.3,0-2.6-0.2-3.9-0.8c-1.2-0.5-2.3-1.2-3.3-2.2c-1-1-1.7-2.1-2.2-3.3
	c-0.5-1.2-0.8-2.5-0.8-3.9c0-1.9,0.5-3.5,1.4-5.2C71.8,9,73,7.8,74.6,6.9C76.1,6,77.8,5.5,79.7,5.5z M79.6,9.1
	c-1.2,0-2.3,0.3-3.3,0.9c-1,0.6-1.8,1.4-2.4,2.4c-0.6,1-0.9,2.2-0.9,3.4c0,0.9,0.2,1.7,0.5,2.5c0.3,0.8,0.8,1.5,1.4,2.2
	c0.6,0.6,1.3,1.1,2.1,1.5c0.8,0.3,1.6,0.5,2.5,0.5c1.2,0,2.3-0.3,3.3-0.9c1-0.6,1.8-1.4,2.4-2.5c0.6-1.1,0.9-2.2,0.9-3.4
	s-0.3-2.3-0.9-3.4c-0.6-1-1.4-1.8-2.4-2.4C82,9.4,80.9,9.1,79.6,9.1z"/>
<path class="st0" d="M127.8,15.6c2.4-0.4,3-1.6,3-3.8V9.5c0-2.4-1.9-3.6-5.8-3.6c-3.8,0-5.8,1.2-5.8,3.6v2.7c0,1.9,0.4,2.9,2.6,3.2
	c-2.2,0.5-2.6,1.9-2.6,3.9v3c0,2.4,1.9,3.6,5.8,3.6c3.8,0,5.8-1.2,5.8-3.6v-2.9C130.8,17.1,130.2,15.9,127.8,15.6z M125,14.3
	c-0.9,0-1.3-0.4-1.3-1.2V9.3c0-0.8,0.4-1.1,1.3-1.1s1.3,0.4,1.3,1.1v3.8C126.3,13.9,125.8,14.3,125,14.3z M125,23.6
	c-0.9,0-1.3-0.4-1.3-1.2v-4.3c0-0.8,0.4-1.2,1.3-1.2s1.3,0.4,1.3,1.2v4.3C126.3,23.2,125.8,23.6,125,23.6z"/>
<path class="st0" d="M141,15.6c2.4-0.4,3-1.6,3-3.8V9.5c0-2.4-1.9-3.6-5.8-3.6c-3.8,0-5.8,1.2-5.8,3.6v2.7c0,1.9,0.4,2.9,2.6,3.2
	c-2.2,0.5-2.6,1.9-2.6,3.9v3c0,2.4,1.9,3.6,5.8,3.6c3.8,0,5.8-1.2,5.8-3.6v-2.9C144,17.1,143.5,15.9,141,15.6z M138.2,14.3
	c-0.9,0-1.3-0.4-1.3-1.2V9.3c0-0.8,0.4-1.1,1.3-1.1c0.9,0,1.3,0.4,1.3,1.1v3.8C139.5,13.9,139.1,14.3,138.2,14.3z M138.2,23.6
	c-0.9,0-1.3-0.4-1.3-1.2v-4.3c0-0.8,0.4-1.2,1.3-1.2c0.9,0,1.3,0.4,1.3,1.2v4.3C139.5,23.2,139.1,23.6,138.2,23.6z"/>
<path class="st1" d="M95,6.2c0-0.1,0.1-0.3,0.3-0.3h22c0.1,0,0.3,0.1,0.3,0.3v19.6c0,0.1-0.1,0.3-0.3,0.3h-22
	c-0.1,0-0.3-0.1-0.3-0.3V6.2z"/>
<radialGradient id="SVGID_1_" cx="-536.1849" cy="551.1234" r="0.3214" gradientTransform="matrix(112.592 0 0 -98.9251 60476.8242 54527.9141)" gradientUnits="userSpaceOnUse">
	<stop  offset="0" style="stop-color:#BF2026"/>
	<stop  offset="0.5051" style="stop-color:#BE2126"/>
	<stop  offset="1" style="stop-color:#C62127"/>
</radialGradient>
<path class="st2" d="M96.1,7.3c0-0.1,0.1-0.3,0.3-0.3h19.8c0.1,0,0.3,0.1,0.3,0.3v17.3c0,0.1-0.1,0.3-0.3,0.3H96.3
	c-0.1,0-0.3-0.1-0.3-0.3V7.3z"/>
<path class="st3" d="M103.7,15.9v6.4c0,0.1,0,0.2-0.1,0.2c-0.1,0-0.2-0.1-0.2-0.2v-0.8h-0.3c-0.2,0-1,0.5-1.4,0.9
	c-0.1,0.1-0.3,0.2-0.3,0.3c-0.5-0.3-1.1-0.6-1.6-0.7c-0.1,0.1-0.2,0.1-0.2,0.2c-0.1,0.1-0.3,0.2-0.4,0.3c0,0,0,0-0.1,0.1
	c-0.1,0.1-0.1,0.1-0.1,0.1c-0.1,0-0.2-0.1-0.2-0.2c0-0.1,0.2-0.3,1.1-1.2c0.6-0.6,0.9-1.4,0.9-2.5c0-1.9-0.8-3.5-1.8-3.5
	c-0.3,0-0.5,0.1-0.5,0.5c0,0.1-0.1,0.2-0.1,0.2c-0.1,0-0.2-0.2-0.2-0.6c0-0.9,0.6-1.6,1.4-1.6c0.4,0,0.6,0.1,0.8,0.3
	c0.2,0.1,0.3,0.2,0.5,0.2v-1.5c0-0.3-0.1-0.6-0.4-0.8c-0.2-0.2-1.3-0.9-1.7-0.9c-0.1,0-0.1,0-0.2,0c0,0-0.1,0-0.1,0c0,0-0.1,0-0.1,0
	c0,0,0-0.1,0.1-0.2c0,0,0,0,0,0l1.4-1.4c0,0,0,0,0,0c0,0,0.1,0,0.1,0c0.3,0,1.1,0.5,1.7,1c0.5,0.3,0.8,0.5,0.9,0.5
	c0.2,0,0.7-0.3,1.2-0.6c0.6-0.4,1.3-0.8,1.6-0.8c0.1,0,0.3,0.1,1.1,0.8c0,0,0.1,0.1,0.2,0.1c0,0,0.1,0.1,0.1,0.1
	c0.2,0.1,0.5,0.4,0.7,0.5c0.3,0.2,0.3,0.2,0.3,0.5c0.2,0,0.4-0.2,1.5-1.1c0.3-0.3,1.2-1,1.3-1s0.9,0.3,2,0.8
	c0.3,0.1,0.4,0.2,0.4,0.4v9c0,0.3,0,0.4,0.1,0.5c0.5,0.5,0.8,0.6,1,0.6c0,0,0.1,0,0.2-0.1c0.1-0.1,0.1-0.1,0.1-0.1s0.1,0.1,0.1,0.1
	c0,0.1-0.8,1.1-1.6,1.7c-0.5-0.2-1.3-0.7-1.8-1.2c-0.1-0.2-0.2-0.2-0.2-0.5v-6.4c0-0.7,0.2-1.3,1.1-2.4c0.5-0.6,0.5-0.8,0.4-0.8
	c0,0-0.5,0.3-0.8,0.5c-0.2,0.2-0.5,0.3-0.5,0.4c0,0-0.1,0-0.1,0c-0.9-0.5-1.1-0.6-1.6-0.6c-0.3,0-0.5,0.1-0.5,0.3v10.7
	c0,0.1-0.1,0.2-0.2,0.2c-0.1,0-0.1-0.1-0.1-0.2v-0.8c-0.5,0.1-0.9,0.5-1.2,0.7c-0.1,0.1-0.3,0.2-0.3,0.2c-0.2,0-1.3-1.4-1.3-1.5
	v-5.1H103.7z M103.4,11.4c0-0.4,0-0.5-0.1-0.5c-0.1,0-0.7,0.4-0.7,0.5v4.8c0,2.3-0.3,2.6-0.9,3.2l0,0c-0.3,0.3-0.4,0.4-0.5,0.6
	c0.4,0.5,1.6,0.7,2.3,0.7V11.4z M105.7,14.2h-2.1v-2.9c0-0.2,0.1-0.4,0.3-0.4c0.5,0,1.7,1,1.7,1.4V14.2z M108.6,11.8
	C108.6,11.7,108.6,11.7,108.6,11.8c-0.1,0-0.2,0-0.3,0l-0.4,0.2c-0.2,0.1-0.3,0.2-0.3,0.3v1.7c0,0.1,0.1,0.2,0.3,0.2h0.7L108.6,11.8
	L108.6,11.8z M107.9,15.9h0.7v5.1c-0.6,0-1-0.4-1-1.1v-3.6C107.7,16,107.8,15.9,107.9,15.9z"/>
<linearGradient id="SVGID_2_" gradientUnits="userSpaceOnUse" x1="159.7625" y1="29.7889" x2="159.7625" y2="-1.6879" gradientTransform="matrix(1 0 0 -1 0 32.52)">
	<stop  offset="0" style="stop-color:#FFFFFF"/>
	<stop  offset="0.1425" style="stop-color:#FAFAFB"/>
	<stop  offset="0.3172" style="stop-color:#EBECEF"/>
	<stop  offset="0.5088" style="stop-color:#D3D7DF"/>
	<stop  offset="0.7111" style="stop-color:#B0B8C6"/>
	<stop  offset="0.7345" style="stop-color:#ACB4C3"/>
	<stop  offset="0.7916" style="stop-color:#C1C6D1"/>
	<stop  offset="0.8785" style="stop-color:#E0E1E8"/>
	<stop  offset="0.9511" style="stop-color:#F4F4F6"/>
	<stop  offset="1" style="stop-color:#FFFFFF"/>
</linearGradient>
<path class="st4" d="M151.8,30.5V1h16v5.3h-10.5v6.8h10v5.3h-10v6.8h10.5v5.3H151.8L151.8,30.5z"/>
<linearGradient id="SVGID_3_" gradientUnits="userSpaceOnUse" x1="182.7247" y1="29.7889" x2="182.7247" y2="-1.6879" gradientTransform="matrix(1 0 0 -1 0 32.52)">
	<stop  offset="0" style="stop-color:#FFFFFF"/>
	<stop  offset="0.1425" style="stop-color:#FAFAFB"/>
	<stop  offset="0.3172" style="stop-color:#EBECEF"/>
	<stop  offset="0.5088" style="stop-color:#D3D7DF"/>
	<stop  offset="0.7111" style="stop-color:#B0B8C6"/>
	<stop  offset="0.7345" style="stop-color:#ACB4C3"/>
	<stop  offset="0.7916" style="stop-color:#C1C6D1"/>
	<stop  offset="0.8785" style="stop-color:#E0E1E8"/>
	<stop  offset="0.9511" style="stop-color:#F4F4F6"/>
	<stop  offset="1" style="stop-color:#FFFFFF"/>
</linearGradient>
<path class="st5" d="M172.7,1h5.5v18.4c0,0.9,0,1.6,0.1,2.2c0.1,0.6,0.2,1.2,0.5,1.8c0.4,0.8,0.9,1.4,1.6,1.8
	c0.7,0.5,1.4,0.7,2.3,0.7c0.7,0,1.5-0.2,2.1-0.6c0.7-0.4,1.2-0.9,1.6-1.5c0.4-0.6,0.6-1.2,0.7-1.9c0.1-0.7,0.1-1.5,0.1-2.5V1h5.5
	v18.4c0,1.7-0.1,3.2-0.4,4.5c-0.3,1.3-0.9,2.4-1.8,3.5c-0.7,0.8-1.4,1.5-2.3,2c-0.8,0.6-1.8,1-2.7,1.3c-1,0.3-1.9,0.5-2.9,0.5
	c-1.4,0-2.7-0.3-4.1-1c-1.4-0.7-2.5-1.5-3.5-2.6c-0.7-0.7-1.2-1.6-1.5-2.5c-0.4-0.9-0.6-1.8-0.7-2.6c-0.1-0.9-0.2-1.9-0.2-3.2
	L172.7,1L172.7,1z"/>
<linearGradient id="SVGID_4_" gradientUnits="userSpaceOnUse" x1="208.5355" y1="29.7889" x2="208.5355" y2="-1.6879" gradientTransform="matrix(1 0 0 -1 0 32.52)">
	<stop  offset="0" style="stop-color:#FFFFFF"/>
	<stop  offset="0.1425" style="stop-color:#FAFAFB"/>
	<stop  offset="0.3172" style="stop-color:#EBECEF"/>
	<stop  offset="0.5088" style="stop-color:#D3D7DF"/>
	<stop  offset="0.7111" style="stop-color:#B0B8C6"/>
	<stop  offset="0.7345" style="stop-color:#ACB4C3"/>
	<stop  offset="0.7916" style="stop-color:#C1C6D1"/>
	<stop  offset="0.8785" style="stop-color:#E0E1E8"/>
	<stop  offset="0.9511" style="stop-color:#F4F4F6"/>
	<stop  offset="1" style="stop-color:#FFFFFF"/>
</linearGradient>
<path class="st6" d="M198.5,30.5V1h8.6c1.8,0,3.3,0.2,4.4,0.4c1.2,0.3,2.3,0.8,3.3,1.6c0.7,0.6,1.3,1.3,1.8,2
	c0.5,0.8,0.9,1.6,1.2,2.5c0.3,0.9,0.4,1.8,0.4,2.7c0,1.1-0.2,2.2-0.7,3.4c-0.4,1.2-1.1,2.2-1.8,3c-1.3,1.4-3.1,2.4-5.3,2.9l8,10.9
	h-6.8l-7.7-11.3H204v11.3H198.5z M204,15h3c2.1,0,3.5-0.4,4.4-1.2c0.9-0.9,1.4-1.9,1.4-3.2c0-0.6-0.1-1.3-0.4-1.9s-0.7-1.1-1.2-1.4
	c-0.5-0.4-1.1-0.7-1.7-0.8c-0.6-0.1-1.4-0.2-2.4-0.2h-3L204,15L204,15z"/>
<linearGradient id="SVGID_5_" gradientUnits="userSpaceOnUse" x1="235.7587" y1="29.7889" x2="235.7587" y2="-1.6879" gradientTransform="matrix(1 0 0 -1 0 32.52)">
	<stop  offset="0" style="stop-color:#FFFFFF"/>
	<stop  offset="0.1425" style="stop-color:#FAFAFB"/>
	<stop  offset="0.3172" style="stop-color:#EBECEF"/>
	<stop  offset="0.5088" style="stop-color:#D3D7DF"/>
	<stop  offset="0.7111" style="stop-color:#B0B8C6"/>
	<stop  offset="0.7345" style="stop-color:#ACB4C3"/>
	<stop  offset="0.7916" style="stop-color:#C1C6D1"/>
	<stop  offset="0.8785" style="stop-color:#E0E1E8"/>
	<stop  offset="0.9511" style="stop-color:#F4F4F6"/>
	<stop  offset="1" style="stop-color:#FFFFFF"/>
</linearGradient>
<path class="st7" d="M235.8,0.4c2.8,0,5.4,0.7,7.8,2.1c2.4,1.4,4.3,3.2,5.7,5.6c1.4,2.4,2.1,5,2.1,7.8c0,2.8-0.7,5.4-2.1,7.7
	c-1.4,2.4-3.3,4.2-5.6,5.6c-2.4,1.4-4.9,2-7.8,2c-2.1,0-4-0.4-5.9-1.2c-1.9-0.8-3.6-1.9-5-3.3c-1.4-1.4-2.6-3.1-3.4-5
	c-0.8-1.9-1.2-3.9-1.2-5.9c0-2.8,0.7-5.4,2.1-7.8c1.4-2.4,3.3-4.3,5.6-5.6C230.4,1.1,233,0.4,235.8,0.4z M235.8,5.7
	c-1.8,0-3.5,0.4-5,1.3c-1.5,0.9-2.7,2.1-3.6,3.7c-0.9,1.5-1.3,3.2-1.3,5c0,1.3,0.3,2.6,0.8,3.8c0.5,1.3,1.3,2.3,2.2,3.3
	c0.9,1,2,1.7,3.2,2.2c1.2,0.5,2.5,0.8,3.8,0.8c1.8,0,3.4-0.5,4.9-1.4c1.5-0.9,2.7-2.2,3.6-3.7c0.9-1.6,1.4-3.2,1.4-5
	c0-1.8-0.4-3.5-1.3-5c-0.9-1.5-2.1-2.8-3.6-3.7C239.3,6.2,237.6,5.7,235.8,5.7z"/>
<linearGradient id="SVGID_6_" gradientUnits="userSpaceOnUse" x1="265.095" y1="29.7889" x2="265.095" y2="-1.6879" gradientTransform="matrix(1 0 0 -1 0 32.52)">
	<stop  offset="0" style="stop-color:#FFFFFF"/>
	<stop  offset="0.1425" style="stop-color:#FAFAFB"/>
	<stop  offset="0.3172" style="stop-color:#EBECEF"/>
	<stop  offset="0.5088" style="stop-color:#D3D7DF"/>
	<stop  offset="0.7111" style="stop-color:#B0B8C6"/>
	<stop  offset="0.7345" style="stop-color:#ACB4C3"/>
	<stop  offset="0.7916" style="stop-color:#C1C6D1"/>
	<stop  offset="0.8785" style="stop-color:#E0E1E8"/>
	<stop  offset="0.9511" style="stop-color:#F4F4F6"/>
	<stop  offset="1" style="stop-color:#FFFFFF"/>
</linearGradient>
<path class="st8" d="M261.1,30.5h-5.5V1h7h1.1c1.1,0,2,0,2.7,0.1c0.7,0.1,1.4,0.2,2.2,0.4c0.7,0.2,1.5,0.6,2.1,1
	c1.2,0.8,2.2,1.9,2.9,3.2c0.7,1.3,1.1,2.7,1.1,4.2c0,1-0.1,1.9-0.4,2.8c-0.3,0.9-0.7,1.8-1.2,2.6c-0.6,0.8-1.2,1.5-1.9,2.1
	c-0.7,0.5-1.4,0.9-2.2,1.2c-0.8,0.3-1.7,0.4-2.5,0.5c-0.9,0.1-1.8,0.1-2.8,0.1h-1.3h-1.1L261.1,30.5L261.1,30.5z M261.1,14h1
	c2,0,3.4-0.1,4.3-0.3c0.8-0.3,1.5-0.8,2-1.4c0.5-0.6,0.7-1.4,0.7-2.3c0-0.9-0.3-1.6-0.8-2.3c-0.5-0.6-1.2-1-2.1-1.3
	c-0.8-0.2-2.2-0.2-4.1-0.2h-1V14z"/>
<linearGradient id="SVGID_7_" gradientUnits="userSpaceOnUse" x1="286.1428" y1="29.7889" x2="286.1428" y2="-1.6879" gradientTransform="matrix(1 0 0 -1 0 32.52)">
	<stop  offset="0" style="stop-color:#FFFFFF"/>
	<stop  offset="0.1425" style="stop-color:#FAFAFB"/>
	<stop  offset="0.3172" style="stop-color:#EBECEF"/>
	<stop  offset="0.5088" style="stop-color:#D3D7DF"/>
	<stop  offset="0.7111" style="stop-color:#B0B8C6"/>
	<stop  offset="0.7345" style="stop-color:#ACB4C3"/>
	<stop  offset="0.7916" style="stop-color:#C1C6D1"/>
	<stop  offset="0.8785" style="stop-color:#E0E1E8"/>
	<stop  offset="0.9511" style="stop-color:#F4F4F6"/>
	<stop  offset="1" style="stop-color:#FFFFFF"/>
</linearGradient>
<path class="st9" d="M278.2,30.5V1h16v5.3h-10.5v6.8h10v5.3h-10v6.8h10.5v5.3H278.2L278.2,30.5z"/>
<path class="st0" d="M235.6,6.6l0.3,0.8h0.9L236,8l0.3,0.8l-0.7-0.5l-0.7,0.5l0.3-0.8l-0.7-0.5h0.9L235.6,6.6z"/>
<path class="st0" d="M235.6,22.3l0.3,0.8h0.9l-0.7,0.5l0.3,0.8l-0.7-0.5l-0.7,0.5l0.3-0.8l-0.7-0.5h0.9L235.6,22.3z"/>
<path class="st0" d="M239.9,8l0.3,0.8h0.9l-0.7,0.5l0.3,0.8l-0.7-0.5l-0.7,0.5l0.3-0.8l-0.7-0.5h0.9L239.9,8z"/>
<path class="st0" d="M242.8,10.9l0.3,0.8h0.9l-0.7,0.5l0.3,0.8l-0.7-0.5l-0.7,0.5l0.3-0.8l-0.7-0.5h0.9L242.8,10.9z"/>
<path class="st0" d="M242.9,18.2l0.3,0.8h0.9l-0.7,0.5l0.3,0.8l-0.7-0.5l-0.7,0.5l0.3-0.8l-0.7-0.5h0.9L242.9,18.2z"/>
<path class="st0" d="M228.5,10.9l0.3,0.8h0.9l-0.7,0.5l0.3,0.8l-0.7-0.5l-0.7,0.5l0.3-0.8l-0.7-0.5h0.9L228.5,10.9z"/>
<path class="st0" d="M243.5,14.4l0.3,0.8h0.9l-0.7,0.5l0.3,0.8l-0.7-0.5l-0.7,0.5l0.3-0.8l-0.7-0.5h0.9L243.5,14.4z"/>
<path class="st0" d="M227.8,14.4l0.3,0.8h0.9l-0.7,0.5l0.3,0.8l-0.7-0.5l-0.7,0.5l0.3-0.8l-0.7-0.5h0.9L227.8,14.4z"/>
<path class="st0" d="M228.4,18.2l0.3,0.8h0.9l-0.7,0.5l0.3,0.8l-0.7-0.5l-0.7,0.5l0.3-0.8l-0.7-0.5h0.9L228.4,18.2z"/>
<path class="st0" d="M240,21.2l0.3,0.8h0.9l-0.7,0.5l0.3,0.8l-0.7-0.5l-0.7,0.5l0.3-0.8l-0.7-0.5h0.9L240,21.2z"/>
<path class="st0" d="M231.4,8l0.3,0.8h0.9l-0.7,0.5l0.3,0.8l-0.7-0.5l-0.7,0.5l0.3-0.8l-0.7-0.5h0.9L231.4,8z"/>
<path class="st0" d="M231.1,21.2l0.3,0.8h0.9l-0.7,0.5l0.3,0.8l-0.7-0.5l-0.7,0.5l0.3-0.8L230,22h0.9L231.1,21.2z"/>
</svg>
