<?xml version="1.0" encoding="utf-8"?>
<!-- Generator: Adobe Illustrator 25.2.0, SVG Export Plug-In . SVG Version: 6.00 Build 0)  -->
<svg version="1.1" id="Layer_1" xmlns="http://www.w3.org/2000/svg" xmlns:xlink="http://www.w3.org/1999/xlink" x="0px" y="0px"
	 viewBox="0 0 497.6 31.5" style="enable-background:new 0 0 497.6 31.5;" xml:space="preserve">
<style type="text/css">
	.st0{fill:#FFFFFF;}
	.st1{fill:#D4B372;}
	.st2{fill:url(#SVGID_1_);}
	.st3{fill-rule:evenodd;clip-rule:evenodd;fill:#FFFFFF;}
	.st4{fill:url(#SVGID_2_);}
	.st5{fill:url(#SVGID_3_);}
	.st6{fill:url(#SVGID_4_);}
	.st7{fill:url(#SVGID_5_);}
	.st8{fill:url(#SVGID_6_);}
	.st9{fill:url(#SVGID_7_);}
	.st10{fill:url(#SVGID_8_);}
	.st11{fill:url(#SVGID_9_);}
	.st12{fill:url(#SVGID_10_);}
	.st13{fill:url(#SVGID_11_);}
	.st14{fill:url(#SVGID_12_);}
	.st15{fill:url(#SVGID_13_);}
	.st16{fill:url(#SVGID_14_);}
</style>
<g>
	<path class="st0" d="M1.2,21.4h5.1c0,1,0.4,1.8,1,2.4c0.7,0.6,1.5,0.9,2.6,0.9c0.6,0,1.2-0.1,1.7-0.5c0.5-0.3,1-0.7,1.3-1.2
		c0.3-0.5,0.5-1.1,0.5-1.7c0-1.3-0.4-2.3-1.2-2.8c-0.8-0.6-1.9-1.2-3.4-1.6c-1.2-0.4-2.1-0.8-2.7-1.1c-0.6-0.3-1.3-0.8-1.8-1.4
		c-0.6-0.6-1.2-1.5-1.5-2.3c-0.4-0.9-0.6-1.8-0.6-2.7c0-1.4,0.3-2.6,1-3.8C3.8,4.5,4.8,3.6,6,3c1.2-0.6,2.5-1,3.9-1
		c1,0,2,0.2,2.9,0.6c0.9,0.4,1.7,0.9,2.5,1.6c0.7,0.7,1.3,1.5,1.7,2.5c0.4,0.9,0.6,1.9,0.6,2.9h-5c-0.1-0.8-0.3-1.5-0.9-2
		C11,7,10.3,6.8,9.6,6.8C8.8,6.8,8.1,7,7.7,7.6C7.2,8.1,7,8.8,7,9.6c0,0.9,0.3,1.5,0.9,2c0.6,0.5,1.4,0.8,2.4,1.2
		c1.3,0.4,2.3,0.8,3,1.1c0.8,0.3,1.5,0.8,2.1,1.4c1.9,1.5,2.8,3.5,2.8,6c0,1.2-0.2,2.3-0.6,3.3c-0.5,1-1.1,1.9-1.9,2.7
		C14.9,28,14,28.6,12.9,29c-1,0.5-2.1,0.6-3.3,0.6c-1.5,0-2.9-0.4-4.2-1.1c-1.3-0.7-2.4-1.7-3.2-2.9C1.6,24.3,1.2,22.9,1.2,21.4z"/>
	<path class="st0" d="M24.3,28.9V7.2h-4.8V2.5h14.7v4.8h-5v21.7L24.3,28.9L24.3,28.9z"/>
	<path class="st0" d="M36.7,2.5h4.9v16.4c0,0.8,0,1.5,0.1,2c0.1,0.5,0.2,1,0.5,1.5c0.3,0.7,0.8,1.2,1.4,1.6c0.6,0.4,1.3,0.6,2.1,0.6
		c0.6,0,1.3-0.2,1.9-0.5c0.6-0.3,1.1-0.8,1.4-1.4c0.3-0.5,0.5-1.1,0.6-1.7c0.1-0.6,0.1-1.4,0.1-2.3V2.5h4.9v16.4
		c0,1.5-0.1,2.9-0.4,4c-0.3,1.1-0.8,2.2-1.5,3.2c-0.6,0.7-1.3,1.3-2,1.8c-0.8,0.5-1.5,0.9-2.4,1.2c-0.8,0.3-1.7,0.5-2.6,0.5
		c-1.2,0-2.4-0.3-3.7-0.9c-1.2-0.6-2.3-1.4-3.1-2.3c-0.6-0.6-1-1.4-1.4-2.2c-0.3-0.8-0.5-1.6-0.6-2.4c-0.1-0.8-0.1-1.7-0.1-2.8
		L36.7,2.5L36.7,2.5z"/>
	<path class="st0" d="M59.5,28.9V2.5H65c1,0,2.1,0.1,3.1,0.1c1,0.1,2,0.3,2.8,0.5c0.9,0.2,1.8,0.5,2.6,0.9c0.9,0.4,1.7,0.9,2.5,1.5
		c1.4,1.2,2.5,2.7,3.4,4.6c0.8,1.9,1.2,3.7,1.2,5.7c0,0.9-0.1,1.9-0.3,2.8c-0.2,1-0.5,1.9-0.9,2.7c-0.4,0.9-0.8,1.7-1.4,2.5
		c-0.6,0.8-1.2,1.4-1.9,2.1c-1.4,1.2-3,2.1-4.8,2.5c-1.7,0.4-3.8,0.6-6.2,0.6L59.5,28.9L59.5,28.9z M64.4,24.1H65c1,0,2-0.1,2.8-0.1
		s1.7-0.3,2.5-0.5c0.8-0.3,1.5-0.6,2.3-1.2c1-0.8,1.8-1.7,2.3-2.8c0.6-1.2,0.8-2.4,0.8-3.7c0-0.9-0.1-1.8-0.4-2.7
		c-0.3-0.9-0.6-1.7-1.2-2.5c-0.5-0.7-1.2-1.4-1.9-1.9c-1-0.7-2.1-1.1-3.2-1.3c-1.2-0.2-2.6-0.3-4.3-0.3h-0.3L64.4,24.1L64.4,24.1z"
		/>
	<path class="st0" d="M84.5,28.9V2.5h4.9v26.4H84.5z"/>
	<path class="st0" d="M107,2c2.5,0,4.8,0.6,6.9,1.9c2.1,1.2,3.8,2.9,5,5c1.2,2.1,1.9,4.5,1.9,7s-0.6,4.8-1.9,6.9
		c-1.2,2.1-2.9,3.7-5,5c-2.1,1.2-4.4,1.8-6.9,1.8c-1.8,0-3.5-0.3-5.3-1c-1.7-0.7-3.2-1.7-4.5-3c-1.3-1.3-2.3-2.8-3-4.5
		c-0.7-1.7-1-3.4-1-5.3c0-2.5,0.6-4.8,1.9-7c1.2-2.1,2.9-3.8,5-5C102.2,2.6,104.5,2,107,2z M106.9,6.7c-1.6,0-3.1,0.4-4.5,1.2
		c-1.4,0.8-2.4,1.9-3.2,3.3c-0.8,1.4-1.2,2.9-1.2,4.5c0,1.2,0.3,2.3,0.7,3.4c0.5,1.1,1.1,2.1,1.9,3c0.8,0.8,1.8,1.5,2.8,2
		c1.1,0.5,2.2,0.7,3.4,0.7c1.5,0,3-0.4,4.4-1.2c1.4-0.8,2.5-1.9,3.2-3.4c0.8-1.4,1.2-2.9,1.2-4.5c0-1.6-0.4-3.1-1.2-4.5
		c-0.8-1.4-1.9-2.5-3.2-3.3C110.1,7.1,108.6,6.7,106.9,6.7z"/>
	<path class="st0" d="M176.5,15.1c3.4-0.5,4.2-2.3,4.2-5.4V6.5c0-3.4-2.7-5.1-8.1-5.1c-5.4,0-8.1,1.7-8.1,5.1v3.8
		c0,2.6,0.6,4.1,3.7,4.6c-3.2,0.7-3.7,2.6-3.7,5.5v4.2c0,3.4,2.7,5.1,8.1,5.1c5.4,0,8.1-1.7,8.1-5.1v-4.1
		C180.6,17.3,179.9,15.5,176.5,15.1z M172.5,13.3c-1.2,0-1.8-0.6-1.8-1.7V6.2c0-1.1,0.6-1.6,1.8-1.6s1.8,0.6,1.8,1.6v5.4
		C174.3,12.7,173.7,13.3,172.5,13.3z M172.5,26.4c-1.2,0-1.8-0.6-1.8-1.7v-6.1c0-1.2,0.6-1.7,1.8-1.7s1.8,0.6,1.8,1.7v6.1
		C174.3,25.8,173.7,26.4,172.5,26.4z"/>
	<path class="st0" d="M195.1,15.1c3.4-0.5,4.2-2.3,4.2-5.4V6.5c0-3.4-2.7-5.1-8.1-5.1c-5.4,0-8.1,1.7-8.1,5.1v3.8
		c0,2.6,0.6,4.1,3.7,4.6c-3.2,0.7-3.7,2.6-3.7,5.5v4.2c0,3.4,2.7,5.1,8.1,5.1c5.4,0,8.1-1.7,8.1-5.1v-4.1
		C199.3,17.3,198.6,15.5,195.1,15.1z M191.1,13.3c-1.2,0-1.8-0.6-1.8-1.7V6.2c0-1.1,0.6-1.6,1.8-1.6s1.8,0.6,1.8,1.6v5.4
		C193,12.7,192.4,13.3,191.1,13.3z M191.1,26.4c-1.2,0-1.8-0.6-1.8-1.7v-6.1c0-1.2,0.6-1.7,1.8-1.7s1.8,0.6,1.8,1.7v6.1
		C193,25.8,192.4,26.4,191.1,26.4z"/>
	<path class="st1" d="M130.1,1.8c0-0.2,0.2-0.4,0.4-0.4h31.1c0.2,0,0.4,0.2,0.4,0.4v27.6c0,0.2-0.2,0.4-0.4,0.4h-31.1
		c-0.2,0-0.4-0.2-0.4-0.4V1.8z"/>
	
		<radialGradient id="SVGID_1_" cx="-0.3436" cy="408.7864" r="0.4716" gradientTransform="matrix(108.354 0 0 -95.2018 183.863 38921.5586)" gradientUnits="userSpaceOnUse">
		<stop  offset="0" style="stop-color:#BF2026"/>
		<stop  offset="0.5051" style="stop-color:#BE2126"/>
		<stop  offset="1" style="stop-color:#C62127"/>
	</radialGradient>
	<path class="st2" d="M131.6,3.4c0-0.2,0.2-0.4,0.4-0.4h28c0.2,0,0.4,0.2,0.4,0.4v24.4c0,0.2-0.2,0.4-0.4,0.4h-28
		c-0.2,0-0.4-0.2-0.4-0.4V3.4z"/>
	<path class="st3" d="M142.4,15.6v9c0,0.2-0.1,0.3-0.2,0.3c-0.2,0-0.3-0.1-0.3-0.3v-1.2h-0.5c-0.3,0-1.4,0.8-2,1.3
		c-0.2,0.1-0.4,0.3-0.5,0.4c-0.7-0.4-1.6-0.8-2.3-1c-0.1,0.1-0.3,0.2-0.3,0.3c-0.2,0.2-0.4,0.3-0.5,0.5c-0.1,0.1-0.1,0.1-0.1,0.1
		c-0.1,0.1-0.1,0.1-0.2,0.1c-0.1,0-0.3-0.1-0.3-0.3c0-0.1,0.3-0.4,1.5-1.7c0.8-0.9,1.2-1.9,1.2-3.5c0-2.7-1.2-5-2.5-5
		c-0.5,0-0.6,0.2-0.7,0.6c0,0.2-0.1,0.3-0.2,0.3c-0.2,0-0.3-0.3-0.3-0.8c0-1.2,0.8-2.2,1.9-2.2c0.5,0,0.8,0.2,1.1,0.4
		c0.3,0.1,0.5,0.3,0.7,0.3v-2.1c0-0.5-0.2-0.8-0.5-1.2c-0.3-0.3-1.8-1.3-2.4-1.3c-0.1,0-0.2,0-0.3,0.1c-0.1,0-0.1,0-0.1,0
		c-0.1,0-0.1,0-0.1-0.1c0-0.1,0.1-0.1,0.1-0.3c0,0,0-0.1,0.1-0.1l1.9-1.9c0,0,0.1,0,0.1-0.1c0.1-0.1,0.1-0.1,0.2-0.1
		c0.4,0,1.5,0.8,2.4,1.4c0.6,0.5,1.2,0.8,1.3,0.8c0.3,0,1-0.5,1.7-0.9c0.9-0.6,1.9-1.2,2.3-1.2c0.2,0,0.4,0.1,1.6,1.2
		c0.1,0.1,0.2,0.1,0.3,0.2c0.1,0.1,0.1,0.1,0.2,0.2c0.3,0.2,0.6,0.5,1,0.7c0.4,0.3,0.5,0.3,0.5,0.8c0.3-0.1,0.5-0.3,2.1-1.5
		c0.5-0.4,1.7-1.4,1.9-1.4c0.1,0,1.2,0.5,2.8,1.1c0.5,0.2,0.5,0.3,0.5,0.5v12.8c0,0.4,0.1,0.6,0.2,0.7c0.7,0.6,1.2,0.9,1.4,0.9
		c0.1,0,0.2,0,0.3-0.1c0.1-0.2,0.1-0.2,0.2-0.2s0.1,0.1,0.1,0.2c0,0.1-1.1,1.5-2.3,2.5c-0.7-0.3-1.9-1-2.6-1.7
		c-0.2-0.3-0.3-0.3-0.3-0.7v-9.1c0-1,0.3-1.8,1.6-3.4c0.6-0.8,0.7-1.1,0.6-1.1c-0.1,0-0.6,0.4-1.1,0.7c-0.3,0.3-0.6,0.5-0.8,0.5
		c-0.1,0-0.1-0.1-0.1-0.1c-1.2-0.7-1.6-0.9-2.3-0.9c-0.4,0-0.6,0.2-0.6,0.5v15.2c0,0.2-0.1,0.3-0.3,0.3c-0.1,0-0.2-0.1-0.2-0.3v-1.2
		c-0.7,0.1-1.3,0.7-1.7,1c-0.2,0.2-0.4,0.3-0.5,0.3c-0.3,0-1.9-1.9-1.9-2.1v-7.2H142.4z M141.9,9.2c0-0.5-0.1-0.6-0.1-0.6
		c-0.2,0-1,0.5-1,0.6v6.8c0,3.3-0.4,3.7-1.2,4.6l-0.1,0.1c-0.4,0.4-0.5,0.5-0.8,0.8c0.5,0.7,2.3,1,3.2,1V9.2z M145.3,13.2h-2.9V9
		c0-0.3,0.1-0.5,0.5-0.5c0.6,0,2.5,1.4,2.5,1.9V13.2z M149.4,9.7c0-0.1,0-0.1-0.1-0.1c-0.1,0-0.2,0.1-0.3,0.1l-0.6,0.3
		c-0.3,0.2-0.5,0.3-0.5,0.5V13c0,0.2,0.2,0.3,0.4,0.3h1L149.4,9.7L149.4,9.7z M148.4,15.5h1v7.2c-0.9-0.1-1.4-0.5-1.4-1.5v-5
		C148,15.7,148.1,15.5,148.4,15.5z"/>
	
		<linearGradient id="SVGID_2_" gradientUnits="userSpaceOnUse" x1="211.2916" y1="36.1209" x2="211.2916" y2="2.1805" gradientTransform="matrix(1 0 0 -1 0 33.5014)">
		<stop  offset="0" style="stop-color:#FFFFFF"/>
		<stop  offset="0.1425" style="stop-color:#FAFAFB"/>
		<stop  offset="0.3172" style="stop-color:#EBECEF"/>
		<stop  offset="0.5088" style="stop-color:#D3D7DF"/>
		<stop  offset="0.7111" style="stop-color:#B0B8C6"/>
		<stop  offset="0.7345" style="stop-color:#ACB4C3"/>
		<stop  offset="0.7916" style="stop-color:#C1C6D1"/>
		<stop  offset="0.8785" style="stop-color:#E0E1E8"/>
		<stop  offset="0.9511" style="stop-color:#F4F4F6"/>
		<stop  offset="1" style="stop-color:#FFFFFF"/>
	</linearGradient>
	<path class="st4" d="M208,28.5V3.1h6.5v25.4H208z"/>
	
		<linearGradient id="SVGID_3_" gradientUnits="userSpaceOnUse" x1="230.6818" y1="36.1209" x2="230.6818" y2="2.1805" gradientTransform="matrix(1 0 0 -1 0 33.5014)">
		<stop  offset="0" style="stop-color:#FFFFFF"/>
		<stop  offset="0.1425" style="stop-color:#FAFAFB"/>
		<stop  offset="0.3172" style="stop-color:#EBECEF"/>
		<stop  offset="0.5088" style="stop-color:#D3D7DF"/>
		<stop  offset="0.7111" style="stop-color:#B0B8C6"/>
		<stop  offset="0.7345" style="stop-color:#ACB4C3"/>
		<stop  offset="0.7916" style="stop-color:#C1C6D1"/>
		<stop  offset="0.8785" style="stop-color:#E0E1E8"/>
		<stop  offset="0.9511" style="stop-color:#F4F4F6"/>
		<stop  offset="1" style="stop-color:#FFFFFF"/>
	</linearGradient>
	<path class="st5" d="M220.4,28.5V3.1h5.8l9,15.6h0.1V3.1h5.8v25.4h-5.8l-9-15.6h-0.1v15.6H220.4z"/>
	
		<linearGradient id="SVGID_4_" gradientUnits="userSpaceOnUse" x1="255.5179" y1="36.1209" x2="255.5179" y2="2.1805" gradientTransform="matrix(1 0 0 -1 0 33.5014)">
		<stop  offset="0" style="stop-color:#FFFFFF"/>
		<stop  offset="0.1425" style="stop-color:#FAFAFB"/>
		<stop  offset="0.3172" style="stop-color:#EBECEF"/>
		<stop  offset="0.5088" style="stop-color:#D3D7DF"/>
		<stop  offset="0.7111" style="stop-color:#B0B8C6"/>
		<stop  offset="0.7345" style="stop-color:#ACB4C3"/>
		<stop  offset="0.7916" style="stop-color:#C1C6D1"/>
		<stop  offset="0.8785" style="stop-color:#E0E1E8"/>
		<stop  offset="0.9511" style="stop-color:#F4F4F6"/>
		<stop  offset="1" style="stop-color:#FFFFFF"/>
	</linearGradient>
	<path class="st6" d="M265.6,3.1V8h-7.1v20.5h-6.1V8h-7.1V3.1H265.6z"/>
	
		<linearGradient id="SVGID_5_" gradientUnits="userSpaceOnUse" x1="278.1448" y1="36.1209" x2="278.1448" y2="2.1805" gradientTransform="matrix(1 0 0 -1 0 33.5014)">
		<stop  offset="0" style="stop-color:#FFFFFF"/>
		<stop  offset="0.1425" style="stop-color:#FAFAFB"/>
		<stop  offset="0.3172" style="stop-color:#EBECEF"/>
		<stop  offset="0.5088" style="stop-color:#D3D7DF"/>
		<stop  offset="0.7111" style="stop-color:#B0B8C6"/>
		<stop  offset="0.7345" style="stop-color:#ACB4C3"/>
		<stop  offset="0.7916" style="stop-color:#C1C6D1"/>
		<stop  offset="0.8785" style="stop-color:#E0E1E8"/>
		<stop  offset="0.9511" style="stop-color:#F4F4F6"/>
		<stop  offset="1" style="stop-color:#FFFFFF"/>
	</linearGradient>
	<path class="st7" d="M275.9,7.9v5.2h9.6v4.5h-9.6v6.2h10.3v4.8H270V3.1h16.3v4.8H275.9z"/>
	
		<linearGradient id="SVGID_6_" gradientUnits="userSpaceOnUse" x1="300.919" y1="36.1209" x2="300.919" y2="2.1805" gradientTransform="matrix(1 0 0 -1 0 33.5014)">
		<stop  offset="0" style="stop-color:#FFFFFF"/>
		<stop  offset="0.1425" style="stop-color:#FAFAFB"/>
		<stop  offset="0.3172" style="stop-color:#EBECEF"/>
		<stop  offset="0.5088" style="stop-color:#D3D7DF"/>
		<stop  offset="0.7111" style="stop-color:#B0B8C6"/>
		<stop  offset="0.7345" style="stop-color:#ACB4C3"/>
		<stop  offset="0.7916" style="stop-color:#C1C6D1"/>
		<stop  offset="0.8785" style="stop-color:#E0E1E8"/>
		<stop  offset="0.9511" style="stop-color:#F4F4F6"/>
		<stop  offset="1" style="stop-color:#FFFFFF"/>
	</linearGradient>
	<path class="st8" d="M297,19.1v9.4h-5.8V3.3c2.6-0.3,5.3-0.5,8.4-0.5c3.5,0,6.1,0.7,7.8,2c1.7,1.3,2.6,3.2,2.6,5.6
		c0,1.6-0.5,3-1.4,4.2c-0.9,1.2-2.1,2.1-3.6,2.6v0.1c1.2,0.7,2.2,2.1,3,4.1l2.7,7.1h-6.1l-2.4-6.9c-0.3-1-0.7-1.6-1.2-2
		c-0.5-0.3-1.2-0.5-2.2-0.5H297z M297,14.8h1.9c1.6,0,2.9-0.3,3.7-1c0.9-0.7,1.3-1.7,1.3-2.9c0-2.4-1.6-3.6-4.8-3.6
		c-0.8,0-1.6,0.1-2.2,0.2V14.8z"/>
	
		<linearGradient id="SVGID_7_" gradientUnits="userSpaceOnUse" x1="324.8268" y1="36.1209" x2="324.8268" y2="2.1805" gradientTransform="matrix(1 0 0 -1 0 33.5014)">
		<stop  offset="0" style="stop-color:#FFFFFF"/>
		<stop  offset="0.1425" style="stop-color:#FAFAFB"/>
		<stop  offset="0.3172" style="stop-color:#EBECEF"/>
		<stop  offset="0.5088" style="stop-color:#D3D7DF"/>
		<stop  offset="0.7111" style="stop-color:#B0B8C6"/>
		<stop  offset="0.7345" style="stop-color:#ACB4C3"/>
		<stop  offset="0.7916" style="stop-color:#C1C6D1"/>
		<stop  offset="0.8785" style="stop-color:#E0E1E8"/>
		<stop  offset="0.9511" style="stop-color:#F4F4F6"/>
		<stop  offset="1" style="stop-color:#FFFFFF"/>
	</linearGradient>
	<path class="st9" d="M314.5,28.5V3.1h5.8l9,15.6h0.1V3.1h5.8v25.4h-5.8l-9-15.6h-0.1v15.6H314.5z"/>
	
		<linearGradient id="SVGID_8_" gradientUnits="userSpaceOnUse" x1="350.4112" y1="36.1209" x2="350.4112" y2="2.1805" gradientTransform="matrix(1 0 0 -1 0 33.5014)">
		<stop  offset="0" style="stop-color:#FFFFFF"/>
		<stop  offset="0.1425" style="stop-color:#FAFAFB"/>
		<stop  offset="0.3172" style="stop-color:#EBECEF"/>
		<stop  offset="0.5088" style="stop-color:#D3D7DF"/>
		<stop  offset="0.7111" style="stop-color:#B0B8C6"/>
		<stop  offset="0.7345" style="stop-color:#ACB4C3"/>
		<stop  offset="0.7916" style="stop-color:#C1C6D1"/>
		<stop  offset="0.8785" style="stop-color:#E0E1E8"/>
		<stop  offset="0.9511" style="stop-color:#F4F4F6"/>
		<stop  offset="1" style="stop-color:#FFFFFF"/>
	</linearGradient>
	<path class="st10" d="M338.7,28.5l8.6-25.4h6.3l8.6,25.4h-6.3l-1.5-5.5h-8l-1.5,5.5H338.7z M347.5,18.5h5.6l-2.8-10.3h-0.1
		L347.5,18.5z"/>
	
		<linearGradient id="SVGID_9_" gradientUnits="userSpaceOnUse" x1="371.0411" y1="36.1209" x2="371.0411" y2="2.1805" gradientTransform="matrix(1 0 0 -1 0 33.5014)">
		<stop  offset="0" style="stop-color:#FFFFFF"/>
		<stop  offset="0.1425" style="stop-color:#FAFAFB"/>
		<stop  offset="0.3172" style="stop-color:#EBECEF"/>
		<stop  offset="0.5088" style="stop-color:#D3D7DF"/>
		<stop  offset="0.7111" style="stop-color:#B0B8C6"/>
		<stop  offset="0.7345" style="stop-color:#ACB4C3"/>
		<stop  offset="0.7916" style="stop-color:#C1C6D1"/>
		<stop  offset="0.8785" style="stop-color:#E0E1E8"/>
		<stop  offset="0.9511" style="stop-color:#F4F4F6"/>
		<stop  offset="1" style="stop-color:#FFFFFF"/>
	</linearGradient>
	<path class="st11" d="M381.1,3.1V8h-7.1v20.5H368V8h-7.1V3.1H381.1z"/>
	
		<linearGradient id="SVGID_10_" gradientUnits="userSpaceOnUse" x1="389.3176" y1="36.1209" x2="389.3176" y2="2.1805" gradientTransform="matrix(1 0 0 -1 0 33.5014)">
		<stop  offset="0" style="stop-color:#FFFFFF"/>
		<stop  offset="0.1425" style="stop-color:#FAFAFB"/>
		<stop  offset="0.3172" style="stop-color:#EBECEF"/>
		<stop  offset="0.5088" style="stop-color:#D3D7DF"/>
		<stop  offset="0.7111" style="stop-color:#B0B8C6"/>
		<stop  offset="0.7345" style="stop-color:#ACB4C3"/>
		<stop  offset="0.7916" style="stop-color:#C1C6D1"/>
		<stop  offset="0.8785" style="stop-color:#E0E1E8"/>
		<stop  offset="0.9511" style="stop-color:#F4F4F6"/>
		<stop  offset="1" style="stop-color:#FFFFFF"/>
	</linearGradient>
	<path class="st12" d="M386.1,28.5V3.1h6.5v25.4H386.1z"/>
	
		<linearGradient id="SVGID_11_" gradientUnits="userSpaceOnUse" x1="439.9588" y1="36.1209" x2="439.9588" y2="2.1805" gradientTransform="matrix(1 0 0 -1 0 33.5014)">
		<stop  offset="0" style="stop-color:#FFFFFF"/>
		<stop  offset="0.1425" style="stop-color:#FAFAFB"/>
		<stop  offset="0.3172" style="stop-color:#EBECEF"/>
		<stop  offset="0.5088" style="stop-color:#D3D7DF"/>
		<stop  offset="0.7111" style="stop-color:#B0B8C6"/>
		<stop  offset="0.7345" style="stop-color:#ACB4C3"/>
		<stop  offset="0.7916" style="stop-color:#C1C6D1"/>
		<stop  offset="0.8785" style="stop-color:#E0E1E8"/>
		<stop  offset="0.9511" style="stop-color:#F4F4F6"/>
		<stop  offset="1" style="stop-color:#FFFFFF"/>
	</linearGradient>
	<path class="st13" d="M429.6,28.5V3.1h5.8l9,15.6h0.1V3.1h5.8v25.4h-5.8l-9-15.6h-0.1v15.6H429.6z"/>
	
		<linearGradient id="SVGID_12_" gradientUnits="userSpaceOnUse" x1="465.5433" y1="36.1209" x2="465.5433" y2="2.1805" gradientTransform="matrix(1 0 0 -1 0 33.5014)">
		<stop  offset="0" style="stop-color:#FFFFFF"/>
		<stop  offset="0.1425" style="stop-color:#FAFAFB"/>
		<stop  offset="0.3172" style="stop-color:#EBECEF"/>
		<stop  offset="0.5088" style="stop-color:#D3D7DF"/>
		<stop  offset="0.7111" style="stop-color:#B0B8C6"/>
		<stop  offset="0.7345" style="stop-color:#ACB4C3"/>
		<stop  offset="0.7916" style="stop-color:#C1C6D1"/>
		<stop  offset="0.8785" style="stop-color:#E0E1E8"/>
		<stop  offset="0.9511" style="stop-color:#F4F4F6"/>
		<stop  offset="1" style="stop-color:#FFFFFF"/>
	</linearGradient>
	<path class="st14" d="M453.8,28.5l8.6-25.4h6.3l8.6,25.4H471l-1.5-5.5h-8l-1.5,5.5H453.8z M462.7,18.5h5.6l-2.8-10.3h-0.1
		L462.7,18.5z"/>
	
		<linearGradient id="SVGID_13_" gradientUnits="userSpaceOnUse" x1="489.1959" y1="36.1209" x2="489.1959" y2="2.1805" gradientTransform="matrix(1 0 0 -1 0 33.5014)">
		<stop  offset="0" style="stop-color:#FFFFFF"/>
		<stop  offset="0.1425" style="stop-color:#FAFAFB"/>
		<stop  offset="0.3172" style="stop-color:#EBECEF"/>
		<stop  offset="0.5088" style="stop-color:#D3D7DF"/>
		<stop  offset="0.7111" style="stop-color:#B0B8C6"/>
		<stop  offset="0.7345" style="stop-color:#ACB4C3"/>
		<stop  offset="0.7916" style="stop-color:#C1C6D1"/>
		<stop  offset="0.8785" style="stop-color:#E0E1E8"/>
		<stop  offset="0.9511" style="stop-color:#F4F4F6"/>
		<stop  offset="1" style="stop-color:#FFFFFF"/>
	</linearGradient>
	<path class="st15" d="M486.9,3.1v20.5h10.7v4.9h-16.8V3.1H486.9z"/>
	
		<linearGradient id="SVGID_14_" gradientUnits="userSpaceOnUse" x1="411.5127" y1="36.4423" x2="411.5127" y2="0.4247" gradientTransform="matrix(1 0 0 -1 0 33.5014)">
		<stop  offset="0" style="stop-color:#FFFFFF"/>
		<stop  offset="0.1425" style="stop-color:#FAFAFB"/>
		<stop  offset="0.3172" style="stop-color:#EBECEF"/>
		<stop  offset="0.5088" style="stop-color:#D3D7DF"/>
		<stop  offset="0.7111" style="stop-color:#B0B8C6"/>
		<stop  offset="0.7345" style="stop-color:#ACB4C3"/>
		<stop  offset="0.7916" style="stop-color:#C1C6D1"/>
		<stop  offset="0.8785" style="stop-color:#E0E1E8"/>
		<stop  offset="0.9511" style="stop-color:#F4F4F6"/>
		<stop  offset="1" style="stop-color:#FFFFFF"/>
	</linearGradient>
	<path class="st16" d="M405.9,10.6h5.1v5.2h-5.7C405.3,14,405.5,12.2,405.9,10.6z M405.9,22.2h5.1V17h-5.7
		C405.3,18.9,405.5,20.6,405.9,22.2z M411,9.5V2.8c-2.1,0.4-3.8,3-4.8,6.7H411z M418.3,22.2h5.6c0.7-1.6,1.2-3.4,1.3-5.2h-6.3
		C418.8,18.9,418.6,20.6,418.3,22.2z M418.3,10.6c0.3,1.6,0.5,3.4,0.5,5.2h6.3c-0.1-1.9-0.5-3.6-1.3-5.2H418.3z M418.1,9.5h5.3
		c-1.8-3.1-4.9-5.4-8.4-6.4C416.3,4.5,417.4,6.7,418.1,9.5z M411,30.1v-6.7h-4.8C407.1,27.1,408.9,29.7,411,30.1z M416.9,9.5
		c-1-3.7-2.8-6.3-4.8-6.7v6.7H416.9z M417.7,17h-5.7v5.2h5.1C417.5,20.6,417.7,18.9,417.7,17z M397.8,17c0.1,1.9,0.5,3.6,1.3,5.2
		h5.6c-0.3-1.6-0.5-3.4-0.5-5.2H397.8z M405,23.3h-5.3c1.8,3.1,4.9,5.4,8.5,6.4C406.8,28.3,405.7,26.1,405,23.3z M418.1,23.3
		c-0.7,2.8-1.8,5-3.2,6.4c3.6-0.9,6.6-3.2,8.4-6.4H418.1z M405,9.5c0.7-2.8,1.8-5,3.2-6.4c-3.6,0.9-6.6,3.2-8.4,6.4H405z
		 M417.2,10.6h-5.1v5.2h5.7C417.7,14,417.5,12.2,417.2,10.6z M399.1,10.6c-0.7,1.6-1.2,3.4-1.3,5.2h6.3c0-1.9,0.2-3.6,0.5-5.2H399.1
		z M412.1,23.3v6.7c2.1-0.4,3.8-3,4.8-6.7H412.1z"/>
</g>
</svg>
