<svg width="56" height="56" viewBox="0 0 56 56" fill="none" xmlns="http://www.w3.org/2000/svg">
<path d="M27.2683 38.167C22.0774 38.167 17.8457 33.9415 17.8457 28.7444C17.8457 26.8198 18.4225 24.9641 19.5196 23.3843L20.9301 24.3623C20.0336 25.6537 19.5635 27.1708 19.5635 28.7507C19.5635 33.0012 23.0178 36.4555 27.2683 36.4555C31.5187 36.4555 34.973 33.0012 34.973 28.7507C34.973 27.2022 34.5154 25.7101 33.6503 24.4312L35.0671 23.472C36.1266 25.0331 36.6845 26.8574 36.6845 28.7507C36.6845 33.9415 32.4591 38.167 27.2683 38.167Z" fill="white"/>
<path d="M49.5298 33.032V24.4683H44.7339C44.2951 22.6816 43.5929 20.9952 42.64 19.4342L46.0379 16.0363L39.9819 9.97404L38.7281 11.2279C38.9036 11.9049 39.0165 12.5946 39.0729 13.303L39.9819 12.3939L43.618 16.0301L40.4458 19.2022L40.8345 19.7853C41.9943 21.5218 42.7905 23.4402 43.2105 25.4902L43.3484 26.1736H47.8184V31.3143H43.3484L43.2105 31.9976C42.7905 34.0476 41.9943 35.9722 40.8345 37.7025L40.4458 38.2856L43.618 41.4578L39.9819 45.0939L36.8097 41.9217L36.2267 42.3104C34.4901 43.4702 32.5718 44.2663 30.5217 44.6864L29.8384 44.8243V49.2942H24.6977V44.8243L24.0144 44.6864C21.9393 44.2663 20.0209 43.4702 18.2969 42.3229L17.7139 41.9342L14.5542 45.0939L10.9181 41.4578L14.0903 38.2856L13.7016 37.7025C12.5481 35.966 11.7456 34.0476 11.3256 31.9913L11.1877 31.308H6.71148V26.1673H11.1814L11.3193 25.4839C11.7393 23.4339 12.5355 21.5093 13.6953 19.779L14.084 19.196L10.9118 16.0238L14.5479 12.3877L15.457 13.2967C15.5134 12.5883 15.6262 11.8924 15.8018 11.2216L14.5479 9.96777L8.49192 16.0238L11.8898 19.4217C10.9369 20.9827 10.2347 22.6754 9.79591 24.4558H5V33.0195H9.79591C10.2347 34.8062 10.9369 36.4926 11.8898 38.0536L8.49192 41.4515L14.5479 47.5075L17.9395 44.1159C19.4943 45.0625 21.187 45.7647 22.9862 46.2035V50.9994H31.5499V46.2035C33.3366 45.7647 35.023 45.0625 36.584 44.1096L39.9819 47.5075L46.0379 41.4515L42.64 38.0536C43.5929 36.4926 44.2951 34.7999 44.7339 33.0195H49.5298V33.032Z" fill="white"/>
<path d="M31.5492 33.0325H29.8377V22.3812L30.3831 22.168C33.6932 20.8766 35.831 17.742 35.831 14.1874C35.831 10.7582 33.7685 7.68 30.6903 6.3384V13.7548L27.2673 16.344L23.8444 13.7548V6.34467C20.7662 7.68627 18.7037 10.7644 18.7037 14.1937C18.7037 17.742 20.8415 20.8766 24.1516 22.168L24.697 22.3812V33.0513H22.9855V23.5284C19.3243 21.8546 16.9922 18.2561 16.9922 14.1874C16.9922 9.60463 20.0641 5.54221 24.465 4.30092L25.5496 4V12.9085L27.2611 14.2062L28.9726 12.9085V4L30.0634 4.30719C34.4643 5.54221 37.5425 9.6109 37.5425 14.1937C37.5425 18.2623 35.2104 21.8671 31.5492 23.541V33.0325Z" fill="#66E0FF"/>
</svg>
