<svg width="56" height="56" viewBox="0 0 56 56" fill="none" xmlns="http://www.w3.org/2000/svg">
<path d="M34.6513 6.99975C32.668 5.59975 30.1013 6.29975 28.468 8.28308C26.718 6.29975 24.1513 5.71642 22.2846 7.11642C19.9513 8.98308 20.1846 12.9498 21.818 15.1664C22.7513 16.4497 24.0346 17.2664 25.2013 18.1997C26.4846 19.1331 27.5346 20.0664 28.5846 21.1164C29.6346 20.0664 30.6846 19.0164 31.8513 18.0831C33.018 17.1497 34.1846 16.2164 35.118 14.9331C36.868 12.7164 37.1013 8.74975 34.6513 6.99975Z" fill="#66E0FF"/>
<path d="M32.3168 37.7996C31.9668 37.7996 31.6168 37.7996 31.3835 37.9163C31.7335 37.3329 31.9668 36.6329 31.9668 35.8163C31.9668 33.5996 30.1001 31.8496 28.0001 31.8496C25.7835 31.8496 24.0335 33.7163 24.0335 35.8163C24.0335 36.6329 24.2668 37.3329 24.6168 37.9163C24.2668 37.7996 23.9168 37.7996 23.6835 37.7996C21.4668 37.7996 19.7168 39.6663 19.7168 41.7663C19.7168 43.9829 21.5835 45.7329 23.6835 45.7329C25.4335 45.7329 26.9501 44.5663 27.4168 42.9329H27.5335C27.3001 43.9829 26.9501 45.3829 26.4835 46.4329C25.5501 48.7663 24.3835 49.5829 24.3835 49.5829C24.3835 49.5829 26.2501 48.9996 28.0001 48.9996C29.7501 48.9996 31.7335 49.4663 31.7335 49.4663C31.7335 49.4663 30.5668 48.5329 29.6335 46.3163C29.1668 45.1496 28.7001 43.8663 28.4668 42.8163H28.5835C29.0501 44.4496 30.6835 45.6163 32.4335 45.6163C34.6501 45.6163 36.4001 43.7496 36.4001 41.6496C36.4001 39.5496 34.5335 37.6829 32.3168 37.7996Z" fill="#66E0FF"/>
<path d="M52.5009 23.333C51.6842 22.283 50.5176 21.4663 49.3509 20.6497C48.1842 19.833 47.2509 19.0163 46.2009 18.083C45.1509 19.0163 44.1009 19.833 43.0509 20.6497C41.8842 21.4663 40.7176 22.283 39.9009 23.333C38.2676 25.3163 38.1509 28.6997 40.3676 30.2163C42.0009 31.383 44.2176 30.9163 45.8509 29.633C45.6176 30.683 45.1509 32.083 44.6842 33.2497C43.6342 35.6997 42.4676 36.633 42.4676 36.633C42.4676 36.633 44.4509 36.0497 46.3176 36.0497C48.1842 36.0497 50.1676 36.633 50.1676 36.633C50.1676 36.633 49.0009 35.6997 47.9509 33.2497C47.4842 32.083 47.0176 30.7997 46.7842 29.633C48.4176 31.033 50.5176 31.383 52.2676 30.2163C54.2509 28.6997 54.0176 25.3163 52.5009 23.333Z" fill="white"/>
<path d="M12.3673 17.1499C10.6173 21.9332 7.11732 25.3166 2.33398 27.1832C7.46732 29.3999 10.8507 32.7832 12.3673 37.2166C14.0006 32.7832 17.2673 29.3999 22.4007 27.1832C17.6173 25.1999 14.234 21.9332 12.3673 17.1499Z" fill="white"/>
</svg>
