<svg width="56" height="56" viewBox="0 0 56 56" fill="none" xmlns="http://www.w3.org/2000/svg">
<path d="M18.3943 47.2671C18.1243 47.7836 17.7839 48.2766 17.373 48.7344C23.7704 51.7863 31.2477 51.7746 37.645 48.7344C37.2459 48.2766 36.9055 47.7836 36.6355 47.2671C30.8603 49.9199 24.1695 49.9199 18.3943 47.2671Z" fill="white"/>
<path d="M47.2227 36.703C47.61 36.9026 47.9856 37.1256 48.3378 37.3839C48.4669 37.4543 48.596 37.5482 48.7252 37.6421C51.7654 31.2447 51.7654 23.7675 48.7134 17.3701C48.2556 17.7692 47.7626 18.0979 47.2461 18.3796C49.9225 24.1783 49.9107 30.9043 47.2227 36.703Z" fill="white"/>
<path d="M7.74744 18.4031C7.23096 18.1213 6.73795 17.7809 6.28016 17.3818C3.23995 23.7792 3.23995 31.2565 6.28016 37.6538C6.73795 37.243 7.23096 36.9026 7.74744 36.6326C5.09459 30.8574 5.09459 24.1783 7.74744 18.4031Z" fill="white"/>
<path d="M18.3238 7.79146C24.1108 5.1034 30.8368 5.09166 36.6238 7.75624C36.8938 7.23976 37.2459 6.74675 37.645 6.28896C31.2477 3.23701 23.7704 3.23701 17.3848 6.28896C17.4787 6.41808 17.5726 6.5472 17.643 6.67632C17.8895 7.04021 18.1243 7.41583 18.3238 7.79146Z" fill="white"/>
<path d="M11.4809 16.4192C14.2037 16.4192 16.4109 14.212 16.4109 11.4892C16.4109 8.76635 14.2037 6.55908 11.4809 6.55908C8.75805 6.55908 6.55078 8.76635 6.55078 11.4892C6.55078 14.212 8.75805 16.4192 11.4809 16.4192Z" fill="#66E0FF"/>
<path d="M43.5258 48.4646C46.2486 48.4646 48.4558 46.2574 48.4558 43.5346C48.4558 40.8118 46.2486 38.6045 43.5258 38.6045C40.803 38.6045 38.5957 40.8118 38.5957 43.5346C38.5957 46.2574 40.803 48.4646 43.5258 48.4646Z" fill="#66E0FF"/>
<path d="M43.5258 16.4192C46.2486 16.4192 48.4558 14.212 48.4558 11.4892C48.4558 8.76635 46.2486 6.55908 43.5258 6.55908C40.803 6.55908 38.5957 8.76635 38.5957 11.4892C38.5957 14.212 40.803 16.4192 43.5258 16.4192Z" fill="#66E0FF"/>
<path d="M11.4809 48.4646C14.2037 48.4646 16.4109 46.2574 16.4109 43.5346C16.4109 40.8118 14.2037 38.6045 11.4809 38.6045C8.75805 38.6045 6.55078 40.8118 6.55078 43.5346C6.55078 46.2574 8.75805 48.4646 11.4809 48.4646Z" fill="#66E0FF"/>
<path d="M28.4567 22.7359C30.493 22.7359 32.093 21.0365 32.093 18.8738C32.093 16.711 30.493 15.0117 28.4567 15.0117C26.4203 15.0117 24.8203 16.711 24.8203 18.8738C24.8203 21.0365 26.4203 22.7359 28.4567 22.7359Z" fill="white"/>
<path d="M30.7548 24.667H25.3101C23.8772 25.1259 22.8742 26.3495 23.0175 27.879L24.3071 38.4328C24.4504 39.3505 25.3101 40.1153 26.313 40.1153H29.6086C30.6115 40.1153 31.4712 39.3505 31.6145 38.4328L32.9041 27.879C33.3339 26.3495 32.3309 24.9729 30.7548 24.667Z" fill="white"/>
</svg>
