<svg width="56" height="56" viewBox="0 0 56 56" fill="none" xmlns="http://www.w3.org/2000/svg">
<path d="M32.2588 34.1599C32.5837 32.9125 33.1497 32.2312 34.1245 32.1264C35.6758 31.9587 36.2733 33.0069 36.6611 34.2752C36.8393 34.1494 36.7659 34.0131 36.7659 33.8873C36.7764 32.8811 37.4472 32.0426 38.3801 31.8539C39.4178 31.6547 40.3192 32.1369 40.728 33.1012C40.749 33.1431 40.7594 33.1851 40.7804 33.227C41.0215 33.814 41.0215 33.814 41.577 33.5205C42.5833 32.9964 43.883 33.4786 44.3337 34.5687C45.4657 37.3149 46.5978 40.0611 47.7193 42.8073C48.2329 44.0651 48.7465 45.3229 49.2601 46.5807C49.5326 47.2515 49.3754 47.6394 48.6836 47.9224C45.8431 49.0963 43.0025 50.2703 40.162 51.4233C38.139 52.2513 38.6841 52.2828 36.9127 51.0983C32.8877 48.4045 28.8627 45.7002 24.8482 42.996C23.9573 42.3985 23.6114 41.4342 23.9363 40.5223C24.387 39.2645 25.844 38.7613 26.9865 39.4951C28.0661 40.1869 29.1143 40.9206 30.1834 41.6333C30.2777 41.6962 30.3826 41.7696 30.4874 41.8325C30.5817 41.8954 30.6865 41.8954 30.7809 41.8115C30.8647 41.7382 30.8542 41.6543 30.8228 41.5704C30.7809 41.4447 30.7284 41.3189 30.676 41.1931C29.0409 37.2205 27.4057 33.248 25.7706 29.2754C25.6239 28.9295 25.4981 28.5836 25.4771 28.2063C25.4247 27.1686 26.106 26.3091 27.1437 26.0785C28.0661 25.8793 29.0514 26.4139 29.4497 27.3677C30.3301 29.485 31.2001 31.6128 32.0701 33.7406C32.133 33.8664 32.1959 34.0131 32.2588 34.1599Z" fill="white"/>
<path d="M50.9057 43.2583C50.4759 43.2583 50.1195 42.9019 50.1195 42.4721V6.57226H5.57226V41.686H20.5087C20.9384 41.686 21.2948 42.0424 21.2948 42.4721C21.2948 42.9019 20.9384 43.2583 20.5087 43.2583H4.78613C4.35638 43.2583 4 42.9019 4 42.4721V5.78613C4 5.35638 4.35638 5 4.78613 5H50.9057C51.3354 5 51.6918 5.35638 51.6918 5.78613V42.4721C51.6918 42.9019 51.3354 43.2583 50.9057 43.2583Z" fill="white"/>
<path d="M24.4086 32.4307C24.3352 32.4307 24.2619 32.4202 24.1885 32.3992C20.3208 31.2463 17.627 27.6301 17.627 23.6051C17.627 18.5529 21.7463 14.4336 26.7985 14.4336C31.8611 14.4336 35.97 18.5529 35.97 23.6051C35.97 25.9844 35.058 28.238 33.4124 29.957C33.1084 30.2715 32.6158 30.2819 32.3014 29.978C31.9869 29.674 31.9764 29.1814 32.2804 28.8669C33.643 27.4414 34.3977 25.5757 34.3977 23.6051C34.3977 19.4124 30.9911 16.0059 26.7985 16.0059C22.6058 16.0059 19.1992 19.4124 19.1992 23.6051C19.1992 26.9383 21.4318 29.936 24.6287 30.8899C25.048 31.0157 25.2786 31.4559 25.1528 31.8647C25.0585 32.2106 24.744 32.4307 24.4086 32.4307Z" fill="#66E0FF"/>
<path d="M24.9844 36.8433C24.9425 36.8433 24.9111 36.8433 24.8691 36.8328C18.3495 35.8895 13.4336 30.1979 13.4336 23.6049C13.4336 16.2363 19.4291 10.2407 26.7978 10.2407C34.1664 10.2407 40.162 16.2363 40.162 23.6049C40.162 26.5083 39.2501 29.2755 37.5101 31.592C37.248 31.9379 36.7554 32.0112 36.4095 31.7492C36.0636 31.4872 35.9902 30.9945 36.2523 30.6486C37.7826 28.6047 38.5897 26.1624 38.5897 23.6049C38.5897 17.1062 33.2964 11.813 26.7978 11.813C20.2991 11.813 15.0059 17.1062 15.0059 23.6049C15.0059 29.4223 19.3453 34.443 25.0997 35.2711C25.5295 35.3339 25.823 35.7322 25.7601 36.162C25.7077 36.5603 25.3723 36.8433 24.9844 36.8433Z" fill="#66E0FF"/>
</svg>
