<svg width="30" height="30" viewBox="0 0 30 30" fill="none" xmlns="http://www.w3.org/2000/svg">
<path d="M26.7871 10.0658H21.1443V7.17215C21.1443 5.96971 20.155 5 18.9283 5H4.22387C2.99718 5 2 5.97747 2 7.17215V18.4906C2 19.693 2.99718 20.6627 4.22387 20.6627H6.12327V24.3399C6.12327 24.7898 6.49523 25.1622 6.96217 25.1622C7.19959 25.1622 7.41327 25.0691 7.56364 24.9062L11.8927 20.655H13.4122V20.717C13.4122 21.6635 14.1957 22.4392 15.1691 22.4392H20.7328L24.1517 25.7983C24.2704 25.9224 24.4366 26 24.6265 26C24.9906 26 25.2913 25.713 25.2913 25.3484V22.4392H26.795C27.7605 22.4392 28.5519 21.6712 28.5519 20.717V11.7802C28.5361 10.8338 27.7526 10.0658 26.7871 10.0658ZM18.8413 19.1112H11.5999C11.3862 19.119 11.1883 19.2043 11.0459 19.3439H11.0379L7.71401 22.6021V19.8482C7.69027 19.437 7.34996 19.1112 6.93051 19.1112H4.31093C3.91522 19.1112 3.58283 18.7931 3.58283 18.4052V7.273C3.58283 6.88511 3.90731 6.55929 4.31093 6.55929H18.8334C19.2291 6.55929 19.5615 6.87736 19.5615 7.273V18.4052C19.5615 18.7931 19.237 19.1112 18.8413 19.1112Z" fill="white"/>
<path d="M17.5355 8.52966H5.59302V10.1122H17.5355V8.52966Z" fill="white"/>
<path d="M17.5355 12.0438H5.59302V13.6264H17.5355V12.0438Z" fill="white"/>
<path d="M17.5355 15.5504H5.59302V17.133H17.5355V15.5504Z" fill="white"/>
</svg>
