<?xml version="1.0" encoding="utf-8"?>
<!-- Generator: Adobe Illustrator 23.0.6, SVG Export Plug-In . SVG Version: 6.00 Build 0)  -->
<svg version="1.1" id="Layer_1" xmlns="http://www.w3.org/2000/svg" xmlns:xlink="http://www.w3.org/1999/xlink" x="0px" y="0px"
	 viewBox="0 0 96 96" style="enable-background:new 0 0 96 96;" xml:space="preserve">
<style type="text/css">
	.st0{fill:#DDB305;}
	.st1{fill:#FDCF04;}
	.st2{fill:none;}
	.st3{fill:#FDCF01;}
	.st4{fill:#E41B23;}
	.st5{fill:#DCB90B;}
</style>
<g>
	<g>
		<path class="st3" d="M87.6,45.3C87.6,23.5,69.8,5.8,48,5.8S8.4,23.5,8.4,45.3S26.2,84.9,48,84.9c1.5,0,3.1-0.1,4.6-0.3l7,2.5
			l8.7,3.1l-3-8.7L65.1,81C78.4,74.7,87.6,61.1,87.6,45.3z"/>
		<rect x="21.3" y="20.6" class="st2" width="52.7" height="52.7"/>
		<rect x="21.3" y="20.6" class="st2" width="52.7" height="52.7"/>
		<g>
			<g>
				<path d="M65.9,38.2H57v-4.7c0-1.9-1.6-3.5-3.5-3.5H30.1c-1.9,0-3.5,1.6-3.5,3.5v18.3c0,1.9,1.6,3.5,3.5,3.5h3v6
					c0,0.7,0.6,1.3,1.3,1.3c0.4,0,0.7-0.2,1-0.4h0l6.9-6.9h2.4v0.1c0,1.5,1.2,2.8,2.8,2.8h8.8l5.4,5.4h0c0.2,0.2,0.5,0.3,0.8,0.3
					c0.6,0,1-0.5,1-1v-4.7h2.4c1.5,0,2.8-1.2,2.8-2.8V40.9C68.7,39.4,67.4,38.2,65.9,38.2z M53.3,52.8H41.8c-0.3,0-0.7,0.1-0.9,0.4
					l0,0l-5.3,5.3V54c0-0.7-0.6-1.2-1.2-1.2h-4.2c-0.6,0-1.2-0.5-1.2-1.2v-18c0-0.6,0.5-1.1,1.2-1.1h23c0.6,0,1.2,0.5,1.2,1.1v18
					l0,0C54.4,52.3,53.9,52.8,53.3,52.8z"/>
				<rect x="32.3" y="35.7" width="18.9" height="2.6"/>
				<rect x="32.3" y="41.3" width="18.9" height="2.6"/>
				<rect x="32.3" y="47" width="18.9" height="2.6"/>
			</g>
		</g>
	</g>
</g>
</svg>
