<?xml version="1.0" encoding="utf-8"?>
<!-- Generator: Adobe Illustrator 23.0.6, SVG Export Plug-In . SVG Version: 6.00 Build 0)  -->
<svg version="1.1" id="Layer_1" xmlns="http://www.w3.org/2000/svg" xmlns:xlink="http://www.w3.org/1999/xlink" x="0px" y="0px"
	 viewBox="0 0 180 68" style="enable-background:new 0 0 180 68;" xml:space="preserve">
<style type="text/css">
	.st0{fill:#DDB305;}
	.st1{fill:#FDCF04;}
	.st2{fill:none;}
	.st3{fill:#FDCF01;}
	.st4{fill:#E41B23;}
	.st5{fill:#DCB90B;}
</style>
<g>
	<path class="st5" d="M178.1,60.1H20.6c-1,0-1.9-0.9-1.9-1.9V11.5c0-1,0.9-1.9,1.9-1.9h157.5c1,0,1.9,0.9,1.9,1.9v46.8
		C180,59.3,179.1,60.1,178.1,60.1z"/>
	<g>
		<path class="st3" d="M62.6,31.9C62.6,14.3,48.6,0,31.3,0S0,14.3,0,31.9s14,31.9,31.3,31.9c1.2,0,2.4-0.1,3.6-0.2l5.5,2l6.9,2.5
			l-2.4-7l-0.1-0.4C55.3,55.5,62.6,44.5,62.6,31.9z"/>
		<rect x="10.1" y="11.9" class="st2" width="41.7" height="42.5"/>
		<rect x="10.1" y="11.9" class="st2" width="41.7" height="42.5"/>
		<g>
			<g>
				<g>
					<path d="M45.4,26.1h-7.1v-3.8c0-1.6-1.2-2.8-2.8-2.8H17.1c-1.5,0-2.8,1.3-2.8,2.8v14.8c0,1.6,1.2,2.8,2.8,2.8h2.4v4.8
						c0,0.6,0.5,1.1,1.1,1.1c0.3,0,0.6-0.1,0.8-0.3h0l5.4-5.5h1.9V40c0,1.2,1,2.2,2.2,2.2h7l4.3,4.4h0c0.1,0.2,0.4,0.3,0.6,0.3
						c0.5,0,0.8-0.4,0.8-0.8v-3.8h1.9c1.2,0,2.2-1,2.2-2.2V28.3C47.6,27.1,46.7,26.1,45.4,26.1z M35.5,37.9h-9.1
						c-0.3,0-0.5,0.1-0.7,0.3l0,0l-4.2,4.2v-3.6c0-0.5-0.5-1-1-1h-3.3c-0.5,0-0.9-0.4-0.9-0.9V22.4c0-0.5,0.4-0.9,0.9-0.9h18.2
						c0.5,0,0.9,0.4,0.9,0.9v14.5l0,0C36.4,37.5,36,37.9,35.5,37.9z"/>
					<rect x="18.9" y="24.1" width="15" height="2.1"/>
					<rect x="18.9" y="28.6" width="15" height="2.1"/>
					<rect x="18.9" y="33.2" width="15" height="2.1"/>
				</g>
			</g>
		</g>
	</g>
</g>
</svg>
