<svg width="262" height="64" viewBox="0 0 262 64" fill="none" xmlns="http://www.w3.org/2000/svg">
<g clip-path="url(#clip0)">
<path d="M113.254 0H112.642V64H113.254V0Z" fill="white"/>
<path d="M144.398 38.608C148.419 38.608 151.679 35.3482 151.679 31.327C151.679 27.3057 148.419 24.0459 144.398 24.0459C140.376 24.0459 137.117 27.3057 137.117 31.327C137.117 35.3482 140.376 38.608 144.398 38.608Z" fill="white"/>
<path d="M185.392 39.8929H174.011V20.0688H179.151V35.4264H185.392V39.8929Z" fill="white"/>
<path d="M194.876 28.1453C192.612 28.1453 191.143 29.8585 191.143 31.9388C191.143 34.1415 192.551 35.9771 194.753 35.9771C196.895 35.9771 198.669 34.3863 198.669 32.1224C198.608 29.7974 196.956 28.1453 194.876 28.1453ZM186.249 32.0612C186.249 27.6559 189.491 23.74 193.897 23.74C195.855 23.74 197.017 24.413 198.424 25.6979V24.0459H203.136V39.9541H198.302V38.4245C198.302 38.4245 196.589 40.3824 193.591 40.3824C189.247 40.3213 186.249 37.1396 186.249 32.0612Z" fill="white"/>
<path d="M217.392 39.8929H206.011V20.0688H211.151V35.4264H217.392V39.8929Z" fill="white"/>
<path d="M224.367 39.893H219.595V23.9848H224.367V39.893ZM219.105 20.0077C219.105 18.4169 220.39 17.0708 221.981 17.0708C223.572 17.0708 224.918 18.3557 224.918 19.9465C224.918 21.5985 223.633 22.8834 221.981 22.8834C220.329 22.8834 219.105 21.5985 219.105 20.0077Z" fill="white"/>
<path d="M234.401 27.8394C232.138 27.8394 231.036 29.675 231.036 31.6329C231.036 33.6521 232.26 35.3653 234.34 35.3653C236.726 35.3653 238.011 33.4685 238.011 31.6941C238.073 29.5526 236.849 27.8394 234.401 27.8394ZM226.386 31.6329C226.386 27.35 229.139 23.6788 233.3 23.6788C235.319 23.6788 236.665 24.3519 238.011 25.7591V23.9848H242.6V37.9962C242.6 42.8911 238.929 45.4609 234.463 45.4609C230.547 45.4609 227.182 43.5029 226.692 39.893H232.076C232.749 40.9943 233.422 41.1779 234.585 41.1779C236.237 41.1779 237.828 40.3825 237.828 38.6693C237.828 38.241 237.828 37.8739 237.828 37.5067C236.91 38.3633 235.197 39.3423 233.3 39.3423C229.201 39.4035 226.386 35.9771 226.386 31.6329Z" fill="white"/>
<path d="M253.308 28.1453C251.044 28.1453 249.575 29.8585 249.575 31.9388C249.575 34.1415 250.983 35.9771 253.185 35.9771C255.327 35.9771 257.101 34.3863 257.101 32.1224C257.04 29.7974 255.449 28.1453 253.308 28.1453ZM244.681 32.0612C244.681 27.6559 247.923 23.74 252.329 23.74C254.287 23.74 255.449 24.413 256.918 25.6979V24.0459H261.629V39.9541H256.795V38.4245C256.795 38.4245 255.082 40.3824 252.084 40.3824C247.679 40.3213 244.681 37.1396 244.681 32.0612Z" fill="white"/>
<path d="M129.04 18.5392C128.979 18.6004 128.979 18.7228 129.04 18.784C129.04 18.8452 129.101 18.8452 129.162 18.8452L136.872 23.3117C136.933 23.3729 137.055 23.3729 137.117 23.3117L137.178 23.2505C137.178 23.2505 137.178 23.2505 137.178 23.1893C137.912 21.9044 138.891 20.8031 140.115 19.9465C141.399 19.0287 142.746 18.478 144.214 18.2333C144.214 18.2333 144.275 18.2333 144.275 18.1721C144.336 18.1109 144.398 17.9886 144.398 17.9274L142.868 9.17785C142.868 9.11666 142.868 9.11666 142.807 9.05548C142.746 8.99429 142.684 8.93311 142.562 8.93311C139.87 9.42259 137.178 10.5239 134.73 12.2371C132.344 13.9503 130.447 16.153 129.04 18.5392Z" fill="#893A96"/>
<path d="M124.635 35.4264C124.696 35.4875 124.757 35.5487 124.818 35.5487C124.879 35.5487 124.879 35.5487 124.941 35.5487L133.262 32.3671C133.323 32.3059 133.384 32.2447 133.384 32.1223C133.384 32.0612 133.384 32.0612 133.384 32.0612C133.384 32.0612 133.384 32.0612 133.384 32C132.834 30.6539 132.589 29.1854 132.711 27.6558C132.834 26.1262 133.262 24.6577 133.935 23.434C133.935 23.434 133.935 23.3728 133.935 23.3116C133.935 23.1893 133.874 23.1281 133.813 23.0669L126.042 18.8451C125.981 18.8451 125.981 18.8451 125.92 18.8451C125.797 18.8451 125.736 18.9063 125.675 18.9675C124.329 21.4149 123.533 24.1682 123.35 27.1051C123.166 30.042 123.656 32.8566 124.635 35.4264Z" fill="#0065B1"/>
<path d="M135.22 49.3155C135.281 49.3155 135.403 49.3155 135.465 49.2543C135.465 49.1931 135.526 49.1931 135.526 49.1319L138.157 40.6271C138.157 40.5659 138.157 40.4436 138.096 40.3824L138.034 40.3212C138.034 40.3212 138.034 40.3212 137.973 40.3212C136.566 39.8929 135.281 39.2199 134.118 38.1797C132.956 37.1395 132.099 35.9158 131.549 34.5698L131.487 34.5086C131.426 34.4474 131.304 34.4474 131.243 34.4474L123.044 37.935C122.983 37.935 122.983 37.9961 122.983 37.9961C122.922 38.0573 122.922 38.1797 122.922 38.2409C124.023 40.8107 125.675 43.1357 127.878 45.1548C130.08 47.174 132.589 48.52 135.22 49.3155Z" fill="#0B9BD7"/>
<path d="M152.596 49.7439C152.658 49.6827 152.719 49.6215 152.719 49.4991C152.719 49.438 152.719 49.438 152.658 49.3768L147.702 41.9733C147.64 41.9121 147.579 41.851 147.457 41.851H147.396C147.396 41.851 147.396 41.851 147.335 41.851C146.172 42.6464 144.765 43.2582 143.235 43.503C141.705 43.7477 140.237 43.6253 138.83 43.2582C138.769 43.2582 138.769 43.2582 138.707 43.2582C138.585 43.2582 138.524 43.3194 138.524 43.4418L136.138 52.0077C136.138 52.0689 136.138 52.0689 136.138 52.1301C136.138 52.1913 136.199 52.3137 136.321 52.3137C138.952 53.0479 141.889 53.2926 144.765 52.8032C147.64 52.3749 150.271 51.3347 152.596 49.7439Z" fill="#0FB15F"/>
<path d="M163.855 36.4665C163.855 36.4053 163.793 36.283 163.732 36.2218C163.671 36.2218 163.671 36.1606 163.61 36.1606L154.738 35.4875C154.616 35.4875 154.554 35.5487 154.493 35.6099V35.6711C154.493 35.6711 154.493 35.6711 154.493 35.7323C154.371 37.2007 154.004 38.608 153.27 39.9541C152.535 41.3002 151.495 42.4015 150.333 43.2581L150.271 43.3193C150.21 43.3805 150.21 43.5028 150.271 43.564L155.533 50.7227L155.595 50.7839C155.656 50.8451 155.778 50.8451 155.839 50.7839C158.103 49.1319 160 46.9904 161.468 44.4206C162.937 42.0344 163.671 39.2199 163.855 36.4665Z" fill="#FDDC2D"/>
<path d="M160.551 19.3346C160.489 19.2734 160.367 19.2734 160.306 19.2734C160.245 19.2734 160.245 19.3346 160.183 19.3346L154.065 25.8203C154.004 25.8815 154.004 26.0038 154.004 26.065C154.004 26.065 154.004 26.1262 154.065 26.1262C155.105 27.1052 156.023 28.3289 156.573 29.7362C157.124 31.1434 157.369 32.6731 157.308 34.0803C157.308 34.1415 157.308 34.1415 157.308 34.2027C157.369 34.3251 157.43 34.3251 157.491 34.3862L166.363 34.8145C166.424 34.8145 166.424 34.8145 166.486 34.8145C166.547 34.7534 166.608 34.6922 166.608 34.631C166.73 31.8776 166.302 29.0019 165.201 26.2486C164.222 23.6176 162.57 21.2314 160.551 19.3346Z" fill="#F68D32"/>
<path d="M144.948 11.3805C144.887 11.3805 144.765 11.4417 144.765 11.5641C144.765 11.6252 144.765 11.6252 144.765 11.6864L146.05 20.4971C146.05 20.5583 146.111 20.6807 146.233 20.6807H146.294C146.294 20.6807 146.294 20.6807 146.356 20.6807C147.763 20.4359 149.292 20.4971 150.761 20.9254C152.229 21.3537 153.575 22.088 154.616 23.0669L154.677 23.1281C154.799 23.1281 154.86 23.1281 154.922 23.0669L160.734 16.3365C160.734 16.3365 160.795 16.2753 160.795 16.2141C160.795 16.153 160.795 16.0306 160.734 15.9694C158.654 14.1338 156.145 12.7266 153.27 11.9312C150.577 11.1358 147.702 10.9522 144.948 11.3805Z" fill="#EE3435"/>
<path d="M149.782 35.4876C149.904 35.1817 149.904 34.8146 149.965 34.5698C149.843 34.6922 149.66 34.8146 149.476 34.9981C148.986 35.3652 148.436 35.61 147.885 35.7324L146.478 34.2027L147.518 36.0383C147.273 36.5278 146.845 36.9561 146.355 37.3232C146.172 37.4455 145.988 37.5679 145.805 37.6291C146.05 37.6903 146.417 37.7515 146.723 37.7515C145.988 37.9962 145.254 38.1186 144.459 38.1186C143.663 38.1186 142.868 37.9962 142.195 37.7515C142.501 37.7515 142.868 37.6903 143.113 37.6291C142.929 37.5067 142.746 37.4455 142.562 37.3232C142.073 36.9561 141.644 36.5278 141.399 36.0383L142.44 34.2027L141.032 35.7324C140.482 35.61 139.931 35.3652 139.442 34.9981C139.258 34.8758 139.136 34.7534 138.952 34.5698C139.013 34.8146 139.013 35.1817 139.136 35.4876C138.218 34.3251 137.728 32.9178 137.728 31.327C137.728 31.2658 137.728 31.2046 137.728 31.0823C137.79 31.3882 137.973 31.6941 138.157 31.9389C138.218 31.7553 138.218 31.5106 138.279 31.327C138.463 30.7151 138.768 30.2257 139.136 29.7974L141.155 30.2257L139.258 29.3691C139.197 28.8184 139.258 28.2677 139.442 27.6559C139.503 27.4723 139.564 27.2888 139.686 27.1052C139.442 27.2276 139.074 27.4111 138.83 27.5947C139.747 26.2486 141.032 25.2696 142.623 24.8413C142.317 25.0249 142.073 25.3308 141.889 25.5144C142.073 25.5144 142.317 25.4532 142.501 25.4532C143.113 25.4532 143.725 25.5756 144.214 25.8203L144.459 27.9006L144.703 25.8203C145.193 25.5756 145.805 25.4532 146.417 25.4532C146.6 25.4532 146.845 25.4532 147.029 25.5144C146.845 25.3308 146.539 25.0249 146.294 24.8413C147.885 25.2696 149.231 26.2486 150.088 27.5947C149.843 27.3499 149.476 27.2276 149.231 27.1052C149.292 27.2888 149.415 27.4723 149.476 27.6559C149.66 28.2677 149.721 28.8184 149.66 29.3691L147.763 30.2257L149.782 29.7974C150.149 30.2257 150.455 30.7151 150.638 31.327C150.7 31.5106 150.761 31.7553 150.761 31.9389C150.883 31.6941 151.067 31.3882 151.128 31.0823C151.128 31.1434 151.128 31.2046 151.128 31.327C151.189 32.9178 150.638 34.3863 149.782 35.4876ZM144.398 23.9847C140.359 23.9847 137.055 27.2888 137.055 31.327C137.055 35.3652 140.359 38.6693 144.398 38.6693C148.436 38.6693 151.74 35.3652 151.74 31.327C151.801 27.2888 148.497 23.9847 144.398 23.9847Z" fill="black"/>
<path d="M141.461 30.4092L142.562 33.8968H146.233L147.396 30.4092L144.398 28.2065L141.461 30.4092Z" fill="black"/>
<path d="M2.32493 53.1702C3.60982 53.1702 4.64997 54.1491 4.64997 55.3728C4.64997 56.5965 3.67101 57.5755 2.32493 57.5755C1.04003 57.5755 -0.00012207 56.5965 -0.00012207 55.3728C-0.00012207 54.0879 0.978845 53.1702 2.32493 53.1702ZM2.32493 56.7189C3.05915 56.7189 3.60982 56.1683 3.60982 55.3728C3.60982 54.6386 3.05915 54.0268 2.32493 54.0268C1.5907 54.0268 1.04003 54.5774 1.04003 55.3728C1.04003 56.1071 1.5907 56.7189 2.32493 56.7189Z" fill="white"/>
<path d="M5.93494 53.2313H8.56591V54.0879H6.9139V55.0057H8.44354V55.8623H6.9139V57.5143H5.93494V53.2313Z" fill="white"/>
<path d="M9.85071 53.2313H12.5429V54.0879H10.8909V55.0057H12.4205V55.8623H10.8909V57.5143H9.85071V53.2313Z" fill="white"/>
<path d="M14.8068 53.2313V57.5143H13.7666V53.2313H14.8068Z" fill="white"/>
<path d="M16.0917 55.3728C16.0917 54.1491 17.0706 53.1702 18.4167 53.1702C19.0286 53.1702 19.5181 53.3537 19.9464 53.6596L19.4569 54.3939C19.2121 54.2103 18.845 54.0268 18.4779 54.0268C17.7437 54.0268 17.193 54.5774 17.193 55.3728C17.193 56.1071 17.7437 56.7189 18.4779 56.7189C18.845 56.7189 19.2121 56.5354 19.5181 56.2906L20.0687 57.0248C19.6404 57.392 19.0898 57.5755 18.5391 57.5755C17.0706 57.5755 16.0917 56.5965 16.0917 55.3728Z" fill="white"/>
<path d="M22.2102 53.2313V57.5143H21.17V53.2313H22.2102Z" fill="white"/>
<path d="M26.0038 53.2313L27.4722 57.5143H26.4321L26.1261 56.5965H24.7189L24.413 57.5143H23.3728L24.8413 53.2313H26.0038ZM25.3919 54.2715L24.9024 55.8011H25.8814L25.3919 54.2715Z" fill="white"/>
<path d="M28.5735 53.2313H29.6136V56.6577H31.2656V57.5143H28.5735V53.2313V53.2313Z" fill="white"/>
<path d="M36.4664 53.2313C37.3842 53.2313 37.9961 53.782 37.9961 54.6386C37.9961 55.2504 37.6901 55.6787 37.1395 55.9235L38.1184 57.5755H37.0171L36.0993 55.9847H35.8546V57.5143H34.8756V53.2313H36.4664ZM35.8546 54.0267V55.2504H36.3441C36.7112 55.2504 36.9559 55.0057 36.9559 54.6386C36.9559 54.2715 36.7112 54.0267 36.3441 54.0267H35.8546Z" fill="white"/>
<path d="M39.281 53.2313H42.0344V54.0879H40.3212V54.9445H41.912V55.8011H40.3212V56.6577H42.0955V57.5143H39.281V53.2313V53.2313Z" fill="white"/>
<path d="M44.1758 55.3729C44.1758 56.1071 44.7265 56.7189 45.4607 56.7189C45.6443 56.7189 45.889 56.6578 46.0114 56.5966V55.8624H45.1548V55.0669H46.9903V56.9637C46.562 57.3308 46.0114 57.5144 45.3995 57.5144C44.1146 57.5144 43.0745 56.5354 43.0745 55.3117C43.0745 54.088 44.0534 53.109 45.3995 53.109C46.0114 53.109 46.5008 53.2926 46.9291 53.5985L46.5008 54.3939C46.2561 54.2103 45.889 54.0268 45.5219 54.0268C44.7265 54.0268 44.1758 54.5775 44.1758 55.3729Z" fill="white"/>
<path d="M49.4989 53.2313V57.5143H48.4587V53.2313H49.4989Z" fill="white"/>
<path d="M53.1089 53.1702C54.3938 53.1702 55.4339 54.1491 55.4339 55.3728C55.4339 56.5965 54.4549 57.5755 53.1089 57.5755C51.824 57.5755 50.7838 56.5965 50.7838 55.3728C50.845 54.0879 51.824 53.1702 53.1089 53.1702ZM53.1089 56.7189C53.8431 56.7189 54.3938 56.1683 54.3938 55.3728C54.3938 54.6386 53.8431 54.0268 53.1089 54.0268C52.3746 54.0268 51.824 54.5774 51.824 55.3728C51.824 56.1071 52.3746 56.7189 53.1089 56.7189Z" fill="white"/>
<path d="M56.7189 53.2313H57.759L59.2275 55.9847V53.2313H60.1453V57.5143H59.1051L57.6367 54.761V57.5143H56.7189V53.2313Z" fill="white"/>
<path d="M63.9387 53.2313L65.4072 57.5143H64.367L64.0611 56.5965H62.6538L62.3479 57.5143H61.3077L62.7762 53.2313H63.9387ZM63.388 54.2715L62.8986 55.8011H63.8775L63.388 54.2715Z" fill="white"/>
<path d="M66.5696 53.2313H67.6097V56.6577H69.2617V57.5143H66.5696V53.2313Z" fill="white"/>
<path d="M73.8507 56.0459V57.5143H72.8105V53.2313H74.4014C75.3192 53.2313 75.931 53.8432 75.931 54.6386C75.931 55.4952 75.3192 56.0459 74.4014 56.0459H73.8507ZM74.279 54.0267H73.7895V55.2504H74.279C74.6461 55.2504 74.8909 55.0057 74.8909 54.6386C74.8909 54.2715 74.6461 54.0267 74.279 54.0267Z" fill="white"/>
<path d="M79.3574 53.2313L80.8259 57.5143H79.7857L79.4798 56.5965H78.0725L77.7666 57.5143H76.7264L78.1949 53.2313H79.3574ZM78.8067 54.2715L78.3173 55.8011H79.2962L78.8067 54.2715Z" fill="white"/>
<path d="M83.5792 53.2313C84.497 53.2313 85.1089 53.782 85.1089 54.6386C85.1089 55.2504 84.8029 55.6787 84.2523 55.9235L85.2312 57.5755H84.1299L83.2733 56.107H83.0286V57.5143H81.9884V53.2313H83.5792ZM82.9674 54.0267V55.2504H83.4568C83.824 55.2504 84.0687 55.0057 84.0687 54.6386C84.0687 54.2715 83.824 54.0267 83.4568 54.0267H82.9674Z" fill="white"/>
<path d="M87.128 54.0879H86.0879V53.2313H89.2084V54.0879H88.1682V57.5143H87.128V54.0879V54.0879Z" fill="white"/>
<path d="M90.432 53.2313H91.4722L92.9406 55.9847V53.2313H93.8584V57.5143H92.8182L91.3498 54.761V57.5143H90.432V53.2313Z" fill="white"/>
<path d="M95.3881 53.2313H98.1414V54.0879H96.4282V54.9445H98.019V55.8011H96.4282V56.6577H98.2026V57.5143H95.3881V53.2313Z" fill="white"/>
<path d="M101.078 53.2313C101.996 53.2313 102.608 53.782 102.608 54.6386C102.608 55.2504 102.302 55.6787 101.751 55.9235L102.73 57.5755H101.629L100.772 56.107H100.528V57.5143H99.5486V53.2313H101.078ZM100.528 54.0267V55.2504H101.017C101.384 55.2504 101.629 55.0057 101.629 54.6386C101.629 54.2715 101.384 54.0267 101.017 54.0267H100.528Z" fill="white"/>
<path d="M50.6003 6.42444H17.1318V36.4665H50.6615V6.42444H50.6003Z" fill="#CAAB72"/>
<path d="M48.887 8.07642H18.845V34.7533H48.887V8.07642Z" fill="url(#paint0_radial)"/>
<path d="M29.5525 21.2925V32.1224C29.5525 32.3671 29.4913 32.4895 29.3078 32.4895C29.1242 32.4895 29.0018 32.3059 29.0018 32.1224V30.7151H28.4512C27.9617 30.7151 25.9426 32.3671 25.5143 32.7342C24.6577 32.2447 23.6175 31.7552 22.8221 31.4493C22.3938 31.8776 22.0267 32.1835 21.8431 32.3671C21.6596 32.5507 21.5372 32.673 21.476 32.673C21.2925 32.673 21.1701 32.4895 21.1701 32.3671C21.1701 32.1835 21.476 31.8776 23.0057 30.2868C24.0458 29.2466 24.4741 27.9006 24.4741 25.9426C24.4741 22.6998 23.0668 19.8853 21.476 19.8853C20.9253 19.8853 20.6806 20.0688 20.6194 20.6195C20.5582 20.8642 20.4359 20.9866 20.3747 20.9866C20.1299 20.9866 20.0076 20.6195 20.0076 19.9464C20.0076 18.478 21.0477 17.2543 22.3326 17.2543C23.434 17.2543 23.8623 18.1721 24.5353 18.0497V15.9082C24.5353 15.3575 24.3517 14.868 23.9234 14.5009C23.5563 14.195 21.7208 12.9713 21.0477 12.9713C20.803 12.9713 20.6806 13.0937 20.5582 13.0937C20.4359 13.0937 20.4359 13.0325 20.4359 12.9713C20.4359 12.8489 20.4971 12.7877 20.6806 12.6042L23.0057 10.2791C23.128 10.1568 23.1892 10.0956 23.3116 10.0956C24.107 10.0956 27.2886 12.6654 27.6558 12.6654C28.2676 12.6654 31.5104 10.1568 32.367 10.1568C32.6118 10.1568 32.8565 10.3403 34.6309 11.8088C34.9368 12.0535 35.4875 12.6042 36.0382 12.9101C36.5276 13.216 36.5276 13.2772 36.5276 13.8279C36.8336 13.7667 37.1395 13.522 39.0363 11.9923C39.5869 11.564 41.1166 10.2791 41.2389 10.2791C41.4225 10.2791 42.7074 10.8298 44.6041 11.6252C45.1548 11.87 45.2772 11.9311 45.2772 12.2983V27.717C45.2772 28.2065 45.3384 28.39 45.5219 28.5736C46.3785 29.369 46.9292 29.6749 47.2351 29.6749C47.3575 29.6749 47.4187 29.6137 47.541 29.5526C47.7246 29.369 47.7246 29.3078 47.7858 29.3078C47.847 29.3078 47.9693 29.4302 47.9693 29.5526C47.9693 29.7361 46.6233 31.3881 45.2772 32.4895C44.4206 32.1835 43.0133 31.2046 42.2179 30.348C41.9732 30.042 41.912 29.9809 41.912 29.4914V18.5392C41.912 17.2543 42.3403 16.3977 43.8087 14.3786C44.6041 13.3996 44.6653 13.0325 44.4818 13.0325C44.3594 13.0325 42.585 14.3786 42.2179 14.5621C40.6271 13.6443 40.1376 13.3384 39.281 13.3384C38.7915 13.3384 38.4856 13.5832 38.4856 13.8891V32.2447C38.4856 32.4895 38.3632 32.673 38.1797 32.673C37.9961 32.673 37.9349 32.4895 37.9349 32.3059V30.9598C36.65 31.1434 35.6099 32.673 35.3651 32.673C35.0592 32.673 33.1013 30.348 33.1013 30.1644V21.2925H29.5525ZM29.0018 13.7055C29.0018 13.0937 28.9406 12.9101 28.8183 12.9101C28.5735 12.9101 27.5946 13.522 27.5946 13.7055V21.9656C27.5946 26.065 27.1051 26.4933 26.0649 27.5946C25.5754 28.0841 25.4531 28.2065 25.1471 28.6348C25.759 29.4914 27.8393 29.9197 29.0018 29.8585V13.7055ZM29.5525 18.478H33.0401V15.174C33.0401 14.5621 30.8374 12.8489 30.1032 12.8489C29.7972 12.8489 29.6137 13.0325 29.6137 13.4608V18.478H29.5525ZM37.8125 14.195C37.8125 14.1338 37.7514 14.0726 37.6902 14.0726C37.5678 14.0726 37.4454 14.1338 37.3842 14.195L36.7112 14.6845C36.3441 14.9292 36.2217 15.0516 36.2217 15.2352V18.2332C36.2217 18.4168 36.4665 18.6004 36.7112 18.6004H37.8737L37.8125 14.195ZM37.8125 21.2313H36.7112C36.4053 21.2313 36.2217 21.4761 36.2217 21.9044V28.0229C36.2217 29.2466 36.7112 29.7973 37.8125 29.8585V21.2313V21.2313Z" fill="white"/>
<path d="M23.1279 46.0114V45.6443C23.9845 45.522 24.0457 45.4608 23.9845 44.4206V40.0765H23.9234L21.4759 45.8891H21.17L18.9061 40.1988H18.845L18.7226 43.1357C18.6614 44.0535 18.6614 44.6042 18.7226 44.9101C18.7838 45.3996 18.9673 45.522 19.7016 45.5831V45.9503H17.0094V45.5831C17.6213 45.522 17.866 45.3384 17.9272 44.9101C17.9884 44.543 18.1107 43.9311 18.1719 42.7686L18.3555 40.5659C18.4779 39.281 18.3555 39.1587 17.4377 39.0363V38.6692H19.7627L21.9042 43.564L24.1069 38.6692H26.3096V39.0363C25.453 39.1587 25.3918 39.2199 25.3918 40.1376L25.5142 44.2983C25.5142 45.3384 25.5754 45.3996 26.432 45.522V45.8891H23.1279V46.0114Z" fill="white"/>
<path d="M31.0821 46.0115V45.6444C31.7551 45.522 31.8163 45.3996 31.6327 44.9102C31.5104 44.6042 31.388 44.1148 31.2044 43.6253H29.0629C28.9406 43.9924 28.8182 44.3595 28.6346 44.849C28.4511 45.3996 28.5123 45.522 29.3077 45.6444V46.0115H26.7991V45.6444C27.5333 45.522 27.6557 45.4608 28.0228 44.4819L30.2866 38.7304L30.8373 38.5469C31.5715 40.5048 32.2446 42.4627 32.9788 44.3595C33.3459 45.3385 33.4683 45.4608 34.2025 45.5832V45.9503L31.0821 46.0115ZM30.1643 40.566C29.7972 41.3614 29.5524 42.218 29.2465 43.0134H30.9597L30.1643 40.566Z" fill="white"/>
<path d="M42.4625 39.0975C41.8507 39.1586 41.6059 39.281 41.6059 39.7705C41.5447 40.1376 41.4836 40.6271 41.4836 41.6061V46.0726H40.9329L36.2828 40.5047H36.2216V43.0133C36.2216 43.9923 36.2828 44.4818 36.344 44.8489C36.4052 45.3384 36.5887 45.5219 37.3841 45.5831V45.9502H34.6308V45.5831C35.2426 45.5219 35.4874 45.3384 35.5486 44.9101C35.6098 44.543 35.6709 44.0535 35.6709 43.0745V40.7495C35.6709 40.0152 35.6709 39.7705 35.4262 39.5258C35.2426 39.281 34.9367 39.1586 34.5084 39.0975V38.7303H36.5887L40.8717 43.6252H40.9329V41.6672C40.9329 40.6883 40.8717 40.1376 40.8105 39.8317C40.7493 39.3422 40.5046 39.1586 39.7092 39.0975V38.7303H42.4013V39.0975H42.4625Z" fill="white"/>
<path d="M46.8067 40.566C46.5619 39.893 46.1336 39.0364 45.277 39.0364C44.6652 39.0364 44.1757 39.5258 44.1757 40.1377C44.1757 40.7496 44.604 41.1167 45.583 41.6061C46.7455 42.1568 47.5409 42.8299 47.5409 43.9312C47.5409 45.2161 46.4396 46.1951 44.8487 46.1951C44.4204 46.1951 44.0533 46.1339 43.7474 46.0115C43.4415 45.8891 43.2579 45.8279 43.0744 45.7668C42.952 45.522 42.8296 44.543 42.7684 43.87L43.1355 43.7476C43.3803 44.4819 43.9921 45.7056 45.0935 45.7056C45.7665 45.7056 46.1948 45.2161 46.1948 44.5431C46.1948 43.87 45.7053 43.4417 44.8487 43.0134C43.6862 42.4016 42.8908 41.8509 42.8908 40.7496C42.8908 39.5258 43.8698 38.5469 45.4606 38.5469C46.1948 38.5469 46.8067 38.7916 46.9902 38.8528C47.0514 39.2811 47.1126 39.7706 47.1738 40.4436L46.8067 40.566Z" fill="white"/>
<path d="M47.9081 46.0114V45.6443C48.7647 45.5831 48.8259 45.4607 48.8259 44.5429V40.26C48.8259 39.281 48.7035 39.2198 47.9081 39.1586V38.7915H51.2121V39.1586C50.3555 39.2198 50.2943 39.3422 50.2943 40.26V44.5429C50.2943 45.5219 50.4167 45.5831 51.2121 45.6443V46.0114H47.9081Z" fill="white"/>
<path d="M55.4951 38.5469C57.5142 38.5469 59.1662 40.0153 59.1662 42.2792C59.1662 44.7266 57.453 46.1951 55.3727 46.1951C53.1089 46.1951 51.5792 44.5431 51.5792 42.4016C51.5792 40.4436 52.9865 38.5469 55.4951 38.5469ZM55.3115 39.0364C54.2102 39.0364 53.3536 40.2601 53.3536 42.1568C53.3536 44.0536 54.2102 45.7056 55.6175 45.7056C56.6576 45.7056 57.5142 44.6654 57.5142 42.5851C57.5142 40.3824 56.5964 39.0364 55.3115 39.0364Z" fill="white"/>
<path d="M67.2426 39.0975C66.6308 39.1586 66.386 39.281 66.386 39.7705C66.3249 40.1376 66.2637 40.6271 66.2637 41.6061V46.0726H65.713L61.0629 40.5047H61.0017V43.0133C61.0017 43.9923 61.0629 44.4818 61.1241 44.8489C61.1853 45.3384 61.3688 45.5219 62.2254 45.5831V45.9502H59.4721V45.5831C60.084 45.5219 60.3287 45.3384 60.3899 44.9101C60.4511 44.543 60.5123 44.0535 60.5123 43.0745V40.7495C60.5123 40.0152 60.5123 39.7705 60.2675 39.5258C60.084 39.281 59.778 39.1586 59.3497 39.0975V38.7303H61.43L65.713 43.6252H65.7742V41.6672C65.7742 40.6883 65.713 40.1376 65.6518 39.8317C65.5906 39.3422 65.3459 39.1586 64.5505 39.0975V38.7303H67.2426V39.0975Z" fill="white"/>
<path d="M75.5027 38.6692C75.4416 38.6692 75.3192 38.8527 75.3192 38.9139C75.258 38.9751 75.1356 39.1587 75.1356 39.1587H74.3402C73.7284 38.8527 73.4224 38.8527 73.3612 38.8527C73.3001 38.8527 73.3001 39.0975 73.3001 39.0975C73.3001 39.0975 73.3001 41.6673 73.3001 42.0956C73.3001 42.4627 73.2389 43.1357 73.1165 43.6864C72.9329 44.2983 72.6882 44.6042 72.3211 45.0325C71.8928 45.4608 71.0974 45.8279 70.975 45.8891C70.8526 45.9503 70.8526 46.0115 70.8526 46.0115C70.8526 46.0115 70.7303 46.0726 71.3421 45.8891C72.0763 45.7055 72.6882 45.3384 72.9941 45.1549C74.2178 44.2983 74.2178 43.0134 74.2178 43.0134H75.3804C75.3804 43.0134 75.3804 44.6042 75.3804 44.6654C75.3804 44.7266 75.3192 44.7877 75.258 44.8489C75.1356 44.9713 74.7685 44.9713 74.585 44.9713C74.4626 44.9713 74.279 44.9713 74.279 45.0325C74.279 45.0937 74.5238 45.216 74.7073 45.3384C74.8909 45.4608 74.8909 45.7055 74.9521 45.8279C75.0133 45.9503 75.5027 46.0726 75.931 45.7055C76.3593 45.3384 76.2981 44.7266 76.2981 44.7266V39.587C76.2981 39.587 76.3593 39.5258 76.4205 39.4646C76.4817 39.4034 76.6041 39.281 76.4205 39.0363C76.0534 38.7304 75.5639 38.6692 75.5027 38.6692ZM75.3192 42.8298H74.1567C74.2178 41.8508 74.2178 41.8508 74.2178 41.1166H75.3192V42.8298V42.8298ZM75.3192 40.9331H74.2178V39.587C74.2178 39.587 74.2178 39.281 74.4014 39.281H75.258L75.3192 40.9331Z" fill="white"/>
<path d="M70.6691 43.87H71.6481V44.3594C71.6481 44.3594 71.6481 44.4818 71.7093 44.543C71.7705 44.6042 71.8928 44.6042 72.1376 44.6042C72.3823 44.6042 72.4435 44.4818 72.5047 44.4206C72.5659 44.3594 72.5659 44.1759 72.5659 44.1759V39.7705C72.5659 39.7705 72.5659 39.7093 72.627 39.7093C72.6882 39.6482 72.8718 39.587 72.8106 39.5258C72.6271 39.0975 72.1988 38.9751 72.0764 38.9139C71.954 38.8527 71.8316 38.8527 71.7705 38.9139C71.7093 38.9751 71.6481 39.0975 71.5869 39.1587C71.5257 39.2199 71.4645 39.281 71.4645 39.281H70.5468C70.5468 39.281 69.9961 38.9751 69.8737 39.0363C69.7513 39.0363 69.7513 39.2199 69.7513 39.2199V44.8489C69.7513 44.8489 69.7513 44.9713 69.8125 44.9713C69.8737 45.0325 69.9961 44.9713 70.1185 44.9713C70.2408 44.9713 70.4244 44.9713 70.5468 44.8489C70.6691 44.7266 70.6691 44.6042 70.6691 44.6042V43.87ZM70.8527 39.4034H71.6481V41.5449H70.6691V39.7093C70.6691 39.6482 70.6691 39.4034 70.8527 39.4034ZM71.6481 41.6673V43.7476H70.6691V41.6673H71.6481Z" fill="white"/>
<path d="M85.1088 40.26C85.0477 40.26 84.9865 40.3212 84.9253 40.4436C84.8641 40.5659 84.6194 40.8719 84.6194 40.8719H84.4358V39.0975C84.4358 39.0363 84.5582 38.9751 84.5582 38.9139C84.5582 38.8527 84.3746 38.7916 84.1299 38.7304C83.9463 38.7304 83.6404 38.6692 83.518 38.6692C83.3957 38.6692 83.3957 38.8527 83.3957 38.8527V40.8719H82.4779V39.7093C82.4779 39.7093 83.2121 39.4646 83.2733 39.4646C83.3957 39.4034 83.3957 39.3422 83.3345 39.3422C83.3345 39.281 83.2733 39.281 83.1509 39.2199C83.0285 39.1587 82.845 39.0363 82.6614 38.9139C82.4779 38.7916 82.4779 38.7916 82.3555 38.7916C82.2943 38.7916 82.2331 38.8527 82.1108 38.9751C81.6213 39.4646 80.7035 40.1376 80.5811 40.26C80.6423 40.3212 81.5601 40.0153 81.5601 40.0153V40.9331C81.5601 40.9331 80.3364 40.9331 80.1528 40.9331C80.0305 40.9331 80.1528 40.9942 80.214 41.0554C80.2752 41.1166 80.2752 41.1166 80.2752 41.1166H81.4989C81.4989 41.1166 81.4989 41.6061 81.4377 41.912C81.3765 42.4627 81.0706 42.9522 81.0706 42.9522V43.0134V43.0745C81.1318 43.1357 81.2542 43.0134 81.4989 42.891C81.8048 42.7074 82.0496 42.4627 82.1719 42.2179C82.3555 41.8508 82.4779 41.1778 82.4779 41.1778H83.4568C83.4568 41.1778 83.4568 43.0745 83.4568 43.1357C83.4568 43.1969 83.518 43.3193 83.824 43.3193C84.1911 43.3193 84.3134 43.1969 84.3746 43.1357C84.4358 43.0745 84.4358 42.9522 84.4358 42.9522V40.9942H85.6595C85.7207 40.9942 85.7819 40.9331 85.7819 40.8719C85.7819 40.8107 85.6595 40.6271 85.5371 40.5048C85.2924 40.3824 85.17 40.26 85.1088 40.26Z" fill="white"/>
<path d="M84.6806 44.7266C84.497 44.6042 84.4358 44.7266 84.3135 44.8489C84.2523 44.9101 83.8852 45.3996 83.8852 45.3996H83.0286V43.9923H84.2523C84.4358 43.9923 84.497 43.9923 84.6194 43.9312C84.6806 43.87 84.6194 43.7476 84.4358 43.6252C84.2523 43.4417 83.9464 43.2581 83.8852 43.2581C83.824 43.2581 83.7016 43.3805 83.7016 43.4417C83.6404 43.5029 83.4569 43.8088 83.4569 43.8088H83.0898V42.9522C83.0898 42.891 83.2733 42.8298 83.2733 42.7074C83.2733 42.6463 83.2121 42.5239 83.0898 42.4627C82.9062 42.3403 82.6003 42.3403 82.3555 42.3403C82.172 42.3403 82.172 42.5851 82.172 42.5851V43.8088H81.1318C81.0706 43.8088 80.9483 43.8088 81.0706 43.87C81.193 43.9312 81.2542 43.9312 81.2542 43.9312H82.1108V45.3384H80.0305C79.9081 45.3384 79.9693 45.3996 80.0305 45.4608C80.0917 45.4608 80.214 45.4608 80.214 45.4608H85.1089C85.1701 45.4608 85.5372 45.4608 85.2924 45.2161C84.8641 44.8489 84.7418 44.7266 84.6806 44.7266Z" fill="white"/>
<path d="M80.4587 43.6863C80.5199 43.6252 80.5199 43.5028 80.5199 43.4416C80.5199 43.3804 80.5811 43.258 80.5811 43.1357C80.5811 43.0745 80.5811 43.0133 80.5811 42.9521V42.8909C80.5811 42.8297 80.5811 42.8297 80.5811 42.7686C80.5199 42.4014 80.2752 42.0343 80.0304 41.7896C79.7245 41.4837 79.3574 41.3001 79.3574 41.3001C79.6633 40.8106 79.908 40.4435 80.0916 40.1376C80.3975 39.7093 80.5811 39.4645 80.5811 39.4645C80.5811 39.4645 80.6423 39.4034 80.5811 39.3422C80.4587 39.2198 80.0916 38.9751 79.9692 38.9139C79.7857 38.8527 79.7857 38.7915 79.7245 38.7915C79.6633 38.7915 79.6021 38.8527 79.6021 38.9139C79.5409 38.9751 79.4186 39.1586 79.4186 39.1586H79.0514C79.0514 39.1586 78.5008 38.8527 78.256 38.8527C78.1337 38.8527 78.1337 38.9751 78.1337 38.9751V45.7667C78.1337 45.8278 78.1337 45.9502 78.256 45.9502C78.4396 46.0114 78.7455 45.889 78.8067 45.8278C78.9291 45.7667 78.9291 45.5831 78.9291 45.5831V43.4416C79.3574 43.564 79.4186 43.8087 79.4186 43.9311C79.4797 44.0535 79.4186 44.2982 79.7857 44.1758C79.9692 44.1146 80.0916 44.0535 80.214 43.9923C80.2752 43.9923 80.3975 43.8699 80.4587 43.6863ZM79.7245 43.0745C79.5409 43.4416 78.9291 43.3804 78.9291 43.3804C78.9291 43.3804 78.9291 39.6481 78.9291 39.5869C78.9291 39.3422 79.1126 39.3422 79.1126 39.3422H79.5409C79.4186 40.4435 79.1126 41.4837 79.1126 41.4837C79.1126 41.4837 79.4186 41.8508 79.6021 42.0955C79.7857 42.3403 79.908 42.7686 79.7245 43.0745Z" fill="white"/>
<path d="M64.1834 20.9866C67.4262 20.4971 68.1605 18.8451 68.1605 15.9082V12.8489C68.1605 9.66727 65.5907 8.01526 60.4511 8.01526C55.3115 8.01526 52.7417 9.60608 52.7417 12.8489V16.4589C52.7417 18.9675 53.2924 20.3135 56.2905 20.803C53.3536 21.4761 52.7417 23.3116 52.7417 26.0038V29.9197C52.7417 33.1625 55.3115 34.7533 60.4511 34.7533C65.5907 34.7533 68.1605 33.1625 68.1605 29.9197V26.0038C68.1605 23.0669 67.4262 21.3537 64.1834 20.9866ZM60.3899 19.2734C59.2274 19.2734 58.6767 18.7227 58.6767 17.6826V12.543C58.6767 11.5028 59.2274 11.0133 60.3899 11.0133C61.5524 11.0133 62.1031 11.564 62.1031 12.543V17.6826C62.1643 18.7227 61.5524 19.2734 60.3899 19.2734ZM60.3899 31.6329C59.2274 31.6329 58.6767 31.0822 58.6767 30.042V24.2294C58.6767 23.1281 59.2274 22.5774 60.3899 22.5774C61.5524 22.5774 62.1031 23.1281 62.1031 24.2294V30.042C62.1643 31.1434 61.5524 31.6329 60.3899 31.6329Z" fill="white"/>
<path d="M81.6824 20.9866C84.9252 20.4971 85.6595 18.8451 85.6595 15.9082V12.8489C85.6595 9.66727 83.0897 8.01526 77.9501 8.01526C72.8105 8.01526 70.2407 9.60608 70.2407 12.8489V16.4589C70.2407 18.9675 70.7914 20.3135 73.7895 20.803C70.8526 21.4761 70.2407 23.3116 70.2407 26.0038V29.9197C70.2407 33.1625 72.8105 34.7533 77.9501 34.7533C83.0897 34.7533 85.6595 33.1625 85.6595 29.9197V26.0038C85.6595 23.0669 84.9252 21.3537 81.6824 20.9866ZM77.8889 19.2734C76.7264 19.2734 76.1757 18.7227 76.1757 17.6826V12.543C76.1757 11.5028 76.7264 11.0133 77.8889 11.0133C79.0514 11.0133 79.6021 11.564 79.6021 12.543V17.6826C79.6633 18.7227 79.0514 19.2734 77.8889 19.2734ZM77.8889 31.6329C76.7264 31.6329 76.1757 31.0822 76.1757 30.042V24.2294C76.1757 23.1281 76.7264 22.5774 77.8889 22.5774C79.0514 22.5774 79.6021 23.1281 79.6021 24.2294V30.042C79.6633 31.1434 79.0514 31.6329 77.8889 31.6329Z" fill="white"/>
</g>
<defs>
<radialGradient id="paint0_radial" cx="0" cy="0" r="1" gradientUnits="userSpaceOnUse" gradientTransform="translate(34.5029 9.4949) scale(53.354 26.6431)">
<stop stop-color="#C22127"/>
<stop offset="0.5051" stop-color="#BF2029"/>
<stop offset="1" stop-color="#C92127"/>
</radialGradient>
<clipPath id="clip0">
<rect width="261.629" height="64" fill="white" transform="translate(-0.00012207)"/>
</clipPath>
</defs>
</svg>
