<svg xmlns="http://www.w3.org/2000/svg" width="80" height="40" fill="none" viewBox="0 0 80 40">
    <path fill="#fff" d="M45.378.182h-.265v38.96h.265V.183zM65.521 10.473c-2.57 0-4.662 2.052-4.662 4.571 0 2.52 2.093 4.572 4.662 4.572 2.57 0 4.662-2.052 4.662-4.572.027-2.52-2.066-4.571-4.662-4.571z"/>
    <path fill="#92278F" d="M55.667 6.966c-.027.052-.027.104 0 .156.026.026.026.052.053.052l4.953 2.831c.053.026.106.026.16 0 .026 0 .026-.026.052-.052v-.026c.45-.805 1.086-1.506 1.908-2.052.82-.571 1.695-.909 2.622-1.065h.027c.026 0 .026 0 .053-.026.052-.026.079-.104.052-.156l-1.06-5.506c0-.026-.026-.052-.026-.052-.026-.052-.079-.078-.159-.052h-.026c-1.748.312-3.47.987-5.033 2.078-1.483.987-2.702 2.338-3.576 3.87z"/>
    <path fill="#005BAA" d="M52.832 17.616c.027.051.08.077.133.103.026 0 .053 0 .08-.026l5.35-2.026c.053-.025.106-.078.106-.13v-.077c-.344-.858-.503-1.767-.45-2.754.053-.96.344-1.87.794-2.675v-.026c0-.026.027-.026.027-.052 0-.052-.026-.13-.08-.156l-5.033-2.65c-.026 0-.053-.025-.08-.025-.052 0-.105.026-.132.078-.847 1.532-1.377 3.273-1.51 5.143-.158 1.87.133 3.662.795 5.273z"/>
    <path fill="#009BDF" d="M59.614 26.369c.053.026.106 0 .159-.052.026-.026.026-.052.026-.078l1.696-5.35c.026-.053 0-.13-.053-.157-.027-.026-.027-.026-.053-.026h-.027c-.9-.26-1.748-.7-2.464-1.35-.741-.65-1.298-1.429-1.642-2.26v-.026c0-.026-.026-.026-.026-.052-.053-.052-.106-.052-.16-.026l-5.244 2.234c-.027 0-.053.026-.053.052-.027.052-.053.104-.027.156.689 1.61 1.775 3.09 3.179 4.337 1.378 1.221 2.993 2.104 4.689 2.598z"/>
    <path fill="#00A651" d="M70.766 26.628c.053-.026.08-.077.053-.155 0-.026-.026-.052-.026-.078l-3.18-4.65c-.026-.052-.105-.078-.158-.052-.027 0-.027 0-.053.026 0 0-.027 0-.027.026-.768.52-1.642.883-2.622 1.04-.98.155-1.934.077-2.835-.157h-.079c-.053 0-.106.052-.133.104l-1.51 5.403v.078c0 .052.053.104.107.13h.026c1.722.467 3.576.597 5.43.285 1.855-.311 3.55-1.012 5.007-2z"/>
    <path fill="#FFF200" d="M78.05 18.29c0-.051-.026-.103-.079-.129-.026-.026-.053-.026-.08-.026l-5.695-.442c-.052 0-.105.026-.158.078 0 .026-.027.026-.027.052v.026c-.053.91-.318 1.818-.795 2.676-.476.857-1.139 1.558-1.88 2.078h-.027c-.026 0-.026.025-.053.051-.026.052-.026.13 0 .156l3.39 4.52.054.052c.053.026.106.026.159 0 1.43-1.013 2.702-2.364 3.602-4 .954-1.61 1.457-3.35 1.59-5.091z"/>
    <path fill="#F68B1F" d="M75.879 7.486c-.053-.026-.106-.052-.16-.026-.026 0-.052.026-.052.052l-3.947 4.077c-.027.053-.053.104-.027.156 0 .026.027.026.027.052l.026.026c.689.624 1.245 1.377 1.616 2.286.37.91.503 1.844.45 2.753v.078c.027.052.08.104.133.104l5.722.26c.026 0 .053 0 .08-.026.052-.026.079-.078.105-.13v-.026c.106-1.74-.185-3.559-.9-5.273-.69-1.688-1.775-3.169-3.073-4.363z"/>
    <path fill="#ED1C24" d="M65.892 2.473c-.053 0-.106.052-.133.104v.077l.848 5.559c0 .052.053.104.106.13h.079c.928-.156 1.881-.104 2.835.182.954.26 1.801.727 2.49 1.35h.026c.027 0 .027.026.053.026.053.026.133 0 .16-.052l3.735-4.234c.026-.025.026-.025.026-.051.026-.052 0-.104-.053-.156-1.324-1.143-2.967-2.052-4.795-2.572-1.775-.545-3.629-.65-5.377-.363z"/>
    <path fill="#000" d="M65.521 10.395c-2.622 0-4.742 2.078-4.742 4.65 0 2.57 2.12 4.648 4.742 4.648 2.623 0 4.742-2.078 4.742-4.649s-2.12-4.65-4.742-4.65zm3.444 7.272c.08-.181.106-.415.106-.571-.106.078-.186.182-.318.26-.318.233-.689.39-1.007.441l-.9-.987.662 1.143c-.186.286-.424.572-.768.831-.106.078-.212.156-.345.208.16.026.398.078.583.078-.45.156-.954.26-1.457.26-.503 0-1.007-.078-1.457-.26.212 0 .424-.026.61-.078-.107-.052-.239-.13-.345-.208-.318-.233-.583-.52-.768-.805l.662-1.143-.927.987c-.344-.078-.689-.233-1.007-.441-.106-.078-.212-.156-.318-.26.027.182.053.39.106.571-.582-.727-.927-1.636-.927-2.623v-.13c.053.208.16.39.265.546.027-.13.053-.26.106-.39.133-.39.318-.701.556-.961l1.298.26v-.026l-1.218-.546c-.027-.337 0-.701.132-1.09.053-.13.08-.26.16-.364-.16.078-.398.182-.557.311.583-.83 1.43-1.454 2.437-1.74-.185.104-.344.286-.477.416.133-.026.265-.026.398-.026.397 0 .794.078 1.112.233l.16 1.3h.026l.159-1.3c.317-.13.688-.233 1.112-.233.132 0 .265 0 .397.026-.132-.13-.291-.312-.476-.416 1.006.286 1.88.91 2.437 1.74-.16-.13-.398-.233-.557-.311.053.104.106.233.16.363.132.364.158.754.132 1.091l-1.219.546v.026l1.298-.26c.239.26.424.571.557.961.052.13.079.26.105.39.08-.156.212-.364.265-.546v.13c-.026.961-.37 1.87-.953 2.597z"/>
    <path fill="#000" d="M63.614 14.42l.742 2.208h2.357l.742-2.207-1.934-1.351-1.907 1.35z"/>
    <path fill="#fff" d="M51.8 31.875v6.234h3.628v-1.403h-1.986v-4.83h-1.643zM58.475 34.42c-.742 0-1.193.546-1.193 1.195 0 .702.45 1.273 1.166 1.273.689 0 1.245-.493 1.245-1.22-.026-.754-.556-1.247-1.218-1.247zm-2.755 1.221c0-1.402 1.06-2.623 2.463-2.623.61 0 1.007.208 1.457.597v-.519h1.51v5.013h-1.536v-.494s-.557.598-1.51.598c-1.43.026-2.384-.961-2.384-2.572zM65.707 38.109H62.05v-6.234h1.642v4.831h2.014v1.403zM67.932 38.109h-1.537v-4.987h1.537v4.987zm-1.696-6.26c0-.493.424-.909.927-.909.504 0 .928.39.928.91 0 .519-.424.934-.954.934-.503-.026-.9-.415-.9-.935zM71.137 34.317c-.715 0-1.06.571-1.06 1.195 0 .649.398 1.168 1.06 1.168.768 0 1.192-.597 1.192-1.168-.027-.65-.397-1.195-1.192-1.195zm-2.57 1.195c0-1.351.875-2.494 2.199-2.494.636 0 1.086.208 1.51.65v-.572h1.457v4.39c0 1.532-1.192 2.337-2.596 2.337-1.245 0-2.331-.623-2.49-1.74h1.722c.212.338.424.416.82.416.53 0 1.034-.234 1.034-.78v-.363c-.291.26-.848.571-1.457.571-1.298.026-2.199-1.039-2.199-2.415zM77.203 34.42c-.742 0-1.192.546-1.192 1.195 0 .702.45 1.273 1.166 1.273.688 0 1.245-.493 1.245-1.22-.027-.754-.557-1.247-1.219-1.247zm-2.755 1.221c0-1.402 1.06-2.623 2.464-2.623.609 0 1.006.208 1.457.597v-.519h1.51v5.013h-1.537v-.494s-.556.598-1.51.598c-1.43.026-2.384-.961-2.384-2.572zM12.696 30.94c.8 0 1.39.578 1.39 1.321s-.59 1.321-1.39 1.321c-.8 0-1.39-.578-1.39-1.32 0-.744.59-1.322 1.39-1.322zm0 2.105c.42 0 .8-.33.8-.784s-.337-.784-.8-.784c-.421 0-.8.33-.8.784 0 .413.379.784.8.784zM14.885 30.982h1.6v.495h-1.01v.537h.926v.495h-.926v.95h-.632V30.98h.042zM17.243 30.982h1.6v.495h-1.01v.537h.926v.495h-.927v.95h-.631V30.98h.042zM20.232 30.982v2.559h-.631v-2.56h.631zM21.032 32.261c0-.743.59-1.32 1.39-1.32.336 0 .673.123.926.288l-.295.454c-.169-.124-.337-.206-.59-.206-.42 0-.8.33-.8.784s.337.784.8.784c.253 0 .464-.123.632-.247l.337.454c-.253.206-.59.33-.926.33-.884-.041-1.474-.578-1.474-1.32zM24.737 30.982v2.559h-.631v-2.56h.631zM27.01 30.982l.885 2.559h-.632l-.168-.537h-.842l-.169.537h-.631l.884-2.56h.674zm-.336.619l-.295.908h.59l-.295-.908zM28.568 30.982h.632v2.022h.968v.537h-1.6v-2.56zM1.181 35.508c.547 0 .926.33.926.826 0 .371-.21.62-.505.743l.59.95h-.674l-.505-.867H.844v.867H.255v-2.56h.926v.041zm-.337.454v.702h.295c.253 0 .379-.165.379-.371 0-.207-.126-.372-.379-.372H.844v.041zM2.865 35.508h1.642v.496h-1.01v.495h.926v.495h-.926v.537h1.052v.495H2.865v-2.518zM5.854 36.788c0 .454.337.784.8.784.127 0 .253-.04.337-.082v-.413h-.505v-.454h1.137v1.156c-.253.206-.59.33-.969.33-.8 0-1.389-.578-1.389-1.321s.59-1.321 1.39-1.321c.336 0 .673.124.926.289l-.295.454c-.169-.124-.337-.206-.59-.206-.505-.042-.842.33-.842.784zM9.054 35.508v2.56h-.631v-2.56h.631zM11.243 35.467c.8 0 1.39.578 1.39 1.321s-.59 1.321-1.39 1.321c-.8 0-1.389-.578-1.389-1.321s.59-1.321 1.39-1.321zm0 2.105c.422 0 .8-.33.8-.784s-.336-.784-.8-.784c-.42 0-.8.33-.8.784.043.413.38.784.8.784zM13.433 35.508h.631l.884 1.61v-1.61h.59v2.56h-.674l-.884-1.61v1.61h-.59v-2.56h.043zM17.77 35.508l.883 2.56h-.631l-.169-.537h-.842l-.168.537h-.632l.885-2.56h.673zm-.338.62l-.294.908h.589l-.295-.909zM19.37 35.508H20v2.023h1.011v.537h-1.6v-2.56h-.042zM23.748 37.2v.868h-.632v-2.56h.968c.548 0 .927.33.927.826 0 .495-.38.825-.927.825h-.336v.042zm.294-1.238h-.294v.743h.294c.253 0 .38-.165.38-.371 0-.207-.17-.372-.38-.372zM27.116 35.508l.884 2.56h-.632l-.168-.537h-.842l-.169.537h-.631l.884-2.56h.674zm-.337.62l-.295.908h.59l-.295-.909zM29.642 35.508c.547 0 .926.33.926.826 0 .371-.21.62-.505.743l.59.95h-.674l-.506-.867h-.168v.867h-.59v-2.56h.927v.041zm-.337.454v.702h.295c.252 0 .379-.165.379-.371 0-.207-.127-.372-.38-.372h-.294v.041zM31.789 36.004h-.632v-.537h1.895v.537h-.632v2.023h-.631v-2.023zM33.768 35.508h.631l.884 1.61v-1.61h.59v2.56h-.632l-.884-1.61v1.61h-.59v-2.56zM36.757 35.508h1.642v.496h-1.053v.495h.927v.495h-.927v.537H38.4v.495h-1.684v-2.518h.042zM40.21 35.508c.547 0 .925.33.925.826 0 .371-.21.62-.505.743l.59.95h-.674l-.505-.867h-.168v.867h-.59v-2.56h.926v.041zm-.337.454v.702h.294c.253 0 .38-.165.38-.371 0-.207-.127-.372-.38-.372h-.294v.041z"/>
    <path fill="#CAAB72" d="M35.513 2.824H5.962v25.974h29.551V2.824z"/>
    <path fill="url(#paint0_radial)" d="M33.982 4.264H7.462v23.064h26.52V4.264z"/>
    <path fill="#fff" d="M16.895 15.689v9.373c0 .214-.062.336-.25.336-.187 0-.25-.122-.25-.336v-1.226h-.468c-.438 0-2.187 1.44-2.624 1.716-.75-.43-1.687-.858-2.406-1.103-.406.367-.687.613-.874.796-.188.184-.25.276-.344.276-.125 0-.281-.153-.281-.276 0-.122.281-.428 1.624-1.776.906-.92 1.281-2.052 1.281-3.737 0-2.818-1.218-5.207-2.624-5.207-.469 0-.687.184-.78.643-.032.245-.126.306-.25.306-.22 0-.313-.337-.313-.918 0-1.287.906-2.328 2.03-2.328.969 0 1.375.765 1.937.704v-1.899c0-.49-.187-.919-.531-1.194-.312-.245-1.937-1.348-2.53-1.348-.219 0-.313.092-.438.092-.093 0-.093-.03-.093-.062 0-.091.062-.122.218-.306l2.062-2.021c.094-.092.156-.123.25-.123.687 0 3.53 2.236 3.842 2.236.531 0 3.405-2.175 4.186-2.175.219 0 .438.184 2 1.44.25.214.78.674 1.249.95.437.245.437.306.437.796.25-.061.531-.245 2.187-1.562.469-.398 1.843-1.501 1.968-1.501s1.28.46 2.968 1.164c.5.214.562.245.562.582v13.354c0 .43.062.582.25.766.78.674 1.25.95 1.5.95.093 0 .187-.031.25-.092.124-.184.155-.215.25-.215.093 0 .155.092.155.215 0 .153-1.187 1.623-2.374 2.542-.718-.245-2-1.103-2.686-1.838-.25-.245-.282-.306-.282-.765V13.33c0-1.102.344-1.868 1.656-3.583.687-.858.719-1.134.594-1.134-.094 0-1.687 1.134-2 1.317-1.405-.796-1.843-1.041-2.592-1.041-.406 0-.688.214-.688.46v15.896c0 .215-.093.368-.25.368-.124 0-.218-.123-.218-.337v-1.195c-1.125.184-2.03 1.47-2.28 1.47-.282 0-2-2.02-2-2.174v-7.688h-3.03zm-.468-6.586c0-.52-.063-.704-.157-.704-.25 0-1.062.52-1.062.704v7.168c0 3.522-.437 3.92-1.374 4.87-.438.429-.531.551-.844.919.531.766 2.374 1.103 3.405 1.041V9.103h.032zm.468 4.136h3.061v-2.85c0-.55-1.968-2.02-2.624-2.02-.28 0-.437.183-.437.52v4.35zm7.341-3.645c0-.062-.031-.092-.094-.092-.093 0-.218.06-.28.092l-.625.367c-.344.214-.438.306-.438.46v2.603c0 .184.25.306.438.306h1.03l-.03-3.736zm0 6.064h-1c-.28 0-.437.215-.437.613v5.299c0 1.041.438 1.531 1.406 1.623v-7.535h.031z"/>
    <defs>
        <radialGradient id="paint0_radial" cx="0" cy="0" r="1" gradientTransform="matrix(47.0623 0 0 23.0434 21.293 5.495)" gradientUnits="userSpaceOnUse">
            <stop stop-color="#C22127"/>
            <stop offset=".505" stop-color="#BF2029"/>
            <stop offset="1" stop-color="#C92127"/>
        </radialGradient>
    </defs>
</svg>
