<svg width="104" height="25" viewBox="0 0 104 25" fill="none" xmlns="http://www.w3.org/2000/svg">
<path d="M16.3724 12.6313C16.3724 10.3391 14.5087 8.46863 12.2008 8.46863C9.90378 8.46863 8.0293 10.3391 8.0293 12.6313C8.0293 14.9234 9.90378 16.7939 12.2008 16.7939C14.5087 16.7831 16.3724 14.9234 16.3724 12.6313Z" fill="#FCFCFC"/>
<path d="M16.3724 12.6313C16.3724 10.3391 14.5087 8.46863 12.2008 8.46863C9.90378 8.46863 8.0293 10.3391 8.0293 12.6313C8.0293 14.9234 9.90378 16.7939 12.2008 16.7939C14.5087 16.7831 16.3724 14.9234 16.3724 12.6313ZM16.0365 12.5015C16.0365 12.5448 16.0365 12.5772 16.0365 12.6205C16.0365 13.5071 15.7331 14.318 15.2347 14.9667C15.2997 14.7937 15.3105 14.5991 15.343 14.4477C15.2563 14.5234 15.1697 14.5991 15.0721 14.6748C14.7904 14.8802 14.4762 15.0207 14.1728 15.0856L13.371 14.2098L13.3602 14.2207L13.9453 15.2586C13.7936 15.5289 13.5661 15.7776 13.2735 15.9938C13.176 16.0695 13.0785 16.1236 12.9701 16.1776C13.1218 16.1993 13.3168 16.2425 13.4902 16.2425C13.0893 16.3831 12.6559 16.4696 12.2008 16.4696C11.7458 16.4696 11.3123 16.3939 10.9114 16.2425C11.0956 16.2533 11.2798 16.2101 11.4424 16.1776C11.3449 16.1236 11.2365 16.0587 11.139 15.9938C10.8464 15.7776 10.6189 15.5289 10.4672 15.2586L11.0523 14.2207L11.0415 14.2098L10.2397 15.0856C9.93628 15.0207 9.6329 14.891 9.34035 14.6748C9.24283 14.6099 9.15615 14.5342 9.06947 14.4477C9.09114 14.5991 9.11281 14.8045 9.17782 14.9667C8.66857 14.318 8.36519 13.5071 8.36519 12.6205C8.36519 12.5772 8.36519 12.5448 8.36519 12.5015C8.40853 12.6853 8.51688 12.8583 8.59273 12.9989C8.6144 12.8908 8.6469 12.7718 8.67941 12.6529C8.78776 12.3069 8.96112 12.015 9.17782 11.7879L10.3263 12.0258L10.3372 12.015L9.25367 11.5284C9.22116 11.2257 9.25367 10.8905 9.36202 10.5554C9.39453 10.4364 9.43787 10.3283 9.49204 10.231C9.34035 10.2959 9.14532 10.3824 9.00446 10.5121C9.50288 9.76608 10.2722 9.20385 11.1607 8.95517C10.9981 9.05248 10.8464 9.21466 10.7381 9.33359C10.8464 9.32278 10.9656 9.31197 11.0956 9.31197C11.4532 9.31197 11.7891 9.38765 12.0708 9.50659L12.2008 10.6635H12.2117L12.3417 9.49578C12.6234 9.37684 12.9485 9.30116 13.306 9.30116C13.4252 9.30116 13.5444 9.31197 13.6636 9.32278C13.5444 9.20385 13.4035 9.04167 13.241 8.94436C14.1295 9.19304 14.8879 9.75526 15.3972 10.5013C15.2563 10.3824 15.0613 10.2959 14.9096 10.2202C14.9638 10.3175 15.0071 10.4364 15.0396 10.5445C15.148 10.8797 15.1805 11.2149 15.148 11.5176L14.0753 12.0042L14.0861 12.015L15.2347 11.7771C15.4405 12.0042 15.6139 12.2961 15.7223 12.6421C15.7548 12.761 15.7873 12.8691 15.8089 12.9881C15.8848 12.8583 15.9931 12.6853 16.0365 12.5015ZM13.2518 14.0585L13.8911 12.0799L12.2008 10.8581L10.5105 12.0799L11.1607 14.0585H13.2518Z" fill="#010202"/>
<path d="M3.5112 5.38717C3.48953 5.43042 3.48953 5.48448 3.52203 5.52772C3.53287 5.54935 3.55454 5.56016 3.57621 5.57097L7.93193 8.101L7.94277 8.11181C7.98611 8.13343 8.04029 8.13343 8.09446 8.101C8.1053 8.09018 8.11613 8.07937 8.12697 8.06856C8.1378 8.05775 8.1378 8.05775 8.1378 8.04694C8.5387 7.34415 9.10213 6.70624 9.80642 6.19807C10.5215 5.6899 11.3125 5.37635 12.1143 5.2358C12.1251 5.2358 12.1251 5.2358 12.136 5.2358C12.1576 5.2358 12.1685 5.22499 12.1901 5.21417C12.2335 5.18174 12.2552 5.12768 12.2443 5.07362V5.0628L11.3233 0.121688V0.110876C11.3125 0.0892519 11.3125 0.0676277 11.3017 0.0568156C11.2692 0.0135674 11.2258 -0.00805679 11.1716 0.00275528C11.1608 0.00275528 11.1608 0.00275528 11.1608 0.00275528C9.62222 0.283869 8.09446 0.889345 6.74007 1.85162C5.36401 2.81389 4.29133 4.02485 3.5112 5.38717Z" fill="#92278F"/>
<path d="M1.02983 14.9342C1.0515 14.9775 1.09484 15.0099 1.14901 15.0207C1.17068 15.0207 1.19235 15.0207 1.21402 15.0099L5.91648 13.2043H5.92731C5.97065 13.1827 6.00316 13.1394 6.01399 13.0854C6.01399 13.0638 6.01399 13.0529 6.00316 13.0313C6.00316 13.0205 5.99232 13.0097 5.99232 13.0097C5.68894 12.2529 5.54808 11.4203 5.59142 10.5554C5.6456 9.67958 5.89481 8.86867 6.28487 8.15508L6.29571 8.14427C6.30654 8.13345 6.30654 8.11183 6.30654 8.09021C6.30654 8.03614 6.28487 7.98208 6.24153 7.96046L6.2307 7.94965L1.78829 5.57099H1.77745C1.75578 5.56018 1.73411 5.56018 1.71244 5.56018C1.65826 5.56018 1.61492 5.5818 1.59325 5.62505C1.59325 5.63586 1.59325 5.63586 1.58242 5.63586C0.856463 6.98737 0.379717 8.56594 0.2822 10.2202C0.173849 11.8852 0.444728 13.4854 1.02983 14.9342Z" fill="#005BAA"/>
<path d="M6.99994 22.7838C7.05412 22.7946 7.09746 22.7838 7.1408 22.7406C7.16247 22.719 7.1733 22.7081 7.1733 22.6757L8.66855 17.8752V17.8643C8.67939 17.8103 8.66855 17.7562 8.62521 17.7238C8.61438 17.713 8.59271 17.7022 8.58187 17.7022C8.57104 17.7022 8.57104 17.6913 8.5602 17.6913C7.78007 17.4535 7.03245 17.0534 6.38234 16.4696C5.73223 15.8857 5.24465 15.1938 4.93043 14.4369C4.93043 14.4261 4.93043 14.4261 4.91959 14.4261C4.90876 14.4045 4.89792 14.3937 4.88709 14.3828C4.84375 14.3504 4.78957 14.3396 4.7354 14.3612H4.72456L0.0979553 16.3615L0.0871202 16.3723C0.0654499 16.3831 0.0546147 16.3939 0.0329445 16.4047C0.000439022 16.448 -0.0103961 16.502 0.0112742 16.5453C0.0112742 16.5561 0.0112742 16.5561 0.0221093 16.5561C0.639712 17.9941 1.57153 19.3348 2.81758 20.4484C4.07445 21.5513 5.50469 22.3297 6.99994 22.7838Z" fill="#009BDF"/>
<path d="M16.827 23.0109C16.8704 22.9785 16.892 22.9352 16.8812 22.8812C16.8812 22.8595 16.8704 22.8379 16.8595 22.8163L14.0532 18.6428L14.0424 18.632C14.0099 18.5888 13.9557 18.5671 13.9015 18.578C13.8799 18.578 13.869 18.5888 13.8474 18.5996C13.8365 18.5996 13.8365 18.6104 13.8257 18.6104C13.1539 19.0753 12.3738 19.3997 11.507 19.5402C10.6402 19.6808 9.79502 19.6159 9.00405 19.3889C8.99322 19.3889 8.99322 19.3889 8.98238 19.3889C8.96071 19.378 8.94988 19.378 8.9282 19.3889C8.87403 19.3997 8.83069 19.4429 8.81985 19.4862V19.497L7.48713 24.3408V24.3516C7.4763 24.3732 7.4763 24.3948 7.48713 24.4165C7.49797 24.4705 7.53047 24.503 7.58465 24.5246C7.59548 24.5246 7.59548 24.5246 7.59548 24.5246C9.10157 24.9463 10.7377 25.0652 12.3846 24.7949C14.0316 24.5138 15.5268 23.8975 16.827 23.0109Z" fill="#00A651"/>
<path d="M23.22 15.5289C23.22 15.4748 23.1984 15.4316 23.155 15.3991C23.1334 15.3883 23.1117 15.3775 23.09 15.3775L18.0625 14.9883H18.0517C17.9975 14.9883 17.9433 15.0099 17.9217 15.064C17.9108 15.0856 17.9108 15.0964 17.9108 15.118C17.9108 15.1288 17.9108 15.1288 17.9108 15.1396C17.8567 15.9506 17.6291 16.7723 17.2065 17.5291C16.784 18.2968 16.2097 18.9239 15.5379 19.3996C15.5271 19.3996 15.5271 19.4104 15.5271 19.4104C15.5163 19.4212 15.5054 19.432 15.4946 19.4537C15.4729 19.5077 15.4729 19.5618 15.5054 19.605L15.5163 19.6158L18.4959 23.6704V23.6812C18.5068 23.692 18.5284 23.7136 18.5501 23.7136C18.5934 23.7352 18.6476 23.7352 18.691 23.7028C18.7018 23.7028 18.7018 23.7028 18.7018 23.692C19.9695 22.773 21.0747 21.562 21.8765 20.1024C22.6675 18.6428 23.1117 17.0858 23.22 15.5289Z" fill="#FFF200"/>
<path d="M21.3237 5.85209C21.2912 5.81965 21.2262 5.80884 21.1829 5.83046C21.1612 5.84128 21.1395 5.85209 21.1287 5.87371L17.6615 9.52819L17.6506 9.539C17.6181 9.57144 17.6073 9.63631 17.629 9.67956C17.6398 9.70119 17.6506 9.712 17.6506 9.72281C17.6615 9.73362 17.6615 9.73362 17.6723 9.73362C18.2682 10.285 18.7558 10.977 19.0917 11.7879C19.4167 12.5988 19.5468 13.4422 19.4926 14.2531C19.4926 14.2639 19.4926 14.2639 19.4926 14.2747C19.4926 14.2963 19.4926 14.3071 19.5034 14.3288C19.5251 14.3828 19.5684 14.4153 19.6226 14.4153H19.6335L24.661 14.6531H24.6718C24.6935 14.6531 24.7151 14.6531 24.7368 14.6423C24.791 14.6207 24.8126 14.5774 24.8235 14.5234V14.5126C24.9102 12.9556 24.661 11.3338 24.0325 9.78768C23.4041 8.25237 22.4723 6.92248 21.3237 5.85209Z" fill="#F68B1F"/>
<path d="M12.5152 1.3543C12.461 1.36511 12.4177 1.39755 12.4068 1.45161C12.396 1.47323 12.396 1.50567 12.396 1.51648L13.1328 6.49003V6.50084C13.1436 6.5549 13.1761 6.59815 13.2303 6.60897C13.252 6.61978 13.2628 6.61978 13.2845 6.61978C13.2953 6.61978 13.3061 6.61978 13.3061 6.60897C14.1188 6.47922 14.9639 6.52247 15.7982 6.76033C16.6434 6.9982 17.3802 7.41987 17.9978 7.96047L18.0086 7.97129C18.0194 7.9821 18.0411 7.99291 18.0519 7.99291C18.1061 8.01454 18.1603 7.99291 18.1928 7.94966L18.2036 7.93885L21.4975 4.133L21.5084 4.12219C21.5192 4.11138 21.53 4.08975 21.5409 4.06813C21.5517 4.01407 21.5409 3.97082 21.5084 3.92757L21.4975 3.91676C20.3165 2.88961 18.8862 2.08952 17.2826 1.6246C15.6899 1.20293 14.0646 1.11643 12.5152 1.3543Z" fill="#ED1C24"/>
<path d="M65.033 17.3886V10.6851H63.0501V11.377C62.4542 10.8256 61.9558 10.5553 61.1431 10.5553C59.3012 10.5553 57.9359 12.2096 57.9359 14.0693C57.9359 16.2209 59.1928 17.5507 61.0348 17.5507C62.2917 17.5507 63.0176 16.729 63.0176 16.729V17.3886H65.033ZM63.126 14.0909C63.126 15.064 62.3783 15.7235 61.4899 15.7235C60.558 15.7235 59.9838 14.9558 59.9838 14.026C59.9838 13.1394 60.5905 12.4258 61.5549 12.4258C62.4325 12.4366 63.126 13.107 63.126 14.0909ZM57.0908 16.5993V10.6959H55.173V11.4419C54.5987 10.8364 54.0353 10.5553 53.1901 10.5553C51.4457 10.5553 50.308 12.0906 50.308 13.9071C50.308 15.7343 51.4673 17.1723 53.1793 17.1723C53.9703 17.1723 54.6854 16.7506 55.0755 16.3938C55.0971 16.5668 55.0863 16.7182 55.0863 16.8912C55.0863 17.6264 54.4362 17.9508 53.7427 17.9508C53.2443 17.9508 52.9626 17.8643 52.6917 17.3994H50.438C50.6547 18.9131 52.0741 19.7348 53.6994 19.7348C55.5522 19.7456 57.0908 18.6644 57.0908 16.5993ZM55.1838 13.9071C55.1838 14.6639 54.6529 15.4748 53.6452 15.4748C52.7567 15.4748 52.2583 14.7612 52.2583 13.9071C52.2583 13.0745 52.7242 12.2961 53.6561 12.2961C54.6854 12.2961 55.1838 13.0097 55.1838 13.9071ZM49.6687 8.96596C49.6687 8.2848 49.1161 7.755 48.4552 7.755C47.7942 7.755 47.2525 8.31723 47.2525 8.98758C47.2525 9.67955 47.7834 10.2093 48.4335 10.2093C49.127 10.2093 49.6687 9.64712 49.6687 8.96596ZM41.8024 17.3886H46.559V15.4856H43.9586V9.02002H41.8024V17.3886ZM38.606 17.3886H40.6214V10.6851H38.6385V11.377C38.0426 10.8256 37.5442 10.5553 36.7315 10.5553C34.8896 10.5553 33.5243 12.2096 33.5243 14.0693C33.5243 16.2209 34.7812 17.5507 36.6232 17.5507C37.8801 17.5507 38.606 16.729 38.606 16.729V17.3886ZM38.7035 14.0909C38.7035 15.064 37.9668 15.7235 37.0674 15.7235C36.1465 15.7235 35.5614 14.9558 35.5614 14.026C35.5614 13.1394 36.179 12.4258 37.1325 12.4258C38.0101 12.4366 38.7035 13.107 38.7035 14.0909ZM28.4102 17.3886H33.1668V15.4856H30.5664V9.02002H28.4102V17.3886ZM49.452 10.6851H47.4475V17.3886H49.452V10.6851Z" fill="white"/>
<path d="M69.8871 18.1019L66.4121 9.16028H68.1555L70.5668 15.9625L72.9721 9.16028H74.7155L71.2582 18.1019H69.8871Z" fill="url(#paint0_linear)"/>
<path d="M75.5492 18.1019V11.3942H77.1567V18.1019H75.5492ZM75.7147 10.62V9.46168H76.9971V10.62H75.7147Z" fill="url(#paint1_linear)"/>
<path d="M78.5577 18.1019V11.3942H80.0174V12.0029H80.0411C80.2223 11.7114 80.4252 11.5026 80.6498 11.3765C80.8783 11.2465 81.1561 11.1815 81.4831 11.1815H81.6072V12.7417C81.2211 12.7417 80.8941 12.8461 80.6262 13.0549C80.4843 13.1691 80.3799 13.2992 80.3129 13.4449C80.246 13.5868 80.2046 13.7345 80.1888 13.8882C80.1731 14.0418 80.1652 14.2408 80.1652 14.4851V18.1019H78.5577Z" fill="url(#paint2_linear)"/>
<path d="M82.7777 18.1019V12.8244H81.9858V11.3942H82.7777V9.16028H84.3852V11.3942H85.3545V12.8244H84.3852V18.1019H82.7777Z" fill="url(#paint3_linear)"/>
<path d="M90.6206 11.3942H92.228V18.1019H90.7506V17.3868H90.7269C90.4078 18.0093 89.8404 18.3206 89.0249 18.3206C88.6191 18.3206 88.233 18.2438 87.8665 18.0901C87.5001 17.9325 87.179 17.6981 86.9032 17.3868C86.7141 17.1859 86.5723 16.9731 86.4777 16.7486C86.3871 16.524 86.328 16.2896 86.3004 16.0453C86.2768 15.7971 86.265 15.5095 86.265 15.1824V11.3942H87.8725V14.686C87.8725 15.3243 87.9414 15.7813 88.0793 16.0571C88.1896 16.2738 88.3472 16.4432 88.5521 16.5654C88.757 16.6875 88.9815 16.7486 89.2258 16.7486C89.7774 16.7486 90.1478 16.5575 90.3369 16.1753C90.526 15.7892 90.6206 15.2928 90.6206 14.686V11.3942Z" fill="url(#paint4_linear)"/>
<path d="M100.425 11.3942V18.1019H98.948V17.1918H98.9243C98.68 17.5346 98.3452 17.8084 97.9196 18.0133C97.4981 18.2181 97.0745 18.3206 96.649 18.3206C96.1487 18.3206 95.6877 18.2221 95.2661 18.0251C94.8445 17.8281 94.4821 17.5503 94.1787 17.1918C93.6192 16.522 93.3395 15.7084 93.3395 14.751C93.3395 14.4516 93.3671 14.16 93.4222 13.8764C93.4813 13.5887 93.5719 13.3228 93.6941 13.0785C93.8202 12.8303 93.9896 12.5841 94.2023 12.3398C94.5412 11.9458 94.9174 11.6542 95.3311 11.4651C95.7487 11.276 96.2038 11.1815 96.6963 11.1815C97.1573 11.1815 97.5808 11.28 97.9669 11.4769C98.357 11.6739 98.684 11.9616 98.948 12.3398V11.3942H100.425ZM98.8948 14.7392C98.8948 14.4555 98.8475 14.1935 98.7529 13.9532C98.6584 13.7089 98.5264 13.4981 98.357 13.3208C98.1876 13.1435 97.9827 13.0056 97.7423 12.9071C97.502 12.8047 97.242 12.7535 96.9622 12.7535C96.3752 12.7535 95.8926 12.9485 95.5143 13.3386C95.14 13.7247 94.9529 14.2152 94.9529 14.8101C94.9529 15.3538 95.1479 15.8128 95.538 16.1871C95.928 16.5614 96.3949 16.7486 96.9386 16.7486C97.3168 16.7486 97.6557 16.6619 97.9551 16.4885C98.2545 16.3112 98.485 16.0709 98.6466 15.7675C98.812 15.4602 98.8948 15.1174 98.8948 14.7392Z" fill="url(#paint5_linear)"/>
<path d="M101.726 18.1019V9.16028H103.333V18.1019H101.726Z" fill="url(#paint6_linear)"/>
<defs>
<linearGradient id="paint0_linear" x1="64.7582" y1="20.9261" x2="112.933" y2="20.9261" gradientUnits="userSpaceOnUse">
<stop stop-color="#A87D35"/>
<stop offset="1" stop-color="#D5AF71"/>
</linearGradient>
<linearGradient id="paint1_linear" x1="64.7582" y1="20.9261" x2="112.933" y2="20.9261" gradientUnits="userSpaceOnUse">
<stop stop-color="#A87D35"/>
<stop offset="1" stop-color="#D5AF71"/>
</linearGradient>
<linearGradient id="paint2_linear" x1="64.7582" y1="20.9261" x2="112.933" y2="20.9261" gradientUnits="userSpaceOnUse">
<stop stop-color="#A87D35"/>
<stop offset="1" stop-color="#D5AF71"/>
</linearGradient>
<linearGradient id="paint3_linear" x1="64.7582" y1="20.9261" x2="112.933" y2="20.9261" gradientUnits="userSpaceOnUse">
<stop stop-color="#A87D35"/>
<stop offset="1" stop-color="#D5AF71"/>
</linearGradient>
<linearGradient id="paint4_linear" x1="64.7582" y1="20.9261" x2="112.933" y2="20.9261" gradientUnits="userSpaceOnUse">
<stop stop-color="#A87D35"/>
<stop offset="1" stop-color="#D5AF71"/>
</linearGradient>
<linearGradient id="paint5_linear" x1="64.7582" y1="20.9261" x2="112.933" y2="20.9261" gradientUnits="userSpaceOnUse">
<stop stop-color="#A87D35"/>
<stop offset="1" stop-color="#D5AF71"/>
</linearGradient>
<linearGradient id="paint6_linear" x1="64.7582" y1="20.9261" x2="112.933" y2="20.9261" gradientUnits="userSpaceOnUse">
<stop stop-color="#A87D35"/>
<stop offset="1" stop-color="#D5AF71"/>
</linearGradient>
</defs>
</svg>
