<?xml version="1.0" encoding="utf-8"?>
<!-- Generator: Adobe Illustrator 16.0.2, SVG Export Plug-In . SVG Version: 6.00 Build 0)  -->
<!DOCTYPE svg PUBLIC "-//W3C//DTD SVG 1.1//EN" "http://www.w3.org/Graphics/SVG/1.1/DTD/svg11.dtd">
<svg version="1.1" id="Layer_1" xmlns="http://www.w3.org/2000/svg" xmlns:xlink="http://www.w3.org/1999/xlink" x="0px" y="0px"
	 width="93.333px" height="25px" viewBox="0 0 93.333 25" enable-background="new 0 0 93.333 25" xml:space="preserve">
<path fill="#FFFFFF" d="M29.989,14.406h2.593c0.058,0.486,0.196,0.867,0.413,1.142c0.328,0.429,0.794,0.642,1.397,0.642
	c0.528,0,0.958-0.166,1.292-0.5s0.501-0.754,0.501-1.258c0-0.354-0.079-0.65-0.237-0.888c-0.153-0.233-0.399-0.442-0.739-0.624
	c-0.181-0.1-0.82-0.363-1.915-0.79c-0.745-0.288-1.301-0.59-1.67-0.906c-0.364-0.316-0.648-0.712-0.853-1.186
	c-0.205-0.475-0.308-0.99-0.308-1.547c0-0.71,0.17-1.363,0.51-1.96c0.34-0.604,0.815-1.07,1.424-1.398
	c0.615-0.334,1.263-0.5,1.942-0.5c0.61,0,1.172,0.12,1.688,0.36c0.515,0.24,0.937,0.536,1.265,0.887
	c0.33,0.352,0.572,0.73,0.73,1.134c0.158,0.399,0.258,0.87,0.299,1.415h-2.514c-0.076-0.492-0.196-0.838-0.36-1.037
	c-0.252-0.305-0.615-0.457-1.09-0.457c-0.428,0-0.77,0.129-1.028,0.387c-0.258,0.252-0.387,0.583-0.387,0.993
	c0,0.445,0.152,0.797,0.457,1.055c0.228,0.193,0.72,0.419,1.476,0.676c0.756,0.252,1.301,0.47,1.635,0.65
	c0.51,0.276,0.911,0.587,1.204,0.932c0.302,0.34,0.529,0.739,0.688,1.196c0.164,0.449,0.246,0.955,0.246,1.511
	c0,1.399-0.533,2.5-1.602,3.296c-0.767,0.575-1.653,0.862-2.663,0.862c-0.515,0-1.016-0.082-1.503-0.246
	c-0.48-0.165-0.908-0.39-1.283-0.677c-0.375-0.293-0.68-0.615-0.914-0.967c-0.234-0.354-0.407-0.727-0.518-1.117
	C30.083,15.2,30.024,14.839,29.989,14.406z M40.431,18.22V4.896h3.349c0.845,0,1.497,0.044,1.96,0.132
	c0.463,0.082,0.873,0.222,1.23,0.422c0.362,0.193,0.696,0.463,1.002,0.808c0.31,0.346,0.551,0.75,0.72,1.213
	c0.17,0.457,0.256,0.976,0.256,1.556c0,0.879-0.207,1.643-0.623,2.294c-0.41,0.65-0.938,1.117-1.583,1.397
	c-0.639,0.281-1.626,0.423-2.962,0.423H42.9v5.079H40.431z M42.9,10.837h0.79c1.044,0,1.768-0.149,2.172-0.448
	c0.41-0.304,0.615-0.762,0.615-1.37c0-0.388-0.1-0.725-0.299-1.012c-0.199-0.287-0.477-0.492-0.836-0.615
	c-0.35-0.123-0.873-0.184-1.563-0.184h-0.88L42.9,10.837L42.9,10.837z M49.124,11.593c0-0.925,0.172-1.81,0.52-2.654
	c0.346-0.844,0.818-1.57,1.424-2.18c0.604-0.61,1.271-1.09,2.004-1.441c0.95-0.457,1.957-0.686,3.021-0.686
	c0.996,0,1.924,0.194,2.777,0.58c0.855,0.381,1.57,0.868,2.146,1.46c0.579,0.585,1.031,1.224,1.359,1.915
	c0.453,0.938,0.68,1.934,0.68,2.989c0,0.785-0.123,1.525-0.369,2.223c-0.24,0.698-0.563,1.316-0.969,1.855
	c-0.396,0.533-0.879,1.016-1.439,1.449c-0.558,0.435-1.199,0.771-1.936,1.021c-0.73,0.246-1.48,0.369-2.25,0.369
	c-1.043,0-1.987-0.197-2.84-0.591c-0.85-0.397-1.563-0.889-2.144-1.478c-0.573-0.592-1.021-1.227-1.336-1.905
	C49.338,13.582,49.124,12.607,49.124,11.593z M51.592,11.576c0,0.638,0.117,1.232,0.352,1.783c0.235,0.551,0.543,1.029,0.926,1.434
	c0.385,0.404,0.852,0.738,1.396,1.001c0.551,0.265,1.159,0.396,1.827,0.396c0.773,0,1.516-0.199,2.225-0.604
	c0.709-0.401,1.268-0.974,1.67-1.705c0.404-0.729,0.605-1.502,0.605-2.311s-0.201-1.58-0.605-2.312
	c-0.402-0.738-0.961-1.31-1.67-1.714c-0.703-0.404-1.443-0.606-2.225-0.606c-0.68,0-1.288,0.132-1.827,0.396
	c-0.533,0.257-0.999,0.591-1.396,1.002c-0.4,0.41-0.714,0.902-0.941,1.476C51.704,10.377,51.592,10.966,51.592,11.576L51.592,11.576
	z M64.793,18.22V4.896h4.086c1.016,0,1.848,0.135,2.496,0.404c0.445,0.182,0.845,0.449,1.195,0.8
	c0.352,0.346,0.631,0.724,0.835,1.134c0.287,0.562,0.431,1.178,0.431,1.846c0,0.591-0.108,1.148-0.334,1.67
	c-0.215,0.521-0.494,0.955-0.834,1.3c-0.34,0.341-0.703,0.604-1.09,0.791c-0.388,0.188-0.851,0.343-1.39,0.466l3.621,4.913h-2.988
	l-3.524-5.097h-0.033v5.097H64.793z M67.264,7.208v4.069h1.581c0.491,0,0.94-0.094,1.346-0.281c0.3-0.141,0.545-0.37,0.738-0.686
	c0.192-0.316,0.288-0.67,0.288-1.063c0-0.387-0.096-0.745-0.288-1.073c-0.193-0.328-0.45-0.571-0.773-0.73
	c-0.321-0.157-0.759-0.236-1.311-0.236H67.264z M76.237,18.22V7.208h-2.47V4.896h7.418v2.312h-2.487V18.22H76.237z M81.44,14.406
	h2.594c0.057,0.486,0.195,0.867,0.412,1.142c0.328,0.429,0.795,0.642,1.396,0.642c0.529,0,0.959-0.166,1.293-0.5
	s0.5-0.754,0.5-1.258c0-0.354-0.078-0.65-0.236-0.888c-0.152-0.233-0.398-0.442-0.738-0.624c-0.182-0.1-0.82-0.363-1.916-0.79
	c-0.744-0.288-1.301-0.59-1.67-0.906c-0.363-0.316-0.647-0.712-0.853-1.186c-0.205-0.475-0.308-0.99-0.308-1.547
	c0-0.71,0.17-1.363,0.51-1.96c0.34-0.604,0.813-1.07,1.424-1.398c0.615-0.334,1.263-0.5,1.943-0.5c0.606,0,1.17,0.12,1.687,0.36
	c0.517,0.24,0.938,0.536,1.267,0.887c0.327,0.352,0.57,0.73,0.729,1.134c0.157,0.399,0.258,0.87,0.299,1.415h-2.515
	c-0.075-0.492-0.195-0.838-0.359-1.037c-0.252-0.305-0.613-0.457-1.09-0.457c-0.43,0-0.771,0.129-1.027,0.387
	c-0.259,0.252-0.388,0.583-0.388,0.993c0,0.445,0.151,0.797,0.457,1.055c0.229,0.193,0.721,0.419,1.478,0.676
	c0.756,0.252,1.301,0.47,1.635,0.65c0.511,0.276,0.912,0.587,1.205,0.932c0.297,0.34,0.525,0.739,0.686,1.196
	c0.164,0.449,0.246,0.955,0.246,1.511c0,1.399-0.533,2.5-1.6,3.296c-0.77,0.575-1.655,0.862-2.664,0.862
	c-0.517,0-1.018-0.082-1.502-0.246c-0.48-0.165-0.91-0.39-1.285-0.677c-0.375-0.293-0.678-0.615-0.913-0.967
	c-0.233-0.354-0.406-0.727-0.519-1.117C81.534,15.2,81.477,14.839,81.44,14.406L81.44,14.406z"/>
<g>
	<g>
		<g>
			<g>
				<defs>
					<rect id="SVGID_1_" x="2.22" y="0.722" width="23.938" height="21.303"/>
				</defs>
				<clipPath id="SVGID_2_">
					<use xlink:href="#SVGID_1_"  overflow="visible"/>
				</clipPath>
				<g clip-path="url(#SVGID_2_)">
					
						<linearGradient id="SVGID_3_" gradientUnits="userSpaceOnUse" x1="-2.6113" y1="816.5049" x2="-2.6113" y2="840.1643" gradientTransform="matrix(1 0 0 1 16.7998 -815.6797)">
						<stop  offset="0" style="stop-color:#FECF82"/>
						<stop  offset="0.22" style="stop-color:#FECF82"/>
						<stop  offset="0.26" style="stop-color:#FECF82"/>
						<stop  offset="0.36" style="stop-color:#FCCD81"/>
						<stop  offset="0.39" style="stop-color:#F7C67C"/>
						<stop  offset="0.42" style="stop-color:#EDBB73"/>
						<stop  offset="0.44" style="stop-color:#DEAA67"/>
						<stop  offset="0.46" style="stop-color:#CC9457"/>
						<stop  offset="0.48" style="stop-color:#AF723E"/>
						<stop  offset="1" style="stop-color:#FECF82"/>
					</linearGradient>
					<path fill="url(#SVGID_3_)" d="M26.157,0.722H2.22v21.303h23.938V0.722z"/>
					
						<linearGradient id="SVGID_4_" gradientUnits="userSpaceOnUse" x1="-2.6113" y1="817.4736" x2="-2.6113" y2="838.9587" gradientTransform="matrix(1 0 0 1 16.7998 -815.6797)">
						<stop  offset="0" style="stop-color:#D6B26D"/>
						<stop  offset="0.17" style="stop-color:#E1C18B"/>
						<stop  offset="0.4" style="stop-color:#EED3AD"/>
						<stop  offset="0.62" style="stop-color:#F7DFC5"/>
						<stop  offset="0.83" style="stop-color:#FCE6D4"/>
						<stop  offset="0.99" style="stop-color:#FEE9D9"/>
					</linearGradient>
					<path fill="url(#SVGID_4_)" d="M25.15,1.704H3.227v19.348H25.15V1.704z"/>
					
						<radialGradient id="SVGID_5_" cx="-512.2476" cy="20.2207" r="0.4741" gradientTransform="matrix(80.5091 0 0 40.2545 41255.2734 -811.0276)" gradientUnits="userSpaceOnUse">
						<stop  offset="0" style="stop-color:#F95346"/>
						<stop  offset="0.19" style="stop-color:#DC3631"/>
						<stop  offset="0.38" style="stop-color:#C62021"/>
						<stop  offset="0.51" style="stop-color:#BE181B"/>
						<stop  offset="1" style="stop-color:#C7120C"/>
					</radialGradient>
					<path fill="url(#SVGID_5_)" d="M24.917,1.909H3.453v18.929h21.465V1.909z"/>
					<path opacity="0.65" fill="#630B0B" enable-background="new    " d="M3.453,1.909v18.929h21.473V1.909H3.453z M24.756,20.729
						H3.641V2.136h21.096L24.756,20.729z"/>
					<path opacity="0.81" fill="#630B0B" enable-background="new    " d="M11.096,11.742v7.695c0,0.169-0.045,0.273-0.194,0.273
						s-0.214-0.104-0.214-0.273v-1.021h-0.374c-0.354,0-1.775,1.189-2.11,1.421c-0.613-0.362-1.266-0.667-1.938-0.911
						c-0.316,0.297-0.548,0.51-0.698,0.645c-0.148,0.138-0.213,0.233-0.271,0.233c-0.123-0.013-0.219-0.109-0.239-0.233
						c0-0.109,0.239-0.36,1.291-1.465c0.763-0.831,1.143-1.948,1.039-3.072c0-2.311-0.994-4.281-2.138-4.281
						c-0.297-0.05-0.581,0.143-0.639,0.446c-0.006,0.025-0.006,0.059-0.006,0.083c0,0.188-0.103,0.252-0.188,0.252
						c-0.083,0-0.258-0.277-0.258-0.743c-0.065-0.98,0.672-1.833,1.653-1.904c0.782,0,1.098,0.646,1.563,0.568v-1.53
						c0.008-0.38-0.154-0.748-0.445-1C6.68,6.713,5.371,5.822,4.886,5.822C4.763,5.834,4.64,5.86,4.523,5.887
						c-0.065,0-0.083,0-0.083-0.065s0.039-0.104,0.167-0.253l1.691-1.652c0.085-0.064,0.124-0.109,0.208-0.109
						c0.574,0,2.854,1.828,3.129,1.828c0.439,0,2.771-1.782,3.377-1.782c0.175,0,0.342,0.149,1.627,1.188
						c0.323,0.278,0.659,0.543,1.014,0.782c0.342,0.212,0.361,0.258,0.361,0.645c0.214-0.039,0.445-0.213,1.775-1.291
						c0.498-0.433,1.019-0.84,1.562-1.221c0.103,0,1.032,0.387,2.408,0.956c0.4,0.167,0.465,0.213,0.465,0.464v10.976
						c0,0.362,0.039,0.491,0.188,0.646c0.645,0.546,1.013,0.761,1.226,0.761c0.09-0.008,0.181-0.053,0.232-0.122
						c0.104-0.149,0.123-0.175,0.188-0.175c0.064,0,0.129,0.091,0.129,0.175c-0.529,0.794-1.181,1.489-1.937,2.073
						c-0.813-0.362-1.55-0.872-2.175-1.506c-0.18-0.148-0.271-0.381-0.232-0.612V9.748c0-0.909,0.296-1.523,1.35-2.95
						c0.548-0.717,0.594-0.93,0.49-0.93c-0.104,0-1.376,0.93-1.627,1.078c-1.143-0.645-1.485-0.865-2.092-0.865
						c-0.343,0-0.575,0.169-0.575,0.382v13.041c0,0.168-0.084,0.297-0.213,0.297s-0.167-0.109-0.167-0.279v-0.974
						c-0.884,0.148-1.627,1.221-1.84,1.221c-0.64-0.504-1.188-1.113-1.627-1.796v-6.229L11.096,11.742L11.096,11.742z M10.715,6.332
						c0-0.425-0.045-0.568-0.129-0.568c-0.188,0-0.866,0.419-0.866,0.568v5.874c0,2.905-0.342,3.228-1.097,4.009
						c-0.343,0.356-0.427,0.446-0.678,0.743c0.445,0.646,1.937,0.886,2.77,0.848V6.332z M11.096,9.728h2.446v-2.33
						c0-0.453-1.581-1.659-2.111-1.659c-0.232,0-0.355,0.149-0.355,0.426L11.096,9.728z M17.029,6.713c0-0.038,0-0.064-0.084-0.064
						c-0.084,0.013-0.161,0.039-0.233,0.084l-0.484,0.304c-0.279,0.168-0.361,0.253-0.361,0.382v2.117
						c0,0.149,0.194,0.252,0.341,0.252h0.821V6.713z M17.029,11.696h-0.801c-0.232,0-0.342,0.168-0.342,0.491v4.352
						c0,0.846,0.361,1.252,1.142,1.291v-6.134H17.029z"/>
					
						<radialGradient id="SVGID_6_" cx="-506.7837" cy="19.0811" r="0.474" gradientTransform="matrix(42.4773 0 0 42.4773 21540.7227 -804.5482)" gradientUnits="userSpaceOnUse">
						<stop  offset="0" style="stop-color:#FFFFFF"/>
						<stop  offset="0.18" style="stop-color:#FAFAFB"/>
						<stop  offset="0.38" style="stop-color:#EDEDEE"/>
						<stop  offset="0.58" style="stop-color:#D6D7D8"/>
						<stop  offset="0.8" style="stop-color:#B7B8BA"/>
						<stop  offset="1" style="stop-color:#939598"/>
					</radialGradient>
					<path fill="url(#SVGID_6_)" d="M11.096,11.289v7.697c0,0.166-0.045,0.277-0.194,0.277s-0.214-0.109-0.214-0.277v-1.021h-0.374
						c-0.354,0-1.775,1.188-2.11,1.419c-0.613-0.36-1.266-0.665-1.938-0.909c-0.316,0.297-0.548,0.511-0.698,0.645
						c-0.148,0.137-0.213,0.233-0.271,0.233c-0.128-0.006-0.232-0.103-0.251-0.233c0-0.108,0.239-0.362,1.291-1.465
						c0.768-0.825,1.149-1.931,1.06-3.054c0-2.309-0.995-4.279-2.138-4.279c-0.298-0.051-0.582,0.143-0.64,0.446
						c-0.006,0.025-0.006,0.059-0.006,0.084c0,0.188-0.103,0.253-0.188,0.253c-0.084,0-0.258-0.278-0.258-0.744
						C4.083,9.379,4.813,8.509,5.794,8.424c0.007,0,0.013,0,0.025,0c0.782,0,1.098,0.645,1.563,0.569V7.501
						C7.39,7.119,7.229,6.751,6.938,6.5C6.687,6.287,5.375,5.403,4.892,5.403c-0.175,0-0.259,0.058-0.362,0.058
						c-0.103,0-0.083,0-0.083-0.058c0-0.059,0.039-0.111,0.167-0.259l1.685-1.679c0.085-0.064,0.124-0.104,0.208-0.104
						c0.574,0,2.854,1.821,3.129,1.821c0.439,0,2.771-1.781,3.377-1.781c0.175,0,0.342,0.147,1.627,1.187
						c0.323,0.284,0.659,0.543,1.014,0.787c0.342,0.207,0.361,0.253,0.361,0.646c0.214-0.039,0.445-0.207,1.775-1.291
						c0.498-0.432,1.019-0.84,1.562-1.22c0.103,0,1.032,0.38,2.408,0.948c0.4,0.175,0.465,0.214,0.465,0.472v10.96
						c0,0.356,0.039,0.486,0.188,0.615c0.645,0.548,1.013,0.764,1.226,0.764c0.084,0.006,0.168-0.027,0.232-0.087
						c0.104-0.147,0.123-0.166,0.188-0.166c0.064,0,0.129,0.083,0.129,0.166c-0.529,0.796-1.182,1.5-1.938,2.08
						c-0.813-0.362-1.55-0.872-2.176-1.505c-0.193-0.154-0.284-0.407-0.232-0.646V9.294c0-0.91,0.296-1.523,1.35-2.944
						c0.548-0.722,0.594-0.936,0.49-0.936c-0.104,0-1.376,0.936-1.627,1.078c-1.143-0.645-1.485-0.865-2.092-0.865
						c-0.343,0-0.575,0.167-0.575,0.38v13.041c0,0.169-0.084,0.298-0.212,0.298c-0.13,0-0.167-0.11-0.167-0.279v-0.975
						c-0.911,0.149-1.646,1.208-1.86,1.208c-0.626-0.504-1.168-1.104-1.607-1.783v-6.228H11.096z M10.715,5.88
						c0-0.419-0.045-0.568-0.129-0.568c-0.188,0-0.866,0.419-0.866,0.568v5.874c0,2.906-0.342,3.229-1.097,4.009
						c-0.343,0.361-0.427,0.446-0.678,0.743c0.445,0.613,1.937,0.892,2.77,0.846V5.88z M11.096,9.277h2.446V6.945
						c0-0.452-1.581-1.659-2.111-1.659c-0.232,0-0.355,0.149-0.355,0.427L11.096,9.277z M17.029,6.261c0-0.039,0-0.059-0.084-0.059
						c-0.084,0.006-0.161,0.04-0.233,0.085l-0.484,0.297c-0.279,0.167-0.361,0.252-0.361,0.381v2.118
						c0,0.149,0.194,0.258,0.341,0.258h0.821V6.261z M17.029,11.244h-0.801c-0.232,0-0.342,0.174-0.342,0.492v4.344
						c0,0.845,0.361,1.252,1.142,1.29v-6.126H17.029z"/>
				</g>
			</g>
			<g>
				<defs>
					<rect id="SVGID_7_" x="2.22" y="0.722" width="23.938" height="21.303"/>
				</defs>
				<clipPath id="SVGID_8_">
					<use xlink:href="#SVGID_7_"  overflow="visible"/>
				</clipPath>
				<path clip-path="url(#SVGID_8_)" fill="#FFFFFF" d="M30.417,14.435h2.109c0,0.415,0.147,0.749,0.438,0.999
					c0.293,0.244,0.65,0.367,1.073,0.367c0.248,0,0.481-0.059,0.698-0.172c0.221-0.121,0.396-0.283,0.525-0.49
					c0.13-0.211,0.194-0.446,0.194-0.704c0-0.53-0.167-0.921-0.503-1.175c-0.335-0.259-0.801-0.481-1.396-0.669
					c-0.485-0.162-0.861-0.309-1.131-0.438c-0.268-0.135-0.52-0.323-0.755-0.563c-0.269-0.277-0.479-0.599-0.633-0.963
					c-0.149-0.369-0.224-0.745-0.224-1.13c0-0.57,0.145-1.093,0.432-1.568c0.293-0.48,0.687-0.853,1.18-1.122
					c0.495-0.27,1.027-0.404,1.598-0.404c0.423,0,0.823,0.08,1.202,0.237c0.384,0.154,0.725,0.375,1.021,0.662
					c0.303,0.285,0.538,0.618,0.706,1.001c0.172,0.378,0.258,0.777,0.258,1.194h-2.079c-0.014-0.335-0.141-0.609-0.381-0.82
					c-0.236-0.209-0.516-0.316-0.841-0.316c-0.327,0-0.588,0.111-0.785,0.331c-0.192,0.216-0.287,0.489-0.287,0.821
					c0,0.358,0.123,0.635,0.367,0.828c0.249,0.19,0.583,0.357,1,0.495c0.524,0.173,0.938,0.328,1.245,0.46
					c0.307,0.129,0.599,0.312,0.878,0.546c0.767,0.609,1.151,1.435,1.151,2.475c0,0.476-0.093,0.928-0.281,1.354
					c-0.183,0.42-0.437,0.789-0.763,1.1c-0.327,0.313-0.705,0.555-1.138,0.727c-0.431,0.178-0.884,0.268-1.359,0.268
					c-0.609,0-1.187-0.146-1.734-0.439c-0.542-0.292-0.976-0.692-1.303-1.201C30.579,15.615,30.417,15.053,30.417,14.435z"/>
			</g>
			<g>
				<defs>
					<rect id="SVGID_9_" x="2.22" y="0.722" width="23.938" height="21.303"/>
				</defs>
				<clipPath id="SVGID_10_">
					<use xlink:href="#SVGID_9_"  overflow="visible"/>
				</clipPath>
				<path clip-path="url(#SVGID_10_)" fill="#FFFFFF" d="M52.257,6.403c1.021,0,1.967,0.254,2.835,0.763
					c0.873,0.503,1.565,1.197,2.072,2.08c0.508,0.877,0.764,1.83,0.764,2.857c0,1.031-0.258,1.982-0.771,2.85
					c-0.506,0.868-1.195,1.554-2.063,2.059c-0.87,0.503-1.813,0.756-2.837,0.756c-0.747,0-1.472-0.146-2.173-0.432
					c-0.694-0.293-1.307-0.7-1.834-1.225c-0.528-0.526-0.938-1.136-1.23-1.826c-0.293-0.697-0.44-1.423-0.44-2.181
					c0-1.027,0.254-1.979,0.765-2.857c0.506-0.884,1.2-1.576,2.071-2.079C50.289,6.657,51.236,6.403,52.257,6.403z M52.257,8.361
					c-0.671,0-1.285,0.167-1.842,0.497c-0.557,0.331-0.999,0.783-1.324,1.353c-0.327,0.566-0.491,1.182-0.491,1.85
					c0,0.485,0.099,0.957,0.289,1.418c0.19,0.456,0.458,0.857,0.798,1.21c0.346,0.348,0.738,0.622,1.181,0.818
					s0.904,0.295,1.388,0.295c0.653,0,1.259-0.171,1.813-0.511c0.561-0.341,1.007-0.799,1.338-1.374
					c0.336-0.581,0.504-1.201,0.504-1.856c0-0.668-0.164-1.284-0.489-1.85c-0.327-0.57-0.768-1.021-1.326-1.353
					C53.542,8.526,52.928,8.361,52.257,8.361z"/>
			</g>
			<g>
				<defs>
					<rect id="SVGID_11_" x="2.22" y="0.722" width="23.938" height="21.303"/>
				</defs>
				<clipPath id="SVGID_12_">
					<use xlink:href="#SVGID_11_"  overflow="visible"/>
				</clipPath>
				<path clip-path="url(#SVGID_12_)" fill="#FFFFFF" d="M59.519,17.498V6.612h3.159c0.651,0.009,1.193,0.063,1.625,0.157
					c0.432,0.092,0.833,0.294,1.201,0.605c0.26,0.216,0.483,0.468,0.67,0.755c0.192,0.284,0.34,0.59,0.439,0.921
					c0.106,0.327,0.158,0.663,0.158,1.007c0,0.398-0.084,0.818-0.252,1.259c-0.164,0.443-0.379,0.812-0.646,1.108
					c-0.481,0.52-1.124,0.87-1.931,1.052l2.943,4.021h-2.488l-2.829-4.172h-0.028v4.172H59.519z M61.541,11.793h1.102
					c0.753,0,1.291-0.152,1.612-0.456c0.329-0.315,0.495-0.708,0.495-1.179c0-0.24-0.049-0.47-0.151-0.69
					c-0.101-0.221-0.248-0.398-0.438-0.533c-0.197-0.153-0.41-0.251-0.635-0.295c-0.221-0.047-0.508-0.071-0.87-0.071h-1.115V11.793
					L61.541,11.793z"/>
			</g>
			<g>
				<defs>
					<rect id="SVGID_13_" x="2.22" y="0.722" width="23.938" height="21.303"/>
				</defs>
				<clipPath id="SVGID_14_">
					<use xlink:href="#SVGID_13_"  overflow="visible"/>
				</clipPath>
				<path clip-path="url(#SVGID_14_)" fill="#FFFFFF" d="M69.176,17.498V8.569h-2.01V6.612h6.058v1.957H71.19v8.929H69.176z"/>
			</g>
			<g>
				<defs>
					<rect id="SVGID_15_" x="2.22" y="0.722" width="23.938" height="21.303"/>
				</defs>
				<clipPath id="SVGID_16_">
					<use xlink:href="#SVGID_15_"  overflow="visible"/>
				</clipPath>
				<path clip-path="url(#SVGID_16_)" fill="#FFFFFF" d="M40.903,17.498H38.88V6.612h2.569h0.381c0.399,0,0.724,0.012,0.979,0.035
					c0.255,0.02,0.519,0.073,0.791,0.159c0.278,0.082,0.542,0.205,0.791,0.374c0.451,0.302,0.803,0.698,1.059,1.187
					c0.258,0.488,0.389,1.007,0.389,1.554c0,0.354-0.049,0.703-0.145,1.044c-0.096,0.339-0.244,0.662-0.446,0.964
					s-0.437,0.561-0.706,0.777c-0.233,0.187-0.505,0.331-0.813,0.431c-0.302,0.101-0.611,0.166-0.927,0.194
					c-0.313,0.029-0.661,0.043-1.045,0.043h-0.46h-0.395V17.498z M40.903,11.412h0.366c0.72,0,1.241-0.039,1.562-0.114
					c0.303-0.106,0.542-0.279,0.72-0.518c0.177-0.24,0.265-0.517,0.265-0.828c0-0.322-0.099-0.598-0.293-0.828
					c-0.194-0.23-0.442-0.387-0.749-0.468c-0.297-0.058-0.798-0.086-1.505-0.086h-0.366V11.412z"/>
			</g>
			<g>
				<defs>
					<rect id="SVGID_17_" x="2.22" y="0.722" width="23.938" height="21.303"/>
				</defs>
				<clipPath id="SVGID_18_">
					<use xlink:href="#SVGID_17_"  overflow="visible"/>
				</clipPath>
				<path clip-path="url(#SVGID_18_)" fill="#FFFFFF" d="M73.461,14.435h2.108c0,0.415,0.149,0.749,0.439,0.999
					c0.293,0.244,0.651,0.367,1.075,0.367c0.245,0,0.48-0.059,0.695-0.172c0.222-0.121,0.397-0.283,0.526-0.49
					c0.129-0.211,0.194-0.446,0.194-0.704c0-0.53-0.168-0.921-0.504-1.175c-0.335-0.259-0.802-0.481-1.396-0.669
					c-0.485-0.162-0.861-0.309-1.128-0.438c-0.27-0.135-0.521-0.323-0.759-0.563c-0.269-0.277-0.479-0.599-0.633-0.963
					c-0.147-0.369-0.221-0.745-0.221-1.13c0-0.57,0.144-1.093,0.43-1.568c0.293-0.48,0.686-0.853,1.183-1.122
					c0.491-0.27,1.025-0.404,1.595-0.404c0.424,0,0.822,0.08,1.201,0.237c0.385,0.154,0.725,0.375,1.023,0.662
					c0.301,0.285,0.536,0.618,0.704,1.001c0.174,0.378,0.26,0.777,0.26,1.194h-2.079c-0.015-0.335-0.142-0.609-0.381-0.82
					c-0.235-0.209-0.516-0.316-0.841-0.316c-0.328,0-0.59,0.111-0.786,0.331c-0.19,0.216-0.286,0.489-0.286,0.821
					c0,0.358,0.12,0.635,0.366,0.828c0.249,0.19,0.583,0.357,1,0.495c0.524,0.173,0.939,0.328,1.245,0.46
					c0.307,0.129,0.6,0.312,0.876,0.546c0.769,0.609,1.153,1.435,1.153,2.475c0,0.476-0.094,0.928-0.28,1.354
					c-0.184,0.42-0.438,0.789-0.763,1.1c-0.328,0.313-0.706,0.555-1.139,0.727c-0.432,0.178-0.886,0.268-1.36,0.268
					c-0.608,0-1.188-0.146-1.733-0.439c-0.543-0.292-0.977-0.692-1.302-1.201C73.624,15.615,73.461,15.053,73.461,14.435z"/>
			</g>
		</g>
	</g>
</g>
</svg>
