<?xml version="1.0" encoding="utf-8"?>
<!-- Generator: Adobe Illustrator 16.0.2, SVG Export Plug-In . SVG Version: 6.00 Build 0)  -->
<!DOCTYPE svg PUBLIC "-//W3C//DTD SVG 1.1//EN" "http://www.w3.org/Graphics/SVG/1.1/DTD/svg11.dtd">
<svg version="1.1" id="Layer_1" xmlns="http://www.w3.org/2000/svg" xmlns:xlink="http://www.w3.org/1999/xlink" x="0px" y="0px"
	 width="92px" height="25px" viewBox="0 0 92 25" enable-background="new 0 0 92 25" xml:space="preserve">
<path fill="#FFFFFF" d="M28.625,15.508h2.593c0.058,0.486,0.196,0.867,0.413,1.143c0.328,0.428,0.794,0.642,1.397,0.642
	c0.528,0,0.958-0.167,1.292-0.501s0.501-0.753,0.501-1.257c0-0.357-0.079-0.653-0.237-0.888c-0.152-0.234-0.399-0.442-0.738-0.623
	c-0.182-0.101-0.82-0.364-1.916-0.793c-0.744-0.287-1.301-0.587-1.67-0.904c-0.364-0.316-0.648-0.712-0.853-1.186
	c-0.205-0.475-0.307-0.99-0.307-1.547c0-0.71,0.17-1.363,0.51-1.96c0.34-0.604,0.814-1.07,1.423-1.398
	c0.615-0.334,1.263-0.5,1.943-0.5c0.609,0,1.172,0.12,1.687,0.36c0.516,0.24,0.938,0.536,1.266,0.887
	c0.328,0.352,0.571,0.73,0.73,1.134c0.157,0.399,0.257,0.87,0.298,1.415h-2.514c-0.076-0.492-0.196-0.838-0.36-1.037
	c-0.252-0.305-0.615-0.457-1.09-0.457c-0.428,0-0.77,0.129-1.028,0.387c-0.258,0.252-0.387,0.583-0.387,0.993
	c0,0.445,0.152,0.797,0.457,1.055c0.229,0.193,0.72,0.419,1.477,0.676c0.756,0.252,1.3,0.47,1.635,0.65
	c0.51,0.276,0.91,0.587,1.204,0.932c0.298,0.34,0.527,0.739,0.685,1.196c0.164,0.451,0.246,0.955,0.246,1.512
	c0,1.399-0.533,2.5-1.6,3.295c-0.767,0.576-1.655,0.862-2.663,0.862c-0.515,0-1.016-0.081-1.502-0.245
	c-0.48-0.164-0.909-0.391-1.284-0.678c-0.375-0.293-0.68-0.615-0.914-0.967c-0.234-0.352-0.407-0.725-0.518-1.116
	C28.719,16.302,28.661,15.941,28.625,15.508z M39.066,19.322V5.998h3.349c0.844,0,1.497,0.044,1.96,0.132
	c0.463,0.082,0.873,0.223,1.23,0.422c0.364,0.193,0.698,0.463,1.002,0.808c0.311,0.346,0.551,0.75,0.721,1.213
	c0.17,0.457,0.255,0.976,0.255,1.556c0,0.879-0.208,1.644-0.624,2.294c-0.41,0.65-0.938,1.116-1.582,1.397
	c-0.639,0.281-1.626,0.422-2.962,0.422h-0.879v5.08H39.066z M41.536,11.94h0.791c1.043,0,1.767-0.15,2.171-0.449
	c0.41-0.304,0.615-0.761,0.615-1.37c0-0.388-0.1-0.725-0.298-1.012c-0.2-0.287-0.478-0.492-0.835-0.615
	c-0.352-0.123-0.874-0.184-1.565-0.184h-0.879V11.94z M47.759,12.695c0-0.925,0.173-1.81,0.519-2.654s0.82-1.57,1.424-2.18
	c0.604-0.609,1.271-1.09,2.004-1.441c0.949-0.457,1.957-0.686,3.023-0.686c0.996,0,1.922,0.194,2.777,0.58
	c0.855,0.381,1.57,0.868,2.145,1.46c0.58,0.585,1.035,1.224,1.363,1.915c0.449,0.938,0.676,1.934,0.676,2.989
	c0,0.785-0.123,1.526-0.369,2.223c-0.24,0.699-0.563,1.316-0.967,1.855c-0.398,0.533-0.879,1.018-1.44,1.45
	c-0.558,0.435-1.202,0.774-1.935,1.021s-1.482,0.368-2.25,0.368c-1.043,0-1.99-0.196-2.84-0.59c-0.849-0.397-1.563-0.89-2.144-1.476
	c-0.574-0.592-1.021-1.228-1.336-1.907C47.977,14.686,47.759,13.709,47.759,12.695z M50.229,12.678c0,0.639,0.117,1.233,0.352,1.784
	c0.234,0.55,0.542,1.028,0.923,1.433c0.388,0.404,0.853,0.738,1.397,1.002c0.551,0.264,1.16,0.396,1.828,0.396
	c0.773,0,1.515-0.202,2.224-0.606c0.71-0.404,1.266-0.973,1.67-1.705c0.403-0.732,0.606-1.504,0.606-2.312
	c0-0.809-0.203-1.58-0.606-2.312c-0.404-0.738-0.96-1.31-1.67-1.713c-0.703-0.405-1.444-0.607-2.224-0.607
	c-0.681,0-1.289,0.132-1.828,0.396c-0.533,0.257-1,0.591-1.397,1.002c-0.397,0.41-0.712,0.902-0.94,1.476
	C50.34,11.48,50.229,12.068,50.229,12.678L50.229,12.678z M63.43,19.322V5.998h4.088c1.012,0,1.844,0.135,2.496,0.404
	c0.444,0.182,0.842,0.449,1.194,0.8c0.353,0.346,0.63,0.724,0.835,1.134c0.287,0.562,0.43,1.178,0.43,1.846
	c0,0.591-0.109,1.148-0.332,1.67c-0.218,0.521-0.496,0.955-0.836,1.3c-0.34,0.34-0.703,0.604-1.09,0.791s-0.85,0.343-1.389,0.466
	l3.621,4.913H69.46l-3.524-5.098H65.9v5.098H63.43L63.43,19.322z M65.9,8.31v4.069h1.582c0.492,0,0.939-0.094,1.345-0.281
	c0.299-0.141,0.545-0.37,0.739-0.686c0.192-0.316,0.289-0.67,0.289-1.063c0-0.387-0.097-0.745-0.289-1.073
	c-0.194-0.328-0.453-0.57-0.774-0.73c-0.321-0.157-0.759-0.236-1.31-0.236H65.9z M74.874,19.322V8.31h-2.47V5.998h7.418V8.31h-2.487
	v11.012H74.874z M80.077,15.508h2.593c0.059,0.486,0.196,0.867,0.413,1.143c0.328,0.428,0.794,0.642,1.397,0.642
	c0.527,0,0.957-0.167,1.291-0.501c0.336-0.334,0.502-0.753,0.502-1.257c0-0.357-0.08-0.653-0.237-0.888
	c-0.152-0.234-0.397-0.442-0.738-0.623c-0.182-0.101-0.819-0.364-1.916-0.793c-0.743-0.287-1.3-0.587-1.67-0.904
	c-0.362-0.316-0.647-0.712-0.853-1.186c-0.205-0.475-0.307-0.99-0.307-1.547c0-0.71,0.17-1.363,0.51-1.96
	c0.34-0.604,0.813-1.07,1.422-1.398c0.617-0.334,1.264-0.5,1.943-0.5c0.61,0,1.172,0.12,1.688,0.36
	c0.516,0.24,0.938,0.536,1.266,0.887c0.328,0.352,0.571,0.73,0.73,1.134c0.158,0.399,0.257,0.87,0.298,1.415h-2.515
	c-0.076-0.492-0.195-0.838-0.359-1.037c-0.252-0.305-0.615-0.457-1.09-0.457c-0.428,0-0.771,0.129-1.028,0.387
	c-0.258,0.252-0.388,0.583-0.388,0.993c0,0.445,0.154,0.797,0.457,1.055c0.229,0.193,0.722,0.419,1.478,0.676
	c0.757,0.252,1.3,0.47,1.636,0.65c0.51,0.276,0.909,0.587,1.203,0.932c0.299,0.34,0.527,0.739,0.686,1.196
	c0.164,0.451,0.246,0.955,0.246,1.512c0,1.399-0.533,2.5-1.601,3.295c-0.767,0.576-1.653,0.862-2.661,0.862
	c-0.517,0-1.018-0.081-1.504-0.245c-0.48-0.164-0.908-0.391-1.283-0.678c-0.375-0.293-0.68-0.615-0.914-0.967
	s-0.407-0.725-0.519-1.116C80.171,16.302,80.113,15.941,80.077,15.508L80.077,15.508z"/>
<g>
	<path fill="#EF1607" d="M13.216,20.062c0.629,0.102,1.256,0.154,1.877,0.163c1.242-0.308,2.402-0.807,3.44-1.462
		c-4.932-0.068-9.286-2.573-11.908-6.363c-0.042,0.446-0.064,0.897-0.064,1.354c0,1.209,0.151,2.385,0.433,3.508
		C8.787,18.725,10.91,19.69,13.216,20.062"/>
	<path fill="#EF1607" d="M5.978,16.787c0.297,0.656,0.641,1.293,1.031,1.9c0.065,0.102,0.13,0.201,0.197,0.3
		c-0.192-0.503-0.358-1.021-0.495-1.548C6.46,17.231,6.215,17.014,5.978,16.787"/>
	<path fill="#EF1607" d="M13.839,20.467c-0.224-0.025-0.448-0.055-0.673-0.091c-2.219-0.356-4.27-1.251-6.031-2.599
		c0.206,0.707,0.464,1.39,0.771,2.047c1.186,0.44,2.471,0.703,3.817,0.75C12.443,20.6,13.15,20.562,13.839,20.467"/>
	<path fill="#EF1607" d="M6.585,16.912c-0.223-1.018-0.342-2.074-0.342-3.158c0-0.598,0.037-1.188,0.106-1.767
		C5.646,10.893,5.083,9.7,4.687,8.434c-0.281,2.624,0.054,5.217,0.962,7.567C5.949,16.322,6.261,16.625,6.585,16.912"/>
	<path fill="#EF1607" d="M12.753,13.112l-1.04,0.002l0.002,0.953l1.041-0.003c0.132,0,0.244-0.047,0.337-0.14
		c0.092-0.093,0.139-0.206,0.138-0.337c0-0.133-0.047-0.244-0.14-0.338C12.998,13.158,12.885,13.111,12.753,13.112"/>
	<path fill="#EF1607" d="M13.458,2.178C7.767,2.178,3.136,6.809,3.136,12.5c0,5.692,4.631,10.323,10.322,10.323
		S23.779,18.191,23.779,12.5C23.779,6.809,19.149,2.178,13.458,2.178 M14.374,13.256c0.001,0.447-0.156,0.829-0.472,1.146
		c-0.315,0.316-0.697,0.477-1.144,0.477l-2.183,0.006l-0.01-4.094h0.023l1.12-0.002l0.002,0.855l1.048-0.002
		c0.132-0.001,0.245-0.047,0.337-0.14c0.093-0.093,0.139-0.205,0.138-0.337c0-0.108-0.081-0.29-0.144-0.372
		c0.434-0.12,0.77-0.36,0.997-0.569c0.16,0.251,0.29,0.622,0.291,0.938c0.001,0.404-0.128,0.755-0.386,1.053
		C14.245,12.507,14.373,12.854,14.374,13.256 M11.493,6.665c0.095,0.095,0.209,0.142,0.344,0.142h0.583
		c0.456,0,0.845,0.162,1.168,0.484c0.323,0.323,0.484,0.712,0.484,1.168s-0.161,0.846-0.484,1.168
		c-0.323,0.323-0.712,0.484-1.168,0.484h-1.846V8.944h1.846c0.135,0,0.249-0.047,0.344-0.142s0.142-0.209,0.142-0.344
		c0-0.134-0.047-0.249-0.142-0.344s-0.209-0.142-0.344-0.142h-0.583c-0.456,0-0.845-0.161-1.168-0.484
		c-0.322-0.322-0.484-0.711-0.484-1.167s0.162-0.846,0.484-1.168c0.323-0.322,0.712-0.484,1.168-0.484h1.846v1.166h-1.846
		c-0.135,0-0.25,0.047-0.344,0.142c-0.094,0.095-0.142,0.209-0.142,0.344C11.351,6.456,11.398,6.571,11.493,6.665 M15.414,8.321
		l1.991-3.605l2.83,5.167h-1.282l-1.244-2.294L15.414,8.321z M16.542,8.615l-0.686,1.268h-1.282l0.41-0.769L16.542,8.615z
		 M14.924,14.113l1.558-0.498l-0.686,1.268h-1.282L14.924,14.113z M15.353,13.321l1.013-1.835l1.374-2.49l3.293,5.902l-1.274-0.013
		l-1.43-2.644L15.353,13.321z M4.932,17.865c0.695,0.523,1.453,0.979,2.27,1.343c-0.159-0.22-0.313-0.445-0.461-0.677
		c-0.543-0.849-1-1.749-1.366-2.687c-0.529-0.571-1.019-1.19-1.464-1.858c-0.179-0.268-0.345-0.542-0.506-0.82
		c-0.014-0.22-0.024-0.442-0.024-0.667c0-1.882,0.52-3.644,1.421-5.153c0.355,1.361,0.904,2.645,1.616,3.818
		c0.508-3.278,2.103-6.2,4.401-8.391c0.21-0.057,0.423-0.109,0.639-0.153c-2.562,2.257-4.32,5.406-4.776,8.959
		c2.574,3.933,7.019,6.538,12.061,6.538c0.091,0,0.182-0.002,0.273-0.004c2.387-1.679,4.038-4.218,4.407-7.137
		c0.076,0.497,0.115,1.005,0.115,1.522c0,2.075-0.63,4.003-1.708,5.608c-0.878,0.188-1.783,0.301-2.711,0.324
		c-0.848,0.586-1.782,1.067-2.782,1.424c1.922-0.156,3.766-0.741,5.44-1.672c-0.14,0.205-0.289,0.402-0.442,0.596
		c-1.868,0.926-3.924,1.438-6.049,1.438c-0.051,0-0.103,0-0.153-0.001c-0.95,0.231-1.946,0.356-2.971,0.356
		c-0.149,0-0.298-0.003-0.449-0.008c-1.24-0.043-2.429-0.266-3.541-0.638c0.74,0.866,1.569,1.62,2.47,2.247
		c-0.333-0.098-0.66-0.211-0.978-0.34c-0.333-0.272-0.654-0.561-0.964-0.869c0.131,0.213,0.27,0.42,0.412,0.626
		C7.391,20.766,5.944,19.467,4.932,17.865"/>
</g>
</svg>
