<svg id="Layer_1" data-name="Layer 1" xmlns="http://www.w3.org/2000/svg" xmlns:xlink="http://www.w3.org/1999/xlink" viewBox="0 0 93 25"><defs><style>.cls-1{stroke-miterlimit:10;stroke-width:0.23px;fill:url(#linear-gradient);stroke:url(#linear-gradient-2);}.cls-2{fill:url(#linear-gradient-3);}.cls-3{fill:url(#linear-gradient-4);}.cls-4{fill:#fff;}.cls-5{opacity:0.5;}.cls-6{fill:none;}.cls-7{fill:#e91e25;}</style><linearGradient id="linear-gradient" x1="22.56" y1="24.23" x2="22.56" y2="-4.9" gradientUnits="userSpaceOnUse"><stop offset="0" stop-color="#fdeeca"/><stop offset="0.02" stop-color="#f2dfb3"/><stop offset="0.07" stop-color="#d7b87a"/><stop offset="0.08" stop-color="#d0ad6a"/><stop offset="0.09" stop-color="#caa766"/><stop offset="0.13" stop-color="#a68049"/><stop offset="0.18" stop-color="#8a6132"/><stop offset="0.23" stop-color="#754b22"/><stop offset="0.27" stop-color="#693e18"/><stop offset="0.31" stop-color="#653915"/><stop offset="0.35" stop-color="#6a3f19"/><stop offset="0.4" stop-color="#794f25"/><stop offset="0.46" stop-color="#916938"/><stop offset="0.53" stop-color="#b38e53"/><stop offset="0.57" stop-color="#d0ad6a"/><stop offset="0.67" stop-color="#edd7a8"/><stop offset="0.73" stop-color="#fdeeca"/><stop offset="0.76" stop-color="#f2dfb3"/><stop offset="0.82" stop-color="#d7b87a"/><stop offset="0.84" stop-color="#d0ad6a"/><stop offset="0.95" stop-color="#855c2e"/><stop offset="1" stop-color="#653915"/></linearGradient><linearGradient id="linear-gradient-2" x1="17.96" y1="12.59" x2="27.58" y2="12.59" gradientUnits="userSpaceOnUse"><stop offset="0.03" stop-color="#653915"/><stop offset="0.51" stop-color="#d0ad6a"/><stop offset="0.51" stop-color="#cfac69"/><stop offset="0.62" stop-color="#a9834b"/><stop offset="0.72" stop-color="#8c6334"/><stop offset="0.82" stop-color="#764c23"/><stop offset="0.92" stop-color="#693e18"/><stop offset="1" stop-color="#653915"/></linearGradient><linearGradient id="linear-gradient-3" x1="22.56" y1="24.23" x2="22.56" y2="-4.9" gradientUnits="userSpaceOnUse"><stop offset="0" stop-color="#d0ad6a"/><stop offset="0.1" stop-color="#956d3b"/><stop offset="0.18" stop-color="#653915"/><stop offset="0.31" stop-color="#b98e4b"/><stop offset="0.35" stop-color="#bb914e"/><stop offset="0.38" stop-color="#c29a57"/><stop offset="0.4" stop-color="#ceaa67"/><stop offset="0.41" stop-color="#d0ad6a"/><stop offset="0.47" stop-color="#cfae6e"/><stop offset="0.53" stop-color="#cdb27b"/><stop offset="0.57" stop-color="#cbb688"/><stop offset="0.59" stop-color="#cab383"/><stop offset="0.6" stop-color="#c5aa75"/><stop offset="0.62" stop-color="#be9a5d"/><stop offset="0.64" stop-color="#b98f4c"/><stop offset="0.67" stop-color="#b48a49"/><stop offset="0.7" stop-color="#a77c40"/><stop offset="0.74" stop-color="#916531"/><stop offset="0.78" stop-color="#72451d"/><stop offset="0.79" stop-color="#673915"/><stop offset="0.8" stop-color="#734824"/><stop offset="0.82" stop-color="#9d7a56"/><stop offset="0.85" stop-color="#bfa480"/><stop offset="0.87" stop-color="#dac4a0"/><stop offset="0.9" stop-color="#eddbb7"/><stop offset="0.92" stop-color="#f9e9c5"/><stop offset="0.94" stop-color="#fdeeca"/></linearGradient><linearGradient id="linear-gradient-4" x1="18.11" y1="12.53" x2="27.01" y2="12.53" xlink:href="#linear-gradient"/></defs><title>TF_Gaming_logo2</title><polygon class="cls-1" points="27.01 23.02 27.01 8.77 21.6 8.77 26.91 2.05 18.11 8.84 20.05 12.15 23.73 12.15 27.01 23.02"/><polygon class="cls-2" points="27.01 23.02 27.01 8.77 21.6 8.77 26.91 2.05 18.11 8.84 20.05 12.15 23.73 12.15 27.01 23.02"/><path class="cls-3" d="M26.39,2.57,21.53,8.72l-.12.14h5.51V22.4l-3.1-10.28,0-.06H20.1L18.23,8.87l8.16-6.3m.52-.52-8.8,6.79,1.94,3.31h3.68L27,23V8.77H21.6l5.31-6.72Z"/><polygon class="cls-4" points="38.23 4.84 45.09 4.84 45.09 5.62 38.25 5.62 38.25 10.45 41.29 9.93 41.41 7.05 41.72 7.05 42.41 8.2 41.47 9.93 43.86 9.93 44.93 8.11 44.27 6.98 45.09 6.98 45.09 9.91 48.2 9.91 48.2 7.07 48.88 7.07 48.33 8.16 49.26 9.88 51.67 9.88 50.83 8.18 51.38 7.09 52.07 7.09 52.07 9.95 55.01 8.77 55.01 5.52 48.15 5.52 48.15 5.02 55.03 5.02 55.03 3.37 38.2 3.37 38.23 4.84"/><path class="cls-4" d="M38.25,16.54H51.92l3-2.27V10.79H38.2Zm9.88-2.48h2l1-1.05v-.24h-3l0-.7h3.66V15H48.13ZM41.41,12H45v.82H41.41Zm0,2.12H45v.81H41.41Z"/><polygon class="cls-4" points="66.73 9.77 66.73 3.23 63.19 3.23 63.3 9.82 56.1 16.52 60.3 16.52 65.07 12 69.91 16.56 74.11 16.56 66.73 9.77"/><polygon class="cls-4" points="73.64 3.23 70.18 3.23 68.14 9.86 71.55 9.86 73.64 3.23"/><polygon class="cls-4" points="61.12 7.5 59.8 3.23 56.37 3.23 58.58 9.84 61.12 7.5"/><g class="cls-5"><polygon class="cls-6" points="38.29 4.84 45.15 4.84 45.15 5.62 38.31 5.62 38.31 10.45 41.36 9.93 41.47 7.05 41.79 7.05 42.47 8.2 41.54 9.93 43.92 9.93 44.99 8.11 44.33 6.98 45.15 6.98 45.15 9.91 48.26 9.91 48.26 7.07 48.94 7.07 48.4 8.16 49.33 9.88 51.74 9.88 50.9 8.18 51.44 7.09 52.13 7.09 52.13 9.95 55.08 8.77 55.08 5.52 48.22 5.52 48.22 5.02 55.1 5.02 55.1 3.37 38.27 3.37 38.29 4.84"/><path class="cls-6" d="M38.31,16.54H52l3-2.27V10.79H38.27Zm9.88-2.48h2L51.25,13v-.24h-3l0-.7h3.65V15H48.19ZM41.47,12h3.61v.82H41.47Zm0,2.12h3.61v.81H41.47Z"/><polygon class="cls-6" points="66.8 9.77 66.8 3.23 63.25 3.23 63.37 9.82 56.17 16.52 60.37 16.52 65.14 12 69.98 16.56 74.18 16.56 66.8 9.77"/><polygon class="cls-6" points="73.7 3.23 70.25 3.23 68.2 9.86 71.61 9.86 73.7 3.23"/><polygon class="cls-6" points="61.19 7.5 59.87 3.23 56.44 3.23 58.57 9.77 61.19 7.5"/></g><path class="cls-7" d="M30.24,11.91l-3.1,11.64L27,8.77H21.6l5.9-7.32L25.81,6.34h1.1A2.48,2.48,0,0,1,28,4.69s-1.3,3.15.54,4.05c0,0-1.25-2.19,0-3.95s3.36-.74,3.17-2.27a.94.94,0,0,1,.51,1.26,1.34,1.34,0,0,1-1.14.75c-.94.16-1.2.79-1.13,1.27A1.38,1.38,0,0,1,31.65,5s-1.92.37-1.39,1.82A1.18,1.18,0,0,0,32.11,7s.44-.35.65-1.91,1.3-3.5,3.4-2.9c0,0-1.77.15-1.87,2.68s-.86,3.87-2.66,4a2.26,2.26,0,0,1-2.36-1.17s.15,2.59,3.31,2.12a3.21,3.21,0,0,0,2.53-3.19S37,12.22,30.24,11.91Z"/><path class="cls-4" d="M38.38,19.8v-.52h4.24v.52H40.89v3.39h-.78V19.8Z"/><path class="cls-4" d="M43.25,23.19V19.28h3.52v.52H44v1.26h2.5v.52H44v1.61Z"/><path class="cls-4" d="M47.37,22.3V20.17c0-.59.4-.89,1.21-.89h2.3l.4.22v.3H48.59c-.29,0-.44.11-.44.32v2.23c0,.21.15.32.44.32h2.06V21.41H49.42v-.52h2v2.3H48.58C47.77,23.19,47.37,22.89,47.37,22.3Z"/><path class="cls-4" d="M51.86,23.07l1.7-3.79h1.26l1.68,3.79-.1.12h-.65l-.4-.93H53l-.4.93H52Zm1.39-1.33h1.87l-.85-1.94h-.16Z"/><path class="cls-4" d="M57.11,23.19V19.28h1L59.81,22l1.72-2.69h1v3.91h-.79v-3l-1.55,2.43h-.75l-1.55-2.43v3Z"/><path class="cls-4" d="M63.64,23.19V19.28h.79v3.91Z"/><path class="cls-4" d="M65.55,23.19V19.28h.86l2.59,3v-3h.79v3.91h-.86l-2.59-3v3Z"/><path class="cls-4" d="M70.83,22.3V20.17c0-.59.4-.89,1.21-.89h2.3l.4.22v.3H72.05c-.29,0-.43.11-.43.32v2.23c0,.21.14.32.43.32h2.06V21.41H72.88v-.52h2v2.3H72C71.23,23.19,70.83,22.89,70.83,22.3Z"/></svg>