<?xml version="1.0" encoding="utf-8"?>
<!-- Generator: Adobe Illustrator 24.1.0, SVG Export Plug-In . SVG Version: 6.00 Build 0)  -->
<svg version="1.1" id="Layer_1" xmlns="http://www.w3.org/2000/svg" xmlns:xlink="http://www.w3.org/1999/xlink" x="0px" y="0px"
	 viewBox="0 0 40 40" style="enable-background:new 0 0 40 40;" xml:space="preserve">
<style type="text/css">
	.st0{fill:#FFFFFF;}
	.st1{fill:none;}
</style>
<g>
	<path class="st0" d="M21.1,23.1v-2.8c0-0.6,0.4-1,1-1h6.8v-2.5c0-0.9-0.7-1.6-1.6-1.6c0,0,0,0,0,0L15,15.4c0,0-1.3-0.1-1.3-1.2
		s1.3-1.1,1.3-1.1l12.4,0.1c0-1-0.8-1.8-1.8-1.8c0,0,0,0,0,0H13.4c-1,0-1.8,0.8-1.8,1.8v13.3c0,1,0.8,1.8,1.8,1.8h13.7
		c1,0,1.8-0.8,1.8-1.8V24l-6.8,0.1C21.5,24.1,21.1,23.6,21.1,23.1z"/>
	<path class="st0" d="M29,19.6h-6.8c-0.4,0-0.8,0.3-0.8,0.8V23c0,0.4,0.3,0.8,0.8,0.8H29c0.4,0,0.8-0.3,0.8-0.8v-2.7
		C29.8,19.9,29.4,19.6,29,19.6z M23.4,22.7C23.4,22.7,23.4,22.7,23.4,22.7L23.4,22.7c-0.6,0-1-0.4-1-1c0-0.6,0.4-1,1-1
		c0.6,0,1,0.4,1,1C24.4,22.2,23.9,22.7,23.4,22.7z"/>
</g>
<rect class="st1" width="40" height="40"/>
<rect class="st1" width="40" height="40"/>
<path class="st0" d="M36.4,13.9C33.1,5,23.3,0.5,14.4,3.7C5.9,6.8,1.4,15.9,3.8,24.5l-1.3,0.8l6.2,3.6l0-7.2l-1.7,1
	c-0.7-3.4-0.1-6.9,1.7-9.9C12.7,6.4,21,4.4,27.3,8.3s8.4,12.2,4.5,18.6c-3.5,5.8-10.7,7.9-16.8,5.4l1.2-1.3l-7-1.6l2.1,6.9l1.1-1.2
	c2.4,1.3,5.1,1.9,7.9,1.9c2,0,4-0.4,5.9-1.1C35.1,32.6,39.6,22.8,36.4,13.9z"/>
</svg>
