<svg width="215" height="55" viewBox="0 0 215 55" fill="none" xmlns="http://www.w3.org/2000/svg">
<g clip-path="url(#clip0)">
<path d="M50.5636 0H0V45H50.5636V0Z" fill="url(#paint0_linear)"/>
<path d="M48.4363 2.07273H2.12726V42.9409H48.4363V2.07273Z" fill="url(#paint1_linear)"/>
<path d="M47.9455 2.50909H2.60455V42.4909H47.9455V2.50909Z" fill="url(#paint2_radial)"/>
<path opacity="0.65" d="M2.60455 2.50909V42.4909H47.9591V2.50909H2.60455ZM47.6046 42.2591H3.00001V2.98636H47.5636L47.6046 42.2591Z" fill="#630B0B"/>
<path opacity="0.81" d="M18.75 23.2773V39.5318C18.75 39.8864 18.6545 40.1045 18.3409 40.1045C18.0272 40.1045 17.8909 39.8864 17.8909 39.5318V37.3773H17.1C16.35 37.3773 13.35 39.8864 12.6409 40.3773C11.3454 39.6136 9.96815 38.9727 8.54997 38.4545C7.88179 39.0818 7.39088 39.5318 7.07725 39.8182C6.76361 40.1045 6.62725 40.3091 6.50452 40.3091C6.24543 40.2818 6.04088 40.0773 5.99997 39.8182C5.99997 39.5864 6.50452 39.0545 8.72725 36.7227C10.3363 34.9636 11.1409 32.6045 10.9227 30.2318C10.9227 25.35 8.8227 21.1909 6.40906 21.1909C5.78179 21.0818 5.18179 21.4909 5.05906 22.1318C5.04543 22.1864 5.04543 22.2545 5.04543 22.3091C5.04543 22.7045 4.82725 22.8409 4.64997 22.8409C4.4727 22.8409 4.10452 22.2545 4.10452 21.2727C3.96815 19.2 5.5227 17.4 7.59543 17.25C9.24543 17.25 9.91361 18.6136 10.8954 18.45V15.2182C10.9091 14.4136 10.5682 13.6364 9.95452 13.1045C9.4227 12.6545 6.65452 10.7727 5.63179 10.7727C5.3727 10.8 5.11361 10.8545 4.86815 10.9091C4.73179 10.9091 4.69088 10.9091 4.69088 10.7727C4.69088 10.6364 4.7727 10.5545 5.04543 10.2409L8.61815 6.75C8.79543 6.61363 8.87725 6.51818 9.05452 6.51818C10.2682 6.51818 15.0818 10.3773 15.6682 10.3773C16.5954 10.3773 21.5182 6.61363 22.8 6.61363C23.1682 6.61363 23.5227 6.92727 26.2363 9.12273C26.9182 9.70909 27.6272 10.2682 28.3772 10.7727C29.1 11.2227 29.1409 11.3182 29.1409 12.1364C29.5909 12.0545 30.0818 11.6864 32.8909 9.40909C33.9409 8.49545 35.0454 7.63636 36.1909 6.83182C36.4091 6.83182 38.3727 7.65 41.2772 8.85C42.1227 9.20454 42.2591 9.3 42.2591 9.83182V33.0136C42.2591 33.7773 42.3409 34.05 42.6545 34.3773C44.0182 35.5364 44.7954 35.9864 45.2454 35.9864C45.4363 35.9727 45.6273 35.8773 45.7363 35.7273C45.9545 35.4136 45.9954 35.3591 46.1318 35.3591C46.2682 35.3591 46.4045 35.55 46.4045 35.7273C45.2863 37.4045 43.9091 38.8773 42.3136 40.1045C40.5954 39.3409 39.0409 38.2636 37.7182 36.9273C37.3363 36.6136 37.1454 36.1227 37.2272 35.6318V19.0636C37.2272 17.1409 37.8545 15.8455 40.0772 12.8318C41.2363 11.3182 41.3318 10.8682 41.1136 10.8682C40.8954 10.8682 38.2091 12.8318 37.6772 13.1455C35.2636 11.7818 34.5409 11.3182 33.2591 11.3182C32.5363 11.3182 32.0454 11.6727 32.0454 12.1227V39.6682C32.0454 40.0227 31.8682 40.2955 31.5954 40.2955C31.3227 40.2955 31.2409 40.0636 31.2409 39.7091V37.65C29.3727 37.9636 27.8045 40.2273 27.3545 40.2273C26.0045 39.1636 24.8454 37.8818 23.9182 36.4364V23.2773H18.75ZM17.9454 11.85C17.9454 10.95 17.85 10.65 17.6727 10.65C17.2772 10.65 15.8454 11.5364 15.8454 11.85V24.2591C15.8454 30.3955 15.1227 31.0773 13.5272 32.7273C12.8045 33.4773 12.6272 33.6682 12.0954 34.2955C13.0363 35.6591 16.1863 36.1636 17.9454 36.0818V11.85ZM18.75 19.0227H23.9182V14.1C23.9182 13.1455 20.5772 10.5955 19.4591 10.5955C18.9682 10.5955 18.7091 10.9091 18.7091 11.4955L18.75 19.0227ZM31.2818 12.6545C31.2818 12.5727 31.2818 12.5182 31.1045 12.5182C30.9272 12.5455 30.7636 12.6 30.6136 12.6955L29.5909 13.3364C29.0045 13.6909 28.8272 13.8682 28.8272 14.1409V18.6136C28.8272 18.9273 29.2363 19.1455 29.55 19.1455H31.2818V12.6545ZM31.2818 23.1818H29.5909C29.1 23.1818 28.8682 23.5364 28.8682 24.2182V33.4091C28.8682 35.1955 29.6318 36.0545 31.2818 36.1364V23.1818Z" fill="#630B0B"/>
<path d="M18.75 22.3227V38.5773C18.75 38.9318 18.6546 39.1636 18.3409 39.1636C18.0273 39.1636 17.8909 38.9318 17.8909 38.5773V36.4227H17.1C16.35 36.4227 13.35 38.9318 12.6409 39.4227C11.3455 38.6591 9.96819 38.0182 8.55001 37.5C7.88183 38.1273 7.39092 38.5773 7.07729 38.8636C6.76365 39.15 6.62729 39.3545 6.50456 39.3545C6.23183 39.3409 6.01365 39.1364 5.97274 38.8636C5.97274 38.6318 6.47729 38.1 8.70001 35.7682C10.3227 34.0227 11.1273 31.6909 10.9364 29.3182C10.9364 24.4364 8.83638 20.2773 6.42274 20.2773C5.79547 20.1682 5.19547 20.5773 5.07274 21.2182C5.0591 21.2727 5.0591 21.3409 5.0591 21.3955C5.0591 21.7909 4.84092 21.9273 4.66365 21.9273C4.48638 21.9273 4.11819 21.3409 4.11819 20.3591C3.94092 18.2864 5.48183 16.4455 7.55456 16.2682C7.56819 16.2682 7.58183 16.2682 7.6091 16.2682C9.2591 16.2682 9.92729 17.6318 10.9091 17.4682V14.3182C10.9227 13.5136 10.5818 12.7364 9.96819 12.2045C9.43638 11.7545 6.66819 9.88636 5.64547 9.88636C5.27728 9.88636 5.10001 10.0091 4.88183 10.0091C4.66365 10.0091 4.70456 10.0091 4.70456 9.88636C4.70456 9.76363 4.78638 9.65454 5.0591 9.34091L8.6182 5.79545C8.79547 5.65909 8.87729 5.57727 9.05456 5.57727C10.2682 5.57727 15.0818 9.42272 15.6682 9.42272C16.5955 9.42272 21.5182 5.65909 22.8 5.65909C23.1682 5.65909 23.5227 5.97272 26.2364 8.16818C26.9182 8.76818 27.6273 9.31363 28.3773 9.83182C29.1 10.2682 29.1409 10.3636 29.1409 11.1955C29.5909 11.1136 30.0818 10.7591 32.8909 8.46818C33.9409 7.55454 35.0455 6.69545 36.1909 5.89091C36.4091 5.89091 38.3727 6.69545 41.2773 7.89545C42.1227 8.26363 42.2591 8.34545 42.2591 8.89091V32.0455C42.2591 32.7955 42.3409 33.0682 42.6546 33.3409C44.0182 34.5 44.7955 34.95 45.2455 34.95C45.4227 34.9636 45.6 34.8955 45.7364 34.7727C45.9546 34.4591 45.9955 34.4182 46.1318 34.4182C46.2682 34.4182 46.4046 34.5955 46.4046 34.7727C45.2864 36.45 43.9091 37.9364 42.3137 39.1636C40.5955 38.4 39.0409 37.3227 37.7182 35.9864C37.3091 35.6591 37.1182 35.1273 37.2273 34.6227V18.1091C37.2273 16.1864 37.8546 14.8909 40.0773 11.8909C41.2364 10.3636 41.3318 9.91363 41.1137 9.91363C40.8955 9.91363 38.2091 11.8909 37.6773 12.1909C35.2637 10.8273 34.5409 10.3636 33.2591 10.3636C32.5364 10.3636 32.0455 10.7182 32.0455 11.1682V38.7136C32.0455 39.0682 31.8682 39.3409 31.5955 39.3409C31.3227 39.3409 31.2409 39.1091 31.2409 38.7545V36.6955C29.3182 37.0091 27.7637 39.2455 27.3137 39.2455C25.9909 38.1818 24.8455 36.9136 23.9182 35.4818V22.3227H18.75ZM17.9455 10.8955C17.9455 10.0091 17.85 9.69545 17.6727 9.69545C17.2773 9.69545 15.8455 10.5818 15.8455 10.8955V23.3045C15.8455 29.4409 15.1227 30.1227 13.5273 31.7727C12.8046 32.5364 12.6273 32.7136 12.0955 33.3409C13.0364 34.6364 16.1864 35.2227 17.9455 35.1273V10.8955ZM18.75 18.0682H23.9182V13.1455C23.9182 12.1909 20.5773 9.64091 19.4591 9.64091C18.9682 9.64091 18.7091 9.95454 18.7091 10.5409L18.75 18.0682ZM31.2818 11.7C31.2818 11.6182 31.2818 11.5773 31.1046 11.5773C30.9273 11.5909 30.7637 11.6591 30.6137 11.7545L29.5909 12.3818C29.0046 12.7364 28.8273 12.9136 28.8273 13.1864V17.6591C28.8273 17.9727 29.2364 18.2045 29.55 18.2045H31.2818V11.7ZM31.2818 22.2273H29.5909C29.1 22.2273 28.8682 22.5955 28.8682 23.2636V32.4409C28.8682 34.2273 29.6318 35.0864 31.2818 35.1682V22.2273Z" fill="url(#paint3_radial)"/>
</g>
<path d="M66.1213 36.538V18.5788H59.5636V14.3462H78.2531V18.5788H71.6954V36.538H66.1213Z" fill="white"/>
<path d="M99.2824 36.538H93.7083V26.7014H86.1223V36.538H80.5482V14.3462H86.1223V22.4688H93.7083V14.3462H99.2824V36.538Z" fill="white"/>
<path d="M103.888 36.538V14.3462H118.896V18.5788H109.432V22.4688H118.151V26.7014H109.432V32.3053H118.896V36.538H103.888ZM117.748 12.1255H113.888L111.429 9.57692L108.985 12.1255H105.184L109.67 7.19231H113.262L117.748 12.1255ZM123.039 8.29519C123.039 9.02051 122.85 9.56699 122.473 9.93462C122.105 10.2923 121.638 10.5705 121.072 10.7692V11.6486H118.419V9.97933C118.886 9.8601 119.239 9.68125 119.477 9.44279C119.716 9.20433 119.835 8.89135 119.835 8.50385C119.835 8.26538 119.74 8.0766 119.552 7.9375C119.363 7.78846 119.104 7.71394 118.777 7.71394C118.469 7.71394 118.22 7.73878 118.031 7.78846C117.853 7.82821 117.644 7.89279 117.405 7.98221H117.361V6.26827C117.55 6.20865 117.838 6.14904 118.225 6.08942C118.613 6.02981 119.02 6 119.447 6C120.64 6 121.534 6.22853 122.13 6.68558C122.736 7.14263 123.039 7.67917 123.039 8.29519Z" fill="white"/>
<path d="M135.871 36.538V18.5788H129.314V14.3462H148.003V18.5788H141.445V36.538H135.871Z" fill="white"/>
<path d="M169.032 36.538H163.458V26.7014H155.872V36.538H150.298V14.3462H155.872V22.4688H163.458V14.3462H169.032V36.538Z" fill="white"/>
<path d="M171.253 36.538L178.75 14.3462H184.83L192.327 36.538H186.589L185.203 32.0072H178.228L176.842 36.538H171.253ZM183.981 27.9832L181.716 20.6654L179.45 27.9832H183.981Z" fill="white"/>
<path d="M214.742 25.4495C214.742 29.0364 213.784 31.8582 211.866 33.9149C209.948 35.9716 207.32 37 203.982 37C200.633 37 198.005 35.9617 196.098 33.8851C194.19 31.7986 193.236 28.9867 193.236 25.4495C193.236 21.8825 194.19 19.0657 196.098 16.999C198.005 14.9224 200.633 13.8841 203.982 13.8841C207.32 13.8841 209.948 14.9175 211.866 16.9841C213.784 19.0409 214.742 21.8627 214.742 25.4495ZM208.99 25.4346C208.99 24.1131 208.85 22.9904 208.572 22.0663C208.304 21.1324 207.941 20.3673 207.484 19.7712C207.007 19.1651 206.466 18.7329 205.86 18.4745C205.264 18.2063 204.643 18.0721 203.997 18.0721C203.311 18.0721 202.69 18.1963 202.134 18.4447C201.577 18.6832 201.041 19.1154 200.524 19.7413C200.067 20.3176 199.695 21.0827 199.406 22.0365C199.128 22.9904 198.989 24.128 198.989 25.4495C198.989 26.8107 199.123 27.9434 199.392 28.8476C199.66 29.7418 200.027 30.492 200.494 31.0981C200.971 31.7141 201.513 32.1562 202.119 32.4245C202.725 32.6829 203.351 32.812 203.997 32.812C204.653 32.812 205.288 32.6729 205.904 32.3947C206.521 32.1066 207.052 31.6644 207.499 31.0683C207.976 30.4224 208.344 29.6723 208.602 28.8178C208.86 27.9534 208.99 26.8256 208.99 25.4346Z" fill="white"/>
<defs>
<linearGradient id="paint0_linear" x1="25.2818" y1="0.218182" x2="25.2818" y2="50.1955" gradientUnits="userSpaceOnUse">
<stop stop-color="#FECF82"/>
<stop offset="0.22" stop-color="#FECF82"/>
<stop offset="0.26" stop-color="#FECF82"/>
<stop offset="0.36" stop-color="#FCCD81"/>
<stop offset="0.39" stop-color="#F7C67C"/>
<stop offset="0.42" stop-color="#EDBB73"/>
<stop offset="0.44" stop-color="#DEAA67"/>
<stop offset="0.46" stop-color="#CC9457"/>
<stop offset="0.48" stop-color="#AF723E"/>
<stop offset="1" stop-color="#FECF82"/>
</linearGradient>
<linearGradient id="paint1_linear" x1="25.2818" y1="2.26364" x2="25.2818" y2="47.6455" gradientUnits="userSpaceOnUse">
<stop stop-color="#D6B26D"/>
<stop offset="0.17" stop-color="#E1C18B"/>
<stop offset="0.4" stop-color="#EED3AD"/>
<stop offset="0.62" stop-color="#F7DFC5"/>
<stop offset="0.83" stop-color="#FCE6D4"/>
<stop offset="0.99" stop-color="#FEE9D9"/>
</linearGradient>
<radialGradient id="paint2_radial" cx="0" cy="0" r="1" gradientUnits="userSpaceOnUse" gradientTransform="translate(26.2773 4.65682) scale(80.5091 40.2545)">
<stop stop-color="#F95346"/>
<stop offset="0.19" stop-color="#DC3631"/>
<stop offset="0.38" stop-color="#C62021"/>
<stop offset="0.51" stop-color="#BE181B"/>
<stop offset="1" stop-color="#C7120C"/>
</radialGradient>
<radialGradient id="paint3_radial" cx="0" cy="0" r="1" gradientUnits="userSpaceOnUse" gradientTransform="translate(24.8727 11.1409) scale(42.4773)">
<stop stop-color="white"/>
<stop offset="0.18" stop-color="#FAFAFB"/>
<stop offset="0.38" stop-color="#EDEDEE"/>
<stop offset="0.58" stop-color="#D6D7D8"/>
<stop offset="0.8" stop-color="#B7B8BA"/>
<stop offset="1" stop-color="#939598"/>
</radialGradient>
<clipPath id="clip0">
<rect width="50.5636" height="45" fill="white"/>
</clipPath>
</defs>
</svg>
