<svg xmlns="http://www.w3.org/2000/svg" width="49" height="49" fill="none" viewBox="0 0 49 49">
    <path fill="#fff" d="M24.436 46.178c11.65 0 21.096-9.633 21.096-21.514 0-11.883-9.445-21.515-21.096-21.515-11.652 0-21.097 9.633-21.097 21.514 0 11.882 9.445 21.515 21.097 21.515z"/>
    <path fill="#E40707" d="M22.556 2.732c11.906-1.044 22.35 7.937 23.394 20.052.627 7.102-2.297 14.204-7.728 18.799-7.729 6.684-19.008 6.684-26.945.418-9.4-7.31-11.07-21.097-3.76-30.705 3.551-4.804 9.19-7.937 15.04-8.564zm.21.836c-11.49.835-20.053 11.07-19.009 22.767 1.045 11.697 10.862 20.47 22.35 19.425 11.488-1.044 20.052-11.07 19.008-22.767-.627-6.684-4.178-12.532-9.608-16.292-3.76-2.298-8.147-3.551-12.742-3.133z"/>
    <path fill="#E40707" d="M21.512 4.612c10.026-1.462 19.425 4.804 22.14 14.621 1.463 5.431.627 11.697-2.506 16.293-2.924 1.253-6.057 1.462-8.982 1.462-5.013-.21-10.026-1.671-15.247-1.671-2.925 0-5.849.209-8.564 1.462-6.475-8.982-4.596-21.723 4.177-28.407 2.716-1.88 5.64-3.133 8.982-3.76zm2.924.418l-1.253 3.76h-3.969c1.045.835 2.089 1.462 3.133 2.297-.209 1.253-.626 2.507-1.044 3.969 1.044-.836 2.089-1.462 3.133-2.298 1.044.836 2.089 1.462 3.133 2.298l-1.253-3.76c1.044-.835 2.089-1.462 3.133-2.298H25.48c-.208-1.462-.626-2.715-1.044-3.968zm-8.982 5.013c-.208.626-.208 1.253-.417 1.88l-1.88.209 1.67 1.044c-.208.418-.208 1.253-.417 1.88l1.462-1.462c.627.417 1.045.626 1.671.835-.209-.418-.418-1.044-.835-1.67.417-.419 1.044-.836 1.462-1.254-.627 0-1.253 0-1.88.209-.418-.627-.627-1.254-.836-1.671zm17.128 1.67l-1.88-.208c.418.418.836.835 1.462 1.253-.208.627-.626 1.253-.835 1.671L33 13.594c.418.417 1.044.835 1.462 1.253-.209-.418-.209-1.044-.418-1.671.627-.209 1.045-.627 1.671-1.044l-1.88-.21c-.208-.626-.208-1.253-.417-1.88-.21.418-.418 1.045-.836 1.672zM9.397 14.43v1.253l-1.044.418 1.044.21v1.252c.209-.417.418-.626.627-1.044l1.253.418-.836-1.045.627-1.044-1.044.627c-.21-.418-.418-.627-.627-1.045zm29.452 1.045l-1.045-.418.627.835c-.21.21-.418.627-.836.836l1.045-.21.626 1.045V16.31l1.254-.209-1.045-.418V14.43l-.627 1.045zm-26.528 1.88c-1.253.417-2.506 1.253-3.133 2.297v11.906c.836.627 1.88 1.044 2.924 1.253 1.254.418 2.507.21 3.76.21 1.253 0 2.507-.419 3.551-1.254 1.462-1.253 1.88-3.551 1.045-5.43-.418-1.045-1.254-1.672-2.298-2.09 1.253-.626 1.88-1.67 1.88-2.924 0-2.089-1.88-3.969-3.76-4.177-1.462 0-2.715 0-3.969.208zm5.431-.21c1.462.627 2.298 1.88 2.924 3.343h1.88v12.741h3.342V20.487h1.88c1.045-1.463 2.298-2.716 3.969-3.342H17.752zm14.204.418c-1.671.627-3.133 1.88-3.969 3.551-.835 1.88-1.044 3.969-.835 6.058.208 1.88 1.253 3.76 2.715 4.804 1.462 1.044 3.342 1.462 5.013 1.253 1.67-.209 3.55-.627 5.013-1.88V23.62H34.67v2.924h2.089v2.924c-1.045.836-2.507.836-3.76.21-1.253-.628-2.298-1.88-2.506-3.134-.21-1.462-.21-2.924.417-4.178.418-1.253 1.462-2.297 2.716-2.506 1.67-.418 3.133.209 4.386 1.253.418-.835.836-1.88 1.462-2.715-1.88-1.462-5.013-1.671-7.52-.836z"/>
    <path fill="#E40707" d="M13.157 20.904c.835-1.044 2.715-.835 3.342.418.209.627 0 1.671-.836 1.88-1.044.209-1.88 0-2.715 0 0-.836-.21-1.671.209-2.298zm-.21 5.013c1.045 0 2.298-.208 3.343.21 1.67.626 1.462 3.341-.21 3.968-1.043.209-2.297.209-3.341-.209.209-1.462.209-2.715.209-3.969zm6.058 10.235c5.849.627 11.488 2.09 17.337 1.462 1.462-.208 2.715-.417 3.968-1.044-1.044 1.253-2.088 2.715-3.55 3.76-1.045.209-2.09 0-3.133 0-3.134-.418-6.058-1.462-9.191-2.298-1.462-.626-3.342-1.462-5.43-1.88zm-3.76 1.254c2.507 0 4.805.835 7.311 1.67 3.969 1.254 7.729 2.925 11.906 3.134-1.671 1.044-3.55 1.88-5.64 2.297-.209 0-.417-.209-.835-.209-2.507-1.462-4.804-2.924-7.31-4.386-1.672-1.044-3.343-2.089-5.432-2.506zm-3.133 3.342c1.671.209 3.551.417 5.013 1.044 1.88.835 3.342 1.88 5.013 3.133-3.55-.418-6.893-1.88-10.026-4.177z"/>
</svg>
