<svg xmlns="http://www.w3.org/2000/svg" width="49" height="48" fill="none" viewBox="0 0 49 48">
    <path fill="url(#paint0_linear)" d="M24.045 45.24c11.73 0 21.24-9.51 21.24-21.24 0-11.73-9.51-21.24-21.24-21.24-11.73 0-21.24 9.51-21.24 21.24 0 11.73 9.51 21.24 21.24 21.24z"/>
    <path fill="#231F20" d="M43.365 20.52c-.72-2.16-2.88-3.84-5.28-3.84-3.12 0-5.52 2.52-5.52 5.52 0 3 2.52 5.52 5.52 5.52 1.2 0 2.28-.36 3.24-.96-.24.36-.48.84-.84 1.08-1.08.96-2.52 1.56-4.2 1.44-.96 0-1.92-.24-2.76-.72l-3.12-1.8-.36.12c.36-.84.6-1.8.6-2.76 0-3.84-3.12-7.08-7.08-7.08s-7.08 3.12-7.08 7.08c0 .96.12 1.8.48 2.52v.12l-3 1.68c-.84.48-1.8.84-2.88.84-2.88 0-5.28-2.4-5.28-5.28 0-2.88 2.4-5.28 5.28-5.28 1.44 0 2.88.6 3.84 1.56l1.2-1.44c-1.08-1.2-2.88-2.04-4.8-2.04-3.96 0-7.2 3.24-7.2 7.2s3.24 7.2 7.2 7.2c1.32 0 2.52-.36 3.6-.96l3.12-1.8c1.32 1.68 3.36 2.76 5.64 2.76 2.16 0 4.2-.96 5.4-2.64v-.12l.12.12 2.88 1.68c.12 0 .24.12.36.12 1.08.6 2.28.96 3.6.96h.24c2.16 0 3.96-.72 5.28-2.04 1.44-1.44 2.28-3.48 2.28-5.76.12-1.08-.12-2.04-.48-3zm-19.8 8.76c-2.88 0-5.16-2.28-5.16-5.16 0-2.88 2.28-5.16 5.16-5.16 2.88 0 5.16 2.28 5.16 5.16 0 .72-.12 1.44-.36 2.04-1.44-.84-3-1.2-4.68-1.2-1.32 0-2.64.24-3.84.6.24.6.6 1.2 1.08 1.68.84-.24 1.8-.36 2.76-.36 1.2 0 2.52.36 3.6.96v.12c-.84.72-2.16 1.32-3.72 1.32zm14.52-3.24c-2.04 0-3.72-1.68-3.72-3.72s1.68-3.72 3.72-3.72 3.72 1.68 3.72 3.72-1.68 3.72-3.72 3.72z"/>
    <path fill="#231F20" d="M8.085 27.12c-.12 0-.12-.12-.24-.12-.12-.12-.12-.12-.12-.24s-.12-.12-.12-.24v-.24c0-.12 0-.12.12-.24 0-.12.12-.12.24-.24.12 0 .12-.12.24-.12h.24c.12 0 .12 0 .24.12.12 0 .12.12.24.24 0 .12.12.12.12.24v.24h-.24v-.12s0-.12-.12-.12l-.12-.12h-.24s-.12 0-.12.12l-.12.12s0 .12-.12.12v.12s0 .12.12.12l.12.12s.12 0 .12.12l.12-.12-.12-.24v-.24l.24.36-.48.36zM9.405 26.64l.24.12-.24 1.32-.24-.12.12-.24-.36-.24-.48.12-.24-.12 1.2-.84zm-.12.36l-.36.24.24.12.12-.36zM9.886 27.12l.36.12.12.84.48-.72.36.12-.24 1.2-.24-.12.24-.96-.6.84h-.24l-.12-.96-.24.96-.12-.12.24-1.2zM11.565 27.48h.24l.24 1.2h-.24l-.24-1.2zM12.165 27.36l.36-.12.84.6-.36-.84.24-.12.48 1.08-.36.12-.84-.6.36.84-.24.12-.48-1.08zM15.046 27.24c0 .12-.12.12-.24.24-.12 0-.12.12-.24.12h-.48c-.12 0-.12-.12-.24-.12s-.12-.12-.12-.24-.12-.12-.12-.24v-.24c0-.12.12-.12.12-.24s.12-.12.24-.12.12-.12.24-.12h.24v.24h-.24s-.12 0-.12.12c0 0 0 .12-.12.12V27s0 .12.12.12l.12.12h.24s.12 0 .12-.12l.12-.12-.12-.24-.12.24-.12-.24.48-.24.24.72z"/>
    <defs>
        <linearGradient id="paint0_linear" x1="24.041" x2="24.041" y1="3.217" y2="44.413" gradientUnits="userSpaceOnUse">
            <stop stop-color="#FDD500"/>
            <stop offset=".011" stop-color="#FDD401"/>
            <stop offset=".247" stop-color="#FAB90D"/>
            <stop offset=".488" stop-color="#F8A616"/>
            <stop offset=".736" stop-color="#F79B1B"/>
            <stop offset="1" stop-color="#F7971D"/>
        </linearGradient>
    </defs>
</svg>
