<svg xmlns="http://www.w3.org/2000/svg" width="48" height="48" fill="none" viewBox="0 0 48 48">
    <path fill="#fff" d="M18.293 24.142l-4.461-.166c.165.356.373.673.628.948.646.694 1.442 1.042 2.387 1.042.402 0 .856-.103 1.364-.307l.082-1.517zm-11.475-.427l-.505 2.102h2.36l.186-1.073h1.539l.17 1.073h2.36l-.4-1.89-5.71-.212zm2.34-6.562L7.63 23.512l5.71.212-1.39-6.57H9.156zm.82 5.573l.23-1.326.16-1.024.021-.16c.011-.087.03-.244.055-.47l.041-.313c.013-.095.023-.18.03-.257l.072.8.044.408c.01.108.02.192.027.255.07.555.108.873.115.953.01.095.018.144.022.148l.148.987h-.964zm9.128 1.213l.05-.928c-.398.366-.794.549-1.188.549-.23 0-.435-.05-.613-.149-.179-.098-.33-.24-.452-.427s-.216-.415-.282-.686c-.066-.27-.098-.577-.098-.92 0-.708.13-1.264.394-1.665.263-.398.627-.598 1.095-.598.358 0 .706.17 1.046.51v-2.417c-.384-.139-.76-.208-1.13-.208-1.135 0-2.041.402-2.72 1.206-.679.807-1.018 1.878-1.018 3.21 0 .922.153 1.706.455 2.357l4.46.166zm8.225-2.898c.109.196.252.386.427.57.175.185.387.37.635.556l.372.29c.27.216.405.437.405.663 0 .158-.061.288-.186.392-.124.104-.284.157-.482.157-.521 0-1.007-.307-1.456-.92v1.485l4.059.15c.234-.43.354-.927.354-1.493 0-.49-.106-.917-.317-1.282-.208-.365-.553-.722-1.035-1.069l-.361-.268c-.31-.223-.466-.447-.466-.674 0-.139.059-.258.176-.357.113-.102.257-.153.432-.153.23 0 .464.083.701.25.237.166.45.393.636.682v-2.587c-.553-.288-1.1-.433-1.644-.433-.61 0-1.13.183-1.56.548-.158.128-.297.275-.417.441-.12.167-.226.35-.317.55-.183.432-.274.845-.274 1.24 0 .23.025.448.076.657.051.208.132.41.242.605zM2.283 23.547L0 23.462v2.355h2.283v-2.27zm.813-1.336h1.09v1.173l2.283.085v-6.316H4.186v2.992h-1.09v-2.992H.813v6.106l2.283.085V22.21zm.277 3.606h2.283v-2.145l-2.283-.085v2.23zm20.436-8.664l-1.346 3.628.06-3.628h-2.284v6.827l2.26.084-.036-2.352.927 2.386 2.386.089-1.38-2.95 1.823-4.083h-2.41zm9.982 0l-1.744 7.266 6.123.228-1.587-7.494h-2.792zm.822 5.573l.23-1.326.159-1.024c.004-.019.01-.072.022-.16.01-.087.03-.244.055-.47l.041-.313c.013-.095.023-.18.03-.257l.07.8c.02.164.034.3.045.408.01.108.02.192.027.255.07.555.108.873.115.953.01.095.018.144.022.148l.148.987h-.964zm4.903 3.091h2.224l.112-.8-2.534-.093.198.893zm-20.089-1.633v1.633h2.283l-.024-1.549-2.259-.084zm26.345-7.03l-.416 2.624c-.06.366-.112.773-.16 1.222-.047.45-.091.965-.13 1.545-.136-1.293-.295-2.413-.477-3.36l-.383-2.032H42.24l-.427 2.416c-.12.698-.219 1.434-.296 2.209l-.07.663-.077-.773c-.055-.529-.153-1.258-.296-2.186l-.372-2.329h-2.256l1.684 7.567 2.535.094.32-2.269c.036-.255.067-.498.093-.729.025-.23.047-.449.066-.657.036-.41.063-.689.082-.838.007.073.02.179.038.318l.066.52c.05.42.127.917.23 1.49l.392 2.213 2.468.091 1.58-7.8h-2.228zm-.165 8.003l-2.468-.092.133.752h2.202l.133-.66zm-10.572-.393l.166 1.053h2.36l-.204-.967-2.322-.086zm-8.802.845c.613.237 1.188.357 1.724.357.777 0 1.42-.271 1.928-.812.162-.173.296-.363.406-.566l-4.058-.15v1.171zm-3.656-1.308l.589 1.516h2.464l-.668-1.427-2.385-.09zm8.37 1.516h2.36l.186-1.073-2.26-.12-.286 1.193zM2.25 29.208h.615c-.013.084-.037.156-.073.214-.036.059-.08.107-.135.143-.055.037-.117.064-.186.08-.068.017-.14.025-.214.025-.124 0-.234-.02-.328-.063-.094-.042-.174-.102-.237-.178-.064-.076-.111-.167-.143-.271-.032-.105-.048-.218-.048-.34 0-.135.018-.258.056-.367.037-.11.087-.204.152-.282.065-.077.143-.137.236-.18.091-.041.193-.063.305-.063.135 0 .255.034.36.104.107.069.192.182.259.34l.71-.295c-.132-.273-.312-.474-.538-.604-.227-.13-.49-.195-.791-.195-.232 0-.442.037-.631.11-.189.075-.35.178-.483.31-.134.133-.237.293-.31.48-.073.188-.11.394-.11.618 0 .227.038.434.112.622.074.187.177.348.31.482.132.133.29.238.475.311.185.074.39.111.614.111.162 0 .318-.02.466-.06.147-.042.283-.1.407-.179.123-.077.23-.174.323-.29.091-.117.164-.25.217-.4.039-.107.064-.223.077-.348.012-.125.019-.264.019-.417H2.25v.582zm8.178-1.85L9.332 30.24h.799l.172-.501h1.07l.172.5h.799l-1.097-2.883h-.818zm.072 1.812l.336-.96.337.96H10.5zm9.924-1.813l-.573 1.538-.578-1.538h-.74l-.49 2.884h.745l.249-1.66.646 1.66h.298l.68-1.66.249 1.66h.745l-.49-2.884h-.741zm7.207 2.883h.75v-2.883h-.75v2.883zm8.988-1.12l-1.384-1.763h-.749v2.883h.749v-1.763l1.384 1.763h.745v-2.883h-.745v1.763zm8.308.088h.615c-.013.084-.037.156-.073.214-.036.059-.08.107-.135.143-.055.037-.117.064-.186.08-.069.017-.14.025-.214.025-.125 0-.234-.02-.328-.063-.094-.042-.174-.102-.237-.178-.064-.076-.112-.167-.144-.271-.032-.105-.048-.218-.048-.34 0-.135.019-.258.056-.367.036-.11.087-.204.152-.282.066-.077.144-.137.236-.18.091-.041.194-.063.306-.063.135 0 .255.034.36.104.107.069.192.182.259.34l.71-.295c-.132-.273-.312-.474-.538-.604-.227-.13-.49-.195-.791-.195-.232 0-.442.037-.631.11-.189.075-.35.178-.483.31-.134.133-.237.293-.31.48-.073.188-.11.394-.11.618 0 .227.038.434.112.622.074.187.177.348.309.482.132.133.291.238.476.311.184.074.389.111.613.111.163 0 .318-.02.466-.06.148-.042.283-.1.407-.179.123-.077.231-.174.323-.29.091-.117.164-.25.218-.4.038-.107.063-.223.076-.348.013-.125.019-.264.019-.417h-1.486v.582z"/>
</svg>
