<svg xmlns="http://www.w3.org/2000/svg" width="49" height="48" fill="none" viewBox="0 0 49 48">
    <path fill="#FCAF17" fill-rule="evenodd" d="M26.325 20.28v24.84h-4.32V20.28c.72.24 1.44.36 2.16.36.72 0 1.44-.12 2.16-.36zM30.645 6.72c-.48-.84-.96-1.56-1.44-1.92-1.44-1.2-3-1.92-4.92-1.92-1.8 0-3.48.6-4.8 1.8-.6.48-1.08 1.08-1.56 1.92-.48.84-.72 2.04-.72 3.36 0 1.32.24 2.4.72 3.24.48.84.96 1.56 1.44 1.92 1.44 1.2 3 1.8 4.92 1.8s3.48-.6 4.92-1.8c.6-.48 1.08-1.08 1.56-1.92.48-.84.72-1.92.72-3.24-.24-1.32-.48-2.4-.84-3.24zm-3.84 5.88c-.72.6-1.56.96-2.64.96-.96 0-1.8-.36-2.52-.96s-1.08-1.56-1.08-2.64c0-1.2.36-2.04 1.08-2.64.72-.6 1.56-.96 2.52-.96s1.8.36 2.64.96c.72.6 1.08 1.56 1.08 2.64s-.36 1.92-1.08 2.64z" clip-rule="evenodd"/>
</svg>
