<svg xmlns="http://www.w3.org/2000/svg" width="49" height="48" fill="none" viewBox="0 0 49 48">
    <path fill="url(#paint0_linear)" d="M24.165 2.76c-11.64 0-21.24 9.48-21.24 21.24 0 2.16.36 4.2.96 6.24.36-.6.72-1.08 1.2-1.68 1.44-2.16 3-4.32 4.32-6.6l1.08-1.68c.36-.6.6-1.08.96-1.68.72-1.08 1.32-2.28 2.04-3.36.36-.6.6-1.2.96-1.68.36-.6.6-1.2.96-1.68.24-.6.6-1.2.84-1.68l.84-1.8.12-.12c.48-.96 1.68-1.32 2.52-.84.72.36 1.08 1.2 1.08 1.92 0 .96-.24 2.04-.24 3.12-.12.84-.12 1.92-.24 3-.12 2.04-.12 4.2-.12 6.24s.12 4.08.36 6.12c.12.96.24 2.04.48 2.88.24.96.48 1.8.84 2.52.12.36.36.6.48.72s0 0 .12 0h.36l.12-.12c.24-.12.6-.48.84-.84.6-.72 1.2-1.44 1.68-2.28.6-.84 1.08-1.68 1.56-2.64.96-1.8 1.92-3.6 2.88-5.52.48-.96.84-1.92 1.32-2.88.48-.96.84-1.92 1.2-2.88s1.56-1.44 2.52-1.08c.6.24 1.08.84 1.2 1.44 0 .24 0 .6.12.84l.12.84c.12.6.12 1.2.24 1.8.24 1.2.48 2.28.72 3.48.36 1.2.72 2.28 1.2 3.36s1.08 2.16 1.8 3c.12.24.12.48-.12.72-.24.12-.48.12-.6 0-.96-.84-1.8-1.8-2.52-2.88-.72-1.08-1.32-2.16-1.92-3.36-.36-.72-.72-1.56-1.08-2.28-.24.48-.48.96-.6 1.44-.96 1.92-1.92 3.84-3 5.76-.48.96-1.08 1.92-1.68 2.76-.6.96-1.2 1.8-2.04 2.76-.36.48-.84.96-1.44 1.32-.12.12-.36.24-.48.36s-.24.12-.36.24l-.24.12h-.36c-.12 0-.24.12-.36.12-.24 0-.48.12-.72.12-.48 0-1.08 0-1.56-.24-.48-.12-.96-.48-1.32-.72-.72-.6-1.08-1.2-1.44-1.8-.6-1.2-.96-2.4-1.2-3.48s-.36-2.16-.48-3.36c-.24-2.16-.36-4.32-.36-6.48v-3.12c-.36.72-.72 1.44-1.2 2.16-.36.6-.6 1.2-.96 1.8l-.96 1.8c-1.32 2.4-2.76 4.68-4.08 6.96-.96 1.44-1.8 3-2.76 4.44 3.84 5.76 10.32 9.6 17.76 9.6 11.76 0 21.24-9.48 21.24-21.24-.12-11.76-9.6-21.24-21.36-21.24z"/>
    <defs>
        <linearGradient id="paint0_linear" x1="34.813" x2="13.586" y1="5.621" y2="42.388" gradientUnits="userSpaceOnUse">
            <stop stop-color="#0099D8"/>
            <stop offset="1" stop-color="#4AAF65"/>
        </linearGradient>
    </defs>
</svg>
