<svg xmlns="http://www.w3.org/2000/svg" width="49" height="48" fill="none" viewBox="0 0 49 48">
    <path fill="#FF1323" d="M24.645 17.64h-12.12s-.12 0-.12.12l-3.84 12.36c0 .12 0 .12.12.12h5.76s.12 0 .12-.12l1.08-3.48c0-.12 0-.12-.12-.12h-2.52c-.12 0-.12-.12-.12-.12l1.56-4.92s0-.12.12-.12h8.88c.12 0 .12.12.12.12l-2.64 8.64c-1.08 3.48-4.56 6.36-8.04 6.36h-6.36c-3.48 0-5.4-2.88-4.32-6.36l3.96-12.6c1.08-3.48 4.8-6.12 8.28-6.12h12.12c.12 0 .12.12.12.12l-2.04 6.12c.12 0 0 0 0 0zM41.205 11.4h-5.76c-3.6 0-7.32 2.64-8.52 6.24L23.085 30c-1.08 3.6.84 6.48 4.44 6.48h5.76c3.6 0 7.56-3 8.64-6.48l3.72-12.24c1.2-3.72-.84-6.36-4.44-6.36zm-5.76 18.84h-6c-.12 0-.12-.12-.12-.12l3.84-12.36s0-.12.12-.12h5.88c.12 0 .12.12.12.12l-3.84 12.48c.12 0 .12 0 0 0z"/>
</svg>
