<svg xmlns="http://www.w3.org/2000/svg" width="48" height="48" fill="none" viewBox="0 0 48 48">
    <path fill="#3B405E" d="M45.965 14.714c-2.44-5.979-12.446-7.199-23.306-3.416l-4.88-3.05c-1.465-.855-3.173.243-3.295 1.952v4.88C5.088 20.695-.281 28.748 2.038 34.483c2.684 6.589 14.642 7.443 26.844 1.952 12.08-5.369 19.768-15.13 17.083-21.72zM19.243 12.03l11.592 7.321c.854.488.976 1.83 0 2.44L19.12 28.87c-.855.488-2.197-.122-2.075-1.342V13.372c0-1.098 1.22-1.83 2.197-1.342zm-6.101 26.6c-5.247-.366-7.322-3.904-5.98-8.663 0 .732.123 1.586.367 2.196 2.074 5.125 11.348 5.735 20.621 1.587.244-.122.366-.122.61-.244-5.247 3.416-11.104 5.369-15.618 5.124zm21.841-12.934c-4.636 5.98-13.056 10.128-18.79 9.64-5.736-.488-6.59-5.613-1.953-11.592.122-.122.244-.244.244-.366v7.443c0 1.952 1.83 2.807 3.05 2.075L34.74 22.402c1.343-.854 1.22-2.807-.122-3.539l-6.833-4.027c1.83-.61 3.66-.854 5.247-.732 5.857.488 6.711 5.735 1.952 11.592zm6.467-8.541c0-.122 0-.122-.122-.244-1.708-4.027-7.931-5.37-15.252-3.417l-1.22-.732c3.538-1.586 7.199-2.318 10.127-2.196 4.637.366 6.834 2.928 6.467 6.589z"/>
</svg>
