<svg xmlns="http://www.w3.org/2000/svg" width="49" height="48" fill="none" viewBox="0 0 49 48">
    <path fill="#000" d="M11.806 26.64h1.68c.96 0 1.56.12 2.04.24.36.12.72.48.96.84s.36.84.36 1.32c0 .6-.12 1.08-.48 1.44-.36.36-.72.6-1.2.84-.36.12-.84.12-1.68.12v3.6h-1.68v-8.4zm1.68 3.24h.48c.36 0 .72 0 .84-.12.12 0 .24-.12.36-.24s.12-.24.12-.48c0-.36-.12-.6-.36-.72s-.48-.12-.96-.12h-.48v1.68zM17.805 26.64h1.56v6.84h2.28v1.56h-3.96v-8.4h.12zM25.966 26.64h1.68l3.24 8.4h-1.68l-.6-1.68h-3.48l-.72 1.68h-1.68l3.24-8.4zm.84 2.16l-1.08 2.88h2.28l-1.2-2.88zM29.565 26.64h1.68l1.56 3 1.56-3h1.68l-2.4 4.8v3.6h-1.56v-3.6l-2.52-4.8z"/>
    <path fill="#F6921E" d="M25.846 18.36c-5.04.36-2.76 6.84 2.76 6.48 5.52-.24 2.64-6.72-2.76-6.48z"/>
    <path fill="#F6921E" d="M23.805 14.4c-8.88 0-16.2 7.2-16.2 16.2 0 8.88 7.2 16.2 16.2 16.2 8.88 0 16.2-7.2 16.2-16.2s-7.32-16.2-16.2-16.2zm0 30.6c-8.04 0-14.52-6.48-14.52-14.52s6.48-14.52 14.52-14.52 14.52 6.48 14.52 14.52c-.12 8.04-6.6 14.52-14.52 14.52zM23.326 3.12c-3.84 2.88-3.12 7.32-3.12 7.32s-2.4-6.24-5.52-10.08c-.48 4.92.96 11.4.96 11.4s-1.92-4.08-6.72-4.32c3.96 2.28 5.52 6.48 5.88 7.56 2.28-1.44 5.04-2.28 7.92-2.4-.36-.96-1.44-5.28.6-9.48z"/>
</svg>
