<svg xmlns="http://www.w3.org/2000/svg" width="49" height="48" fill="none" viewBox="0 0 49 48">
    <path fill="#A31E22" d="M26.205 15.24c9.72-2.88 17.16 4.32 17.76 15.24 1.56-9.72-2.16-17.28-6.36-20.88-2.04-.24-4.44-.24-6.48-.48-1.2 1.32-3.72 4.8-4.92 6.12z"/>
    <path fill="#EC1C24" d="M43.005 17.76c-4.44-8.76-12.48-4.8-16.68-2.16-9 5.88-13.68-7.08-3-10.44 6.24-1.8 17.4 3.72 19.68 12.6z"/>
    <path fill="#659941" d="M30.286 30.36c-2.16 9.72-12.12 12.84-22.2 7.92 8.04 6 16.44 6.48 21.72 4.56 1.2-1.68 2.4-3.72 3.6-5.4-.6-1.56-2.52-5.52-3.12-7.08z"/>
    <path fill="#A6CE38" d="M19.846 43.56c9.96.48 10.32-8.52 9.96-13.32-.84-10.56 12.84-8.4 10.68 2.4-1.2 6.36-11.64 13.2-20.64 10.92z"/>
    <path fill="#116D98" d="M14.685 26.52c-7.2-6.96-4.56-16.92 4.92-22.8-9.36 3.48-14.28 10.2-15.36 15.72.84 1.8 1.92 3.96 2.76 5.88 1.56.24 6 .84 7.68 1.2z"/>
    <path fill="#28ABE2" d="M8.925 10.8c-5.64 8.04 1.8 13.2 6.24 15.36 9.6 4.92.36 15.24-7.68 7.68-4.92-4.44-5.4-16.8 1.44-23.04z"/>
</svg>
