<svg xmlns="http://www.w3.org/2000/svg" width="48" height="48" fill="none" viewBox="0 0 48 48">
    <path fill="#000" fill-rule="evenodd" d="M.05 26.647v-1.008h2.622v1.16c0 1.058.404 1.562 1.21 1.562.807 0 1.21-.504 1.21-1.563 0-.605-.15-1.16-.504-1.714-.353-.504-.756-1.008-1.26-1.462L2.017 22.26c-.555-.454-1.008-1.06-1.361-1.765-.353-.605-.505-1.412-.505-2.27 0-1.31.353-2.318 1.06-3.024.655-.656 1.562-1.009 2.772-1.009 1.21 0 2.068.353 2.723 1.06.655.705.958 1.713.958 3.024v.505h-2.42v-.706c0-1.06-.404-1.614-1.26-1.614-.858 0-1.312.555-1.312 1.614 0 .453.101.857.303 1.26.202.404.403.756.706 1.11.302.302.605.655.958.957.353.303.706.656 1.059 1.009.353.353.655.706.958 1.109.302.403.554.857.705 1.412.202.554.303 1.109.303 1.764 0 1.311-.303 2.32-.958 3.026s-1.563 1.059-2.773 1.059c-1.21 0-2.118-.354-2.824-1.06-.706-.756-1.058-1.764-1.058-3.075zM11.697 22.16h1.21c.404 0 .707-.101.959-.353.201-.252.302-.605.302-1.16v-2.42c0-.555-.1-.958-.302-1.16-.202-.252-.505-.353-.958-.353h-1.21v5.446zm-2.57 8.37V14.394h3.73c2.521 0 3.782 1.31 3.782 3.983v2.118c0 2.672-1.26 3.983-3.782 3.983h-1.21v6.05h-2.52zM20.42 21.655h1.009c.504 0 .907-.15 1.16-.403.251-.252.403-.706.403-1.31v-1.614c0-1.11-.404-1.664-1.311-1.664h-1.21v4.991h-.05zM17.85 30.53V14.395h3.832c1.31 0 2.269.302 2.874.908.605.604.907 1.563.907 2.823v1.26c0 1.664-.554 2.774-1.664 3.278 1.11.454 1.715 1.613 1.715 3.428v2.571c0 .808.1 1.463.252 1.866h-2.572c-.151-.453-.252-1.109-.252-1.966v-2.521c0-.756-.151-1.26-.403-1.563-.252-.303-.706-.454-1.26-.454h-.908v6.555h-2.521v-.05zM27.177 30.53h2.57V14.394h-2.57v16.134zM34.134 28.21h1.463c.453 0 .756-.1 1.008-.353.202-.252.353-.655.353-1.21v-1.412c0-.756-.151-1.26-.403-1.512-.252-.303-.656-.454-1.26-.454h-1.16v4.941zm0-7.26h1.009c.504 0 .907-.152 1.16-.404.252-.252.403-.706.403-1.31v-.908c0-1.11-.404-1.664-1.311-1.664h-1.26v4.285zm-2.52 9.58V14.394h3.831c1.311 0 2.27.302 2.874.908.605.604.908 1.563.908 2.823v.555c0 1.663-.555 2.722-1.664 3.277 1.26.504 1.916 1.664 1.916 3.479v1.31c0 1.261-.353 2.22-1.008 2.875-.656.655-1.614.958-2.874.958h-3.984v-.05zM40.992 30.53V14.394h6.958v2.269h-4.387v4.538h3.479v2.268h-3.479v4.74h4.387v2.32h-6.958zM0 33.807h48v-2.219H0v2.219z" clip-rule="evenodd"/>
</svg>
