<svg width="116" height="41" viewBox="0 0 116 41" fill="none" xmlns="http://www.w3.org/2000/svg">
<path d="M46.7796 36.3402C48.0965 36.2846 49.4054 36.1072 50.6896 35.8102C51.3412 34.8082 51.929 33.7661 52.4496 32.6902L51.8996 32.4702C50.4696 34.4702 49.1496 35.6202 47.0596 35.6202C43.9696 35.6202 42.2096 33.0602 42.9296 29.3302C43.5096 26.3302 45.8596 23.5102 49.2496 23.5102C51.4396 23.5102 52.5596 24.3502 52.6696 26.5102L53.3096 26.3802C53.3996 25.2802 53.4296 24.4302 53.4696 23.3102C52.3229 22.9849 51.1409 22.8003 49.9496 22.7602C45.3296 22.7602 41.5096 25.5302 40.7096 29.7602C40.0896 32.9002 41.6796 36.3402 46.7796 36.3402ZM56.1596 36.0802L56.2696 35.5102C54.7396 35.3502 54.6296 35.1302 55.2696 33.8902C55.6796 33.0902 56.1096 32.2802 56.5996 31.3502H60.9296C61.1296 32.5502 61.3096 33.6002 61.4096 34.3502C61.5096 35.1002 61.3296 35.2902 60.0196 35.4702L59.9096 36.0402H64.9096L65.0196 35.4702C63.8296 35.3702 63.5996 35.1402 63.2996 33.4402C62.6696 29.9302 62.0396 26.2502 61.4196 22.7602L60.7196 22.9402L54.5196 33.4202C53.4596 35.1702 53.1596 35.3102 51.8196 35.5102L51.7096 36.0802H56.1596ZM60.8296 30.4702H57.1496C58.0596 28.8202 58.9996 27.0802 59.9996 25.3902L60.8296 30.4702ZM68.8296 36.3402C70.0071 36.4062 71.1712 36.0629 72.1245 35.3685C73.0777 34.674 73.7614 33.6713 74.0596 32.5302C74.4796 30.3302 72.8196 29.3802 71.3396 28.5302C69.8596 27.6802 69.0796 27.0302 69.3396 25.6202C69.4449 25.0059 69.7674 24.4499 70.2483 24.0534C70.7292 23.657 71.3365 23.4465 71.9596 23.4602C73.6796 23.4602 73.9596 24.8702 74.0896 26.1302L74.6996 25.9902C74.7896 24.7102 74.8196 23.9302 74.8796 23.2202C74.0889 22.9244 73.2536 22.7654 72.4096 22.7502C71.307 22.6848 70.2166 23.0097 69.3297 23.668C68.4429 24.3263 67.8161 25.2759 67.5596 26.3502C67.1296 28.5702 68.8996 29.5702 70.1296 30.2802C71.3596 30.9902 72.4196 31.7902 72.1296 33.2802C72.0365 33.9515 71.6996 34.5651 71.1833 35.004C70.6669 35.4429 70.0071 35.6765 69.3296 35.6602C67.2496 35.6602 66.7096 33.5902 66.6296 32.3302L66.0196 32.4902C65.9389 33.5448 65.9121 34.6029 65.9396 35.6602C66.2413 35.8166 66.5558 35.9471 66.8796 36.0502C67.4956 36.253 68.1412 36.351 68.7896 36.3402H68.8296ZM79.1596 36.0802L79.2696 35.5102C77.6496 35.3702 77.5096 35.2702 77.8396 33.5102L79.3496 25.5102C79.6796 23.7902 79.8596 23.6702 81.5296 23.5102L81.6396 22.9202H76.1896L76.0796 23.5102C77.6896 23.6302 77.8396 23.7502 77.5196 25.4202L75.9896 33.4202C75.6696 35.1202 75.4896 35.2402 73.8196 35.4202L73.7096 35.9902L79.1596 36.0802ZM91.9196 36.2602L93.4696 28.2602C93.8196 26.4202 94.0596 25.5202 94.2296 24.9102C94.5096 24.0102 95.0296 23.7802 96.1596 23.7202L96.2796 23.1302H91.4196L91.3096 23.7202C92.7096 23.8002 93.1596 24.0502 93.0796 24.9502C92.9786 26.0216 92.8184 27.0866 92.5996 28.1402L91.6696 32.9902H91.5996L85.0196 23.1402H81.9396L81.8296 23.7302C82.7596 23.8102 83.1696 23.9602 83.5096 24.4502C83.8496 24.9402 83.7896 25.0302 83.5096 26.3902L82.6496 30.8202C82.2996 32.6402 82.0596 33.5802 81.8796 34.2302C81.5696 35.2302 81.0096 35.4602 79.8796 35.5202L79.7696 36.0902H84.5996L84.7096 35.5202C83.3196 35.4402 82.9396 35.1702 83.0096 34.1702C83.0696 33.5802 83.1896 32.6402 83.5396 30.8202L84.5396 25.8802L91.2596 36.2902L91.9196 36.2602ZM100.66 36.3402C102.628 36.3166 104.526 35.603 106.023 34.3239C107.519 33.0447 108.52 31.2811 108.85 29.3402C109.62 25.3402 106.98 22.7202 103.52 22.7202C101.564 22.7595 99.6799 23.4676 98.1824 24.7267C96.685 25.9858 95.664 27.7199 95.2896 29.6402C94.4896 33.5302 96.8996 36.3402 100.6 36.3402H100.66ZM101.14 35.6402C98.2796 35.6402 96.6996 32.8902 97.4096 29.1802C98.1196 25.4702 100.61 23.5502 102.85 23.5502C105.5 23.5502 107.3 25.7702 106.49 29.9502C105.73 33.8002 103.35 35.6402 101.1 35.6402H101.14Z" fill="#939598"/>
<path d="M46.7796 36.3402C48.0965 36.2846 49.4054 36.1072 50.6896 35.8102C51.3412 34.8082 51.929 33.7661 52.4496 32.6902L51.8996 32.4702C50.4696 34.4702 49.1496 35.6202 47.0596 35.6202C43.9696 35.6202 42.2096 33.0602 42.9296 29.3302C43.5096 26.3302 45.8596 23.5102 49.2496 23.5102C51.4396 23.5102 52.5596 24.3502 52.6696 26.5102L53.3096 26.3802C53.3996 25.2802 53.4296 24.4302 53.4696 23.3102C52.3229 22.9849 51.1409 22.8003 49.9496 22.7602C45.3296 22.7602 41.5096 25.5302 40.7096 29.7602C40.0896 32.9002 41.6796 36.3402 46.7796 36.3402ZM56.1596 36.0802L56.2696 35.5102C54.7396 35.3502 54.6296 35.1302 55.2696 33.8902C55.6796 33.0902 56.1096 32.2802 56.5996 31.3502H60.9296C61.1296 32.5502 61.3096 33.6002 61.4096 34.3502C61.5096 35.1002 61.3296 35.2902 60.0196 35.4702L59.9096 36.0402H64.9096L65.0196 35.4702C63.8296 35.3702 63.5996 35.1402 63.2996 33.4402C62.6696 29.9302 62.0396 26.2502 61.4196 22.7602L60.7196 22.9402L54.5196 33.4202C53.4596 35.1702 53.1596 35.3102 51.8196 35.5102L51.7096 36.0802H56.1596ZM60.8296 30.4702H57.1496C58.0596 28.8202 58.9996 27.0802 59.9996 25.3902L60.8296 30.4702ZM68.8296 36.3402C70.0071 36.4062 71.1712 36.0629 72.1245 35.3685C73.0777 34.674 73.7614 33.6713 74.0596 32.5302C74.4796 30.3302 72.8196 29.3802 71.3396 28.5302C69.8596 27.6802 69.0796 27.0302 69.3396 25.6202C69.4449 25.0059 69.7674 24.4499 70.2483 24.0534C70.7292 23.657 71.3365 23.4465 71.9596 23.4602C73.6796 23.4602 73.9596 24.8702 74.0896 26.1302L74.6996 25.9902C74.7896 24.7102 74.8196 23.9302 74.8796 23.2202C74.0889 22.9244 73.2536 22.7654 72.4096 22.7502C71.307 22.6848 70.2166 23.0097 69.3297 23.668C68.4429 24.3263 67.8161 25.2759 67.5596 26.3502C67.1296 28.5702 68.8996 29.5702 70.1296 30.2802C71.3596 30.9902 72.4196 31.7902 72.1296 33.2802C72.0365 33.9515 71.6996 34.5651 71.1833 35.004C70.6669 35.4429 70.0071 35.6765 69.3296 35.6602C67.2496 35.6602 66.7096 33.5902 66.6296 32.3302L66.0196 32.4902C65.9389 33.5448 65.9121 34.6029 65.9396 35.6602C66.2413 35.8166 66.5558 35.9471 66.8796 36.0502C67.4956 36.253 68.1412 36.351 68.7896 36.3402H68.8296ZM79.1596 36.0802L79.2696 35.5102C77.6496 35.3702 77.5096 35.2702 77.8396 33.5102L79.3496 25.5102C79.6796 23.7902 79.8596 23.6702 81.5296 23.5102L81.6396 22.9202H76.1896L76.0796 23.5102C77.6896 23.6302 77.8396 23.7502 77.5196 25.4202L75.9896 33.4202C75.6696 35.1202 75.4896 35.2402 73.8196 35.4202L73.7096 35.9902L79.1596 36.0802ZM91.9196 36.2602L93.4696 28.2602C93.8196 26.4202 94.0596 25.5202 94.2296 24.9102C94.5096 24.0102 95.0296 23.7802 96.1596 23.7202L96.2796 23.1302H91.4196L91.3096 23.7202C92.7096 23.8002 93.1596 24.0502 93.0796 24.9502C92.9786 26.0216 92.8184 27.0866 92.5996 28.1402L91.6696 32.9902H91.5996L85.0196 23.1402H81.9396L81.8296 23.7302C82.7596 23.8102 83.1696 23.9602 83.5096 24.4502C83.8496 24.9402 83.7896 25.0302 83.5096 26.3902L82.6496 30.8202C82.2996 32.6402 82.0596 33.5802 81.8796 34.2302C81.5696 35.2302 81.0096 35.4602 79.8796 35.5202L79.7696 36.0902H84.5996L84.7096 35.5202C83.3196 35.4402 82.9396 35.1702 83.0096 34.1702C83.0696 33.5802 83.1896 32.6402 83.5396 30.8202L84.5396 25.8802L91.2596 36.2902L91.9196 36.2602ZM100.66 36.3402C102.628 36.3166 104.526 35.603 106.023 34.3239C107.519 33.0447 108.52 31.2811 108.85 29.3402C109.62 25.3402 106.98 22.7202 103.52 22.7202C101.564 22.7595 99.6799 23.4676 98.1824 24.7267C96.685 25.9858 95.664 27.7199 95.2896 29.6402C94.4896 33.5302 96.8996 36.3402 100.6 36.3402H100.66ZM101.14 35.6402C98.2796 35.6402 96.6996 32.8902 97.4096 29.1802C98.1196 25.4702 100.61 23.5502 102.85 23.5502C105.5 23.5502 107.3 25.7702 106.49 29.9502C105.73 33.8002 103.35 35.6402 101.1 35.6402H101.14Z" fill="#939598"/>
<path d="M53.5996 4.3501H52.5996L42.5996 19.8701H44.5296L47.6696 15.0101H53.4796L54.8496 19.8701H58.0196L53.5996 4.3501ZM52.9996 13.4701H48.6496L51.6996 8.8201L52.9996 13.4701ZM64.2596 6.2701L63.4496 10.8401H68.5996L68.3196 12.4101H63.2096L62.2096 18.3001H69.8596L69.5996 19.8701H58.8096L61.4896 4.7001H72.2196L71.9396 6.2701H64.2596Z" fill="#939598"/>
<path d="M53.5996 4.3501H52.5996L42.5996 19.8701H44.5296L47.6696 15.0101H53.4796L54.8496 19.8701H58.0196L53.5996 4.3501ZM52.9996 13.4701H48.6496L51.6996 8.8201L52.9996 13.4701ZM64.2596 6.2701L63.4496 10.8401H68.5996L68.3196 12.4101H63.2096L62.2096 18.3001H69.8596L69.5996 19.8701H58.8096L61.4896 4.7001H72.2196L71.9396 6.2701H64.2596Z" fill="#939598"/>
<path d="M8.81945 17.6802C12.5695 11.4002 16.9895 10.2102 16.9895 10.2102C16.9895 10.2102 10.1795 14.8002 9.32945 22.1402C8.47945 29.4802 14.4395 33.1402 21.9295 31.4302C28.3211 29.8313 33.8232 25.7739 37.2395 20.1402C35.6257 25.2294 32.4 29.6555 28.0495 32.7502C20.4795 38.1402 12.4795 35.3602 9.46945 32.5202C6.45945 29.6802 5.07945 23.9602 8.81945 17.6802V17.6802ZM34.3495 19.2002C25.7695 27.4102 14.1995 27.6602 14.1995 27.6602L20.9195 9.5002L29.2095 17.2802C29.9789 16.719 30.7105 16.1077 31.3995 15.4502C34.1695 12.8102 36.8195 7.6602 30.2795 5.8002C22.8595 3.6902 15.2795 7.3902 15.2795 7.3902C17.8195 5.0302 23.3395 3.4802 28.1795 3.4802C30.0959 3.42757 32.0044 3.74679 33.7995 4.4202C37.0695 5.8202 43.1795 10.7402 34.3495 19.2002V19.2002ZM25.7295 19.4402L21.9795 15.8502L19.8995 21.7202C21.9092 21.1425 23.861 20.3792 25.7295 19.4402V19.4402Z" fill="#939598"/>
<path d="M8.81945 17.6802C12.5695 11.4002 16.9895 10.2102 16.9895 10.2102C16.9895 10.2102 10.1795 14.8002 9.32945 22.1402C8.47945 29.4802 14.4395 33.1402 21.9295 31.4302C28.3211 29.8313 33.8232 25.7739 37.2395 20.1402C35.6257 25.2294 32.4 29.6555 28.0495 32.7502C20.4795 38.1402 12.4795 35.3602 9.46945 32.5202C6.45945 29.6802 5.07945 23.9602 8.81945 17.6802V17.6802ZM34.3495 19.2002C25.7695 27.4102 14.1995 27.6602 14.1995 27.6602L20.9195 9.5002L29.2095 17.2802C29.9789 16.719 30.7105 16.1077 31.3995 15.4502C34.1695 12.8102 36.8195 7.6602 30.2795 5.8002C22.8595 3.6902 15.2795 7.3902 15.2795 7.3902C17.8195 5.0302 23.3395 3.4802 28.1795 3.4802C30.0959 3.42757 32.0044 3.74679 33.7995 4.4202C37.0695 5.8202 43.1795 10.7402 34.3495 19.2002V19.2002ZM25.7295 19.4402L21.9795 15.8502L19.8995 21.7202C21.9092 21.1425 23.861 20.3792 25.7295 19.4402V19.4402Z" fill="#939598"/>
</svg>
