<svg width="116" height="41" viewBox="0 0 116 41" fill="none" xmlns="http://www.w3.org/2000/svg">
<path d="M46.7796 36.9398C48.0965 36.8842 49.4054 36.7068 50.6896 36.4098C51.3412 35.4078 51.929 34.3657 52.4496 33.2898L51.8996 33.0698C50.4696 35.0698 49.1496 36.2198 47.0596 36.2198C43.9696 36.2198 42.2096 33.6598 42.9296 29.9298C43.5096 26.9298 45.8596 24.1098 49.2496 24.1098C51.4396 24.1098 52.5596 24.9498 52.6696 27.1098L53.3096 26.9798C53.3996 25.8798 53.4296 25.0298 53.4696 23.9098C52.3229 23.5846 51.1409 23.3999 49.9496 23.3598C45.3296 23.3598 41.5096 26.1298 40.7096 30.3598C40.0896 33.4998 41.6796 36.9398 46.7796 36.9398ZM56.1596 36.6798L56.2696 36.1098C54.7396 35.9498 54.6296 35.7298 55.2696 34.4898C55.6796 33.6898 56.1096 32.8798 56.5996 31.9498H60.9296C61.1296 33.1498 61.3096 34.1998 61.4096 34.9498C61.5096 35.6998 61.3296 35.8898 60.0196 36.0698L59.9096 36.6398H64.9096L65.0196 36.0698C63.8296 35.9698 63.5996 35.7398 63.2996 34.0398C62.6696 30.5298 62.0396 26.8498 61.4196 23.3598L60.7196 23.5398L54.5196 34.0198C53.4596 35.7698 53.1596 35.9098 51.8196 36.1098L51.7096 36.6798H56.1596ZM60.8296 31.0698H57.1496C58.0596 29.4198 58.9996 27.6798 59.9996 25.9898L60.8296 31.0698ZM68.8296 36.9398C70.0071 37.0058 71.1712 36.6625 72.1245 35.9681C73.0777 35.2737 73.7614 34.2709 74.0596 33.1298C74.4796 30.9298 72.8196 29.9798 71.3396 29.1298C69.8596 28.2798 69.0796 27.6298 69.3396 26.2198C69.4449 25.6055 69.7674 25.0495 70.2483 24.6531C70.7292 24.2566 71.3365 24.0461 71.9596 24.0598C73.6796 24.0598 73.9596 25.4698 74.0896 26.7298L74.6996 26.5898C74.7896 25.3098 74.8196 24.5298 74.8796 23.8198C74.0889 23.524 73.2536 23.365 72.4096 23.3498C71.307 23.2844 70.2166 23.6093 69.3297 24.2676C68.4429 24.9259 67.8161 25.8755 67.5596 26.9498C67.1296 29.1698 68.8996 30.1698 70.1296 30.8798C71.3596 31.5898 72.4196 32.3898 72.1296 33.8798C72.0365 34.5511 71.6996 35.1647 71.1833 35.6036C70.6669 36.0425 70.0071 36.2761 69.3296 36.2598C67.2496 36.2598 66.7096 34.1898 66.6296 32.9298L66.0196 33.0898C65.9389 34.1444 65.9121 35.2025 65.9396 36.2598C66.2413 36.4162 66.5558 36.5467 66.8796 36.6498C67.4956 36.8526 68.1412 36.9506 68.7896 36.9398H68.8296ZM79.1596 36.6798L79.2696 36.1098C77.6496 35.9698 77.5096 35.8698 77.8396 34.1098L79.3496 26.1098C79.6796 24.3898 79.8596 24.2698 81.5296 24.1098L81.6396 23.5198H76.1896L76.0796 24.1098C77.6896 24.2298 77.8396 24.3498 77.5196 26.0198L75.9896 34.0198C75.6696 35.7198 75.4896 35.8398 73.8196 36.0198L73.7096 36.5898L79.1596 36.6798ZM91.9196 36.8598L93.4696 28.8598C93.8196 27.0198 94.0596 26.1198 94.2296 25.5098C94.5096 24.6098 95.0296 24.3798 96.1596 24.3198L96.2796 23.7298H91.4196L91.3096 24.3198C92.7096 24.3998 93.1596 24.6498 93.0796 25.5498C92.9786 26.6212 92.8184 27.6862 92.5996 28.7398L91.6696 33.5898H91.5996L85.0196 23.7398H81.9396L81.8296 24.3298C82.7596 24.4098 83.1696 24.5598 83.5096 25.0498C83.8496 25.5398 83.7896 25.6298 83.5096 26.9898L82.6496 31.4198C82.2996 33.2398 82.0596 34.1798 81.8796 34.8298C81.5696 35.8298 81.0096 36.0598 79.8796 36.1198L79.7696 36.6898H84.5996L84.7096 36.1198C83.3196 36.0398 82.9396 35.7698 83.0096 34.7698C83.0696 34.1798 83.1896 33.2398 83.5396 31.4198L84.5396 26.4798L91.2596 36.8898L91.9196 36.8598ZM100.66 36.9398C102.628 36.9162 104.526 36.2026 106.023 34.9235C107.519 33.6444 108.52 31.8807 108.85 29.9398C109.62 25.9398 106.98 23.3198 103.52 23.3198C101.564 23.3591 99.6799 24.0672 98.1824 25.3263C96.685 26.5854 95.664 28.3195 95.2896 30.2398C94.4896 34.1298 96.8996 36.9398 100.6 36.9398H100.66ZM101.14 36.2398C98.2796 36.2398 96.6996 33.4898 97.4096 29.7798C98.1196 26.0698 100.61 24.1498 102.85 24.1498C105.5 24.1498 107.3 26.3698 106.49 30.5498C105.73 34.3998 103.35 36.2398 101.1 36.2398H101.14Z" fill="black"/>
<path d="M46.7796 36.9398C48.0965 36.8842 49.4054 36.7068 50.6896 36.4098C51.3412 35.4078 51.929 34.3657 52.4496 33.2898L51.8996 33.0698C50.4696 35.0698 49.1496 36.2198 47.0596 36.2198C43.9696 36.2198 42.2096 33.6598 42.9296 29.9298C43.5096 26.9298 45.8596 24.1098 49.2496 24.1098C51.4396 24.1098 52.5596 24.9498 52.6696 27.1098L53.3096 26.9798C53.3996 25.8798 53.4296 25.0298 53.4696 23.9098C52.3229 23.5846 51.1409 23.3999 49.9496 23.3598C45.3296 23.3598 41.5096 26.1298 40.7096 30.3598C40.0896 33.4998 41.6796 36.9398 46.7796 36.9398ZM56.1596 36.6798L56.2696 36.1098C54.7396 35.9498 54.6296 35.7298 55.2696 34.4898C55.6796 33.6898 56.1096 32.8798 56.5996 31.9498H60.9296C61.1296 33.1498 61.3096 34.1998 61.4096 34.9498C61.5096 35.6998 61.3296 35.8898 60.0196 36.0698L59.9096 36.6398H64.9096L65.0196 36.0698C63.8296 35.9698 63.5996 35.7398 63.2996 34.0398C62.6696 30.5298 62.0396 26.8498 61.4196 23.3598L60.7196 23.5398L54.5196 34.0198C53.4596 35.7698 53.1596 35.9098 51.8196 36.1098L51.7096 36.6798H56.1596ZM60.8296 31.0698H57.1496C58.0596 29.4198 58.9996 27.6798 59.9996 25.9898L60.8296 31.0698ZM68.8296 36.9398C70.0071 37.0058 71.1712 36.6625 72.1245 35.9681C73.0777 35.2737 73.7614 34.2709 74.0596 33.1298C74.4796 30.9298 72.8196 29.9798 71.3396 29.1298C69.8596 28.2798 69.0796 27.6298 69.3396 26.2198C69.4449 25.6055 69.7674 25.0495 70.2483 24.6531C70.7292 24.2566 71.3365 24.0461 71.9596 24.0598C73.6796 24.0598 73.9596 25.4698 74.0896 26.7298L74.6996 26.5898C74.7896 25.3098 74.8196 24.5298 74.8796 23.8198C74.0889 23.524 73.2536 23.365 72.4096 23.3498C71.307 23.2844 70.2166 23.6093 69.3297 24.2676C68.4429 24.9259 67.8161 25.8755 67.5596 26.9498C67.1296 29.1698 68.8996 30.1698 70.1296 30.8798C71.3596 31.5898 72.4196 32.3898 72.1296 33.8798C72.0365 34.5511 71.6996 35.1647 71.1833 35.6036C70.6669 36.0425 70.0071 36.2761 69.3296 36.2598C67.2496 36.2598 66.7096 34.1898 66.6296 32.9298L66.0196 33.0898C65.9389 34.1444 65.9121 35.2025 65.9396 36.2598C66.2413 36.4162 66.5558 36.5467 66.8796 36.6498C67.4956 36.8526 68.1412 36.9506 68.7896 36.9398H68.8296ZM79.1596 36.6798L79.2696 36.1098C77.6496 35.9698 77.5096 35.8698 77.8396 34.1098L79.3496 26.1098C79.6796 24.3898 79.8596 24.2698 81.5296 24.1098L81.6396 23.5198H76.1896L76.0796 24.1098C77.6896 24.2298 77.8396 24.3498 77.5196 26.0198L75.9896 34.0198C75.6696 35.7198 75.4896 35.8398 73.8196 36.0198L73.7096 36.5898L79.1596 36.6798ZM91.9196 36.8598L93.4696 28.8598C93.8196 27.0198 94.0596 26.1198 94.2296 25.5098C94.5096 24.6098 95.0296 24.3798 96.1596 24.3198L96.2796 23.7298H91.4196L91.3096 24.3198C92.7096 24.3998 93.1596 24.6498 93.0796 25.5498C92.9786 26.6212 92.8184 27.6862 92.5996 28.7398L91.6696 33.5898H91.5996L85.0196 23.7398H81.9396L81.8296 24.3298C82.7596 24.4098 83.1696 24.5598 83.5096 25.0498C83.8496 25.5398 83.7896 25.6298 83.5096 26.9898L82.6496 31.4198C82.2996 33.2398 82.0596 34.1798 81.8796 34.8298C81.5696 35.8298 81.0096 36.0598 79.8796 36.1198L79.7696 36.6898H84.5996L84.7096 36.1198C83.3196 36.0398 82.9396 35.7698 83.0096 34.7698C83.0696 34.1798 83.1896 33.2398 83.5396 31.4198L84.5396 26.4798L91.2596 36.8898L91.9196 36.8598ZM100.66 36.9398C102.628 36.9162 104.526 36.2026 106.023 34.9235C107.519 33.6444 108.52 31.8807 108.85 29.9398C109.62 25.9398 106.98 23.3198 103.52 23.3198C101.564 23.3591 99.6799 24.0672 98.1824 25.3263C96.685 26.5854 95.664 28.3195 95.2896 30.2398C94.4896 34.1298 96.8996 36.9398 100.6 36.9398H100.66ZM101.14 36.2398C98.2796 36.2398 96.6996 33.4898 97.4096 29.7798C98.1196 26.0698 100.61 24.1498 102.85 24.1498C105.5 24.1498 107.3 26.3698 106.49 30.5498C105.73 34.3998 103.35 36.2398 101.1 36.2398H101.14Z" fill="url(#paint0_linear)"/>
<path d="M53.5996 4.94971H52.5996L42.5996 20.4697H44.5296L47.6696 15.6097H53.4796L54.8496 20.4697H58.0196L53.5996 4.94971ZM52.9996 14.0697H48.6496L51.6996 9.41971L52.9996 14.0697ZM64.2596 6.86971L63.4496 11.4397H68.5996L68.3196 13.0097H63.2096L62.2096 18.8997H69.8596L69.5996 20.4697H58.8096L61.4896 5.29971H72.2196L71.9396 6.86971H64.2596Z" fill="black"/>
<path d="M53.5996 4.94971H52.5996L42.5996 20.4697H44.5296L47.6696 15.6097H53.4796L54.8496 20.4697H58.0196L53.5996 4.94971ZM52.9996 14.0697H48.6496L51.6996 9.41971L52.9996 14.0697ZM64.2596 6.86971L63.4496 11.4397H68.5996L68.3196 13.0097H63.2096L62.2096 18.8997H69.8596L69.5996 20.4697H58.8096L61.4896 5.29971H72.2196L71.9396 6.86971H64.2596Z" fill="url(#paint1_linear)"/>
<path d="M8.81945 18.2798C12.5695 11.9998 16.9895 10.8098 16.9895 10.8098C16.9895 10.8098 10.1795 15.3998 9.32945 22.7398C8.47945 30.0798 14.4395 33.7398 21.9295 32.0298C28.3211 30.4309 33.8232 26.3735 37.2395 20.7398C35.6257 25.829 32.4 30.2551 28.0495 33.3498C20.4795 38.7398 12.4795 35.9598 9.46945 33.1198C6.45945 30.2798 5.07945 24.5598 8.81945 18.2798V18.2798ZM34.3495 19.7998C25.7695 28.0098 14.1995 28.2598 14.1995 28.2598L20.9195 10.0998L29.2095 17.8798C29.9789 17.3186 30.7105 16.7073 31.3995 16.0498C34.1695 13.4098 36.8195 8.25981 30.2795 6.39981C22.8595 4.28981 15.2795 7.98981 15.2795 7.98981C17.8195 5.62981 23.3395 4.07981 28.1795 4.07981C30.0959 4.02718 32.0044 4.3464 33.7995 5.01981C37.0695 6.41981 43.1795 11.3398 34.3495 19.7998V19.7998ZM25.7295 20.0398L21.9795 16.4498L19.8995 22.3198C21.9092 21.7421 23.861 20.9788 25.7295 20.0398V20.0398Z" fill="black"/>
<path d="M8.81945 18.2798C12.5695 11.9998 16.9895 10.8098 16.9895 10.8098C16.9895 10.8098 10.1795 15.3998 9.32945 22.7398C8.47945 30.0798 14.4395 33.7398 21.9295 32.0298C28.3211 30.4309 33.8232 26.3735 37.2395 20.7398C35.6257 25.829 32.4 30.2551 28.0495 33.3498C20.4795 38.7398 12.4795 35.9598 9.46945 33.1198C6.45945 30.2798 5.07945 24.5598 8.81945 18.2798V18.2798ZM34.3495 19.7998C25.7695 28.0098 14.1995 28.2598 14.1995 28.2598L20.9195 10.0998L29.2095 17.8798C29.9789 17.3186 30.7105 16.7073 31.3995 16.0498C34.1695 13.4098 36.8195 8.25981 30.2795 6.39981C22.8595 4.28981 15.2795 7.98981 15.2795 7.98981C17.8195 5.62981 23.3395 4.07981 28.1795 4.07981C30.0959 4.02718 32.0044 4.3464 33.7995 5.01981C37.0695 6.41981 43.1795 11.3398 34.3495 19.7998V19.7998ZM25.7295 20.0398L21.9795 16.4498L19.8995 22.3198C21.9092 21.7421 23.861 20.9788 25.7295 20.0398V20.0398Z" fill="url(#paint2_linear)"/>
<defs>
<linearGradient id="paint0_linear" x1="49.7296" y1="30.2698" x2="104.33" y2="30.2698" gradientUnits="userSpaceOnUse">
<stop stop-color="#ED9027"/>
<stop offset="0.6" stop-color="#E35626"/>
<stop offset="1" stop-color="#DE2726"/>
</linearGradient>
<linearGradient id="paint1_linear" x1="56.9396" y1="21.4397" x2="56.9396" y2="5.50971" gradientUnits="userSpaceOnUse">
<stop offset="0.15" stop-color="#BCBCBC"/>
<stop offset="0.55" stop-color="#EFEFEF"/>
<stop offset="0.79" stop-color="#C4C4C4"/>
</linearGradient>
<linearGradient id="paint2_linear" x1="-6.81963e+06" y1="-7.72495e+06" x2="-6.81879e+06" y2="-7.72591e+06" gradientUnits="userSpaceOnUse">
<stop stop-color="#ED9027"/>
<stop offset="0.6" stop-color="#E35626"/>
<stop offset="1" stop-color="#DE2726"/>
</linearGradient>
</defs>
</svg>
