<svg xmlns="http://www.w3.org/2000/svg" width="66" height="25" fill="none" viewBox="0 0 66 25">
    <path fill="#F05F22" d="M20.787 21.87H3.67L6.688 4.767h17.117L20.787 21.87z"/>
    <path fill="#fff" d="M17.967 19.547h2.276L14.95 6.349 5.056 19.547H7.33l2.968-4.004h6.085l1.583 4.004zm-6.233-5.981l2.523-3.362 1.336 3.362h-3.859z"/>
    <path fill="#C2151F" d="M17.967 19.547l2.82 2.323.396-2.323h-3.216z"/>
    <path fill="#0092BE" d="M35.084 19.547H17.967l3.018-17.104h17.117l-3.018 17.104z"/>
    <path fill="#fff" d="M27.812 13.318h3.611c-.99 1.286-2.523 2.126-4.106 2.126-2.374 0-4.007-1.928-3.562-4.35.446-2.373 2.721-4.35 5.096-4.35 1.583 0 2.82.84 3.364 2.125h2.127c-.495-2.372-2.474-4.102-5.145-4.102-3.463 0-6.777 2.817-7.371 6.277-.594 3.46 1.682 6.278 5.194 6.278 2.672 0 5.294-1.68 6.58-4.053l.346-1.977h-5.788l-.346 2.026zM41.664 12.429h-2.028l-.742 1.038h-1.089l3.364-4.795h1.187l.347 4.795h-.99l-.05-1.038zm-.05-.791l-.099-1.928-1.434 1.928h1.533zM43.346 12.528l.99-.149c.049.198.148.346.296.396.099.099.297.099.495.099.247 0 .395-.05.544-.149.099-.05.148-.148.148-.247 0-.05 0-.099-.05-.148-.049-.05-.197-.099-.395-.198-.594-.198-.94-.346-1.088-.445-.198-.148-.297-.395-.248-.692.05-.296.149-.494.396-.692.346-.296.792-.395 1.385-.395.495 0 .841.099 1.04.247.246.148.345.395.395.643l-.94.148c-.05-.149-.099-.198-.198-.297-.148-.099-.297-.148-.544-.148-.248 0-.346.05-.445.099-.1.05-.149.148-.149.247s.05.148.1.198c.049.05.246.098.543.197.495.149.792.247.94.396.198.198.297.395.297.642-.05.347-.198.594-.544.84-.297.248-.742.347-1.286.347s-.94-.1-1.188-.297c-.247-.197-.445-.296-.494-.642zM48.441 10.007h.99l-1.138 3.46h-.99l1.138-3.46zm.445-1.335h.99l-.297.84h-.99l.297-.84zM50.964 10.995l-.989-.099c.148-.296.346-.543.643-.741.297-.198.693-.247 1.138-.247.495 0 .84.099 1.039.247.198.198.297.395.297.643 0 .098-.05.197-.05.345-.05.1-.148.445-.297.94-.148.395-.198.692-.247.89 0 .148 0 .296.05.494h-.99c-.05-.149-.05-.247-.05-.396-.148.149-.346.248-.544.346-.197.1-.395.1-.593.1-.297 0-.544-.1-.742-.297-.198-.198-.248-.445-.248-.742.05-.346.149-.593.396-.79.248-.199.643-.297 1.187-.347.495-.05.792-.099.99-.148.05-.148.099-.247.099-.297 0-.099 0-.197-.1-.247-.098-.05-.197-.099-.395-.099s-.346.05-.445.1c-.05.147-.1.246-.149.345zm.841.89c-.05 0-.148.05-.247.05-.495.049-.841.148-.99.247-.098.098-.197.197-.197.296 0 .099 0 .198.099.297.099.099.198.099.297.099.148 0 .296-.05.445-.1.148-.049.247-.147.346-.246.099-.1.148-.297.247-.495v-.148zM39.734 16.927h2.276l-.693 2.076c-.296.148-.643.296-1.038.395-.396.1-.792.149-1.188.149-.643 0-1.088-.149-1.385-.396-.445-.346-.594-.89-.544-1.582.05-.444.198-.939.445-1.334.297-.495.643-.94 1.138-1.187.445-.296.99-.444 1.583-.444.594 0 1.039.148 1.385.395.346.247.544.643.594 1.137l-.99.099c-.05-.247-.197-.495-.346-.593-.198-.149-.396-.198-.692-.198-.347 0-.644.099-.94.247-.297.148-.545.445-.742.79-.198.347-.297.742-.347 1.138-.05.395.05.692.198.89.198.197.445.296.841.296.247 0 .445-.05.693-.099.247-.05.445-.148.643-.197l.247-.692h-1.286l.148-.89zM43.84 16.976l-.989-.099c.148-.296.346-.543.643-.741.297-.198.693-.247 1.138-.247.495 0 .84.099 1.039.247.198.198.297.395.297.642 0 .1-.05.198-.05.347-.05.098-.148.444-.297.939-.148.395-.198.692-.247.89 0 .148 0 .296.05.494h-.99c-.05-.149-.05-.247-.05-.396-.148.149-.346.247-.544.346-.198.1-.395.1-.593.1-.297 0-.544-.1-.742-.297-.198-.198-.248-.445-.248-.742.05-.346.149-.593.396-.79.247-.198.643-.297 1.187-.347.495-.05.792-.099.99-.148.05-.148.099-.247.099-.297 0-.099 0-.197-.1-.247-.098-.05-.197-.099-.395-.099s-.346.05-.445.1c-.05.147-.1.246-.149.345zm.841.89c-.05 0-.148.05-.247.05-.495.049-.841.148-.99.247-.098.098-.197.197-.197.296 0 .099 0 .198.099.297.099.099.198.099.297.099.148 0 .296-.05.445-.1.148-.049.247-.148.346-.246.099-.1.148-.297.247-.495v-.148zM47.204 15.988h.94l-.148.444c.395-.346.791-.494 1.187-.494.297 0 .495.05.643.148.149.1.198.248.248.445.148-.197.346-.296.593-.445.247-.098.495-.197.742-.197.297 0 .495.05.643.247.149.148.198.346.198.593 0 .099-.05.346-.148.643l-.693 2.125h-.99l.693-2.125c.1-.247.149-.396.149-.445 0-.1 0-.149-.05-.247-.05-.05-.148-.1-.247-.1-.247 0-.495.149-.693.347-.148.198-.296.494-.445.939l-.495 1.582h-.989l.693-2.126c.099-.247.099-.395.148-.494 0-.099 0-.148-.099-.247-.05-.05-.148-.1-.247-.1-.1 0-.248.05-.347.1-.099.05-.247.148-.346.247-.099.099-.198.247-.247.395-.05.1-.1.248-.198.544l-.495 1.582h-.99l.99-3.361zM53.586 15.986h.99l-1.138 3.46h-.99l1.138-3.46zm.445-1.334h.99l-.297.84h-.99l.297-.84zM55.565 15.987h.94l-.148.445c.247-.197.494-.346.692-.395.198-.099.445-.099.643-.099.297 0 .544.099.693.247.148.148.247.396.198.643 0 .099-.1.346-.198.692l-.643 1.977h-.99l.643-1.977c.1-.297.149-.494.149-.544 0-.099 0-.198-.1-.296-.049-.05-.148-.1-.296-.1s-.297.05-.495.198c-.197.1-.346.248-.445.445-.099.149-.198.396-.346.84l-.445 1.434h-.99l1.138-3.51zM58.731 19.646l1.039.148c0 .099 0 .198.05.247.049.05.098.1.148.148.05.05.198.05.296.05.198 0 .396-.05.495-.099.1-.05.198-.148.248-.297.05-.098.099-.247.198-.543l.049-.149c-.396.248-.742.396-1.088.396-.347 0-.643-.099-.841-.346-.198-.247-.297-.593-.248-1.038.05-.396.149-.791.346-1.137.198-.346.446-.593.743-.791.296-.198.593-.247.89-.247.247 0 .445.05.643.198.198.098.346.296.445.494l.198-.593h.94l-.94 2.916c-.148.445-.297.791-.346.989-.099.197-.198.346-.297.494-.099.099-.247.198-.396.297-.148.098-.346.148-.494.148-.198.05-.396.05-.643.05-.545 0-.89-.1-1.138-.248-.248-.148-.346-.445-.297-.84-.05-.148-.05-.198 0-.247zm1.336-1.68c-.05.246 0 .444.148.592.099.148.247.198.445.198s.347-.05.545-.198c.197-.148.296-.296.445-.543.099-.248.198-.445.198-.643.049-.247-.05-.445-.149-.593-.148-.149-.297-.247-.445-.247-.198 0-.346.049-.495.197-.148.149-.297.346-.445.593-.198.297-.247.495-.247.643z"/>
</svg>
