<svg xmlns="http://www.w3.org/2000/svg" width="66" height="25" fill="none" viewBox="0 0 66 25">
    <path fill="#B5B5B5" d="M11.755 13.619h3.856l-1.332-3.376-2.524 3.376z"/>
    <path fill="#B5B5B5" d="M6.69 4.775L3.67 21.893h17.12l-.164-11.103 2.698-3.24.48-2.779-17.114.004zm11.273 14.81l-1.578-4h-6.096l-2.99 4H5.035l9.924-13.23 5.258 13.23h-2.254z"/>
    <path fill="#B5B5B5" d="M17.962 19.585l2.826 2.309.407-2.309h-3.233zM20.982 2.466l-3.02 17.119h17.12L38.1 2.465H20.982zm6.339 12.983c.797-.023 1.58-.225 2.288-.59.709-.367 1.326-.888 1.805-1.525h-3.6l.346-1.962h5.76l-.346 1.962c-.651 1.194-1.603 2.197-2.76 2.91-1.158.713-2.482 1.111-3.84 1.156-.787.027-1.57-.126-2.287-.45-.717-.323-1.351-.807-1.851-1.414-.5-.608-.854-1.322-1.034-2.088-.18-.766-.18-1.564-.003-2.33.345-1.726 1.262-3.286 2.603-4.426 1.34-1.14 3.027-1.795 4.786-1.857 1.207-.05 2.392.334 3.34 1.083.947.748 1.596 1.811 1.828 2.997h-2.16c-.278-.654-.747-1.207-1.346-1.588-.599-.38-1.3-.57-2.009-.544-1.213.044-2.375.495-3.3 1.28-.925.787-1.558 1.862-1.796 3.052-.123.53-.122 1.08.002 1.61.125.529.37 1.022.715 1.441.346.42.784.753 1.28.975.496.223 1.036.328 1.579.308zM41.66 12.46h-2.02l-.72 1.064h-1.08l3.37-4.81h1.166l.339 4.81h-.995l-.06-1.063zm-.049-.8l-.098-1.935-1.428 1.935h1.526zM43.315 12.55l.981-.145c.045.164.144.307.28.409.153.089.33.13.508.12.197.008.391-.042.56-.144.045-.025.083-.059.113-.1.029-.042.048-.09.055-.14.003-.031 0-.062-.01-.092s-.025-.056-.046-.079c-.12-.083-.254-.143-.396-.176-.38-.098-.743-.248-1.08-.447-.1-.078-.177-.18-.224-.299-.048-.117-.063-.245-.045-.37.015-.14.059-.274.127-.397.069-.122.16-.23.272-.315.4-.3.895-.447 1.394-.416.368-.028.736.058 1.053.246.11.076.202.175.27.29.068.115.11.243.125.376l-.937.15c-.03-.119-.104-.221-.207-.286-.16-.09-.34-.133-.523-.127-.16-.012-.319.022-.46.098-.042.023-.078.056-.106.095-.028.04-.047.085-.054.132-.004.044.005.088.027.127.021.038.054.07.093.089.175.077.356.139.541.184.335.071.652.205.937.393.1.076.178.177.227.292.05.115.068.24.054.365-.022.172-.08.338-.171.486-.091.149-.213.276-.357.373-.376.258-.826.384-1.281.36-.422.027-.842-.07-1.208-.279-.133-.088-.246-.203-.333-.336-.088-.132-.149-.281-.18-.438zM48.434 10.04h1l-1.124 3.48h-.998l1.122-3.48zm.426-1.32h.998l-.274.853h-.998l.274-.853zM50.949 11.028l-.96-.08c.137-.304.366-.559.654-.728.346-.186.736-.277 1.128-.261.363-.033.725.063 1.025.27.099.077.176.179.224.295.048.115.065.242.05.366-.012.113-.033.225-.063.335-.032.117-.132.428-.3.931-.108.282-.189.575-.24.872-.014.166-.003.333.033.496h-.97c-.027-.13-.039-.262-.034-.394-.156.15-.339.27-.54.353-.185.078-.384.119-.585.12-.135.007-.27-.015-.395-.064-.126-.05-.24-.124-.335-.22-.09-.097-.157-.213-.195-.34-.04-.126-.05-.26-.03-.39.012-.153.053-.303.123-.44.07-.138.168-.26.286-.358.36-.237.78-.363 1.21-.36.326-.014.65-.06.967-.135.047-.1.078-.206.094-.315.006-.047 0-.095-.018-.14-.018-.044-.047-.083-.085-.113-.108-.076-.24-.112-.372-.1-.151-.007-.3.028-.433.102-.11.07-.194.175-.24.298zm.86.872c-.08.02-.16.034-.24.044-.35.013-.691.098-1.006.248-.055.034-.102.08-.135.136-.034.055-.055.117-.06.182-.007.05-.002.102.015.15s.044.091.08.127c.043.04.093.072.147.093.055.02.114.03.173.027.151 0 .3-.035.436-.103.13-.06.241-.152.327-.266.099-.158.176-.328.227-.507l.036-.13zM39.726 16.945h2.28l-.669 2.064c-.325.18-.672.32-1.032.416-.393.112-.801.17-1.21.17-.504.04-1.004-.103-1.41-.402-.215-.202-.376-.453-.467-.733-.092-.279-.112-.577-.059-.866.05-.473.196-.93.432-1.344.265-.491.655-.905 1.129-1.2.476-.287 1.025-.435 1.58-.426.49-.03.976.107 1.378.386.17.14.31.31.411.504.102.194.163.406.182.625l-.988.106c-.039-.24-.164-.459-.352-.614-.204-.146-.45-.219-.701-.207-.35-.002-.694.092-.993.272-.3.18-.544.439-.706.749-.198.35-.321.737-.36 1.137-.032.155-.03.316.004.47.035.155.102.3.197.428.109.104.239.184.381.234.143.05.295.07.445.056.236-.001.472-.032.7-.09.218-.052.43-.124.634-.215l.23-.72H39.46l.265-.8zM43.822 17.017l-.96-.078c.137-.305.367-.56.656-.729.345-.187.734-.278 1.127-.262.363-.033.726.063 1.026.27.098.078.175.18.223.295.048.116.066.242.052.367-.013.113-.035.224-.065.334-.031.12-.132.428-.301.932-.107.283-.188.575-.24.872-.015.166-.003.334.034.496h-.971c-.026-.13-.038-.261-.034-.393-.156.15-.339.268-.539.351-.185.079-.385.12-.587.12-.134.007-.269-.015-.395-.064-.125-.049-.24-.123-.334-.22-.09-.096-.157-.212-.196-.339-.039-.127-.049-.26-.029-.391.012-.153.054-.303.124-.44s.168-.258.286-.357c.359-.238.78-.363 1.21-.36.326-.013.65-.058.967-.134.046-.1.077-.206.093-.314.006-.048 0-.096-.018-.14-.018-.045-.047-.084-.084-.114-.109-.076-.24-.111-.372-.1-.151-.008-.301.028-.433.102-.11.069-.195.173-.24.296zm.86.873c-.062.015-.144.03-.24.043-.349.014-.69.099-1.005.25-.055.034-.101.08-.135.135-.034.055-.055.118-.061.182-.007.05-.001.102.016.15s.045.092.081.127c.043.04.094.07.148.09.055.019.113.027.172.023.151 0 .3-.035.436-.103.129-.06.24-.151.325-.265.1-.158.176-.329.227-.508l.036-.124zM47.214 16.03h.939l-.138.423c.328-.306.753-.485 1.2-.505.222-.016.442.042.627.164.069.055.126.123.167.201.042.078.066.164.073.252.165-.19.37-.34.6-.44.237-.115.498-.176.762-.177.12-.009.241.006.355.044.115.039.22.1.311.179.075.077.13.17.163.273.033.103.04.211.024.317-.035.212-.089.42-.16.623l-.69 2.13h-.996l.687-2.13c.085-.266.13-.416.133-.452.007-.04.004-.083-.008-.122-.012-.04-.032-.076-.06-.106-.075-.062-.172-.092-.269-.083-.137.007-.27.044-.391.108s-.227.154-.31.263c-.212.28-.367.6-.457.94l-.511 1.582h-.999l.68-2.106c.054-.154.098-.312.128-.473.006-.04.001-.083-.012-.122-.013-.04-.036-.075-.065-.104-.036-.032-.078-.056-.123-.07-.046-.016-.093-.022-.14-.018-.122.004-.24.035-.346.091-.126.063-.238.15-.332.253-.108.124-.197.263-.265.413-.036.08-.1.257-.19.534l-.517 1.602h-.998l1.128-3.483zM53.577 16.03h.998l-1.126 3.48h-.997l1.125-3.48zm.427-1.32H55l-.274.854h-.998l.275-.854zM55.57 16.03h.945l-.144.453c.215-.17.453-.308.705-.413.211-.08.435-.12.66-.12.127-.009.254.009.373.051.119.043.228.11.32.196.08.087.14.19.174.303.034.113.042.232.023.349-.042.237-.104.47-.186.696l-.633 1.971h-.999l.638-1.978c.062-.173.112-.35.151-.529.01-.05.006-.102-.008-.151-.015-.05-.04-.095-.075-.133-.042-.036-.09-.064-.142-.082-.053-.017-.108-.024-.163-.02-.18.011-.355.071-.504.174-.19.115-.35.273-.468.46-.142.263-.253.541-.334.829l-.462 1.43h-.997l1.125-3.486zM58.709 19.698l1.04.144c-.015.077-.005.157.028.228.037.058.091.104.155.132.1.04.206.058.313.054.18.007.36-.034.518-.12.113-.073.204-.175.265-.295.08-.181.147-.367.199-.558l.051-.164c-.317.252-.708.395-1.112.407-.16.008-.32-.02-.468-.082-.148-.063-.28-.157-.386-.278-.11-.15-.188-.322-.23-.503-.04-.182-.044-.37-.01-.554.038-.395.158-.778.351-1.124.173-.321.43-.589.743-.774.27-.166.58-.257.898-.263.232-.004.46.06.657.183.192.124.34.304.423.517l.202-.617h.936l-.935 2.902c-.103.339-.223.672-.36.998-.075.173-.174.335-.295.48-.108.121-.237.222-.382.296-.162.085-.337.143-.518.173-.208.036-.419.054-.63.053-.402.029-.803-.06-1.157-.253-.128-.095-.226-.225-.281-.374-.056-.15-.067-.311-.033-.466.002-.048.008-.095.018-.142zm1.345-1.68c-.039.21.007.429.129.606.054.068.123.122.202.158.079.036.165.053.251.05.19-.006.374-.07.524-.187.187-.137.335-.32.43-.532.104-.209.171-.434.198-.665.018-.105.013-.213-.013-.316-.026-.103-.073-.2-.138-.284-.056-.071-.126-.129-.208-.168-.08-.039-.17-.059-.26-.058-.189.004-.37.075-.511.2-.19.17-.337.38-.433.616-.087.182-.144.377-.17.576v.004z"/>
</svg>
