<svg xmlns="http://www.w3.org/2000/svg" width="130" height="40" fill="none" viewBox="0 0 130 40">
    <path fill="#B5B5B5" d="M18.879 4c8.685-.762 16.305 5.79 17.067 14.628.457 5.181-1.677 10.362-5.639 13.715-5.638 4.876-13.866 4.876-19.657.305-6.857-5.334-8.076-15.39-2.743-22.4C10.497 6.743 14.612 4.458 18.88 4zm.152.61c-8.38.609-14.628 8.076-13.866 16.609.761 8.533 7.923 14.933 16.304 14.171 8.381-.761 14.629-8.076 13.867-16.61-.457-4.875-3.048-9.142-7.01-11.885-2.742-1.676-5.942-2.59-9.295-2.286z"/>
    <path fill="#B5B5B5" d="M18.117 5.371c7.314-1.066 14.171 3.505 16.152 10.667 1.067 3.962.457 8.533-1.828 11.886-2.134.914-4.42 1.066-6.553 1.066-3.657-.152-7.314-1.219-11.124-1.219-2.133 0-4.266.153-6.247 1.067-4.724-6.552-3.353-15.848 3.048-20.724 1.98-1.371 4.114-2.286 6.552-2.743zm2.133.305l-.914 2.743H16.44c.762.61 1.524 1.067 2.285 1.676-.152.914-.457 1.829-.761 2.895.761-.61 1.523-1.066 2.285-1.676.762.61 1.524 1.067 2.286 1.676l-.914-2.742c.762-.61 1.523-1.067 2.285-1.677h-2.895c-.152-1.066-.457-1.98-.762-2.895zm-6.552 3.657c-.153.457-.153.915-.305 1.372l-1.371.152 1.219.762c-.153.305-.153.914-.305 1.371l1.067-1.066c.457.305.761.457 1.219.61-.153-.306-.305-.763-.61-1.22.305-.305.762-.61 1.067-.914-.457 0-.915 0-1.372.152-.304-.457-.457-.914-.61-1.219zm12.495 1.22l-1.371-.153c.304.305.61.61 1.066.914-.152.457-.457.915-.61 1.22l1.22-.61c.305.305.762.61 1.066.914-.152-.305-.152-.762-.304-1.22.457-.151.762-.456 1.219-.761l-1.372-.152c-.152-.457-.152-.915-.304-1.372-.153.305-.305.762-.61 1.22zm-16.914 1.98v.915l-.762.304.762.153v.914c.152-.305.305-.457.457-.762l.914.305-.61-.762.458-.762-.762.457c-.152-.305-.305-.457-.457-.762zm21.486.762l-.762-.305.457.61c-.153.152-.305.457-.61.61l.762-.153.457.762v-.914l.915-.153-.762-.305v-.914l-.457.762zm-19.353 1.372c-.914.304-1.828.914-2.286 1.676v8.686c.61.457 1.372.761 2.134.914.914.304 1.828.152 2.743.152.914 0 1.828-.305 2.59-.914 1.067-.914 1.372-2.59.762-3.962-.305-.762-.914-1.22-1.676-1.524.914-.457 1.371-1.219 1.371-2.133 0-1.524-1.371-2.895-2.743-3.048-1.066 0-1.98 0-2.895.153zm3.962-.153c1.067.457 1.676 1.372 2.133 2.438h1.372v9.295h2.438v-9.295h1.371c.762-1.066 1.677-1.98 2.896-2.438h-10.21zm10.362.305c-1.22.457-2.286 1.371-2.895 2.59-.61 1.372-.762 2.896-.61 4.42.152 1.37.914 2.742 1.981 3.504 1.067.762 2.438 1.067 3.657.915 1.22-.153 2.59-.458 3.657-1.372v-5.638h-3.81v2.133h1.525v2.134c-.762.61-1.829.61-2.743.152-.915-.457-1.676-1.371-1.829-2.286-.152-1.066-.152-2.133.305-3.047.305-.915 1.067-1.677 1.98-1.829 1.22-.305 2.287.152 3.2.914.306-.61.61-1.371 1.068-1.98-1.372-1.067-3.658-1.22-5.486-.61zM53.317 18.78c.305.306.762.61 1.067.915-.305.152-.458.305-.762.457.457.762.457 1.829.152 2.59-.457.763-1.371 1.22-2.286 1.22-.457 0-.761-.152-1.219.152-.152 0-.457.305-.152.457.305.153.61 0 .914 0 .915-.152 1.829-.152 2.59.305.915.61.763 2.286-.152 2.895-1.523 1.067-3.81.915-5.333-.152.305-.457.762-.762 1.067-1.22.914.763 2.133.915 3.2.458.304-.152.304-.457.152-.61 0-.152-.152-.152-.305-.304-.914-.305-1.828.152-2.743 0-.457 0-1.066-.305-1.066-.915-.153-.609.457-1.066.914-1.218-1.219-.61-1.524-2.286-.762-3.353.914-1.219 2.59-1.371 3.962-.762l.762-.914zm-2.59 1.83c-.762.304-.915 1.523-.305 1.98.305.305.914.457 1.371.305.762-.305.914-1.219.457-1.828-.304-.61-1.066-.61-1.523-.457zm73.142-1.067c.153-.153.457-.457.61-.762.305.305.762.61 1.067.914-.305.152-.458.305-.762.457.457.762.457 1.524.152 2.286-.305.762-1.067 1.372-1.829 1.372-.457.152-.914 0-1.219 0-.304.152-.609.152-.609.457.305.304.609.152.914.152.914-.152 1.829-.152 2.591.305.914.61.914 2.133.152 2.743-.762.61-1.829.914-2.895.762-.915 0-1.829-.305-2.591-.915.305-.457.762-.762 1.067-1.219.609.457 1.371.762 2.133.762.457 0 1.067-.152 1.219-.61.153-.304-.152-.761-.457-.761-.914-.153-1.981.304-3.047 0-.458-.153-.762-.457-.762-.915 0-.61.457-.914.914-1.219-1.219-.61-1.524-2.285-.762-3.352 1.067-.914 2.895-1.067 4.114-.457zm-1.981 1.067c-.914.304-.914 1.828-.152 2.133.457.305 1.371.152 1.676-.305.305-.457.305-1.219-.152-1.676-.305-.305-.915-.305-1.372-.152zm-54.552-.762c1.067-.915 2.743-.915 3.81 0 .914-.762 2.438-.915 3.504-.305.61.457.915 1.219.915 1.828v4.42h-1.677v-3.963c0-.457 0-.914-.457-1.066-.61-.457-1.524-.305-1.98.457v4.724h-1.677v-4.42c0-.913-1.067-1.218-1.676-.761-.305.152-.61.305-.61.762v4.571h-1.676v-6.552h1.22l.304.305zm9.6.61c1.219-1.372 3.505-1.525 4.876-.458.915.762 1.22 1.98.915 3.2H77.85c0 .61.457 1.219 1.067 1.524.914.305 1.829.152 2.59-.457.153.457.458.762.61 1.219-.914.61-2.133.761-3.2.61-1.067-.153-2.133-.915-2.59-1.982-.458-1.219-.305-2.743.609-3.657zm1.98.152c-.609.152-.913.761-1.066 1.37h3.353c-.153-.456-.153-.913-.61-1.066-.457-.457-1.067-.457-1.676-.305zm14.02-1.067c1.219-.457 2.438-.457 3.657-.153.762.305 1.22.915 1.22 1.677.304 1.219 0 2.285.152 3.504 0 .457.152.762.457 1.067-.305.457-.762.457-1.22.457-.304-.152-.609-.457-.761-.762-.457.457-1.22.762-1.829.762-.762 0-1.524-.152-1.98-.61-.61-.609-.61-1.37-.458-2.133.152-.762.914-1.219 1.524-1.371.762-.305 1.676-.305 2.438-.153 0-.457-.152-.761-.61-.914-.761-.305-1.676-.152-2.438.153 0-.61-.152-1.067-.152-1.524zm1.371 3.505c-.61.304-.61 1.371 0 1.676.61.152 1.22.152 1.677-.305.457-.457.304-1.067.304-1.676-.61 0-1.371 0-1.98.305zm6.096-3.2c1.066-.915 2.743-.915 3.809 0 .914-.762 2.438-.915 3.505-.305.609.457.914 1.219.914 1.828v4.42h-1.676v-3.963c0-.457 0-.914-.457-1.218-.61-.458-1.524-.305-1.981.457v4.723h-1.676v-4.419c0-.914-1.067-1.219-1.829-.761 0 .152-.457.457-.457.761v4.572h-1.676V19.39h1.066c.305.153.458.305.458.457zm14.019.152c.762-.762 1.981-.914 3.047-.61.915.305 1.524 1.22 1.524 2.134v4.419h-1.676v-3.81c0-.457-.152-1.066-.61-1.371-.762-.457-1.676-.152-2.285.457v4.724h-1.677V19.39h1.22c.304.153.304.305.457.61zm-69.334-.61h2.59v6.553h-1.675v-5.334h-.915V19.39zm17.067 0h2.59v6.553H63.07v-5.334h-.914V19.39zm47.086 0h2.59v6.553h-1.676v-5.334h-.914V19.39zm-23.467-1.676c.914-.762 2.286-.914 3.505-.914.762 0 1.524.305 2.286.914-.305.457-.458.915-.762 1.22-.762-.61-1.829-.915-2.743-.61-1.067.152-1.829 1.066-2.133 2.133-.153.914-.153 2.133.304 3.048.762 1.219 2.743 1.676 3.962.762v-1.829h-1.371v-1.371h3.047v3.962c-1.066.761-2.285.914-3.504.914-1.22 0-2.438-.457-3.2-1.22-1.067-1.066-1.372-2.742-1.067-4.266.305-1.067.762-1.98 1.676-2.743zm-47.238-.762c.914 0 1.829-.152 2.743-.152.762 0 1.676.152 2.286.61.61.457.914 1.37.61 2.133-.153.61-.61.914-1.068 1.219.61.152 1.22.61 1.524 1.219.457.914.305 1.98-.304 2.743-.762.762-1.83 1.066-2.743 1.066h-3.048v-8.838zm1.676 1.22v2.133c.61 0 1.372.152 1.829-.153.61-.305.762-1.371.152-1.828-.61-.153-1.371-.153-1.98-.153zm0 3.504v2.895c.762 0 1.372.153 2.133-.152 1.067-.305 1.22-2.286 0-2.59-.761-.305-1.37-.153-2.133-.153zm4.876-4.724h2.438v1.372h-2.59c.152-.457.152-.915.152-1.372zm9.905 0h6.705v1.372h-1.981v7.619h-1.676v-7.62h-3.048v-1.37zm7.162 1.372v-1.372h2.438v1.372h-2.438zm47.086-1.372h2.59v1.372h-2.438c-.152-.457-.152-.915-.152-1.372z"/>
    <path fill="#B5B5B5" d="M12.022 17.257c.61-.762 1.98-.61 2.438.305.152.457 0 1.219-.61 1.371-.762.153-1.371 0-1.98 0 0-.61-.153-1.219.152-1.676zm-.153 3.657c.762 0 1.677-.152 2.438.153 1.22.457 1.067 2.438-.152 2.895-.762.152-1.676.152-2.438-.152.152-1.067.152-1.981.152-2.896zm4.42 7.467c4.266.457 8.38 1.524 12.647 1.067 1.067-.153 1.98-.305 2.895-.762-.762.914-1.524 1.98-2.59 2.743-.762.152-1.524 0-2.286 0-2.286-.305-4.419-1.067-6.705-1.677-1.066-.457-2.438-1.066-3.962-1.371zm-2.744.914c1.829 0 3.505.61 5.334 1.22 2.895.914 5.638 2.133 8.685 2.285-1.218.762-2.59 1.371-4.114 1.676-.152 0-.305-.152-.61-.152-1.828-1.067-3.504-2.133-5.333-3.2-1.219-.762-2.438-1.524-3.962-1.829zm-2.285 2.438c1.219.153 2.59.305 3.657.762 1.371.61 2.438 1.372 3.657 2.286-2.59-.305-5.029-1.371-7.314-3.048z"/>
</svg>
