<svg xmlns="http://www.w3.org/2000/svg" width="60" height="25" fill="none" viewBox="0 0 60 25">
    <path fill="url(#prefix__paint0_linear)" d="M54.147 7.6c-.974-2.746-3.571-4.746-6.633-4.746-3.85 0-6.957 3.117-6.957 6.978 0 3.861 3.108 6.978 6.957 6.978 1.485 0 2.876-.465 3.99-1.256-.279.512-.65.977-1.067 1.396-1.3 1.256-3.108 1.907-5.288 1.814-1.252-.047-2.458-.372-3.479-.93L37.774 15.6l-.232-.094c.464-1.07.742-2.279.742-3.535 0-4.885-3.942-8.839-8.812-8.839-4.87 0-8.813 3.954-8.813 8.839 0 1.116.232 2.233.603 3.21l.046.093-3.71 2.186c-1.02.652-2.273 1.07-3.572 1.07-3.618 0-6.586-2.977-6.586-6.606 0-3.628 2.968-6.652 6.586-6.652 1.855 0 3.525.79 4.731 2l1.53-1.72c-1.623-1.583-3.849-2.606-6.26-2.606-4.917 0-8.906 4-8.906 8.978 0 4.931 3.989 8.932 8.905 8.932 1.67 0 3.2-.465 4.546-1.256l3.896-2.28c1.623 2.14 4.128 3.49 7.004 3.49 2.736 0 5.194-1.256 6.818-3.257l.046-.093.232.093 3.618 2.047c.14.093.232.14.371.233 1.345.744 2.922 1.163 4.545 1.21h.372c2.643 0 4.916-.838 6.586-2.513 1.809-1.767 2.83-4.373 2.83-7.303 0-1.21-.279-2.466-.743-3.629zM29.472 18.53c-3.572 0-6.494-2.93-6.494-6.512 0-3.583 2.922-6.513 6.494-6.513 3.571 0 6.493 2.93 6.493 6.512 0 .884-.185 1.722-.51 2.512-1.809-1.023-3.803-1.535-5.844-1.535-1.67 0-3.294.28-4.731.745.278.79.695 1.488 1.298 2.047 1.114-.326 2.273-.466 3.48-.466 1.53 0 3.107.42 4.545 1.163l-.047.093c-1.252 1.21-2.875 1.954-4.684 1.954zm18.042-4c-2.55 0-4.638-2.094-4.638-4.652 0-2.56 2.087-4.652 4.639-4.652 2.55 0 4.638 2.093 4.638 4.652.046 2.558-2.041 4.652-4.639 4.652z"/>
    <path fill="#fff" d="M10.037 15.833c-.093-.046-.185-.14-.278-.186-.093-.093-.14-.186-.232-.279-.046-.093-.093-.186-.14-.326-.046-.093-.046-.232 0-.325 0-.093.047-.186.14-.28.046-.092.14-.185.232-.232.093-.046.185-.093.325-.14h.324c.093 0 .186.047.279.14.092.046.185.14.231.233.047.093.14.186.14.325.046.093.046.186.046.326l-.371-.047v-.186c0-.046-.046-.14-.093-.186l-.139-.14c-.046-.046-.093-.046-.185-.046h-.186c-.046 0-.14.047-.186.093l-.139.14c-.046 0-.046.046-.046.093v.186c0 .046.046.14.093.186l.139.14c.046.046.093.046.093.093l.185-.14-.14-.233.28-.186.324.512-.696.465zM11.707 15.321l.232.186-.371 1.629-.325-.233.093-.326-.51-.372-.279.186-.324-.232 1.484-.838zm-.186.419l-.417.28.325.232.092-.512zM12.356 15.833l.51.14.093 1.07.603-.884.51.14-.37 1.441-.325-.093.278-1.163-.696 1.07-.232-.046-.092-1.256-.279 1.163-.324-.093.324-1.489zM14.397 16.252l.325-.046.232 1.535-.325.046-.232-1.535zM15.093 16.066l.417-.186 1.02.744-.417-.977.325-.14.603 1.443-.418.186-1.02-.79.417 1.023-.324.14-.603-1.443zM18.71 15.926c-.046.093-.138.186-.231.233-.093.046-.186.14-.278.186-.093.046-.232.093-.325.093s-.232 0-.325-.047l-.278-.14c-.093-.092-.14-.185-.186-.278-.046-.093-.092-.233-.092-.326s0-.232.046-.326c.046-.093.093-.186.186-.279.092-.093.185-.14.278-.186.093-.046.232-.093.325-.093h.324l-.093.326c-.046 0-.139-.047-.185-.047-.047 0-.14.047-.232.047-.046.046-.14.093-.14.14-.046.046-.092.092-.092.139 0 .046-.046.14 0 .186 0 .046.047.14.047.186.046.047.092.14.139.186.046.047.092.093.139.093.046 0 .139.047.185.047.047 0 .14 0 .186-.047.046-.046.139-.046.139-.093l.093-.093-.093-.232-.232.14-.14-.28.558-.28.278.745z"/>
    <defs>
        <linearGradient id="prefix__paint0_linear" x1="29.998" x2="29.998" y1="6.719" y2="30.789" gradientUnits="userSpaceOnUse">
            <stop stop-color="#FDD500"/>
            <stop offset=".011" stop-color="#FDD401"/>
            <stop offset=".247" stop-color="#FAB90D"/>
            <stop offset=".488" stop-color="#F8A616"/>
            <stop offset=".736" stop-color="#F79B1B"/>
            <stop offset="1" stop-color="#F7971D"/>
        </linearGradient>
    </defs>
</svg>
