<svg xmlns="http://www.w3.org/2000/svg" width="60" height="25" fill="none" viewBox="0 0 60 25">
    <path fill="#B5B5B5" d="M54.123 7.584c-.47-1.385-1.363-2.587-2.554-3.436-1.19-.849-2.617-1.302-4.08-1.294-1.462.007-2.885.474-4.067 1.335-1.181.86-2.062 2.072-2.518 3.461-.455 1.39-.462 2.887-.02 4.28.444 1.394 1.313 2.613 2.487 3.485 1.174.871 2.593 1.352 4.055 1.372 1.462.02 2.893-.419 4.092-1.257-.294.513-.657.982-1.08 1.394-.71.648-1.544 1.143-2.452 1.457-.908.313-1.87.438-2.829.367-1.218-.03-2.413-.343-3.491-.912l-3.912-2.215-.24-.113c.578-1.323.822-2.77.708-4.21-.113-1.44-.58-2.83-1.36-4.046-.778-1.217-1.844-2.223-3.105-2.93-1.26-.705-2.675-1.09-4.12-1.119-1.444-.029-2.873.299-4.16.954-1.288.655-2.394 1.618-3.221 2.802-.827 1.185-1.349 2.555-1.52 3.99-.17 1.434.014 2.889.54 4.234l.054.1-3.7 2.16v-.006c-1.052.674-2.273 1.036-3.522 1.044-1.25.008-2.475-.34-3.535-1-1.06-.662-1.91-1.61-2.452-2.735-.542-1.126-.754-2.382-.61-3.623.143-1.24.636-2.415 1.42-3.387.785-.972 1.83-1.702 3.012-2.104 1.183-.402 2.455-.46 3.67-.167 1.214.292 2.32.923 3.19 1.82l1.535-1.733c-1.182-1.173-2.67-1.991-4.294-2.362-1.623-.37-3.319-.28-4.893.265-1.575.543-2.965 1.517-4.014 2.811-1.05 1.294-1.715 2.856-1.921 4.508-.207 1.653.054 3.33.752 4.843.698 1.512 1.806 2.798 3.198 3.713s3.013 1.42 4.678 1.461c1.665.04 3.309-.387 4.743-1.233l3.88-2.264c.801 1.06 1.832 1.924 3.016 2.527 1.183.603 2.488.93 3.817.955 1.328.025 2.645-.252 3.85-.81 1.206-.557 2.269-1.382 3.11-2.41l.047-.077.224.107 3.6 2.04c.12.074.252.146.38.216l.013.007c1.406.75 2.967 1.16 4.56 1.2h.355c1.209.04 2.414-.159 3.546-.584 1.133-.426 2.17-1.071 3.054-1.898.933-.958 1.664-2.095 2.148-3.343.485-1.247.713-2.58.671-3.917.003-1.277-.247-2.543-.735-3.723zM29.476 18.468c-1.395.003-2.753-.443-3.875-1.273-1.121-.83-1.946-1.998-2.351-3.333-.406-1.334-.37-2.764.1-4.077.471-1.313 1.352-2.44 2.513-3.213 1.161-.773 2.54-1.152 3.934-1.08 1.392.072 2.725.591 3.8 1.48 1.076.888 1.836 2.1 2.169 3.454.333 1.354.22 2.78-.32 4.066-1.777-.998-3.78-1.525-5.818-1.534-1.613-.005-3.217.249-4.75.753.26.766.698 1.46 1.277 2.023 1.131-.313 2.3-.47 3.473-.466 1.584.016 3.14.415 4.535 1.163l-.056.083c-.602.619-1.322 1.11-2.117 1.446-.796.336-1.65.508-2.514.508zm18.056-3.99c-.92 0-1.819-.273-2.584-.784-.765-.51-1.361-1.237-1.714-2.087-.352-.85-.444-1.785-.265-2.687.18-.903.623-1.731 1.273-2.382.65-.65 1.48-1.094 2.381-1.273.903-.18 1.838-.088 2.688.264.85.352 1.576.948 2.087 1.713.511.765.784 1.665.784 2.584-.001 1.233-.49 2.416-1.363 3.288-.871.871-2.054 1.362-3.287 1.364z"/>
    <path fill="#B5B5B5" d="M10.08 15.794c-.098-.053-.188-.12-.27-.198-.08-.077-.151-.164-.213-.257-.064-.093-.112-.198-.14-.308-.025-.101-.029-.207-.011-.31.018-.103.06-.2.12-.286.133-.19.331-.323.557-.375.102-.02.207-.02.309 0 .102.024.198.067.282.129.091.065.17.147.232.24.066.095.117.198.153.308.033.101.042.208.026.313l-.35-.053c.011-.063.011-.127 0-.19-.017-.073-.048-.142-.091-.202-.037-.057-.085-.106-.141-.144-.052-.036-.111-.06-.174-.07-.062-.01-.126-.007-.187.01-.065.016-.127.044-.183.082-.057.037-.106.085-.148.139-.035.05-.06.108-.075.168-.013.06-.013.123 0 .183.013.067.04.13.079.185.035.055.077.104.127.145.038.03.078.056.12.08l.21-.14-.156-.231.26-.175.338.501-.673.456zM11.724 15.264l.228.164-.36 1.644-.312-.223.083-.343-.486-.35-.296.19-.304-.22 1.447-.862zm-.156.44l-.432.28.306.22.126-.5zM12.393 15.79l.5.12.105 1.063.586-.893.498.12-.367 1.498-.33-.081.281-1.149-.675 1.053-.252-.061-.098-1.244-.28 1.15-.33-.08.362-1.496zM14.414 16.221l.335-.055.246 1.524-.336.054-.245-1.523zM15.133 16.038l.426-.18 1.023.73-.419-.986.313-.133.6 1.42-.409.173-1.049-.747.429 1.01-.314.133-.6-1.42zM18.742 15.89c-.066.09-.143.17-.231.24-.088.07-.184.13-.285.179-.101.05-.211.083-.324.095-.104.011-.208 0-.308-.03-.1-.032-.191-.084-.269-.154-.085-.077-.153-.17-.203-.274-.051-.102-.083-.214-.092-.328-.008-.104.007-.209.043-.307s.093-.187.166-.261c.079-.082.172-.15.275-.198.103-.052.213-.089.326-.11.105-.019.211-.012.313.018l-.1.34c-.061-.022-.125-.032-.189-.028-.074.006-.147.027-.213.062-.06.029-.115.07-.16.12-.041.047-.072.101-.091.16-.019.06-.024.123-.017.184.014.137.076.264.175.36.044.044.098.077.156.099.058.021.12.03.181.026.067-.005.133-.022.194-.052.058-.028.112-.064.16-.107.035-.031.066-.066.094-.104l-.11-.224-.25.12-.137-.282.543-.265.353.721z"/>
</svg>
