<svg xmlns="http://www.w3.org/2000/svg" width="74" height="40" fill="none" viewBox="0 0 74 40">
    <path fill="#B5B5B5" d="M60.5 2.325v-.027-.317c0-.007 0-.018-.002-.026-.113-.766-.6-1.162-1.45-1.189 0 .008 0 .013-.003.013-.069.008-.14.014-.209.014h-.264c0 .007 0 .013-.003.013-.068.008-.14.013-.208.013h-.264c0 .008 0 .013-.003.013-.069.008-.14.013-.209.013h-.238c0 .008 0 .014-.002.014-.069.008-.14.013-.209.013h-.264c0 .008 0 .013-.003.013-.069.008-.14.013-.208.013h-.265c0 .008 0 .013-.002.013-.07.008-.14.014-.21.014h-.263c0 .008 0 .013-.003.013-.069.008-.14.013-.209.013h-.211c-.056.013-.087.003-.098-.029-.098-.336-.304-.565-.615-.684h-.317c0 .008 0 .013-.003.013-.069.008-.14.013-.209.013h-.211c0 .008 0 .013-.003.013-.068.008-.14.014-.209.014h-.211c0 .007 0 .013-.002.013-.07.008-.14.013-.21.013H53.5c0 .008 0 .013-.002.013-.069.008-.14.013-.209.013h-.211c0 .008 0 .014-.003.014-.069.008-.14.013-.209.013h-.211c0 .008 0 .013-.003.013-.068.008-.14.013-.208.013h-.212c0 .008 0 .013-.002.013-.07.008-.14.014-.21.014h-.026c-.137.013-.25.002-.343-.027l-.016-.002c-.05-.193-.169-.315-.354-.368h-.449c0 .008 0 .014-.003.014-.068.008-.14.013-.208.013h-.159c0 .008 0 .013-.002.013-.07.008-.14.013-.21.013h-.131c0 .008 0 .013-.003.013-.069.008-.14.014-.209.014h-.158c0 .008 0 .013-.003.013-.069.008-.14.013-.209.013h-.132c0 .008 0 .013-.002.013-.069.008-.14.013-.209.013h-.159c0 .008 0 .014-.002.014-.069.008-.14.013-.209.013h-.132c0 .008 0 .013-.003.013-.068.008-.14.013-.208.013h-.159c0 .008 0 .014-.002.014-.07.007-.14.013-.21.013h-.184c0 .008 0 .013-.003.013-.069.008-.14.013-.209.013h-.106c0 .008 0 .013-.002.013-.069.008-.14.014-.209.014h-.158c0 .007 0 .013-.003.013-.069.008-.14.013-.209.013h-.132c0 .008 0 .013-.002.013-.069.008-.14.013-.209.013h-.158c0 .008 0 .014-.003.014-.069.008-.14.013-.209.013h-.132c0 .008 0 .013-.003.013-.068.008-.14.013-.208.013h-.159c0 .008 0 .013-.002.013-.07.008-.14.014-.21.014h-.131c0 .008 0 .013-.003.013-.069.008-.14.013-.209.013h-.132c0 .008 0 .013-.002.013-.07.008-.14.014-.21.014h-.158c0 .007 0 .013-.002.013-.069.008-.14.013-.209.013h-.132c0 .008 0 .013-.003.013-.068.008-.14.013-.208.013h-.159c0 .008 0 .014-.003.014-.068.007-.14.013-.208.013h-.132c0 .008 0 .013-.003.013-.069.008-.14.013-.209.013h-.158c0 .008 0 .013-.003.013-.069.008-.14.014-.209.014h-.132c0 .008 0 .013-.002.013-.07.008-.14.013-.21.013h-.026c-.15.008-.24.077-.264.211L42.46.843c-.645-.262-1.37-.447-2.17-.552-.008 0-.018 0-.026.002-.085.013-.145.003-.185-.029h-.053c-.008 0-.018 0-.026.003-.085.013-.146.002-.185-.03h-1.506c0 .009 0 .014-.003.014-.068.008-.14.013-.209.013h-.132c0 .008 0 .013-.002.013-.069.008-.14.014-.209.014H37.7c0 .007 0 .013-.002.013-.07.008-.14.013-.21.013-.007 0-.018 0-.026.003-.787.103-1.527.25-2.219.449 0 .008-.003.016-.008.02-.058.064-.1.146-.127.244v2.008c0 .008 0 .018.003.026.013.085.003.146-.029.185V6.37c0 .008 0 .018.003.026.013.085.002.146-.03.185V7.215c0 .008 0 .019.003.027.013.084.003.145-.029.185 0 .008-.003.015-.008.02-.156.173-.304.194-.444.062h-.013c-.008-.07-.013-.14-.013-.212v-.026-.132h-.013c-.008-.069-.013-.14-.013-.212v-.026-.211-.027-.185-.026-.212-.026-.132c-.008 0-.014 0-.014-.003-.008-.068-.013-.14-.013-.209v-.026-.185-.026-.185-.027-.237-.027-.185-.026-.264c-.008 0-.013 0-.013-.003-.008-.106-.013-.209-.013-.314v-.027-.317-.026-.317-.027-.343-.027-.74-.026-.238-.026-.238-.026-.238-.026-.238h.026v-.027-.422-.027-.185-.026-.212V.56.322c-.008-.09-.05-.132-.13-.127-.557.04-1.122.135-1.688.28-1.252.325-2.528.624-3.83.899 0-.008-.003-.013-.006-.016-.433-.214-.943-.349-1.527-.407h-.026c-.085.013-.146.003-.185-.026h-.607v.013c-.07.008-.14.013-.212.013-.513.06-.978.172-1.395.336-1.128.438-2.01 1.128-2.648 2.068-.007 0-.015-.002-.02-.008-.717-.613-1.652-1.006-2.806-1.18-.008 0-.019 0-.027.002-.084.013-.145.003-.185-.029h-.528c-.991.058-1.831.264-2.518.618-1.044.54-1.865 1.292-2.47 2.264-.605.973-1.03 2.125-1.274 3.459v.026c0 .008 0 .019.003.027.013.084.002.145-.03.185v.079c0 .008 0 .018.003.026.014.085.003.146-.029.185v.185c0 .008 0 .019.003.027.013.084.003.145-.029.184v.608c.032.04.04.1.029.185l-.003.027v.317c.032.04.04.1.03.184l-.003.027c.09.8.261 1.522.518 2.161.449 1.12 1.088 2.056 1.912 2.809-.264.158-.56.293-.885.409-1.157.404-2.314.816-3.471 1.24-.288.105-.581.192-.885.266-.888.211-1.44.753-1.654 1.622V19.551c.032.04.04.1.026.185v.026c.267 1.31.54 2.616.817 3.91.277 1.3.557 2.597.834 3.887.28 1.302.563 2.605.843 3.905.28 1.294.553 2.589.822 3.889.272 1.313.57 2.602.896 3.873.052.209.155.38.309.512.15.13.351.21.605.236h.396c1.118-.46 2.209-.946 3.274-1.461.922-.45 1.875-.87 2.855-1.26.088.652.44 1.038 1.057 1.16.008.002.019.002.027.002h.343c1.12-.457 2.209-.946 3.271-1.464.11-.053.235-.095.378-.121.108.314.33.515.66.602.008.003.016.005.027.005H25.655l3.62-1.11c1.207-.367 2.425-.718 3.654-1.048.333-.09.655-.183.97-.275.269-.082.53-.106.787-.077.002 0 .005.019.005.053v.106c.032.04.04.1.026.185v.026c.17.774.714 1.113 1.633 1.015.161-.016.322-.045.481-.087 1.26-.32 2.52-.632 3.78-.936.577-.14 1.116-.317 1.618-.533.433-.185.702-.545.808-1.073v-.026-.37-.027-.396c.15-.008.267.066.352.22.137.247.282.493.433.736.428.693.927 1.313 1.495 1.863.05.047.106.087.164.116.188.093.404.153.647.182h.212c.594-.092 1.054-.32 1.381-.681.13-.143.265-.278.41-.407.428-.383.87-.75 1.326-1.104.716.86 1.588 1.564 2.618 2.108.867.457 1.905.742 3.115.85h1.321v-.026h.212c1.403-.171 2.576-.573 3.514-1.204.948-.637 1.778-1.388 2.491-2.252.71-.864 1.337-1.817 1.873-2.858.537-1.038.94-2.217 1.216-3.535.063-.299.103-.626.126-.986v-.026-.185h.027v-.026-.027-.185h.026v-.026-.027-.185h.027v-.026-.08-.026-.185h.026v-.026-.159-.026-.185-.026-.238-.027-.713-.026-.185-.027-.264h-.013c-.008-.069-.013-.14-.013-.211v-.027-.079h-.014c-.008-.069-.013-.14-.013-.211-.156-1.369-.475-2.563-.962-3.588-.512-1.078-1.146-2.03-1.9-2.854-.75-.824-1.674-1.474-2.77-1.952-.278-.121-.58-.211-.899-.264-.19-.032-.312-.124-.365-.272v-.027-.211-.027-.237-.027-.211-.026-.238h.027v-.027-.396-.026-.185-.027-.185h.026v-.026-.238-.026-.185h.027v-.027-.079-.026-.185h.026v-.027-.158-.027-.185h.027v-.026-.106-.026-.185h.026v-.026-.238c.032-.013.04-.05.03-.106-.004-.008-.004-.018-.004-.026v-.027-.185h.027v-.026-.027-.026-.185h.026v-.026-.027-.185h.027v-.026-.027-.184h.026v-.027c.188-1.39.41-2.753.666-4.09.148-.771.296-1.556.444-2.351zm.656 13.876c.861.716 1.561 1.596 2.106 2.642.293.565.539 1.186.734 1.868.116.41.211.84.283 1.297.032.04.04.1.029.185l-.003.026v.053c.032.04.04.1.03.185l-.003.026v.106c.031.04.04.1.029.185l-.003.026v.106c.032.04.04.1.03.185 0 .008-.004.019-.004.026v1.057c0 .008 0 .019.003.027.013.084.003.145-.029.185v.158c0 .008 0 .019.003.027.013.084.002.145-.03.185 0 .008 0 .018-.002.026-.1 1.139-.312 2.17-.631 3.091v.027c-.418 1.149-.944 2.19-1.58 3.122-.64.936-1.406 1.75-2.294 2.442-.885.69-2.026 1.123-3.418 1.305 0 .008 0 .013-.003.013-.069.008-.14.013-.209.013H55.772c-.008 0-.019 0-.027.003-.084.013-.145.002-.185-.03-.008 0-.018 0-.026-.002-.082-.005-.161-.013-.238-.024-1.363-.15-2.476-.554-3.334-1.21-.896-.681-1.607-1.548-2.135-2.597-.301.201-.584.418-.85.653-.84.74-1.673 1.485-2.503 2.235-.103.092-.185.127-.243.1-.396-.589-.795-1.175-1.197-1.757-.644-.935-1.289-1.87-1.936-2.805-.642-.93-1.282-1.866-1.913-2.809h-.026V28.72c.031.04.04.1.029.184l-.003.027V29.96c.032.04.04.1.03.185 0 .008-.004.019-.004.027V30.753c.032.04.04.1.03.185l-.003.026V31.255c.032.04.04.1.029.185l-.003.026v.238c.032.04.04.1.03.185l-.003.026v.37c.031.04.04.1.029.185l-.003.027v.158c.032.04.04.1.03.185l-.003.026V33c-.33.118-.68.227-1.052.32-1.252.308-2.515.615-3.786.921v.014c-.058-.022-.077-.088-.053-.199v-.026-.211h.027v-.027-.211-.027-.184-.027-.211-.027-.211h.026v-.026-.212-.026-.238c-.956.198-1.897.412-2.827.637-1.268.306-2.507.644-3.723 1.009-1.21.364-2.417.732-3.622 1.102-.008 0-.013 0-.013-.003-.029-.209-.05-.42-.066-.631-.008 0-.013 0-.013-.003-.008-.069-.013-.14-.013-.209v-.026c-.008 0-.014 0-.014-.003-.008-.069-.013-.14-.013-.209v-.026c-.008 0-.013-.003-.016-.005l-.01-.021c-.534.187-1.083.414-1.643.679-1.073.504-2.156 1-3.245 1.487l-.013.013c-.256-1.072-.502-2.158-.735-3.26-.272-1.3-.544-2.605-.813-3.913-.008 0-.016.003-.024.006-.811.35-1.63.692-2.46 1.025v.052c.328 1.25.666 2.497 1.017 3.742.154.549.283 1.09.383 1.622-.565.28-1.138.55-1.717.813l-3.25 1.485c-.245-.962-.473-1.947-.681-2.953-.267-1.298-.54-2.595-.82-3.89l-.84-3.904c-.277-1.292-.554-2.587-.834-3.887-.27-1.297-.542-2.602-.806-3.913.008-.008.018-.015.029-.02.008-.003.016-.006.024-.006 1.165-.412 2.32-.83 3.466-1.252.668-.246 1.334-.49 2.003-.73.058.146.1.312.121.5.175 1.392.354 2.784.545 4.174.187 1.387.38 2.769.576 4.148v.026c.819-.309 1.63-.623 2.43-.945.008-.003.016-.006.027-.006-.262-1.191-.524-2.388-.782-3.587-.278-1.29-.555-2.587-.83-3.89.037.011.06.003.066-.023 0-.003.005-.003.013-.003 1.165-.412 2.32-.832 3.464-1.258.708-.264 1.395-.504 2.058-.723-.013.073-.008.129.021.163.005.006.008.014.008.021.032.04.04.1.026.186v.052c.032.04.04.1.027.185v.027c.032.04.04.1.026.185v.052c.032.04.04.1.027.185v.053c.031.04.04.1.026.185v.027c.032.04.04.1.027.184v.027c.008.232.031.444.076.634.003.008.003.016.003.026.031.04.04.1.026.185v.027c.159 1.416.346 2.8.563 4.15.22 1.366.46 2.714.719 4.037.256 1.314.533 2.608.834 3.884.23.975.484 1.929.761 2.856 0-.008 0-.018-.002-.026-.016-.09-.024-.185-.024-.29-.008 0-.013 0-.013-.004-.008-.068-.013-.14-.013-.208v-.027c-.008 0-.014 0-.014-.002-.008-.069-.013-.14-.013-.209 0-.008 0-.019-.005-.024-.027-.069-.032-.158-.021-.267-.008 0-.014 0-.014-.002-.007-.069-.013-.14-.013-.209v-.026c-.008 0-.013 0-.013-.003-.008-.069-.013-.14-.013-.209v-.026c-.008 0-.013 0-.013-.003-.008-.069-.014-.14-.014-.209v-.026c-.008 0-.013 0-.013-.003-.008-.068-.013-.14-.013-.208v-.027c-.008 0-.013 0-.013-.002-.008-.07-.013-.14-.013-.21v-.026c-.008 0-.014 0-.014-.002-.008-.069-.013-.14-.013-.209 0-.008 0-.018-.005-.024-.027-.068-.032-.158-.021-.267-.008 0-.013 0-.013-.002-.008-.069-.014-.14-.014-.209v-.026c-.008 0-.013 0-.013-.003-.008-.069-.013-.14-.013-.209v-.026c-.008 0-.013 0-.013-.003-.008-.068-.014-.14-.014-.208v-.027c-.007 0-.013 0-.013-.002-.008-.07-.013-.14-.013-.21v-.026c-.008 0-.013 0-.013-.002-.008-.069-.013-.14-.013-.209v-.026c-.008 0-.013 0-.013-.003-.009-.069-.014-.14-.014-.209v-.026c-.008 0-.013 0-.013-.003-.008-.069-.013-.14-.013-.209v-.026c-.008 0-.013 0-.013-.003-.008-.068-.014-.14-.014-.208v-.027c-.008 0-.013 0-.013-.002-.008-.07-.013-.14-.013-.21v-.026-.026c-.008 0-.013 0-.013-.003-.008-.068-.013-.14-.013-.208v-.027c-.008 0-.014 0-.014-.002-.008-.07-.013-.14-.013-.21v-.026c-.008 0-.013 0-.013-.002-.008-.069-.013-.14-.013-.209v-.026c-.008 0-.014 0-.014-.003-.007-.069-.013-.14-.013-.209v-.026c-.008 0-.013 0-.013-.003-.008-.068-.013-.14-.013-.209v-.026h-.013c-.008-.069-.014-.14-.014-.211v-.027-.026h-.013c-.008-.069-.013-.14-.013-.212v-.026h-.013c-.008-.069-.013-.14-.013-.211V26.1h-.014c-.008-.068-.013-.14-.013-.211v-.026h-.013c-.008-.07-.013-.14-.013-.212v-.026h-.013c-.008-.069-.014-.14-.014-.212v-.026h-.013c-.008-.069-.013-.14-.013-.211v-.027-.026h-.013c-.008-.069-.014-.14-.014-.212v-.026h-.013c-.008-.069-.013-.14-.013-.211v-.027h-.013c-.008-.069-.013-.14-.013-.211h-.014c-.007-.069-.013-.14-.013-.212 0-.007 0-.018-.002-.026-.03-.153-.048-.32-.05-.502h-.014c-.008-.069-.013-.14-.013-.211v-.027h-.013c-.008-.068-.013-.14-.013-.211 0-.008 0-.016-.006-.026-.02-.072-.029-.162-.02-.265h-.014c-.008-.068-.013-.14-.013-.211v-.026h-.014c-.007-.07-.013-.14-.013-.212v-.026h-.013c-.008-.069-.013-.14-.013-.212v-.026H24.9c-.008-.069-.013-.14-.013-.211v-.027-.026h-.014c-.008-.069-.013-.14-.013-.212v-.026h-.013c-.008-.069-.013-.14-.013-.211v-.027h-.014c-.008-.068-.013-.14-.013-.211h-.013c-.008-.069-.013-.14-.013-.212v-.026h-.013c-.008-.069-.014-.14-.014-.211v-.027-.026h-.013c-.008-.069-.013-.14-.013-.212v-.026h-.013c-.008-.069-.013-.14-.013-.211v-.027h-.014c-.008-.068-.013-.14-.013-.211v-.026h-.013c-.008-.07-.013-.14-.013-.212v-.026-.027h-.014c-.007-.068-.013-.14-.013-.211v-.026h-.013c-.008-.07-.013-.14-.013-.212v-.026h-.013c-.008-.069-.013-.14-.013-.212V19.1h-.014c-.008-.069-.013-.14-.013-.211v-.027h-.013c-.008-.069-.013-.14-.013-.211v-.026h-.014c-.008-.07-.013-.14-.013-.212v-.026-.027h-.013c-.008-.068-.013-.14-.013-.211v-.026h-.013c-.008-.07-.014-.14-.014-.212v-.026h-.013c-.008-.069-.013-.14-.013-.212v-.026h-.013c-.008-.069-.014-.14-.014-.211v-.027h-.013c-.008-.069-.013-.14-.013-.211v-.027-.026h-.013c-.008-.069-.013-.14-.013-.211v-.027h-.014c-.008-.069-.013-.14-.013-.211v-.027h-.013c-.008-.068-.013-.14-.013-.211v-.026-.053h.053c1.308-.27 2.602-.544 3.889-.827 1.302-.286 2.597-.57 3.88-.856.87-.193 1.74-.38 2.614-.563.306 1.27.607 2.542.909 3.81.071.298.137.594.2.893l.014.013c-.27.066-.555.124-.854.18l-.895.16c-1.316.241-2.621.503-3.918.786 0 .008-.003.015-.008.02-.006.006-.011.009-.022.009v1.268c.032.04.04.1.027.185V22.195c.032.04.04.1.026.185v.238c1.263-.314 2.505-.647 3.728-.996.183-.053.365-.098.552-.14.267 1.176.54 2.349.817 3.514.002.008.002.016.002.026.03-.002.032.003.008.014-.309.145-.636.261-.988.351-1.26.32-2.51.647-3.752.983V26.66c.032.04.04.1.027.185v.159c.032.04.04.1.026.185v.185c.032.04.04.1.027.185v.158c.032.04.04.1.026.185v.185c.032.04.04.1.027.185v.159c.031.04.04.1.026.184v.053c.018.043.04.085.06.127.003.003.009.005.02.005 1.273-.3 2.549-.61 3.825-.927.637-.158 1.292-.306 1.963-.446V27.4h.026v-.026-.185-.027-.184-.027-.211-.027-.211h.027v-.026-.106-.027-.211-.026-.185-.027-.185-.026-.212-.026-.211-.027-.185-.026-.185-.026-.212-.026-.212-.026-.211-.027-.238-.026-1.083-.027-.237-.027-.211-.027-.264-.026-.185-.026-.185-.027-.238-.026-.238-.026-.212-.026-.159h-.013c-.008-.068-.014-.14-.014-.21v-.027-.185-.027-.185-.026-.185-.026-.212-.026-.132h-.013c-.008-.069-.013-.14-.013-.212v-.026-.185-.027-.184-.027-.158h-.013c-.008-.069-.014-.14-.014-.212v-.026-.185-.027-.21h-.013c-.008-.07-.013-.14-.013-.212v-.027-.185-.026-.08h-.013c-.008-.068-.013-.14-.013-.21v-.027-.185-.026-.053h-.014c-.007-.069-.013-.14-.013-.212v-.026-.132h-.013c-.008-.069-.013-.14-.013-.212v-.026-.132h-.013c-.008-.069-.014-.14-.014-.211v-.027-.079h-.013c-.008-.069-.013-.14-.013-.211v-.027-.053h-.013c-.008-.068-.013-.14-.013-.211v-.026-.106h.052c1.24-.336 2.534-.626 3.879-.867.742-.134 1.5-.259 2.277-.375v-.026H42.876v-.027h.37v-.026h.343v-.027h1.216c.07 0 .14.006.208.014 0 0 .003.005.003.013h.106c.071 0 .14.005.208.013 0 0 .003.005.003.013 1.456.122 2.579.574 3.371 1.356.558.552.88 1.342.962 2.37.032.04.04.1.029.184l-.003.027v.079c.032.093.035.206.014.341 0 .003-.006.003-.014.003v.184c0 .008 0 .019.003.027.013.085.003.145-.03.185-.03.357-.089.684-.17.983-.255.914-.638 1.696-1.145 2.346-.695.887-1.54 1.62-2.541 2.195v.027c.66.917 1.347 1.807 2.058 2.67.335.405.67.81 1.006 1.213 0-.007 0-.018-.005-.023-.032-.109-.048-.233-.048-.373-.008 0-.013 0-.013-.002-.008-.07-.013-.14-.013-.21v-.026c-.008 0-.013 0-.013-.002-.008-.069-.013-.14-.013-.209v-.026-.027c-.008 0-.014 0-.014-.002-.008-.07-.013-.14-.013-.21v-.025-.186h-.013c-.008-.068-.013-.14-.013-.21v-.027-.212-.026-.37-.026-.185h.026v-.027-.264-.026-.185h.027v-.027-.132-.026-.185h.026v-.027-.105-.027-.185h.026v-.026-.026-.185h.027v-.027c.227-1.35.594-2.563 1.099-3.64.502-1.07 1.107-2.038 1.818-2.901.71-.867 1.593-1.56 2.644-2.077.574-.283 1.22-.483 1.945-.602v-.027h.396v-.026h.608c.071 0 .14.005.209.013 0 0 .002.005.002.013.045 0 .087.005.13.013.002 0 .002.006.002.014 1.443.126 2.597.552 3.456 1.268zM57.251 2.325h.027v-.027h.475v-.026H58.176v-.026h.528c0 .005 0 .01-.002.016-.193.99-.386 2.031-.576 3.125-.233 1.332-.418 2.716-.558 4.15v.186c0 .007 0 .018.003.026.013.085.002.145-.03.185 0 .008 0 .018.003.026.014.093.006.164-.029.212v.211c0 .008 0 .019.003.027.013.084.003.145-.03.184v.265c0 .008 0 .018.004.026.013.085.002.145-.03.185v.687c0 .008 0 .018.003.026.013.085.003.146-.029.185v.079c0 .027.003.053.003.08 0 .026-.006.042-.014.042-.19.06-.39.108-.597.137-.747.109-1.48.188-2.193.24-.055-.11-.113-.221-.174-.332-.55-1.023-1.091-2.056-1.622-3.102h-.013c-.01.325-.04.624-.093.899V10.3c0 .008 0 .019.003.027.013.084.003.145-.03.184v.027c0 .008 0 .018.003.026.014.085.003.146-.029.185v.449c0 .008 0 .019.003.027.013.084.003.145-.029.185V11.886c0 .008 0 .019.003.027.013.084.002.145-.03.185v.052c0 .008 0 .019.003.027.013.085.003.145-.029.185-.008 0-.018 0-.026.002-.88.14-1.778.262-2.695.368h-.013c-.008-.08-.014-.159-.014-.238.056-.262.09-.544.103-.845l.003-.027h-.423c0 .008 0 .013-.002.013-.069.008-.14.014-.209.014-.402.02-.79.05-1.165.09-1.432.153-2.824.343-4.172.57 0 .008 0 .013-.005.013-.103.035-.145.003-.127-.092v-.027-.185-.026-.185h.026v-.026-.159-.026-.212-.026-.185-.026-.185h.027v-.027-.211-.027-.184-.027-.185-.026-.185h.026v-.027-.185-.026-.185-.026-.185-.027-.185h.027v-.026-.132-.027-.185-.026-.185-.026-.185-.027-.211h.026v-.026-.027-.185-.026-.185c0-.008 0-.019.003-.027.01-.066 0-.108-.03-.132-.152.455-.35.864-.599 1.229-.637.935-1.45 1.696-2.441 2.282-.99.587-2.196.96-3.617 1.113 0 .008 0 .013-.003.013-.068.008-.14.013-.208.013h-.053c0 .008 0 .013-.003.013-.069.008-.14.014-.209.014h-.026c-.093.013-.161.002-.211-.027v-.026-.185-.027-.052h-.014c-.008-.07-.013-.14-.013-.212 0-.008 0-.018.003-.026.024-.156.005-.272-.056-.344-.552.093-1.088.201-1.609.328-1.286.312-2.52.634-3.701.967h-.013c-.008-.069-.014-.14-.014-.211v-.027-.132h-.013c-.008-.069-.013-.14-.013-.211v-.027-.105h-.013c-.008-.07-.013-.14-.013-.212v-.026-.132h-.014c-.008-.069-.013-.14-.013-.212v-.026-.106h-.013c-.008-.068-.013-.14-.013-.211v-.027-.105h-.013c-.008-.069-.014-.14-.014-.212v-.026-.132h-.013c-.008-.069-.013-.14-.013-.211V10.3v-.106h-.013c-.008-.068-.014-.14-.014-.21v-.027-.106h-.013c-.008-.069-.013-.14-.013-.211v-.027-.08c-.137.471-.301.92-.489 1.343-.087.19-.177.375-.27.552-.546 1.041-1.49 1.678-2.834 1.913v.013c-.069.008-.14.013-.211.013h-.08c0 .008 0 .014-.002.014-.135.02-.249.018-.341-.014-.505-.023-.935-.121-1.295-.293-1.064-.51-1.83-1.318-2.298-2.428-.17.719-.415 1.358-.735 1.918-.576 1.01-1.458 1.707-2.647 2.098 0 .008-.003.013-.003.013-.325.111-.687.185-1.08.225v.013c-.069.008-.14.013-.212.013h-.079v.014c-.069.007-.14.013-.211.013h-.027c-.126.013-.232.002-.317-.027h-.237c-.085.014-.146.003-.185-.026-.743-.111-1.345-.365-1.8-.761-.845-.735-1.326-1.828-1.45-3.281h-.013c-.008-.07-.014-.14-.014-.212v-.026-.053h-.013c-.008-.069-.013-.14-.013-.211v-.027-.185-.026-.317h-.013c-.008-.204-.013-.404-.013-.608h.026v-.026-.053-.027-.184h.027v-.027-.158-.027-.185h.026c.203-1.374.652-2.5 1.35-3.379.695-.88 1.76-1.39 3.194-1.532l.027-.003v-.026h.211c.08 0 .159.005.238.013v.013c.071 0 .14.005.211.013v.014c.098.007.185.023.264.05.008.002.016.002.027.002.058.014.119.027.182.04.003 0 .003.005.003.013.657.188 1.173.513 1.545.978H21.4c-.306.539-.623 1.067-.948 1.588-.048.076-.088.153-.122.227-.063.14-.13.185-.198.14-.17-.122-.362-.222-.579-.301-.407-.148-.792-.12-1.149.09-.99.575-1.57 1.569-1.733 2.982v.476c.037 1.318.576 2.132 1.614 2.444.032.01.066.013.103.013h.449c.135-.008.26-.024.37-.05.008-.003.016-.003.027-.003v-.026c.967-.265 1.521-.944 1.664-2.035v-.066c-.771.312-1.545.634-2.325.965.003.029.003.034 0 .015 0-.005-.002-.01-.005-.015-.006 0-.01-.003-.013-.008-.006-.006-.008-.01-.008-.021l.013-.022c-.137-.673-.256-1.352-.357-2.04h.027V9.03c1.138-.438 2.28-.88 3.421-1.326.306-.121.629-.232.964-.338v-.027c.048.011.066-.005.056-.052-.003-.008-.003-.019-.003-.027v-.026-.185h.027v-.027c.19-1.387.634-2.517 1.334-3.392.528-.66 1.308-1.073 2.338-1.231v-.027h.317v-.026c.124 0 .246.005.37.013v.013c1.038.143 1.839.524 2.404 1.14.455.493.832 1.067 1.136 1.714.008 0 .016-.003.021-.008.006-.005.008-.01.008-.021V5.17v-.185-.026-.08c-.008 0-.013 0-.013-.002-.008-.069-.013-.14-.013-.209v-.026-.106c-.008 0-.013 0-.013-.002-.008-.07-.013-.14-.013-.21v-.026-.132c-.009 0-.014 0-.014-.002-.008-.069-.013-.14-.013-.209v-.026-.106c-.008 0-.013 0-.013-.003-.008-.068-.013-.14-.013-.208v-.027-.132c-.008 0-.014 0-.014-.003-.008-.068-.013-.14-.013-.208v-.027-.105c-.008 0-.013 0-.013-.003-.008-.069-.013-.14-.013-.209v-.026-.106c-.008 0-.013 0-.013-.003-.008-.068-.014-.14-.014-.208v-.027-.026h.053c.928-.217 1.852-.436 2.774-.658.008-.003.016-.003.027-.003v-.026c.016.008.031.016.045.026h.008l.002.011c.069.066.082.185.04.357 0 .002-.005.002-.013.002V5.857c.031.048.04.12.026.212v.634c.032.04.04.1.026.185v.317c.032.04.04.1.027.185v.449c.032.04.04.1.026.185v.211c.032.04.04.1.027.185v.159c.031.04.04.1.026.184v.133c.032.04.04.1.027.185v.132c.972-.199 1.95-.391 2.932-.579.008-.003.019-.003.027-.003v-.026-.106h-.014c-.008-.079-.013-.158-.013-.237v-.027-.185-.026-.185-.027-.185-.026-.29h-.013c-.008-.07-.013-.14-.013-.212v-.026-.185-.027-.185-.026-.159c-.008 0-.013 0-.013-.002-.008-.069-.014-.14-.014-.209v-.026-.212-.026-.212-.026-.185-.026-.159c-.008 0-.013 0-.013-.003-.008-.079-.013-.155-.013-.235v-.026-.185-.026-.212-.026-.238c-.008 0-.013 0-.013-.003-.008-.079-.014-.156-.014-.235v-.026-.212-.026-.185-.026-.212-.026-.053c-.007 0-.013 0-.013-.003-.008-.079-.013-.155-.013-.235V3.19v-.185-.027-.184-.027-.185-.026-.185c-.008 0-.013 0-.013-.003-.008-.132-.013-.261-.013-.393h.026c.473-.117.967-.212 1.48-.288l.026-.003v-.027H38.208V1.63h.237v-.026H39.317c.072 0 .14.005.209.013 0 0 .002.005.002.013h.106c.072 0 .14.005.209.013 0 0 .002.006.002.013 1.414.164 2.502.653 3.263 1.467.426.454.748 1.014.965 1.677.032-.013.04-.05.029-.105-.003-.008-.003-.019-.003-.027v-.026-.185-.026-.185h.027v-.027-.185-.026-.185-.026-.185-.027V3.4h.026v-.026-.132-.027-.185-.026-.185-.026-.185h.026V2.58v-.317-.026-.264h.027v-.027h.079c.172-.003.34-.01.502-.024l.026-.002v-.027h.212c.166-.002.325-.01.475-.024l.027-.002V1.84h.317v-.026h.211c.172-.003.341-.01.502-.024l.027-.002v-.027h.211c.172-.002.34-.01.502-.024l.026-.002v-.027H47.613v-.026H48.036v-.027H48.326V1.63h.212c.182-.01.367-.018.555-.026h.026v-.027h.211c.167-.01.333-.018.502-.026h.027v-.027c.071 0 .14.006.209.014 0 0 .002.005.002.013V1.656c.032.04.04.1.03.185 0 .008-.004.019-.004.027v.079c.032.04.04.1.03.185l-.003.026v.08c.032.04.04.1.029.185l-.003.026v.079c.032.04.04.1.03.185l-.003.027v.079c.032.04.04.1.029.185l-.003.026v.08c.032.04.04.1.03.185l-.003.026V3.4c.031.04.04.1.029.185l-.003.027v.079c.032.04.04.1.03.185l-.003.026v.053c.031.04.04.1.029.185l-.003.026v.027c0 .008 0 .013-.003.013-.068.008-.14.013-.209.013H49.648c0 .008 0 .013-.002.013-.069.008-.14.014-.209.014h-.687c0 .008 0 .013-.003.013-.068.008-.14.013-.208.013h-.212c0 .008 0 .013-.002.013-.069.008-.14.013-.209.013-.008 0-.019 0-.026.003-.148.019-.307.027-.476.024 0 .008 0 .013-.003.013-.068.008-.14.013-.208.013h-.08c0 .008 0 .014-.002.014-.069.007-.14.013-.209.013 0 .008-.003.016-.008.02-.005.006-.01.009-.021.009 0 .008 0 .018-.003.026-.029.428-.081.832-.156 1.216v.158c.822-.077 1.625-.172 2.405-.288l.026-.003c.032.067.04.154.03.265l-.003.026c.031.04.04.1.029.185l-.003.026v.159c.032.04.04.1.029.185l-.003.026v.106c.032.04.04.1.03.185l-.003.026v.053c.032.04.04.1.029.185l-.003.027v.052c.032.04.04.1.03.185l-.003.027v.053c.031.04.04.1.029.185l-.003.026c0 .026 0 .04-.005.04-.893.124-1.789.235-2.69.33V8c0 .008 0 .018.003.026.013.085.002.146-.03.185v.185c0 .008 0 .019.003.027.014.084.003.145-.029.185v.132c0 .008 0 .018.003.026.013.085.003.145-.029.185-.024.13-.005.217.058.259.005.005.013.008.021.008.111-.003.217-.013.317-.027h.027v-.026h.264V9.14h.211c.106 0 .201-.008.29-.024.009-.003.02-.003.027-.003v-.026h.264v-.027h.212c.483-.037.959-.079 1.426-.132h.027v-.026h.343v-.027-.184c.167-1.411.317-2.838.455-4.28.08-.843.174-1.673.285-2.484h.106V1.9H51.52v-.027H51.943v-.026H52.366V1.82H52.789v-.026H53.21v-.027h.397v-.026h.37c.031.066.04.153.029.264l-.003.027c.032.04.04.1.03.185l-.003.026v.079c.031.04.04.1.029.185l-.003.027v.052c.032.04.04.1.029.185l-.003.027v.053c.032.04.04.1.03.185l-.003.026c.15 1.427.375 2.774.67 4.045.077.328.188.618.334.87V7.95v-.132c.169-1.409.325-2.835.467-4.278.037-.375.085-.753.14-1.133 0-.003.008-.005.027-.005h.185v-.027h.37V2.35h.502v-.027h.211c.077.003.156.003.235.003zm-6.97 12.439c-.002-.006-.005-.014-.005-.022.922-.187 1.865-.306 2.827-.356v.013c-.116.203-.285.357-.507.468-.15.073-.29.16-.425.264-.392.306-.777.615-1.158.932-.237-.438-.48-.871-.731-1.3z" opacity=".3"/>
    <path fill="#B5B5B5" d="M26.92 5.231h-.236c-.157.01-.278.056-.366.138-.57.539-.887 1.331-.956 2.372V8.64c.103.996.597 1.604 1.48 1.82.008.003.015.003.026.003h.317c.83-.182 1.279-.747 1.348-1.69v-.027-.026-.185-.027-.238c-.07-.705-.212-1.334-.428-1.886-.22-.563-.614-.946-1.184-1.152zm12.92-.713h-.528v.079c0 .008 0 .019.003.026.013.085.002.146-.03.185v.529c0 .008 0 .018.003.026.013.085.003.146-.029.185v.581c0 .008 0 .019.003.027.013.084.002.145-.03.185v1.426c.032.04.04.1.03.185l-.003.027v.555c.032.04.04.1.03.185 0 .008-.004.018-.004.026v.396c1.144-.43 1.855-1.294 2.13-2.591.008-.035.01-.07.01-.104V6.42v-.317-.026-.106c-.008 0-.013 0-.013-.003-.14-.872-.663-1.355-1.572-1.45zm3.831 13.817h-.608c-.612.048-1.194.127-1.743.238 0 .008 0 .019.002.027.014.145.003.27-.029.37V19.26c0 .008 0 .019.003.027.013.084.003.145-.03.185v.871c0 .008 0 .019.004.027.013.1.002.18-.03.238v.317c0 .008 0 .018.003.026.013.085.003.145-.029.185V21.48c0 .007 0 .018.003.026.013.084.002.145-.03.185V22.272c1.092-.486 2.03-1.125 2.817-1.915.259-.262.439-.6.539-1.017v-.027-.238c0-.008 0-.016-.003-.026-.108-.418-.398-.655-.869-.713zM57.013 20.053c-.082.005-.158.02-.23.047-.9.35-1.564.946-1.989 1.789-.526 1.041-.951 2.19-1.27 3.448V26.262c.03.04.039.1.028.184l-.002.027v.026c.031.04.04.1.029.185l-.003.027c.135 1.442.798 2.354 1.987 2.737.177.058.37.098.576.116h.396c1.001-.18 1.71-.652 2.122-1.421.296-.547.512-1.176.652-1.881v-.027-.106c.03-.005.04-.031.03-.079-.003-.008-.003-.018-.003-.026v-.027-.185h.026v-.026-.132-.027-.184-.027-.185h.026v-.026-.423-.026-.238-.027-.105h-.013c-.008-.069-.013-.14-.013-.212v-.026-.185-.026-.212h-.013c-.008-.069-.013-.14-.013-.211-.048-.587-.135-1.126-.262-1.62-.246-.948-.819-1.561-1.72-1.844h-.079c-.085.003-.175.003-.262.003zm-.29 3.012v-.027c.071 0 .14.006.208.014 0 0 .003.005.003.013.394.108.602.399.632.872l.002.026c.032.04.04.1.03.185 0 .008-.004.018-.004.026v.053c.032.04.04.1.03.185l-.003.027v.237c.032.04.04.1.029.185l-.003.027V25.363c0 .008 0 .019.003.027.013.084.003.145-.03.185v.026c0 .008 0 .018.004.026.013.085.002.146-.03.185-.073.49-.298.822-.676 1-.069.03-.127.052-.18.06-.779.13-1.207-.153-1.286-.848h-.013c-.008-.069-.014-.14-.014-.212v-.026-.37-.026-.185h.027v-.027-.185c.087-.97.502-1.611 1.244-1.923.01-.003.019-.005.027-.005z" opacity=".3"/>
    <path fill="#B5B5B5" d="M7.925 19.736v.026h.026v-.026c.013-.085.003-.146-.026-.185v.185zM34.702 35.294s.005.003.013.003v-.026c.013-.085.002-.146-.027-.185 0 .071.006.14.014.209zM25.362 37.437c.074.03.172.035.288.013.003 0 .003-.005.003-.013H25.362zM20.686 38.415c.092.032.206.034.34.013.003 0 .003-.005.003-.013h-.343zM13.077 39.974V40h.396v-.026h-.397zM12.377 10.75s.005.003.013.003v-.026c.013-.085.002-.146-.027-.185 0 .071.006.14.014.208zM12.363 10.436v-.027-.184-.027c.014-.084.003-.145-.026-.185v.212c0 .07.005.14.013.208 0 .003.005.003.013.003zM12.416 8.534v-.027h-.026v.212c.031-.04.04-.1.026-.185zM12.363 9.22v-.026h-.026v.212c.032-.04.04-.1.026-.185zM50.461.053h-.211v.026c.071 0 .14-.005.209-.013.002 0 .002-.005.002-.013zM12.39 8.824v-.026h-.027v.211c.032-.04.04-.1.027-.185zM19.391 2.17c.008 0 .019-.004.027-.004v-.013c-.07-.008-.14-.013-.212-.013.04.032.1.04.185.03zM18.89 2.14h.21v-.013c-.068-.008-.14-.013-.21-.013h-.212v.026h.211zM59.262 10.172l-.003-.027h-.026v.212c.031-.04.04-.1.029-.185zM26.498.925h-.211V.95c.071 0 .14-.005.211-.013V.925zM27.29.954l.027-.003V.938c-.069-.008-.14-.013-.211-.013.04.031.1.04.185.029zM35.061 7.24l-.003-.027v-.027-.185-.026-.185h-.026V7.424c.032-.04.04-.1.029-.185zM34.57 7.5s.005.003.013.003v-.026c.013-.085.002-.145-.027-.185 0 .071.006.14.014.209zM47.238.29h-.211v.027c.07 0 .14-.005.208-.013.003 0 .003-.005.003-.013zM59.182 11.229l-.002-.027h-.027v.212c.032-.04.04-.1.03-.185zM49.748.106h-.212v.026c.072 0 .14-.005.21-.013.002 0 .002-.005.002-.013zM34.53 6.446v.476c0 .071.005.14.013.209 0 0 .005.002.013.002v-.026-.185-.026-.212-.026-.185-.027c.013-.092.003-.163-.026-.21v.21zM34.53 6.05v-.185-.026-.185-.027-.185-.026-.238-.026c.013-.085.002-.145-.027-.185V5.865c0 .072.006.14.014.209 0 0 .005.003.013.003V6.05zM47.608.264h-.211v.027c.07 0 .14-.006.208-.014.003 0 .003-.005.003-.013zM38.308.238h-.212v.026c.072 0 .14-.005.21-.013.002 0 .002-.005.002-.013zM50.118.08h-.212v.026c.072 0 .14-.006.209-.014.003 0 .003-.005.003-.013zM46.181.37h-.211v.026c.071 0 .14-.005.208-.013.003 0 .003-.005.003-.013zM35.087 6.394l-.002-.027v-.026-.185-.027-.37-.026-.185-.026-.185-.027-.184-.027-.185-.026-.185-.027-.37-.026-.185-.026-.185-.027-.185-.026-.185h-.027V6.58c.032-.04.04-.1.03-.185zM34.503 4.676V4.65v-.29-.027-.317-.027-.317-.026-.344-.026-.74-.026-.238-.026-.238-.027-.237-.027-.238h-.026V4.36c0 .106.005.212.013.315 0 .002.005.002.013.002zM35.114 3.065l-.003-.027v-.026-.37-.026-.185-.027-.185-.026-.185-.026-.185-.027-.37-.026-.238h-.026V3.25c.031-.04.04-.1.029-.185zM59.341 9.3l-.003-.027h-.026v.212c.032-.04.04-.1.029-.185zM44.41.502h-.21v.026c.07 0 .14-.005.208-.013.003 0 .003-.005.003-.013zM43.037 33.66v.026c.008 0 .013 0 .013-.003.021-.153.019-.285-.013-.394v.37zM34.53.845V.82.793.58.555c.013-.1.002-.18-.027-.238V1.03c.032-.04.04-.1.027-.185zM58.36.819c.072 0 .14-.005.21-.013 0 0 .002-.005.002-.013h-.423v.026h.212zM37.7.29h-.211v.027c.071 0 .14-.005.209-.013.002 0 .002-.005.002-.013zM57.608 24.439h.013c0-.008 0-.019.003-.027.013-.084.002-.145-.03-.185 0 .072.006.14.014.212zM37.964.264h-.211v.027c.071 0 .14-.006.209-.014.002 0 .002-.005.002-.013zM38.704.238h1.03c0-.008 0-.013-.002-.013-.069-.008-.14-.014-.209-.014h-1.03v.027h.211zM39.999.267l.026-.003c0-.008 0-.013-.002-.013-.07-.008-.14-.013-.21-.013.04.031.101.04.186.029zM40.263.293l.026-.002c0-.008 0-.014-.002-.014-.069-.008-.14-.013-.209-.013.04.032.1.04.185.03zM46.525.344h-.212V.37c.072 0 .14-.005.209-.013.003 0 .003-.006.003-.013zM65.97 25.68h-.027v.212c.032-.04.04-.1.03-.185-.003-.008-.003-.019-.003-.027zM66.022 25.205h-.026v.211c.032-.04.04-.1.03-.185-.004-.008-.004-.018-.004-.026zM65.996 25.442h-.026v.212c.031-.04.04-.1.029-.185-.003-.008-.003-.019-.003-.027zM66.049 24.888h-.026v.211c.031-.04.04-.1.029-.185-.003-.008-.003-.018-.003-.026zM66.049 23.276v1.427h.026v-.027-.184-.027-.238-.026-.713-.027-.185h-.026zM66.036 22.985h.013c0-.007 0-.018.003-.026.013-.084.002-.145-.03-.185 0 .072.006.14.014.211zM66.023 22.668c0-.008 0-.018.002-.026.013-.085.003-.145-.029-.185 0 .071.005.14.013.211h.014zM56.96.898c.072 0 .14-.005.21-.013 0 0 .002-.005.002-.013h-.423v.026h.211zM56.22 36.75h-1.03c.04.032.1.04.185.03l.027-.003H56.22c.071 0 .14-.005.208-.013 0 0 .003-.006.003-.014h-.211zM56.511 36.724v.026c.072 0 .14-.005.21-.013 0 0 .002-.005.002-.013h-.212zM46.128 35.984c.05.032.12.035.209.016.002 0 .002-.005.002-.016h-.211zM59.13 13.316l-.003-.027v-.026-.238V13v-.212-.026-.238H59.1v1.004c.032-.047.043-.119.03-.211zM59.156 11.915l-.003-.026v-.026-.185h-.026V12.1c.032-.04.04-.1.03-.186zM59.209 10.912l-.003-.027h-.026v.212c.032-.04.04-.1.029-.185zM59.235 10.515l-.002-.026h-.027v.211c.032-.04.04-.1.03-.185zM42.984.608h-.211v.026c.071 0 .14-.005.208-.013.003 0 .003-.005.003-.013zM46.895.317h-.212v.026c.071 0 .14-.005.209-.013.002 0 .002-.005.002-.013zM51.28.026V0h-.238v.026h.238zM43.328.581h-.212v.027c.072 0 .14-.006.209-.013.003 0 .003-.006.003-.014zM49.404.132h-.211v.026c.071 0 .14-.005.209-.013.002 0 .002-.005.002-.013zM43.697.555h-.211V.58c.072 0 .14-.005.209-.013.002 0 .002-.005.002-.013zM60.514 2.322c.021-.134.018-.248-.013-.34v.343c.008 0 .013 0 .013-.003zM44.041.528h-.211v.027c.071 0 .14-.005.208-.013.003 0 .003-.006.003-.014zM49.035.159h-.212v.026c.072 0 .14-.005.209-.013.003 0 .003-.006.003-.013zM44.755.476h-.212v.026c.071 0 .14-.005.209-.013.002 0 .002-.005.002-.013zM48.321.211h-.211v.027c.071 0 .14-.006.209-.013.002 0 .002-.006.002-.014zM50.831.026h-.211v.027c.071 0 .14-.005.208-.013.003 0 .003-.006.003-.014zM45.124.45h-.211v.026c.071 0 .14-.006.209-.014.002 0 .002-.005.002-.013zM45.468.423h-.212v.026c.072 0 .14-.005.21-.013.002 0 .002-.005.002-.013zM45.811.396H45.6v.027c.071 0 .14-.006.209-.014.002 0 .002-.005.002-.013zM47.925.238h-.211v.026c.07 0 .14-.005.208-.013.003 0 .003-.005.003-.013zM48.691.185h-.211V.21c.07 0 .14-.005.208-.013.003 0 .003-.005.003-.013zM53.077.344h-.212V.37c.072 0 .14-.005.21-.013.002 0 .002-.006.002-.013zM53.922.29h-.211v.027c.071 0 .14-.005.209-.013.002 0 .002-.005.002-.013zM52.654.37h-.211v.026c.071 0 .14-.005.208-.013.003 0 .003-.005.003-.013zM52.231.396h-.211v.027c.071 0 .14-.006.209-.014.002 0 .002-.005.002-.013zM53.5.317h-.212v.026c.071 0 .14-.005.209-.013.002 0 .002-.005.002-.013zM54.345.264h-.212v.027c.072 0 .14-.006.21-.014.002 0 .002-.005.002-.013zM54.768.238h-.212v.026c.072 0 .14-.005.209-.013.003 0 .003-.005.003-.013zM56.01.951c.07 0 .14-.005.208-.013 0 0 .003-.005.003-.013h-.423V.95h.211zM56.485.925c.071 0 .14-.006.209-.013 0 0 .002-.006.002-.014h-.422v.027h.211zM55.428 25.39V25.812c0 .072.005.14.013.212h.014v-.027-.185-.026-.37-.026-.185h-.027v.185zM57.436.872c.071 0 .14-.005.209-.013 0 0 .002-.006.002-.014h-.422v.027h.211zM57.885.845c.072 0 .14-.005.209-.013 0 0 .003-.005.003-.013h-.423v.026h.211zM58.836.793c.072 0 .14-.006.209-.014 0 0 .003-.005.003-.013h-.423v.027h.211zM59.315 9.564l-.003-.026h-.027v.211c.032-.04.04-.1.03-.185zM59.367 9.062l-.002-.026h-.027v.211c.032-.04.04-.1.03-.185zM59.394 8.824l-.003-.026h-.026v.211c.032-.04.04-.1.029-.185z"/>
    <path fill="#B5B5B5" d="M14.107 9.802v.555c0 .07.006.14.013.208 0 0 .006.003.014.003v.079c0 .072.005.14.013.209 0 0 .005.003.013.003.124 1.453.608 2.546 1.45 3.28.458.397 1.057.65 1.8.762.04.031.1.04.185.026h.237c.085.032.19.04.317.027h.027c.071 0 .14-.006.211-.014v-.013h.079c.072 0 .14-.005.212-.013v-.013c.393-.037.753-.114 1.08-.225.003 0 .003-.005.003-.013 1.186-.388 2.069-1.088 2.647-2.098.32-.56.566-1.2.735-1.918.467 1.11 1.234 1.918 2.298 2.428.357.172.788.27 1.295.293.092.032.206.035.34.014.003 0 .003-.006.003-.014h.08c.071 0 .14-.005.211-.013v-.013c1.342-.232 2.288-.87 2.835-1.913.092-.177.182-.362.27-.552.19-.423.353-.87.488-1.342v.106c0 .07.005.14.013.208 0 0 .006.003.014.003v.132c0 .071.005.14.013.209 0 0 .005.002.013.002v.133c0 .07.005.14.013.208 0 0 .006.003.014.003v.158c0 .072.005.14.013.21 0 0 .005.002.013.002v.132c0 .071.005.14.013.209 0 0 .005.002.013.002v.132c0 .072.006.14.014.209 0 0 .005.003.013.003v.158c0 .072.005.14.013.209 0 0 .005.003.013.003v.132c0 .071.005.14.013.208 0 0 .006.003.014.003v.158c0 .072.005.14.013.21 0 0 .005.002.013.002 1.181-.333 2.415-.655 3.701-.967.52-.127 1.057-.235 1.61-.328.06.072.079.188.055.344-.003.008-.003.018-.003.026 0 .072.005.14.014.209 0 0 .005.003.013.003V12.256c.05.032.119.04.211.03l.026-.003c.072 0 .14-.006.21-.014 0 0 .002-.005.002-.013h.053c.071 0 .14-.005.208-.013 0 0 .003-.005.003-.013 1.421-.154 2.629-.526 3.617-1.113.99-.586 1.804-1.347 2.441-2.282.248-.365.447-.774.6-1.229.029.024.04.066.029.132-.003.008-.003.019-.003.027V8.214h-.026v1.03h-.027V10.09h-.026v.872h-.026V11.807h-.027V12.23c-.016.098.027.127.127.095.003 0 .005-.005.005-.016 1.35-.227 2.74-.417 4.172-.57.373-.04.76-.07 1.165-.09.072 0 .14-.006.209-.014 0 0 .002-.005.002-.013H49.96c0 .008 0 .019-.002.027-.016.3-.05.583-.103.845 0 .08.005.159.013.235 0 0 .005.003.013.003.917-.106 1.815-.227 2.695-.367.008-.003.018-.003.026-.003.032-.04.04-.1.03-.185l-.003-.027v-.026-.026c.031-.04.04-.1.029-.185l-.003-.027v-.026-.185-.027-.184-.027-.026c.032-.04.04-.1.03-.185l-.003-.027v-.026-.185-.026-.212c.031-.04.04-.1.029-.185l-.003-.026v-.027c.032-.04.04-.1.029-.184l-.003-.027v-.026-.264c.053-.275.082-.574.093-.899h.013c.531 1.044 1.073 2.077 1.622 3.1.061.11.12.224.175.335.713-.053 1.445-.135 2.192-.243.206-.03.405-.077.597-.138.009-.002.014-.016.014-.042 0-.026 0-.053-.003-.08v-.026-.052c.032-.04.04-.1.03-.185 0-.008-.004-.019-.004-.027v-.026-.185-.027-.184-.027-.238c.032-.04.04-.1.03-.185l-.003-.026v-.027-.237c.032-.04.04-.1.029-.185l-.003-.027v-.026-.185c.032-.048.043-.119.03-.211l-.003-.027c.032-.04.04-.1.029-.185l-.003-.026v-.027-.158c.14-1.437.325-2.822.558-4.153.19-1.094.383-2.135.576-3.126.002-.002.002-.008.002-.016h-.528v.027h-.423v.026H57.278v.027H56.802v.026H56.3v.026h-.37V2.4h-.185c-.018 0-.026.002-.026.005-.056.38-.103.758-.14 1.134-.143 1.445-.299 2.869-.468 4.277v.158c-.145-.25-.256-.538-.333-.869-.296-1.265-.52-2.613-.67-4.04 0-.007 0-.018.002-.026.013-.084.002-.145-.03-.185v-.026V2.8c0-.007 0-.018.003-.026.014-.085.003-.145-.029-.185v-.026-.027c0-.008 0-.018.003-.026.013-.085.003-.146-.03-.185v-.027-.052c0-.008 0-.019.004-.027.013-.084.002-.145-.03-.185 0-.008 0-.018.003-.026.013-.111.003-.198-.029-.264h-.37v.026h-.396v.026h-.423v.027h-.422v.026h-.423v.027h-.423v.026h-.423v.027h-.106c-.113.81-.208 1.64-.285 2.483-.135 1.443-.285 2.87-.454 4.28v.211h-.344v.027c-.008 0-.018 0-.026.003-.468.05-.943.095-1.427.129h-.211v.026h-.264v.027c-.008 0-.019 0-.027.002-.09.016-.185.024-.29.024h-.212v.027h-.264v.026c-.008 0-.018 0-.026.003-.1.013-.206.02-.317.024-.008 0-.016-.003-.021-.008-.064-.043-.082-.127-.059-.26.032-.039.04-.1.03-.184l-.003-.027v-.026-.106c.032-.04.04-.1.029-.185l-.003-.026v-.027-.158c.032-.04.04-.1.03-.185l-.003-.026v-.027-.106c.9-.095 1.796-.203 2.69-.327.005 0 .005-.016.005-.042 0-.008 0-.019.002-.027.013-.084.003-.145-.029-.185v-.026-.027c0-.008 0-.018.003-.026.013-.085.002-.145-.03-.185v-.026-.027c0-.008 0-.018.003-.026.014-.085.003-.146-.029-.185v-.027-.026c0-.008 0-.019.003-.026.013-.085.002-.146-.03-.185V6.47v-.08c0-.007 0-.018.004-.026.013-.084.002-.145-.03-.184v-.027-.132c0-.008 0-.018.003-.026.013-.085.003-.146-.029-.185 0-.008 0-.019.003-.027.013-.11.002-.198-.03-.264-.007 0-.018 0-.026.003-.78.116-1.582.214-2.404.288v-.027-.132c.074-.383.127-.787.156-1.215l.002-.027c.008 0 .016-.002.022-.008.005-.005.008-.01.008-.02.07 0 .14-.006.208-.014 0 0 .003-.005.003-.013h.079c.072 0 .14-.005.209-.013 0 0 .003-.006.003-.013.169 0 .327-.008.475-.024l.026-.003c.072 0 .14-.005.21-.013 0 0 .002-.005.002-.013h.211c.072 0 .14-.006.209-.014 0 0 .003-.005.003-.013h.687c.07 0 .14-.005.208-.013 0 0 .003-.005.003-.013h.449c.071 0 .14-.005.209-.013 0 0 .002-.006.002-.014V4.17c0-.008 0-.019.003-.026.013-.085.003-.146-.03-.185V3.93v-.026c0-.008 0-.019.004-.027.013-.084.002-.145-.03-.185v-.026-.053c0-.008 0-.018.003-.026.013-.085.003-.146-.029-.185v-.027-.052c0-.008 0-.019.003-.027.013-.084.002-.145-.03-.185v-.026-.053c0-.008 0-.019.003-.026.014-.085.003-.146-.029-.185v-.027-.053c0-.008 0-.018.003-.026.013-.085.002-.145-.03-.185v-.026-.053c0-.008 0-.019.004-.027.013-.084.002-.145-.03-.185v-.026-.053c0-.008 0-.018.003-.026.013-.085.003-.146-.029-.185v-.027-.053c0-.007 0-.018.003-.026.013-.085.002-.145-.03-.185v-.026-.08c0-.008 0-.013-.002-.013-.069-.008-.14-.013-.209-.013v.026h-.026c-.17.008-.336.016-.502.027h-.212v.026h-.026c-.188.008-.373.016-.555.027h-.211v.026h-.291v.026h-.422v.027h-.291v.026c-.008 0-.019 0-.027.003-.16.013-.33.021-.502.024h-.211v.026c-.008 0-.018 0-.026.003-.162.013-.33.021-.502.024h-.212v.026h-.317v.026c-.008 0-.018 0-.026.003-.15.016-.31.024-.476.024h-.211v.026c-.008 0-.019 0-.027.003-.16.013-.33.021-.501.024h-.08v.026h-.026V2.61h-.026V3.403h-.027v.845h-.026V4.671c0 .008 0 .018.002.026.01.056.003.093-.029.106-.216-.663-.539-1.223-.964-1.678-.761-.813-1.85-1.302-3.263-1.466 0-.008 0-.013-.003-.013-.068-.008-.14-.013-.208-.013h-.107c0-.008 0-.014-.002-.014-.068-.007-.14-.013-.208-.013H38.443v.027h-.238v.026H37.862v.026c-.008 0-.019 0-.027.003-.513.077-1.007.172-1.48.288h-.026c0 .132.005.264.013.394 0 0 .006.002.014.002V3.218c0 .08.005.158.013.235 0 0 .005.003.013.003v.766c0 .08.005.158.013.235 0 0 .005.003.013.003V5.173c0 .08.006.158.014.235 0 0 .005.003.013.003v.872c0 .07.005.14.013.208 0 0 .005.003.013.003v.608c0 .07.006.14.013.208 0 0 .006.003.014.003V8.264c0 .08.005.159.013.235 0 0 .005.003.013.003v.132c-.008 0-.018 0-.026.003-.983.187-1.96.38-2.933.578V9.19v-.08-.026c.013-.084.003-.145-.026-.185v-.026-.08-.026c.013-.084.002-.145-.027-.185v-.026-.106-.026c.013-.085.003-.146-.026-.185V8.21v-.158-.027c.013-.084.002-.145-.027-.185v-.026-.185-.026-.185-.027c.014-.084.003-.145-.026-.185v-.026-.053-.026-.185-.027c.013-.084.002-.145-.026-.185V6.68 6.52v-.026-.185-.026-.185-.027c.013-.092.002-.164-.027-.211v-.027-.184-.027-.185-.026-.238-.026-.212-.026-.264-.027-.211-.027-.766-.026-.397-.026-.238-.026-.185-.027-.237-.027-.211c.008 0 .013 0 .013-.003.045-.171.032-.29-.04-.356l-.002-.011h-.008c-.013-.01-.026-.018-.045-.026v.026c-.008 0-.016 0-.026.003-.922.222-1.847.44-2.774.658h-.053v.052c0 .072.005.14.013.21 0 0 .005.002.013.002V2.9c0 .071.006.14.013.209 0 0 .006.002.014.002v.132c0 .072.005.14.013.209 0 0 .005.003.013.003v.158c0 .072.005.14.013.209 0 0 .005.003.014.003v.132c0 .071.005.14.013.208 0 0 .005.003.013.003v.159c0 .07.005.14.013.208 0 0 .005.003.013.003v.132c0 .071.006.14.014.209 0 0 .005.002.013.002V5.2c0 .008-.003.016-.008.022-.005.005-.01.007-.021.007-.304-.647-.682-1.22-1.136-1.714-.566-.616-1.366-.996-2.405-1.139v-.013c-.121-.008-.245-.013-.37-.013v.026h-.316v.026c-1.028.162-1.808.571-2.339 1.232-.697.877-1.141 2.008-1.331 3.395v.026h-.027v.211c0 .008 0 .019.003.027.01.047-.008.063-.056.053v.026c-.335.106-.657.217-.964.338-1.144.447-2.283.888-3.421 1.327v.026h-.027c.1.687.22 1.366.357 2.04-.003.008-.008.013-.013.02 0 .009.002.017.008.022l.013.008c.003.005.003.01.005.016.003.018.006.013 0-.016.78-.33 1.554-.653 2.325-.964v.066c-.142 1.09-.695 1.77-1.664 2.034v.026c-.008 0-.016 0-.027.003-.113.026-.238.042-.37.05h-.449c-.034 0-.069-.005-.1-.016-1.038-.309-1.577-1.125-1.617-2.44v-.027-.291-.026-.132c.164-1.414.742-2.41 1.733-2.983.36-.209.742-.238 1.15-.09.216.08.409.18.575.301.069.045.135 0 .198-.14.035-.074.077-.15.125-.227.325-.52.642-1.05.945-1.588h.014c-.373-.465-.888-.79-1.546-.978 0-.008 0-.013-.003-.013-.063-.013-.124-.026-.182-.04-.008 0-.016-.002-.026-.005-.08-.023-.17-.04-.264-.047v-.013c-.07-.008-.14-.014-.212-.014v-.013c-.08-.008-.158-.013-.238-.013h-.211v.026c-.008 0-.018 0-.026.003-1.435.143-2.5.653-3.195 1.532-.697.88-1.146 2.008-1.35 3.38h-.026v.396h-.027V9.199h-.026c0 .204.005.405.013.608h.016v-.005zm12.576-4.57h.238c.57.205.964.588 1.184 1.151.213.552.356 1.181.427 1.886v.502c-.066.944-.515 1.509-1.347 1.691h-.317c-.008 0-.016 0-.026-.002-.883-.217-1.377-.825-1.48-1.82v-.027-.185V8.4 7.98v-.027-.211c.069-1.041.386-1.834.957-2.373.087-.081.208-.126.364-.137zm12.579.924l-.003-.027v-.026-.185-.026-.185-.027-.132c.032-.04.04-.1.03-.185 0-.008-.004-.018-.004-.026V5.31v-.185V5.1v-.29c.032-.04.04-.101.03-.186l-.003-.026v-.026-.053h.528c.91.095 1.432.578 1.572 1.45 0 .003.006.003.014.003V6.446c0 .035-.003.07-.011.103-.275 1.298-.986 2.162-2.13 2.592v-.026-.159-.026-.185c0-.008 0-.019.003-.026.013-.085.003-.146-.029-.185v-.027-.106-.026-.185-.026-.185c0-.008 0-.019.003-.027.013-.084.002-.145-.03-.185v-.026-.159-.026-.29-.027-.608-.026-.185-.026-.053c.032-.04.04-.1.03-.185zM64.385 23.963v-.026-.608-.027-.184c0-.008 0-.019.002-.027.013-.084.003-.145-.029-.185v-.026-.08c0-.007 0-.018.003-.026.013-.084.002-.145-.03-.185v-.026-.08c0-.008 0-.018.003-.026.014-.085.003-.145-.029-.185v-.026-.027c0-.008 0-.018.003-.026.013-.085.003-.146-.03-.185-.07-.457-.166-.888-.282-1.297-.195-.682-.438-1.303-.734-1.868-.544-1.046-1.245-1.926-2.106-2.642-.861-.716-2.013-1.142-3.456-1.274 0-.008 0-.013-.002-.013-.043-.008-.085-.013-.13-.013 0-.008 0-.013-.002-.013-.07-.008-.14-.014-.21-.014h-.607v.027h-.396v.026c-.724.122-1.371.323-1.945.603-1.051.518-1.934 1.21-2.644 2.076-.711.864-1.316 1.831-1.818 2.901-.505 1.078-.872 2.29-1.1 3.64v.027h-.025v.238h-.027V24.756h-.026v.369h-.027v.503h-.026v.845c0 .071.005.14.013.211h.013v.212c0 .071.005.14.014.208 0 0 .005.003.013.003v.053c0 .071.005.14.013.209 0 0 .005.002.013.002v.027c0 .07.005.14.013.208 0 0 .006.003.014.003 0 .14.018.264.047.372.003.008.005.016.005.024l-1.006-1.212c-.708-.864-1.395-1.755-2.056-2.671v-.027c.999-.576 1.847-1.308 2.542-2.195.51-.65.89-1.432 1.144-2.346.082-.3.14-.627.172-.983.031-.04.04-.1.029-.185l-.003-.027v-.026-.159c.008 0 .013 0 .013-.002.021-.135.019-.249-.013-.341v-.026-.053c0-.008 0-.019.003-.027.013-.084.002-.145-.03-.185-.081-1.027-.404-1.817-.961-2.37-.793-.782-1.916-1.233-3.371-1.355 0-.008 0-.013-.003-.013-.069-.008-.14-.013-.209-.013h-.106c0-.008 0-.014-.002-.014-.069-.008-.14-.013-.209-.013h-1.215v.027H43.249v.026h-.37v.027h-.291v.026c-.774.116-1.532.24-2.277.375-1.348.243-2.64.531-3.879.867h-.053v.132c0 .071.006.14.014.211h.013v.079c0 .072.005.14.013.212h.013v.105c0 .072.005.14.013.212h.014v.158c0 .072.005.14.013.212h.013v.158c0 .072.005.14.013.212h.013V17.09c0 .072.006.14.014.211h.013v.317c0 .072.005.14.013.212h.013v.449c0 .071.005.14.014.211h.013V19.1c0 .071.005.14.013.211h.013V20.341c0 .071.005.14.013.211h.014V26.497h-.027v.898h-.026v.026c-.671.14-1.324.288-1.963.447-1.276.317-2.55.626-3.826.927-.008 0-.013-.002-.018-.005-.024-.042-.045-.085-.061-.127v-.026-.027c.013-.084.002-.145-.027-.185V28.4v-.106-.026c.014-.085.003-.145-.026-.185v-.027-.132-.026c.013-.085.003-.145-.027-.185v-.026-.106-.026c.014-.085.003-.146-.026-.185v-.027-.132-.026c.013-.085.003-.146-.026-.185v-.027-.105-.027c.013-.084.002-.145-.027-.185v-.026-.106-.026-.132c1.24-.336 2.492-.664 3.752-.983.349-.087.679-.206.988-.352.024-.01.021-.015-.008-.013 0-.008 0-.016-.003-.026-.277-1.168-.55-2.338-.816-3.514-.188.042-.37.09-.552.14-1.223.349-2.465.681-3.728.996v-.026-.185-.027c.013-.084.003-.145-.026-.185v-.026-.053-.027-.184-.027-.185-.026-.185-.027c.013-.084.002-.145-.027-.184v-.027-.053-.026-.185-.027-.449-.026-.476c.008 0 .016-.002.021-.008.006-.005.008-.01.008-.02 1.295-.283 2.603-.542 3.918-.785.315-.059.613-.111.896-.162.298-.052.584-.113.853-.18l-.013-.012c-.063-.299-.13-.597-.2-.893-.302-1.269-.606-2.537-.91-3.81-.874.182-1.743.37-2.612.563-1.287.285-2.58.57-3.882.856-1.284.28-2.58.554-3.889.826h-.052v.08c0 .071.005.14.013.211h.013v.027c0 .07.005.14.013.21h.013v.027c0 .072.006.14.014.212h.013v.053c0 .07.005.14.013.21h.013v.027c0 .072.005.14.013.212h.014v.026c0 .071.005.14.013.211h.013v.027c0 .071.005.14.013.211h.014v.027c0 .071.005.14.013.211h.013v.053c0 .071.005.14.013.211h.013v.027c0 .071.006.14.014.211h.013v.026c0 .072.005.14.013.212h.013v.026c0 .072.006.14.013.212h.014v.026c0 .071.005.14.013.211h.013v.027c0 .071.005.14.013.211h.013v.053c0 .071.006.14.014.211h.013v.027c0 .071.005.14.013.211h.013v.026c0 .072.006.14.014.212h.013v.026c0 .072.005.14.013.212h.013v.052c0 .072.005.14.013.212h.014v.026c0 .072.005.14.013.212h.013c0 .071.005.14.013.211h.013v.026c0 .072.006.14.014.212h.013v.026c0 .072.005.14.013.212h.013v.052c0 .072.006.14.013.212h.014v.026c0 .072.005.14.013.212h.013v.026c0 .071.005.14.013.211h.014v.027c0 .071.005.14.013.211h.013c-.008.106 0 .193.021.264.003.008.005.016.005.027 0 .071.006.14.014.211h.013v.027c0 .07.005.14.013.21h.013c.003.183.021.35.05.503.003.008.003.018.003.026 0 .072.005.14.013.212h.013c0 .071.006.14.014.211h.013v.026c0 .072.005.14.013.212h.013v.026c0 .072.006.14.014.212h.013v.052c0 .072.005.14.013.212h.013v.026c0 .072.005.14.013.211h.014v.027c0 .071.005.14.013.211h.013v.027c0 .071.005.14.013.211h.013v.027c0 .07.006.14.014.21h.013v.027c0 .072.005.14.013.212h.013v.052c0 .072.006.14.013.212h.014v.026c0 .072.005.14.013.209 0 0 .005.003.013.003v.026c0 .071.005.14.013.209 0 0 .005.002.014.002v.027c0 .071.005.14.013.209 0 0 .005.002.013.002v.027c0 .071.005.14.013.208 0 0 .005.003.013.003v.026c0 .072.006.14.014.21 0 0 .005.002.013.002v.053c0 .07.005.14.013.208 0 0 .005.003.013.003v.026c0 .072.005.14.013.21 0 0 .006.002.014.002v.026c0 .072.005.14.013.209 0 0 .005.003.013.003v.026c0 .071.005.14.013.209 0 0 .006.002.013.002v.027c0 .071.006.14.014.208 0 0 .005.003.013.003v.026c0 .072.005.14.013.21 0 0 .005.002.013.002v.026c0 .072.006.14.013.209 0 0 .006.003.014.003v.026c0 .071.005.14.013.209 0 0 .005.002.013.002v.027c0 .071.005.14.013.209 0 0 .006.002.014.002-.011.108-.003.198.02.267.003.008.006.016.006.024 0 .071.005.14.013.208 0 0 .005.003.013.003v.027c0 .07.006.14.014.208 0 0 .005.003.013.003v.026c0 .072.005.14.013.21 0 0 .005.002.013.002v.026c0 .072.005.14.013.209 0 0 .006.003.014.003v.026c0 .071.005.14.013.209 0 0 .005.002.013.002v.027c0 .071.005.14.013.208 0 0 .006.003.013.003-.01.108-.002.198.022.267.002.008.005.016.005.024 0 .071.005.14.013.208 0 0 .005.003.013.003v.026c0 .072.006.14.014.21 0 0 .005.002.013.002 0 .105.008.2.024.29.002.008.002.019.002.027-.28-.927-.534-1.879-.76-2.856-.302-1.279-.58-2.573-.836-3.884-.259-1.323-.499-2.67-.718-4.037-.222-1.342-.41-2.726-.568-4.143v-.026c.013-.085.002-.145-.027-.185 0-.008 0-.016-.002-.026-.045-.193-.07-.404-.077-.634v-.027c.013-.084.003-.145-.026-.185v-.026c.013-.085.002-.145-.027-.185v-.026-.027c.013-.084.003-.145-.026-.185v-.026-.027c.013-.084.002-.145-.027-.185v-.026c.013-.085.003-.145-.026-.185v-.026-.027c.013-.084.003-.145-.026-.185 0-.008-.003-.016-.008-.02-.027-.035-.035-.09-.022-.165-.663.22-1.347.46-2.055.724-1.144.425-2.299.846-3.466 1.258-.008 0-.014 0-.014.002-.005.027-.029.035-.066.024.275 1.303.553 2.597.83 3.89.259 1.201.52 2.395.782 3.587-.008 0-.016 0-.026.005-.804.323-1.612.64-2.431.946v-.026c-.196-1.38-.386-2.764-.576-4.148-.188-1.39-.37-2.782-.542-4.175-.023-.187-.066-.354-.124-.499-.668.24-1.334.484-2.003.73-1.146.422-2.3.84-3.466 1.252-.008 0-.016.002-.024.005-.01.005-.02.013-.029.021.265 1.31.537 2.616.817 3.91l.835 3.887.84 3.904c.28 1.295.552 2.592.819 3.89.208 1.009.436 1.994.681 2.953 1.084-.494 2.167-.988 3.25-1.484.579-.265 1.152-.537 1.717-.814-.103-.531-.23-1.073-.383-1.623-.348-1.244-.687-2.49-1.017-3.74v-.027-.026c.83-.333 1.649-.674 2.46-1.025.008-.003.016-.006.024-.006.27 1.308.539 2.61.813 3.913.233 1.102.476 2.19.735 3.26l.013-.013c1.091-.486 2.172-.983 3.245-1.487.56-.265 1.107-.492 1.643-.68l.01.022c.003.002.008.005.016.005v.026c0 .072.005.14.013.21 0 0 .006.002.014.002v.026c0 .072.005.14.013.209 0 0 .005.003.013.003.016.214.037.422.066.631 0 0 .005.003.013.003 1.205-.37 2.413-.737 3.623-1.102 1.215-.365 2.454-.703 3.722-1.01.93-.224 1.87-.438 2.827-.636v.502h-.026V33.818h-.027v.237c-.024.111-.005.178.053.199v-.014c1.27-.306 2.531-.615 3.786-.922.37-.092.721-.198 1.052-.32v-.026-.105c0-.008 0-.019.002-.027.013-.084.003-.145-.029-.185v-.026-.132c0-.008 0-.019.003-.027.013-.084.002-.145-.03-.185v-.026-.132-.027-.185c0-.008 0-.018.003-.026.014-.084.003-.145-.029-.185v-.026-.027-.185c0-.008 0-.018.003-.026.013-.085.003-.145-.03-.185v-.026-.053-.027-.185c0-.008 0-.018.004-.026.013-.085.002-.145-.03-.185v-.026-.133-.026-.185-.026-.185c0-.008 0-.019.003-.027.013-.084.003-.145-.029-.185v-.026-.08-.026-.185-.026-.212-.026-.185-.026-.238c0-.008 0-.018.003-.026.013-.085.002-.146-.03-.185v-.027-.105-.027-.185-.026-.423-.026-.317-.027-.343-.027-.317-.026-.29h.027c.634.942 1.27 1.88 1.913 2.808.647.935 1.292 1.87 1.936 2.805.402.582.801 1.168 1.197 1.757.058.027.14-.005.243-.1.827-.75 1.662-1.495 2.502-2.235.264-.235.55-.452.851-.653.528 1.05 1.24 1.913 2.135 2.597.858.656 1.97 1.057 3.334 1.21.077.014.156.022.238.024l.026.003c.04.032.1.04.185.029l.027-.003H56.202c.072 0 .14-.005.209-.013 0 0 .003-.005.003-.013 1.395-.182 2.533-.618 3.418-1.305.888-.692 1.652-1.506 2.294-2.442.636-.93 1.162-1.97 1.58-3.122v-.027c.322-.922.533-1.952.631-3.091l.003-.026c.031-.04.04-.1.029-.185l-.003-.027v-.026-.132c.032-.04.04-.1.03-.185 0-.008-.004-.019-.004-.027v-.026c-.007-.064-.007-.124-.007-.185zm-7.847 5.601H56.14c-.208-.021-.401-.06-.575-.116-1.19-.383-1.852-1.295-1.987-2.737 0-.008 0-.019.002-.027.014-.084.003-.145-.029-.185v-.026c0-.008 0-.019.003-.026.013-.085.003-.146-.03-.185v-.027-.185-.026-.37-.026-.291c.32-1.258.743-2.407 1.272-3.448.425-.843 1.088-1.437 1.99-1.789.07-.026.147-.042.229-.047H57.359c.901.28 1.475.895 1.72 1.844.127.491.217 1.03.262 1.62 0 .07.005.14.013.21h.013v.45c0 .071.006.14.014.211h.013v.846h-.027V25.815h-.026v.211c0 .008 0 .019.003.027.01.047 0 .074-.03.08v.131c-.14.706-.356 1.334-.652 1.881-.415.767-1.123 1.24-2.124 1.42zm-15.35-7.292v-.026-.159-.026-.185-.027-.158c.031-.04.04-.1.029-.185l-.003-.026v-.027-.185-.026-.106c.032-.04.04-.1.03-.185l-.003-.026v-.027-.185-.026-.08c.031-.058.04-.137.029-.237l-.003-.027v-.026-.238-.026-.185-.026-.37c.032-.04.04-.1.03-.185 0-.008-.004-.019-.004-.027v-.026-.264c.032-.1.04-.225.03-.37l-.003-.027c.55-.11 1.13-.187 1.744-.238H43.67c.47.059.761.296.87.714.002.008.002.016.002.026v.265c-.1.417-.283.758-.539 1.017-.787.79-1.725 1.429-2.816 1.915z"/>
    <path fill="#B5B5B5" d="M57.621 25.601h-.026v.211c.031-.04.04-.1.029-.184-.003-.008-.003-.019-.003-.027zM57.647 25.152v-.027-.237c0-.008 0-.019.003-.027.013-.084.003-.145-.029-.185V25.575c.032-.04.04-.1.029-.185l-.003-.027v-.026-.185zM57.597 24.148c.013-.085.003-.145-.029-.185 0 .071.005.14.013.211h.013c0-.008 0-.018.003-.026zM56.723 23.038v.027h.211c0-.008 0-.014-.003-.014-.068-.007-.137-.013-.208-.013z"/>
</svg>
