<svg xmlns="http://www.w3.org/2000/svg" width="99" height="25" fill="none" viewBox="0 0 99 25">
    <path fill="#B5B5B5" d="M90.168 10.013h-.503v-1.44h-.48V8.14h1.484v.433h-.507l.006 1.44zM93.276 10.013h-.494l.037-1.44h-.014l-.467 1.44h-.432l-.48-1.44h-.017l.043 1.44h-.495V8.14h.793l.36 1.177h.019l.337-1.177h.813l-.003 1.874zM31.597 15.973H29.46v-3.13h-2.772v3.13h-2.14v-7.97h2.14v3.01h2.772v-3.01h2.138v7.97zM35.004 14.6l-.383 1.373H32.4l2.389-7.97h3.24l2.425 7.97H38.28l-.42-1.374h-2.855zm1.434-5.008l-.98 3.465h1.983l-1.003-3.465zM41.253 8.003h4.337c.605-.023 1.204.12 1.733.411.24.193.425.445.538.731.113.286.15.597.108.901.008.408-.055.814-.185 1.2-.12.34-.48.556-1.059.652v.06c.21-.002.416.044.606.133.19.088.357.219.489.38.208.372.305.795.28 1.22.04.322.013.649-.079.96-.092.312-.245.601-.453.85-.574.376-1.26.543-1.942.472h-4.373v-7.97zm3.5 3.19c.032.008.065.012.097.013h.084c.22-.003.44-.037.65-.102.18-.06.269-.254.269-.58.022-.209-.03-.418-.149-.592-.164-.128-.372-.186-.58-.16h-1.732v1.422h1.362zm.06 3.023c.28.015.561-.015.831-.088.22-.07.33-.298.33-.688 0-.374-.086-.596-.257-.664-.245-.078-.502-.112-.76-.1h-1.56v1.54h1.417zM50.945 14.6l-.383 1.373H48.34l2.389-7.97h3.24l2.426 7.97H54.22l-.418-1.374h-2.857zm1.434-5.008l-.98 3.465h1.983l-1.003-3.465zM64.914 15.973h-3.621l-2.247-6.13h-.096l.096 6.13h-2.091v-7.97h3.6l2.246 6.059h.084l-.084-6.06h2.116l-.003 7.971zM68.103 11.194h3.395v1.478h-3.395v1.541h3.706v1.757h-5.844V8h5.772v1.756h-3.634v1.438zM72.812 8.003h4.015c.766-.06 1.53.122 2.187.52.258.28.45.616.564.98.114.365.146.75.094 1.129.015.491-.052.982-.197 1.452-.132.37-.569.634-1.31.794v.072c.204-.002.405.037.592.113.188.077.358.191.501.335.254.32.38.722.353 1.129v1.446h-2.174V14.91c.013-.266-.051-.53-.186-.76-.085-.103-.195-.183-.32-.232-.123-.049-.258-.066-.39-.048h-1.59v2.103h-2.139v-7.97zm3.84 4.039c.39.009.626-.079.71-.263.094-.252.135-.52.12-.788.017-.294-.028-.587-.131-.862-.088-.182-.36-.275-.813-.275l-1.59-.01v2.198h1.704zM80.508 11.57c0-.164 0-.325.012-.48.012-.157.02-.321.036-.48.017-.16.036-.326.06-.48.027-.373.154-.731.368-1.037.215-.305.509-.546.85-.698.682-.267 1.407-.408 2.14-.417h.24c1.014-.099 2.033.148 2.892.7.327.394.569.852.71 1.344.143.493.181 1.01.114 1.517.053 1.14-.11 2.28-.48 3.36-.32.765-1.378 1.148-3.173 1.148-.128 0-.26 0-.395-.007-.135-.006-.27-.01-.405-.018-.588-.02-1.166-.145-1.709-.37-.273-.122-.514-.307-.704-.54-.189-.232-.32-.506-.384-.798-.08-.269-.127-.546-.144-.825-.016-.28-.023-.558-.023-.84V11.58l-.005-.01zm2.187.436v.48c-.02.438.04.875.18 1.291.119.294.51.441 1.17.442.733 0 1.196-.117 1.392-.352.24-.414.343-.893.293-1.369v-.287c0-.095 0-.194.013-.299v-.573c.028-.404-.052-.808-.229-1.171-.151-.247-.513-.37-1.087-.37-.828 0-1.32.111-1.476.334-.218.587-.305 1.216-.256 1.84v.036-.002z"/>
    <path fill="#B5B5B5" fill-rule="evenodd" d="M12.657 3.701c.106 0 .207-.043.282-.118.075-.074.117-.176.117-.282V2.15c0-.105-.042-.207-.117-.281-.075-.075-.176-.117-.282-.117-.105 0-.207.042-.282.117-.074.074-.116.176-.116.281v1.152c0 .106.042.208.116.282.075.075.177.118.282.118zM11.064 4.752c.105 0 .207-.042.282-.117.074-.074.116-.176.116-.281V3.202c0-.053-.01-.104-.03-.153-.02-.048-.05-.092-.086-.13-.037-.036-.08-.065-.13-.085-.047-.02-.1-.03-.152-.03-.053 0-.104.01-.152.03-.049.02-.092.049-.13.086-.036.037-.066.08-.086.13-.02.048-.03.1-.03.152v1.152c0 .105.042.207.117.281.074.075.175.117.28.117zM11.064 2.094c.105 0 .207-.042.282-.117.074-.074.116-.176.116-.281v.008c0-.052-.01-.104-.03-.152-.02-.049-.05-.093-.086-.13-.037-.037-.08-.066-.13-.086-.047-.02-.1-.03-.152-.03-.053 0-.104.01-.152.03-.049.02-.092.05-.13.086-.036.037-.066.081-.086.13-.02.048-.03.1-.03.152v-.008c0 .105.042.207.117.281.074.075.175.117.28.117zM14.251 5.063c.106 0 .207-.042.282-.117.075-.075.116-.176.116-.282v.01c0-.106-.041-.207-.116-.282-.075-.075-.176-.117-.282-.117-.106 0-.207.042-.282.117-.075.075-.117.176-.117.282v-.01c0 .053.01.104.03.153.02.048.05.092.087.13.037.036.08.066.129.086.048.02.1.03.153.03z" clip-rule="evenodd"/>
    <path fill="#B5B5B5" fill-rule="evenodd" d="M17.438 8.017c-.106 0-.206.042-.281.117-.075.075-.117.176-.117.282v.201c-.008.103-.055.198-.132.266-.076.069-.176.105-.279.102-.102-.003-.2-.046-.271-.12-.072-.073-.112-.171-.114-.274v-.995c0-.106-.041-.207-.116-.282-.075-.074-.176-.116-.282-.116-.106 0-.207.042-.282.116-.075.075-.116.176-.116.282v.023c0 .106-.042.207-.117.282-.075.074-.176.116-.282.116-.105 0-.207-.042-.282-.116-.074-.075-.116-.176-.116-.282V5.952c.003-.054-.006-.108-.024-.159-.019-.05-.047-.097-.085-.137-.037-.039-.082-.07-.131-.092-.05-.021-.104-.032-.158-.032-.054 0-.108.011-.158.032-.05.022-.094.053-.132.092-.037.04-.065.086-.084.137-.018.051-.027.105-.024.16v.635c-.003.105-.046.205-.12.279-.074.074-.175.117-.28.12-.105 0-.207-.042-.281-.117-.075-.075-.117-.176-.117-.282V4.795c0-.105-.042-.207-.117-.281-.074-.075-.176-.117-.281-.117-.106 0-.208.042-.282.117-.075.074-.117.176-.117.281v1.56c0 .053-.01.104-.03.153-.02.048-.05.092-.086.13-.037.036-.081.065-.13.085-.048.02-.1.03-.152.03-.053 0-.104-.01-.153-.03-.048-.02-.091-.049-.128-.086-.037-.037-.067-.08-.087-.13-.02-.048-.03-.1-.03-.152v-.559c0-.106-.043-.207-.117-.282-.075-.074-.176-.116-.282-.116-.105 0-.207.042-.281.116-.075.075-.117.176-.117.282v1.2c0 .052-.01.104-.03.153-.02.048-.05.092-.087.129-.037.037-.08.066-.13.086-.047.02-.1.03-.151.03-.053 0-.105-.01-.153-.03-.049-.02-.092-.05-.13-.086-.036-.037-.066-.081-.086-.13-.02-.048-.03-.1-.03-.152V5.331c0-.106-.042-.207-.116-.282-.075-.075-.177-.117-.282-.117-.106 0-.207.042-.282.117-.075.075-.117.176-.117.282v2.541c0 .106-.042.207-.116.282-.075.075-.177.117-.282.117-.106 0-.207-.042-.282-.117-.075-.075-.117-.176-.117-.282V7.2c0-.106-.042-.207-.116-.282-.075-.074-.176-.116-.282-.116-.106 0-.207.042-.282.116-.075.075-.117.176-.117.282v1.876c0 .105-.041.207-.116.281-.075.075-.176.117-.282.117-.106 0-.207-.042-.282-.117-.075-.074-.116-.176-.116-.281v-.616c0-.106-.042-.207-.117-.282-.075-.074-.176-.116-.282-.116-.105 0-.206.042-.281.116-.075.075-.117.176-.117.282v7.518l5.977 3.451 5.979-3.451V8.412c0-.052-.012-.104-.032-.152-.021-.049-.05-.092-.088-.129-.038-.037-.082-.066-.13-.085-.05-.02-.101-.03-.154-.029zm-2.76 6.77H12.8v-1.429h-1.876v1.43H9.046v-4.476h1.878v1.505H12.8v-1.505h1.878v4.476z" clip-rule="evenodd"/>
</svg>
