<svg xmlns="http://www.w3.org/2000/svg" width="99" height="25" fill="none" viewBox="0 0 99 25">
    <path fill="#fff" d="M90.1 10.017h-.507v-1.43h-.46V8.17h1.474v.416H90.1v1.43zM93.233 10.017h-.507l.046-1.43-.46 1.43h-.415l-.461-1.43.046 1.43h-.507V8.125h.783l.369 1.2.322-1.2h.83v1.892h-.046zM31.638 15.968H29.52v-3.137h-2.764v3.137h-2.12V7.987h2.12v2.998h2.764V7.987h2.12v7.981zM35.047 14.584l-.368 1.384h-2.212l2.396-7.981h3.225l2.441 7.981h-2.165l-.414-1.384h-2.903zm1.428-4.982l-.967 3.46h1.98l-1.013-3.46zM41.267 7.987h4.33c.737 0 1.29.138 1.75.415.415.277.646.83.646 1.615 0 .461-.046.876-.185 1.2-.138.322-.46.553-1.06.645v.046c.554.046.922.23 1.106.508.185.277.277.692.277 1.2 0 .876-.184 1.476-.553 1.798-.369.323-1.014.462-1.935.462h-4.376v-7.89zm3.5 3.183h.185c.276 0 .46-.046.645-.092.184-.046.276-.23.276-.6 0-.277-.046-.461-.138-.6-.092-.092-.276-.138-.599-.138h-1.75v1.43h1.382zm.093 3.045c.322 0 .599 0 .83-.092.23-.046.322-.277.322-.692 0-.37-.092-.6-.277-.646-.184-.046-.414-.092-.737-.092h-1.566v1.522h1.428zM50.941 14.584l-.368 1.384H48.36l2.396-7.981h3.225l2.441 7.981h-2.165l-.415-1.384h-2.902zm1.428-4.982l-.967 3.46h1.98l-1.013-3.46zM64.9 15.968h-3.594L59.05 9.832h-.092l.092 6.136h-2.073V7.987h3.593l2.258 6.043h.092l-.092-6.043h2.119v7.981H64.9zM68.079 11.17h3.409v1.476h-3.41v1.569h3.686v1.753h-5.85V7.987h5.758V9.74h-3.64v1.43h.047zM72.778 7.987h4.008c1.013 0 1.75.184 2.165.507.415.323.645 1.061.645 2.123 0 .6-.046 1.06-.184 1.43-.139.369-.553.646-1.29.784v.092c.507.046.875.185 1.106.461.23.277.368.646.368 1.108v1.43h-2.211V14.86c0-.323-.046-.554-.185-.738-.138-.185-.368-.277-.69-.277h-1.567v2.122h-2.165V7.987zm3.823 4.06c.37 0 .645-.093.692-.277.092-.185.138-.461.138-.784 0-.37-.046-.693-.138-.877-.093-.185-.369-.277-.83-.277h-1.566v2.215h1.704zM80.471 11.54v-.462c0-.139 0-.323.046-.461 0-.185.047-.324.047-.462.138-.876.552-1.476 1.197-1.753.645-.277 1.382-.415 2.12-.415h.276c1.382 0 2.35.23 2.902.692.553.461.83 1.43.83 2.86 0 1.476-.139 2.584-.461 3.368-.323.784-1.382 1.153-3.179 1.153h-.829c-.6-.046-1.152-.138-1.705-.369-.553-.23-.875-.646-1.105-1.338-.093-.277-.139-.553-.139-.83 0-.277-.046-.554-.046-.83v-.6c.046-.23.046-.37.046-.554zm2.166.46v.462c0 .553.046 1.015.184 1.292.138.276.507.46 1.152.46.737 0 1.197-.138 1.382-.368.184-.23.276-.692.276-1.384v-.277-.277-.277-.276c0-.554-.092-.923-.23-1.154-.138-.23-.507-.369-1.106-.369-.83 0-1.336.092-1.474.323-.092.185-.138.784-.184 1.846 0-.047 0-.047 0 0z"/>
    <path fill="url(#prefix__paint0_linear)" fill-rule="evenodd" d="M12.75 3.697c.23 0 .415-.185.415-.416V2.128c0-.23-.185-.415-.415-.415-.23 0-.415.184-.415.415v1.153c0 .231.185.416.415.416z" clip-rule="evenodd"/>
    <path fill="url(#prefix__paint1_linear)" fill-rule="evenodd" d="M11.138 4.758c.23 0 .414-.185.414-.416V3.19c0-.23-.184-.415-.414-.415-.23 0-.415.184-.415.415v1.153c.046.231.23.416.415.416z" clip-rule="evenodd"/>
    <path fill="url(#prefix__paint2_linear)" fill-rule="evenodd" d="M11.138 2.082c.23 0 .414-.185.414-.415 0-.231-.184-.416-.414-.416-.23 0-.415.185-.415.416.046.23.23.415.415.415z" clip-rule="evenodd"/>
    <path fill="url(#prefix__paint3_linear)" fill-rule="evenodd" d="M14.316 5.035c.23 0 .415-.185.415-.416 0-.23-.184-.415-.415-.415-.23 0-.414.185-.414.415.046.277.23.416.415.416z" clip-rule="evenodd"/>
    <path fill="url(#prefix__paint4_linear)" fill-rule="evenodd" d="M17.495 7.987c-.23 0-.415.185-.415.415V8.633c0 .23-.184.37-.414.37-.23 0-.415-.185-.415-.416V7.618c0-.23-.184-.415-.414-.415-.23 0-.415.184-.415.415 0 .23-.184.415-.415.415-.23 0-.414-.184-.414-.415V5.957c0-.23-.184-.415-.415-.415-.23 0-.415.185-.415.415v.646c0 .23-.184.415-.414.415-.23 0-.415-.184-.415-.415V4.804c0-.23-.184-.415-.414-.415-.23 0-.415.184-.415.415v1.568c0 .231-.184.416-.415.416-.23 0-.414-.185-.414-.416v-.599c0-.231-.184-.416-.415-.416-.23 0-.414.185-.414.416V6.972c0 .23-.185.415-.415.415-.23 0-.415-.184-.415-.415v-1.66c0-.231-.184-.416-.414-.416-.23 0-.415.185-.415.415V7.85c0 .23-.184.415-.415.415-.23 0-.414-.185-.414-.415v-.692c0-.23-.184-.415-.415-.415-.23 0-.414.184-.414.415v1.891c0 .23-.185.415-.415.415-.23 0-.415-.184-.415-.415V8.448c0-.23-.184-.415-.414-.415.276 0 .092.185.092.415v7.52l5.989 3.46 5.989-3.46V8.402c-.046-.23-.23-.415-.46-.415zm-2.718 6.782h-1.889v-1.43H11v1.43H9.111v-4.475h1.888v1.522h1.89v-1.522h1.888v4.475z" clip-rule="evenodd"/>
    <defs>
        <linearGradient id="prefix__paint0_linear" x1="6.158" x2="17.948" y1="2.718" y2="2.718" gradientUnits="userSpaceOnUse">
            <stop stop-color="#ED334D"/>
            <stop offset="1" stop-color="#F79826"/>
        </linearGradient>
        <linearGradient id="prefix__paint1_linear" x1="6.586" x2="18.273" y1="3.775" y2="3.775" gradientUnits="userSpaceOnUse">
            <stop stop-color="#ED334D"/>
            <stop offset="1" stop-color="#F79826"/>
        </linearGradient>
        <linearGradient id="prefix__paint2_linear" x1="6.322" x2="18.056" y1="1.692" y2="1.692" gradientUnits="userSpaceOnUse">
            <stop stop-color="#ED334D"/>
            <stop offset="1" stop-color="#F79826"/>
        </linearGradient>
        <linearGradient id="prefix__paint3_linear" x1="6.26" x2="17.887" y1="4.66" y2="4.66" gradientUnits="userSpaceOnUse">
            <stop stop-color="#ED334D"/>
            <stop offset="1" stop-color="#F79826"/>
        </linearGradient>
        <linearGradient id="prefix__paint4_linear" x1="5.978" x2="17.913" y1="11.902" y2="11.902" gradientUnits="userSpaceOnUse">
            <stop stop-color="#ED334D"/>
            <stop offset="1" stop-color="#F79826"/>
        </linearGradient>
    </defs>
</svg>
