<svg xmlns="http://www.w3.org/2000/svg" width="130" height="40" fill="none" viewBox="0 0 130 40">
    <path fill="#B5B5B5" d="M50.943 21.156l-10.716-.398c.397.854.896 1.617 1.51 2.277 1.552 1.667 3.462 2.502 5.734 2.502.966 0 2.057-.245 3.275-.736l.197-3.645zm-27.566-1.024l-1.212 5.05h5.67l.446-2.58h3.696l.408 2.58h5.67l-.962-4.541-13.716-.51zm5.621-15.764l-3.667 15.274 13.716.51-3.34-15.784h-6.709zm1.973 13.388l.552-3.186.382-2.46c.009-.045.025-.172.053-.383.025-.21.07-.588.132-1.132.034-.271.068-.521.098-.75.03-.229.054-.435.073-.618l.171 1.921c.044.394.079.722.106.98.026.26.049.463.065.613.167 1.334.26 2.097.276 2.29.026.229.044.347.053.356l.355 2.37H30.97v-.001zm21.925 2.912l.12-2.227c-.956.877-1.906 1.317-2.853 1.317-.553 0-1.044-.119-1.473-.357-.43-.236-.791-.578-1.085-1.027-.294-.447-.52-.996-.678-1.646-.157-.65-.236-1.387-.236-2.21 0-1.703.315-3.036.947-4.002.632-.956 1.508-1.435 2.63-1.435.86 0 1.698.408 2.513 1.225V4.5c-.923-.333-1.826-.5-2.712-.5-2.728 0-4.906.965-6.536 2.896-1.631 1.94-2.446 4.512-2.446 7.714 0 2.212.368 4.096 1.094 5.66l10.715.398zm19.759-6.96c.262.47.604.926 1.026 1.368.421.444.93.888 1.526 1.337l.894.697c.648.518.973 1.049.973 1.593 0 .377-.149.69-.447.94-.299.25-.684.377-1.158.377-1.253 0-2.42-.737-3.5-2.211v3.569l9.751.362c.562-1.035.852-2.23.852-3.589 0-1.176-.255-2.202-.763-3.08-.5-.877-1.328-1.733-2.485-2.566l-.868-.644c-.746-.535-1.119-1.075-1.119-1.62 0-.334.141-.619.422-.857.271-.245.618-.368 1.04-.368.55 0 1.113.2 1.683.599.57.4 1.079.945 1.526 1.64V5.04C80.682 4.347 79.367 4 78.06 4c-1.464 0-2.714.44-3.749 1.317-.377.308-.71.66-1 1.06-.29.4-.544.839-.762 1.322-.44 1.035-.658 2.028-.658 2.975 0 .553.06 1.079.183 1.58.123.5.317.984.58 1.454zm-60.17 6.02L7 19.522v5.658h5.484v-5.454zm1.953-3.21h2.617v2.817l5.484.204V4.37h-5.484v7.187h-2.617V4.368H8.953v14.667l5.485.204v-2.722zm.663 8.663h5.485v-5.154l-5.485-.204v5.358zM64.196 4.368l-3.236 8.714.144-8.714H55.62v16.4l5.427.202-.087-5.65 2.228 5.73 5.731.214-3.316-7.088 4.382-9.806h-5.79v-.002zm23.978 0l-4.19 17.455 14.709.547-3.811-18.002h-6.708zm1.973 13.388l.554-3.186.382-2.46c.009-.045.025-.172.052-.383.026-.21.07-.588.132-1.132l.099-.75c.03-.229.054-.435.071-.618l.171 1.921c.044.394.08.722.106.98.026.26.049.463.066.613.166 1.334.259 2.097.275 2.29.026.229.044.347.053.356l.355 2.37h-2.316v-.001zm11.78 7.425h5.34l.272-1.921-6.089-.226.477 2.147zm-48.26-3.923v3.923h5.485l-.057-3.722-5.427-.201zm63.287-16.89l-1 6.306c-.141.877-.268 1.856-.382 2.935-.114 1.08-.22 2.318-.315 3.712-.325-3.107-.706-5.797-1.144-8.07l-.92-4.883h-4.722l-1.026 5.804c-.29 1.676-.526 3.445-.711 5.306l-.171 1.593-.184-1.857c-.132-1.271-.368-3.023-.71-5.252l-.895-5.594h-5.419l4.046 18.176 6.09.226.768-5.45c.088-.613.162-1.197.224-1.75.061-.553.114-1.079.158-1.579.088-.983.153-1.655.197-2.014.016.176.047.43.092.764.044.333.097.75.158 1.25.123 1.01.306 2.202.551 3.58l.943 5.314 5.93.22 3.795-18.737h-5.353zm-.395 19.227l-5.929-.22.32 1.806h5.287l.322-1.586zm-25.398-.944l.4 2.53h5.67l-.491-2.323-5.579-.207zm-21.145 2.03c1.473.57 2.854.856 4.144.856 1.867 0 3.41-.65 4.63-1.948.39-.417.711-.873.977-1.361l-9.75-.363v2.816zm-8.782-3.143l1.416 3.643h5.92l-1.606-3.43-5.73-.213zm20.107 3.643h5.67l.447-2.579-5.427-.29-.69 2.87zm-68.934 8.146h1.477c-.03.201-.089.374-.174.514-.086.14-.194.256-.326.343-.131.09-.28.154-.445.193-.165.04-.337.06-.514.06-.3 0-.564-.05-.79-.152-.225-.102-.416-.244-.568-.428-.153-.183-.268-.4-.344-.651-.077-.252-.115-.523-.115-.817 0-.325.044-.619.133-.882.09-.262.211-.488.367-.676.156-.187.344-.33.566-.432.22-.1.465-.152.733-.152.324 0 .614.082.867.249.254.165.46.438.62.817l1.707-.708c-.318-.656-.75-1.14-1.294-1.452-.544-.312-1.177-.468-1.9-.468-.556 0-1.062.09-1.515.267-.454.177-.84.425-1.161.744-.322.318-.569.703-.744 1.153-.175.45-.263.944-.263 1.484 0 .545.09 1.042.267 1.492.177.45.426.837.744 1.158.319.321.699.572 1.143.749.444.177.935.267 1.473.267.39 0 .765-.049 1.12-.148.354-.098.68-.239.977-.427.297-.186.555-.42.776-.699.22-.278.394-.598.523-.959.092-.257.153-.536.183-.836.03-.3.046-.634.046-1.002h-3.569v1.399zm19.645-4.446l-2.634 6.926h1.918l.414-1.203h2.57l.414 1.203h1.919l-2.636-6.927h-1.965zm.174 4.353l.808-2.306.807 2.306h-1.615zm23.84-4.354l-1.378 3.694L53.3 28.88h-1.78l-1.175 6.926h1.79l.597-3.987 1.552 3.987H55l1.634-3.987.597 3.987h1.79l-1.175-6.927h-1.782zm17.313 6.926h1.799v-6.927h-1.799v6.927zm21.59-2.691l-3.324-4.236h-1.8v6.927h1.8V31.57l3.323 4.236h1.79v-6.927h-1.79v4.236zm19.957.212h1.478c-.03.201-.089.374-.174.514-.087.14-.194.256-.326.343-.132.09-.281.154-.446.193-.165.04-.336.06-.513.06-.3 0-.564-.05-.79-.152-.226-.102-.417-.244-.57-.428-.153-.183-.268-.4-.344-.651-.077-.252-.115-.523-.115-.817 0-.325.044-.619.133-.882.088-.262.211-.488.367-.676.156-.187.344-.33.565-.432.22-.1.466-.152.735-.152.325 0 .614.082.867.249.255.165.461.438.62.817l1.708-.708c-.318-.656-.75-1.14-1.294-1.452-.544-.312-1.178-.468-1.901-.468-.557 0-1.062.09-1.515.267-.453.177-.84.425-1.161.744-.321.318-.57.703-.744 1.153-.174.45-.262.944-.262 1.484 0 .545.089 1.042.267 1.492.177.45.425.837.742 1.158.318.321.7.572 1.143.749.444.177.935.267 1.473.267.391 0 .765-.049 1.12-.148.354-.098.68-.239.977-.427.297-.186.556-.42.776-.699.22-.278.396-.598.523-.959.092-.257.153-.536.183-.836.031-.3.046-.634.046-1.002h-3.571v1.399h.003z"/>
</svg>
