<svg xmlns="http://www.w3.org/2000/svg" width="63" height="25" fill="none" viewBox="0 0 63 25">
    <path fill="#B5B5B5" fill-rule="evenodd" d="M56.568 4.565h-2.134v9.422H53.32V4.561h-2.134v-.96h5.382v.964zm-6.528 0h-3.622v3.542H49.1v.948h-2.682v3.995h3.798v.947h-4.914V3.607h4.744l-.006.958zm-8.27.36c-.416-.281-.917-.408-1.417-.36h-1.125V8.07h.638c.62.054 1.238-.096 1.764-.427.204-.184.362-.413.459-.67.097-.257.13-.533.098-.806.026-.226.002-.454-.07-.67-.072-.215-.19-.411-.347-.576v.003zm-.898-1.32c.333-.014.664.042.974.164.31.122.591.307.826.544.362.457.58 1.012.629 1.593.048.582-.077 1.165-.359 1.675-.28.438-.715.754-1.217.886v.03c.562.13 1.054.469 1.376.947.304.5.456 1.079.439 1.664.03.398-.028.798-.17 1.171-.141.373-.363.711-.649.99-.726.535-1.62.79-2.52.72h-2.094V3.606l2.765-.002zm-.519 5.412h-1.125v4.024h1.125c.552.041 1.1-.126 1.535-.468.19-.19.335-.42.427-.674.09-.253.126-.523.101-.79.048-.563-.124-1.122-.48-1.56-.212-.194-.463-.34-.735-.432-.273-.091-.562-.124-.848-.098v-.002zM7.43 4.577c-.17.177-.266.414-.266.66 0 .246.095.482.266.66.174.157.402.243.637.24.238.001.469-.084.648-.24.09-.085.16-.187.206-.3.046-.114.068-.237.063-.36.007-.123-.013-.247-.06-.363-.046-.115-.118-.219-.209-.303-.179-.157-.41-.243-.648-.24-.237 0-.465.09-.637.253v-.007zm.637-1.107c.453-.004.891.163 1.226.468.156.136.28.302.368.49.118.256.18.535.18.817 0 .282-.062.56-.18.816-.092.187-.22.353-.378.488-.336.296-.768.459-1.216.459-.447-.003-.879-.165-1.217-.459-.151-.138-.277-.304-.368-.488-.13-.253-.194-.533-.188-.817-.004-.287.06-.57.188-.827.092-.186.22-.352.378-.488.335-.291.764-.452 1.207-.452V3.47zm.518 4.345v6.189h-1.08V7.815h.01c.175.054.356.081.538.08.18.002.36-.022.532-.072v-.008zM36.897 4.565h-2.119v9.422h-1.126V4.561H31.53v-.96H36.9l-.005.964zm-6.738 0h-3.338v3.542h2.501v.948h-2.5v4.932h-1.117V3.607h4.454v.958zm2.76 13.02c.021.01.04.023.058.037.013.012.023.027.029.043.004.01.007.019.009.029l-1.001 1.537v1.051c.002.018-.001.036-.007.052-.006.017-.015.032-.028.044-.012.013-.028.023-.044.029-.017.006-.035.008-.052.006h-.043c-.082 0-.12-.044-.12-.13V19.23l-1.002-1.537c.001-.01.004-.02.008-.029.005-.017.015-.031.027-.043.017-.016.037-.028.058-.036.028-.015.058-.023.089-.022.031.002.06.012.086.03.026.018.046.043.058.071l.826 1.291.82-1.284c.049-.072.099-.108.153-.108.028 0 .056.007.08.023l-.003-.001zm4.069.848c.008.121-.012.243-.059.355-.046.112-.118.211-.21.29-.232.167-.514.246-.798.225h-.558v.98c.001.033-.01.066-.03.093-.013.013-.029.022-.046.029-.018.006-.036.01-.055.008h-.036c-.017.002-.035 0-.051-.007-.017-.006-.032-.015-.044-.028-.013-.012-.022-.027-.028-.044-.006-.017-.008-.034-.006-.052v-2.53c-.001-.023.002-.045.01-.066.01-.02.022-.04.039-.055.015-.016.033-.03.054-.038.02-.008.043-.012.065-.01h.72c.272-.018.541.059.763.216.091.078.163.175.21.285.048.11.07.23.063.35h-.003zm-1.625-.587v1.2h.588c.196.015.39-.04.55-.152.064-.054.114-.122.147-.199.032-.076.046-.16.041-.243 0-.4-.244-.6-.732-.6l-.594-.006zm-6.93-.282c.087 0 .132.046.132.138v2.42h1.355c.092 0 .137.041.137.12v.03c0 .082-.045.12-.137.12h-1.486c-.023.003-.045-.001-.066-.01-.02-.008-.039-.022-.054-.039-.017-.014-.03-.033-.04-.054-.009-.02-.012-.043-.011-.066v-2.516c0-.092.044-.138.131-.138l.04-.005zm-1.113.87c.009.12-.01.242-.058.354-.046.112-.119.211-.21.29-.231.167-.514.246-.797.225h-.56v.98c.003.033-.007.066-.027.093-.013.013-.029.023-.046.03-.017.006-.036.008-.055.007h-.037c-.018.002-.035 0-.052-.006-.016-.006-.032-.016-.044-.029-.013-.012-.022-.027-.028-.044-.006-.016-.008-.034-.007-.052v-2.53c.002-.044.02-.086.052-.116.031-.031.073-.049.116-.05h.72c.271-.018.54.059.76.217.091.077.164.174.212.283.048.109.07.228.065.347h-.004zm-.297.015c0-.4-.244-.6-.73-.6h-.6v1.2h.587c.196.014.39-.04.55-.153.066-.053.118-.122.152-.2.034-.078.05-.163.044-.247h-.003zm16.5-.827c.016-.016.036-.029.057-.036.027-.015.057-.022.087-.022.031.002.061.012.087.03.026.018.047.042.06.071l.825 1.291.818-1.284c.014-.029.036-.054.063-.073.026-.019.057-.03.09-.035.028-.002.056.006.08.022.02.01.04.022.058.036.013.012.023.027.03.043l.005.029-1 1.537v1.051c.001.018 0 .036-.007.052-.006.017-.016.032-.028.044-.012.013-.027.023-.044.029-.017.006-.035.008-.052.006h-.043c-.082 0-.12-.044-.12-.13V19.23l-1-1.537c.002-.028.015-.054.036-.072h-.002zm-5.455-.058c.087 0 .13.046.13.138v2.42h1.356c.091 0 .137.04.137.12v.03c0 .08-.046.12-.137.12h-1.486c-.023.003-.046-.001-.066-.01-.021-.008-.04-.022-.054-.039-.017-.014-.031-.033-.04-.054-.01-.02-.013-.043-.012-.066v-2.516c0-.092.044-.138.132-.138l.04-.005zm3.784.101l1.03 2.66c.01.015 0 .035-.043.058-.035.018-.073.029-.112.03-.039.001-.078-.006-.113-.021-.037-.029-.065-.066-.08-.11l-.304-.805H41.02l-.306.805c-.016.044-.044.081-.08.11-.027.013-.056.02-.086.021-.042.001-.084-.009-.12-.03-.04-.023-.054-.043-.046-.057l1.031-2.66c.014-.033.036-.06.065-.08.05-.023.104-.034.158-.03.05-.005.102.006.146.03.035.016.062.045.077.08h-.006zm-.224.225l-.508 1.327h1.008l-.5-1.327zM21.925 4.774c-.12-.118-.261-.21-.417-.272-.156-.061-.322-.092-.49-.088-.17-.006-.338.023-.496.085-.158.062-.301.155-.422.275-.338.37-.565.827-.656 1.32-.184.888-.265 1.794-.24 2.7-.026.907.057 1.814.248 2.7.087.497.311.959.647 1.335.12.118.264.21.422.27.158.06.327.088.496.08.169.007.336-.021.494-.081.158-.06.301-.152.422-.269.336-.376.56-.838.647-1.334.32-1.786.32-3.615 0-5.4-.09-.493-.315-.95-.651-1.321h-.004zm1.654.927c.491 2.037.491 4.161 0 6.198-.17.659-.526 1.254-1.026 1.714-.443.335-.984.517-1.54.517-.555 0-1.096-.182-1.54-.517-.5-.46-.857-1.055-1.026-1.714-.492-2.037-.492-4.161 0-6.198.166-.658.523-1.251 1.027-1.706.44-.342.982-.527 1.54-.527.557 0 1.098.185 1.539.527.505.456.863 1.052 1.03 1.712l-.004-.006zm-7.096 5.788c.037.357-.007.718-.128 1.057-.12.338-.316.645-.571.898-.255.254-.564.446-.903.565-.34.118-.7.16-1.058.12-.491.014-.976-.114-1.396-.369-.39-.25-.7-.607-.896-1.027-.223-.48-.338-1.004-.34-1.534h1.037c-.017.522.14 1.034.448 1.455.157.178.353.318.572.41.22.091.457.132.694.12.207.01.413-.024.606-.1.192-.075.367-.191.51-.34.294-.355.443-.807.418-1.266-.004-.437-.155-.86-.428-1.2-.3-.36-.649-.675-1.037-.937-.411-.279-.824-.575-1.236-.888-.404-.299-.753-.664-1.034-1.08-.285-.446-.434-.966-.43-1.496-.01-.323.046-.646.165-.948.118-.301.296-.576.523-.807.495-.448 1.146-.684 1.813-.657.334-.013.667.044.977.168.31.124.59.312.823.553.492.586.76 1.328.758 2.094h-1.037c-.017-.477-.165-.939-.428-1.336-.136-.178-.313-.32-.516-.413-.203-.094-.426-.137-.65-.125-.19-.007-.38.024-.557.091-.178.067-.341.168-.48.298-.127.129-.226.281-.292.45-.067.167-.1.346-.095.527.002.429.153.844.427 1.175.305.34.653.639 1.037.886.41.272.823.562 1.237.868.41.311.76.692 1.036 1.126.291.505.442 1.079.435 1.662h-.004zm7.518 6.075h.058c.028 0 .056.004.082.014.026.01.05.024.07.044.02.016.034.036.044.058.01.023.015.047.014.072v2.53c0 .087-.041.131-.12.131h-.036c-.083 0-.12-.044-.12-.13v-2.38l-.732 1.611c-.024.05-.056.096-.094.137-.05.032-.108.047-.167.043-.058.004-.117-.011-.167-.043-.037-.04-.066-.086-.086-.137l-.74-1.61v2.378c0 .087-.038.131-.12.131h-.05c-.077 0-.12-.044-.12-.13V17.75c0-.024.005-.049.015-.071.01-.023.025-.042.044-.058.021-.02.046-.035.074-.045.027-.01.056-.014.085-.013H22c.03-.003.06.001.09.011.029.01.055.026.078.047.038.05.07.107.092.167l.74 1.639.74-1.64c.023-.06.054-.116.094-.166.023-.022.05-.038.08-.048.029-.01.06-.013.09-.01h-.003zm-5.372.022c.104.023.205.064.296.12.069.04.13.093.181.154.04.044.063.1.066.158 0 .03-.01.058-.03.08-.016.022-.035.042-.057.058l-.058.036h-.029c-.072-.12-.174-.22-.296-.29-.14-.081-.297-.123-.458-.12-.171-.01-.34.039-.48.136-.058.043-.105.099-.137.163-.031.065-.047.136-.045.208-.003.078.014.155.05.223.036.06.086.111.146.147.075.038.152.07.233.095.086.022.182.046.289.07.115.025.23.057.341.095.103.037.2.089.29.152.088.06.16.14.21.233.057.107.084.226.08.347.005.11-.016.219-.061.318-.046.1-.114.188-.2.256-.092.074-.198.128-.312.16-.132.04-.269.059-.407.057-.142.002-.283-.018-.42-.058-.115-.028-.225-.075-.326-.138-.076-.05-.145-.11-.203-.18-.046-.048-.074-.11-.079-.175-.002-.029.008-.057.028-.08.017-.02.036-.04.058-.057.016-.017.035-.03.058-.037.02-.006.03-.006.03 0 .085.133.196.246.326.334.16.095.343.143.528.138.18.01.358-.038.508-.138.06-.045.108-.103.14-.17.031-.067.046-.141.042-.215.003-.083-.02-.164-.066-.232-.04-.064-.098-.117-.165-.151-.078-.046-.161-.083-.248-.11l-.29-.073-.319-.086c-.099-.033-.191-.082-.275-.144-.082-.06-.149-.136-.196-.226-.057-.107-.084-.227-.08-.349 0-.105.026-.21.073-.304.05-.093.116-.177.196-.247.09-.07.194-.123.304-.158.118-.044.244-.066.37-.065.135 0 .27.023.397.066l-.003-.001zm1.912.12v2.58c.001.017 0 .035-.007.052-.006.016-.016.031-.028.044-.012.012-.027.022-.043.028-.017.006-.035.008-.053.007h-.042c-.083 0-.12-.045-.12-.131v-2.579c0-.092.042-.138.12-.138h.043c.087-.005.133.04.133.138l-.003-.001z" clip-rule="evenodd"/>
</svg>
