<svg xmlns="http://www.w3.org/2000/svg" width="63" height="25" fill="none" viewBox="0 0 63 25">
    <path fill="#FCAF17" fill-rule="evenodd" d="M56.275 4.588h-2.106v9.37h-1.117v-9.37h-2.106v-.945h5.329v.945zm-6.49 0h-3.61v3.524h2.665v.946h-2.665v3.954h3.782v.945h-4.9V3.643h4.728v.945zm-8.251.387c-.301-.258-.774-.344-1.419-.344h-1.117v3.481h.645c.773 0 1.375-.129 1.762-.43.387-.3.559-.773.559-1.504 0-.558-.13-.988-.43-1.203zm-.86-1.332c.774 0 1.375.257 1.805.687.43.473.645 1.075.645 1.848 0 .516-.13.989-.387 1.418-.258.43-.645.688-1.203.86v.043c.601.172 1.074.473 1.375.946.3.472.43.988.43 1.633 0 .945-.258 1.676-.817 2.149-.558.472-1.375.73-2.492.73h-2.063V3.643h2.707zm-.516 5.372h-1.117v3.997h1.117c.688 0 1.204-.172 1.505-.473.344-.301.515-.774.515-1.461 0-.688-.171-1.204-.472-1.548-.301-.3-.86-.515-1.548-.515zM7.41 4.63c-.172.172-.258.387-.258.645s.086.515.258.644c.172.172.387.258.645.258.257 0 .472-.086.644-.258.172-.129.258-.343.258-.644 0-.258-.086-.473-.258-.645-.172-.172-.387-.258-.644-.258-.258 0-.473.086-.645.258zm.645-1.117c.472 0 .86.172 1.203.472.129.086.258.258.387.473.086.215.172.516.172.817 0 .344-.086.601-.172.816-.13.215-.258.387-.387.473-.344.3-.73.43-1.203.473-.473 0-.86-.172-1.204-.473-.129-.086-.258-.258-.387-.473-.086-.215-.172-.472-.172-.816s.086-.602.172-.817c.13-.215.258-.387.387-.473.344-.3.73-.472 1.204-.472zm.515 4.34V14H7.496V7.854c.172.043.344.086.516.086.214 0 .386-.043.558-.086z" clip-rule="evenodd"/>
    <path fill="#fff" fill-rule="evenodd" d="M36.72 4.588h-2.106v9.37h-1.117v-9.37h-2.106v-.945h5.33v.945zm-6.704 0h-3.31v3.524H29.2v.946h-2.492v4.9h-1.118V3.642h4.427v.945zm2.75 12.98s.043 0 .043.042l.043.043v.043l-.988 1.547v1.032c0 .086-.043.129-.129.129h-.043c-.086 0-.129-.043-.129-.13v-1.03l-.988-1.548v-.043s0-.043.043-.043l.043-.043h.085c.044 0 .086.043.13.086l.816 1.29.816-1.29c.043-.086.086-.086.172-.086.043-.043.043-.043.086 0zm4.04.816c0 .3-.086.515-.258.644-.172.13-.43.215-.773.215h-.559v.989c0 .043 0 .086-.043.086-.043.043-.043.043-.086.043h-.043c-.086 0-.129-.043-.129-.13v-2.535c0-.043 0-.086.043-.129.043-.043.086-.043.13-.043h.73c.344 0 .559.086.773.215.13.172.215.387.215.645zm-1.633-.559v1.16h.602c.258 0 .43-.043.559-.171.128-.086.171-.258.171-.43 0-.387-.257-.602-.73-.602h-.602v.043zm-6.876-.3c.086 0 .129.042.129.128v2.407h1.332c.086 0 .129.043.129.129v.043c0 .086-.043.129-.129.129h-1.461c-.043 0-.086 0-.13-.043-.042-.043-.042-.086-.042-.13v-2.535c0-.086.043-.129.172-.129zm-1.118.859c0 .3-.086.515-.257.644-.172.13-.43.215-.774.215h-.559v.989c0 .043 0 .086-.043.086-.043.043-.043.043-.086.043h-.043c-.086 0-.129-.043-.129-.13v-2.535c0-.043 0-.086.043-.129.043-.043.086-.043.13-.043h.73c.344 0 .559.086.774.215.128.172.214.387.214.645zm-.257 0c0-.387-.258-.602-.731-.602h-.602v1.203h.602c.258 0 .43-.043.559-.171.086-.086.172-.215.172-.43zm16.374-.817l.043-.043h.086c.043 0 .086.043.129.086l.816 1.29.817-1.29c.043-.086.086-.086.172-.086h.086s.043 0 .043.043l.043.043v.043l-.989 1.547v1.032c0 .086-.043.129-.129.129h-.043c-.086 0-.129-.043-.129-.13v-1.03l-.988-1.548.043-.086c0 .043 0 .043 0 0zm-5.415-.043c.086 0 .129.043.129.13v2.406h1.332c.086 0 .129.043.129.129v.043c0 .086-.043.129-.13.129h-1.46c-.043 0-.086 0-.13-.043-.042-.043-.042-.086-.042-.13v-2.535c0-.086.043-.129.172-.129zm3.739.086l1.031 2.665s0 .043-.043.043-.086.043-.129.043h-.086c-.043-.043-.043-.043-.086-.13l-.3-.816h-1.204l-.3.817c0 .043-.044.086-.087.129h-.086c-.043 0-.086 0-.129-.043l-.043-.043 1.032-2.665c0-.043.043-.043.043-.086.043 0 .086-.043.172-.043s.129 0 .129.043c.086.043.086.086.086.086zm-.215.258l-.516 1.332h.989l-.473-1.332zM21.85 4.803c-.258-.258-.559-.344-.902-.344-.344 0-.645.086-.903.344s-.473.688-.645 1.332c-.171.645-.257 1.547-.257 2.665 0 1.16.086 2.063.258 2.664.171.645.386 1.075.644 1.333s.559.344.903.344c.343 0 .644-.086.902-.344s.473-.688.645-1.333c.172-.644.258-1.547.258-2.664 0-1.16-.086-2.063-.258-2.665-.172-.644-.387-1.074-.645-1.332zm1.633.945c.258.774.344 1.806.387 3.095 0 1.29-.129 2.32-.387 3.094s-.601 1.333-1.031 1.72c-.43.343-.946.515-1.504.515-.602 0-1.118-.172-1.547-.516-.43-.344-.774-.945-1.032-1.719-.258-.773-.344-1.805-.387-3.094 0-1.29.13-2.32.387-3.095.258-.773.602-1.332 1.032-1.676.43-.343.945-.515 1.547-.515.601 0 1.074.172 1.504.515.43.301.773.903 1.031 1.676zm-7.048 5.76c0 .816-.215 1.46-.687 1.933-.43.473-1.118.688-1.977.688-.56 0-.989-.129-1.376-.387-.386-.258-.687-.601-.902-1.031-.215-.43-.344-.946-.344-1.504h1.031c0 .601.172 1.117.43 1.46.301.345.688.517 1.247.517.472 0 .859-.13 1.117-.43.258-.301.43-.73.43-1.247 0-.472-.172-.86-.43-1.203-.258-.344-.602-.645-1.032-.945-.43-.258-.816-.56-1.246-.903-.43-.3-.73-.645-1.031-1.074-.258-.387-.43-.903-.43-1.505 0-.73.258-1.332.688-1.762.43-.43 1.031-.644 1.805-.644.773 0 1.332.258 1.805.73.43.473.687 1.16.773 2.063h-1.031c-.043-.558-.172-.988-.43-1.332-.258-.344-.645-.516-1.16-.516-.43 0-.774.13-1.032.387-.258.258-.387.559-.387.988 0 .473.172.86.43 1.16.258.302.602.603 1.032.903.43.258.816.56 1.246.86.43.3.774.688 1.031 1.117.258.473.387.989.43 1.676zm7.478 6.016h.043c.043 0 .129 0 .172.043.043.043.043.086.043.13v2.535c0 .086-.043.129-.129.129H24c-.086 0-.129-.043-.129-.13v-2.363l-.73 1.59c-.043.043-.043.086-.086.13-.043.042-.086.042-.172.042s-.13 0-.172-.043c-.043-.043-.043-.086-.086-.129l-.73-1.59v2.364c0 .086-.044.129-.13.129h-.043c-.086 0-.129-.043-.129-.13v-2.535c0-.043 0-.086.043-.129.043-.043.086-.043.172-.043h.043c.086 0 .13 0 .172.043.043.043.043.086.086.172l.73 1.633.731-1.633c.043-.086.043-.129.086-.172.13-.043.172-.043.258-.043zm-5.372.043c.129.043.215.086.3.13.087.042.13.085.173.171.043.043.086.129.086.172 0 .043 0 .043-.043.086 0 .043-.043.043-.043.043-.043 0-.043.043-.043.043h-.043c-.086-.13-.172-.215-.301-.301s-.3-.129-.473-.129c-.215 0-.344.043-.473.129-.129.086-.172.215-.172.387 0 .086 0 .172.043.215l.13.129c.042.043.128.043.214.086s.172.043.301.085c.13.044.215.044.344.087.086.043.215.085.3.171.087.043.173.13.216.215.043.086.086.215.086.344 0 .129 0 .215-.043.344-.043.086-.13.172-.215.258-.086.086-.172.129-.301.172-.129.043-.258.043-.387.043-.172 0-.3 0-.43-.043-.128-.043-.258-.086-.343-.13-.086-.042-.172-.128-.215-.171-.043-.043-.086-.13-.086-.172 0-.043 0-.043.043-.086 0-.043.043-.043.043-.043l.043-.043h.043c.086.129.172.215.343.344.13.086.301.129.516.129.215 0 .387-.043.516-.13.129-.085.172-.214.172-.386 0-.086-.043-.172-.086-.215-.043-.043-.086-.129-.172-.129l-.258-.129c-.086-.043-.172-.043-.3-.086-.044-.129-.13-.172-.259-.172l-.258-.128c-.085-.043-.128-.13-.214-.215-.043-.086-.086-.215-.086-.344 0-.086.043-.215.086-.301s.129-.172.214-.258c.087-.086.172-.129.301-.172.13-.043.258-.043.387-.043.13-.043.258 0 .344.043zm1.934.086v2.579c0 .086-.043.129-.129.129h-.043c-.086 0-.129-.043-.129-.13v-2.578c0-.086.043-.129.129-.129h.043c.086 0 .129.043.129.13z" clip-rule="evenodd"/>
</svg>
