<svg xmlns="http://www.w3.org/2000/svg" width="72" height="25" fill="none" viewBox="0 0 72 25">
    <path fill="#69A508" d="M24.927 6.619h-2.876v5.385c0 .732.053.784.785.784h.68c.366 0 .418.105.47.47v.68c0 .262-.104.419-.366.419-.627.052-1.255.052-1.882.104-.21 0-.366-.052-.575-.104-.889-.21-1.307-.785-1.412-1.778-.052-.837-.052-1.62-.052-2.457V6.619h-.523c-.47 0-.523-.105-.523-.523v-.732c0-.261.105-.418.366-.418h.68v-.262-1.62c0-.262.104-.419.366-.471.523-.105 1.046-.157 1.568-.261.262 0 .366.104.366.366v2.248h2.876V3.168c0-.418.052-.47.47-.575.471-.105.942-.157 1.412-.21.314-.051.418.053.418.367v2.196h1.098c.314 0 .419.104.419.418v.889c0 .261-.105.366-.366.366h-1.15v5.176c0 .993.052.993.993.993h.575c.261 0 .366.157.366.366v.889c0 .157-.105.261-.261.314-.994.209-1.935.209-2.876-.105-.523-.157-.837-.575-.941-1.098-.105-.47-.157-.941-.157-1.412V6.88c.052-.052.052-.157.052-.261z"/>
    <path fill="#69A507" d="M65.97 4.946V2.593v-.366c0-.262.156-.366.365-.366H67.8c.262 0 .366.157.366.418v11.189c0 .261-.157.418-.366.418-.732.157-1.411.314-2.143.366-.837.104-1.673.157-2.458 0-1.725-.314-2.718-1.36-2.928-3.085-.156-1.098-.156-2.248.053-3.346.313-1.778 1.568-2.823 3.346-2.928.627-.052 1.307 0 1.934.053h.366zm0 1.777c-.68 0-1.308-.104-1.883-.052-.784.052-1.255.418-1.464 1.202-.261 1.098-.209 2.196-.052 3.242.157.993.68 1.464 1.725 1.464.47 0 .89-.052 1.36-.052.261 0 .313-.105.313-.366V7.978 6.723z"/>
    <path fill="#69A509" d="M20.17 22.408c-3.66-.052-6.85-.68-9.83-2.196-1.463-.732-2.77-1.62-3.868-2.823-.157-.157-.262-.314-.314-.523-.105-.314.105-.523.418-.418.157.052.262.104.366.157 2.3 1.672 4.915 2.509 7.738 2.927 3.085.47 6.17.47 9.254.157 2.405-.261 4.706-.784 6.85-1.882.679-.366 1.306-.784 1.986-1.15.157-.105.261-.157.418-.21.314-.052.523.158.419.471-.053.21-.157.366-.314.523-1.098 1.255-2.457 2.144-3.921 2.876-2.353 1.15-4.81 1.777-7.424 2.039-.68 0-1.36 0-1.778.052z"/>
    <path fill="#69A508" d="M53.474 5.573c.314-.157.628-.314.941-.418.941-.366 1.935-.419 2.928-.21 1.098.262 1.62 1.098 1.83 2.144.052.47.105.941.105 1.412v5.228c0 .47-.105.523-.523.523H57.5c-.366 0-.523-.105-.523-.523V8.135c0-.21 0-.47-.052-.68-.052-.418-.314-.68-.68-.732-.94-.209-1.777.105-2.562.523-.052.052-.104.21-.104.314v6.117c0 .575-.053.627-.628.627h-1.098c-.47 0-.522-.104-.522-.523V7.403 5.416c0-.366.104-.47.47-.47h1.255c.418 0 .47.104.523.47-.157.052-.105.105-.105.157zM47.618 13.625c-.418.156-.784.313-1.15.47-.785.262-1.569.262-2.353.053-1.15-.314-1.778-1.098-1.83-2.301 0-.366 0-.732.052-1.098.21-1.046.941-1.568 1.935-1.83.941-.261 1.934-.261 2.876-.261.365 0 .365 0 .365-.366 0-.262 0-.523-.052-.784-.052-.419-.313-.732-.732-.785-.261-.052-.523-.104-.784-.104-.889 0-1.778.052-2.666.104-.419 0-.471-.052-.471-.418v-.836c0-.21.105-.366.314-.419 1.516-.261 3.032-.47 4.548-.052 1.307.366 2.04 1.307 2.092 2.614.052 2.04 0 4.078 0 6.117 0 .262-.157.366-.366.366h-1.36c-.366.105-.418-.157-.418-.47zm-.105-2.51v-.837c0-.156-.052-.209-.209-.209-.523 0-1.045 0-1.568.053-.837.052-1.203.47-1.203 1.255v.209c0 .575.262.836.837.888.627.053 1.202-.052 1.778-.261.26-.105.365-.261.365-.575v-.523zM37.684 9.808c-.052.418-.052 1.098-.209 1.673-.418 1.725-1.673 2.771-3.503 2.823-.575 0-1.202-.052-1.777-.209-1.36-.366-2.196-1.307-2.458-2.666-.261-1.15-.261-2.353-.052-3.556.418-1.83 1.725-2.927 3.555-3.032.89-.052 1.726.052 2.51.47 1.098.628 1.673 1.57 1.83 2.772.104.522.104.993.104 1.725zm-2.196-.261h-.052V8.448c-.052-.837-.523-1.464-1.202-1.673-1.098-.314-2.04.209-2.249 1.307-.209.993-.156 1.986 0 2.98.105.575.419 1.045 1.046 1.255.994.313 2.144-.053 2.353-1.36.052-.418.052-.889.104-1.412zM10.184 9.547c0-.89.052-1.726.366-2.51.522-1.255 1.516-1.934 2.823-2.144.889-.156 1.725-.104 2.562.262 1.307.523 1.987 1.516 2.196 2.875.157 1.098.157 2.196-.053 3.294-.313 1.621-1.516 2.719-3.189 2.928-.836.105-1.62.052-2.405-.261-1.36-.523-2.039-1.621-2.248-2.98-.052-.471-.052-.994-.052-1.464zm5.855.052s-.052 0 0 0c-.052-.21 0-.366-.052-.575 0-.314-.052-.628-.105-.941-.209-.89-.836-1.36-1.673-1.36-.888 0-1.516.47-1.673 1.36-.209.993-.209 1.986 0 3.032.157.889.837 1.36 1.726 1.36.888 0 1.516-.523 1.673-1.412.052-.523.052-.994.104-1.464z"/>
    <path fill="#69A507" d="M3.178 6.932v-4.6c0-.367.104-.471.47-.471h1.307c.419 0 .523.052.523.523v8.887c.052.785.418 1.099 1.15 1.151H9.19c.366 0 .47.105.47.47v.994c0 .21-.051.314-.26.314l-2.824.157c-.418 0-.836-.053-1.255-.105-1.359-.21-1.986-.837-2.091-2.196-.052-.836-.052-1.673-.052-2.51V6.932z"/>
    <path fill="#68A406" d="M41.187 8.135v5.75c0 .367-.104.472-.47.472H39.2c-.366 0-.47-.105-.47-.471V2.33c0-.366.105-.47.47-.47h1.517c.366 0 .47.104.47.47v5.804z"/>
</svg>
