<svg xmlns="http://www.w3.org/2000/svg" width="72" height="25" fill="none" viewBox="0 0 72 25">
    <path fill="#B5B5B5" d="M24.913 6.638h-2.664c-.064 0-.127.006-.207.01 0 .073-.015.135-.015.199v5.124c.008.73.073.797.8.803h.7c.345.008.444.11.448.462 0 .233-.015.467 0 .7.012.052.01.107-.002.16-.013.053-.037.102-.072.144-.035.042-.078.076-.128.098-.05.023-.103.034-.157.033-.622.04-1.245.068-1.868.081-.196-.004-.39-.032-.58-.082-.406-.076-.77-.296-1.026-.62-.255-.325-.383-.731-.36-1.143-.047-.82-.045-1.643-.05-2.464-.007-1.157 0-2.315 0-3.512h-.534c-.462 0-.545-.082-.545-.532v-.728c0-.274.12-.394.39-.406.213-.008.428 0 .688 0V4.69 3.092c-.007-.053-.003-.107.011-.16.014-.051.039-.1.073-.141.033-.042.075-.076.123-.101.047-.025.1-.04.153-.044.516-.086 1.029-.182 1.546-.26.272-.042.379.06.379.339V4.95h2.887V3.183c0-.409.064-.49.461-.561.468-.084.937-.16 1.407-.233.306-.048.41.043.411.36v2.219h1.08c.36 0 .436.103.44.43v.868c.005.049-.001.099-.018.145-.017.046-.044.088-.08.123-.034.034-.077.06-.123.077-.047.016-.097.02-.146.015H27.19V11.771c0 .97.027.994.98.998h.588c.051-.006.103 0 .152.017s.094.045.13.081c.037.037.065.082.081.13.017.05.023.102.017.153v.87c.005.036.002.074-.008.11-.01.036-.027.07-.05.1-.023.03-.052.054-.085.072-.032.018-.068.03-.105.034-.957.236-1.96.207-2.9-.086-.243-.081-.457-.228-.621-.423-.165-.195-.272-.432-.31-.684-.092-.466-.14-.94-.144-1.416-.018-1.615-.009-3.231-.01-4.847l.009-.242zM65.96 4.975V2.617v-.36c-.006-.052 0-.104.017-.153.018-.049.046-.093.083-.13.038-.036.083-.063.132-.079.05-.016.102-.02.154-.013h1.484c.053-.006.108 0 .159.019.05.018.096.048.134.087.037.039.065.086.081.137.017.052.02.106.013.16v11.204c.004.054-.002.108-.02.16-.016.05-.043.098-.078.139-.036.04-.079.074-.127.098-.048.024-.1.038-.154.04-.72.136-1.426.294-2.146.378-.823.121-1.66.114-2.482-.022-.77-.094-1.483-.451-2.019-1.012-.535-.56-.86-1.29-.919-2.062-.161-1.111-.149-2.24.037-3.347.108-.811.505-1.556 1.119-2.097.614-.541 1.403-.842 2.221-.847.64-.036 1.284.02 1.927.036.118.003.229.012.384.022zm0 1.75c-.66-.024-1.285-.085-1.905-.062-.347-.01-.685.107-.952.33-.267.221-.443.533-.495.876-.216 1.073-.236 2.176-.057 3.256.006.213.056.422.147.614.092.192.222.363.383.501.162.139.35.242.555.303.203.061.418.079.629.052.456 0 .913-.048 1.37-.054.248 0 .333-.083.33-.346-.013-1.39 0-2.781 0-4.173l-.005-1.298zM20.188 22.405c-3.407.05-6.78-.695-9.848-2.177-1.455-.69-2.763-1.658-3.848-2.849-.136-.152-.24-.329-.307-.522-.101-.306.12-.522.433-.44.135.036.262.097.375.179 2.299 1.587 4.945 2.598 7.716 2.95 3.06.442 6.165.492 9.24.15 2.376-.197 4.694-.842 6.832-1.9.677-.35 1.313-.783 1.97-1.174.13-.09.271-.159.422-.207.315-.077.528.148.42.45-.068.193-.173.37-.309.524-1.109 1.206-2.442 2.184-3.925 2.88-2.318 1.138-4.831 1.825-7.405 2.026-.682.06-1.373.086-1.766.11zM53.453 5.61c.323-.155.615-.316.922-.438.936-.372 1.965-.44 2.941-.192.492.115.933.385 1.26.77.327.385.522.864.556 1.368.077.47.117.944.12 1.42.013 1.746 0 3.493 0 5.239 0 .45-.095.546-.533.547h-1.26c-.384 0-.5-.12-.501-.5V8.22c-.003-.234-.023-.466-.062-.696-.019-.183-.097-.356-.222-.49-.125-.136-.29-.227-.471-.26-.892-.154-1.81.023-2.58.498-.064.03-.084.19-.085.291V13.7c0 .553-.073.624-.629.624h-1.12c-.449 0-.546-.095-.546-.535v-6.36-1.99c0-.36.11-.47.465-.471h1.232c.41 0 .48.087.502.488-.009.04-.002.084.011.154zM47.626 13.652c-.395.16-.764.334-1.148.464-.766.26-1.592.286-2.373.076-.527-.112-.998-.405-1.332-.828-.334-.423-.51-.95-.498-1.488-.019-.361.005-.724.07-1.08.1-.464.336-.888.678-1.217.342-.33.775-.55 1.242-.632.948-.214 1.92-.297 2.89-.249.36 0 .361 0 .361-.367 0-.26-.014-.522-.044-.781-.013-.198-.093-.386-.227-.533-.133-.147-.313-.243-.509-.275-.254-.056-.514-.084-.775-.082-.887.025-1.773.07-2.658.114-.417.021-.48-.027-.48-.435v-.812c-.007-.047-.004-.094.008-.14.012-.046.033-.088.061-.126.03-.037.065-.068.106-.091.04-.024.087-.039.134-.044 1.495-.35 3.049-.367 4.551-.05.598.127 1.132.459 1.51.938.38.479.58 1.075.565 1.686.033 2.04.013 4.072.016 6.108.007.052.001.104-.016.154-.016.05-.043.094-.08.132-.035.037-.08.066-.129.084-.048.019-.1.026-.153.021-.457.012-.915.007-1.373 0-.357-.006-.396-.269-.397-.547zm-.105-2.507c0-.27-.007-.54 0-.81 0-.16-.055-.213-.212-.207-.521.02-1.043.013-1.56.051-.168-.01-.335.017-.49.079-.156.062-.296.157-.41.279-.115.122-.201.268-.253.427-.052.159-.068.327-.048.493v.223c-.013.117 0 .236.036.348.037.112.098.214.179.3.08.086.178.154.287.198.11.044.227.065.344.06.605.048 1.213-.045 1.776-.272.06-.012.119-.036.17-.07.05-.035.094-.08.128-.13.034-.053.057-.11.067-.171.011-.061.009-.123-.005-.183-.015-.205-.018-.41-.01-.615zM37.699 9.796c-.025.564-.088 1.125-.188 1.68-.162.802-.599 1.521-1.234 2.036-.635.514-1.43.791-2.247.783-.595.027-1.191-.035-1.768-.183-.628-.157-1.195-.493-1.634-.967-.439-.475-.73-1.067-.836-1.705-.244-1.165-.254-2.366-.03-3.535.12-.842.54-1.613 1.18-2.172.642-.56 1.462-.87 2.313-.875.868-.085 1.744.081 2.52.48.51.281.943.683 1.26 1.17.319.488.512 1.047.563 1.626.07.483.063.971.1 1.662zm-2.212-.212h-.061c0-.36.019-.728 0-1.09.003-.373-.111-.736-.327-1.04-.215-.303-.521-.53-.873-.65-.233-.09-.483-.125-.732-.105-.249.02-.49.094-.706.22-.216.124-.402.295-.544.5-.142.206-.236.44-.275.687-.19.983-.19 1.994 0 2.978.036.286.152.556.334.78.183.223.424.39.698.484.242.104.504.151.768.137.263-.014.52-.089.75-.219.229-.13.424-.311.572-.53.147-.219.242-.469.276-.73.064-.471.104-.946.12-1.42v-.002zM10.172 9.57c-.049-.86.081-1.721.383-2.529.239-.577.63-1.079 1.13-1.453.5-.375 1.091-.607 1.713-.674.86-.155 1.747-.067 2.56.255.592.232 1.108.622 1.492 1.13.383.506.619 1.11.68 1.742.172 1.1.158 2.222-.04 3.318-.134.77-.52 1.476-1.098 2.004-.578.527-1.314.849-2.094.913-.809.12-1.634.034-2.4-.25-.62-.238-1.158-.646-1.555-1.177-.398-.53-.637-1.163-.69-1.824-.065-.48-.055-.97-.08-1.455zm5.862.024H16c0-.187.012-.375 0-.56-.01-.317-.045-.632-.103-.944-.064-.397-.273-.756-.585-1.01-.312-.254-.707-.383-1.11-.365-.402-.022-.798.108-1.11.363-.312.255-.518.618-.577 1.017-.194.993-.194 2.013 0 3.006.064.398.274.758.589 1.01.315.253.712.379 1.115.354.406.013.803-.125 1.113-.388.31-.263.512-.63.566-1.034.093-.477.097-.967.136-1.45zM3.187 6.962V2.368c0-.404.088-.49.493-.49h1.289c.439 0 .514.075.514.526V11.284c-.017.155.002.312.055.459.053.147.138.28.25.389.112.109.246.191.394.24.148.05.306.065.46.045.86.012 1.72 0 2.578.008.36 0 .461.102.463.467V13.9c0 .193-.076.308-.27.32-.947.056-1.895.12-2.845.15-.42.006-.84-.025-1.254-.093-.28-.005-.557-.066-.814-.18-.257-.113-.488-.277-.68-.48-.194-.205-.344-.445-.442-.708-.099-.263-.144-.543-.133-.823-.066-.84-.056-1.68-.066-2.52-.006-.868.008-1.736.008-2.604zM41.197 8.145v5.746c0 .383-.098.487-.47.488h-1.541c-.348 0-.456-.109-.456-.448V2.356c0-.375.103-.48.48-.48h1.514c.36 0 .467.107.468.465l.005 5.804z"/>
</svg>
