<svg xmlns="http://www.w3.org/2000/svg" width="87" height="25" fill="none" viewBox="0 0 87 25">
    <path fill="#B5B5B5" d="M16.66 2.987c-1.388 0-2.756.324-3.996.948-1.24.624-2.316 1.53-3.142 2.645-.826 1.115-1.38 2.408-1.615 3.776-.236 1.368-.149 2.771.256 4.099l.48-.694c.621-.91 1.229-1.83 1.823-2.76l.438-.698c.147-.233.29-.467.432-.702.288-.468.563-.943.84-1.417.136-.24.265-.48.398-.72s.265-.48.389-.72c.123-.24.258-.48.372-.72l.353-.731.025-.052c.095-.19.262-.337.464-.406.202-.07.423-.056.616.037.145.078.265.195.347.338.081.144.12.307.112.472 0 .421-.084.859-.11 1.29-.026.433-.056.869-.074 1.303-.034.868-.056 1.735-.044 2.597.012.861.047 1.72.14 2.557.043.41.107.818.19 1.222.07.362.185.715.343 1.048.048.104.116.199.199.277.051.036.016.02.043.022 0 0 .02-.007.032 0l.028-.01h.014c.017-.006.034-.013.05-.022.02-.013.042-.027.068-.046.131-.1.252-.213.36-.337.263-.302.504-.623.72-.96.228-.35.445-.72.655-1.086.419-.744.81-1.516 1.185-2.298.186-.391.368-.785.548-1.18.176-.394.354-.798.517-1.188.067-.16.184-.294.334-.382.15-.088.324-.124.497-.104.172.02.333.096.459.216.125.12.208.278.236.45 0 .102.017.24.028.352l.04.367c.031.247.067.492.108.737.082.49.186.978.316 1.457.128.478.29.946.488 1.4.192.453.444.877.748 1.264.018.021.031.046.039.073.008.027.01.055.008.083-.003.028-.012.055-.026.08-.013.024-.031.045-.053.063-.038.03-.086.048-.136.048-.05 0-.097-.017-.135-.048-.412-.355-.775-.762-1.08-1.212-.303-.444-.572-.91-.806-1.394-.158-.32-.298-.646-.433-.976-.089.193-.176.386-.268.578-.385.805-.79 1.604-1.233 2.393-.223.395-.456.786-.709 1.175-.259.404-.547.79-.862 1.152-.182.209-.385.398-.607.565-.061.045-.133.091-.206.135l-.15.078-.085.038h-.01l-.047.018-.032.01-.065.02c-.043.015-.085.028-.13.04-.096.022-.194.037-.293.044-.216.016-.434-.011-.64-.08-.196-.068-.378-.172-.537-.304-.249-.213-.453-.474-.6-.767-.225-.46-.389-.947-.488-1.449-.097-.457-.17-.92-.22-1.386-.1-.913-.138-1.814-.15-2.712V9.607l-.48.912c-.133.248-.268.497-.407.74l-.413.737c-.557.978-1.133 1.943-1.72 2.9-.38.62-.764 1.232-1.158 1.844.844 1.285 2.006 2.328 3.375 3.03 1.368.7 2.895 1.033 4.43.967 1.536-.066 3.028-.53 4.33-1.346 1.303-.815 2.372-1.955 3.102-3.308.73-1.353 1.096-2.872 1.063-4.409-.033-1.536-.464-3.038-1.251-4.358-.788-1.32-1.904-2.413-3.241-3.172-1.337-.76-2.848-1.159-4.385-1.159v.002zM33.22 15.078V9.174h-.143l-1.89 5.904h-.466l-1.886-5.904h-.145v5.904h-.78V8.553h1.392l1.653 5.18 1.652-5.18h1.392v6.525h-.78zM35.15 9.398v-.84h.853v.84h-.853zm.013 5.68v-5.032h.827v5.032h-.827zM41.032 13.432c0 .986-.374 1.73-2 1.73-2.052 0-2.169-1.165-2.169-2.6 0-1.433.12-2.601 2.169-2.601 1.626 0 2 .746 2 1.73h-.774c0-.796-.277-1.187-1.226-1.187-1.271 0-1.343.69-1.343 2.059 0 1.369.072 2.056 1.343 2.056.949 0 1.221-.39 1.226-1.187h.774zM42.632 10.57c.403-.306.874-.51 1.373-.592.1-.01.196-.014.294-.014.12 0 .253 0 .387.017l-.057.594c-.127-.01-.24-.015-.36-.015-.102-.001-.203.005-.303.019-.455.08-.885.268-1.255.546v3.953h-.827v-5.033h.658l.09.525zM49.343 12.563c0 1.44-.12 2.599-2.195 2.599-2.075 0-2.196-1.165-2.196-2.6 0-1.433.12-2.601 2.196-2.601s2.195 1.168 2.195 2.602zm-3.564 0c0 1.377.073 2.055 1.365 2.055 1.29 0 1.372-.667 1.372-2.055 0-1.389-.073-2.059-1.368-2.059-1.295 0-1.369.68-1.369 2.059zM50.86 16.246c.302.028.72.057 1.174.057 1.273 0 1.44-.336 1.44-1.687-.433.267-.923.427-1.43.465-1.842.037-1.946-.96-1.946-2.52s.102-2.607 1.883-2.607c.572.03 1.122.223 1.587.556l.075-.463h.657v4.473c0 1.807-.408 2.358-2.068 2.358-.487-.003-.974-.041-1.455-.113l.083-.519zm2.614-5.28c-.367-.261-.798-.42-1.248-.46-1.224 0-1.3.682-1.3 2.055 0 1.343.075 1.97 1.3 1.97.444-.041.872-.188 1.248-.428v-3.137zM58.813 15.078l-.075-.462c-.444.326-.973.519-1.524.554-1.842.029-1.946-1.011-1.946-2.606s.103-2.611 1.92-2.611c.554.034 1.09.216 1.55.528l.075-.436h.657v5.033h-.657zm-.17-4.143c-.376-.24-.804-.387-1.248-.428-1.225 0-1.3.684-1.3 2.058 0 1.374.075 2.056 1.3 2.056.45-.04.88-.2 1.248-.461v-3.225zM61.211 10.476c.419-.295.906-.475 1.416-.522.848-.026 1.279.192 1.499.56.433-.315.944-.508 1.477-.56 1.734-.056 1.834.83 1.834 2.055v3.069h-.827V12.06c0-1.046-.07-1.56-1.188-1.56-.422.046-.823.2-1.168.448.085.363.12.735.104 1.107v3.018h-.72v-3.018c0-1.045-.07-1.56-1.189-1.56-.41.044-.8.192-1.136.43v4.143h-.827v-5.033h.658l.067.44zM68.478 9.398v-.84h.853v.84h-.853zm.013 5.68v-5.032h.826v5.032h-.826zM71.071 10.48c.458-.3.982-.48 1.527-.526 1.84-.056 1.946.83 1.946 2.055v3.069h-.827V12.06c0-1.046-.074-1.56-1.3-1.56-.445.04-.873.189-1.248.432v4.14h-.827V10.04h.657l.072.44zM76.17 16.246c.302.028.72.057 1.173.057 1.273 0 1.44-.336 1.44-1.687-.432.268-.922.427-1.429.465-1.842.037-1.945-.96-1.945-2.52s.1-2.607 1.881-2.607c.572.03 1.124.223 1.59.556l.072-.463h.658v4.473c0 1.807-.408 2.358-2.068 2.358-.487-.003-.974-.041-1.455-.113l.082-.519zm2.614-5.28c-.367-.262-.798-.42-1.248-.46-1.224 0-1.3.682-1.3 2.055 0 1.343.075 1.97 1.3 1.97.444-.041.872-.188 1.248-.428v-3.137z"/>
</svg>
