<svg xmlns="http://www.w3.org/2000/svg" width="81" height="25" fill="none" viewBox="0 0 81 25">
    <path fill="#B5B5B5" d="M9.879 7.137c-1.082-.3-2.104-.6-3.065-.721-.54.721-.962 1.563-1.382 2.464-.42.901-.721 1.803-.962 2.704.721.601 1.623 1.202 2.584 1.803.36-1.021.782-2.103 1.262-3.185.481-1.142 1.022-2.163 1.563-3.065zM17.39 18.135c-.84-.12-1.742-.36-2.824-.721-.54.901-1.082 1.682-1.623 2.403.902.18 1.803.3 2.705.361.6-.661 1.202-1.322 1.742-2.043zM7.294 17.353c.782.541 1.563.962 2.404 1.322.842.361 1.743.721 2.584.962.601-.721 1.142-1.563 1.683-2.404-1.082-.36-2.103-.781-3.065-1.202-.961-.42-1.983-.961-2.945-1.502-.24 1.021-.48 1.983-.66 2.824zM13.665 4.072l-.18.18c-.06.06-.12.12-.18.241.84.24 1.682.54 2.463.901.781.361 1.502.722 2.284 1.262 0-.18.06-.36.06-.48.06-.481.06-.962.06-1.443-1.022-.72-2.224-1.262-3.486-1.562-.36.24-.66.54-1.021.901zM19.073 15.19c.36-.841.721-1.743.962-2.584-.721-.6-1.563-1.202-2.404-1.683-.36 1.082-.781 2.104-1.202 3.065-.42 1.022-.961 1.983-1.502 2.945.961.3 1.983.54 2.884.721.421-.781.842-1.562 1.262-2.464zM21.057 9.12c.3.3.54.661.78.962-.06-.24-.12-.42-.18-.661-.18-.541-.42-1.082-.66-1.563.06.481.06.902.06 1.262zM17.27 10.082c.3-1.022.541-1.983.721-2.885-.78-.48-1.562-.961-2.403-1.322-.842-.42-1.743-.721-2.584-.961-.601.72-1.142 1.562-1.683 2.403 1.082.361 2.103.782 3.065 1.202 1.021.541 1.983 1.022 2.884 1.563zM20.395 7.198c0-.12-.06-.3-.06-.421-.48-.661-1.021-1.202-1.623-1.683 0 .36 0 .721-.06 1.082 0 .24-.06.54-.12.781.721.481 1.382 1.022 1.923 1.623 0-.481 0-.962-.06-1.382zM9.398 10.863c-.481 1.082-.902 2.164-1.202 3.125.901.541 1.923 1.022 3.005 1.563.961.42 1.983.84 3.124 1.262.541-.962 1.082-1.923 1.563-3.005.48-1.022.841-2.043 1.262-3.125-.901-.541-1.923-1.082-3.005-1.563-1.142-.48-2.163-.901-3.125-1.202-.6.782-1.081 1.743-1.622 2.945zM20.155 12.005c.18-.901.3-1.803.36-2.704-.6-.661-1.321-1.262-2.042-1.803-.12.841-.361 1.743-.721 2.824.84.602 1.682 1.142 2.403 1.683zM15.828 20.719c-.36.3-.66.6-1.021.841.24-.06.54-.12.78-.24.542-.18 1.083-.42 1.563-.661-.36.06-.66.06-1.021.06h-.3zM18.773 18.315c-.12 0-.18 0-.3-.06-.18 0-.301-.06-.481-.06-.481.66-1.022 1.322-1.623 1.923.48 0 .902-.06 1.382-.12.18 0 .36-.06.541-.12.601-.481 1.202-.962 1.683-1.563h-.12c-.36.06-.721.06-1.082 0zM11.621 20.479c.12-.12.18-.24.3-.3 0 0 0-.061.061-.061-.841-.24-1.683-.54-2.404-.901-.781-.361-1.562-.782-2.283-1.262v.06c0 .18-.06.3-.06.42-.06.481-.06.962-.06 1.443 1.02.78 2.163 1.262 3.425 1.562.24-.18.6-.54 1.021-.961zM20.816 13.327l-.18-.18c-.06-.06-.12-.12-.24-.18-.241.84-.541 1.682-.902 2.463-.36.842-.781 1.563-1.262 2.284h.06c.12 0 .3.06.42.06.361.06.722.06 1.082.06h.421c.721-1.022 1.262-2.163 1.503-3.365-.18-.421-.481-.781-.902-1.142zM21.778 11.044c-.24-.36-.481-.722-.782-1.082-.06.901-.18 1.683-.42 2.524.18.18.36.36.54.48.301.241.541.542.782.842.12-.781.12-1.563.06-2.284 0-.24-.06-.36-.18-.48zM12.523 20.238c-.18.24-.36.421-.541.601-.3.3-.54.541-.841.782.48.06.961.12 1.502.12.24 0 .54 0 .781-.06.18-.12.3-.18.42-.24.422-.241.782-.542 1.083-.782-.782-.06-1.623-.18-2.404-.42zM3.629 10.803c.24-.781.48-1.562.841-2.344.36-.78.781-1.562 1.202-2.223-.24 0-.42-.06-.6-.06-.482-.06-.902-.06-1.323-.06-.721 1.021-1.262 2.163-1.502 3.365.24.3.54.601.901.962.18.12.3.24.48.36zM4.17 5.395c.48-.661.961-1.262 1.502-1.803-.48 0-.902.06-1.382.12-.06 0-.12 0-.18.06-.602.42-1.203.902-1.623 1.502.3 0 .6 0 .961.06.24 0 .481.06.721.06zM3.689 11.764l-.601-.6c-.12.6-.12 1.262-.06 1.923.06.06.06.12.12.18.18.3.42.6.721.901.06-.66.12-1.322.3-1.983-.18-.12-.36-.3-.48-.42zM11.502 3.892c.54.06 1.021.18 1.562.3.18-.18.3-.36.48-.54.241-.24.481-.481.722-.661-.721-.12-1.442-.12-2.164-.06-.06.06-.12.06-.18.12-.3.18-.54.36-.841.6-.842-.18-1.623-.3-2.404-.3-.661.601-1.322 1.382-1.923 2.224.901.18 1.983.42 3.005.781.6-.962 1.141-1.743 1.742-2.464zM4.47 12.426c-.24 1.021-.36 1.983-.36 2.884l.54.541c0 .481.06.962.12 1.443 0 .12.06.24.06.36.481.721 1.082 1.382 1.803 1.923 0-.42 0-.841.06-1.262 0-.24.06-.54.12-.841-.18-.06-.36-.18-.48-.3.12-.902.36-1.864.721-2.945-.961-.601-1.803-1.202-2.584-1.803zM52.066 14.229c-.541.9-1.442 1.382-2.524 1.382-1.683 0-2.945-1.262-2.945-3.005 0-1.743 1.262-3.065 2.945-3.065.841 0 1.562.3 2.103.841l-.36.421c-.421-.42-1.022-.721-1.743-.721-1.382 0-2.344 1.082-2.344 2.524s1.022 2.524 2.344 2.524c.841 0 1.562-.42 1.983-1.022v-1.262h-1.863v-.54h2.404v1.923zM52.847 15.55l2.404-6.069 2.404 6.07h-.601l-.48-1.202h-2.645l-.48 1.202h-.602zm1.262-1.742h2.284l-1.142-2.825-1.142 2.825zM58.436 15.55l.661-6.069 2.404 3.726 2.464-3.726.6 6.07h-.6l-.42-4.447-2.044 3.125-2.043-3.125-.481 4.447h-.541zM66.188 9.601v5.95h-.54V9.6h.54zM72.078 9.601v6.07l-4.027-4.808v4.628h-.54V9.42l4.026 4.747V9.601h.54zM78.749 14.229c-.541.9-1.443 1.382-2.524 1.382-1.683 0-2.945-1.262-2.945-3.005 0-1.743 1.262-3.065 2.945-3.065.84 0 1.562.3 2.103.841l-.36.421c-.421-.42-1.022-.721-1.743-.721-1.383 0-2.344 1.082-2.344 2.524s1.021 2.524 2.344 2.524c.84 0 1.562-.42 1.983-1.022v-1.262h-1.863v-.54h2.404v1.923zM27.487 9.12c-1.803 0-3.125 1.383-3.125 3.246s1.322 3.245 3.125 3.245 3.125-1.382 3.125-3.245c0-1.923-1.262-3.245-3.125-3.245zm0 5.53c-1.262 0-2.164-.962-2.164-2.284 0-1.322.902-2.284 2.164-2.284s2.163.962 2.163 2.284c0 1.322-.901 2.283-2.163 2.283zM33.256 9.3h-1.923v6.19h.721v-2.403h1.202c1.082 0 1.983-.841 1.983-1.923S34.398 9.3 33.256 9.3zm0 2.945h-1.202v-1.923h1.202c.54 0 1.022.361 1.022.962 0 .6-.421.961-1.022.961zM39.266 13.267c0 .781-.541 1.382-1.262 1.382s-1.262-.6-1.262-1.382V9.241H35.9v4.026c0 1.262 1.022 2.284 2.284 2.284 1.262 0 2.284-1.022 2.284-2.284V9.241h-1.202v4.026zM43.292 11.825c-.06 0-.12-.06-.18-.06-.601-.24-.962-.42-.962-.962 0-.72.781-.72.902-.72.36 0 .72.12 1.141.42l.18.12.542-.721-.18-.12c-.361-.3-.962-.601-1.683-.601-1.082 0-1.863.66-1.863 1.682 0 1.262.901 1.563 1.622 1.863l.12.06c.722.24 1.142.481 1.142 1.082 0 .781-.841.841-1.081.841-.541 0-.962-.18-1.323-.48l-.18-.12-.6.72.12.12c.54.482 1.141.722 1.922.722 1.022 0 2.044-.54 2.044-1.803 0-1.322-.842-1.743-1.683-2.043z"/>
</svg>
