<?xml version="1.0" encoding="utf-8"?>
<!-- Generator: Adobe Illustrator 22.1.0, SVG Export Plug-In . SVG Version: 6.00 Build 0)  -->
<svg version="1.1" width="100px" height="39px" id="Layer_1" xmlns="http://www.w3.org/2000/svg" xmlns:xlink="http://www.w3.org/1999/xlink" x="0px" y="0px"
	 viewBox="0 0 64.1 25" style="enable-background:new 0 0 64.1 25;" xml:space="preserve">
<style type="text/css">
	.st0{fill:#FFFFFF;}
	.st1{fill:#E03B28;}
</style>
<g>
	<path class="st0" d="M30.1,9.1c-0.8,0-1.6-0.3-2.2-0.9C27.3,7.6,27,6.8,27,5.9s0.3-1.6,0.9-2.2s1.4-0.9,2.2-0.9h3.4v2.1h-3.4
		c-0.5,0-0.9,0.4-0.9,0.9s0.4,0.9,0.9,0.9h1.1c1.7,0,3.1,1.4,3.1,3.1l0,0c0,1.7-1.4,3.1-3.1,3.1l0,0h-3.4v-2.2h3.4
		c0.5,0,0.9-0.4,0.9-0.9S31.7,9,31.2,9L30.1,9.1z"/>
	<path class="st0" d="M45.1,13V2.8h4.2c0.8,0,1.6,0.3,2.2,0.9s0.9,1.4,0.9,2.2c0,0.7-0.3,1.4-0.7,2c1,1.2,1,3-0.2,4.2
		c-0.6,0.6-1.4,0.9-2.2,0.9L45.1,13z M47.3,5v1.8h2c0.4,0,0.8-0.4,0.8-0.9S49.7,5,49.2,5l0,0H47.3z M47.3,9.1v1.8h2
		c0.5,0,0.9-0.4,0.9-0.9l0,0c0-0.5-0.4-0.9-0.9-0.9l0,0L47.3,9.1z"/>
	<polygon class="st0" points="35.7,9.9 39.7,2.8 45.2,13 42.7,13 40.3,8.5 	"/>
	<polygon class="st0" points="34,13 34.8,11.5 37.9,10.5 36.5,13 	"/>
	<polygon class="st0" points="53.9,9.9 57.8,2.8 63.5,13 60.9,13 58.4,8.5 	"/>
	<polygon class="st0" points="52.3,13 53.1,11.5 56.2,10.5 54.8,13 	"/>
	<path class="st0" d="M29.2,19.4c-1.2,0-2.2-1-2.2-2.2c0-1.2,1-2.2,2.2-2.2h2.5v1.6h-2.5c-0.4,0-0.7,0.3-0.7,0.7
		c0,0.2,0.1,0.3,0.2,0.5c0.1,0.1,0.3,0.2,0.5,0.2H30c1.2,0,2.2,1,2.2,2.2s-1,2.2-2.2,2.2h-2.5v-1.6H30c0.4,0,0.7-0.3,0.7-0.7
		c0-0.2-0.1-0.3-0.2-0.5c-0.1-0.1-0.3-0.2-0.5-0.2H29.2z"/>
	<path class="st0" d="M34.6,19.4v2.9H33v-7.5h3c1.2,0,2.2,1,2.2,2.2c0,0.6-0.2,1.2-0.7,1.6c-0.4,0.4-1,0.7-1.6,0.7
		C35.9,19.4,34.6,19.4,34.6,19.4z M34.6,16.4v1.3H36c0.4,0,0.7-0.3,0.7-0.7c0-0.2-0.1-0.3-0.2-0.5c-0.1-0.1-0.3-0.2-0.5-0.2h-1.4
		V16.4z"/>
	<path class="st0" d="M48.8,19.4v2.9h-1.6v-7.5h3c1.2,0,2.2,1,2.2,2.2c0,0.6-0.2,1.2-0.7,1.6c-0.2,0.2-0.4,0.3-0.6,0.4l1.5,3.1H51
		l-1.4-2.9h-0.7V19.4z M48.8,16.4v1.3h1.4c0.4,0,0.7-0.3,0.7-0.7c0-0.2-0.1-0.3-0.2-0.5c-0.1-0.1-0.3-0.2-0.5-0.2h-1.4V16.4z"/>
	<path class="st0" d="M56.4,16.4v5.8h-1.6v-5.8h-1.6v-1.6h4.7v1.6L56.4,16.4z"/>
	<path class="st0" d="M61,19.4c-1.2,0-2.2-1-2.2-2.2c0-1.2,1-2.2,2.2-2.2h2.5v1.6H61c-0.4,0-0.7,0.3-0.7,0.7c0,0.2,0.1,0.3,0.2,0.5
		c0.1,0.1,0.3,0.2,0.5,0.2h0.8c1.2,0,2.2,1,2.2,2.2s-1,2.2-2.2,2.2h-2.5v-1.6h2.5c0.4,0,0.7-0.3,0.7-0.7c0-0.2-0.1-0.3-0.2-0.5
		c-0.1-0.1-0.3-0.2-0.5-0.2H61z"/>
	<path class="st0" d="M41.7,16.7L40,16.1c-0.2,0.3-0.4,0.6-0.6,0.9l1.5,0.5C41.1,17.2,41.4,16.9,41.7,16.7z"/>
	<path class="st0" d="M40.8,19.3c0-0.1,0-0.1,0-0.2s0-0.1,0-0.1c0-0.2,0-0.4,0-0.7l-1.5-0.5c-0.2,0.3-0.2,0.6-0.2,0.8
		c0,0.1,0,0.2,0,0.2l1.7,0.6C40.8,19.4,40.8,19.3,40.8,19.3z"/>
	<path class="st0" d="M45.4,15.9c-1.3-1.3-3.3-1.4-4.7-0.4l1,0.3l1.9,0.6c1.1,0.4,1.7,1.6,1.4,2.7c-0.4,1.1-1.6,1.7-2.7,1.4
		l-2.8-0.9h-0.1l0,0l0,0c0.6,1.9,2.6,3.1,4.6,2.5c1.9-0.6,3.1-2.6,2.5-4.6C46.1,16.9,45.8,16.4,45.4,15.9L45.4,15.9z"/>
	<path class="st1" d="M12.2,21.3c0.7,0.1,1.5,0.2,2.3,0.2c1.5-0.4,2.9-1,4.1-1.8C12.9,19.6,7.6,16.7,4.3,12
		c-0.1,0.5-0.1,1.1-0.1,1.6c0,1.4,0.2,2.8,0.5,4.2C6.9,19.7,9.4,20.8,12.2,21.3z"/>
	<path class="st1" d="M3.5,17.3c0.4,0.7,0.8,1.5,1.3,2.2C4.9,19.7,5,19.8,5,20c-0.2-0.6-0.4-1.2-0.6-1.9C4.1,17.8,3.8,17.5,3.5,17.3
		z"/>
	<path class="st1" d="M12.9,21.8c-0.3,0-0.5-0.1-0.8-0.1c-2.6-0.4-5.1-1.5-7.3-3.1c0.2,0.8,0.6,1.7,0.9,2.5c1.5,0.5,3,0.8,4.6,0.9
		C11.2,21.9,12.1,21.9,12.9,21.8z"/>
	<path class="st1" d="M4.2,17.4c-0.4-1.9-0.5-3.9-0.3-5.9c-0.9-1.3-1.5-2.8-2-4.3c-0.3,3.1,0,6.3,1.1,9.2
		C3.5,16.7,3.9,17.1,4.2,17.4z"/>
	<path class="st1" d="M11.6,12.8h-1.2V14h1.2c0.3,0,0.6-0.3,0.6-0.6l0,0C12.2,13.1,12,12.8,11.6,12.8L11.6,12.8L11.6,12.8z"/>
	<path class="st1" d="M12.5,0C5.6,0,0,5.6,0,12.5S5.6,25,12.5,25S25,19.5,25,12.5C25,5.6,19.4,0,12.5,0z M13.7,13.4
		c0,1.1-0.9,1.9-1.9,1.9l0,0H9v-4.9h1.4v1h1.3c0.3,0,0.6-0.3,0.6-0.6l0,0c0-0.2-0.1-0.3-0.2-0.4c0.4-0.1,0.9-0.4,1.2-0.7
		c0.2,0.3,0.3,0.7,0.3,1.1c0,0.5-0.2,0.9-0.5,1.3C13.5,12.5,13.7,13,13.7,13.4L13.7,13.4z M10.1,5.4c0.1,0.1,0.3,0.2,0.4,0.2h0.7
		c1.1,0,2,0.9,2,2s-0.9,2-2,2H9V8.2h2.2c0.4,0,0.6-0.2,0.6-0.5s-0.3-0.6-0.6-0.6l0,0h-0.7c-1.1,0-2-0.9-2-2s0.9-2,2-2h2.3v1.4h-2.2
		C10.3,4.4,10,4.7,10,5C10,5.1,10,5.3,10.1,5.4L10.1,5.4z M14.9,7.5l2.4-4.3l3.4,6.2h-1.5l-1.5-2.8L14.9,7.5z M16.3,7.8l-0.8,1.5
		h-1.6l0.5-0.9L16.3,7.8z M14.3,14.4l1.9-0.6l-0.8,1.5h-1.5L14.3,14.4z M14.9,13.5l1.2-2.2l1.6-3l4,7.2h-1.5l-1.7-3.2L14.9,13.5z
		 M2.3,19c0.8,0.6,1.8,1.2,2.7,1.6c-0.2-0.2-0.4-0.5-0.6-0.8c-0.7-1-1.2-2.1-1.6-3.2c-0.6-0.7-1.2-1.4-1.8-2.2
		c-0.2-0.3-0.4-0.7-0.6-1c0-0.3,0-0.5,0-0.8c0-2.2,0.6-4.3,1.7-6.2C2.5,7.9,3.2,9.5,4,10.9C4.6,7.1,6.5,3.4,9.3,0.7
		c0.3-0.1,0.5-0.1,0.8-0.2C6.9,3.3,4.9,7.2,4.3,11.4c3.2,4.9,8.7,7.9,14.6,7.9h0.3c2.9-2,4.8-5.1,5.3-8.7c0.1,0.6,0.1,1.2,0.1,1.8
		c0,2.4-0.7,4.7-2.1,6.8c-1.1,0.2-2.2,0.4-3.3,0.4c-1,0.7-2.2,1.3-3.3,1.7c2.3-0.2,4.5-0.9,6.6-2c-0.2,0.2-0.3,0.5-0.5,0.7
		c-2.3,1.1-4.7,1.7-7.4,1.7h-0.2c-1.2,0.3-2.4,0.4-3.6,0.4c-0.2,0-0.4,0-0.5,0c-1.4,0-2.9-0.3-4.2-0.8c0.9,1,1.9,1.9,3,2.7
		c-0.4-0.1-0.8-0.3-1.2-0.4c-0.4-0.3-0.8-0.7-1.2-1c0.2,0.3,0.3,0.5,0.5,0.8C5.2,22.5,3.5,21,2.3,19z"/>
</g>
</svg>
