<svg xmlns="http://www.w3.org/2000/svg" width="88" height="25" fill="none" viewBox="0 0 88 25">
    <path fill="#B5B5B5" d="M12.655 7.844c4.242-1.257 7.53 1.88 7.793 6.688.328-1.641.24-3.339-.258-4.937-.497-1.598-1.387-3.046-2.589-4.21-.884-.083-1.949-.12-2.846-.208-.48.566-1.617 2.114-2.1 2.667z"/>
    <path fill="#B5B5B5" d="M19.964 8.99c-1.934-3.854-5.471-2.113-7.281-.925-3.924 2.57-5.97-3.081-1.34-4.545 2.76-.871 7.627 1.574 8.621 5.47zM14.424 14.462c-.94 4.27-5.32 5.596-9.7 3.48 3.496 2.612 7.17 2.847 9.479 1.976.511-.72 1.05-1.63 1.56-2.349-.261-.691-1.08-2.418-1.34-3.109"/>
    <path fill="#B5B5B5" d="M9.864 20.238c4.353.193 4.518-3.703 4.353-5.83-.388-4.644 5.623-3.662 4.67 1.05-.553 2.777-5.085 5.802-9.023 4.78zM7.597 12.79C4.42 9.738 5.608 5.372 9.757 2.815c-4.103 1.534-6.24 4.505-6.72 6.895.345.815.84 1.741 1.188 2.556.72.138 2.64.373 3.371.526"/>
    <path fill="#B5B5B5" d="M5.055 5.923c-2.473 3.538.788 5.748 2.709 6.73 4.186 2.14.165 6.646-3.387 3.36-2.1-1.949-2.293-7.338.678-10.087M48.984 15.457h2.267c.032.003.066-.001.096-.013h.18c.539 0 .871.096 1.01.304.143.281.21.596.192.912 0 .538-.138.87-.428.994-.453.132-.925.188-1.396.166h-1.92v-2.363zm0 5.182v-2.253h2.446c.296-.002.592-.024.884-.068.288-.04.559-.155.788-.333.136-.106.245-.244.319-.4.066-.15.113-.308.138-.47 0-.07.013-.152.013-.22v-.57c-.023-.217-.074-.43-.151-.635-.09-.217-.245-.4-.443-.526-.138-.096-.293-.166-.456-.206-.173-.038-.348-.06-.525-.07-.082 0-.152-.013-.24-.013h-3.565v5.76l.792.004zm-2.265-1.727c0 .524-.12.857-.373.995-.426.169-.884.24-1.341.207h-.787c-.425.037-.85-.046-1.23-.24-.128-.123-.225-.275-.283-.443-.058-.168-.075-.348-.049-.524v-4.034h-.815v4.034c0 .83.25 1.34.76 1.506.679.188 1.383.271 2.086.248h.401c.138 0 .263-.013.4-.013.58.046 1.156-.11 1.632-.442.154-.178.27-.384.344-.607.074-.223.102-.458.084-.692v-4.034h-.815l-.014 4.034v.005zM36.41 16.77c.014-.622.138-1.022.36-1.175.394-.192.833-.275 1.27-.24h.263c.55-.03 1.1.03 1.63.179.318.12.47.539.47 1.244v.953c0 .166 0 .318-.014.48-.014.162-.014.318-.014.47-.014.705-.192 1.119-.538 1.257-.56.169-1.144.24-1.728.207-.482.054-.97-.043-1.396-.276-.252-.315-.371-.717-.33-1.12l-.014-.924.04-1.055zm-.83 1.658c0 .194 0 .373.015.567.055.732.29 1.2.704 1.395.588.236 1.22.34 1.852.304h.152c.056-.002.111.003.166.014h.33c.651.063 1.305-.082 1.867-.415.192-.193.34-.424.436-.68.095-.254.135-.527.116-.798.014-.346.015-.677.015-1.023V16.77c0-.898-.249-1.45-.747-1.644-.71-.224-1.453-.323-2.197-.29h-.36c-1.175 0-1.852.248-2.04.76-.211.622-.31 1.277-.29 1.933v.9h-.019zm-5.347-2.984h2.626c.6 0 .953.11 1.08.317.145.29.212.615.193.94.024.165.002.334-.064.488-.065.153-.172.286-.309.383-.373.163-.781.235-1.188.207h-2.349v-2.335h.012zm0 5.195v-2.321h2.446c.36-.029.72.048 1.037.22.12.091.212.212.27.35.059.138.08.29.06.438v1.327h.83v-1.465c.01-.284-.088-.561-.276-.774-.248-.22-.568-.337-.899-.331.622-.098.995-.276 1.106-.54.12-.312.176-.646.166-.98.027-.241-.005-.484-.091-.71-.087-.226-.227-.428-.407-.59-.487-.288-1.051-.418-1.616-.372h-3.413v5.76h.788v-.012zm-4.532-2.293h2.294v.51c0 .54-.11.885-.318 1.036-.424.193-.89.27-1.353.222h-.706c-.096.003-.194-.002-.29-.014-.096.002-.193-.002-.29-.013-.097-.003-.194-.012-.29-.03-.526-.067-.83-.247-.926-.538-.097-.313-.143-.64-.138-.967l-.014-.815.014-.746c-.042-.455.065-.91.305-1.299.193-.193.662-.276 1.44-.276h.746c.248 0 .497.014.732.028.48.013.787.12.898.317.123.253.18.534.166.816h.788v-.221c.024-.399-.11-.791-.373-1.092-.373-.292-.841-.435-1.314-.4h-.856c-.138 0-.29-.015-.429-.015h-.427c-.693-.076-1.39.1-1.963.498-.197.217-.347.473-.44.751-.092.279-.126.573-.099.865v.788c0 .139-.013.262-.013.4v.4c-.048.321-.015.648.096.952.112.305.297.576.54.79.738.344 1.552.487 2.363.415.248 0 .497 0 .745-.014.245 0 .49-.014.733-.04.677-.056 1.09-.264 1.256-.624.16-.38.242-.788.24-1.2v-.72c-.001-.101-.01-.203-.027-.303H25.71v.539h-.008zM77.555 4.182h3.51c.554-.015 1.106.07 1.63.25.231.1.429.263.57.47.142.208.222.452.232.703.052.31.085.625.096.94.014.318.015.636.015.954v.774c0 .12-.015.248-.015.372-.028.27-.078.539-.151.801-.073.25-.206.478-.388.664-.172.172-.386.296-.621.36-.258.067-.522.107-.788.12-.137.016-.276.026-.415.027h-3.675V4.183zm3.814 7.213c1.575 0 2.529-.388 2.88-1.16.356-.839.53-1.743.512-2.654v-.774c.063-.907-.186-1.809-.706-2.556-.404-.345-.876-.602-1.385-.752-.51-.15-1.046-.19-1.572-.119h-4.634v8.015h4.905zm-6.95-8.028v7.32l-5.64-7.32h-1.824v8.014h1.092V4.14l5.64 7.254h1.824V3.38l-1.09-.013h-.002zm-9.59 8.028h1.147V3.38H64.83v8.015zm-1.934-8.028l-2.819 7.32-2.694-7.32h-1.658l-2.708 7.32-2.75-7.32h-1.161l3.082 8.014h1.68l2.694-7.212 2.625 7.212h1.712l3.152-8.014h-1.155zm-15.572 0l-2.971 3.744-2.984-3.744h-1.314l3.69 4.67v3.36h1.12v-3.36l3.785-4.67h-1.326zm-15.96 0v8.014h1.147V7.66h.995l4.588 3.72h1.533l-5.14-4.132 4.587-3.882h-1.489l-4.09 3.496H32.5V3.366l-1.136.001zm-1.05 2.1c0-1.022-.345-1.644-1.022-1.837-.843-.22-1.713-.322-2.584-.305h-.276c-.849-.027-1.695.095-2.501.36-.623.234-.926.84-.926 1.81 0 1.064.386 1.699 1.16 1.893.896.22 1.814.336 2.736.345h.456c.152 0 .304.014.456.014.445-.031.889.075 1.271.304.116.15.201.32.251.503.05.183.063.373.04.561 0 .677-.166 1.105-.48 1.258-.552.204-1.14.289-1.727.248h-.954c-.605.073-1.218-.043-1.755-.331-.307-.413-.44-.93-.373-1.44h-1.08c.002.033-.002.066-.013.097-.012.03-.017.063-.015.096-.01.031-.015.064-.013.097v.097c0 1.008.345 1.63 1.023 1.838.84.237 1.71.344 2.583.318h.48c.166 0 .318 0 .48-.015.162-.014.304-.013.47-.013.165 0 .317-.014.48-.014.911-.069 1.478-.332 1.713-.76.233-.492.347-1.032.331-1.576 0-1.05-.36-1.671-1.063-1.851-.832-.206-1.686-.308-2.543-.304h-.634c-.208 0-.429-.013-.65-.027-.445.036-.887-.102-1.23-.387-.196-.293-.288-.643-.262-.995v-.18c0-.07.012-.12.012-.193.026-.146.079-.287.153-.415.082-.143.208-.255.36-.318.156-.075.325-.122.498-.138.193-.028.4-.055.607-.068.18-.015.36-.015.526-.015h.981c.524-.054 1.053.047 1.52.29.145.161.256.349.327.553.071.204.101.42.088.636h1.105l-.015-.138.01.002z"/>
</svg>
