<svg xmlns="http://www.w3.org/2000/svg" width="99" height="40" fill="none" viewBox="0 0 99 40">
    <path fill="#B5B5B5" fill-rule="evenodd" d="M7.983 24.589V22.84h4.545v2.01c0 1.835.7 2.71 2.098 2.71 1.399 0 2.098-.875 2.098-2.71 0-1.049-.262-2.01-.874-2.972-.612-.874-1.311-1.748-2.185-2.535l-2.273-2.36c-.961-.786-1.748-1.835-2.36-3.059-.612-1.048-.874-2.447-.874-3.933 0-2.272.612-4.02 1.836-5.244C11.13 3.612 12.704 3 14.8 3c2.098 0 3.583.612 4.72 1.835 1.136 1.224 1.66 2.972 1.66 5.245v.874h-4.195V9.73c0-1.835-.7-2.797-2.185-2.797-1.486 0-2.273.962-2.273 2.797 0 .787.175 1.486.525 2.185.35.7.699 1.311 1.223 1.923.525.525 1.05 1.136 1.661 1.66.612.525 1.224 1.137 1.836 1.749.611.612 1.136 1.223 1.66 1.923.525.699.962 1.485 1.224 2.447.35.961.524 1.923.524 3.06 0 2.272-.524 4.02-1.66 5.243-1.137 1.224-2.71 1.836-4.808 1.836-2.097 0-3.67-.612-4.894-1.836-1.224-1.31-1.836-3.059-1.836-5.331zM28.174 16.81h2.097c.7 0 1.224-.175 1.661-.612.35-.437.524-1.049.524-2.01V9.992c0-.961-.174-1.66-.524-2.01-.35-.437-.874-.612-1.66-.612h-2.098v9.44zm-4.458 14.509V3.349h6.468c4.37 0 6.555 2.273 6.555 6.905v3.671c0 4.633-2.185 6.905-6.555 6.905h-2.098V31.32h-4.37zM43.294 15.936h1.749c.874 0 1.573-.262 2.01-.7.437-.437.7-1.223.7-2.272v-2.797c0-1.923-.7-2.884-2.273-2.884h-2.098v8.653h-.087zm-4.457 15.383V3.349h6.643c2.272 0 3.933.525 4.982 1.574 1.048 1.049 1.573 2.71 1.573 4.894v2.186c0 2.884-.962 4.807-2.884 5.68 1.922.787 2.971 2.798 2.971 5.944v4.458c0 1.398.175 2.534.437 3.234h-4.457c-.262-.787-.437-1.923-.437-3.409v-4.37c0-1.311-.262-2.185-.7-2.71-.437-.524-1.223-.786-2.185-.786h-1.573v11.362h-4.37v-.087zM55.007 31.319h4.457V3.349h-4.457v27.97zM67.068 27.298h2.535c.787 0 1.31-.175 1.748-.612.35-.437.612-1.136.612-2.097V22.14c0-1.31-.262-2.185-.7-2.622-.437-.524-1.136-.786-2.184-.786h-2.01v8.565zm0-12.586h1.748c.874 0 1.573-.262 2.01-.7.438-.436.7-1.223.7-2.272v-1.573c0-1.923-.7-2.884-2.273-2.884h-2.185v7.43zm-4.37 16.607V3.349h6.643c2.272 0 3.933.525 4.982 1.574 1.049 1.049 1.573 2.71 1.573 4.894v.962c0 2.884-.962 4.72-2.884 5.681 2.185.874 3.321 2.884 3.321 6.031v2.273c0 2.185-.612 3.845-1.748 4.982-1.136 1.136-2.797 1.66-4.982 1.66h-6.905v-.087zM78.955 31.319V3.349h12.062v3.934h-7.604v7.866h6.03v3.933h-6.03v8.216h7.604v4.02H78.955zM7.896 37h83.208v-3.846H7.896V37z" clip-rule="evenodd"/>
</svg>
