<svg width="70" height="24" viewBox="0 0 70 24" fill="none" xmlns="http://www.w3.org/2000/svg">
<path d="M18.7203 18.7117C17.0041 20.4131 14.6401 21.4641 12.035 21.4641C6.80119 21.4641 2.54131 17.2177 2.54131 12.0004C2.54131 10.7232 2.79662 9.50257 3.25996 8.39031L5.86033 15.045V15.0497L5.86978 15.045L5.87924 15.0497V15.045L7.9028 9.86547L9.93109 15.045V15.0497L9.94055 15.045L9.95 15.0497V15.045L13.4912 5.98671H11.8223L9.94055 10.8033L7.92171 5.64266H7.88862L5.86978 10.8033L3.57673 4.94043C3.17958 5.41644 2.82026 5.92072 2.50349 6.458C1.54844 8.08868 1 9.98329 1 12.0004C1 18.066 5.95016 23.0005 12.035 23.0005C14.8245 23.0005 17.3776 21.9636 19.3255 20.2528L18.7203 18.7117Z" fill="white"/>
<path d="M12.0351 1C9.18415 1 6.57904 2.08398 4.61694 3.86077L5.22212 5.41133C6.94782 3.63926 9.36381 2.53643 12.0304 2.53643C17.2642 2.53643 21.5241 6.78281 21.5241 12.0001C21.5241 13.3291 21.2452 14.5969 20.7487 15.7421L18.1531 9.12986V9.12515L18.1436 9.12986L18.1342 9.12515V9.12986L16.1106 14.3094L14.087 9.12986V9.12515L14.0776 9.12986L14.0681 9.12515V9.12986L10.5411 18.1505H12.21L14.0823 13.3668L16.1011 18.5039H16.1342L18.1531 13.3574L20.4036 19.1685C20.8102 18.6972 21.179 18.1882 21.5052 17.6509C22.5028 15.9966 23.0749 14.0643 23.0749 12.0048C23.0701 5.93447 18.12 1 12.0351 1Z" fill="#0078FF"/>
<path d="M31.5143 8.14453V9.41703C30.6254 8.98344 29.8075 8.76664 29.0605 8.76664C28.1007 8.76664 27.297 9.07298 26.6398 9.69038C25.9826 10.3078 25.6564 11.0666 25.6564 11.962C25.6564 12.8763 25.9921 13.6398 26.6634 14.2525C27.3348 14.8652 28.1764 15.1716 29.1834 15.1716C29.9162 15.1716 30.6964 14.9406 31.5143 14.4788V15.7654C30.7673 16.1613 29.9588 16.3592 29.0841 16.3592C27.8076 16.3592 26.7154 15.9303 25.8077 15.0679C24.8999 14.2054 24.446 13.1685 24.446 11.9479C24.446 10.7508 24.8905 9.72808 25.784 8.87975C26.6776 8.02671 27.7509 7.60254 29.0038 7.60254C29.817 7.60254 30.6491 7.78634 31.5143 8.14453Z" fill="#0078FF"/>
<path d="M35.935 7.54688L39.8308 16.0868H38.6488L37.6891 13.9801H34.1904L33.2448 16.0821H32.0723L35.935 7.54688ZM35.9303 10.1154L34.6112 13.0469H37.2636L35.9303 10.1154Z" fill="#0078FF"/>
<path d="M45.9016 8.78078L44.9891 9.51129C44.7479 9.2615 44.5305 9.0777 44.3319 8.95516C44.138 8.83262 43.8544 8.77135 43.4809 8.77135C43.0743 8.77135 42.748 8.8609 42.4975 9.04471C42.2469 9.22851 42.1192 9.46416 42.1192 9.74694C42.1192 9.99672 42.228 10.2135 42.4502 10.4068C42.6724 10.6 43.0459 10.8074 43.5754 11.0336C44.1049 11.2598 44.5163 11.4719 44.8141 11.6651C45.1073 11.8631 45.3531 12.0751 45.5422 12.3155C45.7313 12.5512 45.8732 12.8009 45.9677 13.0649C46.0623 13.3288 46.1049 13.6069 46.1049 13.8991C46.1049 14.5824 45.8543 15.1668 45.3578 15.6476C44.8614 16.1283 44.2562 16.3687 43.5471 16.3687C42.8568 16.3687 42.2469 16.1801 41.7174 15.8031C41.1878 15.4261 40.7812 14.8605 40.4976 14.1111L41.6228 13.7954C42.0341 14.7191 42.6629 15.181 43.5092 15.181C43.9206 15.181 44.261 15.0584 44.5305 14.8134C44.8047 14.5683 44.9371 14.262 44.9371 13.8849C44.9371 13.6634 44.8661 13.4372 44.7243 13.211C44.5825 12.9847 44.4028 12.8009 44.1948 12.6548C43.982 12.5087 43.6463 12.3438 43.183 12.1505C42.7197 11.962 42.3651 11.7877 42.1145 11.6321C41.8639 11.4766 41.6512 11.2881 41.4668 11.0713C41.2871 10.8545 41.15 10.6377 41.0649 10.4209C40.9798 10.2041 40.9373 9.97787 40.9373 9.7328C40.9373 9.14368 41.1736 8.6441 41.6512 8.22465C42.124 7.80991 42.7008 7.60254 43.3816 7.60254C43.8307 7.60254 44.2846 7.70151 44.7479 7.89474C45.2113 8.08797 45.5942 8.38489 45.9016 8.78078Z" fill="#0078FF"/>
<path d="M47.4758 7.8623H48.5917V16.0864H47.4758V7.8623Z" fill="#0078FF"/>
<path d="M50.3362 7.53223L56.4352 13.7816V7.86213H57.5605V16.468L51.4614 10.2469V16.0863H50.3362V7.53223Z" fill="#0078FF"/>
<path d="M58.9033 11.9243C58.9033 10.7367 59.3525 9.71866 60.2508 8.87504C61.1491 8.02671 62.2271 7.60254 63.4894 7.60254C64.7187 7.60254 65.7778 8.03142 66.6666 8.88447C67.5555 9.73751 67.9999 10.7508 67.9999 11.9243C67.9999 13.1685 67.5602 14.2195 66.6808 15.0773C65.8014 15.9351 64.7234 16.3639 63.4469 16.3639C62.1845 16.3639 61.116 15.9303 60.2271 15.0679C59.343 14.2007 58.9033 13.1544 58.9033 11.9243ZM66.799 11.9762C66.799 11.0713 66.4728 10.3031 65.8156 9.68567C65.1584 9.06356 64.3499 8.7525 63.3949 8.7525C62.4824 8.7525 61.7023 9.06827 61.0545 9.69981C60.4068 10.3313 60.0806 11.0901 60.0806 11.9762C60.0806 12.8763 60.4163 13.6351 61.0829 14.2572C61.7496 14.8794 62.5675 15.1904 63.532 15.1904C64.4208 15.1904 65.1868 14.8746 65.8345 14.2384C66.4775 13.6021 66.799 12.8481 66.799 11.9762Z" fill="#0078FF"/>
</svg>
