<svg xmlns="http://www.w3.org/2000/svg" width="215" height="56" fill="none" viewBox="0 0 215 56">
    <path fill="#FCFCFC" d="M36.644 28.363c0-5.147-4.172-9.347-9.337-9.347-5.141 0-9.336 4.2-9.336 9.347 0 5.147 4.195 9.347 9.336 9.347 5.165-.025 9.337-4.2 9.337-9.347z"/>
    <path fill="#010202" d="M36.644 28.363c0-5.147-4.172-9.347-9.337-9.347-5.141 0-9.336 4.2-9.336 9.347 0 5.147 4.195 9.347 9.336 9.347 5.165-.025 9.337-4.2 9.337-9.347zm-.752-.292v.267c0 1.991-.68 3.812-1.795 5.269.146-.389.17-.826.243-1.166-.194.17-.388.34-.607.51-.63.462-1.333.777-2.012.923l-1.795-1.967-.024.025 1.31 2.33c-.34.607-.85 1.166-1.504 1.651-.218.17-.437.292-.68.413.34.048.777.145 1.165.145-.897.316-1.867.51-2.886.51-1.018 0-1.988-.17-2.886-.51.413.025.825-.072 1.189-.145-.219-.121-.461-.267-.68-.413-.654-.485-1.163-1.044-1.503-1.65l1.31-2.331-.025-.025-1.794 1.967c-.68-.146-1.358-.437-2.013-.923-.218-.145-.412-.315-.606-.51.048.34.097.802.242 1.166-1.14-1.457-1.819-3.278-1.819-5.269v-.267c.098.413.34.801.51 1.117.048-.243.121-.51.194-.777.242-.777.63-1.432 1.115-1.942l2.57.534.025-.024-2.425-1.093c-.073-.68 0-1.432.242-2.185.073-.267.17-.51.291-.728-.339.146-.776.34-1.09.631 1.115-1.675 2.837-2.937 4.825-3.496-.364.219-.703.583-.946.85.243-.024.51-.049.8-.049.8 0 1.553.17 2.183.437l.291 2.598h.024l.291-2.622c.63-.267 1.358-.437 2.159-.437.266 0 .533.024.8.049-.267-.267-.582-.632-.946-.85 1.989.558 3.686 1.82 4.826 3.496-.315-.267-.752-.461-1.091-.631.121.218.218.485.29.728.243.753.316 1.505.243 2.185l-2.4 1.093.024.024 2.57-.534c.461.51.849 1.165 1.091 1.942.073.267.146.51.194.777.17-.292.413-.68.51-1.093zm-6.233 3.496l1.431-4.442-3.783-2.744-3.783 2.744 1.455 4.442h4.68z"/>
    <path fill="#92278F" d="M7.858 12.097c-.048.097-.048.218.024.315.025.049.073.073.122.097l9.748 5.681.024.025c.097.048.219.048.34-.025l.073-.073c.024-.024.024-.024.024-.048.897-1.578 2.158-3.01 3.735-4.152 1.6-1.14 3.37-1.845 5.165-2.16h.048c.049 0 .073-.025.122-.049.097-.073.145-.194.12-.316v-.024L25.344.273V.25c-.025-.049-.025-.097-.049-.121-.073-.098-.17-.146-.29-.122h-.025c-3.444.631-6.863 1.991-9.894 4.152-3.08 2.16-5.48 4.88-7.227 7.939z"/>
    <path fill="#005BAA" d="M2.304 33.534c.048.097.145.17.267.194.048 0 .097 0 .145-.024l10.525-4.055h.024c.097-.048.17-.145.194-.267 0-.048 0-.073-.024-.121 0-.024-.024-.049-.024-.049-.68-1.699-.995-3.568-.898-5.51.121-1.967.68-3.788 1.552-5.39l.024-.025c.025-.024.025-.072.025-.121 0-.121-.049-.243-.146-.291l-.024-.025-9.943-5.34h-.024c-.048-.025-.097-.025-.145-.025-.122 0-.219.049-.267.146 0 .024 0 .024-.024.024C1.916 15.69.849 19.235.63 22.949c-.243 3.738.363 7.332 1.673 10.585z"/>
    <path fill="#009BDF" d="M15.667 51.16c.121.024.218 0 .315-.097.049-.05.073-.073.073-.146l3.346-10.78v-.024c.025-.121 0-.243-.097-.315-.024-.025-.072-.049-.097-.049-.024 0-.024-.024-.048-.024-1.746-.534-3.42-1.433-4.874-2.744-1.456-1.31-2.547-2.864-3.25-4.564 0-.024 0-.024-.024-.024-.025-.049-.049-.073-.073-.097-.097-.073-.218-.097-.34-.049h-.024L.22 36.74l-.024.024c-.049.024-.073.048-.121.073-.073.097-.097.218-.049.315 0 .025 0 .025.024.025 1.383 3.228 3.468 6.239 6.257 8.74 2.813 2.476 6.014 4.224 9.36 5.244z"/>
    <path fill="#00A651" d="M37.662 51.67c.097-.073.146-.17.121-.292 0-.048-.024-.097-.048-.146l-6.28-9.37-.025-.025c-.073-.097-.194-.146-.315-.122-.049 0-.073.025-.122.049-.024 0-.024.024-.048.024-1.504 1.044-3.25 1.773-5.19 2.088-1.94.316-3.831.17-5.601-.34h-.049c-.049-.024-.073-.024-.121 0-.122.025-.219.122-.243.219v.024l-2.983 10.877v.024c-.024.048-.024.097 0 .145.025.122.097.195.219.243H17c3.37.947 7.033 1.214 10.719.607 3.686-.631 7.032-2.015 9.942-4.006z"/>
    <path fill="#FFF200" d="M51.969 34.87c0-.122-.049-.22-.146-.292-.048-.024-.097-.049-.145-.049l-11.252-.874H40.4c-.12 0-.242.049-.29.17-.025.049-.025.073-.025.122v.048c-.121 1.821-.63 3.666-1.576 5.366-.946 1.723-2.231 3.131-3.735 4.2-.024 0-.024.024-.024.024-.024.024-.048.048-.073.097-.048.121-.048.243.025.34l.024.024 6.669 9.104v.025c.024.024.072.073.121.073.097.048.218.048.315-.025.024 0 .024 0 .024-.024 2.838-2.064 5.311-4.783 7.106-8.06 1.77-3.278 2.764-6.774 3.007-10.27z"/>
    <path fill="#F68B1F" d="M47.726 13.14c-.072-.072-.218-.097-.315-.048-.049.024-.097.048-.121.097l-7.76 8.206-.025.024c-.072.073-.097.219-.048.316.024.048.048.073.048.097.025.024.025.024.049.024 1.334 1.238 2.425 2.792 3.177 4.613.727 1.82 1.018 3.715.897 5.535v.049c0 .049 0 .073.024.121.049.122.146.195.267.195h.024l11.252.534h.025c.048 0 .097 0 .145-.025.121-.048.17-.145.194-.267v-.024c.194-3.496-.364-7.138-1.77-10.61-1.407-3.447-3.492-6.433-6.063-8.837z"/>
    <path fill="#ED1C24" d="M28.01 3.04c-.12.025-.217.098-.242.22-.024.048-.024.12-.024.145l1.65 11.168v.024c.023.122.096.219.217.243.049.024.073.024.122.024.024 0 .048 0 .048-.024 1.819-.291 3.71-.194 5.578.34 1.891.534 3.54 1.48 4.923 2.695l.024.024c.024.024.073.049.097.049.121.048.242 0 .315-.098l.024-.024 7.373-8.546.024-.024c.024-.024.048-.073.072-.121.025-.122 0-.219-.072-.316l-.025-.024c-2.643-2.307-5.844-4.103-9.433-5.147-3.565-.947-7.202-1.141-10.67-.607z"/>
    <path fill="#fff" d="M145.552 39.045V23.993h-4.437v1.554c-1.334-1.239-2.45-1.846-4.269-1.846-4.122 0-7.178 3.715-7.178 7.89 0 4.832 2.813 7.818 6.936 7.818 2.813 0 4.438-1.845 4.438-1.845v1.48h4.51zm-4.268-7.405c0 2.185-1.673 3.666-3.662 3.666-2.085 0-3.37-1.724-3.37-3.811 0-1.991 1.358-3.594 3.516-3.594 1.964.025 3.516 1.53 3.516 3.74zm-13.507 5.633V24.017h-4.293v1.675c-1.285-1.36-2.546-1.99-4.437-1.99-3.905 0-6.451 3.447-6.451 7.525 0 4.103 2.595 7.332 6.426 7.332 1.771 0 3.371-.947 4.244-1.748.049.389.024.729.024 1.117 0 1.651-1.455 2.38-3.007 2.38-1.115 0-1.746-.195-2.352-1.239h-5.044c.485 3.4 3.662 5.244 7.299 5.244 4.147.024 7.591-2.403 7.591-7.04zm-4.268-6.046c0 1.7-1.189 3.52-3.444 3.52-1.988 0-3.104-1.602-3.104-3.52 0-1.869 1.043-3.617 3.128-3.617 2.304 0 3.42 1.602 3.42 3.617zm-12.344-11.095c0-1.529-1.237-2.719-2.716-2.719s-2.692 1.263-2.692 2.768c0 1.554 1.189 2.743 2.644 2.743 1.552 0 2.764-1.262 2.764-2.791zM93.559 39.046h10.646v-4.273h-5.82V20.254H93.56v18.79zm-7.153 0h4.51V23.993h-4.438v1.554C85.145 24.308 84.03 23.7 82.21 23.7c-4.122 0-7.178 3.715-7.178 7.89 0 4.832 2.813 7.818 6.936 7.818 2.813 0 4.438-1.845 4.438-1.845v1.48zm.218-7.405c0 2.185-1.65 3.666-3.662 3.666-2.061 0-3.37-1.724-3.37-3.811 0-1.991 1.382-3.594 3.516-3.594 1.964.025 3.516 1.53 3.516 3.74zm-23.038 7.405h10.646v-4.273h-5.82V20.254h-4.826v18.79zm47.094-15.052h-4.486v15.052h4.486V23.993z"/>
    <path fill="url(#paint0_linear)" d="M151.346 33.358h3.941c0 .78.274 1.403.821 1.87.547.457 1.215.686 2.004.686.467 0 .902-.108 1.305-.323.413-.224.74-.53.982-.915.242-.395.363-.834.363-1.318 0-.987-.313-1.718-.941-2.193-.628-.484-1.498-.901-2.61-1.251-.906-.305-1.61-.579-2.112-.82-.502-.252-.973-.602-1.413-1.05-.502-.52-.896-1.121-1.183-1.803-.278-.69-.417-1.394-.417-2.112 0-1.067.269-2.044.807-2.932.547-.897 1.282-1.597 2.206-2.099.924-.502 1.919-.753 2.986-.753.79 0 1.538.148 2.247.444.717.287 1.354.7 1.91 1.237.565.53 1.005 1.153 1.319 1.87.322.709.484 1.453.484 2.233h-3.888c-.027-.627-.265-1.139-.713-1.533-.439-.395-.964-.592-1.574-.592-.61 0-1.098.206-1.466.619-.359.403-.538.915-.538 1.533 0 .673.228 1.189.686 1.547.466.36 1.089.669 1.87.928.977.323 1.753.61 2.327.861.574.243 1.121.583 1.641 1.023 1.435 1.139 2.153 2.681 2.153 4.627 0 .888-.175 1.731-.525 2.53-.341.789-.816 1.475-1.426 2.058-.61.583-1.318 1.036-2.126 1.359-.807.331-1.654.497-2.542.497-1.139 0-2.22-.273-3.242-.82-1.014-.547-1.825-1.296-2.435-2.247-.601-.95-.901-2.004-.901-3.161z"/>
    <path fill="url(#paint1_linear)" d="M166.789 39.089V18.735h3.659v20.354h-3.659z"/>
    <path fill="url(#paint2_linear)" d="M180.981 23.336c1.112 0 2.153.215 3.121.645.978.422 1.834 1.01 2.57 1.763.735.753 1.3 1.623 1.695 2.61.403.977.605 2.022.605 3.134 0 1.103-.206 2.143-.619 3.12-.412.978-1.004 1.848-1.775 2.61-.763.763-1.642 1.35-2.637 1.763-.987.403-2.027.605-3.121.605-1.444 0-2.789-.363-4.036-1.09-1.237-.735-2.224-1.726-2.959-2.972-.727-1.247-1.09-2.592-1.09-4.036 0-1.14.211-2.202.632-3.188.431-.996 1.023-1.861 1.776-2.597.753-.744 1.628-1.322 2.623-1.735.996-.421 2.067-.632 3.215-.632zm-.161 3.578c-.547 0-1.112.126-1.695.377-.574.25-1.058.592-1.453 1.022-.843.852-1.264 1.91-1.264 3.175 0 .798.192 1.551.578 2.26.395.7.928 1.25 1.601 1.655.681.403 1.426.605 2.233.605.852 0 1.619-.197 2.3-.592.682-.404 1.216-.955 1.601-1.655.386-.7.579-1.457.579-2.273 0-.816-.198-1.579-.592-2.287-.395-.709-.937-1.265-1.628-1.668-.691-.413-1.444-.619-2.26-.619z"/>
    <path fill="url(#paint3_linear)" d="M191.609 39.089V27.076h-1.803V23.82h1.803v-5.085h3.659v5.085h2.206v3.256h-2.206v12.013h-3.659z"/>
    <defs>
        <linearGradient id="paint0_linear" x1="163.996" x2="193.004" y1="45.517" y2="45.517" gradientUnits="userSpaceOnUse">
            <stop stop-color="#A87D35"/>
            <stop offset="1" stop-color="#D2AC6E"/>
        </linearGradient>
        <linearGradient id="paint1_linear" x1="163.996" x2="193.004" y1="45.517" y2="45.517" gradientUnits="userSpaceOnUse">
            <stop stop-color="#A87D35"/>
            <stop offset="1" stop-color="#D2AC6E"/>
        </linearGradient>
        <linearGradient id="paint2_linear" x1="163.996" x2="193.004" y1="45.517" y2="45.517" gradientUnits="userSpaceOnUse">
            <stop stop-color="#A87D35"/>
            <stop offset="1" stop-color="#D2AC6E"/>
        </linearGradient>
        <linearGradient id="paint3_linear" x1="163.996" x2="193.004" y1="45.517" y2="45.517" gradientUnits="userSpaceOnUse">
            <stop stop-color="#A87D35"/>
            <stop offset="1" stop-color="#D2AC6E"/>
        </linearGradient>
    </defs>
</svg>
