<svg xmlns="http://www.w3.org/2000/svg" width="181" height="81" fill="none" viewBox="0 0 181 81">
    <path fill="url(#paint0_linear)" d="M0 80.568v-17.66h3.712c.708 0 1.404.031 2.089.093.685.063 1.323.164 1.914.304.6.132 1.194.338 1.786.618.591.273 1.132.619 1.622 1.04.95.793 1.693 1.816 2.23 3.069.536 1.245.805 2.506.805 3.782 0 .615-.07 1.237-.21 1.868-.133.63-.331 1.24-.596 1.832-.264.591-.583 1.14-.957 1.646-.365.506-.79.965-1.272 1.377-.957.817-2.023 1.362-3.198 1.634-1.167.265-2.548.397-4.143.397H0zm3.28-3.175h.408c.7 0 1.327-.023 1.88-.07.56-.046 1.112-.16 1.657-.338.552-.187 1.062-.452 1.529-.794.677-.514 1.198-1.152 1.564-1.914.373-.77.56-1.592.56-2.463 0-.607-.09-1.202-.268-1.786-.18-.591-.448-1.132-.806-1.622-.35-.499-.774-.923-1.272-1.273-.67-.459-1.393-.747-2.17-.864-.779-.124-1.728-.186-2.849-.186H3.28v11.31z"/>
    <path fill="url(#paint1_linear)" d="M30.112 75.362H19.829c.249.77.692 1.385 1.33 1.845.646.459 1.366.688 2.16.688.591 0 1.155-.101 1.692-.303.545-.21.969-.494 1.273-.852h3.513c-.265.778-.724 1.494-1.378 2.147-.645.654-1.412 1.171-2.299 1.553-.88.373-1.774.56-2.684.56-1.269 0-2.436-.311-3.502-.934-1.066-.622-1.914-1.47-2.544-2.544-.623-1.074-.934-2.234-.934-3.479 0-1.291.307-2.482.922-3.571.622-1.098 1.47-1.965 2.544-2.603 1.082-.646 2.273-.97 3.572-.97.934 0 1.813.188 2.638.561.824.366 1.544.872 2.159 1.518.622.638 1.109 1.38 1.459 2.229.35.848.525 1.731.525 2.65 0 .225-.054.727-.163 1.505zm-10.33-2.824h7.295c-.171-.514-.44-.962-.805-1.343-.366-.389-.79-.684-1.272-.887-.475-.202-.985-.303-1.53-.303-.816 0-1.575.237-2.275.712-.7.467-1.172 1.073-1.413 1.82z"/>
    <path fill="url(#paint2_linear)" d="M32.982 80.568V67.32h2.883v1.202h.046c.358-.576.76-.988 1.203-1.237.45-.257 1-.385 1.645-.385h.245v3.081c-.762 0-1.408.207-1.937.619-.28.226-.486.482-.619.77-.132.28-.214.572-.245.876-.03.303-.047.696-.047 1.179v7.143h-3.174z"/>
    <path fill="url(#paint3_linear)" d="M41.267 80.568v-17.66h3.175v5.801h.047c.42-.607 1-1.058 1.739-1.354.74-.303 1.521-.455 2.346-.455.934 0 1.817.19 2.65.572.832.373 1.544.887 2.135 1.54.6.654 1.059 1.409 1.378 2.265.326.856.49 1.747.49 2.673 0 .81-.156 1.661-.467 2.556-.303.895-.716 1.65-1.237 2.265-.32.38-.654.704-1.004.968-.35.257-.731.479-1.144.666-.404.186-.84.33-1.307.432-.467.109-.934.163-1.4.163-2 0-3.479-.743-4.436-2.23h-.058v1.798h-2.907zm6.98-10.563c-1.081 0-2.019.362-2.813 1.085-.786.716-1.179 1.611-1.179 2.685 0 .77.168 1.47.502 2.1.335.631.802 1.125 1.4 1.483.608.358 1.304.537 2.09.537.74 0 1.397-.171 1.973-.513.575-.343 1.023-.818 1.342-1.424.319-.607.479-1.269.479-1.985 0-.739-.16-1.408-.48-2.007-.318-.607-.77-1.086-1.353-1.436-.576-.35-1.23-.525-1.96-.525z"/>
    <path fill="url(#paint4_linear)" d="M57.677 80.568V67.32h3.174v13.248h-3.174zm.327-14.777v-2.288h2.532v2.288h-2.532z"/>
    <path fill="url(#paint5_linear)" d="M71.704 80.568v-17.66h3.991c.84 0 1.564.039 2.171.117.607.077 1.19.26 1.751.548.475.241.899.568 1.272.98.382.413.677.884.887 1.413.218.521.327 1.047.327 1.576 0 .716-.171 1.385-.513 2.007-.335.615-.81 1.07-1.424 1.366.957.304 1.696.837 2.217 1.6.53.762.794 1.653.794 2.672 0 .848-.183 1.634-.549 2.358-.365.716-.898 1.335-1.599 1.856-.63.459-1.33.763-2.1.91-.763.14-1.697.226-2.802.257h-4.423zm3.28-3.175h1.365c.584 0 1.085-.039 1.506-.117.42-.085.817-.256 1.19-.513.576-.381.864-.953.864-1.716 0-.42-.101-.774-.304-1.062-.194-.296-.486-.549-.875-.759-.342-.163-.685-.26-1.027-.292-.335-.038-.763-.058-1.284-.058h-1.436v4.517zm0-7.704h.618c1.066 0 1.81-.085 2.23-.256.31-.148.556-.37.735-.666.179-.295.268-.618.268-.968 0-.343-.101-.654-.303-.934-.195-.28-.463-.487-.806-.619-.249-.124-.63-.187-1.144-.187-.225 0-.408.004-.548.012-.14 0-.292.004-.455.012h-.596v3.606z"/>
    <path fill="url(#paint6_linear)" d="M99.283 67.32v13.248h-2.918v-1.797h-.047c-.482.677-1.144 1.217-1.984 1.622-.833.405-1.67.607-2.51.607-.988 0-1.898-.195-2.73-.584-.833-.389-1.55-.937-2.148-1.645-1.105-1.323-1.658-2.93-1.658-4.821 0-.591.055-1.167.164-1.728.116-.568.295-1.093.537-1.575.249-.49.583-.977 1.003-1.46.67-.778 1.413-1.353 2.23-1.727.824-.373 1.723-.56 2.696-.56.91 0 1.747.194 2.51.583.77.39 1.415.958 1.937 1.705V67.32h2.918zm-3.023 6.607c0-.56-.094-1.078-.28-1.553-.187-.482-.448-.899-.782-1.249-.335-.35-.74-.622-1.214-.817-.475-.202-.988-.303-1.541-.303-1.16 0-2.113.385-2.86 1.155-.739.763-1.108 1.732-1.108 2.907 0 1.074.385 1.98 1.155 2.72.77.739 1.693 1.108 2.766 1.108.747 0 1.416-.171 2.008-.513.591-.35 1.046-.825 1.365-1.424.327-.607.49-1.284.49-2.031z"/>
    <path fill="url(#paint7_linear)" d="M111.77 76.261h3.583c-.295.942-.774 1.77-1.435 2.486-.654.708-1.432 1.26-2.335 1.658-.902.397-1.836.595-2.801.595-.895 0-1.782-.179-2.661-.537-.879-.358-1.634-.84-2.264-1.447-.716-.693-1.257-1.483-1.623-2.37-.358-.887-.537-1.817-.537-2.79 0-.957.183-1.855.549-2.696.366-.84.875-1.583 1.529-2.23.654-.645 1.408-1.143 2.264-1.493.864-.358 1.771-.537 2.72-.537.972 0 1.914.202 2.824.607.911.404 1.701.972 2.37 1.704.669.731 1.136 1.568 1.4 2.51h-3.583c-.685-1.144-1.704-1.716-3.058-1.716-.747 0-1.412.17-1.996.513-.576.335-1.027.802-1.354 1.4-.319.6-.478 1.261-.478 1.985 0 .755.167 1.44.502 2.055.342.606.821 1.081 1.435 1.424.615.342 1.3.513 2.055.513.381 0 .754-.066 1.12-.198.366-.133.7-.32 1.004-.56.311-.25.568-.541.77-.876z"/>
    <path fill="url(#paint8_linear)" d="M127.712 76.261h3.584c-.296.942-.775 1.77-1.436 2.486-.654.708-1.432 1.26-2.334 1.658-.903.397-1.837.595-2.801.595-.895 0-1.782-.179-2.662-.537-.879-.358-1.634-.84-2.264-1.447-.716-.693-1.257-1.483-1.622-2.37-.358-.887-.537-1.817-.537-2.79 0-.957.183-1.855.548-2.696.366-.84.876-1.583 1.529-2.23.654-.645 1.409-1.143 2.265-1.493.863-.358 1.77-.537 2.719-.537.973 0 1.914.202 2.825.607.91.404 1.7.972 2.369 1.704.669.731 1.136 1.568 1.401 2.51h-3.584c-.684-1.144-1.704-1.716-3.058-1.716-.746 0-1.412.17-1.995.513-.576.335-1.027.802-1.354 1.4-.319.6-.479 1.261-.479 1.985 0 .755.167 1.44.502 2.055.342.606.821 1.081 1.436 1.424.614.342 1.299.513 2.054.513.381 0 .755-.066 1.12-.198.366-.133.701-.32 1.004-.56.311-.25.568-.541.77-.876z"/>
    <path fill="url(#paint9_linear)" d="M147.577 67.32v13.248h-2.918v-1.797h-.047c-.483.677-1.144 1.217-1.984 1.622-.833.405-1.669.607-2.51.607-.988 0-1.898-.195-2.731-.584-.832-.389-1.548-.937-2.147-1.645-1.105-1.323-1.658-2.93-1.658-4.821 0-.591.055-1.167.164-1.728.116-.568.295-1.093.536-1.575.249-.49.584-.977 1.004-1.46.669-.778 1.412-1.353 2.229-1.727.825-.373 1.724-.56 2.697-.56.91 0 1.747.194 2.509.583.77.39 1.416.958 1.938 1.705V67.32h2.918zm-3.023 6.607c0-.56-.094-1.078-.281-1.553-.186-.482-.447-.899-.782-1.249-.334-.35-.739-.622-1.213-.817-.475-.202-.989-.303-1.541-.303-1.16 0-2.113.385-2.86 1.155-.739.763-1.109 1.732-1.109 2.907 0 1.074.386 1.98 1.156 2.72.77.739 1.692 1.108 2.766 1.108.747 0 1.416-.171 2.008-.513.591-.35 1.046-.825 1.365-1.424.327-.607.491-1.284.491-2.031z"/>
    <path fill="url(#paint10_linear)" d="M150.575 80.568V67.32h2.883v1.202h.047c.357-.576.758-.988 1.202-1.237.451-.257 1-.385 1.645-.385h.246v3.081c-.763 0-1.409.207-1.938.619-.28.226-.486.482-.619.77-.132.28-.214.572-.245.876-.031.303-.046.696-.046 1.179v7.143h-3.175z"/>
    <path fill="url(#paint11_linear)" d="M172.271 67.32v13.248h-2.918v-1.797h-.046c-.483.677-1.144 1.217-1.984 1.622-.833.405-1.669.607-2.51.607-.988 0-1.898-.195-2.731-.584-.833-.389-1.548-.937-2.148-1.645-1.105-1.323-1.657-2.93-1.657-4.821 0-.591.054-1.167.163-1.728.117-.568.296-1.093.537-1.575.249-.49.584-.977 1.004-1.46.669-.778 1.412-1.353 2.229-1.727.825-.373 1.724-.56 2.697-.56.91 0 1.746.194 2.509.583.77.39 1.416.958 1.937 1.705V67.32h2.918zm-3.023 6.607c0-.56-.093-1.078-.28-1.553-.186-.482-.447-.899-.782-1.249-.334-.35-.739-.622-1.214-.817-.474-.202-.988-.303-1.54-.303-1.16 0-2.113.385-2.86 1.155-.739.763-1.109 1.732-1.109 2.907 0 1.074.386 1.98 1.156 2.72.77.739 1.692 1.108 2.766 1.108.747 0 1.416-.171 2.008-.513.591-.35 1.046-.825 1.365-1.424.327-.607.49-1.284.49-2.031z"/>
    <path fill="url(#paint12_linear)" d="M175.748 80.568V70.145h-1.564V67.32h1.564v-4.412h3.175v4.412h1.914v2.825h-1.914v10.423h-3.175z"/>
    <path fill="#fff" d="M90.262 13.499c-3.575 0-6.487 2.926-6.487 6.52 0 3.593 2.912 6.52 6.487 6.52s6.486-2.927 6.486-6.52c.037-3.594-2.875-6.52-6.486-6.52z"/>
    <path fill="#92278F" d="M76.551 8.498c-.037.074-.037.148 0 .222.037.037.037.074.074.074l6.891 4.038c.074.037.148.037.222 0 .036 0 .037-.037.073-.074v-.037c.627-1.149 1.511-2.149 2.654-2.927 1.142-.815 2.358-1.296 3.648-1.519h.037c.037 0 .037 0 .074-.037.074-.037.11-.148.074-.222L88.823.163c0-.037-.036-.074-.036-.074-.037-.074-.111-.112-.222-.074h-.036c-2.433.444-4.828 1.407-7.003 2.963-2.063 1.408-3.759 3.334-4.975 5.52z"/>
    <path fill="#005BAA" d="M72.608 23.686c.037.074.11.111.184.148.037 0 .074 0 .111-.037l7.444-2.89c.074-.036.148-.11.148-.184V20.61c-.48-1.222-.7-2.519-.627-3.926.074-1.371.48-2.668 1.106-3.816v-.037c0-.037.037-.037.037-.074 0-.074-.037-.185-.11-.222l-7.003-3.779c-.037 0-.074-.037-.11-.037-.074 0-.148.037-.185.111-1.18 2.186-1.916 4.668-2.1 7.335-.222 2.667.184 5.223 1.105 7.52z"/>
    <path fill="#009BDF" d="M82.043 36.17c.074.037.147 0 .221-.074.037-.037.037-.074.037-.111l2.358-7.631c.037-.075 0-.186-.073-.223-.037-.037-.037-.037-.074-.037h-.037c-1.253-.37-2.432-1-3.427-1.926-1.032-.926-1.806-2.037-2.285-3.223v-.037c0-.037-.037-.037-.037-.074-.074-.074-.147-.074-.221-.037l-7.297 3.186c-.037 0-.074.037-.074.074-.037.074-.074.148-.037.222.959 2.297 2.47 4.408 4.423 6.186 1.916 1.742 4.164 3.001 6.523 3.705z"/>
    <path fill="#00A651" d="M97.558 36.54c.074-.037.11-.11.074-.222 0-.037-.037-.074-.037-.111l-4.422-6.631c-.037-.074-.148-.111-.222-.074-.036 0-.036 0-.073.037 0 0-.037 0-.037.037-1.069.74-2.285 1.26-3.649 1.482-1.363.222-2.69.11-3.943-.223H85.138c-.073 0-.147.075-.184.149l-2.1 7.705v.111c0 .074.073.148.147.185h.037c2.395.667 4.975.852 7.555.408 2.58-.445 4.938-1.445 6.965-2.853z"/>
    <path fill="#FFF200" d="M107.693 24.65c0-.075-.037-.15-.111-.186-.037-.037-.073-.037-.11-.037l-7.924-.63c-.074 0-.147.037-.221.111 0 .037-.037.037-.037.074v.037c-.074 1.297-.442 2.594-1.106 3.816-.663 1.222-1.584 2.223-2.616 2.963h-.037c-.037 0-.037.038-.074.075-.036.074-.036.185 0 .222l4.718 6.446.073.074c.074.037.148.037.221 0 1.991-1.445 3.76-3.371 5.013-5.705 1.326-2.297 2.027-4.779 2.211-7.26z"/>
    <path fill="#F68B1F" d="M104.672 9.239c-.074-.037-.147-.075-.221-.037-.037 0-.074.037-.074.074l-5.49 5.816c-.038.074-.075.148-.038.222 0 .037.037.037.037.074l.037.037c.958.89 1.732 1.963 2.248 3.26.516 1.297.7 2.63.627 3.927V22.723c.036.074.11.148.184.148l7.96.37c.037 0 .074 0 .111-.037.074-.037.11-.11.147-.185v-.037c.148-2.482-.258-5.075-1.253-7.52-.958-2.408-2.469-4.52-4.275-6.223z"/>
    <path fill="#ED1C24" d="M90.778 2.089c-.074 0-.147.074-.184.148v.111l1.18 7.928c0 .074.073.148.147.185H92.03c1.29-.222 2.617-.148 3.943.26 1.327.37 2.507 1.037 3.465 1.926h.037c.036 0 .036.037.073.037.074.037.184 0 .221-.074l5.197-6.039c.037-.037.037-.037.037-.074.036-.074 0-.148-.074-.222-1.843-1.63-4.128-2.927-6.67-3.667-2.47-.778-5.05-.927-7.482-.519z"/>
    <path fill="#000" d="M90.26 13.388c-3.648 0-6.596 2.963-6.596 6.63 0 3.668 2.948 6.632 6.597 6.632 3.648 0 6.597-2.964 6.597-6.631 0-3.668-2.949-6.631-6.597-6.631zm4.792 10.372c.11-.26.147-.593.147-.815-.147.111-.258.26-.442.37-.442.334-.958.556-1.4.63l-1.253-1.407.921 1.63c-.258.407-.59.815-1.069 1.185-.147.111-.295.222-.479.296.221.037.553.111.81.111-.626.223-1.326.37-2.026.37-.7 0-1.4-.11-2.027-.37.295 0 .59-.037.848-.11-.148-.075-.332-.186-.48-.297-.442-.333-.81-.74-1.068-1.148l.921-1.63-1.29 1.407c-.479-.11-.958-.333-1.4-.63-.148-.11-.295-.222-.442-.37.036.26.073.556.147.815-.81-1.037-1.29-2.334-1.29-3.741v-.186c.074.297.221.556.369.778.036-.185.073-.37.147-.555.184-.556.442-1 .774-1.37l1.806.37v-.038l-1.695-.777c-.037-.482 0-1 .184-1.556.073-.186.11-.37.22-.519-.22.111-.552.26-.773.445.81-1.186 1.99-2.075 3.39-2.482-.258.148-.479.407-.663.592.184-.037.369-.037.553-.037.553 0 1.105.111 1.548.334l.22 1.852h.038l.22-1.852c.443-.186.96-.334 1.549-.334.184 0 .368 0 .553.037-.185-.185-.406-.444-.664-.592 1.4.407 2.617 1.296 3.39 2.482-.22-.186-.552-.334-.773-.445.074.148.147.333.22.519.185.518.222 1.074.185 1.555l-1.695.778v.038l1.806-.37c.332.37.59.814.774 1.37.073.185.11.37.147.555.11-.222.295-.518.369-.778v.186c-.037 1.37-.516 2.667-1.327 3.704z"/>
    <path fill="#000" d="M87.607 19.13l1.032 3.148h3.28l1.032-3.149-2.69-1.926-2.654 1.926z"/>
    <path fill="#fff" d="M71.172 44.023v8.89h5.049v-2h-2.764v-6.89h-2.285zM80.46 47.654c-1.032 0-1.659.778-1.659 1.704 0 1 .627 1.815 1.622 1.815.958 0 1.732-.704 1.732-1.741-.037-1.075-.774-1.778-1.695-1.778zm-3.833 1.74c0-2 1.474-3.74 3.427-3.74.848 0 1.4.296 2.027.851v-.74h2.101v7.149h-2.138v-.704s-.773.852-2.1.852c-1.99.037-3.317-1.37-3.317-3.667zM90.52 52.914h-5.086v-8.89h2.285v6.89h2.8v2zM93.617 52.914h-2.138v-7.113h2.138v7.113zm-2.36-8.928c0-.704.59-1.296 1.29-1.296.7 0 1.29.555 1.29 1.296s-.59 1.334-1.326 1.334c-.7-.037-1.253-.593-1.253-1.334zM98.075 47.505c-.995 0-1.474.816-1.474 1.704 0 .927.552 1.667 1.474 1.667 1.069 0 1.658-.851 1.658-1.666-.037-.927-.553-1.705-1.658-1.705zM94.5 49.21c0-1.926 1.216-3.556 3.059-3.556.884 0 1.51.297 2.1.926v-.815h2.028v6.26c0 2.187-1.659 3.335-3.612 3.335-1.732 0-3.243-.89-3.464-2.482h2.395c.295.481.59.593 1.142.593.738 0 1.438-.334 1.438-1.112v-.518c-.406.37-1.18.815-2.027.815-1.806.037-3.059-1.482-3.059-3.446zM106.514 47.654c-1.031 0-1.658.778-1.658 1.704 0 1 .627 1.815 1.622 1.815.958 0 1.732-.704 1.732-1.741-.037-1.075-.774-1.778-1.696-1.778zm-3.832 1.74c0-2 1.474-3.74 3.427-3.74.848 0 1.401.296 2.027.851v-.74h2.101v7.149h-2.138v-.704s-.774.852-2.101.852c-1.99.037-3.316-1.37-3.316-3.667z"/>
    <defs>
        <linearGradient id="paint0_linear" x1="-19.508" x2="207.938" y1="84.343" y2="84.343" gradientUnits="userSpaceOnUse">
            <stop stop-color="#A87D35"/>
            <stop offset="1" stop-color="#D5AF71"/>
        </linearGradient>
        <linearGradient id="paint1_linear" x1="-19.508" x2="207.938" y1="84.343" y2="84.343" gradientUnits="userSpaceOnUse">
            <stop stop-color="#A87D35"/>
            <stop offset="1" stop-color="#D5AF71"/>
        </linearGradient>
        <linearGradient id="paint2_linear" x1="-19.508" x2="207.938" y1="84.343" y2="84.343" gradientUnits="userSpaceOnUse">
            <stop stop-color="#A87D35"/>
            <stop offset="1" stop-color="#D5AF71"/>
        </linearGradient>
        <linearGradient id="paint3_linear" x1="-19.508" x2="207.938" y1="84.343" y2="84.343" gradientUnits="userSpaceOnUse">
            <stop stop-color="#A87D35"/>
            <stop offset="1" stop-color="#D5AF71"/>
        </linearGradient>
        <linearGradient id="paint4_linear" x1="-19.508" x2="207.938" y1="84.343" y2="84.343" gradientUnits="userSpaceOnUse">
            <stop stop-color="#A87D35"/>
            <stop offset="1" stop-color="#D5AF71"/>
        </linearGradient>
        <linearGradient id="paint5_linear" x1="-19.508" x2="207.938" y1="84.343" y2="84.343" gradientUnits="userSpaceOnUse">
            <stop stop-color="#A87D35"/>
            <stop offset="1" stop-color="#D5AF71"/>
        </linearGradient>
        <linearGradient id="paint6_linear" x1="-19.508" x2="207.938" y1="84.343" y2="84.343" gradientUnits="userSpaceOnUse">
            <stop stop-color="#A87D35"/>
            <stop offset="1" stop-color="#D5AF71"/>
        </linearGradient>
        <linearGradient id="paint7_linear" x1="-19.508" x2="207.938" y1="84.343" y2="84.343" gradientUnits="userSpaceOnUse">
            <stop stop-color="#A87D35"/>
            <stop offset="1" stop-color="#D5AF71"/>
        </linearGradient>
        <linearGradient id="paint8_linear" x1="-19.508" x2="207.938" y1="84.343" y2="84.343" gradientUnits="userSpaceOnUse">
            <stop stop-color="#A87D35"/>
            <stop offset="1" stop-color="#D5AF71"/>
        </linearGradient>
        <linearGradient id="paint9_linear" x1="-19.508" x2="207.938" y1="84.343" y2="84.343" gradientUnits="userSpaceOnUse">
            <stop stop-color="#A87D35"/>
            <stop offset="1" stop-color="#D5AF71"/>
        </linearGradient>
        <linearGradient id="paint10_linear" x1="-19.508" x2="207.938" y1="84.343" y2="84.343" gradientUnits="userSpaceOnUse">
            <stop stop-color="#A87D35"/>
            <stop offset="1" stop-color="#D5AF71"/>
        </linearGradient>
        <linearGradient id="paint11_linear" x1="-19.508" x2="207.938" y1="84.343" y2="84.343" gradientUnits="userSpaceOnUse">
            <stop stop-color="#A87D35"/>
            <stop offset="1" stop-color="#D5AF71"/>
        </linearGradient>
        <linearGradient id="paint12_linear" x1="-19.508" x2="207.938" y1="84.343" y2="84.343" gradientUnits="userSpaceOnUse">
            <stop stop-color="#A87D35"/>
            <stop offset="1" stop-color="#D5AF71"/>
        </linearGradient>
    </defs>
</svg>
