<svg xmlns="http://www.w3.org/2000/svg" width="17" height="16" fill="none" viewBox="0 0 17 16">
    <path fill="#C6A062" d="M11.818 6.956c.428.08.868.057 1.284-.07.416-.127.795-.352 1.105-.657.31-.305.542-.68.676-1.094.133-.414.165-.854.091-1.283-.003-.02-.012-.04-.026-.057-.014-.016-.032-.028-.052-.034-.02-.007-.042-.008-.063-.003-.02.005-.04.015-.055.03L13.386 5.2c-.132.131-.31.205-.496.205s-.364-.074-.496-.205l-.96-.964c-.13-.13-.204-.308-.204-.494 0-.185.074-.362.204-.494l1.392-1.392c.015-.015.025-.035.03-.055.005-.021.004-.043-.003-.064-.006-.02-.018-.038-.034-.052-.016-.015-.036-.024-.057-.029-.427-.07-.865-.037-1.277.096-.412.134-.786.364-1.09.672-.304.308-.53.685-.66 1.098-.128.414-.156.852-.08 1.278.034.201.016.408-.055.6-.07.192-.19.361-.346.492L2.686 11.6c-.306.308-.478.724-.478 1.158 0 .434.173.85.48 1.156.307.307.724.479 1.158.479.434 0 .85-.174 1.156-.48l5.724-6.573c.133-.153.304-.27.495-.336.192-.068.398-.084.597-.048zM4.39 13.304c-.107.107-.243.18-.39.21-.15.03-.303.014-.442-.044-.14-.058-.26-.155-.343-.281-.084-.126-.13-.274-.13-.425 0-.15.046-.298.13-.424s.203-.224.343-.282c.14-.057.293-.072.441-.043.148.03.284.102.391.21.143.143.224.337.224.54 0 .202-.08.396-.224.54z"/>
</svg>
