<svg xmlns="http://www.w3.org/2000/svg" width="296" height="88" fill="none" viewBox="0 0 296 88">
    <g clip-path="url(#clip0)">
        <path fill="#D3B271" d="M268.255 65h-25.48v22.787h25.48V65z"/>
        <path fill="url(#paint0_radial)" d="M266.937 66.265h-22.859v20.242h22.859V66.265z"/>
        <path fill="#fff" d="M252.22 76.298v8.238c0 .176-.044.294-.205.294-.161 0-.219-.118-.219-.294v-1.089h-.41c-.381 0-1.889 1.265-2.256 1.515-.659-.382-1.464-.765-2.064-.97-.337.323-.586.544-.747.705-.161.162-.22.25-.293.25-.117 0-.249-.132-.249-.25 0-.117.249-.382 1.391-1.559.791-.809 1.098-1.795 1.098-3.28 0-2.472-1.054-4.575-2.269-4.575-.41 0-.601.161-.674.573-.029.206-.117.265-.205.265-.176 0-.278-.294-.278-.794 0-1.133.791-2.045 1.757-2.045.835 0 1.172.677 1.669.618v-1.677c0-.427-.161-.795-.468-1.06-.264-.22-1.67-1.176-2.182-1.176-.176 0-.264.073-.381.073-.073 0-.088-.03-.088-.073 0-.074.044-.118.176-.265l1.772-1.765c.088-.074.132-.118.22-.118.6 0 3.031 1.957 3.324 1.957.468 0 2.943-1.898 3.602-1.898.176 0 .366.162 1.728 1.265.22.177.674.588 1.084.838.366.221.38.265.38.707.22-.044.469-.221 1.889-1.383.41-.338 1.597-1.31 1.684-1.31.118 0 1.099.412 2.563 1.016.425.176.498.22.498.5v11.724c0 .383.044.515.205.662.674.588 1.084.824 1.303.824.073 0 .161-.03.22-.088.117-.162.132-.177.205-.177.073 0 .132.088.132.177 0 .132-1.011 1.412-2.05 2.221-.63-.22-1.714-.97-2.314-1.603-.205-.221-.249-.28-.249-.662v-8.385c0-.971.307-1.633 1.435-3.149.586-.765.63-1 .512-1-.087 0-1.464 1-1.727 1.162-1.216-.706-1.582-.927-2.226-.927-.352 0-.601.177-.601.412v13.946c0 .176-.088.324-.219.324-.117 0-.176-.118-.176-.295v-1.044c-.967.162-1.757 1.294-1.977 1.294-.249 0-1.713-1.765-1.713-1.897v-6.752h-2.607zm-.41-5.782c0-.456-.044-.618-.132-.618-.205 0-.922.457-.922.618v6.282c0 3.104-.366 3.427-1.172 4.28-.366.383-.454.471-.717.795.468.662 2.05.956 2.943.912V70.516zm.41 3.634h2.636v-2.5c0-.472-1.684-1.766-2.255-1.766-.249 0-.381.162-.381.456v3.81zm6.312-3.222c0-.044-.03-.073-.088-.073-.073 0-.176.044-.249.088l-.513.324c-.293.176-.38.28-.38.412v2.265c0 .162.205.265.366.265h.878v-3.28h-.014zm0 5.326h-.85c-.249 0-.366.176-.366.53v4.648c0 .912.381 1.338 1.216 1.412v-6.59zM278.577 76.047c2.475-.367 3.017-1.647 3.017-3.839v-2.31c0-2.427-1.948-3.648-5.858-3.648-3.909 0-5.857 1.221-5.857 3.648v2.722c0 1.912.425 2.913 2.68 3.295-2.255.5-2.68 1.898-2.68 3.943v2.986c0 2.457 1.948 3.678 5.857 3.678 3.91 0 5.858-1.222 5.858-3.678v-2.957c0-2.25-.542-3.53-3.017-3.84zm-2.87-1.28c-.864 0-1.289-.411-1.289-1.22v-3.884c0-.794.425-1.177 1.289-1.177.879 0 1.318.397 1.318 1.177v3.884c0 .809-.439 1.22-1.318 1.22zm0 9.4c-.864 0-1.289-.411-1.289-1.22v-4.399c0-.838.425-1.25 1.289-1.25.879 0 1.318.412 1.318 1.25v4.399c0 .809-.439 1.22-1.318 1.22zM291.874 76.047c2.475-.367 3.017-1.647 3.017-3.839v-2.31c0-2.427-1.948-3.648-5.858-3.648-3.91 0-5.857 1.221-5.857 3.648v2.722c0 1.912.424 2.913 2.68 3.295-2.256.5-2.68 1.898-2.68 3.943v2.986c0 2.457 1.947 3.678 5.857 3.678s5.858-1.222 5.858-3.678v-2.957c0-2.25-.542-3.53-3.017-3.84zm-2.87-1.28c-.864 0-1.289-.411-1.289-1.22v-3.884c0-.794.425-1.177 1.289-1.177.879 0 1.318.397 1.318 1.177v3.884c.014.809-.425 1.22-1.318 1.22zm0 9.4c-.864 0-1.289-.411-1.289-1.22v-4.399c0-.838.425-1.25 1.289-1.25.879 0 1.318.412 1.318 1.25v4.399c.014.809-.425 1.22-1.318 1.22z"/>
    </g>
    <path fill="#fff" d="M158.134 80.385c-.594 0-1.141-.1-1.641-.299-.497-.199-.926-.496-1.288-.89s-.642-.886-.842-1.476c-.199-.59-.299-1.266-.299-2.03 0-.76.096-1.424.287-1.989.195-.565.478-1.057.848-1.475.362-.407.791-.716 1.287-.927.497-.216 1.052-.323 1.666-.323.305 0 .59.022.854.067.268.044.517.101.744.17.195.061.395.139.598.232.208.09.411.19.61.299V73.2h-.097c-.106-.097-.242-.215-.409-.353-.167-.138-.37-.275-.61-.409-.232-.126-.484-.23-.757-.31-.272-.082-.587-.123-.945-.123-.387 0-.753.08-1.098.238-.346.159-.649.392-.909.701-.257.31-.456.698-.598 1.165-.143.468-.214.994-.214 1.58 0 .621.075 1.158.226 1.61.15.447.356.825.616 1.134.252.3.549.528.891.683.341.15.703.225 1.086.225.349 0 .673-.043.97-.128.297-.085.561-.193.793-.323.223-.126.417-.254.579-.384.163-.134.291-.248.385-.342h.091v1.44c-.199.093-.388.182-.567.268-.175.085-.389.168-.641.25-.264.085-.51.15-.738.195-.224.045-.516.067-.878.067zM168.195 80.22h-1.147v-.756c-.353.31-.689.545-1.006.708-.317.158-.671.237-1.062.237-.297 0-.577-.048-.842-.146-.26-.098-.488-.252-.683-.463-.195-.212-.348-.478-.457-.8-.106-.32-.159-.71-.159-1.17v-4.421h1.147v3.878c0 .362.012.663.036.903.029.236.09.443.183.622.094.175.22.303.379.384.162.081.394.122.695.122.281 0 .58-.08.897-.238.317-.159.608-.354.872-.585v-5.086h1.147v6.811zM176.104 80.22h-1.147v-3.878c0-.313-.017-.604-.049-.872-.029-.272-.086-.49-.171-.653-.094-.17-.224-.296-.39-.378-.167-.085-.395-.128-.684-.128-.284 0-.579.077-.884.232-.301.15-.596.348-.885.591v5.086h-1.147V73.41h1.147v.756c.342-.305.679-.539 1.013-.701.333-.163.685-.244 1.055-.244.671 0 1.196.221 1.574.664.378.44.568 1.078.568 1.915v4.421zM182.706 78.373v-3.739c-.285-.138-.549-.235-.793-.292-.24-.061-.48-.092-.72-.092-.581 0-1.039.214-1.372.64-.334.427-.501 1.04-.501 1.836 0 .756.126 1.332.379 1.726.256.394.669.591 1.238.591.297 0 .602-.059.915-.176.317-.118.602-.283.854-.494zm-3.855 2.939c.077.032.191.075.341.128.151.057.322.11.513.159.211.052.406.095.585.128.179.032.374.048.586.048.354 0 .653-.046.897-.14.248-.093.441-.224.579-.39.13-.167.222-.36.275-.58.053-.219.079-.469.079-.75v-.597c-.309.268-.612.467-.909.597-.297.126-.669.19-1.116.19-.777 0-1.395-.29-1.855-.866-.459-.578-.689-1.407-.689-2.489 0-.565.079-1.065.238-1.5.158-.439.372-.81.64-1.116.257-.292.56-.518.909-.677.35-.158.712-.237 1.086-.237.354 0 .659.042.915.128.261.081.521.199.781.353l.067-.292h1.08v6.037c0 1.154-.252 2.002-.756 2.543-.505.54-1.275.81-2.313.81-.333 0-.675-.026-1.024-.078-.346-.053-.669-.124-.97-.214v-1.195h.061zM194.844 80.385c-.594 0-1.141-.1-1.641-.299-.496-.199-.925-.496-1.287-.89-.362-.394-.643-.886-.842-1.476-.2-.59-.299-1.266-.299-2.03 0-.76.095-1.424.286-1.989.196-.565.478-1.057.848-1.475.362-.407.792-.716 1.288-.927.496-.216 1.051-.323 1.665-.323.305 0 .59.022.854.067.269.044.517.101.745.17.195.061.394.139.597.232.208.09.411.19.61.299V73.2h-.097c-.106-.097-.242-.215-.409-.353-.167-.138-.37-.275-.61-.409-.232-.126-.484-.23-.756-.31-.273-.082-.588-.123-.946-.123-.386 0-.752.08-1.098.238-.346.159-.649.392-.909.701-.256.31-.456.698-.598 1.165-.142.468-.214.994-.214 1.58 0 .621.076 1.158.226 1.61.151.447.356.825.616 1.134.253.3.549.528.891.683.342.15.704.225 1.086.225.35 0 .673-.043.97-.128.297-.085.561-.193.793-.323.224-.126.417-.254.58-.384.162-.134.29-.248.384-.342h.091v1.44c-.199.093-.388.182-.567.268-.175.085-.388.168-.64.25-.265.085-.511.15-.739.195-.223.045-.516.067-.878.067zM203.405 78.543v-1.89c-.273.024-.618.059-1.037.104-.415.04-.751.1-1.007.176-.305.094-.557.238-.756.433-.2.192-.299.46-.299.805 0 .39.11.685.329.885.22.199.541.298.964.298.362 0 .689-.077.982-.231.293-.159.568-.352.824-.58zm0 .952c-.094.069-.22.166-.378.292-.155.122-.305.22-.452.293-.203.106-.4.187-.592.244-.187.057-.451.085-.793.085-.28 0-.547-.052-.799-.158-.252-.106-.474-.254-.665-.445-.183-.187-.329-.417-.439-.69-.11-.276-.165-.567-.165-.871 0-.472.1-.873.299-1.202.199-.333.515-.597.946-.793.382-.174.833-.294 1.354-.36.521-.068 1.082-.12 1.684-.152v-.22c0-.268-.041-.483-.122-.646-.082-.166-.195-.294-.342-.384-.146-.093-.325-.154-.537-.183-.211-.032-.429-.049-.652-.049-.265 0-.576.041-.934.122-.358.078-.716.191-1.074.342h-.067v-1.165c.212-.06.515-.128.909-.201.395-.073.785-.11 1.172-.11.467 0 .862.037 1.183.11.322.073.61.205.866.396.249.187.434.43.556.726.122.297.183.659.183 1.085v4.66h-1.141v-.726zm.708-7.184h-.97l-1.129-1.561-1.123 1.561h-.945L201.337 70h1.385l1.391 2.311zM205.985 70l-1.33 1.622h-.786l.756-1.622h1.36zM212.771 76.635c0 1.134-.272 2.038-.817 2.713-.541.671-1.227 1.007-2.056 1.007-.338 0-.637-.04-.897-.116-.26-.078-.527-.198-.799-.36v2.854h-1.147v-9.324h1.147v.713c.284-.256.6-.47.945-.64.35-.175.73-.262 1.141-.262.781 0 1.389.309 1.824.927.439.618.659 1.447.659 2.488zm-1.183.128c0-.777-.124-1.379-.373-1.805-.248-.431-.65-.647-1.207-.647-.326 0-.641.073-.946.22-.301.142-.588.327-.86.555v3.86c.301.146.557.246.768.299.216.052.462.079.739.079.593 0 1.055-.218 1.384-.653.33-.435.495-1.07.495-1.908zM225.903 77.433c0 .452-.085.85-.256 1.196-.171.345-.401.63-.689.853-.342.269-.708.46-1.099.574-.39.11-.894.164-1.512.164h-2.605v-9.08h2.409c.647 0 1.131.023 1.452.067.326.041.637.14.934.3.325.174.563.404.713.688.151.28.226.612.226.994 0 .427-.114.81-.341 1.147-.224.337-.535.601-.934.792v.05c.541.146.96.414 1.257.804.297.386.445.87.445 1.451zm-1.684-4.073c0-.22-.036-.409-.109-.567-.074-.163-.192-.29-.354-.384-.195-.11-.413-.177-.653-.202-.24-.024-.571-.036-.994-.036h-1.16v2.659h1.373c.378 0 .657-.019.836-.055.179-.04.364-.122.555-.244.183-.118.313-.273.391-.464.077-.19.115-.426.115-.707zm.427 4.122c0-.341-.048-.622-.146-.841-.098-.224-.295-.413-.592-.567-.191-.102-.4-.167-.628-.195-.224-.029-.543-.043-.958-.043h-1.373v3.354h.983c.528 0 .945-.025 1.25-.073.305-.05.574-.153.806-.311.227-.159.394-.338.5-.537.106-.203.158-.466.158-.787zM233.519 76.818c0 1.146-.277 2.032-.83 2.658-.553.622-1.289.933-2.209.933-.947 0-1.693-.32-2.238-.963-.541-.647-.812-1.523-.812-2.628 0-1.139.279-2.023.836-2.653.561-.63 1.299-.945 2.214-.945.204 0 .397.016.58.049.187.028.368.075.543.14h.543c.366 0 .624-.065.775-.195.15-.135.225-.346.225-.635 0-.146-.022-.31-.067-.494-.044-.187-.091-.327-.14-.42v-.055h.976c.053.19.09.358.11.5.024.142.037.315.037.518 0 .431-.118.777-.354 1.037-.232.26-.568.43-1.007.512.264.305.466.681.604 1.128.142.443.214.947.214 1.513zm-1.184 0c0-.883-.161-1.537-.482-1.964-.321-.43-.779-.646-1.373-.646-.597 0-1.059.215-1.384.646-.322.427-.482 1.081-.482 1.964 0 .853.16 1.502.482 1.945.325.439.787.658 1.384.658.59 0 1.046-.215 1.367-.646.325-.435.488-1.087.488-1.957zm-.732-5.916c0 .26-.067.47-.201.629-.135.158-.336.28-.604.365v.415h-.671v-.738c.191-.049.335-.112.433-.189.097-.081.146-.201.146-.36 0-.097-.038-.185-.116-.262-.077-.081-.183-.122-.317-.122-.126 0-.228.01-.305.03-.073.017-.159.043-.256.08h-.019v-.64c.078-.025.19-.05.336-.073.15-.025.303-.037.458-.037.329 0 .597.087.805.262.207.175.311.388.311.64zM237.004 80.22h-1.147V73.41h1.147v6.811zm.079-7.952h-1.305V71.08h1.305v1.19z"/>
    <g clip-path="url(#clip1)">
        <path fill="#FCFCFC" d="M49.426 38.19c0-6.931-5.627-12.588-12.594-12.588-6.935 0-12.594 5.657-12.594 12.588 0 6.932 5.66 12.589 12.594 12.589 6.967-.033 12.594-5.657 12.594-12.589z"/>
        <path fill="#010202" d="M49.426 38.19c0-6.931-5.627-12.588-12.594-12.588-6.935 0-12.594 5.657-12.594 12.588 0 6.932 5.66 12.589 12.594 12.589 6.967-.033 12.594-5.657 12.594-12.589zm-1.014-.392v.36c0 2.681-.916 5.133-2.421 7.095.196-.523.229-1.112.327-1.57-.262.23-.523.458-.818.687-.85.622-1.799 1.047-2.715 1.243l-2.42-2.649-.033.033 1.766 3.139c-.458.817-1.145 1.57-2.028 2.223-.294.23-.589.393-.916.556.458.066 1.047.196 1.57.196-1.21.425-2.518.687-3.892.687s-2.682-.229-3.893-.687c.556.033 1.112-.098 1.603-.196-.294-.163-.621-.36-.916-.556-.883-.654-1.57-1.406-2.028-2.223l1.767-3.139-.033-.033-2.42 2.649c-.917-.196-1.832-.589-2.716-1.243-.294-.196-.556-.425-.818-.686.066.457.131 1.079.328 1.57-1.538-1.963-2.454-4.415-2.454-7.096v-.36c.131.556.458 1.08.687 1.504.066-.327.164-.687.262-1.046.327-1.046.85-1.93 1.505-2.616l3.467.72.033-.033-3.271-1.472c-.098-.915 0-1.929.327-2.942.098-.36.229-.687.392-.981-.458.196-1.046.457-1.472.85 1.505-2.256 3.827-3.957 6.51-4.709-.491.295-.949.785-1.276 1.145.327-.033.687-.066 1.08-.066 1.079 0 2.093.23 2.943.589l.393 3.499h.033l.392-3.532c.85-.36 1.832-.588 2.911-.588.36 0 .72.032 1.08.065-.36-.36-.785-.85-1.276-1.144 2.682.752 4.972 2.452 6.51 4.708-.426-.36-1.014-.621-1.472-.85.163.294.294.654.392.98.327 1.015.425 2.028.327 2.944l-3.238 1.471.033.033 3.467-.72c.621.687 1.145 1.57 1.472 2.616.098.36.196.687.262 1.047.229-.393.556-.916.687-1.472zm-8.407 4.709l1.93-5.984-5.103-3.695-5.103 3.695 1.963 5.983h6.313z"/>
        <path fill="#92278F" d="M10.598 16.283c-.065.131-.065.295.033.425.033.066.098.098.164.131l13.15 7.651.032.033c.13.065.294.065.458-.033l.098-.098c.033-.032.033-.032.033-.065 1.21-2.126 2.911-4.055 5.037-5.591 2.16-1.537 4.547-2.485 6.968-2.91h.065c.066 0 .098-.033.164-.066.13-.098.196-.261.163-.425v-.033L34.183.36V.327c-.033-.065-.033-.13-.066-.163-.098-.131-.229-.197-.392-.164h-.033c-4.645.85-9.257 2.681-13.346 5.591-4.154 2.91-7.393 6.572-9.748 10.692z"/>
        <path fill="#005BAA" d="M3.107 45.155c.065.13.196.229.36.261.065 0 .13 0 .196-.032l14.197-5.46h.032c.131-.066.23-.197.262-.36 0-.066 0-.098-.033-.164 0-.032-.032-.065-.032-.065-.916-2.289-1.342-4.807-1.21-7.422.163-2.649.915-5.101 2.093-7.26l.032-.032c.033-.033.033-.098.033-.163 0-.164-.065-.327-.196-.393l-.033-.033L5.397 16.84h-.033c-.065-.033-.13-.033-.196-.033-.164 0-.295.066-.36.197 0 .032 0 .032-.033.032C2.584 21.122 1.145 25.896.85 30.9c-.327 5.035.49 9.874 2.257 14.256z"/>
        <path fill="#009BDF" d="M21.13 68.893c.164.033.295 0 .426-.13.065-.066.098-.099.098-.197l4.514-14.517v-.033c.033-.164 0-.327-.13-.425-.034-.033-.099-.066-.132-.066-.032 0-.032-.032-.065-.032-2.355-.72-4.612-1.93-6.575-3.695-1.963-1.766-3.435-3.858-4.383-6.147 0-.033 0-.033-.033-.033-.033-.065-.065-.098-.098-.13-.13-.099-.295-.131-.458-.066h-.033L.294 49.471l-.033.033c-.065.032-.098.065-.163.098-.099.13-.131.294-.066.425 0 .032 0 .032.033.032 1.864 4.35 4.677 8.404 8.44 11.772 3.794 3.335 8.111 5.689 12.626 7.062z"/>
        <path fill="#00A651" d="M50.8 69.58c.13-.098.196-.229.163-.392 0-.066-.033-.131-.066-.197l-8.472-12.62-.032-.034c-.098-.13-.262-.196-.425-.163-.066 0-.099.033-.164.065-.033 0-.033.033-.066.033-2.028 1.406-4.383 2.387-7 2.812-2.617.425-5.168.229-7.556-.458h-.065c-.066-.032-.098-.032-.164 0-.163.033-.294.164-.327.295v.032l-4.023 14.649v.032c-.033.066-.033.131 0 .197.032.163.13.261.294.326h.033c4.547 1.276 9.486 1.635 14.458.818 4.972-.85 9.486-2.714 13.411-5.395z"/>
        <path fill="#FFF200" d="M70.099 46.953c0-.163-.066-.294-.196-.392-.066-.033-.131-.065-.197-.065l-15.178-1.178h-.032c-.164 0-.327.066-.393.23-.032.065-.032.097-.032.163v.065c-.164 2.453-.85 4.938-2.127 7.226-1.275 2.322-3.009 4.218-5.037 5.657-.033 0-.033.033-.033.033-.032.032-.065.065-.098.13-.065.164-.065.328.033.458l.033.033 8.995 12.261v.033c.033.033.098.098.163.098.131.066.295.066.426-.032.032 0 .032 0 .032-.033 3.828-2.78 7.164-6.442 9.585-10.856 2.388-4.414 3.729-9.122 4.056-13.83z"/>
        <path fill="#F68B1F" d="M64.374 17.69c-.098-.099-.294-.132-.425-.066-.066.033-.131.065-.164.13L53.318 28.807l-.033.033c-.098.098-.13.294-.065.425.032.066.065.098.065.13.033.034.033.034.065.034 1.8 1.667 3.271 3.76 4.285 6.212.982 2.452 1.374 5.003 1.21 7.455v.066c0 .065 0 .097.034.163.065.163.196.262.36.262h.032l15.178.719h.033c.065 0 .13 0 .196-.033.163-.065.229-.196.262-.36v-.032c.261-4.709-.491-9.613-2.388-14.289-1.898-4.643-4.71-8.665-8.178-11.902z"/>
        <path fill="#ED1C24" d="M37.78 4.087c-.164.033-.295.131-.327.294-.033.066-.033.164-.033.197l2.224 15.04v.033c.033.164.131.294.295.327.065.033.098.033.163.033.033 0 .066 0 .066-.033 2.453-.392 5.004-.262 7.523.458 2.552.72 4.776 1.994 6.64 3.63l.033.032c.033.033.098.065.131.065.163.066.327 0 .425-.13l.033-.033 9.944-11.51.033-.032c.032-.033.065-.098.098-.164.032-.163 0-.294-.098-.425l-.033-.033c-3.566-3.106-7.883-5.525-12.725-6.931-4.808-1.276-9.715-1.537-14.392-.818z"/>
        <path fill="#fff" d="M196.33 52.577V32.305h-5.986v2.093c-1.799-1.668-3.304-2.485-5.757-2.485-5.561 0-9.682 5.002-9.682 10.626 0 6.507 3.794 10.529 9.355 10.529 3.794 0 5.986-2.485 5.986-2.485v1.994h6.084zm-5.757-9.972c0 2.942-2.257 4.937-4.939 4.937-2.813 0-4.547-2.322-4.547-5.134 0-2.68 1.832-4.839 4.743-4.839 2.649.033 4.743 2.06 4.743 5.036zm-18.22 7.585V32.338h-5.79v2.256c-1.733-1.831-3.434-2.681-5.986-2.681-5.266 0-8.701 4.643-8.701 10.136 0 5.526 3.5 9.874 8.668 9.874 2.388 0 4.547-1.275 5.725-2.354.065.523.033.981.033 1.504 0 2.224-1.963 3.205-4.057 3.205-1.504 0-2.355-.262-3.173-1.668h-6.803c.654 4.578 4.939 7.063 9.846 7.063 5.593.032 10.238-3.237 10.238-9.483zm-5.757-8.141c0 2.289-1.603 4.74-4.645 4.74-2.682 0-4.187-2.157-4.187-4.74 0-2.518 1.407-4.872 4.22-4.872 3.107 0 4.612 2.158 4.612 4.872zm-16.65-14.943c0-2.06-1.668-3.662-3.663-3.662-1.996 0-3.631 1.7-3.631 3.728 0 2.092 1.602 3.694 3.565 3.694 2.094 0 3.729-1.7 3.729-3.76zm-23.748 25.471h14.36v-5.754h-7.85V27.27h-6.51v25.307zm-9.65 0h6.085V32.305h-5.986v2.093c-1.8-1.668-3.304-2.485-5.758-2.485-5.56 0-9.682 5.002-9.682 10.626 0 6.507 3.795 10.529 9.355 10.529 3.795 0 5.986-2.485 5.986-2.485v1.994zm.295-9.972c0 2.942-2.224 4.937-4.939 4.937-2.781 0-4.547-2.322-4.547-5.134 0-2.68 1.864-4.839 4.743-4.839 2.649.033 4.743 2.06 4.743 5.036zm-31.075 9.972h14.36v-5.754h-7.851V27.27h-6.51v25.307zm63.524-20.272h-6.052v20.272h6.052V32.305z"/>
        <path fill="url(#paint1_linear)" d="M208.597 52.577h-4.972V27.172h6.051c1.93 0 3.337.065 4.286.196.948.13 1.733.36 2.388.654 1.439.686 2.551 1.602 3.303 2.812.753 1.21 1.145 2.615 1.145 4.25 0 1.962-.556 3.63-1.635 5.003-1.08 1.373-2.552 2.223-4.416 2.616l6.346 9.842h-5.921l-6.575-11.804v11.836zm0-13.046h1.112c2.028 0 3.533-.36 4.58-1.079 1.046-.72 1.57-1.798 1.57-3.172 0-1.34-.425-2.354-1.309-2.975-.883-.654-2.224-.948-4.088-.948h-1.865v8.174zm13.444 3.368c0-1.34.262-2.616.753-3.858.49-1.21 1.21-2.29 2.158-3.237.982-.981 2.061-1.7 3.272-2.224 1.21-.523 2.453-.785 3.761-.785 1.374 0 2.65.23 3.827.687 1.178.458 2.257 1.145 3.206 2.06 1.014.98 1.766 2.093 2.323 3.335.556 1.275.817 2.55.817 3.891 0 1.471-.229 2.812-.719 4.022-.491 1.21-1.178 2.289-2.159 3.27-.949.98-2.028 1.732-3.271 2.256-1.211.49-2.552.752-3.991.752s-2.748-.262-3.958-.752c-1.178-.524-2.257-1.276-3.238-2.29-.916-1.013-1.636-2.092-2.127-3.302-.425-1.21-.654-2.484-.654-3.825zm4.612-.033c0 1.766.491 3.205 1.472 4.218.982 1.046 2.29 1.57 3.991 1.57 1.636 0 2.977-.524 3.958-1.603.981-1.079 1.472-2.485 1.472-4.283 0-1.602-.523-2.943-1.537-3.989-1.014-1.046-2.323-1.57-3.893-1.57-1.603 0-2.911.524-3.925 1.57-1.047 1.046-1.538 2.42-1.538 4.087zm17.141.033c0-1.34.262-2.616.752-3.858.491-1.21 1.21-2.29 2.159-3.237.981-.981 2.061-1.7 3.271-2.224 1.21-.523 2.453-.785 3.762-.785 1.374 0 2.65.23 3.827.687 1.178.458 2.257 1.145 3.206 2.06 1.014.98 1.766 2.093 2.322 3.335.556 1.275.818 2.55.818 3.891 0 1.471-.229 2.812-.72 4.022-.49 1.21-1.177 2.289-2.159 3.27-.948.98-2.028 1.732-3.271 2.256-1.21.49-2.551.752-3.99.752-1.44 0-2.748-.262-3.958-.752-1.178-.524-2.257-1.276-3.239-2.29-.916-1.013-1.635-2.092-2.126-3.302-.425-1.21-.654-2.484-.654-3.825zm4.612-.033c0 1.766.491 3.205 1.472 4.218.981 1.046 2.29 1.57 3.991 1.57 1.635 0 2.976-.524 3.958-1.603.981-1.079 1.472-2.485 1.472-4.283 0-1.602-.524-2.943-1.538-3.989-1.014-1.046-2.322-1.57-3.892-1.57-1.603 0-2.911.524-3.926 1.57-1.046 1.046-1.537 2.42-1.537 4.087zm22.701-9.482v2.19c.655-.882 1.407-1.503 2.257-1.928.851-.425 1.799-.622 2.879-.622 1.537 0 2.878.262 3.958.818 1.112.556 2.028 1.406 2.846 2.55.752-1.144 1.603-1.994 2.551-2.55.949-.556 1.996-.85 3.108-.85 2.355 0 4.154.752 5.397 2.223 1.243 1.471 1.897 3.597 1.897 6.343v11.02h-4.383v-8.502c0-2.616-.294-4.382-.85-5.297-.589-.948-1.571-1.406-2.977-1.406-1.472 0-2.519.523-3.173 1.57-.622 1.046-.949 2.844-.949 5.427v8.207h-4.416v-8.501c0-2.583-.294-4.349-.883-5.297-.589-.948-1.603-1.406-3.075-1.406-1.504 0-2.551.523-3.205 1.57-.655 1.046-.982 2.844-.982 5.427v8.207h-4.317V33.384h4.317z"/>
    </g>
    <defs>
        <clipPath id="clip0">
            <path fill="#fff" d="M0 0H52.283V22.629H0z" transform="translate(242.73 65)"/>
        </clipPath>
        <clipPath id="clip1">
            <path fill="#fff" d="M0 0H296V75.433H0z"/>
        </clipPath>
        <radialGradient id="paint0_radial" cx="0" cy="0" r="1" gradientTransform="matrix(40.5705 0 0 20.2232 256.009 67.34)" gradientUnits="userSpaceOnUse">
            <stop stop-color="#C01617"/>
            <stop offset=".505" stop-color="#BE181B"/>
            <stop offset="1" stop-color="#C7120C"/>
        </radialGradient>
        <linearGradient id="paint1_linear" x1="203.64" x2="295.998" y1="40.128" y2="40.128" gradientUnits="userSpaceOnUse">
            <stop stop-color="#A87D36"/>
            <stop offset="1" stop-color="#D8B074"/>
        </linearGradient>
    </defs>
</svg>
