<svg xmlns="http://www.w3.org/2000/svg" width="127" height="41" fill="none" viewBox="0 0 127 41">
    <path fill="#fff" d="M20.17 26.987c3.646 0 6.6-2.955 6.6-6.6 0-3.646-2.954-6.6-6.6-6.6-3.645 0-6.6 2.954-6.6 6.6 0 3.645 2.955 6.6 6.6 6.6zM57.333 28.152H47.016V10.18h4.659v13.922h5.658v4.049zM65.93 17.503c-2.053 0-3.384 1.553-3.384 3.439 0 1.996 1.276 3.66 3.273 3.66 1.941 0 3.55-1.442 3.55-3.494-.056-2.108-1.554-3.605-3.44-3.605zm-7.821 3.55c0-3.994 2.94-7.544 6.933-7.544 1.775 0 2.829.61 4.105 1.775v-1.498h4.27v14.421h-4.381v-1.386s-1.553 1.775-4.271 1.775c-3.938-.056-6.656-2.94-6.656-7.544zM86.341 28.152H76.025V10.18h4.659v13.922h5.657v4.049zM92.664 28.152h-4.326V13.731h4.326v14.421zm-4.77-18.026c0-1.443 1.165-2.663 2.607-2.663 1.442 0 2.663 1.165 2.663 2.607 0 1.498-1.165 2.662-2.663 2.662-1.497 0-2.607-1.164-2.607-2.606zM101.761 17.225c-2.053 0-3.05 1.664-3.05 3.44 0 1.83 1.108 3.383 2.994 3.383 2.163 0 3.328-1.72 3.328-3.328.056-1.942-1.054-3.495-3.272-3.495zm-7.266 3.44c0-3.883 2.496-7.211 6.267-7.211 1.831 0 3.051.61 4.271 1.885v-1.608h4.16v12.702c0 4.437-3.328 6.767-7.377 6.767-3.55 0-6.6-1.775-7.044-5.048h4.881c.61.998 1.22 1.165 2.274 1.165 1.498 0 2.94-.721 2.94-2.274v-1.054c-.832.776-2.385 1.664-4.105 1.664-3.716.055-6.267-3.05-6.267-6.989zM118.9 17.503c-2.052 0-3.384 1.553-3.384 3.439 0 1.996 1.276 3.66 3.273 3.66 1.941 0 3.55-1.442 3.55-3.494-.056-2.108-1.498-3.605-3.439-3.605zm-7.821 3.55c0-3.994 2.94-7.544 6.933-7.544 1.775 0 2.829.61 4.16 1.775v-1.498h4.271v14.421h-4.382v-1.386s-1.553 1.775-4.271 1.775c-3.993-.056-6.711-2.94-6.711-7.544z"/>
    <path fill="#893A96" d="M6.248 8.794c-.055.056-.055.167 0 .222 0 .056.056.056.111.056l6.989 4.049c.055.055.166.055.222 0l.055-.056v-.055c.666-1.165 1.553-2.163 2.663-2.94 1.165-.832 2.385-1.331 3.716-1.553 0 0 .055 0 .055-.055.056-.056.111-.167.111-.222L18.784.308c0-.055 0-.055-.056-.11-.055-.056-.11-.112-.222-.112-2.44.444-4.88 1.442-7.1 2.995-2.162 1.553-3.882 3.55-5.158 5.713z"/>
    <path fill="#0065B1" d="M2.255 24.103c.055.055.11.111.166.111h.111l7.543-2.884c.056-.056.111-.111.111-.222v-.056-.055c-.499-1.22-.72-2.552-.61-3.938.111-1.387.5-2.718 1.11-3.827v-.111c0-.111-.056-.167-.111-.222L3.53 9.072h-.11c-.111 0-.167.055-.222.11-1.22 2.22-1.942 4.715-2.108 7.378-.167 2.662.277 5.213 1.165 7.543z"/>
    <path fill="#0B9BD7" d="M11.85 36.694c.056 0 .167 0 .222-.056 0-.055.056-.055.056-.11l2.385-7.71c0-.056 0-.167-.056-.222l-.055-.056h-.056c-1.275-.388-2.44-.998-3.494-1.941-1.054-.943-1.83-2.052-2.33-3.273l-.055-.055c-.056-.055-.166-.055-.222-.055L.813 26.377c-.056 0-.056.056-.056.056-.055.055-.055.166-.055.221.998 2.33 2.496 4.438 4.492 6.268 1.997 1.83 4.271 3.05 6.656 3.772z"/>
    <path fill="#0FB15F" d="M27.603 37.082c.055-.055.11-.11.11-.222 0-.055 0-.055-.055-.11l-4.492-6.712c-.056-.055-.111-.111-.222-.111h-.056-.055c-1.054.721-2.33 1.276-3.717 1.498-1.386.221-2.717.11-3.993-.222h-.111c-.111 0-.167.055-.167.166l-2.163 7.765v.111c0 .056.056.167.167.167 2.385.665 5.047.887 7.654.443 2.607-.388 4.992-1.33 7.1-2.773z"/>
    <path fill="#FDDC2D" d="M37.808 25.046c0-.056-.055-.166-.11-.222-.056 0-.056-.055-.111-.055l-8.043-.61c-.111 0-.166.055-.222.11v.111c-.11 1.332-.444 2.607-1.11 3.828-.665 1.22-1.608 2.218-2.662 2.995l-.055.055c-.056.056-.056.166 0 .222l4.77 6.49.055.055c.056.055.167.055.222 0 2.053-1.498 3.772-3.439 5.103-5.768 1.331-2.164 1.997-4.715 2.163-7.211z"/>
    <path fill="#F68D32" d="M34.813 9.515c-.055-.055-.166-.055-.222-.055-.055 0-.055.055-.11.055l-5.547 5.88c-.056.055-.056.166-.056.222 0 0 0 .055.056.055.943.888 1.775 1.997 2.274 3.273.5 1.275.721 2.662.666 3.938v.11c.055.112.11.112.166.167l8.043.388h.11c.056-.055.111-.11.111-.166.111-2.496-.277-5.103-1.275-7.599-.888-2.385-2.385-4.548-4.216-6.268z"/>
    <path fill="#EE3435" d="M20.67 2.305c-.056 0-.167.055-.167.166v.111l1.165 7.987c0 .056.055.167.166.167h.111c1.276-.222 2.662-.167 3.994.222 1.33.388 2.551 1.053 3.494 1.94l.055.056c.111 0 .167 0 .222-.055l5.27-6.101s.055-.056.055-.111c0-.056 0-.167-.055-.222-1.886-1.664-4.16-2.94-6.767-3.66-2.44-.722-5.048-.888-7.544-.5z"/>
    <path fill="#000" d="M25.051 24.158c.111-.277.111-.61.167-.832-.111.111-.278.222-.444.389-.444.332-.943.554-1.442.665l-1.276-1.386.943 1.663c-.222.444-.61.832-1.054 1.165-.166.111-.333.222-.499.278.222.055.555.11.832.11-.666.222-1.331.333-2.052.333-.721 0-1.442-.11-2.052-.332.277 0 .61-.056.832-.111-.167-.111-.333-.167-.5-.278-.443-.332-.832-.72-1.053-1.165l.942-1.663-1.275 1.386c-.5-.11-.999-.333-1.442-.665-.167-.111-.278-.222-.444-.389.055.222.055.555.166.832-.832-1.053-1.276-2.33-1.276-3.771v-.222c.056.277.222.554.389.776.055-.166.055-.388.11-.554.167-.555.444-.999.777-1.387l1.83.388-1.719-.776c-.055-.5 0-.999.167-1.553.055-.167.11-.333.221-.5-.221.111-.554.278-.776.444.832-1.22 1.997-2.107 3.439-2.496-.277.167-.5.444-.666.61.167 0 .389-.055.555-.055.555 0 1.11.11 1.553.333l.222 1.886.222-1.886c.443-.222.998-.333 1.553-.333.166 0 .388 0 .554.055-.166-.166-.443-.443-.665-.61 1.442.389 2.662 1.276 3.439 2.496-.222-.222-.555-.333-.777-.444.056.167.166.333.222.5.166.554.222 1.053.166 1.553l-1.719.776 1.83-.388c.333.388.61.832.777 1.387.055.166.11.388.11.554.112-.222.278-.499.334-.776v.222c.055 1.442-.444 2.773-1.22 3.771zm-4.88-10.427c-3.661 0-6.657 2.995-6.657 6.656 0 3.66 2.996 6.656 6.656 6.656 3.661 0 6.656-2.996 6.656-6.656.056-3.661-2.94-6.656-6.656-6.656z"/>
    <path fill="#000" d="M17.508 19.555l.998 3.161h3.328l1.054-3.161-2.718-1.997-2.662 1.997z"/>
</svg>
