<svg xmlns="http://www.w3.org/2000/svg" width="35" height="49" fill="none" viewBox="0 0 35 49">
    <path fill="#fff" d="M16.716 11.727c-3.116 0-5.653 2.538-5.653 5.653 0 3.116 2.537 5.653 5.653 5.653 3.115 0 5.653-2.537 5.653-5.653.032-3.115-2.506-5.653-5.653-5.653z"/>
    <path fill="#92278F" d="M4.767 7.39c-.032.065-.032.13 0 .194.032.032.032.064.064.064l6.007 3.501c.064.032.128.032.192 0 .033 0 .033-.032.065-.064v-.032c.546-.996 1.317-1.863 2.312-2.538.996-.707 2.056-1.124 3.18-1.317h.032c.032 0 .032 0 .065-.032.064-.032.096-.128.064-.193L15.463.163c0-.031-.032-.063-.032-.063-.032-.065-.096-.097-.193-.065h-.032c-2.12.386-4.208 1.221-6.103 2.57-1.798 1.22-3.276 2.89-4.336 4.786z"/>
    <path fill="#005BAA" d="M1.33 20.56c.032.064.097.097.16.129.033 0 .065 0 .097-.032l6.488-2.506c.065-.032.129-.096.129-.16v-.097c-.418-1.06-.61-2.184-.546-3.405.064-1.188.417-2.312.963-3.308v-.032c0-.032.033-.032.033-.064 0-.065-.033-.16-.097-.193L2.454 7.616c-.032 0-.064-.032-.096-.032-.064 0-.128.032-.16.096C1.17 9.575.527 11.727.366 14.04c-.193 2.312.16 4.529.963 6.52z"/>
    <path fill="#009BDF" d="M9.553 31.385c.064.032.128 0 .193-.065.032-.032.032-.064.032-.096l2.056-6.617c.032-.064 0-.16-.065-.192-.032-.032-.032-.032-.064-.032h-.032c-1.092-.322-2.12-.868-2.987-1.67-.9-.804-1.574-1.767-1.992-2.795v-.032c0-.032-.032-.032-.032-.065-.064-.064-.128-.064-.193-.032L.11 22.552c-.031 0-.064.032-.064.064-.032.064-.064.128-.032.193.835 1.991 2.152 3.822 3.855 5.364 1.67 1.51 3.63 2.601 5.685 3.212z"/>
    <path fill="#00A651" d="M23.076 31.706c.064-.032.096-.097.064-.193 0-.032-.032-.064-.032-.096l-3.855-5.75c-.032-.064-.128-.096-.192-.064-.033 0-.033 0-.065.032 0 0-.032 0-.032.032-.931.643-1.991 1.092-3.18 1.285-1.188.193-2.345.096-3.437-.193h-.096c-.064 0-.128.065-.16.129l-1.831 6.68v.097c0 .064.064.129.128.16h.032c2.088.579 4.337.74 6.585.354 2.248-.385 4.304-1.253 6.07-2.473z"/>
    <path fill="#FFF200" d="M31.909 21.395c0-.064-.033-.128-.097-.16-.032-.032-.064-.032-.096-.032l-6.906-.546c-.064 0-.128.032-.193.096 0 .032-.032.032-.032.064v.032c-.064 1.124-.385 2.249-.963 3.309-.579 1.06-1.382 1.927-2.281 2.57h-.032c-.032 0-.032.031-.064.063-.032.065-.032.161 0 .193l4.111 5.589.064.064c.064.032.129.032.193 0 1.735-1.252 3.276-2.923 4.368-4.946 1.157-1.992 1.767-4.144 1.927-6.296z"/>
    <path fill="#F68B1F" d="M29.275 8.033c-.065-.032-.129-.064-.193-.032-.032 0-.064.032-.064.064l-4.786 5.043c-.032.065-.064.129-.032.193 0 .032.032.032.032.064l.032.032c.835.771 1.51 1.703 1.96 2.827.449 1.124.61 2.28.545 3.405v.096c.032.064.097.128.16.128l6.939.322c.032 0 .064 0 .096-.032.065-.033.097-.097.129-.161v-.032c.128-2.152-.225-4.4-1.092-6.52-.835-2.088-2.152-3.92-3.726-5.397z"/>
    <path fill="#ED1C24" d="M17.166 1.834c-.065 0-.129.064-.161.129v.096l1.028 6.874c0 .064.064.128.128.16h.097c1.124-.192 2.28-.128 3.436.225 1.157.321 2.185.9 3.02 1.67h.032c.032 0 .032.033.064.033.064.032.16 0 .193-.065l4.529-5.235c.032-.032.032-.032.032-.065.032-.064 0-.128-.064-.192-1.606-1.414-3.598-2.538-5.814-3.18-2.152-.675-4.4-.803-6.52-.45z"/>
    <path fill="#000" d="M16.716 11.63c-3.18 0-5.75 2.57-5.75 5.75s2.57 5.75 5.75 5.75 5.75-2.57 5.75-5.75-2.57-5.75-5.75-5.75zm4.175 8.994c.097-.224.129-.514.129-.706-.129.096-.225.225-.386.321-.385.29-.835.482-1.22.546l-1.092-1.22.803 1.413c-.225.353-.514.706-.932 1.028-.128.096-.257.192-.417.256.192.033.482.097.706.097-.546.193-1.156.321-1.766.321-.61 0-1.22-.096-1.767-.321.257 0 .514-.032.739-.097-.129-.064-.29-.16-.418-.256-.385-.29-.706-.643-.931-.996l.803-1.413-1.124 1.22c-.418-.096-.835-.289-1.22-.546-.13-.096-.258-.193-.386-.321.032.225.064.482.128.707-.706-.9-1.124-2.024-1.124-3.245v-.16c.064.257.193.482.321.674.032-.16.064-.32.129-.481.16-.482.385-.868.674-1.189l1.574.321v-.032l-1.478-.674c-.032-.418 0-.868.161-1.35.064-.16.096-.32.193-.45-.193.097-.482.226-.675.386.707-1.027 1.735-1.798 2.955-2.152-.224.129-.417.354-.578.514.16-.032.321-.032.482-.032.482 0 .964.096 1.35.29l.192 1.605h.032l.193-1.606c.385-.16.835-.289 1.349-.289.16 0 .32 0 .482.032-.161-.16-.354-.385-.579-.514 1.22.354 2.28 1.125 2.955 2.152-.192-.16-.481-.289-.674-.385.064.128.128.289.193.45.16.45.192.931.16 1.349l-1.477.674v.032l1.573-.32c.29.32.515.706.675 1.188.064.16.096.32.129.481.096-.192.256-.45.32-.674v.16c-.031 1.189-.449 2.313-1.156 3.212z"/>
    <path fill="#000" d="M14.403 16.61l.9 2.73h2.858l.9-2.73-2.345-1.67-2.313 1.67z"/>
    <path fill="#fff" d="M.078 38.194v7.709h4.4v-1.735H2.069v-5.974H.078zM8.172 41.342c-.9 0-1.446.674-1.446 1.477 0 .868.546 1.574 1.414 1.574.835 0 1.51-.61 1.51-1.51-.033-.93-.675-1.541-1.478-1.541zm-3.34 1.51c0-1.735 1.284-3.245 2.986-3.245.74 0 1.221.257 1.767.74v-.643h1.83v6.199H9.554v-.61s-.675.738-1.83.738c-1.735.032-2.892-1.188-2.892-3.18zM16.94 45.903h-4.432v-7.709h1.991v5.974h2.441v1.735zM19.639 45.903h-1.863v-6.167h1.863v6.167zm-2.056-7.741c0-.61.514-1.124 1.124-1.124.61 0 1.124.482 1.124 1.124 0 .642-.514 1.156-1.156 1.156-.61-.032-1.092-.514-1.092-1.156zM23.525 41.213c-.867 0-1.285.707-1.285 1.478 0 .803.482 1.445 1.285 1.445.932 0 1.446-.739 1.446-1.445-.032-.803-.482-1.478-1.446-1.478zm-3.115 1.478c0-1.67 1.06-3.084 2.666-3.084.77 0 1.316.257 1.83.803v-.706h1.767v5.428c0 1.895-1.445 2.89-3.148 2.89-1.51 0-2.826-.77-3.02-2.151h2.089c.257.417.514.514.995.514.643 0 1.253-.29 1.253-.964v-.45c-.353.322-1.028.707-1.766.707-1.574.032-2.666-1.285-2.666-2.987zM30.88 41.342c-.899 0-1.445.674-1.445 1.477 0 .868.546 1.574 1.414 1.574.835 0 1.51-.61 1.51-1.51-.033-.93-.675-1.541-1.478-1.541zm-3.34 1.51c0-1.735 1.285-3.245 2.987-3.245.74 0 1.22.257 1.767.74v-.643h1.83v6.199h-1.862v-.61s-.675.738-1.831.738c-1.735.032-2.89-1.188-2.89-3.18z"/>
</svg>
